<svg width="17" height="16" viewBox="0 0 17 16" fill="none" xmlns="http://www.w3.org/2000/svg">
<path d="M0 15.8589V11.9214C0 10.4683 0.199219 9.06201 0.597656 7.70264C0.996094 6.31982 1.55859 5.01904 2.28516 3.80029C3.03516 2.58154 3.91406 1.51514 4.92188 0.601074L7.41797 2.4292C6.33984 3.88232 5.51953 5.34717 4.95703 6.82373C4.41797 8.30029 4.14844 9.96436 4.14844 11.8159V15.8589H0ZM8.78906 15.8589V11.9214C8.78906 10.4683 8.98828 9.06201 9.38672 7.70264C9.78516 6.31982 10.3477 5.01904 11.0742 3.80029C11.8242 2.58154 12.7031 1.51514 13.7109 0.601074L16.207 2.4292C15.1289 3.88232 14.3086 5.34717 13.7461 6.82373C13.207 8.30029 12.9375 9.96436 12.9375 11.8159V15.8589H8.78906Z" fill="#C4C4C4"/>
</svg>
