<svg width="80" height="81" viewBox="0 0 80 81" fill="none" xmlns="http://www.w3.org/2000/svg">
<path d="M40.075 80.004C62.0007 80.004 79.775 62.2297 79.775 40.304C79.775 18.3783 62.0007 0.604004 40.075 0.604004C18.1493 0.604004 0.375 18.3783 0.375 40.304C0.375 62.2297 18.1493 80.004 40.075 80.004Z" fill="#076990"/>
<path fill-rule="evenodd" clip-rule="evenodd" d="M57.1119 35.7837H23.0371V52.046H57.1119V35.7837ZM21.5371 34.2837V53.546H58.6119V34.2837H21.5371Z" fill="white"/>
<path fill-rule="evenodd" clip-rule="evenodd" d="M52.4594 35.2375H53.9594C53.9594 27.5691 47.7433 21.3525 40.0754 21.3525C32.4075 21.3525 26.1914 27.5691 26.1914 35.2375H27.6914C27.6914 28.3974 33.236 22.8525 40.0754 22.8525C46.9148 22.8525 52.4594 28.3974 52.4594 35.2375Z" fill="white"/>
<path fill-rule="evenodd" clip-rule="evenodd" d="M27.691 54.613H26.191C26.191 62.2815 32.4071 68.498 40.075 68.498C47.7429 68.498 53.959 62.2815 53.959 54.613H52.459C52.459 61.4532 46.9144 66.998 40.075 66.998C33.2356 66.998 27.691 61.4532 27.691 54.613Z" fill="white"/>
<path d="M37.7864 29.7444C37.7864 31.0505 36.7276 32.1094 35.4215 32.1094C34.1154 32.1094 33.0566 31.0505 33.0566 29.7444C33.0566 28.4382 34.1154 27.3794 35.4215 27.3794C36.7276 27.3794 37.7864 28.4382 37.7864 29.7444Z" fill="white"/>
<path d="M47.093 29.7444C47.093 31.0505 46.0342 32.1094 44.7281 32.1094C43.4221 32.1094 42.3633 31.0505 42.3633 29.7444C42.3633 28.4382 43.4221 27.3794 44.7281 27.3794C46.0342 27.3794 47.093 28.4382 47.093 29.7444Z" fill="white"/>
<path d="M17.9863 28.6095C17.9863 29.4379 17.3148 30.1095 16.4863 30.1095C15.6579 30.1095 14.9863 29.4379 14.9863 28.6095C14.9863 27.781 15.6579 27.1094 16.4863 27.1094C17.3148 27.1094 17.9863 27.781 17.9863 28.6095Z" fill="white"/>
<path fill-rule="evenodd" clip-rule="evenodd" d="M15.7011 40.7603H21.5371V42.2603H15.7011V40.7603Z" fill="white"/>
<path fill-rule="evenodd" clip-rule="evenodd" d="M17.1992 32.4681V42.2383H15.6992V32.4681H17.1992Z" fill="white"/>
<path d="M41.5742 11.6095C41.5742 12.4379 40.9026 13.1095 40.0742 13.1095C39.2458 13.1095 38.5742 12.4379 38.5742 11.6095C38.5742 10.781 39.2458 10.1094 40.0742 10.1094C40.9026 10.1094 41.5742 10.781 41.5742 11.6095Z" fill="white"/>
<path fill-rule="evenodd" clip-rule="evenodd" d="M40.8164 15.8103V22.2383H39.3164V15.8103H40.8164Z" fill="white"/>
<path d="M62.1621 54.3893C62.1621 53.5608 62.8337 52.8892 63.6621 52.8892C64.4905 52.8892 65.1621 53.5608 65.1621 54.3893C65.1621 55.2178 64.4905 55.8894 63.6621 55.8894C62.8337 55.8894 62.1621 55.2178 62.1621 54.3893Z" fill="white"/>
<path fill-rule="evenodd" clip-rule="evenodd" d="M64.4473 42.2383H58.6113V40.7383H64.4473V42.2383Z" fill="white"/>
<path fill-rule="evenodd" clip-rule="evenodd" d="M62.9492 50.5304V40.7603H64.4492V50.5304H62.9492Z" fill="white"/>
</svg>
