<svg width="80" height="81" viewBox="0 0 80 81" fill="none" xmlns="http://www.w3.org/2000/svg">
<path d="M39.993 80.004C61.9187 80.004 79.693 62.2297 79.693 40.304C79.693 18.3783 61.9187 0.604004 39.993 0.604004C18.0673 0.604004 0.292969 18.3783 0.292969 40.304C0.292969 62.2297 18.0673 80.004 39.993 80.004Z" fill="#076990"/>
<path d="M62.693 19.3042H17.493C17.093 19.3042 16.793 19.6042 16.793 20.0042V48.4042C16.793 48.8042 17.093 49.1042 17.493 49.1042C17.893 49.1042 18.193 48.8042 18.193 48.4042V28.0042H39.493V52.8042H37.793C36.693 52.8042 35.593 53.4042 34.993 54.4042H27.593C27.093 54.4042 26.693 54.5042 26.293 54.6042H18.293V51.4042C18.293 51.0042 17.993 50.7042 17.593 50.7042C17.193 50.7042 16.893 51.0042 16.893 51.4042V55.3042C16.893 55.7042 17.193 56.0042 17.593 56.0042H24.293C23.793 56.7042 23.493 57.5042 23.493 58.4042C23.493 59.1042 24.093 59.8042 24.793 59.8042H36.093C37.593 59.8042 39.093 60.2042 40.393 60.9042C41.193 61.3042 41.993 61.7042 42.793 61.9042C43.593 62.1042 44.493 62.2042 45.393 62.2042H45.493L47.393 65.7042C47.493 65.9042 47.693 66.1042 47.993 66.1042H54.493C54.893 66.1042 55.193 65.8042 55.193 65.4042C55.193 65.0042 55.093 64.6042 54.693 64.6042H48.593L47.093 61.9042L56.193 60.2042L56.893 60.1042L59.593 64.6042H57.593C57.193 64.6042 56.893 64.9042 56.893 65.3042C56.893 65.7042 57.193 66.0042 57.593 66.0042H60.793C60.993 66.0042 61.293 65.9042 61.393 65.7042C61.493 65.5042 61.493 65.2042 61.393 65.0042L57.793 59.0042C57.593 58.7042 57.293 58.6042 57.093 58.6042L56.693 58.7042C56.493 57.7042 56.193 56.7042 55.593 55.9042H62.793C63.193 55.9042 63.493 55.6042 63.493 55.2042V31.0042C63.493 30.6042 63.193 30.3042 62.793 30.3042C62.393 30.3042 62.093 30.6042 62.093 31.0042V54.6042H54.293C52.793 53.4042 50.593 52.8042 47.793 52.8042H40.893V28.0042H62.193V28.1042C62.193 28.5042 62.493 28.8042 62.893 28.8042C63.293 28.8042 63.593 28.5042 63.593 28.1042V20.0042C63.393 19.6042 63.093 19.3042 62.693 19.3042ZM53.493 55.8042C54.593 56.7042 55.093 57.9042 55.293 59.0042L45.993 60.8042H45.593C44.793 60.8042 44.093 60.7042 43.393 60.5042C42.693 60.3042 41.993 60.0042 41.293 59.7042C39.793 58.8042 37.993 58.4042 36.293 58.4042H24.893C24.893 57.0042 26.093 55.8042 27.493 55.8042H34.393C34.393 55.9042 34.393 56.1042 34.393 56.2042C34.393 56.5042 34.493 56.8042 34.693 57.0042C34.893 57.2042 35.193 57.3042 35.493 57.4042C39.293 57.5042 42.193 57.9042 42.993 58.4042C43.393 58.6042 43.793 59.0042 44.193 59.3042C44.493 59.5042 44.893 59.5042 45.193 59.2042C45.393 58.9042 45.393 58.5042 45.093 58.2042C44.693 57.9042 44.193 57.5042 43.793 57.2042C42.393 56.4042 38.293 56.1042 35.793 56.0042C35.793 55.8042 35.893 55.6042 35.993 55.4042C36.293 54.7042 36.993 54.3042 37.793 54.3042H47.793C50.493 54.2042 52.393 54.8042 53.493 55.8042ZM18.093 26.6042V20.7042H61.993V26.6042H18.093Z" fill="white"/>
<path d="M21.5938 21.604C20.4937 21.604 19.5938 22.504 19.5938 23.604C19.5938 24.704 20.4937 25.604 21.5938 25.604C22.6937 25.604 23.5938 24.704 23.5938 23.604C23.5938 22.504 22.7938 21.604 21.5938 21.604ZM21.5938 24.304C21.1938 24.304 20.8938 24.004 20.8938 23.604C20.8938 23.204 21.1938 22.904 21.5938 22.904C21.9938 22.904 22.2938 23.204 22.2938 23.604C22.2938 24.004 21.9938 24.304 21.5938 24.304Z" fill="white"/>
<path d="M27.0938 21.604C25.9937 21.604 25.0938 22.504 25.0938 23.604C25.0938 24.704 25.9937 25.604 27.0938 25.604C28.1937 25.604 29.0938 24.704 29.0938 23.604C29.0938 22.504 28.1937 21.604 27.0938 21.604ZM27.0938 24.304C26.6938 24.304 26.3938 24.004 26.3938 23.604C26.3938 23.204 26.6938 22.904 27.0938 22.904C27.4938 22.904 27.7938 23.204 27.7938 23.604C27.7938 24.004 27.4938 24.304 27.0938 24.304Z" fill="white"/>
<path d="M32.5938 21.604C31.4937 21.604 30.5938 22.504 30.5938 23.604C30.5938 24.704 31.4937 25.604 32.5938 25.604C33.6937 25.604 34.5938 24.704 34.5938 23.604C34.5938 22.504 33.6937 21.604 32.5938 21.604ZM32.5938 24.304C32.1938 24.304 31.8938 24.004 31.8938 23.604C31.8938 23.204 32.1938 22.904 32.5938 22.904C32.9938 22.904 33.2938 23.204 33.2938 23.604C33.2938 24.004 32.9938 24.304 32.5938 24.304Z" fill="white"/>
<path d="M59.193 39.9043H43.493C43.093 39.9043 42.793 40.2043 42.793 40.6043C42.793 41.0043 43.093 41.3043 43.493 41.3043H59.193C59.593 41.3043 59.893 41.0043 59.893 40.6043C59.893 40.2043 59.593 39.9043 59.193 39.9043Z" fill="white"/>
<path d="M43.493 37.4039H51.293C51.693 37.4039 51.993 37.1039 51.993 36.7039C51.993 36.3039 51.693 36.0039 51.293 36.0039H43.493C43.093 36.0039 42.793 36.3039 42.793 36.7039C42.893 37.1039 43.193 37.4039 43.493 37.4039Z" fill="white"/>
<path d="M59.193 43.104H43.493C43.093 43.104 42.793 43.404 42.793 43.804C42.793 44.204 43.093 44.504 43.493 44.504H59.193C59.593 44.504 59.893 44.204 59.893 43.804C59.893 43.404 59.593 43.104 59.193 43.104Z" fill="white"/>
<path d="M59.193 46.4043H43.493C43.093 46.4043 42.793 46.7043 42.793 47.1043C42.793 47.5043 43.093 47.8043 43.493 47.8043H59.193C59.593 47.8043 59.893 47.5043 59.893 47.1043C59.893 46.7043 59.593 46.4043 59.193 46.4043Z" fill="white"/>
<path d="M32.4914 42.5039C31.1914 44.1039 29.7914 45.8039 28.8914 46.7039H28.7914C28.7914 46.7039 27.7914 45.8039 27.1914 45.1039L26.1914 46.1039C27.3914 47.4039 28.5914 48.3039 28.7914 48.5039H28.8914C28.8914 48.5039 31.9914 45.0039 33.4914 43.5039L32.4914 42.5039Z" fill="white"/>
<path d="M28.8918 37.7041L31.0918 38.5041C30.8918 39.3041 30.6918 40.3041 30.2918 41.0041C29.9918 41.6041 29.3918 42.4041 28.8918 42.9041C28.3918 42.4041 27.8918 41.7041 27.5918 41.1041C27.1918 40.3041 26.8918 39.3041 26.7918 38.5041L28.8918 37.7041ZM28.8918 36.2041L25.0918 37.6041C25.0918 37.6041 25.3918 40.1041 26.2918 41.7041C26.9918 43.2041 28.6918 44.8041 28.8918 44.9041C29.0918 44.8041 30.7918 43.0041 31.5918 41.6041C32.3918 39.9041 32.6918 37.6041 32.6918 37.6041L28.8918 36.2041Z" fill="white"/>
<path d="M35.2923 35.804L28.7923 33.104L22.2923 35.804C22.2923 35.804 21.7923 39.604 23.8923 43.104C24.2923 43.804 24.7923 44.504 25.2923 45.104L26.2923 44.104C25.7923 43.604 25.3923 43.004 25.0923 42.404C23.8923 40.404 23.6923 38.204 23.6923 37.004C24.2923 36.704 28.3923 35.004 28.8923 34.804C29.3923 35.004 33.4923 36.604 34.0923 37.004C34.0923 37.804 33.9923 38.904 33.6923 40.004C33.5923 40.404 33.4923 40.804 33.2923 41.204L34.3923 42.304C35.6923 39.004 35.2923 35.804 35.2923 35.804Z" fill="white"/>
</svg>
