<svg width="80" height="80" viewBox="0 0 80 80" fill="none" xmlns="http://www.w3.org/2000/svg">
<path d="M40.2996 79.6041C62.2253 79.6041 79.9996 61.8298 79.9996 39.9041C79.9996 17.9784 62.2253 0.204102 40.2996 0.204102C18.3739 0.204102 0.599609 17.9784 0.599609 39.9041C0.599609 61.8298 18.3739 79.6041 40.2996 79.6041Z" fill="#076990"/>
<path d="M32.5012 30.704L30.7012 32.504L30.3012 32.104C30.0012 31.804 29.6012 31.804 29.3012 32.104C29.0012 32.404 29.0012 32.804 29.3012 33.104L30.2012 34.0039C30.3012 34.1039 30.5012 34.2039 30.7012 34.2039C30.9012 34.2039 31.1012 34.1039 31.2012 34.0039L33.5012 31.704C33.8012 31.404 33.8012 31.004 33.5012 30.704C33.2012 30.404 32.7012 30.404 32.5012 30.704Z" fill="white"/>
<path d="M36.0008 31.9043H51.9008C52.3008 31.9043 52.6008 31.6043 52.6008 31.2044C52.6008 30.8044 52.3008 30.5044 51.9008 30.5044H36.0008C35.6008 30.5044 35.3008 30.8044 35.3008 31.2044C35.3008 31.5043 35.6008 31.9043 36.0008 31.9043Z" fill="white"/>
<path d="M36.0008 34.6047H48.5008C48.9008 34.6047 49.2008 34.3046 49.2008 33.9046C49.2008 33.5046 48.9008 33.2046 48.5008 33.2046H36.0008C35.6008 33.2046 35.3008 33.5046 35.3008 33.9046C35.3008 34.3046 35.6008 34.6047 36.0008 34.6047Z" fill="white"/>
<path d="M32.5012 37.9042L30.7012 39.7042L30.3012 39.3042C30.0012 39.0042 29.6012 39.0042 29.3012 39.3042C29.0012 39.6042 29.0012 40.0042 29.3012 40.3042L30.2012 41.2043C30.3012 41.3043 30.5012 41.4043 30.7012 41.4043C30.9012 41.4043 31.1012 41.3043 31.2012 41.2043L33.5012 38.9042C33.8012 38.6042 33.8012 38.2042 33.5012 37.9042C33.2012 37.6042 32.7012 37.6042 32.5012 37.9042Z" fill="white"/>
<path d="M36.0008 41.8042H48.5008C48.9008 41.8042 49.2008 41.5042 49.2008 41.1043C49.2008 40.7043 48.9008 40.4043 48.5008 40.4043H36.0008C35.6008 40.4043 35.3008 40.7043 35.3008 41.1043C35.3008 41.5042 35.6008 41.8042 36.0008 41.8042Z" fill="white"/>
<path d="M32.5012 45.1041L30.7012 46.9042L30.3012 46.5042C30.0012 46.2042 29.6012 46.2042 29.3012 46.5042C29.0012 46.8042 29.0012 47.2042 29.3012 47.5042L30.2012 48.4043C30.3012 48.5043 30.5012 48.6043 30.7012 48.6043C30.9012 48.6043 31.1012 48.5043 31.2012 48.4043L33.5012 46.1042C33.8012 45.8041 33.8012 45.4041 33.5012 45.1041C33.2012 44.9041 32.7012 44.9041 32.5012 45.1041Z" fill="white"/>
<path d="M36.0008 46.3044H51.9008C52.3008 46.3044 52.6008 46.0043 52.6008 45.6043C52.6008 45.2043 52.3008 44.9043 51.9008 44.9043H36.0008C35.6008 44.9043 35.3008 45.2043 35.3008 45.6043C35.3008 46.0043 35.6008 46.3044 36.0008 46.3044Z" fill="white"/>
<path d="M36.0008 49.1047H48.5008C48.9008 49.1047 49.2008 48.8046 49.2008 48.4046C49.2008 48.0046 48.9008 47.7046 48.5008 47.7046H36.0008C35.6008 47.7046 35.3008 48.0046 35.3008 48.4046C35.3008 48.8046 35.6008 49.1047 36.0008 49.1047Z" fill="white"/>
<path d="M66.8004 39.0044C66.8004 34.9045 63.5004 31.5045 59.3004 31.5045V21.1045C59.3004 19.2045 57.7004 17.6045 55.8004 17.6045H43.8004C43.2004 16.4045 42.0004 15.6045 40.6004 15.6045C39.2004 15.6045 38.0004 16.4045 37.4004 17.6045H25.4004C23.5004 17.6045 21.9004 19.2045 21.9004 21.1045V58.8044C21.9004 60.7044 23.5004 62.3044 25.4004 62.3044H55.8004C57.7004 62.3044 59.3004 60.7044 59.3004 58.8044V46.5044C61.2004 46.5044 62.9004 45.8044 64.2004 44.6044L64.3004 44.5044C65.8004 43.2044 66.8004 41.2044 66.8004 39.0044ZM65.4004 39.0044C65.4004 40.5044 64.9004 41.8044 64.0004 42.9044C63.4004 41.8044 62.5004 40.9044 61.3004 40.4044C61.7004 39.9044 62.0004 39.2044 62.0004 38.5045V38.0045C62.0004 36.4045 60.7004 35.2045 59.2004 35.2045C57.6004 35.2045 56.4004 36.5045 56.4004 38.0045V38.5045C56.4004 39.2044 56.7004 39.9044 57.1004 40.4044C56.0004 40.9044 55.0004 41.8044 54.4004 42.9044C53.5004 41.8044 53.0004 40.5044 53.0004 39.0044C53.0004 35.6045 55.8004 32.8045 59.2004 32.8045C62.6004 32.8045 65.4004 35.6045 65.4004 39.0044ZM55.5004 43.9044C56.1004 42.4044 57.6004 41.4044 59.2004 41.4044C60.8004 41.4044 62.3004 42.4044 62.9004 43.9044C61.9004 44.7044 60.6004 45.2044 59.2004 45.2044C57.8004 45.1044 56.6004 44.6044 55.5004 43.9044ZM57.8004 38.5045V38.0045C57.8004 37.2045 58.5004 36.5045 59.3004 36.5045C60.1004 36.5045 60.8004 37.2045 60.8004 38.0045V38.5045C60.8004 39.3044 60.1004 40.0044 59.3004 40.0044C58.5004 40.0044 57.8004 39.3044 57.8004 38.5045ZM57.9004 21.1045V31.5045C57.2004 31.6045 56.6004 31.8045 56.0004 32.1045V21.7045C56.0004 21.3045 55.7004 21.0045 55.3004 21.0045H46.9004V19.6045C46.9004 19.4045 46.9004 19.3045 46.8004 19.1045H55.8004C57.0004 19.1045 57.9004 20.0045 57.9004 21.1045ZM37.9004 19.1045C38.2004 19.1045 38.5004 18.9045 38.6004 18.6045C38.8004 17.7045 39.7004 17.1045 40.6004 17.1045H40.7004C41.6004 17.1045 42.5004 17.7045 42.7004 18.6045C42.8004 18.9045 43.1004 19.1045 43.4004 19.1045H45.0004C45.3004 19.1045 45.5004 19.3045 45.5004 19.6045V21.0045H35.8004V19.6045C35.8004 19.3045 36.0004 19.1045 36.3004 19.1045H37.9004ZM55.9004 60.9044H25.5004C24.4004 60.9044 23.4004 60.0044 23.4004 58.8044V21.1045C23.4004 20.0045 24.3004 19.0045 25.5004 19.0045H34.5004C34.5004 19.2045 34.4004 19.3045 34.4004 19.5045V20.9045H26.0004C25.6004 20.9045 25.3004 21.2045 25.3004 21.6045V58.2044C25.3004 58.6044 25.6004 58.9044 26.0004 58.9044H37.9004C38.3004 58.9044 38.6004 58.6044 38.6004 58.2044C38.6004 57.8044 38.3004 57.5044 37.9004 57.5044H26.7004V22.4045H54.6004V33.0045C53.2004 34.1045 52.1004 35.8045 51.8004 37.7045H36.0004C35.6004 37.7045 35.3004 38.0045 35.3004 38.4045C35.3004 38.8045 35.6004 39.1045 36.0004 39.1045H51.7004C51.7004 41.3044 52.7004 43.2044 54.2004 44.6044L54.3004 44.7044C54.4004 44.8044 54.5004 44.9044 54.6004 45.0044V57.7044H43.4004C43.0004 57.7044 42.7004 58.0044 42.7004 58.4044C42.7004 58.8044 43.0004 59.1044 43.4004 59.1044H55.3004C55.7004 59.1044 56.0004 58.8044 56.0004 58.4044V45.8044C56.6004 46.1044 57.3004 46.3044 57.9004 46.4044V58.8044C57.9004 60.0044 57.0004 60.9044 55.9004 60.9044Z" fill="white"/>
<path d="M40.7 19.7047C40.9 19.7047 41.1 19.6047 41.2 19.5047C41.3 19.4047 41.4 19.2047 41.4 19.0047C41.4 18.8047 41.3 18.6047 41.2 18.5047C41.1 18.4047 40.9 18.3047 40.7 18.3047C40.5 18.3047 40.3 18.4047 40.2 18.5047C40.1 18.6047 40 18.8047 40 19.0047C40 19.2047 40.1 19.4047 40.2 19.5047C40.3 19.6047 40.5 19.7047 40.7 19.7047Z" fill="white"/>
<path d="M40.7 57.6042C40.5 57.6042 40.3 57.7042 40.2 57.8043C40.1 57.9043 40 58.1043 40 58.3043C40 58.5043 40.1 58.7043 40.2 58.8043C40.3 58.9043 40.5 59.0043 40.7 59.0043C40.9 59.0043 41.1 58.9043 41.2 58.8043C41.3 58.7043 41.4 58.5043 41.4 58.3043C41.4 58.1043 41.3 57.9043 41.2 57.8043C41 57.6042 40.9 57.6042 40.7 57.6042Z" fill="white"/>
</svg>
