<svg width="80" height="80" viewBox="0 0 80 80" fill="none" xmlns="http://www.w3.org/2000/svg">
<g clip-path="url(#clip0_2770_67)">
<path d="M39.7 79.4C61.6257 79.4 79.4 61.6257 79.4 39.7C79.4 17.7743 61.6257 0 39.7 0C17.7743 0 0 17.7743 0 39.7C0 61.6257 17.7743 79.4 39.7 79.4Z" fill="#076990"/>
<path d="M54.4 12.7998C50.8 12.7998 48 15.6998 48 19.1998C48 22.6998 50.9 25.5998 54.4 25.5998C57.9 25.5998 60.8 22.6998 60.8 19.1998C60.8 15.6998 58 12.7998 54.4 12.7998ZM54.4 24.1998C51.6 24.1998 49.4 21.9998 49.4 19.1998C49.4 16.3998 51.7 14.1998 54.4 14.1998C57.2 14.1998 59.4 16.3998 59.4 19.1998C59.4 21.9998 57.2 24.1998 54.4 24.1998Z" fill="white"/>
<path d="M55.9996 21.5998L56.2996 21.2998L55.6996 20.6998C55.9996 20.3998 56.1996 20.0998 56.2996 19.6998C56.5996 19.7998 56.7996 19.8998 57.0996 19.9998L57.1996 19.5998C56.8996 19.4998 56.6996 19.3998 56.3996 19.2998C56.3996 19.1998 56.3996 19.1998 56.3996 19.1998C56.3996 18.9998 56.3996 18.7998 56.3996 18.5998C56.4996 18.4998 56.6996 18.4998 56.7996 18.2998C56.9996 18.0998 57.0996 17.8998 57.0996 17.6998H57.6996V17.2998H56.9996C56.9996 17.0998 56.8996 16.8998 56.6996 16.6998C56.4996 16.4998 56.2996 16.3998 56.0996 16.3998V15.7998H55.6996V16.3998C55.4996 16.3998 55.2996 16.4998 55.0996 16.6998C55.0996 16.9998 54.9996 17.0998 54.9996 17.2998C54.7996 17.2998 54.5996 17.1998 54.3996 17.2998C54.2996 17.2998 54.2996 17.2998 54.2996 17.2998C54.1996 16.9998 54.0996 16.7998 53.9996 16.4998L53.5996 16.5998C53.6996 16.8998 53.7996 17.0998 53.8996 17.3998C53.5996 17.4998 53.1996 17.6998 52.8996 17.9998L52.2996 17.3998L51.9996 17.5998L52.5996 18.1998C52.2996 18.4998 52.0996 18.7998 51.9996 19.1998C51.6996 19.0998 51.4996 18.9998 51.1996 18.8998L51.0996 19.2998C51.3996 19.3998 51.5996 19.4998 51.8996 19.5998C51.8996 19.6998 51.8996 19.6998 51.8996 19.6998C51.7996 20.2998 51.9996 20.8998 52.3996 21.1998C52.7996 21.5998 53.2996 21.7998 53.8996 21.6998C53.9996 21.6998 53.9996 21.6998 53.9996 21.6998C54.0996 21.9998 54.1996 22.1998 54.2996 22.4998L54.6996 22.3998C54.5996 22.0998 54.4996 21.8998 54.3996 21.5998C54.6996 21.4998 55.0996 21.2998 55.3996 20.9998L55.9996 21.5998ZM54.1996 17.1998C54.3996 17.6998 54.6996 18.0998 55.0996 18.4998C55.4996 18.8998 55.8996 19.1998 56.3996 19.3998L56.2996 19.7998C55.7996 19.5998 55.2996 19.1998 54.8996 18.7998C54.4996 18.3998 54.1996 17.8998 53.8996 17.3998L54.1996 17.1998ZM53.7996 20.5998V19.7998H52.9996V19.3998H53.7996V18.5998H54.1996V19.3998H54.9996V19.7998H54.1996V20.5998H53.7996Z" fill="white"/>
<path d="M51.2998 26.4999C51.0998 26.1999 50.5998 26.0999 50.2998 26.3999L43.1998 31.9999L33.9998 28.1999C33.7998 28.0999 33.4998 28.1999 33.2998 28.2999L23.3998 35.2999C23.0998 35.4999 22.9998 35.9999 23.1998 36.2999C23.2998 36.4999 23.5998 36.5999 23.7998 36.5999C23.8998 36.5999 24.0998 36.5999 24.1998 36.4999L33.7998 29.6999L42.9998 33.4999C43.1998 33.5999 43.4998 33.4999 43.6998 33.3999L51.0998 27.4999C51.4998 27.2999 51.4998 26.7999 51.2998 26.4999Z" fill="white"/>
<path d="M61.6 58.0998H58.3V32.9998C58.3 32.5998 58 32.2998 57.6 32.2998H51.1C50.7 32.2998 50.4 32.5998 50.4 32.9998V57.9998H48V39.9998C48 39.5998 47.7 39.2998 47.3 39.2998H40.8C40.4 39.2998 40.1 39.5998 40.1 39.9998V57.9998H37.7V38.9998C37.7 38.5998 37.4 38.2998 37 38.2998H30.5C30.1 38.2998 29.8 38.5998 29.8 38.9998V58.0998H27.4V43.0998C27.4 42.6998 27.1 42.3998 26.7 42.3998H20.2C19.8 42.3998 19.5 42.6998 19.5 43.0998V57.9998H16.2C15.8 57.9998 15.5 58.2998 15.5 58.6998C15.5 59.0998 15.8 59.3998 16.2 59.3998H61.4C61.8 59.3998 62.1 59.0998 62.1 58.6998C62.3 58.3998 62 58.0998 61.6 58.0998ZM26.1 58.0998H21V43.7998H26.1V58.0998ZM36.4 58.0998H31.3V39.6998H36.4V58.0998ZM46.6 58.0998H41.5V40.7998H46.6V58.0998ZM56.9 58.0998H51.8V33.6998H56.9V58.0998Z" fill="white"/>
</g>
<defs>
<clipPath id="clip0_2770_67">
<rect width="79.4" height="79.4" fill="white"/>
</clipPath>
</defs>
</svg>
