<svg width="20" height="20" viewBox="0 0 20 20" fill="none" xmlns="http://www.w3.org/2000/svg">
<path fill-rule="evenodd" clip-rule="evenodd" d="M10 19C14.9706 19 19 14.9706 19 10C19 5.02944 14.9706 1 10 1C5.02944 1 1 5.02944 1 10C1 14.9706 5.02944 19 10 19ZM10 20C15.5228 20 20 15.5228 20 10C20 4.47715 15.5228 0 10 0C4.47715 0 0 4.47715 0 10C0 15.5228 4.47715 20 10 20Z" fill="#7B7B7B"/>
<path d="M10.4023 12.1973H9.13086C9.13542 11.7598 9.17415 11.402 9.24707 11.124C9.32454 10.8415 9.44987 10.584 9.62305 10.3516C9.79622 10.1191 10.0264 9.85482 10.3135 9.55859C10.5231 9.3444 10.7145 9.14388 10.8877 8.95703C11.0654 8.76562 11.209 8.56055 11.3184 8.3418C11.4277 8.11849 11.4824 7.85189 11.4824 7.54199C11.4824 7.22754 11.4255 6.95638 11.3115 6.72852C11.2021 6.50065 11.0381 6.3252 10.8193 6.20215C10.6051 6.0791 10.3385 6.01758 10.0195 6.01758C9.75521 6.01758 9.50456 6.06543 9.26758 6.16113C9.0306 6.25684 8.83919 6.40495 8.69336 6.60547C8.54753 6.80143 8.47233 7.05892 8.46777 7.37793H7.20312C7.21224 6.86296 7.33984 6.4209 7.58594 6.05176C7.83659 5.68262 8.17383 5.40007 8.59766 5.2041C9.02148 5.00814 9.49544 4.91016 10.0195 4.91016C10.5983 4.91016 11.0905 5.01497 11.4961 5.22461C11.9062 5.43424 12.2184 5.73503 12.4326 6.12695C12.6468 6.51432 12.7539 6.97461 12.7539 7.50781C12.7539 7.91797 12.6696 8.29622 12.501 8.64258C12.3369 8.98438 12.125 9.30566 11.8652 9.60645C11.6055 9.90723 11.3298 10.1943 11.0381 10.4678C10.7874 10.7002 10.6188 10.9622 10.5322 11.2539C10.4456 11.5456 10.4023 11.86 10.4023 12.1973ZM9.07617 14.3643C9.07617 14.1592 9.13997 13.986 9.26758 13.8447C9.39518 13.7035 9.57975 13.6328 9.82129 13.6328C10.0674 13.6328 10.2542 13.7035 10.3818 13.8447C10.5094 13.986 10.5732 14.1592 10.5732 14.3643C10.5732 14.5602 10.5094 14.7288 10.3818 14.8701C10.2542 15.0114 10.0674 15.082 9.82129 15.082C9.57975 15.082 9.39518 15.0114 9.26758 14.8701C9.13997 14.7288 9.07617 14.5602 9.07617 14.3643Z" fill="#7B7B7B"/>
</svg>
