<svg width="28" height="24" fill="none" xmlns="http://www.w3.org/2000/svg"><path d="M14 17.333a4 4 0 01-4-4c0-1.493.814-2.8 2-3.48L24.947 2.36l-7.373 12.773a4.008 4.008 0 01-3.574 2.2zM14 0c2.414 0 4.667.667 6.627 1.76l-2.8 1.613A10.662 10.662 0 0014 2.667 10.667 10.667 0 003.334 13.333c0 2.947 1.186 5.614 3.12 7.534h.013c.52.52.52 1.36 0 1.88-.52.52-1.373.52-1.893.013a13.293 13.293 0 01-3.907-9.427A13.333 13.333 0 0114 0zm13.334 13.333c0 3.68-1.494 7.014-3.907 9.427a1.34 1.34 0 01-2.169-.445 1.328 1.328 0 01.289-1.448 10.6 10.6 0 003.12-7.534c0-1.333-.253-2.666-.72-3.866l1.613-2.8c1.107 2 1.774 4.24 1.774 6.666z" fill="url(#paint0_linear_230_23041)"/><defs><linearGradient id="paint0_linear_230_23041" x1=".667" y1="11.796" x2="25.573" y2="11.796" gradientUnits="userSpaceOnUse"><stop stop-color="#409DEC"/><stop offset="1" stop-color="#024CBB"/></linearGradient></defs></svg>