<svg width="24" height="24" fill="none" xmlns="http://www.w3.org/2000/svg"><path d="M21.334 21.333a1.333 1.333 0 01.156 2.658l-.156.009H12a1.333 1.333 0 01-.156-2.657l.156-.01h9.334zM17.462 1.824a3.333 3.333 0 014.876 4.54l-.163.173-14.528 14.53a2 2 0 01-.427.325l-.16.08-5.072 2.307c-1.077.489-2.184-.556-1.82-1.634l.054-.133 2.306-5.073c.074-.163.17-.316.284-.454l.12-.133 14.53-14.528z" fill="url(#paint0_linear_230_23053)"/><defs><linearGradient id="paint0_linear_230_23053" x1=".098" y1="12.651" x2="21.629" y2="12.651" gradientUnits="userSpaceOnUse"><stop stop-color="#409DEC"/><stop offset="1" stop-color="#024CBB"/></linearGradient></defs></svg>