<svg width="38" height="31" fill="none" xmlns="http://www.w3.org/2000/svg"><path d="M10.642 10.928L5.165 15.5l5.477 4.572a1.78 1.78 0 11-2.286 2.731l-7.125-5.937a1.782 1.782 0 010-2.732l7.125-5.937a1.781 1.781 0 012.286 2.731zm26.125 3.206l-7.125-5.937a1.781 1.781 0 00-2.286 2.731l5.492 4.572-5.492 4.572a1.765 1.765 0 00-.222 2.509 1.81 1.81 0 001.365.638c.418 0 .823-.148 1.143-.416l7.125-5.937a1.781 1.781 0 000-2.732zM24.357.76a1.796 1.796 0 00-2.285 1.069l-9.5 26.125a1.796 1.796 0 001.069 2.286c.195.07.4.106.608.104a1.78 1.78 0 001.678-1.173l9.5-26.125A1.796 1.796 0 0024.357.76z" fill="url(#paint0_linear_512_5545)"/><defs><linearGradient id="paint0_linear_512_5545" x1=".594" y1="15.791" x2="34.974" y2="15.791" gradientUnits="userSpaceOnUse"><stop stop-color="#409DEC"/><stop offset="1" stop-color="#024CBB"/></linearGradient></defs></svg>