<svg width="32" height="33" fill="none" xmlns="http://www.w3.org/2000/svg"><path d="M26.688 6.625h-9.5v-4.75a1.187 1.187 0 10-2.375 0v4.75h-9.5a4.765 4.765 0 00-4.75 4.75V28a4.765 4.765 0 004.75 4.75h21.375a4.764 4.764 0 004.75-4.75V11.375a4.765 4.765 0 00-4.75-4.75zm-19 8.906a1.782 1.782 0 113.563 0 1.782 1.782 0 01-3.563 0zm4.156 11.281h-1.188a2.375 2.375 0 010-4.75h1.188v4.75zm5.937 0H14.22v-4.75h3.562v4.75zm3.563 0h-1.188v-4.75h1.188a2.375 2.375 0 010 4.75zm1.187-9.5a1.782 1.782 0 110-3.563 1.782 1.782 0 010 3.563z" fill="#D53636" fill-opacity=".8"/></svg>