<svg width="36" height="33" fill="none" xmlns="http://www.w3.org/2000/svg"><path d="M18 .667a3.167 3.167 0 013.167 3.166 3.144 3.144 0 01-1.584 2.74v2.01h1.584A11.083 11.083 0 0132.25 19.667h1.583a1.583 1.583 0 011.584 1.583V26a1.583 1.583 0 01-1.584 1.583H32.25v1.584a3.167 3.167 0 01-3.167 3.166H6.917a3.167 3.167 0 01-3.167-3.166v-1.584H2.167A1.583 1.583 0 01.583 26v-4.75a1.583 1.583 0 011.584-1.583H3.75A11.083 11.083 0 0114.833 8.583h1.584v-2.01a3.141 3.141 0 01-1.584-2.74A3.167 3.167 0 0118 .667zm-7.125 17.416a3.958 3.958 0 100 7.916 3.958 3.958 0 000-7.916zm14.25 0a3.958 3.958 0 100 7.916 3.958 3.958 0 000-7.916z" fill="url(#paint0_linear_512_5569)"/><defs><linearGradient id="paint0_linear_512_5569" x1=".583" y1="16.81" x2="33.116" y2="16.81" gradientUnits="userSpaceOnUse"><stop stop-color="#409DEC"/><stop offset="1" stop-color="#024CBB"/></linearGradient></defs></svg>