<svg width="45" height="45" fill="none" xmlns="http://www.w3.org/2000/svg"><path d="M40.25 43.75l-14-14c-1.25 1-2.688 1.792-4.313 2.375-1.625.583-3.354.875-5.187.875-4.542 0-8.385-1.573-11.53-4.72C2.075 25.133.502 21.29.5 16.75c0-4.542 1.573-8.385 4.72-11.53C8.367 2.075 12.21.502 16.75.5c4.542 0 8.385 1.573 11.53 4.72 3.145 3.147 4.718 6.99 4.72 11.53 0 1.833-.292 3.563-.875 5.188-.583 1.625-1.375 3.062-2.375 4.312l14.063 14.063c.458.458.687 1.02.687 1.687s-.25 1.25-.75 1.75c-.458.458-1.042.688-1.75.688s-1.292-.23-1.75-.688zM16.75 28c3.125 0 5.782-1.094 7.97-3.282 2.188-2.189 3.282-4.845 3.28-7.968 0-3.125-1.094-5.782-3.282-7.97-2.189-2.188-4.845-3.282-7.968-3.28-3.125 0-5.782 1.094-7.97 3.283-2.188 2.188-3.282 4.844-3.28 7.967 0 3.125 1.094 5.782 3.283 7.97 2.188 2.188 4.844 3.282 7.967 3.28z" fill="#2175D4"/></svg>