<svg width="60" height="60" fill="none" xmlns="http://www.w3.org/2000/svg"><path fill-rule="evenodd" clip-rule="evenodd" d="M3.75 30a26.25 26.25 0 1052.5 0 26.25 26.25 0 00-52.5 0zm48 0a21.75 21.75 0 11-43.5 0 21.75 21.75 0 0143.5 0z" fill="#25C28B"/><path fill-rule="evenodd" clip-rule="evenodd" d="M18.75 30c0 13.566 4.473 24.75 11.25 24.75S41.25 43.566 41.25 30 36.777 5.25 30 5.25 18.75 16.434 18.75 30zm18 0c0 11.286-3.585 20.25-6.75 20.25S23.25 41.286 23.25 30 26.835 9.75 30 9.75s6.75 8.964 6.75 20.25z" fill="#25C28B"/><path d="M10.806 16.4l3.018-3.335c.3.27.627.54.975.8 3.813 2.857 9.9 4.62 16.545 4.62 5.673 0 10.956-1.28 14.793-3.473a15.894 15.894 0 002.457-1.71l2.922 3.423a20.176 20.176 0 01-3.144 2.19c-4.548 2.604-10.602 4.068-17.028 4.068-7.566 0-14.595-2.034-19.245-5.517-.447-.335-.879-.69-1.293-1.065zm0 27.247l3.018 3.336c.3-.273.627-.54.975-.801 3.813-2.856 9.9-4.62 16.545-4.62 5.673 0 10.956 1.28 14.793 3.474a15.894 15.894 0 012.457 1.71l2.922-3.423a20.528 20.528 0 00-3.144-2.19c-4.548-2.604-10.602-4.068-17.028-4.068-7.566 0-14.595 2.034-19.245 5.517-.447.335-.879.69-1.293 1.065zM5.25 32.25v-4.5h49.5v4.5H5.25z" fill="#25C28B"/></svg>