<svg width="113" height="40" fill="none" xmlns="http://www.w3.org/2000/svg"><g clip-path="url(#clip0_501_3739)"><path d="M46.885 5.334c1.614 0 2.667.912 3.088 2.105.491 1.263.35 2.737-.912 3.65 1.474.631 1.965 1.964 1.965 3.157 0 1.895-1.264 3.86-3.72 3.86H41.48V5.334h5.404zm-3.51 5.123h3.44c2.035 0 2.035-3.369.07-3.369h-3.51v3.369zm0 5.895h3.93c1.264 0 1.896-1.053 1.896-2.036 0-.982-.632-2.035-1.895-2.035h-3.93v4.07zm11.3-9.123c1.123-1.193 2.738-1.895 4.492-1.895 1.755 0 3.37.702 4.492 1.895 1.123 1.193 1.825 2.737 1.825 4.491 0 1.754-.702 3.368-1.825 4.491-1.193 1.193-2.737 1.895-4.492 1.895-1.754 0-3.369-.702-4.492-1.895-1.123-1.193-1.824-2.737-1.824-4.491 0-1.754.701-3.298 1.824-4.491zm7.791 1.263a4.506 4.506 0 00-3.229-1.333 4.506 4.506 0 00-3.228 1.333 4.505 4.505 0 00-1.334 3.228c0 1.263.492 2.386 1.334 3.228a4.506 4.506 0 003.228 1.333 4.506 4.506 0 003.23-1.333A4.505 4.505 0 0063.8 11.72a5.172 5.172 0 00-1.334-3.228zm8.703 9.684V7.088h-3.86V5.334h9.615v1.754h-3.93v11.088h-1.825z" fill="#3D88C8"/><path d="M43.446 35.298H41.62V22.456h7.65v1.825h-5.825v3.86h5.123v1.754h-5.123v5.403zm15.16-3.228h-5.194l-1.263 3.228h-1.965l5.123-12.842h1.334l5.124 12.842h-1.966l-1.193-3.228zm-4.492-1.754h3.86l-1.965-5.053-1.895 5.053zm22.53 4.982H74.68l-1.333-1.193c-2.808 1.825-6.528 1.474-8.493-.701-1.123-1.193-1.895-2.737-1.895-4.492 0-1.754.702-3.368 1.895-4.49 1.123-1.194 2.737-1.896 4.492-1.896s3.369.702 4.492 1.895c1.123 1.193 1.895 2.737 1.895 4.491 0 1.474-.491 2.807-1.334 3.93l2.176 2.105v.351h.07zm-7.86-5.544h2.175l2.106 1.965c.561-.772.842-1.754.842-2.807 0-1.263-.561-2.386-1.334-3.228a4.506 4.506 0 00-3.228-1.333 4.506 4.506 0 00-3.229 1.333c-.772.842-1.333 1.965-1.333 3.228 0 1.264.561 2.457 1.333 3.228 1.544 1.544 3.86 1.825 5.756.702l-3.159-2.807v-.28h.07zm0 .281v-.28.28zm12.633 5.263V24.21h-3.86v-1.754h9.615v1.754h-3.86v11.088h-1.895zM90.54 24.35c1.124-1.192 2.738-1.894 4.493-1.894 1.754 0 3.368.702 4.492 1.895 1.122 1.193 1.824 2.737 1.824 4.491 0 1.754-.702 3.368-1.825 4.491-1.193 1.193-2.737 1.895-4.491 1.895-1.755 0-3.37-.702-4.492-1.895-1.123-1.193-1.825-2.737-1.825-4.491 0-1.684.702-3.298 1.825-4.491zm7.721 1.334a4.506 4.506 0 00-3.228-1.333 4.506 4.506 0 00-3.229 1.333 4.505 4.505 0 00-1.334 3.228c0 1.263.492 2.386 1.334 3.228a4.506 4.506 0 003.229 1.334 4.506 4.506 0 003.228-1.334 4.505 4.505 0 001.334-3.228c0-1.263-.492-2.456-1.334-3.228zm7.791 3.088h2.176c1.544 0 2.316-1.123 2.316-2.246s-.772-2.245-2.316-2.245h-2.878v10.947h-1.825V22.456h4.703c2.807 0 4.211 2.035 4.211 4.07 0 1.825-1.123 3.509-3.299 3.93l4.071 4.842h-2.386l-4.703-5.614v-.912h-.07z" fill="#111"/><path d="M26.46 24.42c-3.369 4.071-7.019 8.492-9.405 10.948-.07 0-.07-.07-.14-.14a71.093 71.093 0 01-4.211-4.07l-2.527 2.526c3.158 3.298 6.106 5.754 6.738 6.246.07.07.14.07.14.07s8.212-8.983 12.002-13.053l-2.597-2.526z" fill="#4EB594"/><path d="M16.915 7.299l-10.458 4.07s.912 6.947 3.229 11.579c2.035 4.07 6.738 8.702 7.229 8.982.491-.28 5.404-5.193 7.44-9.263 2.316-4.631 3.018-11.298 3.018-11.298l-10.458-4.07z" fill="#3D88C8"/><path d="M33.69 7.158L16.915.07.141 7.158s-1.194 9.754 4.07 18.807a36.529 36.529 0 003.72 5.123l2.527-2.527c-1.193-1.403-2.316-2.947-3.158-4.42-3.018-5.053-3.65-10.807-3.72-14.036 1.474-.842 12.072-5.122 13.335-5.614 1.193.492 11.861 4.772 13.335 5.614-.07 2.597-.49 6.807-2.175 11.018l2.737 2.737c3.93-8.421 2.878-16.702 2.878-16.702z" fill="#3D88C8"/><path d="M29.058 27.017l-2.597-2.596c-3.37 4.07-7.02 8.491-9.405 10.947-.07 0 0 4.702 0 4.702s8.141-8.982 12.002-13.053z" fill="#029E81"/><path d="M28.075 21.123l2.737 2.737c3.93-8.421 2.878-16.702 2.878-16.702L16.915.07v4.421c1.193.492 11.861 4.772 13.335 5.614-.07 2.597-.49 6.807-2.175 11.018z" fill="#057BAA"/><path d="M27.373 11.369s-.702 6.667-3.018 11.298c-2.036 4.07-6.949 8.983-7.44 9.263V7.3l10.458 4.07z" fill="#057BAA"/></g><defs><clipPath id="clip0_501_3739"><path fill="#fff" d="M0 0h113v40H0z"/></clipPath></defs></svg>