<svg width="24" height="24" fill="none" xmlns="http://www.w3.org/2000/svg"><g clip-path="url(#clip0_282_10802)"><path d="M2.025 22.35l-.075-.075c-1.8-1.125-2.475-3.45-1.425-5.25L8.55 3C9.675 1.2 12 .525 13.8 1.575l.075.075c1.8 1.125 2.475 3.45 1.425 5.25L7.275 21c-1.05 1.8-3.45 2.475-5.25 1.35z" fill="#FBBC04"/><path d="M22.05 22.35l-.075.15c-1.8 1.125-4.275.45-5.25-1.425L8.55 6.9C7.425 5.1 8.1 2.7 9.9 1.65l.15-.15c1.8-1.125 4.275-.45 5.25 1.425l8.1 14.1c1.2 1.875.525 4.275-1.35 5.325z" fill="#4385F5"/><path d="M2.025 22.35l-.075-.075c-1.8-1.125-2.475-3.45-1.425-5.25L.6 16.95c1.125-1.8 3.45-2.475 5.25-1.425l.075.075c1.8 1.125 2.475 3.45 1.425 5.25l-.075.15c-1.05 1.8-3.45 2.475-5.25 1.35z" fill="#34A853"/></g><defs><clipPath id="clip0_282_10802"><path fill="#fff" d="M0 0h24v24H0z"/></clipPath></defs></svg>