<svg width="24" height="24" fill="none" xmlns="http://www.w3.org/2000/svg"><mask id="a" style="mask-type:luminance" maskUnits="userSpaceOnUse" x="1" y="0" width="22" height="24"><path d="M22.275 0H1.725v24h20.55V0z" fill="#fff"/></mask><g mask="url(#a)"><path d="M21.15 16.05c-.675 1.8-1.575 3.3-2.925 4.5-1.425 1.425-3.375 2.55-5.7 3.375-.075.075-.15.075-.225.075h-.375c-.15 0-.225 0-.375-.075-.075 0-.15-.075-.225-.075-2.325-.825-4.2-1.95-5.7-3.375-1.275-1.2-2.25-2.775-2.925-4.5-1.2-3.15-1.125-6.675-1.05-9.45 0-.225 0-.45.075-.75C1.8 4.425 2.85 3.3 4.2 3.225c2.775-.15 4.95-1.05 6.75-2.85C11.25.15 11.625 0 12 0s.75.15 1.05.375c1.8 1.8 3.975 2.7 6.75 2.85 1.35.075 2.325 1.2 2.4 2.475 0 .3 0 .525.075.75-.075 2.85 0 6.375-1.125 9.6z" fill="#57B36E"/></g><mask id="b" style="mask-type:luminance" maskUnits="userSpaceOnUse" x="1" y="0" width="22" height="24"><path d="M22.275 0H1.725v24h20.55V0z" fill="#fff"/></mask><g mask="url(#b)"><path d="M21.15 16.05c-.675 1.8-1.575 3.3-2.925 4.5-1.425 1.425-3.375 2.55-5.7 3.375-.075.075-.15.075-.225.075H12V0c.375 0 .75.15 1.05.375 1.8 1.8 3.975 2.7 6.75 2.85 1.35.075 2.325 1.2 2.4 2.475 0 .3 0 .525.075.75-.075 2.85 0 6.375-1.125 9.6z" fill="#57B36E"/></g><path d="M18 12c0 3.3-2.7 6-6 6h-.075c-3.3 0-6-2.7-6-6s2.7-6 6-6H12c3.3 0 6 2.7 6 6z" fill="#fff"/><path d="M18 12c0 3.3-2.7 6-6 6V6c3.3 0 6 2.7 6 6z" fill="#E1EBF0"/><path d="M15.675 11.775a.161.161 0 01-.15-.15v-.375A3.52 3.52 0 0012 7.725a3.52 3.52 0 00-3.525 3.525v.375c0 .075-.075.15-.15.15a.161.161 0 01-.15-.15v-.375c0-2.1 1.725-3.825 3.825-3.825s3.825 1.725 3.825 3.825v.375c0 .15-.075.15-.15.15zm-.15 1.725h-.375a.161.161 0 01-.15-.15c0-.075.075-.15.15-.15h.375c.15 0 .15-.075.15-.15v-.825c0-.075.075-.15.15-.15s.15.075.15.15v.825c0 .3-.15.45-.45.45z" fill="#848484"/><path d="M10.875 13.65h2.1v1.8h-2.1v-1.8z" fill="#CBCBCB"/><path d="M15.15 12.975c.075-.15.075-.225.075-.375v-2.55c0-.825-.675-1.5-1.5-1.5h-3.3c-.825 0-1.5.675-1.5 1.5v2.625c0 .825.675 1.5 1.5 1.5h3.3c.375 0 .75-.15.975-.375" fill="#E5E5E5"/><path d="M9.975 13.2v.9c-.675-.15-1.2-.75-1.2-1.5v-.9c.75.15 1.2.75 1.2 1.5zm5.175-1.425v.9c0 .15 0 .3-.075.375l-.45.75c-.15.15-.375.3-.675.375v-.9c0-.825.525-1.425 1.2-1.5z" fill="#CBCBCB"/><path d="M11.55 10.8c0 .525-.375.975-.975.975-.525 0-.975-.375-.975-.975 0-.525.375-.975.975-.975.525 0 .975.45.975.975zm2.85 0c0 .525-.375.975-.975.975s-.975-.375-.975-.975c0-.525.375-.975.975-.975s.975.45.975.975z" fill="#fff"/><path d="M10.575 11.175c-.15 0-.375-.15-.375-.375s.15-.375.375-.375c.15 0 .375.15.375.375s-.225.375-.375.375zm2.85 0c-.15 0-.375-.15-.375-.375s.15-.375.375-.375.375.15.375.375-.225.375-.375.375zM9.6 13.425c0 .225-.15.375-.375.375h-.15c-.225 0-.375-.15-.375-.375s.15-.375.375-.375h.15c.225-.075.375.075.375.375z" fill="#444"/><path d="M11.4 12.525h.375V14.1H11.4v-1.575zm.75 0h.375V14.1h-.375v-1.575zm.675.075v1.575h.375V13.2c.075-.375-.075-.6-.375-.6zm-1.725 0c-.225.075-.375.3-.375.6v.975h.375V12.6z" fill="#7B7B7B"/><path d="M8.85 10.575v1.5c0 .225-.15.375-.375.525h-.3a.513.513 0 01-.525-.525v-1.5c0-.3.225-.525.525-.525H8.4c.225.075.45.3.45.525z" fill="#686868"/><path d="M8.85 10.575v1.5c0 .225-.15.375-.375.525a.564.564 0 01-.375-.525v-1.5c0-.225.15-.375.375-.525.15.075.375.3.375.525z" fill="#7B7B7B"/><path d="M16.35 10.575v1.5c0 .225-.15.375-.375.525h-.3a.513.513 0 01-.525-.525v-1.5c0-.3.225-.525.525-.525h.3c.225.075.375.3.375.525z" fill="#686868"/><path d="M16.35 10.575v1.5c0 .225-.15.375-.375.525a.564.564 0 01-.375-.525v-1.5c0-.225.15-.375.375-.525.225.075.375.3.375.525z" fill="#7B7B7B"/><path d="M14.925 12.975h.15c.225 0 .375.15.375.375s-.15.375-.375.375h-.15c-.225 0-.375-.15-.375-.375s.075-.375.375-.375z" fill="#444"/><path d="M8.025 13.05v-.825c0-.075.075-.15.15-.15s.15.075.15.15v.825c0 .15.075.15.15.15h.375c.075 0 .15.075.15.15s-.075.15-.15.15h-.375c-.225.075-.45-.15-.45-.45z" fill="#848484"/><path d="M15.075 15.975h-6.15V15.9c0-.525.375-.975.975-.975h4.2c.45 0 .975.45.975 1.05z" fill="#CBCBCB"/><path d="M15.075 15.975l-4.95.075v-.075c0-.525.375-.975.975-.975h3c.45-.075.975.375.975.975z" fill="#E5E5E5"/><path d="M11.925 6.375a5.537 5.537 0 00-5.55 5.55 5.537 5.537 0 005.55 5.55 5.537 5.537 0 005.55-5.55 5.537 5.537 0 00-5.55-5.55zm0 10.425a4.865 4.865 0 01-4.875-4.875c0-1.2.45-2.325 1.2-3.225l6.9 6.9c-.9.75-2.025 1.2-3.225 1.2zm3.675-1.725l-6.9-6.9c.9-.75 2.025-1.2 3.225-1.2 2.7 0 4.875 2.175 4.875 4.875.075 1.2-.45 2.4-1.2 3.225z" fill="#E84C4F"/></svg>