<svg width="24" height="24" fill="none" xmlns="http://www.w3.org/2000/svg"><g clip-path="url(#clip0_282_10339)"><path d="M.023 11.696C.023 5.341 5.2.141 11.525.141c6.326 0 11.501 5.2 11.501 11.555 0 6.356-5.175 11.556-11.501 11.556S.023 18.052.023 11.696z" fill="#1A4A7F"/><path fill-rule="evenodd" clip-rule="evenodd" d="M9.656 23.107a11.056 11.056 0 01-6.11-3.105l10.351-9.533-5.894 1.444a2.96 2.96 0 01-3.666-2.239v-.072a3.184 3.184 0 012.3-3.756L19 2.813c4.888 4.117 5.535 11.411 1.438 16.25a11.545 11.545 0 01-4.242 3.178c0-.434 0-.867.144-1.228l1.941-5.85c-.072 0-8.626 7.944-8.626 7.944z" fill="url(#paint0_linear_282_10339)"/></g><defs><linearGradient id="paint0_linear_282_10339" x1="26.78" y1=".008" x2="-12.763" y2="36.125" gradientUnits="userSpaceOnUse"><stop stop-color="#FFB800"/><stop offset="1" stop-color="#FFF11D"/></linearGradient><clipPath id="clip0_282_10339"><path fill="#fff" d="M0 0h24v24H0z"/></clipPath></defs></svg>