<svg width="50" height="30" fill="none" xmlns="http://www.w3.org/2000/svg"><path d="M50 15c0 8.23-6.692 15-15 15-8.23 0-15-6.77-15-15S26.692 0 34.923 0C43.308 0 50 6.77 50 15z" fill="#F9B50B"/><path d="M29.923 15.077c0-1.077-.154-2.154-.308-3.154h-9.23c.076-.538.23-1 .384-1.615H29c-.154-.539-.385-1.077-.615-1.616h-7c.23-.538.538-1 .846-1.615h5.307a10.501 10.501 0 00-1.153-1.615H23.46c.462-.539.924-1 1.539-1.539C22.385 1.462 18.846 0 14.923 0 6.77.23 0 6.77 0 15s6.692 15 15 15c3.923 0 7.385-1.538 10.077-3.923.538-.462 1-1 1.538-1.616H23.54c-.385-.461-.77-1-1.078-1.538h5.231c.308-.461.616-1 .846-1.615h-7c-.23-.462-.461-1-.615-1.616h8.23c.462-1.384.77-2.923.77-4.615z" fill="#C8191C"/><path d="M20.308 18.846l.23-1.384c-.076 0-.23.076-.384.076-.539 0-.616-.307-.539-.461l.462-2.77h.846l.23-1.538h-.768l.153-.923h-1.615S18 17.077 18 17.692c0 .923.538 1.385 1.308 1.385.461 0 .846-.154 1-.23zm.539-2.538c0 2.23 1.538 2.77 2.769 2.77 1.154 0 1.692-.232 1.692-.232l.308-1.538s-.846.385-1.692.385c-1.77 0-1.462-1.308-1.462-1.308h3.23s.232-1 .232-1.462c0-1-.539-2.307-2.308-2.307-1.539-.077-2.77 1.692-2.77 3.692zM23.616 14c.846 0 .692 1 .692 1.077H22.54C22.616 15 22.769 14 23.616 14zm10.077 4.846l.307-1.77s-.77.385-1.384.385c-1.077 0-1.616-.846-1.616-1.846 0-1.923.923-2.923 2.077-2.923.77 0 1.462.462 1.462.462l.23-1.693s-.923-.384-1.846-.384c-1.846 0-3.615 1.615-3.615 4.615 0 2 .923 3.308 2.846 3.308.692.077 1.538-.154 1.538-.154zm-22.078-6.308a6.222 6.222 0 00-1.923.308l-.23 1.384s.692-.307 1.769-.307c.538 0 1 .077 1 .538 0 .308-.077.385-.077.385h-.693c-1.384 0-2.846.538-2.846 2.384 0 1.462.923 1.77 1.539 1.77 1.077 0 1.615-.693 1.692-.693l-.077.616h1.308l.615-4.385c0-1.923-1.538-2-2.077-2zm.308 3.538c0 .231-.154 1.539-1.077 1.539-.462 0-.615-.385-.615-.615 0-.385.23-.924 1.461-.924h.23zM15.23 19c.385 0 2.385.077 2.385-2.076 0-2-1.923-1.616-1.923-2.385 0-.385.308-.539.846-.539.231 0 1.077.077 1.077.077l.231-1.461s-.538-.154-1.538-.154c-1.154 0-2.385.462-2.385 2.077 0 1.846 2 1.692 2 2.385 0 .461-.539.538-.923.538-.692 0-1.462-.23-1.462-.23l-.23 1.46c.153.154.615.308 1.923.308zm31.693-7.692l-.308 2.153s-.615-.769-1.538-.769c-1.462 0-2.692 1.77-2.692 3.846 0 1.308.615 2.616 2 2.616.923 0 1.538-.616 1.538-.616l-.077.539h1.616l1.153-7.616-1.692-.153zm-.769 4.153c0 .847-.385 2-1.308 2-.538 0-.846-.461-.846-1.307 0-1.308.539-2.077 1.308-2.077.538.077.846.461.846 1.384zM2.923 18.923l.923-5.692L4 18.923h1.077l2.077-5.692-.846 5.692H8l1.308-7.615H6.692L5.077 16 5 11.308H2.692l-1.307 7.615h1.538z" fill="#fff"/><path d="M27.539 18.923c.461-2.615.538-4.77 1.692-4.384.154-1 .385-1.462.538-1.847h-.307c-.692 0-1.308.924-1.308.924l.154-.847H26.77l-1 6.154h1.769zm9.846-6.385a6.233 6.233 0 00-1.924.308l-.23 1.384s.692-.307 1.769-.307c.538 0 1 .077 1 .538 0 .308-.077.385-.077.385h-.692c-1.385 0-2.846.538-2.846 2.384 0 1.462.923 1.77 1.538 1.77 1.077 0 1.615-.693 1.692-.693l-.077.616H39l.615-4.385c0-1.923-1.692-2-2.23-2zm.384 3.538c0 .231-.154 1.539-1.077 1.539-.461 0-.615-.385-.615-.615 0-.385.23-.924 1.461-.924h.231zm3.077 2.847c.462-2.615.539-4.77 1.692-4.384.154-1 .385-1.462.539-1.847h-.308c-.692 0-1.307.924-1.307.924l.153-.847h-1.538l-1 6.154h1.77z" fill="#fff"/></svg>