<svg width="64" height="32" fill="none" xmlns="http://www.w3.org/2000/svg"><path d="M53 8.5H42.7c.6 3.4 3.9 6.6 7.5 6.6h8.2c.1-.3.1-.8.1-1.1 0-3-2.5-5.5-5.5-5.5z" fill="url(#paint0_linear_503_4381)"/><path d="M43.6 15.7V24h5v-4.4H53c2.4 0 4.5-1.7 5.2-3.9H43.6zM26 8.5v15.4h4.4s1.1 0 1.7-1.1c3-5.9 3.9-7.7 3.9-7.7h.6v8.8h5V8.5h-4.4s-1.1.1-1.7 1.1c-2.5 5.1-3.9 7.7-3.9 7.7H31V8.5h-5zM5 24V8.6h5s1.4 0 2.2 2.2c2 5.8 2.2 6.6 2.2 6.6s.4-1.4 2.2-6.6c.8-2.2 2.2-2.2 2.2-2.2h5V24h-5v-8.3h-.6L15.4 24h-2.2l-2.8-8.3h-.6V24H5z" fill="#4FAD50"/><defs><linearGradient id="paint0_linear_503_4381" x1="42.682" y1="11.847" x2="58.465" y2="11.847" gradientUnits="userSpaceOnUse"><stop stop-color="#27B1E6"/><stop offset="1" stop-color="#148ACA"/></linearGradient></defs></svg>