<svg width="30" height="30" fill="none" xmlns="http://www.w3.org/2000/svg"><path d="M19 14.42l-3.214-3.55-3.572 3.188 3.215 3.623L19 14.421zM9.643 7.971l3.214 3.55 3.572-3.188-3.215-3.55L9.643 7.97zM21.5 20.58l-3.214-3.551-3.572 3.26 3.215 3.552L21.5 20.58z" fill="#137ABE"/><path d="M17.786 26.522l-5.857-6.595 1.642-1.449-4.142-4.637 1.642-1.45L6.93 7.754l6.5-5.87L15.5 4.13l3.571-3.116 2.072 2.174L22.5 1.957c-.286-.145-.643-.363-.929-.508C19.5.58 17.286 0 14.93 0 6.714 0 0 6.74 0 15s6.714 15 15 15c2.714 0 5.214-.725 7.357-1.956.714-.435 1.357-.87 2-1.305l-3-3.406-3.571 3.189z" fill="#137ABE"/><path d="M16.214 6.232l2.357 2.681 2.715-2.391-2.429-2.681-2.643 2.39zm7.5 5.652l-2.428-2.681-2.643 2.464 2.428 2.608 2.643-2.39zM26 17.536l-2.429-2.68-2.642 2.39L23.357 20 26 17.536zm.143-8.84l-1.786 1.594L26 12.1l1.714-1.594-1.571-1.811zm.5 6.884l1.571 1.811L30 15.797l-1.643-1.812-1.714 1.595zM22.071 5l1.643 1.812 1.715-1.595-1.572-1.811L22.071 5zm1.215 17.681l2.428 2.681 2.643-2.391-2.428-2.681-2.643 2.391z" fill="#137ABE"/></svg>