<svg width="51" height="17" fill="none" xmlns="http://www.w3.org/2000/svg"><path d="M47.57 1.229h-3.206c-.97 0-1.715.304-2.162 1.295L36.088 16.77h4.325s.745-1.904.894-2.362h5.294c.15.534.522 2.286.522 2.286H51L47.57 1.23zm-5.07 9.98c.373-.914 1.64-4.342 1.64-4.342 0 .076.373-.915.523-1.448l.298 1.371s.82 3.734.969 4.496H42.5v-.076zm-6.114.458c0 3.2-2.834 5.333-7.233 5.333-1.864 0-3.653-.381-4.623-.838l.597-3.505.522.229c1.342.61 2.236.838 3.877.838 1.193 0 2.46-.457 2.46-1.524 0-.686-.521-1.143-2.162-1.905-1.566-.762-3.653-1.98-3.653-4.19C26.17 3.057 29.078 1 33.179 1c1.566 0 2.908.305 3.728.686l-.596 3.352-.298-.305a7.879 7.879 0 00-3.132-.61c-1.566.077-2.311.763-2.311 1.372 0 .686.895 1.22 2.311 1.905 2.386 1.143 3.505 2.438 3.505 4.267z" fill="#3362AB"/><path d="M0 1.38l.075-.304h6.412c.895 0 1.566.305 1.79 1.295L9.692 9.23C8.276 5.57 4.996 2.6 0 1.38z" fill="#F9B50B"/><path d="M18.715 1.229l-6.487 15.466h-4.4L4.102 3.743c2.684 1.752 4.92 4.495 5.74 6.4l.448 1.6 4.027-10.59h4.399v.076zm1.715-.077h4.1l-2.609 15.543h-4.1L20.43 1.152z" fill="#3362AB"/></svg>