<svg width="163" height="44" fill="none" xmlns="http://www.w3.org/2000/svg"><g clip-path="url(#clip0_230_22892)" fill="#E00C3C"><path d="M135.618 6.041c-.205.029-.921.13-1.608.218-2.411.305-4.72.973-6.839 1.96-4.618 2.15-7.643 5.693-8.754 10.238-.409 1.684-.365 5.707.088 7.464.672 2.628 1.9 4.69 3.902 6.622 2.659 2.54 6.035 4.182 10.434 5.082 1.535.32 2.031.349 5.7.349 3.142-.015 4.281-.058 5.261-.247.686-.145 1.476-.29 1.753-.349 1.929-.348 5.948-1.815 7.526-2.73.556-.334.658-.45.731-1.016.117-.755.044-5.838-.088-5.954-.043-.044-.643.276-1.315.726-1.49.988-4.311 2.367-5.904 2.86-5.743 1.816-11.998 1.627-16.367-.479-3.932-1.902-5.905-4.864-5.919-8.887 0-4.646 2.557-7.87 7.497-9.468 4.296-1.38 9.981-1.22 14.979.436 2.163.712 5.159 2.265 6.533 3.369l.438.363.088-.348c.131-.436.16-5.112.044-5.809-.074-.45-.22-.595-1.067-1.104-2.514-1.539-6.81-2.831-10.756-3.238-1.242-.13-5.553-.174-6.357-.058zM15.36 7.145c-.147.363-4.312 10.092-4.619 10.79-.117.232-1.081 2.497-2.163 5.01-1.081 2.511-2.893 6.737-4.033 9.38-1.125 2.643-2.06 4.85-2.06 4.894 0 .058 1.446.101 3.214.101 3.128 0 3.216 0 3.376-.32.088-.159.819-1.872 1.608-3.79.789-1.916 1.476-3.513 1.52-3.572.058-.043 4.238-.101 9.309-.13 10.157-.044 9.703-.073 10.01.857.088.275.775 1.93 1.535 3.688l1.373 3.195 3.318.043c1.827.015 3.317 0 3.317-.029 0-.072-2.294-5.33-3.58-8.219-.263-.595-.92-2.105-1.462-3.34-.54-1.234-1.096-2.512-1.242-2.831-.146-.32-.687-1.569-1.213-2.76-1.973-4.53-3.945-9.032-4.238-9.656-.16-.363-.57-1.307-.92-2.106l-.614-1.452-3.084-.044c-1.695-.014-3.083 0-3.083.03 0 .028.146.377.307.769.175.378.467 1.06.643 1.496a1605.74 1605.74 0 002.776 6.607c.541 1.278 1.125 2.686 1.316 3.122.175.436.701 1.685 1.154 2.745.453 1.074.818 2.047.818 2.149 0 .16-1.344.189-7.014.189-4.092 0-7.015-.058-7.015-.131 0-.073 1.418-3.587 3.157-7.813 3.814-9.206 3.726-8.988 3.61-9.105-.06-.043-1.404-.087-2.997-.087-2.879 0-2.908 0-3.025.32zm27.605 14.928V37.32l2.893-.029 2.88-.043.072-14.943c.059-12.285.103-14.812.264-14.303.146.522 1.636 6.984 2.075 8.988.058.276.687 3.02 1.388 6.1.702 3.078 1.315 5.75 1.36 5.953.145.74-.015.726 6.005.726 3.099 0 5.715-.058 5.817-.116.088-.058.906-3.34 1.812-7.29 1.695-7.478 1.754-7.74 2.017-8.93.599-2.774 1.359-5.824 1.476-5.94.102-.101.146 5.068.146 14.841V37.32l2.893-.029 2.88-.043V6.898l-5.759-.044c-3.17-.014-5.816.015-5.874.073-.088.102-.936 3.587-1.447 5.997-.059.276-.482 2.135-.95 4.139a357.17 357.17 0 00-.95 4.139c-.424 1.989-1.783 7.725-1.885 8-.16.465.073 1.41-2.426-9.67-.35-1.525-1.067-4.69-1.608-7.043a619.193 619.193 0 01-1.096-4.807c-.044-.276-.146-.595-.204-.682-.073-.131-1.666-.175-5.948-.175h-5.831v15.248zM80.596 7c-.044.101-.058 6.955-.044 15.218l.044 15.03 10.522.043c11.209.058 11.794.03 14.103-.653 3.887-1.148 7.453-4.197 9.338-7.973 1.739-3.514 1.944-8.306.512-12.067-1.491-3.964-5.174-7.522-9.222-8.916-2.221-.77-1.958-.755-13.97-.813-9.193-.058-11.224-.03-11.283.13zm22.023 5.648c.424.087 1.33.421 2.017.74 1.009.48 1.462.814 2.485 1.845 1.344 1.336 1.943 2.309 2.499 4.008.277.842.336 1.322.321 2.832 0 1.553-.058 1.99-.38 2.977-1.023 3.093-3.756 5.677-6.795 6.403-.643.146-2.587.19-8.608.204h-7.79V12.488h7.746c5.013 0 8.009.059 8.505.16z"/><path d="M135.91 24.541v2.76l8.885.028c4.882.03 8.9.03 8.944 0 .102-.072.176-4.806.088-5.213l-.088-.334H135.91v2.76z"/></g><defs><clipPath id="clip0_230_22892"><path fill="#fff" transform="matrix(1 0 0 -1 2 38)" d="M0 0h161v32H0z"/></clipPath></defs></svg>