<svg width="154" height="36" fill="none" xmlns="http://www.w3.org/2000/svg"><g clip-path="url(#clip0_230_22906)" fill-rule="evenodd" clip-rule="evenodd" fill="#433C7B"><path d="M9.881 12.617c-2.457 0-4.526.919-6.034 2.426v-2.051H.149v22.97h3.698v-6.956c1.508 1.508 3.577 2.426 6.034 2.426 5.262 0 9.528-4.212 9.528-9.407 0-5.196-4.266-9.408-9.528-9.408zm0 15.365c-3.332 0-6.034-2.667-6.034-5.957s2.702-5.958 6.034-5.958c3.333 0 6.034 2.667 6.034 5.958 0 3.29-2.701 5.957-6.034 5.957zm86.409 3.45c2.457 0 4.526-.918 6.034-2.426v2.052h3.698V12.992h-3.698v2.051c-1.508-1.507-3.577-2.426-6.034-2.426-5.263 0-9.528 4.212-9.528 9.408 0 5.195 4.266 9.407 9.528 9.407zm0-15.557c3.44 0 6.228 2.753 6.228 6.15 0 3.396-2.788 6.15-6.228 6.15s-6.229-2.754-6.229-6.15c0-3.397 2.789-6.15 6.229-6.15zm-53.9-3.258c-5.262 0-9.528 4.212-9.528 9.408 0 5.195 4.266 9.407 9.528 9.407 5.263 0 9.528-4.212 9.528-9.407 0-5.196-4.265-9.408-9.528-9.408zm0 15.557c-3.44 0-6.228-2.753-6.228-6.15 0-3.396 2.788-6.15 6.228-6.15s6.23 2.754 6.23 6.15c0 3.397-2.79 6.15-6.23 6.15zm88.074-15.557c-5.263 0-9.528 4.212-9.528 9.408 0 5.195 4.265 9.407 9.528 9.407 5.262 0 9.528-4.212 9.528-9.407 0-5.196-4.266-9.408-9.528-9.408zm0 15.557c-3.441 0-6.229-2.753-6.229-6.15 0-3.396 2.788-6.15 6.229-6.15 3.44 0 6.228 2.754 6.228 6.15 0 3.397-2.788 6.15-6.228 6.15zM33.456 12.773a9.686 9.686 0 00-1.719-.156c-2.456 0-4.526.919-6.034 2.426v-2.051h-3.698v18.066h3.698v-9.033c0-3.01 2.262-5.498 5.199-5.9a12.84 12.84 0 012.554-3.352zm120.544 0a9.688 9.688 0 00-1.719-.156c-2.457 0-4.526.919-6.034 2.426v-2.051h-3.698v18.066h3.698v-9.033c0-3.01 2.262-5.498 5.199-5.9A12.841 12.841 0 01154 12.773zM70.513 31.058h-3.686V12.992h3.686v18.066zm.525-23.952c0 1.286-1.056 2.33-2.36 2.33-1.302 0-2.359-1.044-2.359-2.33 0-1.287 1.056-2.33 2.36-2.33 1.303 0 2.359 1.043 2.359 2.33zm-5.177-5.704A7.155 7.155 0 0061.687.067c-3.937 0-7.128 3.152-7.128 7.039v23.951h3.698V16.259h4.281V12.99h-4.28V7.106c0-1.87 1.535-3.387 3.43-3.387.488 0 .952.104 1.373.286a6.38 6.38 0 012.8-2.603zM82.825 27.79c-1.586 0-2.871-1.269-2.871-2.834v-8.697h3.595v-3.267h-3.595v-7.59l-3.698.56v7.03h-1.479v3.267h1.478v8.697c0 3.582 2.942 6.486 6.57 6.486a6.597 6.597 0 003.663-1.103A12.676 12.676 0 0184.5 27.25a2.866 2.866 0 01-1.675.54zm34.246 0c-1.586 0-2.871-1.269-2.871-2.834v-8.697h3.595v-3.267H114.2v-7.59l-3.698.56v7.03h-1.479v3.267h1.479v8.697c0 3.582 2.941 6.486 6.569 6.486a6.594 6.594 0 003.663-1.103 12.679 12.679 0 01-1.987-3.089 2.87 2.87 0 01-1.676.54z"/></g><defs><clipPath id="clip0_230_22906"><path fill="#fff" d="M0 0h154v36H0z"/></clipPath></defs></svg>