<svg width="159" height="58" fill="none" xmlns="http://www.w3.org/2000/svg"><path fill-rule="evenodd" clip-rule="evenodd" d="M27.12 17.746l11.953 21.18a3.137 3.137 0 004.278 1.123l.783-.464a3.117 3.117 0 001.127-4.272l-11.967-21.19a3.121 3.121 0 00-4.263-1.128l-.768.48a3.138 3.138 0 00-1.142 4.276" fill="#C92027"/><path fill-rule="evenodd" clip-rule="evenodd" d="M30.048 57.231a28.035 28.035 0 01-13.438-3.413l-.962-.569c-1.496-.898-1.696-2.915-.873-4.267l.409-.699a2.715 2.715 0 012.752-1.361c.36.051.706.175 1.018.363l.383.25.5.304a21.386 21.386 0 0026.951-5.515 21.432 21.432 0 00-.74-27.523 21.387 21.387 0 00-27.21-4.054A21.416 21.416 0 009.73 22.215a21.436 21.436 0 00.388 14.645l.174.39 8.313-9.108.074-.155a3.143 3.143 0 012.593-1.387l7.53.09a3.13 3.13 0 013.136 3.123v.914a3.128 3.128 0 01-1.908 2.898 3.12 3.12 0 01-1.194.246l-5.35-.075-11.234 11.618c-1.496 1.587-4.089 1.317-5.061 0-.788-1.028-.823-1.173-1.606-2.36A28.251 28.251 0 0110.15 9a28.188 28.188 0 0134.043-4.424 28.224 28.224 0 0111.933 13.655 28.254 28.254 0 011.168 18.103 28.233 28.233 0 01-10.08 15.077 28.192 28.192 0 01-17.165 5.825" fill="#C92027"/><path d="M77.623 37.065c3.36.13 6.258-1.447 7.43-3.419l.035-.05v3.045h3.754v-9.063c0-4.012-1.108-7.072-3.326-9.178-1.881-1.796-4.318-2.696-7.31-2.7a10.775 10.775 0 00-7.788 3.06c-2.118 2.036-3.178 4.677-3.182 7.925 0 3.104.998 5.612 2.992 7.525a10.277 10.277 0 007.395 2.855zm-4.533-15.85a6.946 6.946 0 014.987-1.926 6.843 6.843 0 014.572 1.497c1.56 1.33 2.365 3.447 2.418 6.348-.747 4.85-5.295 6.433-6.9 6.348a7.275 7.275 0 01-4.703-1.582c-1.595-1.284-2.391-3.114-2.388-5.49.01-2.176.673-3.912 2.014-5.195zm28.727-1.927h.499V15.7h-.644a8.584 8.584 0 00-2.942.43 5.956 5.956 0 00-2.897 2.335v-2.336h-3.585V36.64h3.75V26.9c0-2.512.512-4.435 1.536-5.77.952-1.222 2.373-1.84 4.283-1.84zm13.234 13.765h-3.93c-1.68 0-2.717-.335-3.121-.998-.199-.317-.299-1.185-.299-2.605v-9.732h7.35V16.13h-7.345v-5.15h-3.75v18.779c0 2.934.878 4.946 2.648 6.028a7.411 7.411 0 003.844.854h4.608l-.005-3.588zm4.562-19.229a2.142 2.142 0 001.795-.813c.33-.412.507-.925.499-1.453a2.5 2.5 0 00-.584-1.577 2.049 2.049 0 00-1.71-.703 2.13 2.13 0 00-1.785.813c-.329.41-.506.922-.499 1.447 0 .57.196 1.124.554 1.567a2.053 2.053 0 001.73.72zm1.875 2.305h-3.745V36.64h3.745V16.129zm10.93.405c-1.206.294-2.349.8-3.376 1.497a9.372 9.372 0 00-3.411 3.993 10.5 10.5 0 00-.932 4.401 9.794 9.794 0 002.772 7.012c2.051 2.16 4.824 3.24 8.318 3.244h2.692v-3.628h-2.558c-2.398 0-4.253-.689-5.584-2.051a6.326 6.326 0 01-1.801-4.617 6.548 6.548 0 011.576-4.401c1.31-1.51 3.201-2.266 5.675-2.266h2.692V16.13h-2.518c-1.193 0-2.383.135-3.545.404zm21.102 19.762a5.283 5.283 0 002.857-2.046 4.89 4.89 0 00.693-1.542 6.57 6.57 0 00.234-1.791 5.152 5.152 0 00-1.107-3.21c-.738-.968-2.104-1.801-4.093-2.52a372.817 372.817 0 01-5.51-1.662 4.974 4.974 0 01-1.496-.733 1.858 1.858 0 01-.723-1.497 1.312 1.312 0 01.643-1.173 3.166 3.166 0 011.7-.404h9.649V16.13h-8.572c-1.105-.03-2.21.086-3.286.344a5.576 5.576 0 00-3.076 2.046 3.852 3.852 0 00-.768 1.627 9.316 9.316 0 00-.13 1.537 5.053 5.053 0 001.077 3.06c.718.957 2.048 1.79 3.989 2.494a304.81 304.81 0 005.595 1.757 5.322 5.322 0 011.626.809 1.963 1.963 0 01.688 1.542 1.522 1.522 0 01-1.282 1.592 8.651 8.651 0 01-1.875.124h-9.818v3.589h10.053c.989.02 1.976-.1 2.932-.355z" fill="#111"/><path d="M68.697 41.162H67.22v7.351h1.476v-7.35zm0-2.515H67.22v1.477h1.476v-1.477zm4.802 2.321a2.113 2.113 0 00-1.885 1.053h-.04v-.859h-1.391v7.346h1.47v-4.93c0-.998.574-1.433 1.177-1.433.763 0 1.023.34 1.023 1.323v5.04h1.496v-5.544c-.02-1.487-.734-1.996-1.85-1.996zm5.081-1.897h-1.496v2.091h-.997v1.093h.997v4.562c0 1.497.499 1.776 1.496 1.776.401.01.802-.032 1.192-.125v-1.093a3.065 3.065 0 01-.534.04c-.498 0-.668-.19-.668-.778v-4.382h1.212v-1.093H78.58v-2.09zm4.493 1.896c-2.294 0-2.717 2.05-2.717 3.992 0 3.399 1.495 3.758 2.687 3.758 1.596 0 2.578-.998 2.578-2.65H84.23c0 .45-.12 1.637-1.172 1.637s-1.232-1.293-1.232-2.256v-.424h3.84v-.778c0-2.037-.549-3.28-2.593-3.28zm1.117 3.049h-2.364v-.15c0-.958.305-1.886 1.232-1.886.833 0 1.132.709 1.132 1.637v.399zm4.193-1.711h-.03v-1.143h-1.471v7.346h1.47V44.11c0-1.367.809-1.667 1.497-1.667a2.15 2.15 0 01.613.08v-1.497a.846.846 0 00-.354-.055c-.853-.005-1.396.514-1.725 1.333zm6.119-1.337a2.109 2.109 0 00-1.885 1.053h-.04v-.859H91.18v7.346h1.496v-4.93c0-.998.573-1.433 1.171-1.433.768 0 1.028.34 1.028 1.323v5.04h1.495v-5.544c-.044-1.487-.752-1.996-1.87-1.996zm5.759 0c-2.294 0-2.718 2.05-2.718 3.992 0 3.399 1.496 3.758 2.693 3.758 1.595 0 2.578-.998 2.578-2.65h-1.392c0 .45-.124 1.637-1.176 1.637s-1.227-1.258-1.227-2.24v-.425h3.834v-.793c0-2.037-.543-3.28-2.592-3.28zm1.121 3.049h-2.363v-.15c0-.958.3-1.886 1.227-1.886.832 0 1.136.709 1.136 1.637v.399zm4.518-4.946h-1.496v2.091h-.997v1.093h.997v4.562c0 1.497.499 1.776 1.496 1.776a4.6 4.6 0 001.187-.125v-1.093c-.176.03-.355.043-.533.04-.499 0-.669-.19-.669-.778v-4.382h1.202v-1.093h-1.202l.015-2.09zm8.373 5.27l-.943-.324c-.777-.275-1.037-.5-1.037-1.083 0-.694.464-.953 1.052-.953.763 0 .968.544.968 1.133v.19h1.371v-.33c0-.913-.424-1.996-2.294-1.996-1.526 0-2.493.643-2.493 1.996a1.927 1.927 0 001.496 2.09l1.281.455a1.072 1.072 0 01.808 1.078c0 .669-.384 1.078-1.201 1.078-.818 0-1.147-.45-1.147-1.313v-.23h-1.312v.28c0 1.422.559 2.286 2.419 2.286 1.471 0 2.632-.669 2.632-2.24-.005-1.159-.508-1.747-1.6-2.117zm5.13-3.373c-2.129 0-2.727 1.572-2.727 3.867 0 2.296.708 3.868 2.727 3.868 2.02 0 2.763-1.572 2.763-3.868 0-2.295-.634-3.867-2.763-3.867zm0 6.642c-1.047 0-1.256-.903-1.256-2.775 0-1.627.209-2.774 1.256-2.774s1.272 1.148 1.272 2.774c-.005 1.872-.19 2.775-1.272 2.775zm5.425-8.853h-1.475v9.751h1.475v-9.751zm5.157 7.54a1.138 1.138 0 01-.321.885 1.15 1.15 0 01-.876.343c-.643 0-.997-.274-.997-1.093v-5.27h-1.496v5.135c0 1.897.738 2.406 1.83 2.406a2.114 2.114 0 001.885-1.053h.04v.858h1.391v-7.346h-1.496l.04 5.135zm4.727-7.227h-1.496v2.091h-.997v1.093h.997v4.562c0 1.497.499 1.776 1.496 1.776.399.01.798-.032 1.187-.124v-1.093a3.034 3.034 0 01-.534.04c-.498 0-.668-.19-.668-.779v-4.382h1.202v-1.093h-1.202l.015-2.09zm3.51-.423h-1.476v1.477h1.476v-1.477zm0 2.515h-1.476v7.35h1.476v-7.35zm3.934-.195c-2.134 0-2.732 1.572-2.732 3.867 0 2.296.708 3.868 2.732 3.868 2.025 0 2.743-1.572 2.743-3.867 0-2.296-.613-3.868-2.743-3.868zm0 6.642c-1.052 0-1.256-.903-1.256-2.775 0-1.627.204-2.774 1.256-2.774s1.267 1.148 1.267 2.774c0 1.872-.19 2.775-1.267 2.775zm7.195-6.641a2.108 2.108 0 00-1.885 1.053h-.04v-.859h-1.396v7.346h1.496v-4.93c0-.998.574-1.433 1.172-1.433.768 0 1.027.34 1.027 1.323v5.04h1.471v-5.544c-.02-1.487-.728-1.996-1.845-1.996zm6.373 3.373l-.937-.324c-.783-.275-1.042-.5-1.042-1.083 0-.694.469-.953 1.052-.953.768 0 .967.544.967 1.133v.19h1.397v-.33c0-.913-.424-1.996-2.294-1.996-1.531 0-2.493.643-2.493 1.996a1.93 1.93 0 001.496 2.09l1.281.455a1.066 1.066 0 01.803 1.078c0 .669-.379 1.078-1.197 1.078-.818 0-1.147-.45-1.147-1.313v-.23h-1.311v.28c0 1.422.558 2.286 2.413 2.286 1.496 0 2.638-.669 2.638-2.24-.025-1.159-.534-1.747-1.626-2.117z" fill="#4F504F"/></svg>