<svg width="100" height="56" fill="none" xmlns="http://www.w3.org/2000/svg"><g clip-path="url(#clip0_230_22901)"><path d="M57.994 10.424a.828.828 0 01-.258-.621.82.82 0 01.258-.613c.172-.167.4-.25.686-.25.284 0 .514.083.689.25a.81.81 0 01.262.613.823.823 0 01-.262.621c-.175.167-.407.25-.697.25-.28 0-.506-.083-.678-.25zm-.008 1.824h1.387v8.073h-1.387v-8.073zm5.39 7.728a4.193 4.193 0 01-1.516-1.551 4.253 4.253 0 01-.556-2.14c0-.776.185-1.49.556-2.142a4.195 4.195 0 011.516-1.55 4.068 4.068 0 012.128-.574c.64 0 1.228.122 1.766.367a3.946 3.946 0 012.177 2.505h-1.428a2.418 2.418 0 00-.983-1.179 2.85 2.85 0 00-1.524-.411 2.812 2.812 0 00-2.423 1.417c-.266.453-.399.975-.399 1.566 0 .597.134 1.121.4 1.575a2.81 2.81 0 002.422 1.417 2.77 2.77 0 001.524-.428c.446-.285.774-.696.983-1.234h1.42a3.935 3.935 0 01-.795 1.535 3.85 3.85 0 01-1.37 1.033c-.54.245-1.13.368-1.77.368a4.07 4.07 0 01-2.128-.574zM58.722 32.15c-.484-.427-.726-1.21-.726-2.35v-3.886h-1.83V24.72h1.83v-2.398l1.387-.008v2.406H62.1v1.195h-2.717v3.95c0 .68.136 1.146.407 1.396.271.251.627.376 1.068.376H62.1v1.156h-1.516c-.758 0-1.379-.214-1.862-.641zm12.406-3.039h-6.82c.053.528.211.99.475 1.389.263.398.595.706.995.922.4.216.827.324 1.278.324.554 0 1.027-.117 1.42-.352a2.06 2.06 0 00.862-1.032h1.556a3.606 3.606 0 01-.782 1.349 3.92 3.92 0 01-1.33.953 4.114 4.114 0 01-1.694.349 4.09 4.09 0 01-2.128-.57 4.111 4.111 0 01-1.507-1.543 4.294 4.294 0 01-.549-2.145c0-.776.184-1.49.552-2.145a4.135 4.135 0 011.508-1.55 4.069 4.069 0 012.124-.57c.77 0 1.464.185 2.085.557a3.99 3.99 0 011.455 1.492 4.05 4.05 0 01.524 2.018c0 .074-.008.259-.024.554zm-1.395-1.203a1.963 1.963 0 00-.411-1.06 2.649 2.649 0 00-.972-.784 2.897 2.897 0 00-1.286-.293c-.419 0-.814.083-1.185.25-.37.166-.69.41-.955.732-.266.322-.45.707-.552 1.155h5.36zm4.691.768l-2.781-3.957h1.644l2.096 3.039h.009l2.104-3.039h1.637l-2.781 3.957 2.861 4.115h-1.669l-2.168-3.15-2.177 3.15H71.57l2.855-4.115zm7.716 3.474c-.483-.427-.725-1.21-.725-2.35v-3.886h-1.83V24.72h1.83v-2.398l1.387-.008v2.406h2.716v1.195h-2.716v3.95c0 .68.135 1.146.407 1.396.272.251.627.376 1.068.376h1.241v1.156h-1.515c-.758 0-1.379-.214-1.862-.641zM57.246 46.903c-.58-.283-1.012-.65-1.294-1.1a3.081 3.081 0 01-.471-1.468h1.314c.09.543.345.983.761 1.321.417.338 1.042.507 1.875.507.677 0 1.235-.135 1.673-.404.438-.27.758-.623.96-1.06a3.44 3.44 0 00.302-1.457v-.997a3.125 3.125 0 01-1.278 1.397c-.567.33-1.206.495-1.915.495a3.986 3.986 0 01-2.06-.543 3.934 3.934 0 01-1.451-1.468 4.018 4.018 0 01-.528-2.026c0-.728.174-1.407.524-2.037.35-.63.829-1.133 1.439-1.508a3.813 3.813 0 012.036-.562c.505 0 .972.087 1.402.261.43.174.801.41 1.113.705.312.295.551.625.718.989v-1.733h1.33v6.988c0 .77-.159 1.466-.476 2.09a3.538 3.538 0 01-1.439 1.483c-.642.367-1.426.55-2.35.55-.876 0-1.604-.141-2.185-.423zm3.624-4.353c.444-.256.795-.6 1.056-1.033a2.7 2.7 0 00.391-1.417c0-.506-.129-.976-.387-1.408a2.91 2.91 0 00-1.052-1.037 2.838 2.838 0 00-1.455-.388c-.532 0-1.021.124-1.467.372a2.788 2.788 0 00-1.057 1.017c-.258.43-.387.912-.387 1.444a2.787 2.787 0 001.44 2.461c.443.249.93.373 1.463.373a2.86 2.86 0 001.455-.384zm6.71-6.335v1.804c.205-.564.525-1.006.96-1.325.435-.32.948-.48 1.54-.48h.798v1.196h-.726c-.483 0-.916.123-1.298.368-.381.245-.68.6-.894 1.064-.216.465-.323 1.013-.323 1.646v3.8h-1.395v-8.073h1.338zm5.816 7.732a4.149 4.149 0 01-1.54-1.547 4.243 4.243 0 01-.56-2.149c0-.775.187-1.49.56-2.145a4.149 4.149 0 011.536-1.55c.65-.38 1.376-.57 2.177-.57.8 0 1.529.19 2.185.57.656.38 1.17.895 1.544 1.547.373.651.56 1.367.56 2.148 0 .781-.187 1.497-.56 2.149a4.156 4.156 0 01-1.54 1.547c-.653.38-1.383.57-2.19.57-.794 0-1.519-.19-2.172-.57zm3.656-1.1a2.783 2.783 0 001.04-1.069c.253-.453.38-.962.38-1.527 0-.56-.127-1.066-.38-1.52a2.819 2.819 0 00-2.507-1.463 2.848 2.848 0 00-2.52 1.464c-.255.453-.382.96-.382 1.52 0 .564.127 1.073.383 1.526.255.454.604.81 1.047 1.069a2.87 2.87 0 001.472.388 2.85 2.85 0 001.467-.388zm6.216 1.246c-.562-.282-1-.72-1.315-1.314-.314-.593-.47-1.344-.47-2.251v-4.313h1.378v4.273c0 .897.204 1.58.612 2.046.409.467.992.7 1.75.7.763 0 1.348-.232 1.753-.696.406-.464.61-1.147.61-2.05v-4.273h1.386v4.313c0 .902-.159 1.651-.476 2.247-.317.597-.755 1.036-1.314 1.318-.559.282-1.207.424-1.943.424-.752 0-1.41-.142-1.971-.424zm9.351-7.878v1.725a3.57 3.57 0 011.286-1.409 3.423 3.423 0 011.882-.538c.758 0 1.446.19 2.064.57a4.06 4.06 0 011.46 1.547c.354.652.532 1.365.532 2.14 0 .782-.178 1.498-.533 2.15a4.068 4.068 0 01-1.455 1.547c-.615.38-1.3.57-2.052.57a3.52 3.52 0 01-1.866-.519 3.349 3.349 0 01-1.286-1.397l.024.91v3.53h-1.387V36.215h1.33zm4.398 6.655a2.8 2.8 0 001.056-1.064c.26-.456.39-.975.39-1.555 0-.57-.128-1.082-.387-1.536a2.852 2.852 0 00-2.515-1.456c-.527 0-1.012.133-1.455.4a2.919 2.919 0 00-1.052 1.084 3.006 3.006 0 00-.387 1.508c0 .559.13 1.068.391 1.527a2.868 2.868 0 002.503 1.472 2.89 2.89 0 001.456-.38zm-9.918-30.405c.561.283 1 .72 1.314 1.314.315.594.472 1.344.472 2.252v4.313h-1.38V16.07c0-.897-.203-1.579-.612-2.046-.408-.466-.991-.7-1.75-.7-.763 0-1.347.232-1.753.696-.406.465-.609 1.148-.609 2.05v4.274h-1.387V16.03c0-.902.16-1.652.477-2.248.317-.596.755-1.035 1.314-1.318.559-.282 1.206-.423 1.943-.423.752 0 1.41.141 1.97.423zm-9.517.147a4.15 4.15 0 011.54 1.547 4.24 4.24 0 01.56 2.149c0 .775-.186 1.49-.56 2.144a4.146 4.146 0 01-1.536 1.551c-.65.38-1.376.57-2.177.57-.8 0-1.53-.19-2.185-.57a4.142 4.142 0 01-1.544-1.547 4.245 4.245 0 01-.56-2.148c0-.781.187-1.498.56-2.15a4.149 4.149 0 011.54-1.546 4.273 4.273 0 012.19-.57c.795 0 1.519.19 2.172.57zm-3.656 1.1a2.784 2.784 0 00-1.04 1.068 3.087 3.087 0 00-.38 1.528c0 .559.127 1.065.38 1.52a2.823 2.823 0 002.507 1.464 2.845 2.845 0 002.52-1.465c.255-.454.383-.96.383-1.52 0-.564-.128-1.073-.384-1.527a2.807 2.807 0 00-1.048-1.068 2.866 2.866 0 00-1.471-.388 2.85 2.85 0 00-1.467.388z" fill="#353535"/><path d="M28.76-.097c-1.081 0-2.148.06-3.198.175h-.002l-.102.01C11.26 1.696.236 13.536.236 27.903c0 8.279 3.66 15.718 9.478 20.844C14.764 53.195 21.44 55.9 28.76 55.9c7.833 0 14.929-3.1 20.084-8.117V8.02C43.689 3.003 36.593-.097 28.76-.097z" fill="#4B6BA5"/><path d="M48.843 8.122v39.606c-.41.401-.831.79-1.265 1.166-4.462 3.872-11.417 2.77-14.435-2.27-3.494-5.835-2.987-11.246-1.198-15.58l.032-.076c.166-.397.342-.785.527-1.164C42.41 28.531 43.8 22.686 43.81 22.64c-2.353 2.942-6.87 4.026-9.73 4.424 2.514-3.792 5.45-6.091 5.45-6.091-5.749 1.739-8.615 4.94-9.815 6.699a24.889 24.889 0 00-2.407-4.632c1.199-1.992 4.167-5.237 4.19-5.262-1.543.54-4.288 2.683-5.426 3.603-1.608-1.932-3.727-3.666-6.46-4.506 0 0 6.559 5.294 7.359 12.882-2.004-.674-3.741-1.097-5.245-1.338.127-1.522.26-5.504-1.549-7.446.01.045 1.056 5.036-.477 7.215-5.148-.325-6.74 1.744-6.74 1.744 11.816-1.528 13.585 4.445 13.585 4.445l.006-.006c.459 3.685-.284 7.839-3.327 12.198-3.09 4.426-9.277 5.322-13.51 2.177a9.557 9.557 0 01-.896-.756C3.485 42.903.172 35.786.172 27.91.172 13.522 11.228 1.667 25.458.089l.101-.011h.002a29.325 29.325 0 013.092-.168 28.718 28.718 0 0120.19 8.212z" fill="#D1E7F4"/><path d="M26.173 19.122s3.119-6.582-.624-12.398c-3.742-5.817-3.43 4.21.624 12.398z" fill="#2C4578"/><path d="M27.331 11.1a11.569 11.569 0 00-1.69-4.43c-.454-.705-.868-1.207-1.23-1.492-.365-.288-.685-.36-.95-.216-.356.195-.565.773-.62 1.718-.05.89.041 2.059.265 3.383.505 2.981 1.59 6.3 2.979 9.103l.094.191.091-.192c.008-.017.79-1.687 1.1-4.048.183-1.387.17-2.739-.039-4.018zm-4.022-1.07c-.221-1.31-.312-2.464-.262-3.338.049-.847.231-1.4.515-1.554a.375.375 0 01.182-.045c.153 0 .333.08.539.243.344.27.742.755 1.183 1.442 1.916 2.977 1.983 6.16 1.701 8.307a15.415 15.415 0 01-.995 3.794c-1.334-2.745-2.374-5.957-2.863-8.849z" fill="#353535"/><path d="M32.127 31.063s6.496 5.257 10.256 4.586c3.761-.671-.764-4.99-10.256-4.586z" fill="#2C4578"/><path d="M43.804 34.56c-.046-.403-.365-.847-.921-1.282-.575-.45-1.383-.872-2.338-1.223-1.07-.394-2.291-.69-3.628-.88a26.3 26.3 0 00-4.793-.214l-.147.006-.12.005.088.072.118.096a34.312 34.312 0 003.73 2.553c1.222.718 2.355 1.262 3.368 1.617.947.332 1.792.498 2.523.498.254 0 .494-.02.72-.06.48-.086.846-.233 1.086-.437.238-.203.347-.463.314-.75zm-4.572.56c-1-.35-2.12-.888-3.33-1.598a34.717 34.717 0 01-3.494-2.37c3.02-.099 5.875.287 8.065 1.092 1.813.666 3.04 1.584 3.127 2.339.053.472-.385.815-1.233.966-.84.15-1.895.006-3.135-.428z" fill="#353535"/><path d="M24.842 33.07s-8.093-2.278-11.269-.19c-3.175 2.09 2.73 4.276 11.27.19z" fill="#2C4578"/><path d="M24.87 32.971c-.02-.005-2.06-.574-4.46-.88-1.411-.18-2.671-.235-3.744-.163-1.351.09-2.412.382-3.151.868-.407.268-.682.546-.819.826-.136.28-.13.56.017.812.207.352.68.634 1.366.815.559.147 1.243.222 2.006.222.206 0 .418-.005.635-.016 1.142-.059 2.382-.266 3.684-.615a26.132 26.132 0 004.482-1.68l.241-.116-.258-.072zm-8.16 2.282c-1.934.1-3.433-.262-3.818-.92-.241-.411.02-.898.737-1.369.71-.466 1.735-.747 3.05-.835.3-.02.614-.03.943-.03.833 0 1.757.064 2.76.192 1.882.24 3.54.642 4.166.804-2.729 1.274-5.503 2.038-7.839 2.158z" fill="#353535"/><path d="M36.773 20.207s4.624-3.762 4.65-6.438c.026-2.677-3.664-.144-4.65 6.438z" fill="#2C4578"/><path d="M41.355 12.95a.64.64 0 00-.516-.332c-.625-.047-1.49.688-2.254 1.919a12.22 12.22 0 00-1.117 2.383 17.832 17.832 0 00-.798 3.273l-.04.26.207-.168c.012-.01 1.176-.96 2.327-2.226.678-.745 1.22-1.453 1.61-2.104.492-.821.745-1.556.751-2.185.004-.348-.054-.624-.17-.82zm-4.44 7.003c.339-2.056.99-3.933 1.846-5.311.369-.594.767-1.08 1.15-1.402.326-.274.632-.422.87-.422.014 0 .028 0 .042.002.44.033.5.608.497.948-.006.592-.25 1.294-.723 2.084-.383.64-.916 1.336-1.585 2.07a24.485 24.485 0 01-2.096 2.031z" fill="#353535"/><path d="M42.793 26.477s3.286-.39 4.11-1.623c.825-1.233-1.654-1.139-4.11 1.623z" fill="#2C4578"/><path d="M47.013 24.114c-.29-.215-.931-.13-1.675.225-.87.414-1.8 1.15-2.62 2.072l-.176.198.266-.032c.008 0 .84-.101 1.76-.352 1.253-.34 2.068-.783 2.424-1.315.327-.489.123-.72.02-.796zm-3.952 2.223c.755-.805 1.587-1.445 2.366-1.816.486-.231.875-.323 1.14-.323.147 0 .256.028.321.077.164.122.028.38-.068.524-.651.974-2.956 1.412-3.759 1.538z" fill="#353535"/><path d="M19.758 25.085s-4.249-6.863-7.209-5.994c-2.96.869.25 4.234 7.21 5.994z" fill="#2C4578"/><path d="M19.85 25.033a27.486 27.486 0 00-2.506-3.337c-.838-.94-1.632-1.654-2.36-2.12-.928-.593-1.756-.79-2.461-.582-.984.289-1.182.805-1.174 1.186.007.375.211.791.607 1.237.391.44.95.89 1.663 1.333.746.464 1.628.903 2.623 1.306a27.08 27.08 0 003.494 1.127l.245.062-.132-.212zm-6.12-2.454c-1.37-.852-2.162-1.728-2.176-2.403-.01-.564.553-.85 1.028-.989a1.8 1.8 0 01.51-.071c.529 0 1.124.21 1.778.628.713.456 1.493 1.157 2.318 2.083a27.388 27.388 0 012.348 3.096c-2.904-.76-4.756-1.69-5.807-2.344z" fill="#353535"/><path d="M17.707 26.494s-2.882-1.492-5.572-.003c-2.69 1.49 1.812 1.575 5.572.003z" fill="#D2BC26"/><path d="M17.76 26.405c-.03-.016-.748-.383-1.808-.57a6.48 6.48 0 00-1.819-.072 5.379 5.379 0 00-2.044.64c-.332.184-.571.356-.711.51-.192.213-.175.372-.126.469.143.284.72.36 1.297.36.394 0 .787-.036 1.04-.064 1.353-.153 2.87-.55 4.162-1.091l.2-.083-.192-.1zm-4.195 1.072c-1.323.15-2.031.01-2.129-.185-.056-.111.112-.357.754-.712a5.314 5.314 0 012.596-.647c.415 0 .797.042 1.123.1a7.192 7.192 0 011.548.456 15.718 15.718 0 01-3.892.988z" fill="#353535"/><path d="M28.346 17.692s5.792-4.065 4.831-6.53c-.96-2.465-3.727.487-4.831 6.53z" fill="#D2BC26"/><path d="M33.27 11.126c-.322-.827-.797-.963-1.138-.931-.334.03-.692.233-1.062.6-.365.364-.726.87-1.073 1.507-.531.977-1.267 2.702-1.755 5.373l-.045.244.206-.144c.015-.01 1.47-1.037 2.79-2.352.777-.776 1.357-1.5 1.722-2.152.466-.832.586-1.554.356-2.145zm-4.779 6.334c.483-2.503 1.18-4.13 1.688-5.063.662-1.217 1.381-1.947 1.972-2.002a.763.763 0 01.067-.003c.45 0 .715.433.86.806.208.533.093 1.197-.343 1.975-.356.635-.924 1.344-1.687 2.106a24.085 24.085 0 01-2.557 2.18z" fill="#353535"/><path d="M19.817 15.954s-.95-1.585-2.199-2.476c-1.334-.951-2.786-.99-3.272-.217-.632 1.003 2.368.833 5.471 2.694z" fill="#D2BC26"/><path d="M19.909 15.903c-.04-.065-.976-1.614-2.227-2.506-.852-.608-1.803-.885-2.545-.742-.393.076-.696.268-.876.553-.1.16-.125.307-.074.44.131.339.738.519 1.658.791 1.043.31 2.472.733 3.922 1.602l.35.21-.208-.348zm-4.005-1.657c-.799-.237-1.43-.423-1.525-.67-.027-.072-.009-.157.057-.262.149-.236.405-.396.741-.46.117-.023.24-.034.367-.034.62 0 1.348.263 2.017.74.862.615 1.589 1.58 1.942 2.095-1.342-.74-2.634-1.123-3.599-1.409z" fill="#353535"/><path d="M29.948 25.799s-.198-1.521.162-2.733c.385-1.296 1.322-2.048 2.044-1.782.937.344-1.128 1.735-2.206 4.515z" fill="#D2BC26"/><path d="M32.482 21.453c-.037-.118-.134-.207-.288-.264-.271-.1-.575-.073-.878.076-.567.278-1.054.941-1.3 1.773-.362 1.218-.174 2.71-.166 2.774l.052.4.146-.377c.503-1.297 1.224-2.29 1.75-3.016.468-.644.776-1.07.684-1.366zm-1.074-.008a1.02 1.02 0 01.449-.113c.092 0 .18.015.265.046.138.05.157.113.163.134.063.202-.253.638-.654 1.19-.479.66-1.117 1.539-1.613 2.669-.032-.532-.042-1.479.195-2.277.231-.778.678-1.395 1.195-1.649z" fill="#353535"/><path d="M32.759 34.032s1.222.39 1.996 1.06c.828.718 1.033 1.63.555 2.038-.621.532-.873-1.385-2.551-3.098z" fill="#D2BC26"/><path d="M34.825 35.017c-.782-.676-1.982-1.065-2.033-1.08l-.39-.125.284.29c.78.797 1.25 1.64 1.593 2.257.306.548.508.911.772.957a.316.316 0 00.056.005.419.419 0 00.272-.115.852.852 0 00.289-.668c.001-.494-.314-1.062-.843-1.52zm.419 2.037c-.089.076-.14.067-.157.064-.167-.03-.37-.394-.627-.856-.304-.547-.707-1.27-1.336-1.987.419.169 1.085.478 1.565.894.485.42.775.932.773 1.368a.657.657 0 01-.218.517z" fill="#353535"/><path d="M23.133 16.15s-.475-4.74-4.565-6.8c-4.09-2.06-.508 3.501 4.565 6.8z" fill="#A13820"/><path d="M23.235 16.14c-.005-.05-.128-1.217-.756-2.657a9.226 9.226 0 00-1.393-2.265 7.831 7.831 0 00-2.471-1.957c-1.02-.514-1.646-.594-1.858-.238-.142.238-.064.644.233 1.207.274.52.725 1.154 1.303 1.83 1.3 1.521 3.043 3.042 4.783 4.174l.18.117-.021-.211zm-4.784-4.21c-1.298-1.518-1.697-2.503-1.516-2.805.047-.08.144-.12.29-.12.045 0 .094.004.148.012.283.04.669.182 1.148.423 2.083 1.05 3.198 2.818 3.766 4.116.461 1.054.648 1.979.713 2.384-1.66-1.106-3.309-2.558-4.55-4.01z" fill="#353535"/><path d="M39.862 22.998S43.5 21.773 44.37 18.3c.872-3.473-2.843.256-4.508 4.7z" fill="#A13820"/><path d="M44.598 17.318c-.03-.324-.177-.434-.295-.47-.22-.066-.532.07-.926.402-.36.303-.776.762-1.203 1.324a18.033 18.033 0 00-2.408 4.39l-.075.199.205-.069c.038-.013.936-.32 1.955-1.061a7.431 7.431 0 001.53-1.473 6.086 6.086 0 001.09-2.237c.106-.426.15-.764.127-1.005zm-2.864 4.549a8.398 8.398 0 01-1.694.955 17.845 17.845 0 012.299-4.127c.88-1.162 1.553-1.661 1.847-1.661.02 0 .04.002.057.007.084.026.134.125.15.295.02.218-.02.534-.122.94-.442 1.762-1.624 2.925-2.537 3.59z" fill="#353535"/><path d="M20.785 20.069s-2.965-3.286-4.995-3.24c-2.03.047-.02 2.68 4.995 3.24z" fill="#A13820"/><path d="M20.865 20.001a18.123 18.123 0 00-1.748-1.648 10.367 10.367 0 00-1.638-1.126c-.64-.342-1.207-.51-1.688-.499-.774.018-.875.394-.882.554-.022.468.562 1.09 1.523 1.623a9.49 9.49 0 001.839.76c.773.235 1.616.404 2.505.503l.266.03-.177-.197zm-4.332-1.272c-1-.555-1.433-1.122-1.419-1.438.014-.3.433-.355.681-.361h.04c.8 0 1.888.544 3.149 1.577a18.298 18.298 0 011.538 1.427c-1.535-.2-2.943-.624-3.99-1.205z" fill="#353535"/><path d="M39.173 29.493s4.606 1.927 6.636.923c2.03-1.003-1.29-2.72-6.636-.923z" fill="#A13820"/><path d="M46.471 29.546c-.205-.479-1.095-.83-2.323-.916a10.687 10.687 0 00-2.23.098c-.896.126-1.83.352-2.778.67l-.253.085.246.103c.012.005 1.175.49 2.572.843.822.209 1.564.333 2.206.368.127.007.251.01.371.01.642 0 1.17-.1 1.574-.3.267-.132.456-.28.561-.443a.53.53 0 00.054-.518zm-4.712.689a20.92 20.92 0 01-2.288-.732c1.663-.53 3.31-.767 4.662-.672.588.041 1.104.145 1.493.3.346.139.579.314.656.493.137.32-.266.578-.519.703-.807.399-2.192.367-4.005-.092z" fill="#353535"/><path d="M33.998 21.359s1.456-2.918.852-4.268c-.605-1.35-1.874.742-.852 4.268z" fill="#A13820"/><path d="M34.943 17.05c-.24-.534-.547-.493-.669-.45-.341.12-.617.696-.72 1.502-.12.941.003 2.108.344 3.285l.074.253.118-.236c.003-.008.37-.747.657-1.642.39-1.216.457-2.128.196-2.711zm-1.184 1.077c.103-.817.368-1.26.585-1.337a.194.194 0 01.065-.011c.161 0 .283.214.346.353.477 1.066-.403 3.203-.733 3.932-.277-1.06-.37-2.093-.264-2.937z" fill="#353535"/><path d="M24.79 28.217s.12-3.246-.992-4.238c-1.112-.992-1.404 1.426.992 4.238z" fill="#A13820"/><path d="M24.816 26.458c-.148-1.267-.466-2.126-.946-2.554-.44-.393-.705-.232-.797-.145-.263.247-.276.883-.035 1.66.28.907.876 1.924 1.676 2.863l.172.201.01-.262c0-.009.029-.83-.08-1.763zm-1.581-1.098c-.245-.788-.186-1.299-.02-1.455a.188.188 0 01.133-.052c.134 0 .289.115.384.2.878.784.96 3.086.961 3.884-.692-.856-1.207-1.763-1.459-2.577z" fill="#353535"/><path d="M14.26 31.08s-1.252-.766-2.453-.94c-1.284-.185-2.31.31-2.362 1.022-.067.925 1.96-.268 4.816-.083z" fill="#A13820"/><path d="M14.319 30.994c-.052-.032-1.284-.778-2.493-.953-.825-.119-1.598.03-2.066.4-.25.197-.394.444-.413.714-.012.154.029.272.119.35.092.08.23.113.411.113.262 0 .615-.067 1.057-.15.841-.158 1.993-.374 3.324-.288l.41.026-.35-.212zm-3.423.276c-.64.12-1.144.215-1.294.084-.015-.012-.06-.052-.05-.185.015-.212.132-.41.337-.571.326-.257.822-.396 1.383-.396.17 0 .346.013.524.039.778.112 1.588.483 2.044.72-1.173-.024-2.184.166-2.944.31z" fill="#353535"/><path d="M35.136 15.034s-.176-1.948.327-3.44C36 10 37.199 9.16 38.085 9.58c1.15.546-1.481 2.064-2.949 5.455z" fill="#A13820"/><path d="M38.464 9.842c-.035-.15-.143-.265-.329-.354-.333-.158-.714-.157-1.1.003-.704.292-1.326 1.067-1.665 2.072-.503 1.494-.338 3.4-.33 3.48l.036.402.16-.372c.686-1.584 1.628-2.758 2.317-3.615.6-.749.998-1.243.91-1.616zm-1.073 1.491c-.639.796-1.494 1.861-2.169 3.277-.022-.649-.009-1.939.344-2.984.32-.95.9-1.679 1.55-1.949.167-.07.333-.105.492-.105.154 0 .3.033.438.098.126.06.197.131.217.218.066.278-.348.793-.872 1.445z" fill="#353535"/></g><defs><clipPath id="clip0_230_22901"><path fill="#fff" d="M0 0h100v56H0z"/></clipPath></defs></svg>