<svg width="158" height="28" fill="none" xmlns="http://www.w3.org/2000/svg"><g clip-path="url(#clip0_230_22909)"><path fill-rule="evenodd" clip-rule="evenodd" d="M149.873 7.396c-1.165 0-3.548.535-4.577 2.603h-.142s.036-.535.036-.713c.249-3.316 2.199-5.455 5.215-5.812l5.677-.872-1.205-2.1-4.757.726c-2.199.25-4.045 1.176-5.32 2.638-1.348 1.569-2.022 3.708-2.022 6.347v3.886c0 3.816 3.052 6.704 7.096 6.704 3.938 0 7.058-2.96 7.058-6.704 0-3.779-3.086-6.703-7.059-6.703zm0 11.16c-2.626 0-4.577-1.925-4.577-4.457s1.951-4.457 4.577-4.457c2.591 0 4.541 1.925 4.541 4.457s-1.95 4.457-4.541 4.457zM134.479 6.06c-2.117 0-3.896.719-5.149 2.076-1.241 1.343-1.921 3.155-1.921 5.103 0 2.063.652 3.88 1.886 5.25 1.303 1.5 3.219 2.293 5.548 2.293 2.301 0 4.305-.806 5.323-1.496l.091-.062-1.121-1.952-.031.017h-.001l-.012.008-.031.017-.025.014-.006.004a.026.026 0 01-.005.002l-.001.002c-1.351.808-2.622 1.185-4.001 1.185-1.564 0-2.844-.552-3.704-1.595-.47-.555-1.051-1.464-1.202-2.677h10.872l.006-.116c.182-3.099-.653-4.866-1.389-5.804-1.185-1.463-3.005-2.268-5.127-2.268zm0 2.232c1.194 0 2.253.438 2.98 1.232.596.681.958 1.604 1.051 2.676h-8.398c.096-.894.499-1.82 1.116-2.556.758-.885 1.883-1.352 3.251-1.352z" fill="#001727"/><path d="M98.595 15.879c.65-2.325.832-4.812.832-7.515v-1.76h11.25v13.67h-2.517V8.855h-6.274c-.092 2.37-.228 4.704-.806 7.152-.358 1.474-1.238 3.262-2.019 4.265h-2.714v-.086c.012-.03.079-.13.183-.288.457-.687 1.627-2.451 2.065-4.02z" fill="#001727"/><path fill-rule="evenodd" clip-rule="evenodd" d="M124.218 13.469c-.404-.245-1.213-.458-1.593-.487v-.129a3.26 3.26 0 001.434-.592c.444-.343.945-.952.945-1.961 0-2.515-2.242-4.016-6-4.016-2.888 0-5.466.561-5.466.561v13.09s2.592.557 5.999.557c5.941 0 6.402-3.279 6.402-4.284 0-1.563-.988-2.297-1.721-2.74zm-8.165-4.76c.267-.04 1.559-.213 2.951-.213 3.235 0 3.488 1.39 3.488 1.803 0 .413-.253 1.758-3.488 1.758h-2.951V8.709zm3.484 9.571c-.849 0-2.486-.102-3.484-.252v-3.846h3.484c2.867 0 3.89 1.046 3.89 2.026 0 .979-1.023 2.072-3.89 2.072zM57.029 6.015c2.26 0 4.312.762 5.778 2.148 1.436 1.355 2.227 3.212 2.227 5.224 0 2.014-.79 3.87-2.227 5.225-1.466 1.386-3.518 2.149-5.778 2.149-.58 0-2.12-.103-2.96-.771h-.125v6.432H51.43V7.124s2.692-1.11 5.599-1.11zM53.944 17.74c1.018.484 2.273.763 3.085.763 3.205 0 5.356-2.057 5.356-5.116 0-3.059-2.151-5.115-5.356-5.115-.778 0-1.927.196-3.085.507v8.96zm34.809-11.7c-2.992 0-4.846 1.567-4.846 1.567s.978 1.69 1.056 1.82c.052-.028.11-.061.171-.097.637-.367 1.784-1.028 3.62-1.028 2.093 0 3.895.883 3.895 3.31h-.098c-.384-.15-1.462-.46-3.53-.46-5.025 0-6.815 2.496-6.815 4.832 0 2.335 1.79 4.832 6.815 4.832 1.467 0 2.87-.178 4.286-.543a20.157 20.157 0 001.779-.541l.082-.029v-8.025c0-3.425-2.519-5.638-6.415-5.638zm3.896 11.982c-.325.123-1.586.506-3.628.506-2.645 0-4.162-.936-4.162-2.57 0-1.631 1.517-2.568 4.162-2.568 2.183 0 3.353.305 3.598.369l.03.007v4.256z" fill="#001727"/><path d="M69.868 16.268l8.3-9.664h2.155v13.672h-2.518v-9.832h-.084l-.28.417-8.238 9.415h-2.186V6.604h2.519v10.052h.074l.258-.388z" fill="#001727"/><path fill-rule="evenodd" clip-rule="evenodd" d="M43.602.5h1.236l-.623 1.08-14.323 24.84H0l.623-1.08L14.946.5h28.656zM16.1 1.58h26.88L29.625 24.737 16.1 1.58zm-.888.603L1.859 25.34h26.88L15.211 2.183z" fill="#fff"/><path d="M0 26.42L14.946.5l14.946 25.92H0z" fill="#0064C8"/><path d="M44.838.5L29.892 26.42 14.946.5h29.892z" fill="#E10000"/></g><defs><clipPath id="clip0_230_22909"><path fill="#fff" transform="translate(0 .5)" d="M0 0h158v27H0z"/></clipPath></defs></svg>