<svg width="55" height="54" fill="none" xmlns="http://www.w3.org/2000/svg"><g clip-path="url(#clip0_230_22900)" fill="#DF2926"><path d="M26.986 51.472c3.159 0 5.719-2.52 5.719-5.63s-2.56-5.632-5.72-5.632c-3.157 0-5.717 2.521-5.717 5.632 0 3.11 2.56 5.63 5.718 5.63zM3.33.214v8.678L11.477.214H3.33z"/><path d="M54.13 14.021L40.813.946A2.45 2.45 0 0039.09.252H26.987c4.778 0 8.656 3.896 8.46 8.678-.157 4.32-3.76 7.83-8.147 8.023-4.818.192-8.813-3.626-8.813-8.331 0-4.59 3.8-8.331 8.46-8.331H15.59L7.794 8.66l9.127 8.292h-4.466L5.718 10.82 3.29 13.443v3.51H0v2.16h3.29v8.678l8.147-8.678h4.152l-7.795 8.33 9.127 8.293h-4.466l-6.697-6.21-2.429 2.623v3.51H.04v16.623c0-1.08.901-1.928 1.998-1.89 1.018.039 1.84.849 1.88 1.852.039 1.08-.862 1.928-1.92 1.928h8.735c-4.778 0-8.656-3.895-8.46-8.678.156-4.32 3.72-7.83 8.107-7.984 3.134-.116 5.915 1.389 7.481 3.78l-2.31 1.466c-1.136-1.697-3.095-2.7-5.17-2.546-2.899.193-5.249 2.546-5.366 5.4-.118 3.201 2.506 5.862 5.718 5.862 1.919 0 3.682-.925 4.74-2.507l2.271 1.505a8.557 8.557 0 01-7.01 3.664h16.293c-4.779 0-8.656-3.896-8.46-8.678.156-4.32 3.76-7.83 8.147-8.023 4.817-.193 8.812 3.626 8.812 8.331 0 4.59-3.799 8.331-8.46 8.331h10.732V37.472l3.29.038 5.288 8.871 5.288-8.91 3.29.04V15.64c-.118-.578-.392-1.196-.823-1.62zM26.987 35.66c-4.661 0-8.46-3.741-8.46-8.331s3.799-8.331 8.46-8.331c4.66 0 8.46 3.741 8.46 8.33 0 4.63-3.8 8.332-8.46 8.332zm19.388-2.661c1.92 0 3.682-.926 4.74-2.507l2.271 1.504a8.557 8.557 0 01-7.01 3.664c-4.662 0-8.461-3.741-8.461-8.331s3.799-8.331 8.46-8.331c2.977 0 5.601 1.504 7.09 3.78l-2.312 1.465c-1.057-1.62-2.859-2.584-4.817-2.584-3.173 0-5.719 2.546-5.719 5.631 0 3.086 2.585 5.709 5.758 5.709z"/><path d="M46.258 52.784L45.2 51.01l-4.23-7.097v10.26h10.575v-10.26l-4.308 7.251-.98 1.62zM26.986 14.177c3.159 0 5.719-2.522 5.719-5.632s-2.56-5.63-5.72-5.63c-3.157 0-5.717 2.52-5.717 5.63s2.56 5.632 5.718 5.632zm.001 18.783c3.159 0 5.719-2.522 5.719-5.632s-2.56-5.63-5.72-5.63c-3.157 0-5.717 2.52-5.717 5.63s2.56 5.631 5.718 5.631z"/></g><defs><clipPath id="clip0_230_22900"><path fill="#fff" d="M0 0h55v54H0z"/></clipPath></defs></svg>