<svg width="132" height="56" fill="none" xmlns="http://www.w3.org/2000/svg"><g clip-path="url(#clip0_230_22899)"><path d="M12 9.333c0-.17 0-.424-.257-.424H11.4l-1.714.424c-.086 0-.257.085-.257.425v8.145c-1.972-1.782-3.258-1.782-3.686-1.782-1.886 0-5.829.849-5.829 8.06 0 6.789 3.686 7.637 5.4 7.637 2.829 0 4.372-1.442 4.372-1.442.171.764.257 1.697.857 1.357l1.286-.763c.085-.085.342-.17.342-.255 0-.17-.171-2.97-.171-4.242V9.333zM9.514 28.68s-1.543 1.357-3.943 1.357c-2.914 0-2.914-3.733-2.914-6.109 0-2.8.257-5.854 3.514-5.854 1.029 0 2.315.509 3.258 1.018v9.588h.085zM20.23 16.12c-3.772 0-6.515 2.885-6.515 7.891 0 6.11 3.943 7.891 7.2 7.891 1.457 0 2.743-.424 3.686-.848 1.029-.425 1.2-.68 1.2-.764v-.17l-.6-1.357c0-.085-.086-.17-.171-.17h-.086c-.086 0-.257.085-.429.17-1.114.594-2.228 1.103-3.6 1.103-2.143 0-4.543-1.527-4.543-5.176v-.17H25.8c.257 0 .343-.085.343-.509v-.254c0-6.28-3.172-7.637-5.914-7.637zm-3.857 6.449c.085-3.31 1.885-4.582 3.6-4.582 1.114 0 2.228.424 2.914 1.867.514 1.188.514 2.46.514 2.63 0 .085-7.028.085-7.028.085zM42.43 16.12c-1.372 0-2.657.51-4.629 1.867-.6-1.273-1.628-1.867-3-1.867-1.971 0-3.257.849-4.628 1.867-.086-.424-.343-1.273-.515-1.612-.171-.424-.428-.255-.6-.17l-1.457.764c-.086 0-.171.085-.171.17 0 0 0 .084.085.254.258.424.515.933.515 3.055v10.69c0 .34.171.425.428.425h1.715c.342 0 .428-.17.428-.424V19.515c1.029-.763 1.971-1.273 3.171-1.273 2.058 0 2.143 1.697 2.143 2.546V31.14c0 .339.172.424.429.424h1.714c.172 0 .429 0 .429-.424V19.515l.257-.17c.171-.084 1.543-1.102 2.914-1.102 2.057 0 2.143 1.697 2.143 2.545V31.14c0 .339.172.424.429.424h1.714c.171 0 .428 0 .428-.424V20.873c-.342-2.037-.514-4.752-3.942-4.752zm8.314.425H49.03c-.172 0-.429 0-.429.424v14.17c0 .339.171.424.429.424h1.714c.171 0 .428 0 .428-.424V16.97c0-.17 0-.424-.428-.424zm-.6-6.449a1.71 1.71 0 00-1.714 1.697 1.71 1.71 0 001.714 1.697 1.71 1.71 0 001.714-1.697 1.71 1.71 0 00-1.714-1.697zm9.771 12.982c-2.057-.849-3.428-1.358-3.428-2.885 0-1.103.857-2.121 2.743-2.121.857 0 1.714.17 2.914.679.171.085.257.085.514.17.086 0 .257 0 .343-.255l.6-1.188c.086-.085.172-.34-.343-.594-.428-.255-1.286-.51-1.8-.594-.857-.17-1.8-.34-2.486-.34-3.085 0-5.142 1.782-5.142 4.243 0 2.63 2.142 3.479 4.457 4.412 2.057.849 3.343 1.358 3.343 2.8 0 1.358-1.029 2.206-2.915 2.206-1.114 0-2.571-.34-3.428-.763-.514-.255-.772-.34-.943-.425h-.086c-.171 0-.171.085-.171.17l-.686 1.273v.254c0 .255.514.425.6.51.857.424 2.914 1.018 4.714 1.018 2.829 0 5.657-1.443 5.657-4.328 0-2.46-2.314-3.394-4.457-4.242zm30.857-4.327l.772-1.697c.086-.085.171-.34-.257-.425-.343-.084-.772-.254-1.286-.254-1.714 0-2.743 1.273-3.514 2.121l-.429.51c-.086-.595-.343-1.443-.771-2.122-.086-.17-.257-.424-.515-.51h-.085c-.086 0-.086.086-.257.086l-1.286.848c-.086.085-.086.085-.086.255 0 .17.086.254.086.34l.257.423c.343.68.514 1.358.514 2.376v10.691c0 .17 0 .424.429.424h1.714c.343 0 .429-.17.429-.424V21.212l.514-.594c.6-.763 1.629-1.866 2.571-1.866.172 0 .429 0 .6.085.258.084.258.17.343.17.172-.086.257-.17.257-.255zm6.258-2.461c-2.829 0-6.429 1.697-6.429 7.89 0 6.195 3.686 7.892 6.429 7.892 2.743 0 6.428-1.697 6.428-7.891.086-6.194-3.6-7.891-6.428-7.891zm0 13.915c-3.6 0-3.772-4.327-3.772-5.94 0-1.611.172-5.939 3.772-5.939 3.6 0 3.771 4.328 3.771 5.94.086 1.612-.086 5.94-3.771 5.94zM82.114 16.8c-.085-.509-.514-.848-1.028-.848-1.286.17-2.143.678-2.486 1.103-1.029-.594-2.229-1.018-3.429-1.018-3.085 0-6.171 2.29-6.171 5.09 0 1.782 1.2 3.31 2.829 4.243 0 0 0 .085-.086.085-.429.339-1.286.848-1.629 1.442-.343.679-.171 1.273 0 1.527.6 1.188 2.572 1.358 5.486 1.612l.6.085c2.486.255 3.514 1.528 3.514 2.546 0 1.273-1.714 2.63-4.2 2.63-2.828 0-3.343-1.018-3.771-1.612-.086-.17-.086-.594-.086-.679.343-.848-.343-1.273-.857-1.442-.6-.085-1.2 0-1.457.509-.429.764-.429 1.697.086 2.46.514.849 2.057 2.376 6.257 2.376h.171c3.943 0 6.172-2.121 6.257-4.157.086-2.037-1.028-4.497-5.142-4.667-4.03-.17-4.715 0-4.715-.679 0-.764 2.4-1.273 3.172-1.273 3-.17 5.742-2.375 5.742-5.09a4.02 4.02 0 00-1.2-2.885c.172-.17.515-.34 1.286-.425.514.085.857-.424.857-.933zm-7.028 7.976c-1.972 0-3.6-1.782-3.6-3.564 0-1.697 1.8-3.479 3.771-3.479 1.972 0 3.429 1.697 3.429 3.48 0 1.781-1.629 3.563-3.6 3.563z" fill="#231F20"/><path d="M116.828 29.612a3.383 3.383 0 01-.257-1.273V16.461s0-.085-.085-.085c0 0-.086-.085-.429 0l-2.229.424c-.085 0-.257.085-.257.424V28.51c-.943.679-1.971 1.273-3.343 1.273-1.285 0-2.057-.255-2.057-2.206v-11.03c-.085-.085-.257-.085-.428-.085l-2.143.424c-.086 0-.257.085-.257.424v10.352c0 2.12.428 4.666 4.457 4.666 1.543 0 3.257-.848 3.943-1.866l.085.254c.086.17.172.424.515 1.018.428.68.6.764.771.68l2.143-1.104c.086-.085.257-.085.257-.254 0-.085-.086-.085-.171-.34-.086-.34-.343-.679-.515-1.103zm9.772-13.321c-1.8 0-3.343 1.018-4.2 1.697l-.257.17c-.172-.594-.429-1.273-.857-1.697-.258-.255-.429-.17-.515-.085l-1.628.848c-.086 0-.172.085-.172.255 0 .085.086.254.257.424.772 1.273.772 2.206.772 2.885v17.054c0 .425.686.34.857.255l1.543-.424c.257-.085.257-.34.257-.425V30.97c.429.254 1.714 1.018 3.514 1.018 2.058 0 5.829-.849 5.829-7.976-.086-6.873-3.771-7.721-5.4-7.721zm-.686 13.406c-1.114 0-2.4-.51-3.257-.933v-8.485c.857-.594 2.143-1.443 3.343-1.443 2.828 0 3 2.716 3 5.346.086 2.8-.086 5.515-3.086 5.515zm-9.343-21.89V5.175L111 0l-5.657 5.176v2.63L111 2.63l5.571 5.176z" fill="#760900"/><path d="M116.571 12.303v-2.63L111 4.582l-5.657 5.09v2.631L111 7.127l5.571 5.176zM21.085 38.097l-.514-.085c-.086 0-.086-.085-.171.17l-.857 3.054c-.086.34-.172.68-.343 1.188l-.429-1.188-1.286-3.14c-.085-.169-.171-.084-.171-.084l-.257.085-.171.085c-.172 0-.086.085-.086.17l1.714 4.412c0 .084 0 .17.172.17h.342l-.085.339c-.086.424-.343 1.018-.858 1.018-.257 0-.428-.17-.685-.34-.086 0-.086-.084-.172-.084 0 0-.085 0-.085.085l-.172.424c0 .085 0 .17.172.34.085.084.428.254.942.254.858 0 1.286-.425 1.543-1.273l1.629-5.26c-.086-.17-.086-.255-.172-.34.086 0 0 0 0 0zm3.172 3.14c.686-.34.943-.85.943-1.613 0-1.527-1.286-1.612-1.972-1.612h-1.543c-.085 0-.085.085-.085.085v6.448c0 .085 0 .085.085.085h1.372c.857 0 1.286 0 1.714-.424.343-.255.686-.764.686-1.527 0-.849-.6-1.273-1.2-1.443zm-1.886-2.461h.857c.429 0 1.115.085 1.115 1.018 0 1.273-.858 1.273-1.286 1.273h-.6c-.086 0-.086-2.291-.086-2.291zm.857 5.345h-.857v-2.376h.857c.343 0 1.286.085 1.286 1.273 0 1.018-.857 1.103-1.286 1.103zm10.115.51c0 .084.085.084.085.084h.6c.086 0 .086-.085.086-.085v-6.448c0-.085 0-.085-.086-.085h-3c-.085 0-.085.085-.085.085v1.357c0 .849 0 2.63-.258 3.564-.171.849-.6.933-1.028 1.018h-2.572v-2.545h1.972c.086 0 .086-.085.086-.085v-.424c0-.085 0-.085-.086-.085h-1.971V38.86h2.228c.086 0 .086 0 .086-.085l.171-.51s0-.084-.086-.084H26.4c-.086 0-.086.085-.086.085v6.448c0 .085 0 .085.086.085h3v.085c0 .085.085.085.171.085.172 0 .429 0 .6-.085.515-.17.857-.594 1.114-1.612.086-.34.258-1.188.258-3.055V38.86h1.714c.086-.085.086 5.77.086 5.77zm2.057.084h.6c.086 0 .086 0 .171-.085l2.4-4.92c.086-.17.172-.51.257-.765 0 .255-.085.594-.085.849v4.751c0 .085.085.085.085.085h.6c.086 0 .086 0 .086-.085v-6.363c0-.085-.086-.085-.086-.085h-.771s-.086 0-.171.085l-2.315 4.666c-.085.17-.171.51-.257.764 0-.255.086-.594.086-.848v-4.582c0-.085 0-.085-.086-.085h-.6c-.086 0-.086.085-.086.085v6.448c0 .085.086.085.172.085zm6.771-2.63c.514 0 .943-.085 1.457-.34v2.885c0 .085.086.085.086.085h.6c.086 0 .086-.085.086-.085v-6.448c0-.085 0-.085-.086-.085h-.6c-.086 0-.086.085-.086.085v2.885c-.428.17-.857.339-1.285.339-1.029 0-1.029-.764-1.029-.933v-2.291c0-.085 0-.085-.086-.085h-.6c-.085 0-.085.085-.085.085v2.29c-.086 1.273.771 1.613 1.628 1.613zm3.514 2.63h3c.086 0 .086-.085.086-.085v-.424c0-.085 0-.085-.086-.085h-2.4v-2.545h1.972c.086 0 .086-.085.086-.085v-.424c0-.085 0-.085-.086-.085h-1.971V38.86h2.228c.086 0 .086 0 .086-.085l.171-.51s0-.084-.086-.084H45.6c-.086 0-.086.085-.086.085v6.448h.171zm4.029 0h.6c.086 0 .086-.085.086-.085v-2.97h2.571v2.97c0 .085.086.085.086.085h.6c.086 0 .086 0 .086-.085v-6.448c0-.085 0-.085-.086-.085h-.6c-.086 0-.086.085-.086.085v2.715H50.4v-2.715c0-.085 0-.085-.086-.085h-.6c-.086 0-.086.085-.086.085v6.448c0 .085 0 .085.086.085zm5.314 0h.6c.086 0 .086 0 .172-.085l2.4-4.92c.085-.17.171-.51.257-.765 0 .255-.086.594-.086.849v4.751c0 .085.086.085.086.085h.6c.086 0 .086 0 .086-.085v-6.363c0-.085-.086-.085-.086-.085h-.772s-.085 0-.171.085L55.8 42.848c-.086.17-.172.51-.257.764 0-.255.085-.594.085-.848v-4.582c0-.085 0-.085-.085-.085h-.6c-.086 0-.086.085-.086.085v6.448c0 .085.086.085.171.085zm5.4 0h3c.086 0 .086-.085.086-.085v-.424c0-.085 0-.085-.086-.085h-2.314v-2.545h1.972c.085 0 .085-.085.085-.085v-.424c0-.085 0-.085-.085-.085h-1.972V38.86h2.229c.085 0 .085 0 .085-.085l.172-.51s0-.084-.086-.084h-3.086c-.085 0-.085.085-.085.085v6.448h.085zm-23.485 3.14H33.17c-.085 0-.085.084-.085.084v6.449c0 .085 0 .085.085.085h.6c.086 0 .086-.085.086-.085v-5.855h2.486v5.855c0 .085.085.085.085.085h.6c.086 0 .086 0 .086-.085v-6.449c-.086 0-.086-.084-.171-.084zm2.914 0h-1.543c-.086 0-.086.084-.086.084v6.449c0 .085 0 .085.086.085h.6c.086 0 .086 0 .086-.085v-2.715h.685c.429 0 2.143 0 2.143-2.122 0-1.697-1.285-1.697-1.971-1.697zm-.257 3.139H39v-2.545h.771c.686 0 1.286.084 1.286 1.187 0 1.358-.943 1.358-1.457 1.358zm4.714-3.31c-2.143 0-2.228 2.716-2.228 3.48 0 2.97 1.285 3.478 2.228 3.478.857 0 2.229-.509 2.229-3.478 0-2.97-1.372-3.48-2.229-3.48zm0 6.28c-1.371 0-1.286-1.952-1.286-2.8 0-.849 0-2.8 1.286-2.8s1.286 1.527 1.286 2.8c0 .933.085 2.8-1.286 2.8zm19.457-.085H63.6c-.086 0-.257-.085-.429-.17-.085-.085-.085-.17-.171-.509l-.343-1.273c-.086-.17-.171-.594-.771-.848.514-.255.6-.679.77-1.188l.172-.51c.086-.423.172-.593.258-.678.17-.17.342-.255.428-.255h.171c.172 0 .172-.084.172-.17l-.172-.423c0-.085-.085-.085-.085-.085h-.172c-.257 0-.514.084-.771.424-.257.255-.343.594-.429 1.018l-.171.764c-.172.763-.429.848-.772.848h-.514V48.11c0-.085 0-.085-.086-.085h-.6c-.085 0-.085.085-.085.085v2.715h-.514c-.343 0-.6 0-.858-.848l-.171-.764c-.086-.424-.257-.848-.429-1.018-.257-.255-.514-.34-.771-.424h-.086c-.085 0-.171 0-.171.084l-.172.425c0 .085 0 .085.172.17h.171c.086 0 .257 0 .429.254.085.085.085.255.257.679l.171.509c.086.424.258.848.772 1.188-.6.254-.686.678-.772.848l-.343 1.273c-.085.34-.171.424-.171.51a.658.658 0 01-.428.169h-.172l-1.886-5.94c0-.084-.085-.084-.171-.084h-.6c-.086 0-.086 0-.171.084L52.2 53.88s0-.085-.172-.085h-.514V47.94c0-.254-.086-.17-.171-.17H48c-.086 0-.172 0-.172.17v.594c0 2.037 0 3.48-.857 5.176h-.343c-.257 0-.171.085-.171.17v1.866c0 .085 0 .085.086.085h.6c.085 0 .085 0 .085-.085v-1.357H51v1.357c0 .085.086.085.086.085h.6c.085 0 .085 0 .085-.085v-1.357h.6c.172 0 .172 0 .172-.085l.514-1.867h2.057l.514 1.867c0 .085.086.085.172.085h.686c0 .085 0 .085.085.085h.343c.429-.085.686-.255.857-.425.172-.254.257-.593.343-1.018l.257-1.018c.172-.764.429-.848.857-.848h.515v2.97c0 .084.085.084.085.084h.6c.086 0 .086-.085.086-.085v-2.97h.514c.429 0 .6.086.858.85l.257 1.017c.085.425.171.764.343 1.018.085.17.342.34.857.425h.342c.086 0 .086 0 .086-.085l.172-.424c0 .084 0 0-.172-.085zm-13.457 0h-2.486c.515-1.188.686-2.46.686-4.158v-1.103h1.8v5.26zm2.914-2.037l.6-2.12c0-.086.172-.51.172-.934.086.509.171.679.257.933l.6 2.121h-1.629z" fill="#760900"/></g><defs><clipPath id="clip0_230_22899"><path fill="#fff" d="M0 0h132v56H0z"/></clipPath></defs></svg>