<?xml version="1.0" encoding="iso-8859-1"?>
<!-- Generator: Adobe Illustrator 23.0.1, SVG Export Plug-In . SVG Version: 6.00 Build 0)  -->
<svg version="1.1" id="Capa_1" xmlns="http://www.w3.org/2000/svg" xmlns:xlink="http://www.w3.org/1999/xlink" x="0px" y="0px"
	 viewBox="-49 141 512 512" style="enable-background:new -49 141 512 512;" xml:space="preserve">
<path style="fill:#FFFFFF;" d="M207.063,145h-0.126l0,0C67.99,145-45,258.022-45,397c0,55.125,17.766,106.218,47.974,147.703
	l-31.406,93.618l96.863-30.965C108.279,633.754,155.813,649,207.063,649C346.009,649,459,535.947,459,397S346.009,145,207.063,145z
	 M353.695,500.855c-6.079,17.168-30.208,31.405-49.455,35.564c-13.167,2.803-30.366,5.04-88.263-18.963
	C141.921,486.775,94.23,411.522,90.513,406.639c-3.559-4.882-29.925-39.847-29.925-76.009s18.364-53.77,25.767-61.331
	c6.079-6.206,16.128-9.04,25.767-9.04c3.118,0,5.922,0.158,8.442,0.284c7.403,0.315,11.119,0.756,16.002,12.443
	c6.079,14.647,20.885,50.809,22.648,54.526c1.796,3.717,3.591,8.757,1.071,13.64c-2.362,5.04-4.441,7.276-8.158,11.56
	c-3.717,4.284-7.245,7.56-10.962,12.159c-3.402,4-7.245,8.285-2.961,15.687c4.284,7.245,19.089,31.406,40.887,50.81
	c28.13,25.043,50.936,33.043,59.094,36.445c6.079,2.52,13.325,1.921,17.766-2.803c5.639-6.079,12.6-16.16,19.687-26.082
	c5.04-7.119,11.403-8.001,18.081-5.481c6.804,2.362,42.809,20.16,50.211,23.845c7.402,3.717,12.285,5.481,14.08,8.599
	C359.775,469.009,359.775,483.657,353.695,500.855z"/>
</svg>
