<?xml version="1.0" encoding="utf-8"?>
<!-- Generator: Adobe Illustrator 23.0.1, SVG Export Plug-In . SVG Version: 6.00 Build 0)  -->
<svg version="1.1" id="Слой_1" xmlns="http://www.w3.org/2000/svg" xmlns:xlink="http://www.w3.org/1999/xlink" x="0px" y="0px"
	 viewBox="0 0 144.3 131.3" style="enable-background:new 0 0 144.3 131.3;" xml:space="preserve">
<style type="text/css">
	.st0{fill:#FFFFFF;}
	.st1{clip-path:url(#SVGID_2_);fill:#57B36E;}
	.st2{clip-path:url(#SVGID_4_);fill:#57B36E;}
	.st3{fill:#E1EBF0;}
	.st4{fill:#848484;}
	.st5{fill:#CBCBCB;}
	.st6{fill:#E5E5E5;}
	.st7{fill:#444444;}
	.st8{fill:#7B7B7B;}
	.st9{fill:#686868;}
	.st10{fill:#E84C4F;}
	.st11{fill:#F5F5F5;}
	.st12{fill:#465A61;}
	.st13{fill:#3B4A51;}
	.st14{opacity:0.8;fill:#556B79;enable-background:new    ;}
	.st15{fill:#556B79;}
	.st16{opacity:0.8;fill:#FBCB18;enable-background:new    ;}
	.st17{fill:#FBCB18;}
	.st18{fill:#57B36E;}
	.st19{fill:#76CE84;}
	.st20{fill:#67C17A;}
	.st21{fill:#DCB115;}
	.st22{fill:#434A54;}
	.st23{fill:#FBBD04;}
	.st24{fill:#438EDC;}
	.st25{fill:#34A952;}
</style>
<g>
	<g>
		<path class="st0" d="M5,126.3V5h120v77.6l1.3,4c2.6,8.4,5.3,17,8.4,25.4l2.4,6.7h-34.1l-1.2-3.3c-2.1-5.8-4.2-12.1-6.2-18.8v2.9
			H66.8v26.7H5z"/>
		<path class="st0" d="M120,10c0,24.5,0,48.7,0,73.4c3.1,10,6.3,20.3,10,30.4c-7.7,0-15.3,0-23.4,0c-3.7-10.1-6.8-20.6-9.4-30.4
			c-0.2,0-0.4,0-0.6,0c-1.5,0-3.7,0-5.9,0c0,3.7,0,7.6,0,11.2c-7.6,0-14.4,0-21.4,0c0-3.7,0-7,0-11.2c-2.9,0-5.2,0-7.6,0
			c0,12.7,0,25.3,0,38c-7,0-13.8,0-21.4,0c0-12.7,0-25.3,0-38c-2.9,0-5.2,0-7.6,0c0,12.7,0,25.3,0,38c-7.7,0-15.3,0-22.9,0
			c0-37.2,0-74.3,0-111.3C46.9,10,83.4,10,120,10 M130,0h-10H10H0v10v111.3v10h10h22.9h10h18.9h10v-10v-16.7h18.9h2.2
			c1.4,4.4,2.8,8.6,4.3,12.6l2.4,6.6h7H130h14.3l-4.9-13.4c-3-8.3-5.7-16.9-8.3-25.2c-0.3-1.1-0.7-2.2-1-3.3V10V0L130,0z"/>
	</g>
	<g>
		<g>
			<g>
				<path class="st17" d="M96.6,83.4c-1.5,0-3.7,0-5.9,0c0,3.7,0,7.6,0,11.2c-7.6,0-14.4,0-21.4,0c0-3.7,0-7,0-11.2
					c-2.9,0-5.2,0-7.6,0c0,12.7,0,25.3,0,38c-7,0-13.8,0-21.4,0c0-12.7,0-25.3,0-38c-2.9,0-5.2,0-7.6,0c0,12.7,0,25.3,0,38
					c-7.7,0-15.3,0-22.9,0c0-37.2,0-74.3,0-111.3c36.9,0,73.4,0,110,0c0,24.5,0,48.7,0,73.4C111.6,83.4,104.2,83.4,96.6,83.4z"/>
				<path class="st21" d="M97.2,83.4c7.6,0,15.3,0,22.9,0c3.1,10,6.3,20.3,10,30.4c-7.7,0-15.3,0-23.4,0
					C102.9,103.6,99.8,93.1,97.2,83.4z"/>
			</g>
		</g>
		<rect x="38.8" y="28.8" class="st22" width="49.8" height="9.8"/>
		<rect x="38.8" y="50.9" class="st22" width="49.8" height="9.8"/>
	</g>
</g>
</svg>
