<?xml version="1.0" encoding="utf-8"?>
<!-- Generator: Adobe Illustrator 23.0.1, SVG Export Plug-In . SVG Version: 6.00 Build 0)  -->
<svg version="1.1" id="Слой_1" xmlns="http://www.w3.org/2000/svg" xmlns:xlink="http://www.w3.org/1999/xlink" x="0px" y="0px"
	 viewBox="0 0 140 129.4" style="enable-background:new 0 0 140 129.4;" xml:space="preserve">
<style type="text/css">
	.st0{fill:#FFFFFF;}
	.st1{clip-path:url(#SVGID_2_);fill:#57B36E;}
	.st2{clip-path:url(#SVGID_4_);fill:#57B36E;}
	.st3{fill:#E1EBF0;}
	.st4{fill:#848484;}
	.st5{fill:#CBCBCB;}
	.st6{fill:#E5E5E5;}
	.st7{fill:#444444;}
	.st8{fill:#7B7B7B;}
	.st9{fill:#686868;}
	.st10{fill:#E84C4F;}
	.st11{fill:#F5F5F5;}
	.st12{fill:#465A61;}
	.st13{fill:#3B4A51;}
	.st14{opacity:0.8;fill:#556B79;enable-background:new    ;}
	.st15{fill:#556B79;}
	.st16{opacity:0.8;fill:#FBCB18;enable-background:new    ;}
	.st17{fill:#FBCB18;}
	.st18{fill:#57B36E;}
	.st19{fill:#76CE84;}
	.st20{fill:#67C17A;}
	.st21{fill:#DCB115;}
	.st22{fill:#434A54;}
	.st23{fill:#FBBD04;}
	.st24{fill:#438EDC;}
	.st25{fill:#34A952;}
</style>
<g>
	<g>
		<path class="st11" d="M30.2,124.4c-6.2,0-12.1-2.3-16.8-6.4l-0.3-0.3c-0.4-0.4-0.8-0.7-1.1-1.1c-0.3-0.3-0.6-0.6-0.9-1
			c-0.2-0.2-0.4-0.4-0.5-0.6c-0.4-0.5-0.8-1-1.1-1.5c0-0.1-0.1-0.2-0.2-0.3c-5.3-7.8-5.7-18.2-0.9-26.4l40.1-69.4l0-0.1
			c0.3-0.4,0.5-0.8,0.8-1.2l0.1-0.2c0.2-0.2,0.3-0.5,0.5-0.7c0.1-0.2,0.2-0.3,0.3-0.4c3.1-4,7.2-6.9,11.9-8.4l0.2-0.1
			c0.7-0.2,1.3-0.4,2-0.5c0.2-0.1,0.5-0.1,0.7-0.2c0.5-0.1,1-0.2,1.5-0.3c0.3,0,0.7-0.1,1-0.1c0.4,0,0.9-0.1,1.3-0.1
			c0.4,0,0.8,0,1.2,0c0.4,0,0.8,0,1.2,0c0.4,0,0.9,0.1,1.3,0.1c0.3,0,0.7,0.1,1,0.1c0.5,0.1,1,0.2,1.5,0.3c0.3,0.1,0.5,0.1,0.8,0.2
			c0.6,0.1,1.2,0.3,1.9,0.5l0.3,0.1c4.7,1.6,8.8,4.4,11.9,8.4c0.1,0.2,0.3,0.3,0.4,0.5c0.2,0.3,0.3,0.5,0.5,0.7l0.1,0.2
			c0.3,0.4,0.5,0.8,0.8,1.2l0.1,0.1l40.1,69.4c6.9,11.9,2.8,27.2-9.1,34.1l-0.2,0.1c-3.8,2.2-8.1,3.3-12.4,3.3l0,0
			c-8.9,0-17.2-4.8-21.7-12.5L70,80.3l-16.7,28.9C49.3,118.4,40.3,124.4,30.2,124.4z"/>
		<path class="st11" d="M70,10c0.3,0,0.6,0,0.9,0c0.3,0,0.7,0,1,0.1c0.3,0,0.5,0.1,0.8,0.1c0.4,0.1,0.8,0.1,1.2,0.2
			c0.2,0,0.4,0.1,0.6,0.1c0.5,0.1,1,0.3,1.5,0.4c0.1,0,0.1,0,0.2,0.1c3.7,1.2,7,3.5,9.5,6.7c0.1,0.1,0.2,0.3,0.3,0.4
			c0.2,0.2,0.3,0.5,0.5,0.7c0.2,0.4,0.5,0.7,0.7,1.1c0,0,0,0,0,0.1l40,69.3c5.5,9.5,2.2,21.8-7.3,27.3l-0.2,0.1
			c-3.1,1.8-6.5,2.7-9.9,2.7c-6.9,0-13.7-3.6-17.4-10L70,70.3L48.8,107c-3,7.3-10.2,12.4-18.6,12.4c-5.2,0-9.9-2-13.4-5.1
			c-0.1-0.1-0.2-0.2-0.3-0.2c-0.3-0.3-0.6-0.6-0.9-0.9c-0.2-0.3-0.5-0.5-0.7-0.8c-0.1-0.2-0.3-0.3-0.4-0.5c-0.3-0.4-0.6-0.8-0.9-1.2
			c0-0.1-0.1-0.1-0.1-0.2c-4.1-6.1-4.7-14.4-0.8-21.2l40-69.3c0,0,0,0,0-0.1c0.2-0.4,0.5-0.7,0.7-1.1c0.2-0.2,0.3-0.5,0.5-0.7
			c0.1-0.1,0.2-0.3,0.3-0.4c2.5-3.2,5.8-5.5,9.5-6.7c0.1,0,0.1,0,0.2-0.1c0.5-0.2,1-0.3,1.5-0.4c0.2,0,0.4-0.1,0.6-0.1
			c0.4-0.1,0.8-0.2,1.2-0.2c0.3,0,0.5-0.1,0.8-0.1c0.3,0,0.7-0.1,1-0.1C69.3,10,69.7,10,70,10 M70,0L70,0L70,0c-0.5,0-1,0-1.4,0
			c-0.5,0-1,0.1-1.5,0.1c-0.4,0-0.8,0.1-1.2,0.1c-0.6,0.1-1.2,0.2-1.8,0.3c-0.3,0.1-0.6,0.1-0.9,0.2c-0.7,0.2-1.5,0.4-2.2,0.6l0,0
			l0,0c-0.1,0-0.2,0.1-0.3,0.1c-5.7,1.9-10.6,5.3-14.2,10c-0.2,0.2-0.3,0.4-0.5,0.6l0,0l0,0c-0.2,0.3-0.4,0.6-0.6,0.9l-0.1,0.1
			c-0.3,0.4-0.6,0.9-0.9,1.4c-0.1,0.1-0.1,0.2-0.2,0.3L4,84.2C-1.7,94-1.3,106.5,5.1,116l0.2,0.2c0.5,0.7,0.9,1.3,1.4,1.9
			c0.2,0.2,0.4,0.5,0.6,0.7l0,0l0,0c0.4,0.4,0.7,0.8,1,1.1c0.4,0.4,0.9,0.9,1.3,1.3l0,0l0,0l0,0c0.1,0.1,0.2,0.2,0.3,0.3
			c5.5,4.9,12.7,7.7,20.1,7.7c12,0,22.7-7,27.6-17.9L70,90.3l13.9,24c5.3,9.2,15.3,15,26,15c5.2,0,10.4-1.4,14.9-4l0.2-0.1
			c6.9-4,11.9-10.5,13.9-18.2c2.1-7.7,1-15.8-3-22.7L96,15l-0.2-0.3l-0.1-0.1c-0.3-0.5-0.6-0.9-0.9-1.3l-0.1-0.1
			c-0.2-0.3-0.4-0.6-0.6-0.9l0,0l0,0c-0.2-0.2-0.3-0.4-0.5-0.6l0,0c-3.6-4.7-8.6-8.1-14.2-10c-0.1,0-0.2-0.1-0.3-0.1
			c-0.8-0.3-1.6-0.5-2.3-0.6c-0.3-0.1-0.6-0.1-0.9-0.2c-0.7-0.1-1.2-0.2-1.8-0.3c-0.4-0.1-0.8-0.1-1.2-0.1c-0.5-0.1-1.1-0.1-1.6-0.1
			C70.9,0,70.4,0,70,0L70,0z"/>
	</g>
	<g>
		<path class="st23" d="M87.4,40.1l-40,69.3c-5.5,9.5-17.8,12.8-27.3,7.3l-0.2-0.1c-9.5-5.5-12.8-17.8-7.3-27.3l40-69.3
			c5.5-9.5,17.8-12.8,27.3-7.3l0.2,0.1C89.6,18.3,92.9,30.6,87.4,40.1z"/>
		<path class="st24" d="M52.5,40.1l40,69.3c5.5,9.5,17.8,12.8,27.3,7.3l0.2-0.1c9.5-5.5,12.8-17.8,7.3-27.3L87.3,20
			c-5.5-9.5-17.8-12.8-27.3-7.3l-0.2,0.1C50.3,18.3,47,30.6,52.5,40.1z"/>
		<circle class="st25" cx="30.2" cy="99.2" r="20.2"/>
	</g>
</g>
</svg>
