<svg width="36" height="37" viewBox="0 0 36 37" fill="none" xmlns="http://www.w3.org/2000/svg">
<g clip-path="url(#clip0)">
<g filter="url(#filter0_b)">
<ellipse cx="18.6316" cy="17.6301" rx="16.6167" ry="16.6227" fill="url(#paint0_linear)"/>
<path d="M35.1162 17.6301C35.1162 26.7377 27.7358 34.1208 18.6316 34.1208C9.52738 34.1208 2.14689 26.7377 2.14689 17.6301C2.14689 8.52253 9.52738 1.13945 18.6316 1.13945C27.7358 1.13945 35.1162 8.52253 35.1162 17.6301Z" stroke="url(#paint1_linear)" stroke-opacity="0.5" stroke-width="0.263998"/>
</g>
<g filter="url(#filter1_d)">
<path d="M18 0C8.0757 0 0 8.07863 0 18.0065C0 27.9344 8.0757 36.0172 18 36.0172C27.9243 36.0172 36 27.9386 36 18.0107C36 8.08278 27.9243 0 18 0ZM25.7558 14.5739L16.7538 24.2691C16.3466 24.7096 15.79 24.934 15.2292 24.934C14.7473 24.934 14.2696 24.7678 13.8749 24.4354L9.027 20.2797C8.15463 19.5317 8.05493 18.2226 8.80268 17.3499C9.55043 16.4772 10.859 16.3734 11.7314 17.1255L15.063 19.9805L22.7067 11.7481C23.4877 10.9086 24.8004 10.8588 25.6437 11.64C26.487 12.4213 26.5327 13.7345 25.7558 14.5739Z" fill="url(#paint2_linear)"/>
</g>
</g>
<defs>
<filter id="filter0_b" x="-17.785" y="-18.7924" width="72.833" height="72.8451" filterUnits="userSpaceOnUse" color-interpolation-filters="sRGB">
<feFlood flood-opacity="0" result="BackgroundImageFix"/>
<feGaussianBlur in="BackgroundImage" stdDeviation="9.89992"/>
<feComposite in2="SourceAlpha" operator="in" result="effect1_backgroundBlur"/>
<feBlend mode="normal" in="SourceGraphic" in2="effect1_backgroundBlur" result="shape"/>
</filter>
<filter id="filter1_d" x="-10" y="-22" width="68" height="68.0172" filterUnits="userSpaceOnUse" color-interpolation-filters="sRGB">
<feFlood flood-opacity="0" result="BackgroundImageFix"/>
<feColorMatrix in="SourceAlpha" type="matrix" values="0 0 0 0 0 0 0 0 0 0 0 0 0 0 0 0 0 0 127 0"/>
<feOffset dx="6" dy="-6"/>
<feGaussianBlur stdDeviation="8"/>
<feColorMatrix type="matrix" values="0 0 0 0 0.698039 0 0 0 0 0.968627 0 0 0 0 0.388235 0 0 0 0.2 0"/>
<feBlend mode="normal" in2="BackgroundImageFix" result="effect1_dropShadow"/>
<feBlend mode="normal" in="SourceGraphic" in2="effect1_dropShadow" result="shape"/>
</filter>
<linearGradient id="paint0_linear" x1="32.892" y1="7.0109" x2="-8.52218" y2="1.28652" gradientUnits="userSpaceOnUse">
<stop stop-color="white"/>
<stop offset="1" stop-color="white" stop-opacity="0.61"/>
</linearGradient>
<linearGradient id="paint1_linear" x1="5.59485" y1="12.1597" x2="33.8146" y2="12.3154" gradientUnits="userSpaceOnUse">
<stop stop-color="white"/>
<stop offset="1" stop-color="white" stop-opacity="0"/>
</linearGradient>
<linearGradient id="paint2_linear" x1="36" y1="0" x2="10.6027" y2="29.6893" gradientUnits="userSpaceOnUse">
<stop stop-color="#5AFFCB"/>
<stop offset="1" stop-color="#51B696"/>
</linearGradient>
<clipPath id="clip0">
<rect width="36" height="36.0172" fill="white"/>
</clipPath>
</defs>
</svg>
