<svg width="28" height="28" viewBox="0 0 28 28" fill="none" xmlns="http://www.w3.org/2000/svg">
<rect width="28" height="28" rx="14" fill="white"/>
<path d="M7.31891 16.5036L6.4835 19.6223L3.43011 19.6869C2.51759 17.9944 2 16.0579 2 14.0001C2 12.0102 2.48394 10.1337 3.34175 8.48145H3.34241L6.06078 8.97982L7.25159 11.6819C7.00236 12.4085 6.86652 13.1885 6.86652 14.0001C6.86661 14.881 7.02617 15.725 7.31891 16.5036Z" fill="#FBBB00"/>
<path d="M25.7904 11.7583C25.9282 12.4842 26 13.2339 26 14.0001C26 14.8592 25.9097 15.6972 25.7376 16.5056C25.1535 19.2563 23.6271 21.6583 21.5126 23.3581L21.5119 23.3574L18.088 23.1827L17.6034 20.1576C19.0065 19.3348 20.103 18.0471 20.6806 16.5056H14.2639V11.7583H20.7742H25.7904Z" fill="#518EF8"/>
<path d="M21.5119 23.3572L21.5125 23.3579C19.4561 25.0109 16.8437 25.9999 14 25.9999C9.43012 25.9999 5.45694 23.4456 3.43011 19.6867L7.31891 16.5034C8.3323 19.208 10.9413 21.1333 14 21.1333C15.3147 21.1333 16.5464 20.7779 17.6033 20.1575L21.5119 23.3572Z" fill="#28B446"/>
<path d="M21.6595 4.76262L17.7721 7.94525C16.6782 7.26153 15.3852 6.86656 14 6.86656C10.8721 6.86656 8.21425 8.88017 7.25163 11.6817L3.34239 8.48131H3.34174C5.33889 4.63077 9.36217 2 14 2C16.9116 2 19.5813 3.03716 21.6595 4.76262Z" fill="#F14336"/>
</svg>
