<svg width="60" height="60" viewBox="0 0 60 60" fill="none" xmlns="http://www.w3.org/2000/svg">
<g opacity="0.2">
<path d="M44.1139 36.5264C39.1293 42.6316 33.7292 49.2632 30.1985 52.9474C30.0946 52.9474 30.0946 52.8422 29.9908 52.7369C28.2254 51.1579 26.0446 49.0527 23.76 46.6316L20.0215 50.4211C24.6946 55.3685 29.0561 59.0527 29.9908 59.7895C30.0946 59.8948 30.1985 59.8948 30.1985 59.8948C30.1985 59.8948 42.3485 46.4211 47.9562 40.3158L44.1139 36.5264Z" fill="#4EB594"/>
<path d="M29.9912 10.842L14.5181 16.9473C14.5181 16.9473 15.8681 27.3684 19.295 34.3157C22.3066 40.421 29.2643 47.3684 29.9912 47.7894C30.7181 47.3684 37.9874 39.9999 40.999 33.8947C44.4259 26.9473 45.4644 16.9473 45.4644 16.9473L29.9912 10.842Z" fill="#3D88C8"/>
<path d="M54.8105 10.6316L29.9911 0L5.17177 10.6316C5.17177 10.6316 3.40638 25.2632 11.1949 38.8421C12.7526 41.4737 14.6218 44.1053 16.6987 46.5263L20.4372 42.7368C18.6718 40.6316 17.0103 38.3158 15.7641 36.1053C11.2987 28.5263 10.3641 19.8947 10.2603 15.0526C12.441 13.7895 28.1219 7.36842 29.9911 6.63158C31.7565 7.36842 47.5412 13.7895 49.722 15.0526C49.6181 18.9474 48.995 25.2632 46.5027 31.5789L50.5527 35.6842C56.3682 23.0526 54.8105 10.6316 54.8105 10.6316Z" fill="#3D88C8"/>
<path d="M47.9565 40.4211L44.1142 36.5264C39.1296 42.6316 33.7295 49.2632 30.1987 52.9474C30.0949 52.9474 30.1987 60.0001 30.1987 60.0001C30.1987 60.0001 42.245 46.5264 47.9565 40.4211Z" fill="#029E81"/>
<path d="M46.5025 31.579L50.5525 35.6842C56.368 23.0526 54.8103 10.6316 54.8103 10.6316L29.9909 0V6.63158C31.7563 7.36842 47.541 13.7895 49.7218 15.0526C49.6179 18.9474 48.9948 25.2632 46.5025 31.579Z" fill="#057BAA"/>
<path d="M45.4641 16.9473C45.4641 16.9473 44.4256 26.9473 40.9987 33.8947C37.9872 39.9999 30.7179 47.3684 29.991 47.7894V10.842L45.4641 16.9473Z" fill="#057BAA"/>
</g>
<g filter="url(#filter0_d)">
<path d="M22.6537 13.1064C23.0984 11.9393 23.7097 10.8648 24.6175 9.99411C28.2485 6.45575 34.2508 7.34497 36.7147 11.7911C38.5673 15.1627 40.531 18.4602 42.4391 21.7948L51.9984 38.4306C54.6475 43.0805 51.776 48.9531 46.5148 49.7497C43.2913 50.2313 40.2716 48.7493 38.6043 45.8593L30.1937 31.2613C30.1381 31.1501 30.064 31.0575 29.9899 30.9649C29.6935 30.7241 29.5638 30.3721 29.3786 30.0571L23.191 19.3309C22.4685 18.0712 22.135 16.7003 22.1721 15.2553C22.2277 14.5143 22.3203 13.7733 22.6537 13.1064" fill="#3C8BD9"/>
<path d="M22.6538 13.1064C22.487 13.7734 22.3388 14.4403 22.3018 15.1442C22.2462 16.7004 22.6352 18.1454 23.4133 19.4977L29.5083 30.0387C29.6935 30.3536 29.8417 30.6685 30.027 30.965L26.6738 36.7264L21.9868 44.8034C21.9127 44.8034 21.8942 44.7664 21.8757 44.7108C21.8572 44.5626 21.9127 44.4329 21.9498 44.2847C22.7093 41.5059 22.0795 39.042 20.1713 36.9301C19.0042 35.6519 17.5222 34.9294 15.8178 34.6886C13.5947 34.3736 11.631 34.9479 9.87108 36.3373C9.55614 36.5782 9.35236 36.9301 8.98184 37.1154C8.90774 37.1154 8.87069 37.0783 8.85217 37.0228L11.5013 32.4099L22.5241 13.3102C22.5611 13.2361 22.6167 13.1805 22.6538 13.1064" fill="#FABC04"/>
<path d="M8.92626 37.0783L9.98222 36.1335C14.4839 32.5766 21.2458 35.1517 22.2277 40.7834C22.4685 42.1358 22.3388 43.4325 21.9313 44.7293C21.9127 44.8405 21.8942 44.9331 21.8571 45.0443C21.6904 45.3407 21.5422 45.6556 21.357 45.952C19.7082 48.6752 17.2813 50.0276 14.0949 49.8238C10.4454 49.5645 7.57388 46.8227 7.07369 43.1917C6.83286 41.4318 7.18485 39.783 8.0926 38.2639C8.27786 37.9305 8.50017 37.6341 8.70395 37.3006C8.79658 37.2265 8.75953 37.0783 8.92626 37.0783" fill="#34A852"/>
<path d="M8.92624 37.0783C8.85214 37.1524 8.85214 37.282 8.72246 37.3006C8.70394 37.1709 8.77804 37.0968 8.85214 37.0042L8.92624 37.0783Z" fill="#FABC04"/>
<path d="M21.8571 45.0442C21.783 44.9145 21.8571 44.8219 21.9313 44.7292L22.0054 44.8034L21.8571 45.0442Z" fill="#E1C025"/>
</g>
<defs>
<filter id="filter0_d" x="3" y="6" width="54.0002" height="54" filterUnits="userSpaceOnUse" color-interpolation-filters="sRGB">
<feFlood flood-opacity="0" result="BackgroundImageFix"/>
<feColorMatrix in="SourceAlpha" type="matrix" values="0 0 0 0 0 0 0 0 0 0 0 0 0 0 0 0 0 0 127 0"/>
<feOffset dy="4"/>
<feGaussianBlur stdDeviation="2"/>
<feColorMatrix type="matrix" values="0 0 0 0 0.395694 0 0 0 0 0.457567 0 0 0 0 0.616667 0 0 0 0.31 0"/>
<feBlend mode="normal" in2="BackgroundImageFix" result="effect1_dropShadow"/>
<feBlend mode="normal" in="SourceGraphic" in2="effect1_dropShadow" result="shape"/>
</filter>
</defs>
</svg>
