<svg width="113" height="40" viewBox="0 0 113 40" fill="none" xmlns="http://www.w3.org/2000/svg">
<g clip-path="url(#clip0)">
<path d="M46.8845 5.33423C48.4987 5.33423 49.5515 6.24651 49.9726 7.43949C50.464 8.70265 50.3236 10.1763 49.0602 11.0886C50.5341 11.7202 51.0254 13.0535 51.0254 14.2465C51.0254 16.1412 49.7621 18.1062 47.3056 18.1062H41.4801V5.33423H46.8845ZM43.3751 10.457H46.8143C48.8497 10.457 48.8497 7.08861 46.8845 7.08861H43.3751V10.457ZM43.3751 16.3518H47.3056C48.5689 16.3518 49.2006 15.2991 49.2006 14.3167C49.2006 13.3342 48.5689 12.2816 47.3056 12.2816H43.3751V16.3518Z" fill="#3D88C8"/>
<path d="M54.6751 7.22897C55.798 6.03598 57.4123 5.33423 59.167 5.33423C60.9216 5.33423 62.5359 6.03598 63.6589 7.22897C64.7819 8.42195 65.4838 9.96581 65.4838 11.7202C65.4838 13.4746 64.7819 15.0886 63.6589 16.2114C62.4657 17.4044 60.9216 18.1062 59.167 18.1062C57.4123 18.1062 55.798 17.4044 54.6751 16.2114C53.5521 15.0184 52.8502 13.4746 52.8502 11.7202C52.8502 9.96581 53.5521 8.42195 54.6751 7.22897ZM62.4657 8.49212C61.6235 7.65002 60.5005 7.15879 59.2372 7.15879C57.9738 7.15879 56.8508 7.65002 56.0086 8.49212C55.1664 9.33423 54.6751 10.457 54.6751 11.7202C54.6751 12.9834 55.1664 14.1062 56.0086 14.9483C56.8508 15.7904 57.9738 16.2816 59.2372 16.2816C60.5005 16.2816 61.6235 15.7904 62.4657 14.9483C63.308 14.1062 63.7993 12.9834 63.7993 11.7202C63.7291 10.457 63.2378 9.33423 62.4657 8.49212Z" fill="#3D88C8"/>
<path d="M71.1689 18.1763V7.08861H67.3087V5.33423H76.9242V7.08861H72.9937V18.1763H71.1689Z" fill="#3D88C8"/>
<path d="M43.4453 35.2985H41.6204V22.4564H49.2707V24.281H43.4453V28.1406H48.5689V29.895H43.4453V35.2985Z" fill="#6F6F6E"/>
<path d="M58.6054 32.0701H53.4116L52.1483 35.2982H50.183L55.3066 22.4561H56.6402L61.7638 35.2982H59.7986L58.6054 32.0701ZM54.1135 30.3157H57.9737L56.0085 25.2631L54.1135 30.3157Z" fill="#6F6F6E"/>
<path d="M76.6432 35.2983H74.678L73.3445 34.1053C70.537 35.9299 66.8172 35.579 64.8519 33.4036C63.729 32.2106 62.9569 30.6667 62.9569 28.9123C62.9569 27.1579 63.6588 25.5439 64.8519 24.4211C65.9749 23.2281 67.5892 22.5264 69.3439 22.5264C71.0985 22.5264 72.7128 23.2281 73.8358 24.4211C74.9588 25.6141 75.7308 27.1579 75.7308 28.9123C75.7308 30.386 75.2395 31.7193 74.3973 32.8422L76.5731 34.9474V35.2983H76.6432ZM68.7824 29.7544H70.9582L73.0637 31.7194C73.6252 30.9474 73.906 29.965 73.906 28.9123C73.906 27.6492 73.3445 26.5264 72.5724 25.6843C71.7302 24.8422 70.6072 24.3509 69.3439 24.3509C68.0805 24.3509 66.9575 24.8422 66.1153 25.6843C65.3432 26.5264 64.7818 27.6492 64.7818 28.9123C64.7818 30.1755 65.3432 31.3685 66.1153 32.1404C67.6594 33.6843 69.9755 33.965 71.8706 32.8422L68.7122 30.0351V29.7544H68.7824ZM68.7824 30.0351V29.7544V30.0351Z" fill="#6F6F6E"/>
<path d="M81.416 35.2982V24.2104H77.5557V22.4561H87.1712V24.2104H83.311V35.2982H81.416Z" fill="#6F6F6E"/>
<path d="M90.5403 24.3508C91.6633 23.1578 93.2776 22.4561 95.0322 22.4561C96.7869 22.4561 98.4012 23.1578 99.5241 24.3508C100.647 25.5438 101.349 27.0876 101.349 28.842C101.349 30.5964 100.647 32.2104 99.5241 33.3332C98.331 34.5262 96.7869 35.228 95.0322 35.228C93.2776 35.228 91.6633 34.5262 90.5403 33.3332C89.4173 32.1403 88.7155 30.5964 88.7155 28.842C88.7155 27.1578 89.4173 25.5438 90.5403 24.3508ZM98.2608 25.6841C97.4186 24.842 96.2956 24.3508 95.0322 24.3508C93.7689 24.3508 92.6459 24.842 91.8037 25.6841C90.9614 26.5262 90.4701 27.649 90.4701 28.9122C90.4701 30.1754 90.9614 31.2982 91.8037 32.1403C92.6459 32.9824 93.7689 33.4736 95.0322 33.4736C96.2956 33.4736 97.4186 32.9824 98.2608 32.1403C99.103 31.2982 99.5943 30.1754 99.5943 28.9122C99.5943 27.649 99.103 26.4561 98.2608 25.6841Z" fill="#6F6F6E"/>
<path d="M106.051 28.7718H108.227C109.771 28.7718 110.543 27.649 110.543 26.5262C110.543 25.4034 109.771 24.2806 108.227 24.2806H105.35V35.228H103.525V22.4561H108.227C111.035 22.4561 112.438 24.4911 112.438 26.5262C112.438 28.3508 111.315 30.035 109.14 30.4561L113.21 35.2982H110.824L106.122 29.6841V28.7718H106.051Z" fill="#6F6F6E"/>
<path d="M26.4602 24.4211C23.0912 28.4913 19.4415 32.9124 17.0552 35.3685C16.985 35.3685 16.985 35.2983 16.9148 35.2282C15.7217 34.1755 14.2477 32.772 12.7036 31.158L10.1769 33.6843C13.3353 36.9825 16.2832 39.4387 16.9148 39.9299C16.985 40.0001 17.0552 40.0001 17.0552 40.0001C17.0552 40.0001 25.267 31.0176 29.0571 26.9475L26.4602 24.4211Z" fill="#4EB594"/>
<path d="M16.915 7.29834L6.45721 11.3685C6.45721 11.3685 7.36964 18.3159 9.68579 22.9475C11.7212 27.0176 16.4237 31.6492 16.915 31.9299C17.4063 31.6492 22.3193 26.7369 24.3547 22.6668C26.6709 18.0352 27.3727 11.3685 27.3727 11.3685L16.915 7.29834Z" fill="#3D88C8"/>
<path d="M33.6895 7.15803L16.915 0.0703125L0.140446 7.15803C0.140446 7.15803 -1.05272 16.9124 4.21125 25.965C5.26405 27.7194 6.5274 29.4738 7.93113 31.0879L10.4578 28.5615C9.26467 27.158 8.14169 25.6142 7.29945 24.1405C4.28144 19.0879 3.64976 13.3335 3.57958 10.1054C5.05349 9.26329 15.6516 4.98259 16.915 4.49137C18.1081 4.98259 28.7765 9.26329 30.2504 10.1054C30.1802 12.7019 29.7591 16.9124 28.0746 21.1229L30.8119 23.8598C34.7423 15.4387 33.6895 7.15803 33.6895 7.15803Z" fill="#3D88C8"/>
<path d="M29.0571 27.0176L26.4602 24.4211C23.0913 28.4913 19.4416 32.9124 17.0552 35.3685C16.9851 35.3685 17.0552 40.0703 17.0552 40.0703C17.0552 40.0703 25.1969 31.0878 29.0571 27.0176Z" fill="#029E81"/>
<path d="M28.0745 21.1229L30.8118 23.8598C34.7422 15.4387 33.6894 7.15803 33.6894 7.15803L16.9149 0.0703125V4.49137C18.1081 4.98259 28.7764 9.2633 30.2503 10.1054C30.1801 12.7019 29.759 16.9124 28.0745 21.1229Z" fill="#057BAA"/>
<path d="M27.3727 11.3685C27.3727 11.3685 26.6708 18.0352 24.3547 22.6668C22.3193 26.7369 17.4062 31.6492 16.9149 31.9299V7.29834L27.3727 11.3685Z" fill="#057BAA"/>
</g>
<defs>
<clipPath id="clip0">
<rect width="113" height="40" fill="white"/>
</clipPath>
</defs>
</svg>
