<svg width="48" height="48" viewBox="0 0 48 48" fill="none" xmlns="http://www.w3.org/2000/svg">
<path d="M24 48C37.2548 48 48 37.2548 48 24C48 10.7452 37.2548 0 24 0C10.7452 0 0 10.7452 0 24C0 37.2548 10.7452 48 24 48Z" fill="#EDEDED"/>
<path d="M26.6902 27.2045H24.2902L19.4902 37.8331H16.0616L21.2045 26.5188C18.8045 25.3188 17.0902 23.0902 17.0902 18.8045C17.0902 12.9759 20.8617 10.0616 25.1474 10.0616H29.6045V37.8331H26.6902V27.2045V27.2045ZM26.6902 24.8045V12.6331H25.1474C22.7474 12.6331 20.3474 14.1759 20.3474 18.8045C20.3474 23.2616 22.4045 24.6331 25.1474 24.6331H26.6902V24.8045Z" fill="#FF3333"/>
</svg>
