<?xml version="1.0" encoding="utf-8"?>
<!-- Generator: Adobe Illustrator 23.0.1, SVG Export Plug-In . SVG Version: 6.00 Build 0)  -->
<svg version="1.1" id="Слой_1" xmlns="http://www.w3.org/2000/svg" xmlns:xlink="http://www.w3.org/1999/xlink" x="0px" y="0px"
	 viewBox="0 0 31.3 24.2" style="enable-background:new 0 0 31.3 24.2;" xml:space="preserve">
<style type="text/css">
	.st0{fill:#465A61;}
	.st1{fill:#3B4A51;}
	.st2{opacity:0.8;fill:#556B79;enable-background:new    ;}
	.st3{fill:#556B79;}
	.st4{opacity:0.8;fill:#FBCB18;enable-background:new    ;}
	.st5{fill:#FBCB18;}
	.st6{fill:#57B36E;}
	.st7{fill:#76CE84;}
	.st8{fill:#67C17A;}
</style>
<g>
	<path class="st0" d="M3.7,1.8h1.8v1.9H3.7V1.8z"/>
	<path class="st0" d="M11,1.8h1.8v1.9H11C11,3.7,11,1.8,11,1.8z"/>
	<path class="st1" d="M18.4,0.9h1.8v3.7h-1.8V0.9z"/>
	<path class="st1" d="M25.7,0.9h1.8v3.7h-1.8V0.9z"/>
	<path class="st2" d="M0,0h31.3v1.8H0V0z"/>
	<path class="st3" d="M15.7,0h15.6v1.8H15.7V0z"/>
	<path class="st4" d="M0,3.7v20.5h31.3V3.7H0z"/>
	<path class="st5" d="M15.7,3.7h15.6v20.5H15.7V3.7z"/>
	<g>
		<path class="st3" d="M18.4,16.5h9.2v1.8h-9.2V16.5z"/>
		<path class="st3" d="M18.4,12.8h9.2v1.9h-9.2V12.8z"/>
		<path class="st3" d="M18.4,9.2h9.2V11h-9.2V9.2z"/>
	</g>
	<path class="st6" d="M16.7,18.3h-4.6l-3.7-4.1c0-0.1,3.1-6.1,3.1-6.2L16.7,18.3z"/>
	<path class="st7" d="M7.8,9.9l-4.2,8.4h8.5L7.8,9.9z"/>
	<path class="st8" d="M12.1,18.3H9.2v-5.7L12.1,18.3z"/>
</g>
</svg>
