<svg width="294" height="294" viewBox="0 0 294 294" fill="none" xmlns="http://www.w3.org/2000/svg">
<path d="M163.736 158.988C170.286 149.836 168.207 137.091 158.992 130.464C149.84 123.914 137.095 125.993 130.468 135.209C127.318 139.61 126.179 144.86 126.862 149.852L128.048 148.857C127.649 144.435 128.793 139.849 131.61 135.948C137.752 127.399 149.781 125.4 158.329 131.542C166.878 137.684 168.877 149.713 162.735 158.261C157.748 165.201 148.881 167.825 141.147 165.28L139.975 166.264C148.406 169.389 158.262 166.636 163.736 158.988Z" fill="#FBCB18"/>
<path d="M206.822 189.801C230.423 156.944 222.803 110.991 189.869 87.4545C157.011 63.8534 110.994 71.3973 87.393 104.255C69.7433 128.952 69.5708 161.005 84.4759 185.419L85.4854 184.572C70.9816 160.596 71.1597 129.239 88.4584 105.058C111.652 72.8035 156.811 65.3265 189.142 88.4556C221.397 111.649 228.874 156.808 205.745 189.139C182.551 221.394 137.392 228.871 105.061 205.742C102.883 204.176 100.819 202.51 98.8692 200.755L97.8944 201.573C99.9195 203.395 102.067 205.122 104.334 206.743C137.269 230.28 183.286 222.736 206.822 189.801Z" fill="#FBCB18"/>
<path d="M231.736 207.667C265.124 161.114 254.429 95.9412 207.736 62.541C161.119 29.0765 96.01 39.8477 62.4812 86.3879C36.4899 122.724 37.2008 170.25 60.7986 205.286L61.7986 204.447C38.6146 169.843 37.9202 123.028 63.611 87.2675C96.6035 41.1773 160.919 30.5496 207.009 63.5421C253.1 96.5346 263.651 160.915 230.594 206.928C197.601 253.018 133.286 263.646 87.1955 230.654C82.892 227.562 78.898 224.197 75.2203 220.599L74.2444 221.418C77.9956 225.084 82.0728 228.51 86.4691 231.655C133.163 265.055 198.272 254.284 231.736 207.667Z" fill="#FBCB18"/>
<path d="M184.438 173.86C199.157 153.286 194.501 124.557 173.862 109.762C153.365 94.9792 124.559 99.6991 109.764 120.338C99.5819 134.571 98.6718 152.707 105.911 167.432L106.907 166.597C100.016 152.309 100.931 134.788 110.765 121.064C125.153 101.029 153.1 96.3757 173.136 110.763C193.171 125.151 197.824 153.098 183.437 173.134C169.049 193.169 141.102 197.822 121.066 183.435C120.787 183.234 120.511 183.031 120.237 182.825L119.264 183.641C119.618 183.911 119.976 184.175 120.34 184.436C140.914 199.154 169.643 194.499 184.438 173.86Z" fill="#FBCB18"/>
<path fill-rule="evenodd" clip-rule="evenodd" d="M149.482 144.178C150.032 144.226 150.439 144.711 150.391 145.262L149.607 154.227C149.559 154.778 149.074 155.185 148.523 155.136C147.973 155.088 147.566 154.603 147.614 154.053L148.188 147.492L62.7866 219.153L61.501 217.621L146.903 145.96L140.342 145.386C139.792 145.338 139.385 144.853 139.433 144.303C139.481 143.753 139.966 143.346 140.516 143.394L149.482 144.178Z" fill="#FBCB18"/>
</svg>
