<?xml version="1.0" encoding="utf-8"?>
<!-- Generator: Adobe Illustrator 23.0.1, SVG Export Plug-In . SVG Version: 6.00 Build 0)  -->
<svg version="1.1" id="Слой_1" xmlns="http://www.w3.org/2000/svg" xmlns:xlink="http://www.w3.org/1999/xlink" x="0px" y="0px"
	 viewBox="0 0 71 71" style="enable-background:new 0 0 71 71;" xml:space="preserve">
<style type="text/css">
	.st0{fill:#4EB593;}
</style>
<g>
	<g>
		<path class="st0" d="M0.8,37.9c0,7.4,2.5,14.6,7.1,20.4l1,1.1L35,33.2l19.5-19.6l-1.1-0.8c-13.9-11.2-34.2-9-45.4,4.8
			C3.3,23.3,0.8,30.4,0.8,37.9z M23,19.8l0.1-0.5h8.5l0.1,0.5c0.1,1.1-0.1,2.1-0.7,2.9l-1.4,2.1v3.8h-4.6v-3.8l-1.4-2.1
			C23.1,21.9,22.8,20.9,23,19.8z M23.7,17.1c1.1-2.1,3.5-2.9,5.5-1.8c0.8,0.4,1.5,1.1,1.8,1.8H23.7z M24.2,30.9h2.1v7.6l-5.8,5.8V39
			h-2.4v7.6l-4.6,4.6V38.4c0-1.3,0.7-2.5,1.9-3.1L24.2,30.9z M28.5,36.2v-5.3h2.1l2.2,1.1L28.5,36.2z M34.4,30.3L32,29.1v-3.6
			l1.1-1.5c1-1.3,1.3-2.9,1.1-4.5L34,17.9c-0.5-3.6-3.8-6-7.2-5.5c-2.9,0.5-5.1,2.7-5.5,5.5L21,19.4c-0.2,1.6,0.1,3.3,1.1,4.5
			l1.1,1.5v3.6l-8.4,4.2c-1.9,1-3.3,3-3.3,5.2v15.3l-2.2,2.2c-10-13.4-7.2-32.3,6-42.2c10.6-7.8,25.2-7.8,35.7,0L34.4,30.3z"/>
		<path class="st0" d="M62.2,14.2L16.4,60l1.1,0.8C31.3,72,51.6,69.9,63,56c9.6-11.9,9.6-28.9,0-40.8L62.2,14.2z M49.7,41.3h8.6
			l0.2,1.6c0,0.2,0,0.6-0.2,0.8l-1.9,3v4.5L54,53.6l-2.3-2.3v-4.5l-1.9-3c-0.1-0.2-0.2-0.6-0.2-0.8L49.7,41.3z M50.1,39l0.2-1.3
			c0.1-0.6,0.6-1.1,1.2-1.1h5.2c0.6,0,1.1,0.5,1.2,1.1L58,39H50.1z M50.3,53.1l2.5,2.5v5.9c-4,2.3-8.2,3.6-12.8,4v-6.6
			c0-0.5,0.2-0.8,0.7-1.1L50.3,53.1z M55.1,60.1v-4.3l2.6-2.6l3.3,1.6C59.2,56.8,57.3,58.5,55.1,60.1z M62.4,52.9l-3.7-1.8v-3.6
			l1.6-2.4c0.5-0.7,0.7-1.6,0.6-2.4l-0.7-5.2c-0.2-1.7-1.7-3-3.5-3h-5.2c-1.7,0-3.3,1.3-3.5,3l-0.7,5.2c-0.1,0.8,0.1,1.7,0.6,2.4
			l1.6,2.4v3.6L40,55.9c-1.2,0.6-1.9,1.7-1.9,3.1v6.6c-6.5,0-12.8-2.1-18-5.9l42.1-42.1C69.7,28,69.8,42.2,62.4,52.9z"/>
		<path class="st0" d="M56.7,30l4.6-4.6l1.6,1.6l-4.6,4.6L56.7,30z"/>
		<path class="st0" d="M27.8,60.2l3.5-3.5l1.6,1.6l-3.5,3.5L27.8,60.2z"/>
		<path class="st0" d="M33.6,52.1l7-7l1.6,1.6l-7,7L33.6,52.1z"/>
		<path class="st0" d="M55.5,10.4L59,7l1.6,1.6l-3.5,3.5L55.5,10.4z"/>
		<path class="st0" d="M50.9,5.8L56.7,0l1.6,1.6l-5.8,5.8L50.9,5.8z"/>
		<path class="st0" d="M7,69.4l7-7l1.6,1.6l-7,7L7,69.4z"/>
		<path class="st0" d="M15,69.4l3.5-3.5l1.6,1.6L16.7,71L15,69.4z"/>
		<path class="st0" d="M39.3,16.2l3.5-3.5l1.6,1.6l-3.5,3.5L39.3,16.2z"/>
		<path class="st0" d="M7.6,29.6l6.4-6.4l1.6,1.6l-6.4,6.4L7.6,29.6z"/>
		<path class="st0" d="M44.8,58.6h4.6V61h-4.6V58.6z"/>
	</g>
</g>
</svg>
