<?xml version="1.0" encoding="utf-8"?>
<!-- Generator: Adobe Illustrator 23.0.1, SVG Export Plug-In . SVG Version: 6.00 Build 0)  -->
<svg version="1.1" id="Слой_1" xmlns="http://www.w3.org/2000/svg" xmlns:xlink="http://www.w3.org/1999/xlink" x="0px" y="0px"
	 viewBox="0 0 23 23" style="enable-background:new 0 0 23 23;" xml:space="preserve">
<style type="text/css">
	.st0{fill:#27C58B;}
</style>
<path class="st0" d="M22.8,10.2h-2.2c-0.6-3.9-3.7-7-7.6-7.6V0.4h-2.8v2.2c-3.9,0.6-7,3.7-7.6,7.6H0.3V13h2.2c0.6,3.9,3.7,7,7.6,7.6
	v2.2h2.8v-2.2c3.9-0.6,7-3.7,7.6-7.6h2.2V10.2z M17.7,10.2h-2.2C15.1,9,14.1,8,12.9,7.6V5.4C15.3,6,17.1,7.8,17.7,10.2z M11.5,13
	c-0.8,0-1.4-0.6-1.4-1.4s0.6-1.4,1.4-1.4c0.8,0,1.4,0.6,1.4,1.4S12.3,13,11.5,13z M10.1,5.4v2.2C8.9,8,7.9,9,7.5,10.2H5.3
	C5.9,7.8,7.7,6,10.1,5.4z M5.3,13h2.2c0.4,1.2,1.4,2.1,2.6,2.6v2.2C7.7,17.2,5.9,15.4,5.3,13z M12.9,17.8v-2.2
	c1.2-0.4,2.1-1.4,2.6-2.6h2.2C17.1,15.4,15.3,17.2,12.9,17.8z"/>
</svg>
