<?xml version="1.0" encoding="utf-8"?>
<!-- Generator: Adobe Illustrator 23.0.1, SVG Export Plug-In . SVG Version: 6.00 Build 0)  -->
<svg version="1.1" id="Слой_1" xmlns="http://www.w3.org/2000/svg" xmlns:xlink="http://www.w3.org/1999/xlink" x="0px" y="0px"
	 viewBox="0 0 24 24" style="enable-background:new 0 0 24 24;" xml:space="preserve">
<style type="text/css">
	.st0{fill:#FFFFFF;}
</style>
<path class="st0" d="M12,0C5.4,0,0,5.4,0,12c0,6.6,5.4,12,12,12c6.6,0,12-5.4,12-12C24,5.4,18.6,0,12,0z M18.9,17.3l-2.1,0
	c0,0-0.5,0.1-1-0.3c-0.8-0.5-1.5-1.9-2.1-1.8C13,15.4,13,16.7,13,16.7s0,0.3-0.1,0.4c-0.1,0.2-0.4,0.2-0.4,0.2h-0.9
	c0,0-2.1,0.1-3.9-1.8c-2-2.1-3.8-6.2-3.8-6.2S3.8,9,3.9,8.9C4,8.7,4.4,8.7,4.4,8.7l2.3,0c0,0,0.2,0,0.4,0.1c0.1,0.1,0.2,0.3,0.2,0.3
	S7.5,10,8,10.9c0.9,1.6,1.4,2,1.7,1.8c0.5-0.3,0.3-2.3,0.3-2.3s0-0.7-0.2-1.1C9.6,9.1,9.3,9,9.1,9C9,8.9,9.2,8.6,9.4,8.5
	c0.4-0.2,1.1-0.2,2-0.2c0.7,0,0.8,0,1.1,0.1c0.8,0.2,0.5,0.9,0.5,2.6c0,0.6-0.1,1.3,0.3,1.6c0.2,0.1,0.6,0,1.6-1.8
	C15.5,10,15.9,9,15.9,9s0.1-0.2,0.2-0.3c0.1-0.1,0.3-0.1,0.3-0.1l2.4,0c0,0,0.7-0.1,0.8,0.2c0.1,0.3-0.3,1.1-1.2,2.4
	c-1.6,2.1-1.8,1.9-0.4,3.1c1.3,1.2,1.5,1.7,1.6,1.8C20,17.2,18.9,17.3,18.9,17.3z"/>
</svg>
