<?xml version="1.0" encoding="utf-8"?>
<!-- Generator: Adobe Illustrator 23.0.1, SVG Export Plug-In . SVG Version: 6.00 Build 0)  -->
<svg version="1.1" id="Слой_1" xmlns="http://www.w3.org/2000/svg" xmlns:xlink="http://www.w3.org/1999/xlink" x="0px" y="0px"
	 viewBox="0 0 208.2 208.2" style="enable-background:new 0 0 208.2 208.2;" xml:space="preserve">
<style type="text/css">
	.st0{fill:#FBCB18;}
</style>
<g>
	<g>
		<path class="st0" d="M94.2,106.6c-1.4-5.5,1.9-11,7.4-12.4c5.5-1.4,11,1.9,12.4,7.4c1.4,5.5-1.9,11-7.4,12.4
			C101.2,115.4,95.6,112.1,94.2,106.6z M112.7,101.9c-1.2-4.8-6.1-7.7-10.9-6.4c-4.8,1.2-7.7,6.1-6.4,10.9c1.2,4.8,6.1,7.7,10.9,6.4
			C111.1,111.5,114,106.6,112.7,101.9z"/>
	</g>
	<g>
		<path class="st0" d="M84.3,109.2C81.5,98.2,88.1,87.1,99,84.3s22.1,3.8,24.9,14.7c2.8,10.9-3.8,22.1-14.7,24.9
			C98.2,126.7,87.1,120.1,84.3,109.2z M122.6,99.3c-2.6-10.2-13.1-16.4-23.3-13.8c-10.2,2.6-16.4,13.1-13.8,23.3
			c2.6,10.2,13.1,16.4,23.3,13.8C119.1,120,125.3,109.6,122.6,99.3z"/>
	</g>
	<g>
		<path class="st0" d="M73.2,112c-4.4-17.1,5.9-34.5,23-38.9c17.1-4.4,34.5,5.9,38.8,23c4.4,17.1-5.9,34.5-23,38.8
			C95,139.4,77.5,129.1,73.2,112z M133.8,96.5c-4.2-16.4-20.9-26.3-37.3-22.1c-16.4,4.2-26.3,20.9-22.1,37.3
			c4.2,16.4,20.9,26.3,37.3,22.1C128.1,129.6,138,112.8,133.8,96.5z"/>
	</g>
	<g>
		<path class="st0" d="M59.6,115.5c-6.3-24.6,8.6-49.6,33.1-55.9c24.6-6.3,49.6,8.6,55.9,33.1c6.3,24.6-8.6,49.6-33.1,55.9
			C90.9,154.9,65.8,140,59.6,115.5z M147.4,93c-6.1-23.9-30.5-38.3-54.4-32.2c-23.9,6.1-38.3,30.5-32.2,54.4
			c6.1,23.9,30.5,38.3,54.4,32.2C139,141.3,153.5,116.9,147.4,93z"/>
	</g>
	<g>
		<path class="st0" d="M45.3,119.1C37,86.7,56.6,53.6,89,45.3c32.4-8.3,65.5,11.3,73.8,43.7c8.3,32.4-11.3,65.5-43.7,73.8
			C86.7,171.1,53.6,151.5,45.3,119.1z M161.6,89.3c-8.1-31.7-40.5-50.9-72.3-42.8c-31.7,8.1-50.9,40.5-42.8,72.3
			s40.5,50.9,72.3,42.8C150.5,153.5,169.7,121,161.6,89.3z"/>
	</g>
	<g>
		<path class="st0" d="M33,122.3C22.9,83.1,46.6,43,85.8,33c39.2-10.1,79.3,13.7,89.4,52.9c10.1,39.2-13.7,79.3-52.9,89.4
			C83.1,185.3,43,161.5,33,122.3z M174,86.2c-9.9-38.5-49.3-61.8-87.8-52c-38.5,9.9-61.8,49.3-52,87.8c9.9,38.5,49.3,61.8,87.8,52
			C160.5,164.1,183.8,124.7,174,86.2z"/>
	</g>
	<g>
		<path class="st0" d="M18.1,126.1C6,78.7,34.6,30.3,82,18.1C129.4,6,177.9,34.6,190,82c12.2,47.4-16.5,95.9-63.9,108
			C78.7,202.2,30.3,173.5,18.1,126.1z M188.8,82.4c-12-46.7-59.7-75-106.4-63c-46.7,12-75,59.7-63,106.4c12,46.7,59.7,75,106.4,63
			C172.5,176.8,200.8,129.1,188.8,82.4z"/>
	</g>
	<g>
		<path class="st0" d="M3.3,129.9C-11,74.3,22.7,17.5,78.2,3.3c55.6-14.2,112.4,19.4,126.7,75s-19.4,112.4-75,126.7
			C74.3,219.1,17.5,185.5,3.3,129.9z M203.7,78.6c-14.1-54.9-70.2-88.1-125.1-74C23.7,18.6-9.6,74.7,4.5,129.6
			c14.1,54.9,70.2,88.1,125.1,74C184.5,189.6,217.7,133.5,203.7,78.6z"/>
	</g>
</g>
<polygon class="st0" points="153.1,155.2 201,140.9 103.8,101.6 135.5,201.3 "/>
</svg>
