<?xml version="1.0" encoding="utf-8"?>
<!-- Generator: Adobe Illustrator 23.0.1, SVG Export Plug-In . SVG Version: 6.00 Build 0)  -->
<svg version="1.1" id="Слой_1" xmlns="http://www.w3.org/2000/svg" xmlns:xlink="http://www.w3.org/1999/xlink" x="0px" y="0px"
	 viewBox="0 0 208.2 208.2" style="enable-background:new 0 0 208.2 208.2;" xml:space="preserve">
<style type="text/css">
	.st0{fill:#FBCB18;}
</style>
<g>
	<path class="st0" d="M165,31.4h-22.8V19.3c-0.3-0.2-0.9-0.3-1.7-0.3h-17.4l-0.9-2.7c-2.7-7.7-9.4-12.2-18.3-12.2l-0.2,0
		c-8.1-0.3-15.4,4.6-18.1,12.2l-1,2.6H67.5c-0.7,0-1.2,0.1-1.4,0.3v12.1H43.2c-8.9,0.1-16.3,7.2-16.8,16.2v141.8
		c0,8.2,7.5,14.8,16.8,14.8H165c9.3,0,16.8-6.6,16.8-14.8V47.5C181.3,38.5,174,31.5,165,31.4z M179.9,47.4v141.9
		c0,8.1-7.6,12.9-14.9,12.9H43.2c-7.3,0-14.9-4.8-14.9-12.9V47.2l0-0.2c0.7-7.7,7.1-13.7,14.8-13.8l22.9,0v16.4c0.1,0.6,0.6,1,1.2,1
		l0.2,0l73.3,0c0.7,0,1.3-0.4,1.5-1.1V33.3H165c7.8,0.1,14.2,6.1,14.9,13.8L179.9,47.4z"/>
	<path class="st0" d="M61.8,133.4c0.1,0.1,0.2,0.2,0.4,0.2c0.3,0,0.6-0.1,0.7-0.3l0.1-0.1l19.3-18.3c0.2-0.2,0.3-0.4,0.3-0.5
		c0-0.1,0-0.3-0.2-0.5l-0.2-0.2c-0.4-0.4-1-0.4-1.3,0l-18.7,17.8l-9.4-9.8c-0.3-0.4-0.9-0.4-1.3-0.2c-0.3,0.5-0.3,1.1,0.1,1.5
		L61.8,133.4z"/>
	<path class="st0" d="M156.1,125.4H99.1c-0.5,0-1,0.4-1,1s0.4,1,1,1h56.9c0.5,0,1-0.4,1-1S156.6,125.4,156.1,125.4z"/>
	<path class="st0" d="M61.8,93.8c0.1,0.1,0.2,0.2,0.4,0.2c0.3,0,0.6-0.1,0.7-0.3l0.1-0.1l19.3-18.3c0.2-0.2,0.3-0.4,0.3-0.5
		s0-0.3-0.2-0.5l-0.2-0.2c-0.4-0.4-1-0.4-1.3,0L62.1,91.7l-9.4-9.8c-0.3-0.4-0.9-0.4-1.3-0.2c-0.3,0.5-0.3,1.1,0.1,1.5L61.8,93.8z"
		/>
	<path class="st0" d="M156.1,85.8H99.1c-0.5,0-1,0.4-1,1s0.4,1,1,1h56.9c0.5,0,1-0.4,1-1S156.6,85.8,156.1,85.8z"/>
	<path class="st0" d="M82.1,153.2c-0.4-0.4-1-0.4-1.3,0l-18.7,17.8l-9.4-9.8c-0.3-0.4-0.9-0.4-1.3-0.2c-0.3,0.5-0.3,1.1,0.1,1.5
		L61.8,173c0.1,0.1,0.2,0.2,0.4,0.2c0.3,0,0.6-0.1,0.7-0.3l0.1-0.1l19.3-18.3c0.2-0.2,0.3-0.4,0.3-0.5s0-0.3-0.2-0.5L82.1,153.2z"/>
	<path class="st0" d="M156.1,165.1H99.1c-0.5,0-1,0.4-1,1s0.4,1,1,1h56.9c0.5,0,1-0.4,1-1S156.6,165.1,156.1,165.1z"/>
</g>
</svg>
