<?xml version="1.0" encoding="utf-8"?>
<!-- Generator: Adobe Illustrator 23.0.1, SVG Export Plug-In . SVG Version: 6.00 Build 0)  -->
<svg version="1.1" id="Слой_1" xmlns="http://www.w3.org/2000/svg" xmlns:xlink="http://www.w3.org/1999/xlink" x="0px" y="0px"
	 viewBox="0 0 208.2 208.2" style="enable-background:new 0 0 208.2 208.2;" xml:space="preserve">
<style type="text/css">
	.st0{fill:#FBCB18;}
	.st1{fill:#FFFFFF;}
</style>
<path class="st0" d="M20.9,56.9c0.7,0,1.2-0.5,1.2-1.2V42.9c0-10.5,8.6-19,19.2-19H46h7.4L48.1,29l-3.7,3.6
	c-0.3,0.3-0.3,0.6-0.3,0.8c0,0.2,0,0.5,0.3,0.8c0.2,0.2,0.4,0.3,0.8,0.3c0.3,0,0.7-0.2,0.8-0.3l10.8-10.8c0.1-0.1,0.3-0.5,0.3-0.8
	c0-0.3-0.2-0.7-0.3-0.8L45.9,10.9c-0.3-0.3-0.6-0.3-0.8-0.3s-0.5,0-0.8,0.3c-0.2,0.2-0.3,0.5-0.3,0.8s0.1,0.6,0.3,0.8l3.8,3.8
	l5.1,5.1H46h-4.8c-11.8,0-21.4,9.5-21.4,21.3v12.9v0.1l0,0.1c0,0.4,0.1,0.7,0.3,0.8C20.3,56.8,20.5,56.9,20.9,56.9z"/>
<path class="st0" d="M152.4,21.8h12.9c10.7,0,19.3,8.7,19.3,19.3v4.8v7.2l-5.1-5.1l-3.8-3.8c-0.3-0.3-0.6-0.3-0.8-0.3
	c-0.3,0-0.7,0.1-0.9,0.4c-0.2,0.3-0.3,0.6-0.3,0.7c0,0.2,0,0.5,0.3,0.8l10.8,10.8c0.1,0.1,0.5,0.3,0.8,0.3s0.7-0.2,0.8-0.3
	l10.8-10.8c0.3-0.3,0.3-0.6,0.3-0.8s0-0.5-0.3-0.8c-0.3-0.3-0.6-0.3-0.8-0.3c-0.2,0-0.5,0-0.8,0.3l-3.6,3.7l-5.2,5.4v-7.4v-4.8
	c0-11.7-9.9-21.6-21.6-21.6h-12.9c-0.7,0-1.2,0.5-1.2,1.2C151.3,21.4,151.9,21.8,152.4,21.8z"/>
<path class="st0" d="M187.3,151.8c-0.7,0-1.2,0.5-1.2,1.2v12.9c0,10.6-8.7,19.2-19.3,19.2h-4.8h-7.2l5.1-5.1l3.8-3.8
	c0.4-0.4,0.4-1.1,0-1.5c-0.3-0.3-0.6-0.3-0.8-0.3s-0.5,0-0.8,0.3l-10.8,10.8c-0.1,0.1-0.3,0.5-0.3,0.8c0,0.3,0.2,0.7,0.3,0.8
	l10.8,10.8c0.2,0.2,0.4,0.3,0.8,0.3c0.3,0,0.7-0.2,0.8-0.3c0.4-0.4,0.4-1.1,0-1.5l-3.8-3.8l-5.1-5.1h7.2h4.8
	c11.9,0,21.6-9.6,21.6-21.4v-13v-0.1l0-0.1c0-0.3-0.1-0.5-0.2-0.7C188,152,187.8,151.8,187.3,151.8z"/>
<path class="st0" d="M55.7,186.5H42.8c-10.7,0-19.3-8.5-19.3-19v-4.8v-7.2l5.1,5.1l3.8,3.8c0.2,0.2,0.4,0.3,0.8,0.3
	c0.3,0,0.7-0.2,0.8-0.3c0.3-0.3,0.3-0.6,0.3-0.8s0-0.5-0.3-0.8L23.1,152c-0.3-0.3-0.6-0.3-0.8-0.3s-0.5,0-0.8,0.3l-10.8,10.8
	c-0.3,0.3-0.3,0.6-0.3,0.8s0,0.5,0.3,0.8s0.6,0.3,0.8,0.3s0.5,0,0.8-0.3l3.8-3.8l5.1-5.1v7.2v4.8c0,11.7,9.7,21.3,21.6,21.3h12.9
	c0.7,0,1.2-0.5,1.2-1.2c0-0.3-0.1-0.5-0.3-0.7C56.2,186.6,56,186.5,55.7,186.5z"/>
<path class="st0" d="M52.1,72.1H22v33.2c0,0.6-0.5,1.1-1.1,1.1c-0.6,0-1.1-0.5-1.1-1.1V72.1h-4.6c-7.5,0-13.6,6.1-13.6,13.6v37
	c0,7.5,6.1,13.6,13.6,13.6h37c7.5,0,13.6-6.1,13.6-13.6V85.5C65.7,78.1,59.5,72.1,52.1,72.1z"/>
<path class="st0" d="M122.6,1.5H92.4v32.9c0,0.6-0.5,1.1-1.1,1.1c-0.6,0-1.1-0.5-1.1-1.1V1.5h-4.6C78.1,1.5,72,7.6,72,15.1v37
	c0,7.5,6.1,13.6,13.6,13.6h37c7.5,0,13.6-6.1,13.6-13.6v-37C136.1,7.5,130.1,1.5,122.6,1.5z"/>
<path class="st0" d="M193,72.3h-30.3v32.6c0,0.6-0.5,1.1-1.1,1.1c-0.6,0-1.1-0.5-1.1-1.1V72.3H156c-7.5,0-13.6,6.1-13.6,13.6v37
	c0,7.5,6.1,13.6,13.6,13.6h37c7.5,0,13.6-6.1,13.6-13.6V86C206.6,78.5,200.5,72.3,193,72.3z"/>
<path class="st0" d="M122.6,142.4H92.4v32.9c0,0.6-0.5,1.1-1.1,1.1s-1.1-0.5-1.1-1.1v-32.9h-4.5c-7.5,0-13.6,6.1-13.6,13.6v37
	c0,7.5,6.1,13.6,13.6,13.6h37c7.5,0,13.6-6.1,13.6-13.6v-37C136.1,148.6,130,142.4,122.6,142.4z"/>
<circle class="st1" cx="46" cy="116.9" r="1.2"/>
<path class="st1" d="M116.4,45.2c-0.7,0-1.2,0.5-1.2,1.2c0,0.7,0.5,1.2,1.2,1.2c0.7,0,1.2-0.5,1.2-1.2
	C117.6,45.7,117,45.2,116.4,45.2z"/>
<circle class="st1" cx="186.9" cy="117.3" r="1.2"/>
<circle class="st1" cx="116.4" cy="187.4" r="1.2"/>
</svg>
