<svg width="209" height="209" viewBox="0 0 209 209" fill="none" xmlns="http://www.w3.org/2000/svg">
<path d="M120.733 115.988C127.283 106.836 125.204 94.0909 115.988 87.4642C106.837 80.9141 94.0916 82.9932 87.4649 92.2088C84.3149 96.6097 83.1755 101.86 83.8591 106.852L85.0451 105.857C84.6461 101.435 85.79 96.8486 88.6069 92.9475C94.7493 84.3994 106.778 82.3996 115.326 88.542C123.874 94.6844 125.874 106.713 119.732 115.261C114.745 122.201 105.878 124.825 98.1441 122.28L96.9714 123.264C105.403 126.389 115.259 123.636 120.733 115.988Z" fill="#FBCB18"/>
<path d="M163.819 146.801C187.42 113.944 179.8 67.9913 146.865 44.4545C114.008 20.8534 67.9909 28.3973 44.3899 61.2551C26.7402 85.9517 26.5676 118.005 41.4728 142.419L42.4823 141.572C27.9784 117.596 28.1566 86.2392 45.4553 62.0581C68.6487 29.8035 113.808 22.3265 146.139 45.4556C178.394 68.649 185.871 113.808 162.741 146.139C139.548 178.394 94.3889 185.871 62.0577 162.742C59.8803 161.176 57.8158 159.51 55.8661 157.755L54.8913 158.573C56.9164 160.395 59.0636 162.122 61.3313 163.743C94.2657 187.28 140.282 179.736 163.819 146.801Z" fill="#FBCB18"/>
<path d="M188.733 164.667C222.121 118.114 211.426 52.9412 164.733 19.541C118.116 -13.9235 53.0069 -3.1523 19.4781 43.3879C-6.5132 79.7237 -5.80239 127.25 17.7954 162.286L18.7955 161.447C-4.38856 126.843 -5.08292 80.0279 20.6078 44.2675C53.6003 -1.82273 117.916 -12.4504 164.006 20.5421C210.097 53.5346 220.648 117.915 187.591 163.928C154.598 210.018 90.2826 220.646 44.1924 187.654C39.8888 184.562 35.8948 181.197 32.2172 177.599L31.2412 178.418C34.9925 182.084 39.0697 185.51 43.466 188.655C90.1594 222.055 155.268 211.284 188.733 164.667Z" fill="#FBCB18"/>
<path d="M141.435 130.86C156.153 110.286 151.498 81.5572 130.859 66.762C110.361 51.9792 81.5562 56.6991 66.761 77.3378C56.5787 91.5711 55.6687 109.707 62.9081 124.432L63.9042 123.597C57.0128 109.309 57.9279 91.7882 67.7622 78.0642C82.1496 58.0287 110.097 53.3757 130.133 67.7632C150.168 82.1507 154.821 110.098 140.434 130.134C126.046 150.169 98.0987 154.822 78.0632 140.435C77.7838 140.234 77.5075 140.031 77.2341 139.825L76.2612 140.641C76.6148 140.911 76.9733 141.175 77.3368 141.436C97.9112 156.154 126.64 151.499 141.435 130.86Z" fill="#FBCB18"/>
<path fill-rule="evenodd" clip-rule="evenodd" d="M106.479 101.178C107.029 101.226 107.436 101.711 107.388 102.262L106.603 111.227C106.555 111.778 106.07 112.185 105.52 112.136C104.97 112.088 104.563 111.603 104.611 111.053L105.185 104.492L19.7831 176.153L18.4975 174.621L103.899 102.96L97.3387 102.386C96.7885 102.338 96.3815 101.853 96.4296 101.303C96.4778 100.753 96.9628 100.346 97.513 100.394L106.479 101.178Z" fill="#FBCB18"/>
</svg>
