<?xml version="1.0" encoding="utf-8"?>
<!-- Generator: Adobe Illustrator 23.0.1, SVG Export Plug-In . SVG Version: 6.00 Build 0)  -->
<svg version="1.1" id="Слой_1" xmlns="http://www.w3.org/2000/svg" xmlns:xlink="http://www.w3.org/1999/xlink" x="0px" y="0px"
	 viewBox="0 0 208.2 208.2" style="enable-background:new 0 0 208.2 208.2;" xml:space="preserve">
<style type="text/css">
	.st0{fill:#FBCB18;}
</style>
<g>
	<path class="st0" d="M192,65.2h-8.6l-0.8-1.6c-7.4-13.8-18.1-25.4-31-33.5c-14.2-9-30.6-13.8-47.5-13.8c-6.6,0-13.3,0.8-20.1,2.3
		c-0.5,0.1-0.9,0.7-0.9,1.4c0.2,0.6,0.8,0.9,1.4,0.8c6.8-1.5,13.2-2.2,19.5-2.2c18.9,0,36.8,5.9,51.7,17l7.2,5.4h-28
		c-7.5,0-13.7,6.1-13.7,13.7c0,2,0.5,4.2,1.5,6.2l3,4.3H27.3l2.7-4.5c6.4-10.8,15.4-20.2,25.9-27.3c0.4-0.2,0.5-0.6,0.5-0.7
		c0-0.2,0-0.5-0.2-0.8c-0.2-0.3-0.5-0.5-0.8-0.6c-0.3-0.1-0.5,0-0.7,0.2c-12,8.1-22,19.2-28.9,32.2l-0.8,1.6h-8.8
		c-8.3,0-15.1,6.8-15.1,15.1v48.6c0,8.3,6.8,15.1,15.1,15.1h8.4l0.8,1.6c4.3,8.4,10,16.1,16.8,22.8c4.7,4.6,9.4,8.3,14.2,11.4
		c14.2,9.2,30.7,14,47.9,14c17,0,33.5-4.9,47.9-14c13.1-8.4,23.8-20.2,31-34.1l0.8-1.6h8.1c8.3,0,15.1-6.8,15.1-15.1V80.2
		C207.1,71.9,200.3,65.2,192,65.2z M123.7,54.7c0-6.3,5.1-11.3,11.3-11.3h29.9l0.9,0.9c5,5.1,9.2,10.5,12.7,16.4l2.8,4.6h-50.3
		l-0.6-0.3C126.3,63.1,123.7,59.1,123.7,54.7z M165.6,89c0,0.1-0.1,0.4-0.2,0.6l-13.2,28.3c-0.2,0.5-0.5,0.7-0.9,0.7
		c-0.2,0-0.4-0.1-0.6-0.2c-0.2-0.2-0.2-0.3-0.2-0.5c0-0.2,0.1-0.4,0.2-0.6l13.2-28.3c0.1-0.3,0.3-0.5,0.4-0.6
		c0.1-0.1,0.3-0.1,0.5-0.1c0.2,0,0.4,0.1,0.6,0.2C165.5,88.6,165.6,88.8,165.6,89z M139.3,103c-0.5,0.5-1.1,0.8-1.9,0.8h-0.7
		c-0.7,0-1.4-0.3-1.9-0.8c-0.5-0.5-0.8-1.1-0.8-1.9c0-0.8,0.3-1.4,0.8-1.9s1.1-0.8,1.9-0.8h0.7c0.7,0,1.4,0.3,1.9,0.8
		c0.5,0.5,0.8,1.1,0.8,1.9C140.1,101.8,139.8,102.5,139.3,103z M140.1,113.3c0,0.8-0.3,1.4-0.8,1.9s-1.1,0.8-1.9,0.8h-0.7
		c-0.7,0-1.4-0.3-1.9-0.8c-0.5-0.5-0.8-1.1-0.8-1.9c0-0.8,0.3-1.4,0.8-1.9s1.1-0.8,1.9-0.8h0.7c0.7,0,1.4,0.3,1.9,0.8
		S140.1,112.5,140.1,113.3z M108.1,110.9c0-0.4,0.1-0.7,0.2-0.8c0.2-0.2,0.3-0.3,0.6-0.3c0.2,0,0.4,0.1,0.6,0.2
		c0.2,0.2,0.2,0.4,0.2,0.7c0,0.6,0.2,1.1,0.4,1.5c0.5,0.6,1.2,1.1,2.2,1.6s2.2,0.6,3.7,0.6c2.1,0,3.7-0.4,4.8-1.2
		c1-0.8,1.6-1.6,1.6-2.5c0-1-0.5-1.8-1.6-2.4c-1.1-0.6-2.6-1-4.7-1.2c-2-0.2-3.5-0.5-4.4-0.8c-0.9-0.3-1.6-0.8-2.1-1.5
		c-0.5-0.7-0.7-1.4-0.7-2.2c0-1.4,0.7-2.5,2.1-3.3c1.4-0.8,3-1.2,4.9-1.2c2.3,0,4.1,0.6,5.5,1.7c0-0.4,0.1-0.7,0.2-0.8
		c0.2-0.2,0.4-0.3,0.6-0.3c0.2,0,0.4,0.1,0.6,0.3c0.2,0.2,0.2,0.5,0.2,0.9v2.8c0,0.4-0.1,0.7-0.2,0.8c-0.2,0.2-0.4,0.3-0.6,0.3
		c-0.2,0-0.4-0.1-0.6-0.2c-0.1-0.1-0.2-0.4-0.3-0.7c-0.1-0.8-0.5-1.4-1.2-1.9c-1.1-0.7-2.5-1.1-4.2-1.1c-1.8,0-3.3,0.4-4.3,1.1
		c-0.8,0.6-1.2,1.2-1.2,1.9c0,0.8,0.5,1.4,1.4,2c0.6,0.4,1.8,0.6,3.6,0.8c2.3,0.2,3.9,0.5,4.7,0.8c1.3,0.5,2.2,1.1,2.8,1.9
		c0.6,0.8,0.9,1.7,0.9,2.6c0,1.4-0.7,2.6-2,3.7c-1.3,1.1-3.3,1.6-5.9,1.6c-2.6,0-4.7-0.7-6.4-2c0,0.4,0,0.7-0.1,0.9
		c-0.1,0.1-0.1,0.2-0.3,0.3s-0.3,0.1-0.5,0.1c-0.2,0-0.4-0.1-0.6-0.3s-0.2-0.4-0.2-0.8V110.9z M85,100.1c-0.4,0-0.7-0.1-0.8-0.2
		c-0.2-0.2-0.3-0.4-0.3-0.6c0-0.2,0.1-0.4,0.3-0.6c0.2-0.2,0.4-0.2,0.8-0.2h3.8v3c1-1.2,2-2.1,3.1-2.7c1.1-0.6,2.4-0.9,4-0.9
		c1.6,0,3.1,0.4,4.5,1.1c1.4,0.8,2.4,1.8,3.2,3.2c0.7,1.3,1.1,2.8,1.1,4.2c0,2.4-0.8,4.4-2.5,6c-1.7,1.7-3.8,2.5-6.2,2.5
		c-2.9,0-5.3-1.2-7.1-3.6v9.9h4c0.4,0,0.7,0.1,0.8,0.2c0.2,0.1,0.3,0.3,0.3,0.6c0,0.2-0.1,0.4-0.3,0.6c-0.2,0.2-0.4,0.2-0.8,0.2H85
		c-0.4,0-0.7-0.1-0.8-0.2c-0.2-0.2-0.3-0.3-0.3-0.6c0-0.2,0.1-0.4,0.3-0.6c0.2-0.2,0.4-0.2,0.8-0.2h2.2v-21.2H85z M65.1,98.6
		c0.2-0.2,0.4-0.2,0.8-0.2h3v-4.8c0-0.4,0.1-0.7,0.2-0.8c0.2-0.2,0.4-0.3,0.6-0.3c0.2,0,0.4,0.1,0.6,0.3c0.2,0.2,0.2,0.4,0.2,0.8
		v4.8h8.9c0.4,0,0.7,0.1,0.8,0.2c0.2,0.2,0.3,0.4,0.3,0.6c0,0.2-0.1,0.4-0.3,0.6c-0.2,0.2-0.4,0.2-0.8,0.2h-8.9V111
		c0,1,0.4,1.7,1.1,2.4s1.9,1,3.3,1c1.1,0,2.3-0.2,3.6-0.5s2.3-0.7,3-1.1c0.3-0.2,0.5-0.3,0.6-0.3c0.2,0,0.4,0.1,0.5,0.2
		s0.2,0.4,0.2,0.6c0,0.2-0.1,0.4-0.3,0.5c-0.4,0.4-1.4,0.9-3,1.4c-1.6,0.5-3.1,0.8-4.6,0.8c-1.9,0-3.4-0.4-4.6-1.3S69,112.5,69,111
		v-10.9h-3c-0.4,0-0.7-0.1-0.8-0.2c-0.2-0.2-0.3-0.4-0.3-0.6C64.9,99,65,98.8,65.1,98.6z M44.1,98.6c0.2-0.2,0.4-0.2,0.8-0.2h3v-4.8
		c0-0.4,0.1-0.7,0.2-0.8c0.2-0.2,0.4-0.3,0.6-0.3c0.2,0,0.4,0.1,0.6,0.3c0.2,0.2,0.2,0.4,0.2,0.8v4.8h8.9c0.4,0,0.7,0.1,0.8,0.2
		c0.2,0.2,0.3,0.4,0.3,0.6c0,0.2-0.1,0.4-0.3,0.6c-0.2,0.2-0.4,0.2-0.8,0.2h-8.9V111c0,1,0.4,1.7,1.1,2.4s1.9,1,3.3,1
		c1.1,0,2.3-0.2,3.6-0.5s2.3-0.7,3-1.1c0.3-0.2,0.5-0.3,0.6-0.3c0.2,0,0.4,0.1,0.5,0.2s0.2,0.4,0.2,0.6c0,0.2-0.1,0.4-0.3,0.5
		c-0.4,0.4-1.4,0.9-3,1.4c-1.6,0.5-3.1,0.8-4.6,0.8c-1.9,0-3.4-0.4-4.6-1.3S48,112.5,48,111v-10.9h-3c-0.4,0-0.7-0.1-0.8-0.2
		c-0.2-0.2-0.3-0.4-0.3-0.6C43.9,99,44,98.8,44.1,98.6z M23.1,115.3c-0.4,0-0.7-0.1-0.8-0.2c-0.2-0.2-0.3-0.4-0.3-0.6
		c0-0.2,0.1-0.4,0.3-0.6c0.2-0.1,0.4-0.2,0.8-0.2H25V92.5h-2.2c-0.4,0-0.7-0.1-0.8-0.2c-0.2-0.2-0.3-0.4-0.3-0.6
		c0-0.2,0.1-0.4,0.3-0.6c0.2-0.2,0.4-0.2,0.8-0.2h3.8v10.1c1-1.1,2-1.9,3-2.4c1-0.5,2-0.7,3.2-0.7c1.3,0,2.4,0.2,3.3,0.7
		c0.9,0.4,1.6,1.1,2.2,2.1c0.6,0.9,0.9,1.9,0.9,2.9v10.2h1.8c0.4,0,0.7,0.1,0.8,0.2c0.2,0.1,0.2,0.3,0.2,0.6c0,0.2-0.1,0.4-0.2,0.6
		c-0.2,0.2-0.4,0.2-0.8,0.2h-5.3c-0.4,0-0.7-0.1-0.9-0.2c-0.2-0.2-0.3-0.4-0.3-0.6c0-0.2,0.1-0.4,0.3-0.6c0.2-0.1,0.5-0.2,0.9-0.2
		h1.8v-10.1c0-1.2-0.4-2.2-1.3-3c-0.9-0.8-2-1.2-3.6-1.2c-1.2,0-2.2,0.3-3.1,0.9c-0.6,0.4-1.6,1.4-3,2.9v10.4h1.9
		c0.4,0,0.7,0.1,0.8,0.2c0.2,0.1,0.3,0.3,0.3,0.6c0,0.2-0.1,0.4-0.3,0.6c-0.2,0.2-0.4,0.2-0.8,0.2H23.1z M42.6,165.5
		c-5.5-5.7-9.8-11.3-13.1-17.2l-2.5-4.5h48.1l0.3,0.1c5.2,1.1,8.9,5.8,8.9,11.1c0,6.3-5.1,11.3-11.3,11.3H43.5L42.6,165.5z
		 M145.8,143.7h35.7l-2.6,4.5c-15.4,26.6-44,43.1-74.7,43.1c-18.5,0-36.9-6.2-51.9-17.4l-7.2-5.4h27.7c7.5,0,13.7-6.1,13.7-13.7
		c0-2.3-0.6-4.6-1.8-6.8l-2.5-4.5h30.3L145.8,143.7z M186.4,89.6l-13.2,28.3c-0.2,0.5-0.5,0.7-0.9,0.7c-0.2,0-0.4-0.1-0.6-0.2
		c-0.2-0.2-0.2-0.3-0.2-0.5c0-0.2,0.1-0.4,0.2-0.6l13.2-28.3c0.1-0.3,0.3-0.5,0.4-0.6c0.1-0.1,0.3-0.1,0.5-0.1
		c0.2,0,0.4,0.1,0.6,0.2c0.2,0.2,0.2,0.3,0.2,0.5C186.6,89.1,186.6,89.3,186.4,89.6z"/>
	<path class="st0" d="M96,113.3c2,0,3.6-0.7,5-2c1.4-1.3,2.1-3,2.1-4.9c0-1.9-0.7-3.5-2.1-4.9c-1.4-1.3-3.1-2-5-2
		c-2,0-3.7,0.7-5.1,2c-1.4,1.4-2.1,3-2.1,4.8c0,1.9,0.7,3.5,2.1,4.9C92.3,112.6,94,113.3,96,113.3z"/>
</g>
</svg>
