<svg width="282" height="44" viewBox="0 0 282 44" fill="none" xmlns="http://www.w3.org/2000/svg">
<g clip-path="url(#clip0_649_8)">
<path d="M260 1C271.6 1 281 10.4 281 22C281 33.6 271.6 43 260 43H22C10.4 43 1 33.6 1 22C1 10.4 10.4 1 22 1H260ZM260 0H22C9.9 0 0 9.9 0 22C0 34.1 9.9 44 22 44H260C272.1 44 282 34.1 282 22C282 9.9 272.1 0 260 0Z" fill="white"/>
<path d="M263.5 27.1999C263.997 27.1999 264.4 26.797 264.4 26.2999C264.4 25.8028 263.997 25.3999 263.5 25.3999C263.003 25.3999 262.6 25.8028 262.6 26.2999C262.6 26.797 263.003 27.1999 263.5 27.1999Z" fill="white"/>
<path d="M263.5 13C258.5 13 254.5 17 254.5 22C254.5 27 258.5 31 263.5 31C268.5 31 272.5 27 272.5 22C272.5 17 268.5 13 263.5 13ZM263.5 29.6C259.3 29.6 255.9 26.2 255.9 22C255.9 17.8 259.3 14.4 263.5 14.4C267.7 14.4 271.1 17.8 271.1 22C271.1 26.2 267.7 29.6 263.5 29.6Z" fill="white"/>
<path d="M263.5 17.5C261.9 17.5 260.7 18.8 260.7 20.3C260.7 20.7 261 21 261.4 21C261.8 21 262.1 20.7 262.1 20.3C262.1 19.5 262.7 18.9 263.5 18.9C264.3 18.9 264.9 19.5 264.9 20.3C264.9 21.1 264.3 21.7 263.5 21.7C263.1 21.7 262.8 22 262.8 22.4V24.2C262.8 24.6 263.1 24.9 263.5 24.9C263.9 24.9 264.2 24.6 264.2 24.2V23.1C265.4 22.8 266.3 21.7 266.3 20.4C266.3 18.8 265.1 17.5 263.5 17.5Z" fill="white"/>
<path d="M50.7 19.1C50.7 18.5 50.5 18.1 50.1 17.7C49.7 17.4 49.1 17.2 48.3 17.2C47.7 17.2 47.1 17.4 46.7 17.7C46.3 18 46.1 18.5 46.1 19H44.7C44.7 18.4 44.9 17.9 45.2 17.5C45.5 17 45.9 16.7 46.5 16.4C47.1 16.1 47.7 16 48.4 16C49.6 16 50.5 16.3 51.2 16.8C51.9 17.3 52.2 18.1 52.2 19C52.2 19.5 52 19.9 51.7 20.4C51.4 20.9 51 21.1 50.4 21.4C51.7 21.8 52.3 22.7 52.3 23.9C52.3 24.9 51.9 25.6 51.2 26.2C50.5 26.8 49.5 27 48.3 27C47.6 27 46.9 26.9 46.4 26.6C45.9 26.3 45.4 26 45 25.5C44.6 25 44.5 24.5 44.5 23.8H46C46 24.4 46.2 24.8 46.7 25.2C47.1 25.6 47.7 25.8 48.4 25.8C49.2 25.8 49.8 25.6 50.2 25.3C50.7 24.9 50.9 24.5 50.9 23.9C50.9 22.6 50.1 22 48.6 22H47.3V20.8H48.6C49.3 20.8 49.9 20.6 50.2 20.3C50.5 20.1 50.7 19.7 50.7 19.1Z" fill="white"/>
<path d="M58.9002 26.8999C58.8002 26.6999 58.8002 26.4999 58.7002 26.0999C58.1002 26.7999 57.3002 27.0999 56.4002 27.0999C55.6002 27.0999 55.0002 26.8999 54.5002 26.3999C54.0002 25.9999 53.7002 25.3999 53.7002 24.6999C53.7002 23.8999 54.0002 23.1999 54.6002 22.7999C55.2002 22.2999 56.1002 22.0999 57.3002 22.0999H58.6002V21.4999C58.6002 20.9999 58.5002 20.5999 58.2002 20.3999C57.9002 20.0999 57.5002 19.9999 56.9002 19.9999C56.4002 19.9999 56.0002 20.0999 55.7002 20.3999C55.4002 20.5999 55.2002 20.8999 55.2002 21.2999H53.8002C53.8002 20.8999 53.9002 20.4999 54.2002 20.0999C54.5002 19.6999 54.9002 19.3999 55.3002 19.1999C55.7002 18.9999 56.3002 18.8999 56.9002 18.8999C57.8002 18.8999 58.5002 19.0999 59.1002 19.5999C59.7002 20.0999 59.9002 20.6999 59.9002 21.4999V25.1999C59.9002 25.8999 60.0002 26.4999 60.2002 26.8999V26.9999H58.9002V26.8999ZM56.6002 25.8999C57.0002 25.8999 57.4002 25.7999 57.8002 25.5999C58.2002 25.3999 58.5002 25.0999 58.6002 24.6999V23.0999H57.5002C55.8002 23.0999 55.0002 23.5999 55.0002 24.5999C55.0002 24.9999 55.1002 25.3999 55.4002 25.5999C55.7002 25.7999 56.2002 25.8999 56.6002 25.8999Z" fill="white"/>
<path d="M68.8996 22.9999C68.8996 24.1999 68.5996 25.1999 68.0996 25.8999C67.5996 26.5999 66.7996 26.9999 65.7996 26.9999C64.7996 26.9999 64.0996 26.6999 63.4996 26.0999V29.9999H62.0996V18.9999H63.2996L63.3996 19.8999C63.9996 19.1999 64.6996 18.8999 65.6996 18.8999C66.6996 18.8999 67.3996 19.2999 67.9996 19.9999C68.5996 20.6999 68.7996 21.6999 68.7996 22.9999H68.8996ZM67.4996 22.8999C67.4996 21.9999 67.2996 21.2999 66.8996 20.7999C66.5996 20.1999 65.9996 19.9999 65.3996 19.9999C64.5996 19.9999 63.9996 20.3999 63.4996 21.0999V24.8999C63.8996 25.5999 64.4996 25.9999 65.3996 25.9999C66.0996 25.9999 66.5996 25.6999 66.9996 25.1999C67.3996 24.6999 67.4996 23.8999 67.4996 22.8999Z" fill="white"/>
<path d="M73.8998 27.0998C72.7998 27.0998 71.8998 26.6998 71.2998 25.9998C70.6998 25.2998 70.2998 24.2998 70.2998 23.1998V22.8998C70.2998 22.0998 70.4998 21.3998 70.7998 20.7998C71.0998 20.1998 71.4998 19.6998 72.0998 19.2998C72.5998 18.8998 73.1998 18.7998 73.8998 18.7998C74.8998 18.7998 75.6998 19.0998 76.2998 19.7998C76.8998 20.4998 77.1998 21.4998 77.1998 22.6998V23.2998H71.7998C71.7998 24.0998 71.9998 24.6998 72.4998 25.1998C72.8998 25.6998 73.4998 25.8998 74.1998 25.8998C74.6998 25.8998 75.0998 25.7998 75.3998 25.5998C75.6998 25.3998 75.9998 25.0998 76.2998 24.7998L77.0998 25.3998C76.2998 26.5998 75.2998 27.0998 73.8998 27.0998ZM73.7998 19.8998C73.1998 19.8998 72.7998 20.0998 72.3998 20.4998C71.9998 20.8998 71.7998 21.4998 71.6998 22.1998H75.6998V22.0998C75.6998 21.3998 75.4998 20.8998 75.0998 20.4998C74.7998 20.0998 74.2998 19.8998 73.7998 19.8998Z" fill="white"/>
<path d="M83.8002 20.0999H80.1002V26.8999H78.7002V18.8999H83.7002V20.0999H83.8002Z" fill="white"/>
<path d="M90.1 19H91.5V27H90.1V21.2L86.4 27H85V19H86.4V24.8L90.1 19Z" fill="white"/>
<path d="M96.8998 25.9999C97.3998 25.9999 97.7998 25.8999 98.1998 25.5999C98.5998 25.2999 98.7998 24.8999 98.7998 24.4999H100.1C100.1 24.9999 99.8998 25.3999 99.5998 25.7999C99.2998 26.1999 98.8998 26.4999 98.3998 26.7999C97.8998 26.9999 97.3998 27.1999 96.8998 27.1999C95.7998 27.1999 94.9998 26.7999 94.2998 26.0999C93.5998 25.3999 93.2998 24.3999 93.2998 23.0999V22.8999C93.2998 22.0999 93.3998 21.3999 93.6998 20.7999C93.9998 20.1999 94.3998 19.6999 94.8998 19.3999C95.3998 19.0999 96.0998 18.8999 96.7998 18.8999C97.6998 18.8999 98.3998 19.1999 98.9998 19.6999C99.5998 20.1999 99.8998 20.8999 99.8998 21.7999H98.5998C98.5998 21.2999 98.3998 20.8999 97.9998 20.4999C97.5998 20.0999 97.1998 19.9999 96.6998 19.9999C95.9998 19.9999 95.4998 20.1999 95.0998 20.6999C94.6998 21.1999 94.4998 21.8999 94.4998 22.8999V23.1999C94.4998 24.0999 94.6998 24.7999 95.0998 25.2999C95.5998 25.6999 96.1998 25.9999 96.8998 25.9999Z" fill="white"/>
<path d="M107.5 20.1H104.8V27H103.4V20.1H100.8V19H107.5V20.1Z" fill="white"/>
<path d="M115.6 22.9999C115.6 24.1999 115.3 25.1999 114.8 25.8999C114.2 26.5999 113.5 26.9999 112.5 26.9999C111.5 26.9999 110.8 26.6999 110.2 26.0999V29.9999H108.8V18.9999H110L110.1 19.8999C110.7 19.1999 111.4 18.8999 112.4 18.8999C113.4 18.8999 114.1 19.2999 114.7 19.9999C115.3 20.6999 115.5 21.6999 115.5 22.9999H115.6ZM114.2 22.8999C114.2 21.9999 114 21.2999 113.6 20.7999C113.2 20.2999 112.7 19.9999 112 19.9999C111.2 19.9999 110.6 20.3999 110.1 21.0999V24.8999C110.5 25.5999 111.1 25.9999 112 25.9999C112.7 25.9999 113.2 25.6999 113.6 25.1999C114 24.6999 114.2 23.8999 114.2 22.8999Z" fill="white"/>
<path d="M122.5 19H123.9V27H122.5V21.2L118.8 27H117.4V19H118.8V24.8L122.5 19Z" fill="white"/>
<path d="M132.7 22.9999C132.7 24.1999 132.4 25.1999 131.9 25.8999C131.3 26.5999 130.6 26.9999 129.6 26.9999C128.6 26.9999 127.9 26.6999 127.3 26.0999V29.9999H126V18.9999H127.2L127.3 19.8999C127.9 19.1999 128.6 18.8999 129.6 18.8999C130.6 18.8999 131.3 19.2999 131.9 19.9999C132.5 20.6999 132.7 21.6999 132.7 22.9999V22.9999ZM131.4 22.8999C131.4 21.9999 131.2 21.2999 130.8 20.7999C130.4 20.2999 129.9 19.9999 129.2 19.9999C128.4 19.9999 127.8 20.3999 127.3 21.0999V24.8999C127.7 25.5999 128.3 25.9999 129.2 25.9999C129.9 25.9999 130.4 25.6999 130.8 25.1999C131.2 24.6999 131.4 23.8999 131.4 22.8999Z" fill="white"/>
<path d="M134.1 22.8999C134.1 22.0999 134.3 21.3999 134.6 20.7999C134.9 20.1999 135.3 19.6999 135.9 19.3999C136.4 19.0999 137.1 18.8999 137.8 18.8999C138.9 18.8999 139.8 19.2999 140.4 19.9999C141.1 20.7999 141.4 21.6999 141.4 22.9999C141.4 23.7999 141.3 24.4999 141 25.0999C140.7 25.6999 140.3 26.1999 139.7 26.4999C139.1 26.7999 138.5 26.9999 137.8 26.9999C136.7 26.9999 135.8 26.5999 135.2 25.8999C134.4 25.1999 134.1 24.1999 134.1 22.8999ZM135.5 22.9999C135.5 23.8999 135.7 24.5999 136.1 25.0999C136.5 25.5999 137.1 25.8999 137.7 25.8999C138.4 25.8999 138.9 25.5999 139.4 25.0999C139.8 24.5999 140 23.7999 140 22.7999C140 21.8999 139.8 21.1999 139.4 20.6999C139 20.1999 138.4 19.8999 137.7 19.8999C137 19.8999 136.5 20.1999 136.1 20.6999C135.7 21.2999 135.5 21.9999 135.5 22.9999Z" fill="white"/>
<path d="M143.2 26.8999V18.8999H146.3C147.4 18.8999 148.2 19.0999 148.7 19.4999C149.3 19.8999 149.6 20.3999 149.6 21.0999C149.6 21.4999 149.5 21.7999 149.3 22.0999C149.1 22.3999 148.8 22.5999 148.3 22.7999C148.8 22.8999 149.2 23.0999 149.5 23.4999C149.8 23.7999 149.9 24.1999 149.9 24.6999C149.9 25.3999 149.6 25.9999 149.1 26.3999C148.6 26.7999 147.8 26.9999 146.8 26.9999H143.2V26.8999ZM144.6 22.2999H146.4C147.7 22.2999 148.3 21.8999 148.3 21.1999C148.3 20.4999 147.7 20.0999 146.5 19.9999H144.6V22.2999ZM144.6 23.3999V25.7999H146.9C147.5 25.7999 147.9 25.6999 148.2 25.4999C148.5 25.2999 148.6 24.9999 148.6 24.5999C148.6 23.7999 148 23.3999 146.8 23.3999H144.6Z" fill="white"/>
<path d="M156.6 26.8999C156.5 26.6999 156.5 26.4999 156.4 26.0999C155.8 26.7999 155 27.0999 154.1 27.0999C153.3 27.0999 152.7 26.8999 152.2 26.3999C151.7 25.9999 151.4 25.3999 151.4 24.6999C151.4 23.8999 151.7 23.1999 152.3 22.7999C152.9 22.2999 153.8 22.0999 155 22.0999H156.3V21.4999C156.3 20.9999 156.2 20.5999 155.9 20.3999C155.6 20.0999 155.2 19.9999 154.6 19.9999C154.1 19.9999 153.7 20.0999 153.4 20.3999C153.1 20.5999 152.9 20.8999 152.9 21.2999H151.5C151.5 20.8999 151.6 20.4999 151.9 20.0999C152.2 19.6999 152.6 19.3999 153 19.1999C153.5 18.9999 154 18.8999 154.6 18.8999C155.5 18.8999 156.2 19.0999 156.8 19.5999C157.3 20.0999 157.6 20.6999 157.6 21.4999V25.1999C157.6 25.8999 157.7 26.4999 157.9 26.8999V26.9999H156.6V26.8999ZM154.4 25.8999C154.8 25.8999 155.2 25.7999 155.6 25.5999C156 25.3999 156.3 25.0999 156.4 24.6999V23.0999H155.3C153.6 23.0999 152.8 23.5999 152.8 24.5999C152.8 24.9999 152.9 25.3999 153.2 25.5999C153.6 25.7999 153.9 25.8999 154.4 25.8999Z" fill="white"/>
<path d="M166.4 26.8999H165V23.4999H161.3V26.8999H160V18.8999H161.4V22.3999H165.1V18.9999H166.5V26.8999H166.4Z" fill="white"/>
<path d="M168.3 22.8999C168.3 22.0999 168.5 21.3999 168.8 20.7999C169.1 20.1999 169.5 19.6999 170.1 19.3999C170.6 19.0999 171.3 18.8999 172 18.8999C173.1 18.8999 174 19.2999 174.6 19.9999C175.3 20.7999 175.6 21.6999 175.6 22.9999C175.6 23.7999 175.5 24.4999 175.2 25.0999C174.9 25.6999 174.5 26.1999 173.9 26.4999C173.3 26.7999 172.7 26.9999 172 26.9999C170.9 26.9999 170 26.5999 169.4 25.8999C168.6 25.1999 168.3 24.1999 168.3 22.8999ZM169.6 22.9999C169.6 23.8999 169.8 24.5999 170.2 25.0999C170.6 25.5999 171.2 25.8999 171.8 25.8999C172.5 25.8999 173 25.5999 173.5 25.0999C174 24.5999 174.1 23.7999 174.1 22.7999C174.1 21.8999 173.9 21.1999 173.5 20.6999C173.1 20.1999 172.5 19.8999 171.8 19.8999C171.1 19.8999 170.6 20.1999 170.2 20.6999C169.8 21.2999 169.6 21.9999 169.6 22.9999Z" fill="white"/>
<path d="M181 26.6997V18.6997H184.1C185.2 18.6997 186 18.8997 186.5 19.2997C187.1 19.6997 187.4 20.1997 187.4 20.8997C187.4 21.2997 187.3 21.5997 187.1 21.8997C186.9 22.1997 186.6 22.3997 186.1 22.5997C186.6 22.6997 187 22.8997 187.3 23.2997C187.6 23.6997 187.7 23.9997 187.7 24.4997C187.7 25.1997 187.4 25.7997 186.9 26.1997C186.4 26.5997 185.6 26.7997 184.6 26.7997H181V26.6997ZM182.3 22.0997H184.1C185.4 22.0997 186 21.6997 186 20.9997C186 20.2997 185.4 19.8997 184.2 19.7997H182.3V22.0997ZM182.3 23.1997V25.5997H184.6C185.2 25.5997 185.6 25.4997 185.9 25.2997C186.2 25.0997 186.3 24.7997 186.3 24.3997C186.3 23.5997 185.7 23.1997 184.5 23.1997H182.3Z" fill="white"/>
<path d="M199 26.6999V22.4999H196.5L194.3 26.6999H192.8L195.3 22.0999C193.9 21.5999 193.2 20.5999 193.2 19.1999C193.2 18.1999 193.5 17.3999 194.2 16.7999C194.9 16.1999 195.8 15.8999 197 15.8999H200.4V26.5999H199V26.6999ZM194.7 19.1999C194.7 19.8999 194.9 20.3999 195.3 20.7999C195.7 21.1999 196.3 21.3999 197 21.3999H199.1V17.1999H197.1C196.3 17.1999 195.7 17.3999 195.3 17.6999C194.9 17.9999 194.7 18.5999 194.7 19.1999Z" fill="white"/>
<path d="M209.3 26.6997H208V23.2997H204.3V26.6997H202.9V18.6997H204.3V22.1997H208V18.6997H209.4V26.6997H209.3Z" fill="white"/>
<path d="M211.5 25.5997L212 24.9997C212.5 24.2997 212.8 23.2997 212.9 21.8997L213 18.6997H218.1V25.5997H219.1V29.0997H217.7V26.7997H212.1V29.0997H210.7V25.5997H211.5ZM213.1 25.5997H216.8V19.9997H214.3L214.2 21.8997C214.1 23.4997 213.8 24.6997 213.1 25.5997Z" fill="white"/>
<path d="M224 26.9001C222.9 26.9001 222 26.5001 221.4 25.8001C220.7 25.1001 220.4 24.1001 220.4 23.0001V22.7001C220.4 21.9001 220.6 21.2001 220.9 20.6001C221.2 20.0001 221.6 19.5001 222.2 19.1001C222.7 18.7001 223.3 18.6001 224 18.6001C225 18.6001 225.8 18.9001 226.4 19.6001C227 20.3001 227.3 21.3001 227.3 22.5001V23.1001H221.9C221.9 23.9001 222.1 24.5001 222.6 25.0001C223 25.5001 223.6 25.7001 224.3 25.7001C224.8 25.7001 225.2 25.6001 225.5 25.4001C225.8 25.2001 226.1 24.9001 226.4 24.6001L227.2 25.2001C226.3 26.4001 225.3 26.9001 224 26.9001ZM223.8 19.7001C223.2 19.7001 222.8 19.9001 222.4 20.3001C222 20.7001 221.8 21.3001 221.7 22.0001H225.7V21.9001C225.7 21.2001 225.5 20.7001 225.1 20.3001C224.8 19.9001 224.4 19.7001 223.8 19.7001Z" fill="white"/>
<path d="M231.1 23.2997H230.1V26.6997H228.7V18.6997H230.1V22.0997H231L233.7 18.6997H235.4L232.2 22.4997L235.6 26.5997H233.9L231.1 23.2997Z" fill="white"/>
<path d="M239.9 25.7997C240.4 25.7997 240.8 25.6997 241.2 25.3997C241.6 25.0997 241.8 24.6997 241.8 24.2997H243.1C243.1 24.7997 242.9 25.1997 242.6 25.5997C242.3 25.9997 241.9 26.2997 241.4 26.5997C240.9 26.7997 240.4 26.9997 239.9 26.9997C238.8 26.9997 238 26.5997 237.3 25.8997C236.7 25.1997 236.3 24.1997 236.3 22.8997V22.6997C236.3 21.8997 236.4 21.1997 236.7 20.5997C237 19.9997 237.4 19.4997 237.9 19.1997C238.4 18.8997 239.1 18.6997 239.8 18.6997C240.7 18.6997 241.4 18.9997 242 19.4997C242.6 19.9997 242.9 20.6997 242.9 21.5997H241.6C241.6 21.0997 241.4 20.6997 241 20.2997C240.6 19.9997 240.2 19.7997 239.7 19.7997C239 19.7997 238.5 19.9997 238.1 20.4997C237.7 20.9997 237.5 21.6997 237.5 22.6997V22.9997C237.5 23.8997 237.7 24.5997 238.1 25.0997C238.6 25.4997 239.2 25.7997 239.9 25.7997Z" fill="white"/>
<path d="M8 21.9692C8 14.237 14.2664 7.96924 22 7.96924C29.7308 7.96924 36 14.237 36 21.9692C36 29.7014 29.7308 35.9692 22 35.9692C14.2664 35.9692 8 29.7014 8 21.9692V21.9692Z" fill="#FC3F1D"/>
<path d="M23.7919 15.9017H22.4983C20.1267 15.9017 18.8793 17.1029 18.8793 18.8739C18.8793 20.8759 19.7417 21.8139 21.5127 23.0165L22.9757 24.0021L18.7715 30.2839H15.6299L19.4029 24.6643C17.2329 23.1089 16.0149 21.5983 16.0149 19.0433C16.0149 15.8401 18.2479 13.6533 22.4829 13.6533H26.6871V30.2685H23.7919V15.9017Z" fill="white"/>
</g>
<defs>
<clipPath id="clip0_649_8">
<rect width="282" height="44" fill="white"/>
</clipPath>
</defs>
</svg>
