<svg width="28" height="24" viewBox="0 0 28 24" fill="none" xmlns="http://www.w3.org/2000/svg">
<path d="M14.0003 17.3333C12.9395 17.3333 11.9221 16.9119 11.1719 16.1618C10.4218 15.4116 10.0003 14.3942 10.0003 13.3333C10.0003 11.84 10.8137 10.5333 12.0003 9.85333L24.947 2.36L17.5737 15.1333C16.907 16.44 15.5603 17.3333 14.0003 17.3333ZM14.0003 0C16.4137 0 18.667 0.666667 20.627 1.76L17.827 3.37333C16.667 2.92 15.3337 2.66667 14.0003 2.66667C11.1714 2.66667 8.45825 3.79047 6.45786 5.79086C4.45747 7.79125 3.33367 10.5044 3.33367 13.3333C3.33367 16.28 4.52033 18.9467 6.45367 20.8667H6.467C6.987 21.3867 6.987 22.2267 6.467 22.7467C5.947 23.2667 5.09367 23.2667 4.57367 22.76C3.33363 21.5235 2.35015 20.0542 1.67971 18.4365C1.00928 16.8188 0.665118 15.0845 0.667 13.3333C0.667 9.79711 2.07176 6.40573 4.57224 3.90524C7.07273 1.40476 10.4641 0 14.0003 0ZM27.3337 13.3333C27.3337 17.0133 25.8403 20.3467 23.427 22.76C22.907 23.2667 22.067 23.2667 21.547 22.7467C21.4234 22.6233 21.3253 22.4768 21.2584 22.3155C21.1915 22.1542 21.1571 21.9813 21.1571 21.8067C21.1571 21.632 21.1915 21.4591 21.2584 21.2978C21.3253 21.1365 21.4234 20.99 21.547 20.8667C22.5386 19.8791 23.3248 18.705 23.8603 17.412C24.3958 16.119 24.67 14.7328 24.667 13.3333C24.667 12 24.4137 10.6667 23.947 9.46667L25.5603 6.66667C26.667 8.66667 27.3337 10.9067 27.3337 13.3333Z" fill="url(#paint0_linear_230_23041)"/>
<defs>
<linearGradient id="paint0_linear_230_23041" x1="0.666992" y1="11.796" x2="25.5727" y2="11.796" gradientUnits="userSpaceOnUse">
<stop stop-color="#409DEC"/>
<stop offset="1" stop-color="#024CBB"/>
</linearGradient>
</defs>
</svg>
