<svg width="24" height="24" viewBox="0 0 24 24" fill="none" xmlns="http://www.w3.org/2000/svg">
<path d="M21.3337 21.3333C21.6735 21.3337 22.0004 21.4638 22.2475 21.6971C22.4946 21.9304 22.6434 22.2493 22.6633 22.5885C22.6832 22.9278 22.5728 23.2618 22.3547 23.5224C22.1366 23.783 21.8272 23.9505 21.4897 23.9907L21.3337 24H12.0004C11.6605 23.9996 11.3337 23.8695 11.0866 23.6362C10.8394 23.4029 10.6907 23.0841 10.6708 22.7448C10.6509 22.4055 10.7613 22.0715 10.9794 21.8109C11.1975 21.5503 11.5069 21.3828 11.8444 21.3427L12.0004 21.3333H21.3337ZM17.4617 1.824C18.0723 1.21373 18.8959 0.864178 19.7591 0.848911C20.6222 0.833643 21.4577 1.15386 22.0895 1.74215C22.7213 2.33043 23.1003 3.14091 23.1466 4.00297C23.1929 4.86503 22.9029 5.71143 22.3377 6.364L22.175 6.53733L7.64704 21.0667C7.52008 21.1938 7.37657 21.3032 7.22038 21.392L7.06038 21.472L1.98838 23.7787C0.911044 24.268 -0.195622 23.2227 0.168378 22.1453L0.221711 22.012L2.52838 16.9387C2.60232 16.7755 2.69784 16.623 2.81238 16.4853L2.93238 16.352L17.4617 1.824Z" fill="url(#paint0_linear_230_23053)"/>
<defs>
<linearGradient id="paint0_linear_230_23053" x1="0.0976564" y1="12.6512" x2="21.629" y2="12.6512" gradientUnits="userSpaceOnUse">
<stop stop-color="#409DEC"/>
<stop offset="1" stop-color="#024CBB"/>
</linearGradient>
</defs>
</svg>
