<svg width="30" height="28" viewBox="0 0 30 28" fill="none" xmlns="http://www.w3.org/2000/svg">
<path d="M14.9999 0.666748C15.7072 0.666748 16.3854 0.9477 16.8855 1.4478C17.3856 1.94789 17.6666 2.62617 17.6666 3.33341C17.6666 4.32008 17.1333 5.18675 16.3333 5.64008V7.33341H17.6666C20.1419 7.33341 22.5159 8.31675 24.2662 10.0671C26.0166 11.8174 26.9999 14.1914 26.9999 16.6667H28.3333C28.6869 16.6667 29.026 16.8072 29.2761 17.0573C29.5261 17.3073 29.6666 17.6465 29.6666 18.0001V22.0001C29.6666 22.3537 29.5261 22.6928 29.2761 22.9429C29.026 23.1929 28.6869 23.3334 28.3333 23.3334H26.9999V24.6667C26.9999 25.374 26.719 26.0523 26.2189 26.5524C25.7188 27.0525 25.0405 27.3334 24.3333 27.3334H5.66659C4.95934 27.3334 4.28106 27.0525 3.78097 26.5524C3.28087 26.0523 2.99992 25.374 2.99992 24.6667V23.3334H1.66659C1.31296 23.3334 0.973825 23.1929 0.723776 22.9429C0.473728 22.6928 0.333252 22.3537 0.333252 22.0001V18.0001C0.333252 17.6465 0.473728 17.3073 0.723776 17.0573C0.973825 16.8072 1.31296 16.6667 1.66659 16.6667H2.99992C2.99992 14.1914 3.98325 11.8174 5.73359 10.0671C7.48393 8.31675 9.8579 7.33341 12.3333 7.33341H13.6666V5.64008C12.8666 5.18675 12.3333 4.32008 12.3333 3.33341C12.3333 2.62617 12.6142 1.94789 13.1143 1.4478C13.6144 0.9477 14.2927 0.666748 14.9999 0.666748ZM8.99992 15.3334C8.11586 15.3334 7.26802 15.6846 6.6429 16.3097C6.01777 16.9348 5.66659 17.7827 5.66659 18.6667C5.66659 19.5508 6.01777 20.3986 6.6429 21.0238C7.26802 21.6489 8.11586 22.0001 8.99992 22.0001C9.88397 22.0001 10.7318 21.6489 11.3569 21.0238C11.9821 20.3986 12.3333 19.5508 12.3333 18.6667C12.3333 17.7827 11.9821 16.9348 11.3569 16.3097C10.7318 15.6846 9.88397 15.3334 8.99992 15.3334ZM20.9999 15.3334C20.1159 15.3334 19.268 15.6846 18.6429 16.3097C18.0178 16.9348 17.6666 17.7827 17.6666 18.6667C17.6666 19.5508 18.0178 20.3986 18.6429 21.0238C19.268 21.6489 20.1159 22.0001 20.9999 22.0001C21.884 22.0001 22.7318 21.6489 23.3569 21.0238C23.9821 20.3986 24.3333 19.5508 24.3333 18.6667C24.3333 17.7827 23.9821 16.9348 23.3569 16.3097C22.7318 15.6846 21.884 15.3334 20.9999 15.3334Z" fill="url(#paint0_linear_503_498)"/>
<defs>
<linearGradient id="paint0_linear_503_498" x1="0.333252" y1="14.2615" x2="27.7295" y2="14.2615" gradientUnits="userSpaceOnUse">
<stop stop-color="#409DEC"/>
<stop offset="1" stop-color="#024CBB"/>
</linearGradient>
</defs>
</svg>
