<svg width="30" height="32" viewBox="0 0 30 32" fill="none" xmlns="http://www.w3.org/2000/svg">
<path d="M28.1562 5.2314L16.1562 0.2314C15.7907 0.0797623 15.3989 0.00170898 15.0031 0.00170898C14.6074 0.00170898 14.2155 0.0797623 13.85 0.2314L1.85 5.2314C0.73125 5.6939 0 6.78765 0 8.00015C0 20.4064 7.15625 28.9814 13.8438 31.7689C14.5813 32.0751 15.4125 32.0751 16.15 31.7689C21.5062 29.5376 30 21.8314 30 8.00015C30 6.78765 29.2687 5.6939 28.1562 5.2314ZM15.0063 27.8939L15 4.0814L25.9937 8.66265C25.7875 18.1252 20.8625 24.9814 15.0063 27.8939Z" fill="url(#paint0_linear_503_337)"/>
<defs>
<linearGradient id="paint0_linear_503_337" x1="1.42051e-07" y1="16.3138" x2="28.0189" y2="16.3138" gradientUnits="userSpaceOnUse">
<stop stop-color="#409DEC"/>
<stop offset="1" stop-color="#024CBB"/>
</linearGradient>
</defs>
</svg>
