<svg width="32" height="33" viewBox="0 0 32 33" fill="none" xmlns="http://www.w3.org/2000/svg">
<path d="M16.0001 0.666626C7.26008 0.666626 0.166748 7.75996 0.166748 16.5C0.166748 25.24 7.26008 32.3333 16.0001 32.3333C24.7401 32.3333 31.8334 25.24 31.8334 16.5C31.8334 7.75996 24.7401 0.666626 16.0001 0.666626ZM3.33341 16.5C3.33341 9.50163 9.00175 3.83329 16.0001 3.83329C18.9292 3.83329 21.6209 4.83079 23.7584 6.50913L6.00925 24.2583C4.27038 22.0466 3.3277 19.3134 3.33341 16.5ZM16.0001 29.1666C13.0709 29.1666 10.3792 28.1691 8.24175 26.4908L25.9909 8.74163C27.7298 10.9533 28.6725 13.6866 28.6667 16.5C28.6667 23.4983 22.9984 29.1666 16.0001 29.1666Z" fill="#D53636" fill-opacity="0.8"/>
</svg>
