<svg width="32" height="33" viewBox="0 0 32 33" fill="none" xmlns="http://www.w3.org/2000/svg">
<path d="M26.6875 6.625H17.1875V1.875C17.1875 1.56006 17.0624 1.25801 16.8397 1.03531C16.617 0.812611 16.3149 0.6875 16 0.6875C15.6851 0.6875 15.383 0.812611 15.1603 1.03531C14.9376 1.25801 14.8125 1.56006 14.8125 1.875V6.625H5.3125C4.05393 6.62891 2.84802 7.13062 1.95807 8.02057C1.06812 8.91052 0.566415 10.1164 0.5625 11.375V28C0.566415 29.2586 1.06812 30.4645 1.95807 31.3544C2.84802 32.2444 4.05393 32.7461 5.3125 32.75H26.6875C27.9461 32.7461 29.152 32.2444 30.0419 31.3544C30.9319 30.4645 31.4336 29.2586 31.4375 28V11.375C31.4336 10.1164 30.9319 8.91052 30.0419 8.02057C29.152 7.13062 27.9461 6.62891 26.6875 6.625ZM7.6875 15.5312C7.6875 15.179 7.79197 14.8346 7.98769 14.5416C8.18342 14.2487 8.46161 14.0204 8.7871 13.8856C9.11258 13.7508 9.47073 13.7155 9.81626 13.7842C10.1618 13.853 10.4792 14.0226 10.7283 14.2717C10.9774 14.5208 11.147 14.8382 11.2158 15.1837C11.2845 15.5293 11.2492 15.8874 11.1144 16.2129C10.9796 16.5384 10.7513 16.8166 10.4584 17.0123C10.1654 17.208 9.82105 17.3125 9.46875 17.3125C8.99633 17.3125 8.54326 17.1248 8.20922 16.7908C7.87517 16.4567 7.6875 16.0037 7.6875 15.5312ZM11.8438 26.8125H10.6562C10.0264 26.8125 9.42227 26.5623 8.97687 26.1169C8.53147 25.6715 8.28125 25.0674 8.28125 24.4375C8.28125 23.8076 8.53147 23.2035 8.97687 22.7581C9.42227 22.3127 10.0264 22.0625 10.6562 22.0625H11.8438V26.8125ZM17.7812 26.8125H14.2188V22.0625H17.7812V26.8125ZM21.3438 26.8125H20.1562V22.0625H21.3438C21.9736 22.0625 22.5777 22.3127 23.0231 22.7581C23.4685 23.2035 23.7188 23.8076 23.7188 24.4375C23.7188 25.0674 23.4685 25.6715 23.0231 26.1169C22.5777 26.5623 21.9736 26.8125 21.3438 26.8125ZM22.5312 17.3125C22.179 17.3125 21.8346 17.208 21.5416 17.0123C21.2487 16.8166 21.0204 16.5384 20.8856 16.2129C20.7508 15.8874 20.7155 15.5293 20.7842 15.1837C20.853 14.8382 21.0226 14.5208 21.2717 14.2717C21.5208 14.0226 21.8382 13.853 22.1837 13.7842C22.5293 13.7155 22.8874 13.7508 23.2129 13.8856C23.5384 14.0204 23.8166 14.2487 24.0123 14.5416C24.208 14.8346 24.3125 15.179 24.3125 15.5312C24.3125 16.0037 24.1248 16.4567 23.7908 16.7908C23.4567 17.1248 23.0037 17.3125 22.5312 17.3125Z" fill="#D53636" fill-opacity="0.8"/>
</svg>
