<svg width="26" height="34" viewBox="0 0 26 34" fill="none" xmlns="http://www.w3.org/2000/svg">
<path d="M22.4999 11.5833H20.9166V8.41667C20.9166 4.04667 17.3699 0.5 12.9999 0.5C8.62992 0.5 5.08325 4.04667 5.08325 8.41667V11.5833H3.49992C1.75825 11.5833 0.333252 13.0083 0.333252 14.75V30.5833C0.333252 32.325 1.75825 33.75 3.49992 33.75H22.4999C24.2416 33.75 25.6666 32.325 25.6666 30.5833V14.75C25.6666 13.0083 24.2416 11.5833 22.4999 11.5833ZM12.9999 25.8333C11.2583 25.8333 9.83325 24.4083 9.83325 22.6667C9.83325 20.925 11.2583 19.5 12.9999 19.5C14.7416 19.5 16.1666 20.925 16.1666 22.6667C16.1666 24.4083 14.7416 25.8333 12.9999 25.8333ZM17.9083 11.5833H8.09158V8.41667C8.09158 5.70917 10.2924 3.50833 12.9999 3.50833C15.7074 3.50833 17.9083 5.70917 17.9083 8.41667V11.5833Z" fill="#D53636" fill-opacity="0.8"/>
</svg>
