<svg width="34" height="35" viewBox="0 0 34 35" fill="none" xmlns="http://www.w3.org/2000/svg">
<path d="M0.375 24.625C0.375 23.9951 0.625222 23.391 1.07062 22.9456C1.51602 22.5002 2.12011 22.25 2.75 22.25H7.5C8.12989 22.25 8.73398 22.5002 9.17938 22.9456C9.62478 23.391 9.875 23.9951 9.875 24.625V31.75C9.875 32.3799 9.62478 32.984 9.17938 33.4294C8.73398 33.8748 8.12989 34.125 7.5 34.125H2.75C2.12011 34.125 1.51602 33.8748 1.07062 33.4294C0.625222 32.984 0.375 32.3799 0.375 31.75V24.625ZM12.25 15.125C12.25 14.4951 12.5002 13.891 12.9456 13.4456C13.391 13.0002 13.9951 12.75 14.625 12.75H19.375C20.0049 12.75 20.609 13.0002 21.0544 13.4456C21.4998 13.891 21.75 14.4951 21.75 15.125V31.75C21.75 32.3799 21.4998 32.984 21.0544 33.4294C20.609 33.8748 20.0049 34.125 19.375 34.125H14.625C13.9951 34.125 13.391 33.8748 12.9456 33.4294C12.5002 32.984 12.25 32.3799 12.25 31.75V15.125ZM24.125 3.25C24.125 2.62011 24.3752 2.01602 24.8206 1.57062C25.266 1.12522 25.8701 0.875 26.5 0.875H31.25C31.8799 0.875 32.484 1.12522 32.9294 1.57062C33.3748 2.01602 33.625 2.62011 33.625 3.25V31.75C33.625 32.3799 33.3748 32.984 32.9294 33.4294C32.484 33.8748 31.8799 34.125 31.25 34.125H26.5C25.8701 34.125 25.266 33.8748 24.8206 33.4294C24.3752 32.984 24.125 32.3799 24.125 31.75V3.25Z" fill="url(#paint0_linear_512_5577)"/>
<defs>
<linearGradient id="paint0_linear_512_5577" x1="0.375" y1="17.826" x2="31.4292" y2="17.826" gradientUnits="userSpaceOnUse">
<stop stop-color="#27C58B"/>
<stop offset="1" stop-color="#029E81"/>
</linearGradient>
</defs>
</svg>
