<svg width="32" height="33" viewBox="0 0 32 33" fill="none" xmlns="http://www.w3.org/2000/svg">
<path d="M16.0001 0.666626C16.42 0.666626 16.8227 0.833441 17.1197 1.13037C17.4166 1.42731 17.5834 1.83003 17.5834 2.24996V2.33704C20.7958 2.69711 23.7904 4.13819 26.0761 6.4239C28.3618 8.70962 29.8029 11.7043 30.163 14.9166H30.2501C30.67 14.9166 31.0727 15.0834 31.3697 15.3804C31.6666 15.6773 31.8334 16.08 31.8334 16.5C31.8334 16.9199 31.6666 17.3226 31.3697 17.6195C31.0727 17.9165 30.67 18.0833 30.2501 18.0833H30.163C29.8029 21.2957 28.3618 24.2903 26.0761 26.576C23.7904 28.8617 20.7958 30.3028 17.5834 30.6629V30.75C17.5834 31.1699 17.4166 31.5726 17.1197 31.8695C16.8227 32.1665 16.42 32.3333 16.0001 32.3333C15.5802 32.3333 15.1774 32.1665 14.8805 31.8695C14.5836 31.5726 14.4167 31.1699 14.4167 30.75V30.6629C11.2044 30.3028 8.20974 28.8617 5.92403 26.576C3.63831 24.2903 2.19723 21.2957 1.83716 18.0833H1.75008C1.33016 18.0833 0.927428 17.9165 0.630496 17.6195C0.333563 17.3226 0.166748 16.9199 0.166748 16.5C0.166748 16.08 0.333563 15.6773 0.630496 15.3804C0.927428 15.0834 1.33016 14.9166 1.75008 14.9166H1.83716C2.19723 11.7043 3.63831 8.70962 5.92403 6.4239C8.20974 4.13819 11.2044 2.69711 14.4167 2.33704V2.24996C14.4167 1.83003 14.5836 1.42731 14.8805 1.13037C15.1774 0.833441 15.5802 0.666626 16.0001 0.666626ZM17.5834 5.52746V6.99996C17.583 7.40352 17.4284 7.79168 17.1514 8.08513C16.8744 8.37857 16.4957 8.55516 16.0929 8.57881C15.69 8.60246 15.2933 8.47139 14.9838 8.21237C14.6744 7.95336 14.4755 7.58594 14.4278 7.18521L14.4167 6.99996V5.52746C12.1174 5.86047 9.98067 6.90703 8.308 8.51948C6.63532 10.1319 5.51115 12.2289 5.09408 14.5145L5.02916 14.9166H6.50008C6.90364 14.9171 7.2918 15.0716 7.58525 15.3486C7.8787 15.6257 8.05529 16.0043 8.07894 16.4072C8.10259 16.81 7.97151 17.2067 7.71249 17.5162C7.45348 17.8257 7.08607 18.0245 6.68533 18.0722L6.50008 18.0833H5.02758C5.36059 20.3826 6.40715 22.5194 8.0196 24.192C9.63205 25.8647 11.729 26.9889 14.0146 27.406L14.4167 27.4709V26C14.4172 25.5964 14.5717 25.2082 14.8488 24.9148C15.1258 24.6213 15.5044 24.4448 15.9073 24.4211C16.3102 24.3975 16.7068 24.5285 17.0163 24.7875C17.3258 25.0466 17.5247 25.414 17.5723 25.8147L17.5834 26V27.4725C19.8828 27.1394 22.0195 26.0929 23.6922 24.4804C25.3648 22.868 26.489 20.771 26.9061 18.4855L26.971 18.0833H25.5001C25.0965 18.0828 24.7084 17.9283 24.4149 17.6513C24.1215 17.3742 23.9449 16.9956 23.9212 16.5928C23.8976 16.1899 24.0286 15.7932 24.2877 15.4837C24.5467 15.1743 24.9141 14.9754 25.3148 14.9277L25.5001 14.9166H26.9726C26.6396 12.6173 25.593 10.4805 23.9806 8.80787C22.3681 7.1352 20.2712 6.01102 17.9856 5.59396L17.5834 5.52746ZM16.0001 14.125C16.63 14.125 17.2341 14.3752 17.6795 14.8206C18.1249 15.266 18.3751 15.8701 18.3751 16.5C18.3751 17.1298 18.1249 17.7339 17.6795 18.1793C17.2341 18.6247 16.63 18.875 16.0001 18.875C15.3702 18.875 14.7661 18.6247 14.3207 18.1793C13.8753 17.7339 13.6251 17.1298 13.6251 16.5C13.6251 15.8701 13.8753 15.266 14.3207 14.8206C14.7661 14.3752 15.3702 14.125 16.0001 14.125Z" fill="url(#paint0_linear_512_5683)"/>
<defs>
<linearGradient id="paint0_linear_512_5683" x1="0.166748" y1="16.8104" x2="29.7422" y2="16.8104" gradientUnits="userSpaceOnUse">
<stop stop-color="#27C58B"/>
<stop offset="1" stop-color="#029E81"/>
</linearGradient>
</defs>
</svg>
