<svg width="38" height="31" viewBox="0 0 38 31" fill="none" xmlns="http://www.w3.org/2000/svg">
<path d="M10.6423 10.9282L5.16495 15.5001L10.6423 20.072C10.8275 20.2202 10.9813 20.4039 11.0945 20.6123C11.2078 20.8207 11.2783 21.0497 11.3019 21.2858C11.3254 21.5218 11.3016 21.7602 11.2318 21.9869C11.162 22.2136 11.0477 22.4241 10.8954 22.606C10.7431 22.7879 10.5561 22.9376 10.3452 23.0463C10.1343 23.1549 9.90386 23.2203 9.66735 23.2387C9.43084 23.2571 9.19305 23.228 8.96792 23.1532C8.74279 23.0784 8.53487 22.9594 8.35636 22.8032L1.23136 16.8657C1.03172 16.6985 0.871166 16.4896 0.761004 16.2537C0.650842 16.0177 0.59375 15.7605 0.59375 15.5001C0.59375 15.2397 0.650842 14.9825 0.761004 14.7465C0.871166 14.5106 1.03172 14.3016 1.23136 14.1345L8.35636 8.19695C8.71992 7.90606 9.18293 7.76908 9.64624 7.81535C10.1096 7.86163 10.5363 8.08748 10.8352 8.44454C11.134 8.8016 11.2812 9.26148 11.2451 9.7257C11.2091 10.1899 10.9927 10.6216 10.6423 10.9282ZM36.7673 14.1345L29.6423 8.19695C29.2787 7.90606 28.8157 7.76908 28.3524 7.81535C27.8891 7.86163 27.4623 8.08748 27.1635 8.44454C26.8646 8.8016 26.7175 9.26148 26.7535 9.7257C26.7896 10.1899 27.006 10.6216 27.3564 10.9282L32.8485 15.5001L27.3564 20.072C27.1754 20.2209 27.0259 20.4044 26.9165 20.6118C26.8072 20.8191 26.7402 21.0461 26.7195 21.2796C26.6987 21.5131 26.7247 21.7484 26.7958 21.9717C26.8669 22.1951 26.9818 22.402 27.1337 22.5805C27.3021 22.7788 27.5113 22.9384 27.7469 23.0485C27.9826 23.1587 28.2392 23.2168 28.4993 23.2188C28.9173 23.2187 29.3219 23.0715 29.6423 22.8032L36.7673 16.8657C36.9669 16.6985 37.1275 16.4896 37.2376 16.2537C37.3478 16.0177 37.4049 15.7605 37.4049 15.5001C37.4049 15.2397 37.3478 14.9825 37.2376 14.7465C37.1275 14.5106 36.9669 14.3016 36.7673 14.1345ZM24.3579 0.760236C23.9129 0.602047 23.4235 0.625508 22.9956 0.825539C22.5678 1.02557 22.236 1.38607 22.072 1.82899L12.572 27.954C12.4138 28.399 12.4373 28.8884 12.6373 29.3163C12.8373 29.7441 13.1978 30.0759 13.6407 30.2399C13.8358 30.3103 14.0419 30.3455 14.2493 30.3438C14.6155 30.3445 14.9731 30.2323 15.2732 30.0224C15.5734 29.8126 15.8015 29.5154 15.9267 29.1712L25.4267 3.04617C25.5849 2.60116 25.5614 2.11174 25.3614 1.6839C25.1613 1.25605 24.8008 0.924216 24.3579 0.760236Z" fill="url(#paint0_linear_512_5545)"/>
<defs>
<linearGradient id="paint0_linear_512_5545" x1="0.59375" y1="15.7912" x2="34.974" y2="15.7912" gradientUnits="userSpaceOnUse">
<stop stop-color="#409DEC"/>
<stop offset="1" stop-color="#024CBB"/>
</linearGradient>
</defs>
</svg>
