<svg width="36" height="33" viewBox="0 0 36 33" fill="none" xmlns="http://www.w3.org/2000/svg">
<path d="M17.9999 0.666626C18.8398 0.666626 19.6452 1.00026 20.2391 1.59412C20.833 2.18799 21.1666 2.99344 21.1666 3.83329C21.1666 5.00496 20.5333 6.03413 19.5833 6.57246V8.58329H21.1666C24.1061 8.58329 26.9252 9.751 29.0037 11.8295C31.0822 13.9081 32.2499 16.7271 32.2499 19.6666H33.8333C34.2532 19.6666 34.6559 19.8334 34.9528 20.1304C35.2498 20.4273 35.4166 20.83 35.4166 21.25V26C35.4166 26.4199 35.2498 26.8226 34.9528 27.1195C34.6559 27.4165 34.2532 27.5833 33.8333 27.5833H32.2499V29.1666C32.2499 30.0065 31.9163 30.8119 31.3224 31.4058C30.7286 31.9997 29.9231 32.3333 29.0833 32.3333H6.91659C6.07673 32.3333 5.27128 31.9997 4.67741 31.4058C4.08355 30.8119 3.74992 30.0065 3.74992 29.1666V27.5833H2.16659C1.74666 27.5833 1.34393 27.4165 1.047 27.1195C0.750067 26.8226 0.583252 26.4199 0.583252 26V21.25C0.583252 20.83 0.750067 20.4273 1.047 20.1304C1.34393 19.8334 1.74666 19.6666 2.16659 19.6666H3.74992C3.74992 16.7271 4.91762 13.9081 6.99615 11.8295C9.07468 9.751 11.8938 8.58329 14.8333 8.58329H16.4166V6.57246C15.4666 6.03413 14.8333 5.00496 14.8333 3.83329C14.8333 2.99344 15.1669 2.18799 15.7607 1.59412C16.3546 1.00026 17.1601 0.666626 17.9999 0.666626ZM10.8749 18.0833C9.8251 18.0833 8.81829 18.5003 8.07596 19.2427C7.33362 19.985 6.91659 20.9918 6.91659 22.0416C6.91659 23.0914 7.33362 24.0983 8.07596 24.8406C8.81829 25.5829 9.8251 26 10.8749 26C11.9247 26 12.9316 25.5829 13.6739 24.8406C14.4162 24.0983 14.8333 23.0914 14.8333 22.0416C14.8333 20.9918 14.4162 19.985 13.6739 19.2427C12.9316 18.5003 11.9247 18.0833 10.8749 18.0833ZM25.1249 18.0833C24.0751 18.0833 23.0683 18.5003 22.326 19.2427C21.5836 19.985 21.1666 20.9918 21.1666 22.0416C21.1666 23.0914 21.5836 24.0983 22.326 24.8406C23.0683 25.5829 24.0751 26 25.1249 26C26.1747 26 27.1816 25.5829 27.9239 24.8406C28.6662 24.0983 29.0833 23.0914 29.0833 22.0416C29.0833 20.9918 28.6662 19.985 27.9239 19.2427C27.1816 18.5003 26.1747 18.0833 25.1249 18.0833Z" fill="url(#paint0_linear_512_5569)"/>
<defs>
<linearGradient id="paint0_linear_512_5569" x1="0.583252" y1="16.8104" x2="33.1163" y2="16.8104" gradientUnits="userSpaceOnUse">
<stop stop-color="#409DEC"/>
<stop offset="1" stop-color="#024CBB"/>
</linearGradient>
</defs>
</svg>
