<svg width="32" height="29" viewBox="0 0 32 29" fill="none" xmlns="http://www.w3.org/2000/svg">
<path d="M1.41706 18.9017L1.27456 18.7592C1.12778 18.6127 1.01133 18.4387 0.931875 18.2472C0.852421 18.0556 0.811523 17.8503 0.811523 17.6429C0.811523 17.4356 0.852421 17.2302 0.931875 17.0387C1.01133 16.8472 1.12778 16.6732 1.27456 16.5267L10.9171 6.86836C11.0635 6.72158 11.2375 6.60513 11.4291 6.52567C11.6206 6.44622 11.8259 6.40532 12.0333 6.40532C12.2407 6.40532 12.446 6.44622 12.6375 6.52567C12.8291 6.60513 13.0031 6.72158 13.1496 6.86836L18.3587 12.0775L28.4762 0.709193C28.6198 0.549336 28.7944 0.420374 28.9894 0.330159C29.1844 0.239944 29.3958 0.190365 29.6105 0.18444C29.8253 0.178515 30.0391 0.216368 30.2388 0.295695C30.4384 0.375021 30.6199 0.494161 30.7721 0.64586C31.3579 1.24753 31.3896 2.19753 30.8354 2.81503L19.4829 15.5925C19.3403 15.754 19.1661 15.8844 18.971 15.9757C18.7759 16.067 18.5641 16.1172 18.3487 16.1231C18.1334 16.129 17.9192 16.0906 17.7193 16.0102C17.5195 15.9299 17.3383 15.8092 17.1871 15.6559L12.0412 10.51L3.64956 18.9017C3.50308 19.0485 3.32909 19.1649 3.13755 19.2444C2.94601 19.3238 2.74068 19.3647 2.53331 19.3647C2.32594 19.3647 2.12061 19.3238 1.92907 19.2444C1.73753 19.1649 1.56354 19.0485 1.41706 18.9017ZM3.64956 28.4017L12.0412 20.01L17.1871 25.1559C17.8362 25.805 18.8812 25.7734 19.4829 25.0925L30.8354 12.315C31.3896 11.6975 31.3579 10.7475 30.7721 10.1459C30.6199 9.99416 30.4384 9.87502 30.2388 9.79569C30.0391 9.71637 29.8253 9.67852 29.6105 9.68444C29.3958 9.69037 29.1844 9.73995 28.9894 9.83016C28.7944 9.92037 28.6198 10.0493 28.4762 10.2092L18.3587 21.5775L13.1496 16.3684C13.0031 16.2216 12.8291 16.1051 12.6375 16.0257C12.446 15.9462 12.2407 15.9053 12.0333 15.9053C11.8259 15.9053 11.6206 15.9462 11.4291 16.0257C11.2375 16.1051 11.0635 16.2216 10.9171 16.3684L1.27456 26.0267C1.12778 26.1732 1.01133 26.3472 0.931875 26.5387C0.852421 26.7302 0.811523 26.9356 0.811523 27.1429C0.811523 27.3503 0.852421 27.5556 0.931875 27.7472C1.01133 27.9387 1.12778 28.1127 1.27456 28.2592L1.41706 28.4017C2.03456 29.0192 3.04789 29.0192 3.64956 28.4017Z" fill="url(#paint0_linear_512_5557)"/>
<defs>
<linearGradient id="paint0_linear_512_5557" x1="0.811524" y1="14.8055" x2="29.2231" y2="14.8055" gradientUnits="userSpaceOnUse">
<stop stop-color="#27C58B"/>
<stop offset="1" stop-color="#029E81"/>
</linearGradient>
</defs>
</svg>
