<svg width="60" height="60" viewBox="0 0 60 60" fill="none" xmlns="http://www.w3.org/2000/svg">
<path fill-rule="evenodd" clip-rule="evenodd" d="M3.75 30C3.75 36.9619 6.51562 43.6387 11.4384 48.5616C16.3613 53.4844 23.0381 56.25 30 56.25C36.9619 56.25 43.6387 53.4844 48.5616 48.5616C53.4844 43.6387 56.25 36.9619 56.25 30C56.25 23.0381 53.4844 16.3613 48.5616 11.4384C43.6387 6.51562 36.9619 3.75 30 3.75C23.0381 3.75 16.3613 6.51562 11.4384 11.4384C6.51562 16.3613 3.75 23.0381 3.75 30ZM51.75 30C51.75 35.7685 49.4585 41.3007 45.3796 45.3796C41.3007 49.4585 35.7685 51.75 30 51.75C24.2315 51.75 18.6993 49.4585 14.6204 45.3796C10.5415 41.3007 8.25 35.7685 8.25 30C8.25 24.2315 10.5415 18.6993 14.6204 14.6204C18.6993 10.5415 24.2315 8.25 30 8.25C35.7685 8.25 41.3007 10.5415 45.3796 14.6204C49.4585 18.6993 51.75 24.2315 51.75 30Z" fill="#25C28B"/>
<path fill-rule="evenodd" clip-rule="evenodd" d="M18.75 30C18.75 43.566 23.223 54.75 30 54.75C36.777 54.75 41.25 43.566 41.25 30C41.25 16.434 36.777 5.25 30 5.25C23.223 5.25 18.75 16.434 18.75 30ZM36.75 30C36.75 41.286 33.165 50.25 30 50.25C26.835 50.25 23.25 41.286 23.25 30C23.25 18.714 26.835 9.75 30 9.75C33.165 9.75 36.75 18.714 36.75 30Z" fill="#25C28B"/>
<path d="M10.806 16.4009L13.824 13.0649C14.124 13.3349 14.451 13.6049 14.799 13.8659C18.612 16.7219 24.699 18.4859 31.344 18.4859C37.017 18.4859 42.3 17.2049 46.137 15.0119C47.061 14.4839 47.883 13.9109 48.594 13.3019L51.516 16.7249C50.5398 17.553 49.4871 18.2863 48.372 18.9149C43.824 21.5189 37.77 22.9829 31.344 22.9829C23.778 22.9829 16.749 20.9489 12.099 17.4659C11.6519 17.131 11.2204 16.7756 10.806 16.4009ZM10.806 43.6469L13.824 46.9829C14.124 46.7099 14.451 46.4429 14.799 46.1819C18.612 43.3259 24.699 41.5619 31.344 41.5619C37.017 41.5619 42.3 42.8429 46.137 45.0359C47.061 45.5639 47.883 46.1369 48.594 46.7459L51.516 43.3229C50.5386 42.4965 49.486 41.7633 48.372 41.1329C43.824 38.5289 37.77 37.0649 31.344 37.0649C23.778 37.0649 16.749 39.0989 12.099 42.5819C11.6519 42.9169 11.2204 43.2723 10.806 43.6469ZM5.25 32.2499V27.7499H54.75V32.2499H5.25Z" fill="#25C28B"/>
</svg>
