<svg width="49" height="46" viewBox="0 0 49 46" fill="none" xmlns="http://www.w3.org/2000/svg">
<path d="M48.75 5.74219V31.9922C48.75 33.484 48.1574 34.9148 47.1025 35.9697C46.0476 37.0246 44.6168 37.6172 43.125 37.6172H5.625C4.13316 37.6172 2.70242 37.0246 1.64752 35.9697C0.592632 34.9148 0 33.484 0 31.9922V5.74219C0.00616961 4.25224 0.600783 2.82509 1.65434 1.77153C2.7079 0.71797 4.13506 0.123357 5.625 0.117188H43.125C44.6149 0.123357 46.0421 0.71797 47.0957 1.77153C48.1492 2.82509 48.7438 4.25224 48.75 5.74219ZM31.875 41.3672H16.875C16.3777 41.3672 15.9008 41.5647 15.5492 41.9164C15.1975 42.268 15 42.7449 15 43.2422C15 43.7395 15.1975 44.2164 15.5492 44.568C15.9008 44.9196 16.3777 45.1172 16.875 45.1172H31.875C32.3723 45.1172 32.8492 44.9196 33.2008 44.568C33.5525 44.2164 33.75 43.7395 33.75 43.2422C33.75 42.7449 33.5525 42.268 33.2008 41.9164C32.8492 41.5647 32.3723 41.3672 31.875 41.3672Z" fill="#D53636" fill-opacity="0.8"/>
</svg>
