<svg width="130" height="42" viewBox="0 0 130 42" fill="none" xmlns="http://www.w3.org/2000/svg">
<g clip-path="url(#clip0_501_6981)">
<path d="M21.1957 42C32.9013 42 42.3913 32.5976 42.3913 21C42.3913 9.4024 32.9013 0 21.1957 0C9.49 0 0 9.4024 0 21C0 32.5976 9.49 42 21.1957 42Z" fill="#2972FF"/>
<path d="M33.6121 28.9661C32.777 26.6813 31.624 24.7073 30.3452 22.8803C30.2703 22.7445 30.2067 22.6087 30.1219 22.4729C30.0512 22.1999 30.1742 21.9157 30.2505 21.6539C30.3678 21.3543 30.4907 21.0701 30.5854 20.7522C30.7648 20.3238 30.9061 19.88 31.0121 19.4278C31.3258 18.2042 31.4643 16.9429 31.4247 15.6815V14.448C31.4247 13.986 31.4247 13.384 31.3767 12.9486C31.3187 11.4954 31.1223 10.2228 30.6461 9.19525C30.6259 9.13708 30.6003 9.08086 30.5698 9.02725V9.01325C30.4335 8.68391 30.2788 8.36234 30.1063 8.05005V8.04165C29.6128 7.08009 29.0159 6.17417 28.3259 5.33965C27.6547 4.52065 26.9044 3.77165 25.9308 3.26345C25.4277 2.97639 24.8607 2.81718 24.2804 2.80005H24.0175C23.7663 2.81196 23.5184 2.8625 23.2828 2.94985C23.1614 3.00021 23.05 3.07129 22.9535 3.15985C22.7724 3.37838 22.6534 3.64079 22.6087 3.92005C22.5854 4.06144 22.5854 4.20566 22.6087 4.34705C22.6709 5.26265 23.198 5.85625 23.5922 6.47785C23.9978 7.14005 24.3581 7.82745 24.669 8.53865V8.55545C24.7226 8.66885 24.7622 8.79345 24.8145 8.90685V8.92365C24.8498 8.99365 24.8682 9.08185 24.9092 9.14625C25.3755 10.4118 25.6623 11.7348 25.7641 13.0788C25.7711 13.1964 25.7754 13.3406 25.7782 13.454C25.7799 13.52 25.7648 13.5853 25.7345 13.644C25.7041 13.7027 25.6594 13.7529 25.6044 13.7901C25.5719 13.8125 25.538 13.832 25.5055 13.8516C24.4782 14.1778 20.0568 14.5069 19.1496 14.4733C18.6155 14.4551 18.1181 14.3374 17.7083 13.9804C17.1357 13.4698 16.6399 12.8804 16.2359 12.2304C16.0593 11.8692 15.8544 11.4996 15.6848 11.1398C15.3834 10.4101 15.1529 9.65344 14.9967 8.88025C14.8771 8.07663 14.7168 7.27948 14.5162 6.49185C14.2958 5.70925 14.0344 5.00225 13.4847 4.63405C12.8093 4.18605 12.0208 4.55985 11.6647 5.05125C11.4869 5.31412 11.3363 5.59414 11.2154 5.88705C10.9014 6.67048 10.7154 7.49845 10.6643 8.33985C10.6297 8.69345 10.6137 9.0486 10.6162 9.40385C10.6671 10.3516 10.8282 11.2896 11.0981 12.201C11.2747 12.7442 11.4796 13.279 11.7113 13.8012C11.7566 13.9076 11.806 14.0113 11.8611 14.1135C12.384 15.2125 13.0509 16.2372 13.845 17.1626C12.6962 18.0068 11.5757 18.8818 11.0076 20.2986C10.9087 20.6654 10.8522 21.0435 10.8395 21.4243C10.5187 21.8751 10.0496 22.2418 9.68928 22.673C9.25689 23.1994 8.58145 23.7651 8.1533 24.4595C7.92197 24.7903 7.70968 25.1339 7.51743 25.4884C7.32808 25.8706 7.20232 26.3397 7.42558 26.7933C7.56265 27.0789 7.79015 27.2133 7.90743 27.4163C8.07649 27.6954 8.15146 28.0206 8.12149 28.3448C8.09151 28.669 7.95814 28.9754 7.74069 29.2195C7.55276 29.4239 7.31537 29.5933 7.1896 29.8803C6.72471 30.8337 6.83634 32.6243 8.13776 32.5991C8.37374 32.5781 8.60547 32.5249 8.82591 32.4381C9.06189 33.8395 9.94363 34.6095 11.5163 34.6977C12.1862 34.7184 12.8553 34.6372 13.5003 34.4569C13.65 34.4009 13.8069 34.3645 13.9666 34.3449C14.1163 34.3911 14.2633 34.4471 14.4088 34.5101C15.4333 34.8559 16.5454 35.1821 17.6165 35.4481C18.9588 35.7981 20.3337 36.0151 21.7185 36.0949C22.0294 36.1131 22.3403 36.1131 22.6511 36.0949C23.0157 36.0949 23.3774 36.0445 23.7279 35.9465C23.5131 35.8793 23.3986 35.8625 23.1768 35.7841C21.9111 35.4142 20.6659 34.9786 19.4463 34.4793C18.0926 33.9333 16.8322 33.2809 15.7908 32.3989C15.6886 32.2806 15.5766 32.171 15.4559 32.0713C15.2129 31.7535 14.9585 31.4581 14.8455 31.0591C14.7805 30.8308 14.8144 30.7707 14.9359 30.5607C15.0588 30.3507 15.3132 29.9082 15.1592 29.5666C15.0051 29.2278 14.382 29.2699 13.951 29.3497C13.8182 29.3889 13.6825 29.4196 13.5469 29.4406C13.359 29.4317 13.1723 29.4069 12.9887 29.3665C12.1635 29.2293 11.3001 29.0445 10.5965 28.7057C10.3209 28.5769 9.9945 28.4075 9.96624 28.1177C9.9295 27.7481 10.499 27.3001 10.6219 27.1643C11.238 26.6757 11.9487 26.1605 12.9605 26.0303C13.2897 25.9911 13.6486 26.0303 13.9976 25.9183C13.5116 25.9561 13.1795 25.7825 12.8305 25.6467C12.1507 25.3974 11.4374 25.2492 10.7137 25.207C10.2474 25.1902 9.78113 25.221 9.32189 25.298H9.11417C8.76515 25.2784 8.96015 24.8109 9.06047 24.6163C9.32471 24.1039 9.78537 23.6334 10.0934 23.2708C10.4029 22.9796 10.6954 22.6758 11.0232 22.407C11.4788 22.0322 11.9668 21.6977 12.4815 21.4075C12.5535 21.0281 12.6651 20.6571 12.8163 20.3015C13.65 18.4367 15.0179 17.1136 16.8237 16.219C17.0823 16.1154 17.3522 16.0048 17.6037 15.8844C18.0474 15.7486 18.4869 15.5946 18.9376 15.4756C19.7345 15.2999 20.5437 15.1843 21.3582 15.1298C21.9093 15.1186 22.2371 15.0976 22.7147 15.1298C23.3379 15.1928 23.9582 15.2978 24.5686 15.442C24.823 15.5176 25.3684 15.694 25.7386 15.8508C25.9365 15.932 26.2332 16.177 26.4451 16.142C26.5158 16.1392 26.585 16.121 26.6472 16.086C26.8112 16.0189 26.9623 15.9242 27.0937 15.806C27.3085 15.5904 27.4569 15.3188 27.5205 15.022C27.5996 14.6412 27.6321 14.2521 27.6151 13.8629C27.5219 12.1605 26.9016 10.9788 26.3363 9.74685C26.2982 9.69085 25.9223 8.88445 25.8715 8.78085C25.2073 7.42565 24.4372 6.12085 23.571 4.88045C23.4315 4.70804 23.3186 4.516 23.2361 4.31065C23.1913 4.19498 23.1776 4.06975 23.1965 3.94726C23.2153 3.82478 23.266 3.70925 23.3435 3.61205C23.4665 3.46505 23.7561 3.48185 23.7745 3.48185C24.0105 3.54345 24.2408 3.62465 24.4626 3.72405C26.6416 4.74745 27.813 6.76625 28.5605 9.20505C28.5605 9.20505 29.072 11.3694 29.1723 12.4754V12.8366C29.171 13.0558 29.1338 13.2733 29.0621 13.4806C29.0065 13.6318 28.9461 13.7812 28.8812 13.9287C28.829 14.0463 28.7541 14.1526 28.7103 14.2758C28.3923 15.078 28.0772 16.0678 28.21 17.2018C28.2708 17.4538 28.5124 17.6624 28.6919 17.8822C28.853 18.0754 28.9915 18.2855 29.1045 18.5081C29.2034 18.8133 29.2599 19.1297 29.2755 19.4489C29.2811 19.5609 29.2783 19.6728 29.267 19.7848C29.2274 20.188 29.154 20.5856 29.0522 20.9762C28.8374 21.5782 28.6184 22.0388 27.9599 22.3202C27.9322 22.331 27.9039 22.3404 27.8751 22.3483L27.7861 22.3735C27.9359 22.5415 28.4065 23.1827 28.422 23.2065C29.6415 24.9789 30.7761 26.8367 30.9768 29.6213V30.2862C30.868 32.5865 29.9933 34.1335 28.8586 35.4159C29.3843 35.2241 29.8732 34.895 30.5698 34.9776C31.5773 35.0868 31.8091 36.2489 31.8515 37.3437V37.6951C31.8458 38.0755 31.8208 38.4553 31.7766 38.8333C31.7525 39.0209 31.7511 39.1175 31.7313 39.2337C32.9904 38.5173 34.1722 37.6753 35.2583 36.7207C34.9813 33.8619 34.4444 31.2481 33.6121 28.9675V28.9661ZM15.3838 15.5638C14.4416 14.551 13.6116 13.441 12.9082 12.2528C12.8778 12.2022 12.8495 12.1504 12.8234 12.0974C12.7332 11.9258 12.647 11.7522 12.5648 11.5766C12.2575 10.8404 12.0439 10.0692 11.929 9.28065C11.9012 8.68186 11.9752 8.08271 12.148 7.50825C12.1819 7.39065 12.2243 7.27585 12.2751 7.16385C12.4122 6.84605 12.5959 6.51565 12.8799 6.51425C13.2176 6.50865 13.4819 7.06725 13.6204 7.35985C13.8041 7.76865 13.8945 8.14105 14.033 8.52185V8.54285C14.0867 8.71085 14.1305 8.88585 14.187 9.05805V9.07205C14.2124 9.12525 14.211 9.20925 14.2393 9.25965V9.27505C14.2562 9.35205 14.2831 9.41225 14.2958 9.48505C14.7875 11.4268 15.1493 13.4961 15.4743 15.6031C15.4517 15.6577 15.3937 15.5722 15.3853 15.5638H15.3838Z" fill="white"/>
<path d="M26.8263 20.3349C25.7581 20.6891 24.6898 20.2369 23.6329 20.1501C22.7158 20.0493 21.7069 20.7661 21.3692 21.6201C22.0898 21.2449 22.6904 21.3821 23.4831 21.6005C24.7209 21.9547 26.5861 21.9225 26.8263 20.3349ZM16.6355 37.0607C16.6355 36.6211 16.7951 36.0051 17.2106 35.9029C16.4334 35.6789 15.5828 35.5319 14.7801 35.3345C14.7801 35.3345 14.8268 37.7887 14.8155 38.0491C14.8155 38.0491 14.8254 38.6413 14.7801 39.0655C14.7095 39.7137 14.6883 40.3619 14.6035 40.9639C15.5206 41.2607 16.456 41.4959 17.4056 41.6639C17.0594 40.2275 16.6637 38.8149 16.6355 37.0607Z" fill="white"/>
<path d="M58.2893 23.6422C56.6756 23.6422 55.0775 24.8742 55.0775 26.4492C55.0775 29.6706 59.5794 29.5348 62.2727 29.1918V30.6632C60.9444 31.555 59.6091 32.0002 58.2484 32.0002C52.9636 32.0002 50.5049 27.2388 50.5049 22.651C50.5049 18.465 53.2702 13.6056 58.0477 13.6056C61.9364 13.6056 65.1751 17.1014 65.1751 20.9724C65.1751 22.2016 63.3028 24.0538 62.1441 24.0538C60.8371 24.058 59.5794 23.6422 58.2893 23.6422V23.6422ZM55.5537 19.3218C55.5537 19.9042 57.1222 21.2048 57.9092 21.2048C58.8616 21.2048 60.3962 19.872 60.3962 18.9802C60.3962 17.884 59.0326 16.7206 57.9092 16.7206C56.4792 16.7262 55.5537 17.821 55.5537 19.333V19.3204V19.3218ZM73.741 31.079C71.6271 31.079 69.6813 30.3944 69.4383 27.6168C69.178 24.7696 69.0526 21.9119 69.0624 19.053C69.0624 15.9394 69.2362 11.2466 69.7449 7.99302C70.1208 7.58702 70.7679 6.99902 71.3134 6.99902L71.7571 7.16982C72.7504 9.49942 73.0203 13.3354 73.0203 15.4956C73.0203 17.9918 72.7165 20.4614 72.7165 22.9212C72.7165 26.8244 74.3528 27.6826 75.9891 27.9164C76.8751 28.0914 77.7639 28.0214 78.4478 28.0914C79.4355 28.195 79.9824 28.5716 80.0177 29.3934C80.1519 30.2516 79.0611 30.8634 77.494 31.002C76.2364 31.1448 74.6962 31.079 73.741 31.079V31.079ZM92.6164 31.0804C91.7912 31.422 89.577 31.5228 88.7913 31.5228C85.14 31.5228 82.6827 31.7608 81.5283 27.1716C81.4426 26.7668 81.4079 26.3529 81.4251 25.9396C81.4251 22.4116 83.3016 20.873 85.0722 19.9126C85.8917 19.4324 86.7438 19.088 87.3966 18.7128C87.9731 18.3698 88.2134 18.059 88.2134 17.6866C88.2134 16.8998 86.8823 16.7976 86.3029 16.5862C85.5512 16.316 84.9408 15.903 84.9408 14.9776C84.9408 13.8128 86.8823 13.439 87.7654 13.439C92.6178 13.439 93.5363 17.5172 93.5363 21.2118C93.5363 23.2376 94.0817 25.2564 94.0817 27.2766C94.0803 28.0466 93.9998 28.8166 93.8415 29.5712C93.3286 30.0514 93.3611 30.7304 92.6164 31.079V31.0804ZM85.0001 25.7324C85.0001 26.8258 85.7193 27.9206 86.6788 27.9206C88.5525 27.9206 89.8129 26.417 89.7451 24.4626C89.6787 22.7168 88.2487 22.5082 87.5619 22.5082C86.5078 22.5082 85.0015 24.534 85.0015 25.7324H85.0001ZM112.097 31.0426C111.753 31.0426 111.348 30.8368 111.006 30.7724C109.027 28.2356 109.911 25.3614 109.911 22.448C109.911 21.8362 110.045 18.9928 109.299 18.9928C106.365 18.9928 107.415 24.6754 107.415 26.389C107.415 27.3844 106.801 30.9432 105.373 30.9432C102.715 30.9432 103.426 24.6432 103.426 23.0332C103.426 22.105 103.669 18.8556 102.266 18.8556C100.936 18.8556 100.558 21.1516 100.558 22.1764C100.558 23.7192 100.902 25.2592 100.902 26.8328C100.902 28.1712 100.353 31.0468 98.5809 31.0468C97.5889 31.0468 96.8428 27.7932 96.6987 24.198C96.563 20.8772 96.6634 17.3128 96.6634 16.3552C96.6634 14.6752 97.8927 14.2314 99.0839 14.2314C101.711 14.2314 104.304 13.5804 106.932 13.5804C113.24 13.5804 114.027 18.1346 114.027 23.134C114.027 23.8214 114.126 25.6722 113.993 27.3844C113.835 29.3654 113.185 31.0426 112.095 31.0426H112.097ZM127.824 31.0804C127.001 31.422 124.786 31.5228 124.002 31.5228C120.352 31.5228 117.897 31.7608 116.738 27.1716C116.653 26.7668 116.618 26.3529 116.635 25.9396C116.635 22.4116 118.517 20.873 120.284 19.9126C121.101 19.4324 121.957 19.088 122.605 18.7128C123.188 18.3698 123.422 18.059 123.422 17.6866C123.422 16.8998 122.091 16.7976 121.515 16.5862C120.761 16.316 120.15 15.903 120.15 14.9776C120.15 13.8128 122.091 13.439 122.974 13.439C127.815 13.439 128.739 17.5172 128.739 21.2118C128.739 23.2376 129.285 25.2564 129.285 27.2766C129.285 28.0466 129.204 28.8166 129.046 29.5712C128.539 30.0514 128.571 30.7304 127.824 31.079V31.0804ZM120.215 25.7324C120.215 26.8258 120.93 27.9206 121.885 27.9206C123.767 27.9206 125.023 26.417 124.957 24.4626C124.89 22.7168 123.455 22.5082 122.781 22.5082C121.718 22.5082 120.215 24.534 120.215 25.7324Z" fill="#22252A"/>
</g>
<defs>
<clipPath id="clip0_501_6981">
<rect width="130" height="42" fill="white"/>
</clipPath>
</defs>
</svg>
