<svg width="113" height="40" viewBox="0 0 113 40" fill="none" xmlns="http://www.w3.org/2000/svg">
<g clip-path="url(#clip0_501_3739)">
<path d="M46.8848 5.33398C48.4991 5.33398 49.5519 6.24627 49.973 7.43925C50.4643 8.70241 50.3239 10.1761 49.0606 11.0884C50.5345 11.72 51.0258 13.0533 51.0258 14.2463C51.0258 16.141 49.7625 18.1059 47.3059 18.1059H41.4805V5.33398H46.8848ZM43.3755 10.4568H46.8146C48.85 10.4568 48.85 7.08837 46.8848 7.08837H43.3755V10.4568ZM43.3755 16.3515H47.3059C48.5693 16.3515 49.201 15.2989 49.201 14.3164C49.201 13.334 48.5693 12.2814 47.3059 12.2814H43.3755V16.3515Z" fill="#3D88C8"/>
<path d="M54.6754 7.22872C55.7984 6.03574 57.4127 5.33398 59.1674 5.33398C60.922 5.33398 62.5363 6.03574 63.6593 7.22872C64.7823 8.4217 65.4841 9.96556 65.4841 11.72C65.4841 13.4743 64.7823 15.0884 63.6593 16.2112C62.4661 17.4042 60.922 18.1059 59.1674 18.1059C57.4127 18.1059 55.7984 17.4042 54.6754 16.2112C53.5524 15.0182 52.8506 13.4743 52.8506 11.72C52.8506 9.96556 53.5524 8.4217 54.6754 7.22872ZM62.4661 8.49188C61.6239 7.64977 60.5009 7.15855 59.2375 7.15855C57.9742 7.15855 56.8512 7.64977 56.009 8.49188C55.1667 9.33399 54.6754 10.4568 54.6754 11.72C54.6754 12.9831 55.1667 14.1059 56.009 14.948C56.8512 15.7901 57.9742 16.2814 59.2375 16.2814C60.5009 16.2814 61.6239 15.7901 62.4661 14.948C63.3083 14.1059 63.7997 12.9831 63.7997 11.72C63.7295 10.4568 63.2382 9.33399 62.4661 8.49188Z" fill="#3D88C8"/>
<path d="M71.1688 18.1761V7.08837H67.3086V5.33398H76.9241V7.08837H72.9937V18.1761H71.1688Z" fill="#3D88C8"/>
<path d="M43.4459 35.2984H41.6211V22.4563H49.2714V24.2809H43.4459V28.1405H48.5695V29.8949H43.4459V35.2984Z" fill="#111111"/>
<path d="M58.6062 32.0701H53.4124L52.1491 35.2982H50.1838L55.3074 22.4561H56.641L61.7646 35.2982H59.7994L58.6062 32.0701ZM54.1143 30.3157H57.9745L56.0093 25.2631L54.1143 30.3157Z" fill="#111111"/>
<path d="M76.6443 35.2983H74.6791L73.3456 34.1053C70.5381 35.9299 66.8183 35.579 64.853 33.4036C63.7301 32.2106 62.958 30.6667 62.958 28.9123C62.958 27.1579 63.6599 25.5439 64.853 24.4211C65.976 23.2281 67.5903 22.5264 69.345 22.5264C71.0996 22.5264 72.7139 23.2281 73.8369 24.4211C74.9599 25.6141 75.7319 27.1579 75.7319 28.9123C75.7319 30.386 75.2406 31.7193 74.3984 32.8422L76.5742 34.9474V35.2983H76.6443ZM68.7835 29.7544H70.9592L73.0648 31.7194C73.6263 30.9474 73.9071 29.965 73.9071 28.9123C73.9071 27.6492 73.3456 26.5264 72.5735 25.6843C71.7313 24.8422 70.6083 24.3509 69.345 24.3509C68.0816 24.3509 66.9586 24.8422 66.1164 25.6843C65.3443 26.5264 64.7829 27.6492 64.7829 28.9123C64.7829 30.1755 65.3443 31.3685 66.1164 32.1404C67.6605 33.6843 69.9766 33.965 71.8717 32.8422L68.7133 30.0351V29.7544H68.7835ZM68.7835 30.0351V29.7544V30.0351Z" fill="#111111"/>
<path d="M81.4169 35.2982V24.2104H77.5566V22.4561H87.1722V24.2104H83.3119V35.2982H81.4169Z" fill="#111111"/>
<path d="M90.5407 24.3508C91.6636 23.1578 93.2779 22.4561 95.0326 22.4561C96.7872 22.4561 98.4015 23.1578 99.5245 24.3508C100.647 25.5438 101.349 27.0876 101.349 28.842C101.349 30.5964 100.647 32.2104 99.5245 33.3332C98.3313 34.5262 96.7872 35.228 95.0326 35.228C93.2779 35.228 91.6636 34.5262 90.5407 33.3332C89.4177 32.1403 88.7158 30.5964 88.7158 28.842C88.7158 27.1578 89.4177 25.5438 90.5407 24.3508ZM98.2612 25.6841C97.4189 24.842 96.2959 24.3508 95.0326 24.3508C93.7692 24.3508 92.6463 24.842 91.804 25.6841C90.9618 26.5262 90.4705 27.649 90.4705 28.9122C90.4705 30.1754 90.9618 31.2982 91.804 32.1403C92.6463 32.9824 93.7692 33.4736 95.0326 33.4736C96.2959 33.4736 97.4189 32.9824 98.2612 32.1403C99.1034 31.2982 99.5947 30.1754 99.5947 28.9122C99.5947 27.649 99.1034 26.4561 98.2612 25.6841Z" fill="#111111"/>
<path d="M106.052 28.7718H108.228C109.772 28.7718 110.544 27.649 110.544 26.5262C110.544 25.4034 109.772 24.2806 108.228 24.2806H105.35V35.228H103.525V22.4561H108.228C111.035 22.4561 112.439 24.4911 112.439 26.5262C112.439 28.3508 111.316 30.035 109.14 30.4561L113.211 35.2982H110.825L106.122 29.6841V28.7718H106.052Z" fill="#111111"/>
<path d="M26.46 24.4209C23.091 28.4911 19.4414 32.9121 17.055 35.3683C16.9848 35.3683 16.9848 35.2981 16.9146 35.2279C15.7215 34.1753 14.2476 32.7718 12.7035 31.1577L10.1768 33.6841C13.3351 36.9823 16.283 39.4384 16.9146 39.9297C16.9848 39.9998 17.055 39.9998 17.055 39.9998C17.055 39.9998 25.2668 31.0174 29.0569 26.9472L26.46 24.4209Z" fill="#4EB594"/>
<path d="M16.9148 7.29883L6.45703 11.369C6.45703 11.369 7.36945 18.3164 9.6856 22.948C11.721 27.0181 16.4235 31.6497 16.9148 31.9304C17.4061 31.6497 22.3191 26.7374 24.3545 22.6673C26.6707 18.0357 27.3726 11.369 27.3726 11.369L16.9148 7.29883Z" fill="#3D88C8"/>
<path d="M33.6896 7.15803L16.915 0.0703125L0.140507 7.15803C0.140507 7.15803 -1.05266 16.9124 4.21131 25.965C5.26411 27.7194 6.52746 29.4738 7.93119 31.0879L10.4579 28.5615C9.26473 27.158 8.14175 25.6142 7.29951 24.1405C4.2815 19.0879 3.64982 13.3335 3.57964 10.1054C5.05355 9.26329 15.6517 4.98259 16.915 4.49137C18.1082 4.98259 28.7765 9.26329 30.2504 10.1054C30.1803 12.7019 29.7591 16.9124 28.0747 21.1229L30.8119 23.8598C34.7424 15.4387 33.6896 7.15803 33.6896 7.15803Z" fill="#3D88C8"/>
<path d="M29.0575 27.0174L26.4606 24.4209C23.0916 28.4911 19.4419 32.9121 17.0556 35.3683C16.9854 35.3683 17.0556 40.07 17.0556 40.07C17.0556 40.07 25.1972 31.0876 29.0575 27.0174Z" fill="#029E81"/>
<path d="M28.0747 21.1229L30.8119 23.8598C34.7424 15.4387 33.6896 7.15803 33.6896 7.15803L16.915 0.0703125V4.49137C18.1082 4.98259 28.7765 9.2633 30.2504 10.1054C30.1803 12.7019 29.7591 16.9124 28.0747 21.1229Z" fill="#057BAA"/>
<path d="M27.3728 11.369C27.3728 11.369 26.6709 18.0357 24.3548 22.6673C22.3194 26.7374 17.4063 31.6497 16.915 31.9304V7.29883L27.3728 11.369Z" fill="#057BAA"/>
</g>
<defs>
<clipPath id="clip0_501_3739">
<rect width="113" height="40" fill="white"/>
</clipPath>
</defs>
</svg>
