<svg width="24" height="24" viewBox="0 0 24 24" fill="none" xmlns="http://www.w3.org/2000/svg">
<mask id="mask0_511_6969" style="mask-type:luminance" maskUnits="userSpaceOnUse" x="1" y="0" width="22" height="24">
<path d="M22.2751 0H1.7251V24H22.2751V0Z" fill="white"/>
</mask>
<g mask="url(#mask0_511_6969)">
<path d="M21.1502 16.05C20.4752 17.85 19.5751 19.35 18.2251 20.55C16.8001 21.975 14.8502 23.1 12.5252 23.925C12.4502 24 12.3751 24 12.3001 24C12.1501 24 12.0751 24 12.0001 24H11.9251C11.7751 24 11.7001 24 11.5501 23.925C11.4751 23.925 11.4002 23.85 11.3251 23.85C9.00015 23.025 7.12515 21.9 5.62515 20.475C4.35015 19.275 3.37515 17.7 2.70015 15.975C1.50015 12.825 1.57515 9.3 1.65015 6.525C1.65015 6.3 1.65015 6.075 1.72515 5.775C1.80015 4.425 2.85015 3.3 4.20015 3.225C6.97515 3.075 9.15015 2.175 10.9501 0.375C11.2501 0.15 11.6251 0 12.0001 0C12.3751 0 12.7501 0.15 13.0501 0.375C14.8501 2.175 17.0251 3.075 19.8001 3.225C21.1502 3.3 22.1252 4.425 22.2001 5.7C22.2001 6 22.2001 6.225 22.2752 6.45C22.2001 9.3 22.2752 12.825 21.1502 16.05Z" fill="#57B36E"/>
</g>
<mask id="mask1_511_6969" style="mask-type:luminance" maskUnits="userSpaceOnUse" x="1" y="0" width="22" height="24">
<path d="M22.2751 0H1.7251V24H22.2751V0Z" fill="white"/>
</mask>
<g mask="url(#mask1_511_6969)">
<path d="M21.15 16.05C20.475 17.85 19.575 19.35 18.225 20.55C16.8 21.975 14.85 23.1 12.525 23.925C12.45 24 12.375 24 12.3 24C12.15 24 12.075 24 12 24V0C12.375 0 12.75 0.15 13.05 0.375C14.85 2.175 17.025 3.075 19.8 3.225C21.15 3.3 22.125 4.425 22.2 5.7C22.2 6 22.2 6.225 22.275 6.45C22.2 9.3 22.275 12.825 21.15 16.05Z" fill="#57B36E"/>
</g>
<path d="M18 12C18 15.3 15.3 18 12 18H11.925C8.62505 18 5.92505 15.3 5.92505 12C5.92505 8.7 8.62505 6 11.925 6H12C15.3 6 18 8.7 18 12Z" fill="white"/>
<path d="M18 12C18 15.3 15.3 18 12 18V6C15.3 6 18 8.7 18 12Z" fill="#E1EBF0"/>
<path d="M15.6748 11.7748C15.5998 11.7748 15.5248 11.6998 15.5248 11.6248V11.2498C15.5248 9.29981 13.9498 7.72481 11.9998 7.72481C10.0498 7.72481 8.47481 9.29981 8.47481 11.2498V11.6248C8.47481 11.6998 8.39981 11.7748 8.32481 11.7748C8.24981 11.7748 8.1748 11.6998 8.1748 11.6248V11.2498C8.1748 9.14981 9.89981 7.4248 11.9998 7.4248C14.0998 7.4248 15.8248 9.14981 15.8248 11.2498V11.6248C15.8248 11.7748 15.7498 11.7748 15.6748 11.7748Z" fill="#848484"/>
<path d="M15.525 13.4997H15.15C15.075 13.4997 15 13.4247 15 13.3497C15 13.2747 15.075 13.1997 15.15 13.1997H15.525C15.675 13.1997 15.675 13.1247 15.675 13.0497V12.2247C15.675 12.1497 15.75 12.0747 15.825 12.0747C15.9 12.0747 15.975 12.1497 15.975 12.2247V13.0497C15.975 13.3497 15.825 13.4997 15.525 13.4997Z" fill="#848484"/>
<path d="M10.875 13.6499H12.975V15.4499H10.875V13.6499Z" fill="#CBCBCB"/>
<path d="M15.1498 12.9748C15.2248 12.8248 15.2248 12.7498 15.2248 12.5998V10.0498C15.2248 9.2248 14.5498 8.5498 13.7248 8.5498H10.4248C9.5998 8.5498 8.9248 9.2248 8.9248 10.0498V12.6748C8.9248 13.4998 9.5998 14.1748 10.4248 14.1748H13.7248C14.0998 14.1748 14.4748 14.0248 14.6998 13.7998" fill="#E5E5E5"/>
<path d="M9.9749 13.1997V14.0997C9.2999 13.9497 8.7749 13.3497 8.7749 12.5997V11.6997C9.5249 11.8497 9.9749 12.4497 9.9749 13.1997Z" fill="#CBCBCB"/>
<path d="M15.15 11.7749V12.6749C15.15 12.8249 15.15 12.9749 15.075 13.0499L14.625 13.7999C14.475 13.9499 14.25 14.0999 13.95 14.1749V13.2749C13.95 12.4499 14.475 11.8499 15.15 11.7749Z" fill="#CBCBCB"/>
<path d="M11.5499 10.7997C11.5499 11.3247 11.1749 11.7747 10.5749 11.7747C10.0499 11.7747 9.59985 11.3997 9.59985 10.7997C9.59985 10.2747 9.97485 9.82471 10.5749 9.82471C11.0999 9.82471 11.5499 10.2747 11.5499 10.7997Z" fill="white"/>
<path d="M14.4 10.7997C14.4 11.3247 14.025 11.7747 13.425 11.7747C12.825 11.7747 12.45 11.3997 12.45 10.7997C12.45 10.2747 12.825 9.82471 13.425 9.82471C14.025 9.82471 14.4 10.2747 14.4 10.7997Z" fill="white"/>
<path d="M10.575 11.1748C10.425 11.1748 10.2 11.0248 10.2 10.7998C10.2 10.5748 10.35 10.4248 10.575 10.4248C10.725 10.4248 10.95 10.5748 10.95 10.7998C10.95 11.0248 10.725 11.1748 10.575 11.1748Z" fill="#444444"/>
<path d="M13.4248 11.1748C13.2748 11.1748 13.0498 11.0248 13.0498 10.7998C13.0498 10.5748 13.1998 10.4248 13.4248 10.4248C13.6498 10.4248 13.7998 10.5748 13.7998 10.7998C13.7998 11.0248 13.5748 11.1748 13.4248 11.1748Z" fill="#444444"/>
<path d="M9.59995 13.4249C9.59995 13.6499 9.44995 13.7999 9.22495 13.7999H9.07495C8.84995 13.7999 8.69995 13.6499 8.69995 13.4249C8.69995 13.1999 8.84995 13.0499 9.07495 13.0499H9.22495C9.44995 12.9749 9.59995 13.1249 9.59995 13.4249Z" fill="#444444"/>
<path d="M11.3997 12.5249H11.7747V14.0999H11.3997V12.5249Z" fill="#7B7B7B"/>
<path d="M12.1497 12.5249H12.5247V14.0999H12.1497V12.5249Z" fill="#7B7B7B"/>
<path d="M12.8247 12.5999V14.1749H13.1997V13.1999C13.2747 12.8249 13.1247 12.5999 12.8247 12.5999Z" fill="#7B7B7B"/>
<path d="M11.0996 12.5999C10.8746 12.6749 10.7246 12.8999 10.7246 13.1999V14.1749H11.0996V12.5999Z" fill="#7B7B7B"/>
<path d="M8.8499 10.5748V12.0748C8.8499 12.2998 8.6999 12.4498 8.4749 12.5998C8.3999 12.5998 8.3999 12.5998 8.3249 12.5998H8.1749C7.8749 12.5998 7.6499 12.3748 7.6499 12.0748V10.5748C7.6499 10.2748 7.8749 10.0498 8.1749 10.0498H8.2499C8.3249 10.0498 8.3249 10.0498 8.3999 10.0498C8.6249 10.1248 8.8499 10.3498 8.8499 10.5748Z" fill="#686868"/>
<path d="M8.84985 10.5748V12.0748C8.84985 12.2998 8.69985 12.4498 8.47485 12.5998C8.24985 12.5248 8.09985 12.2998 8.09985 12.0748V10.5748C8.09985 10.3498 8.24985 10.1998 8.47485 10.0498C8.62485 10.1248 8.84985 10.3498 8.84985 10.5748Z" fill="#7B7B7B"/>
<path d="M16.3499 10.5748V12.0748C16.3499 12.2998 16.1999 12.4498 15.9749 12.5998C15.8999 12.5998 15.8999 12.5998 15.8249 12.5998H15.6749C15.3749 12.5998 15.1499 12.3748 15.1499 12.0748V10.5748C15.1499 10.2748 15.3749 10.0498 15.6749 10.0498H15.8249C15.8999 10.0498 15.8999 10.0498 15.9749 10.0498C16.1999 10.1248 16.3499 10.3498 16.3499 10.5748Z" fill="#686868"/>
<path d="M16.3499 10.5748V12.0748C16.3499 12.2998 16.1999 12.4498 15.9749 12.5998C15.7499 12.5248 15.5999 12.2998 15.5999 12.0748V10.5748C15.5999 10.3498 15.7499 10.1998 15.9749 10.0498C16.1999 10.1248 16.3499 10.3498 16.3499 10.5748Z" fill="#7B7B7B"/>
<path d="M14.9248 12.9749H15.0748C15.2998 12.9749 15.4498 13.1249 15.4498 13.3499C15.4498 13.5749 15.2998 13.7249 15.0748 13.7249H14.9248C14.6998 13.7249 14.5498 13.5749 14.5498 13.3499C14.5498 13.1249 14.6248 12.9749 14.9248 12.9749Z" fill="#444444"/>
<path d="M8.0249 13.0497V12.2247C8.0249 12.1497 8.0999 12.0747 8.1749 12.0747C8.2499 12.0747 8.3249 12.1497 8.3249 12.2247V13.0497C8.3249 13.1997 8.3999 13.1997 8.4749 13.1997H8.8499C8.9249 13.1997 8.9999 13.2747 8.9999 13.3497C8.9999 13.4247 8.9249 13.4997 8.8499 13.4997H8.4749C8.2499 13.5747 8.0249 13.3497 8.0249 13.0497Z" fill="#848484"/>
<path d="M15.0748 15.9748H8.9248V15.8998C8.9248 15.3748 9.2998 14.9248 9.8998 14.9248H14.0998C14.5498 14.9248 15.0748 15.3748 15.0748 15.9748Z" fill="#CBCBCB"/>
<path d="M15.075 15.9749L10.125 16.0499V15.9749C10.125 15.4499 10.5 14.9999 11.1 14.9999H14.1C14.55 14.9249 15.075 15.3749 15.075 15.9749Z" fill="#E5E5E5"/>
<path d="M11.925 6.375C8.85 6.375 6.375 8.85 6.375 11.925C6.375 15 8.85 17.475 11.925 17.475C15 17.475 17.475 15 17.475 11.925C17.475 8.85 15 6.375 11.925 6.375ZM11.925 16.8C9.225 16.8 7.05 14.625 7.05 11.925C7.05 10.725 7.5 9.6 8.25 8.7L15.15 15.6C14.25 16.35 13.125 16.8 11.925 16.8ZM15.6 15.075L8.7 8.175C9.6 7.425 10.725 6.975 11.925 6.975C14.625 6.975 16.8 9.15 16.8 11.85C16.875 13.05 16.35 14.25 15.6 15.075Z" fill="#E84C4F"/>
</svg>
