<svg width="24" height="24" viewBox="0 0 24 24" fill="none" xmlns="http://www.w3.org/2000/svg">
<g clip-path="url(#clip0_282_10802)">
<path d="M2.02511 22.3499L1.95011 22.2749C0.150111 21.1499 -0.524888 18.8249 0.525112 17.0249L8.55011 2.99992C9.67511 1.19992 12.0001 0.524916 13.8001 1.57492L13.8751 1.64992C15.6751 2.77492 16.3501 5.09992 15.3001 6.89992L7.27511 20.9999C6.22511 22.7999 3.82511 23.4749 2.02511 22.3499Z" fill="#FBBC04"/>
<path d="M22.05 22.3499L21.975 22.4999C20.175 23.6249 17.7 22.9499 16.725 21.0749L8.55 6.89989C7.425 5.09989 8.1 2.69989 9.9 1.64989L10.05 1.49989C11.85 0.374892 14.325 1.04989 15.3 2.92489L23.4 17.0249C24.6 18.8999 23.925 21.2999 22.05 22.3499Z" fill="#4385F5"/>
<path d="M2.02511 22.3499L1.95011 22.2749C0.150111 21.1499 -0.524888 18.8249 0.525112 17.0249L0.600112 16.9499C1.72511 15.1499 4.05011 14.4749 5.85011 15.5249L5.92511 15.5999C7.72511 16.7249 8.40011 19.0499 7.35011 20.8499L7.27511 20.9999C6.22511 22.7999 3.82511 23.4749 2.02511 22.3499Z" fill="#34A853"/>
</g>
<defs>
<clipPath id="clip0_282_10802">
<rect width="24" height="24" fill="white"/>
</clipPath>
</defs>
</svg>
