<svg width="24" height="24" viewBox="0 0 24 24" fill="none" xmlns="http://www.w3.org/2000/svg">
<g clip-path="url(#clip0_282_10339)">
<path d="M0.0234375 11.6961C0.0234375 5.34059 5.19907 0.140625 11.5248 0.140625C17.8506 0.140625 23.0262 5.34059 23.0262 11.6961C23.0262 18.0516 17.8506 23.2516 11.5248 23.2516C5.19907 23.2516 0.0234375 18.0516 0.0234375 11.6961Z" fill="#1A4A7F"/>
<path fill-rule="evenodd" clip-rule="evenodd" d="M9.65598 23.1073C7.35574 22.7462 5.19922 21.6629 3.5459 20.0017L13.8971 10.4685L8.00269 11.9129C6.34937 12.3463 4.69604 11.3352 4.33662 9.67401C4.33662 9.67401 4.33662 9.67401 4.33662 9.60183C3.9772 7.94073 4.98357 6.27963 6.6369 5.8463L19.0009 2.81299C23.889 6.92963 24.536 14.2241 20.4386 19.0629C19.2884 20.4351 17.8507 21.5185 16.1974 22.2407C16.1974 21.8073 16.1974 21.374 16.3412 21.0129L18.2821 15.1629C18.2102 15.1629 9.65598 23.1073 9.65598 23.1073Z" fill="url(#paint0_linear_282_10339)"/>
</g>
<defs>
<linearGradient id="paint0_linear_282_10339" x1="26.7804" y1="0.0083301" x2="-12.7633" y2="36.125" gradientUnits="userSpaceOnUse">
<stop stop-color="#FFB800"/>
<stop offset="1" stop-color="#FFF11D"/>
</linearGradient>
<clipPath id="clip0_282_10339">
<rect width="24" height="24" fill="white"/>
</clipPath>
</defs>
</svg>
