<svg width="64" height="32" viewBox="0 0 64 32" fill="none" xmlns="http://www.w3.org/2000/svg">
<path d="M52.9999 8.5H42.7C43.3 11.9 46.6 15.1 50.2 15.1H58.4C58.5 14.8 58.4999 14.3 58.4999 14C58.4999 11 55.9999 8.5 52.9999 8.5Z" fill="url(#paint0_linear_503_4381)"/>
<path d="M43.5996 15.7002V24.0002H48.5996V19.6002H52.9996C55.3996 19.6002 57.4996 17.9002 58.1996 15.7002H43.5996Z" fill="#4FAD50"/>
<path d="M26 8.5V23.9H30.4C30.4 23.9 31.5 23.9 32.1 22.8C35.1 16.9 36 15.1 36 15.1H36.6V23.9H41.6V8.5H37.2C37.2 8.5 36.1 8.60001 35.5 9.60001C33 14.7 31.6 17.3 31.6 17.3H31V8.5H26Z" fill="#4FAD50"/>
<path d="M5 24.0001V8.6001H10C10 8.6001 11.4 8.60009 12.2 10.8001C14.2 16.6001 14.4 17.4001 14.4 17.4001C14.4 17.4001 14.8 16.0001 16.6 10.8001C17.4 8.60009 18.8 8.6001 18.8 8.6001H23.8V24.0001H18.8V15.7001H18.2L15.4 24.0001H13.2L10.4 15.7001H9.80002V24.0001H5Z" fill="#4FAD50"/>
<defs>
<linearGradient id="paint0_linear_503_4381" x1="42.6822" y1="11.8473" x2="58.4645" y2="11.8473" gradientUnits="userSpaceOnUse">
<stop stop-color="#27B1E6"/>
<stop offset="1" stop-color="#148ACA"/>
</linearGradient>
</defs>
</svg>
