<svg width="50" height="30" viewBox="0 0 50 30" fill="none" xmlns="http://www.w3.org/2000/svg">
<path d="M50 15C50 23.2308 43.3077 30 35 30C26.7692 30 20 23.2308 20 15C20 6.76923 26.6923 0 34.9231 0C43.3077 0 50 6.76923 50 15Z" fill="#F9B50B"/>
<path d="M29.9231 15.0769C29.9231 14 29.7692 12.9231 29.6154 11.9231H20.3846C20.4615 11.3846 20.6154 10.9231 20.7692 10.3077H29C28.8462 9.76923 28.6154 9.23077 28.3846 8.69231H21.3846C21.6154 8.15385 21.9231 7.69231 22.2308 7.07692H27.5385C27.2308 6.53846 26.8462 6 26.3846 5.46154H23.4615C23.9231 4.92308 24.3846 4.46154 25 3.92308C22.3846 1.46154 18.8462 0 14.9231 0C6.76923 0.230769 0 6.76923 0 15C0 23.2308 6.69231 30 15 30C18.9231 30 22.3846 28.4615 25.0769 26.0769C25.6154 25.6154 26.0769 25.0769 26.6154 24.4615H23.5385C23.1538 24 22.7692 23.4615 22.4615 22.9231H27.6923C28 22.4615 28.3077 21.9231 28.5385 21.3077H21.5385C21.3077 20.8462 21.0769 20.3077 20.9231 19.6923H29.1538C29.6154 18.3077 29.9231 16.7692 29.9231 15.0769Z" fill="#C8191C"/>
<path d="M20.3077 18.8462L20.5385 17.4616C20.4615 17.4616 20.3077 17.5385 20.1538 17.5385C19.6154 17.5385 19.5385 17.2308 19.6154 17.077L20.0769 14.3077H20.9231L21.1538 12.7693H20.3846L20.5385 11.8462H18.9231C18.9231 11.8462 18 17.077 18 17.6923C18 18.6154 18.5385 19.077 19.3077 19.077C19.7692 19.077 20.1538 18.9231 20.3077 18.8462Z" fill="white"/>
<path d="M20.8467 16.308C20.8467 18.5388 22.3851 19.0772 23.6159 19.0772C24.7698 19.0772 25.3082 18.8465 25.3082 18.8465L25.6159 17.308C25.6159 17.308 24.7698 17.6926 23.9236 17.6926C22.1544 17.6926 22.4621 16.3849 22.4621 16.3849H25.6928C25.6928 16.3849 25.9236 15.3849 25.9236 14.9234C25.9236 13.9234 25.3851 12.6157 23.6159 12.6157C22.0774 12.5388 20.8467 14.308 20.8467 16.308ZM23.6159 14.0003C24.4621 14.0003 24.3082 15.0003 24.3082 15.0772H22.539C22.6159 15.0003 22.7698 14.0003 23.6159 14.0003Z" fill="white"/>
<path d="M33.6925 18.8459L34.0002 17.0767C34.0002 17.0767 33.2309 17.4613 32.6156 17.4613C31.5386 17.4613 31.0002 16.6151 31.0002 15.6151C31.0002 13.692 31.9232 12.692 33.0771 12.692C33.8463 12.692 34.5386 13.1536 34.5386 13.1536L34.7694 11.4613C34.7694 11.4613 33.8463 11.0767 32.9232 11.0767C31.0771 11.0767 29.3079 12.692 29.3079 15.692C29.3079 17.692 30.2309 18.9997 32.154 18.9997C32.8463 19.0767 33.6925 18.8459 33.6925 18.8459Z" fill="white"/>
<path d="M11.6152 12.5381C10.5383 12.5381 9.69216 12.8458 9.69216 12.8458L9.46139 14.2304C9.46139 14.2304 10.1537 13.9227 11.2306 13.9227C11.7691 13.9227 12.2306 13.9996 12.2306 14.4612C12.2306 14.7689 12.1537 14.8458 12.1537 14.8458H11.4614C10.0768 14.8458 8.61523 15.3842 8.61523 17.2304C8.61523 18.6919 9.53831 18.9996 10.1537 18.9996C11.2306 18.9996 11.7691 18.3073 11.846 18.3073L11.7691 18.9227H13.0768L13.6922 14.5381C13.6922 12.615 12.1537 12.5381 11.6152 12.5381ZM11.9229 16.0765C11.9229 16.3073 11.7691 17.615 10.846 17.615C10.3845 17.615 10.2306 17.2304 10.2306 16.9996C10.2306 16.615 10.4614 16.0765 11.6922 16.0765C11.846 16.0765 11.9229 16.0765 11.9229 16.0765Z" fill="white"/>
<path d="M15.2307 19.0004C15.6153 19.0004 17.6153 19.0773 17.6153 16.9235C17.6153 14.9235 15.6922 15.3081 15.6922 14.5388C15.6922 14.1542 15.9999 14.0004 16.5384 14.0004C16.7692 14.0004 17.6153 14.0773 17.6153 14.0773L17.8461 12.6158C17.8461 12.6158 17.3076 12.4619 16.3076 12.4619C15.1538 12.4619 13.923 12.9235 13.923 14.5388C13.923 16.385 15.923 16.2311 15.923 16.9235C15.923 17.385 15.3845 17.4619 14.9999 17.4619C14.3076 17.4619 13.5384 17.2311 13.5384 17.2311L13.3076 18.6927C13.4615 18.8465 13.923 19.0004 15.2307 19.0004Z" fill="white"/>
<path d="M46.9232 11.3076L46.6155 13.4615C46.6155 13.4615 46.0002 12.6922 45.0771 12.6922C43.6155 12.6922 42.3848 14.4615 42.3848 16.5384C42.3848 17.8461 43.0002 19.1538 44.3848 19.1538C45.3078 19.1538 45.9232 18.5384 45.9232 18.5384L45.8463 19.0768H47.4617L48.6155 11.4615L46.9232 11.3076ZM46.154 15.4615C46.154 16.3076 45.7694 17.4615 44.8463 17.4615C44.3078 17.4615 44.0002 16.9999 44.0002 16.1538C44.0002 14.8461 44.5386 14.0768 45.3078 14.0768C45.8463 14.1538 46.154 14.5384 46.154 15.4615Z" fill="white"/>
<path d="M2.92323 18.923L3.8463 13.2307L4.00015 18.923H5.07707L7.154 13.2307L6.30784 18.923H8.00015L9.30784 11.3076H6.69246L5.07707 15.9999L5.00015 11.3076H2.69246L1.38477 18.923H2.92323Z" fill="white"/>
<path d="M27.5388 18.9232C28.0003 16.3078 28.0772 14.1539 29.2311 14.5385C29.3849 13.5385 29.6157 13.077 29.7695 12.6924H29.4618C28.7695 12.6924 28.1541 13.6155 28.1541 13.6155L28.308 12.7693H26.7695L25.7695 18.9232H27.5388V18.9232Z" fill="white"/>
<path d="M37.3845 12.5381C36.3076 12.5381 35.4614 12.8458 35.4614 12.8458L35.2307 14.2304C35.2307 14.2304 35.923 13.9227 36.9999 13.9227C37.5384 13.9227 37.9999 13.9996 37.9999 14.4612C37.9999 14.7689 37.923 14.8458 37.923 14.8458H37.2307C35.8461 14.8458 34.3845 15.3842 34.3845 17.2304C34.3845 18.6919 35.3076 18.9996 35.923 18.9996C36.9999 18.9996 37.5384 18.3073 37.6153 18.3073L37.5384 18.9227H38.9999L39.6153 14.5381C39.6153 12.615 37.923 12.5381 37.3845 12.5381ZM37.7691 16.0765C37.7691 16.3073 37.6153 17.615 36.6922 17.615C36.2307 17.615 36.0768 17.2304 36.0768 16.9996C36.0768 16.615 36.3076 16.0765 37.5384 16.0765C37.6922 16.0765 37.6922 16.0765 37.7691 16.0765Z" fill="white"/>
<path d="M40.8461 18.9232C41.3077 16.3078 41.3846 14.1539 42.5384 14.5385C42.6923 13.5385 42.9231 13.077 43.0769 12.6924H42.7692C42.0769 12.6924 41.4615 13.6155 41.4615 13.6155L41.6154 12.7693H40.0769L39.0769 18.9232H40.8461V18.9232Z" fill="white"/>
</svg>
