<svg width="30" height="30" viewBox="0 0 30 30" fill="none" xmlns="http://www.w3.org/2000/svg">
<path d="M19 14.4203L15.7857 10.8696L12.2143 14.058L15.4286 17.6812L19 14.4203Z" fill="#137ABE"/>
<path d="M9.64286 7.97101L12.8571 11.5217L16.4286 8.33333L13.2143 4.78261L9.64286 7.97101Z" fill="#137ABE"/>
<path d="M21.5 20.5797L18.2857 17.029L14.7143 20.2899L17.9286 23.8406L21.5 20.5797Z" fill="#137ABE"/>
<path d="M17.7857 26.5217L11.9286 19.9275L13.5714 18.4783L9.42857 13.8406L11.0714 12.3913L6.92857 7.75362L13.4286 1.88406L15.5 4.13043L19.0714 1.01449L21.1429 3.18841L22.5 1.95652C22.2143 1.81159 21.8571 1.5942 21.5714 1.44928C19.5 0.57971 17.2857 0 14.9286 0C6.71429 0 0 6.73913 0 15C0 23.2609 6.71429 30 15 30C17.7143 30 20.2143 29.2754 22.3571 28.0435C23.0714 27.6087 23.7143 27.1739 24.3571 26.7391L21.3571 23.3333L17.7857 26.5217Z" fill="#137ABE"/>
<path d="M16.2143 6.23188L18.5714 8.91304L21.2857 6.52174L18.8571 3.84058L16.2143 6.23188Z" fill="#137ABE"/>
<path d="M23.7143 11.8841L21.2857 9.2029L18.6429 11.6667L21.0714 14.2754L23.7143 11.8841Z" fill="#137ABE"/>
<path d="M26 17.5362L23.5714 14.8551L20.9286 17.2464L23.3571 20L26 17.5362Z" fill="#137ABE"/>
<path d="M26.1429 8.69565L24.3571 10.2899L26 12.1014L27.7143 10.5072L26.1429 8.69565Z" fill="#137ABE"/>
<path d="M26.6429 15.5797L28.2143 17.3913L30 15.7971L28.3571 13.9855L26.6429 15.5797Z" fill="#137ABE"/>
<path d="M22.0714 5L23.7143 6.81159L25.4286 5.21739L23.8571 3.4058L22.0714 5Z" fill="#137ABE"/>
<path d="M23.2857 22.6812L25.7143 25.3623L28.3571 22.971L25.9286 20.2899L23.2857 22.6812Z" fill="#137ABE"/>
</svg>
