<svg width="51" height="17" viewBox="0 0 51 17" fill="none" xmlns="http://www.w3.org/2000/svg">
<path d="M47.5703 1.22852H44.3642C43.3949 1.22852 42.6493 1.53328 42.2019 2.52375L36.0879 16.7714H40.4125C40.4125 16.7714 41.1581 14.8666 41.3072 14.4095C41.7546 14.4095 46.0046 14.4095 46.601 14.4095C46.7502 14.9428 47.123 16.6952 47.123 16.6952H51.0002L47.5703 1.22852ZM42.5002 11.2095C42.873 10.2952 44.1405 6.86661 44.1405 6.86661C44.1405 6.9428 44.5133 5.95233 44.6625 5.41899L44.9607 6.79042C44.9607 6.79042 45.7809 10.5238 45.93 11.2857H42.5002V11.2095Z" fill="#3362AB"/>
<path d="M36.3855 11.6667C36.3855 14.8667 33.5522 17 29.1531 17C27.289 17 25.4996 16.619 24.5303 16.1619L25.1268 12.6571L25.6487 12.8857C26.9908 13.4952 27.8855 13.7238 29.5259 13.7238C30.7189 13.7238 31.9864 13.2667 31.9864 12.2C31.9864 11.5143 31.4645 11.0571 29.8241 10.2952C28.2583 9.53333 26.1706 8.31429 26.1706 6.10476C26.1706 3.05714 29.0785 1 33.1794 1C34.7452 1 36.0873 1.30476 36.9075 1.68571L36.311 5.0381L36.0127 4.73333C35.2671 4.42857 34.2978 4.12381 32.8811 4.12381C31.3154 4.2 30.5697 4.88571 30.5697 5.49524C30.5697 6.18095 31.4645 6.71429 32.8811 7.4C35.2671 8.54286 36.3855 9.8381 36.3855 11.6667Z" fill="#3362AB"/>
<path d="M0 1.38093L0.0745614 1.07617H6.48684C7.38158 1.07617 8.05263 1.38093 8.27632 2.37141L9.69298 9.22855C8.27632 5.57141 4.99561 2.59998 0 1.38093Z" fill="#F9B50B"/>
<path d="M18.7146 1.22853L12.2278 16.6952H7.82866L4.10059 3.74282C6.7848 5.4952 9.02164 8.23806 9.84181 10.1428L10.2892 11.7428L14.3155 1.15234H18.7146V1.22853Z" fill="#3362AB"/>
<path d="M20.43 1.15234H24.5308L21.9212 16.6952H17.8203L20.43 1.15234Z" fill="#3362AB"/>
</svg>
