<svg width="87" height="34" viewBox="0 0 87 34" fill="none" xmlns="http://www.w3.org/2000/svg">
<g clip-path="url(#clip0_503_4379)">
<path fill-rule="evenodd" clip-rule="evenodd" d="M21.5709 31.314C24.2799 31.314 27.2189 32.241 30.4729 35.118C30.7989 35.406 31.2329 35.048 30.9479 34.69C27.7509 30.661 24.7939 29.894 21.8449 29.246C18.2369 28.452 16.3819 26.426 15.0889 24.202C14.8319 23.76 14.7159 23.838 14.6929 24.407C14.6639 25.102 14.7129 26.023 14.8689 26.929C14.7229 26.935 14.5769 26.934 14.4289 26.934C9.26895 26.934 5.08495 22.758 5.08495 17.607C5.08495 12.457 9.26895 8.282 14.4299 8.282C19.5899 8.282 23.7739 12.457 23.7739 17.607C23.7739 17.974 23.7559 18.337 23.7139 18.692C23.0319 18.569 21.6889 18.555 20.7469 18.636C20.3929 18.667 20.4429 18.832 20.7109 18.88C23.7999 19.437 25.9209 21.348 26.4069 24.815C26.4169 24.895 26.5229 24.918 26.5639 24.849C27.8774 22.662 28.5693 20.1581 28.5649 17.607C28.5649 9.817 22.2359 3.5 14.4299 3.5C6.62295 3.5 0.293945 9.816 0.293945 17.607C0.293945 25.399 6.62295 31.716 14.4299 31.716C16.4999 31.716 18.5559 31.314 21.5709 31.314ZM22.6229 26.192C23.2519 26.722 23.4429 27.353 23.1109 27.798C22.9259 28.042 22.6259 28.177 22.2659 28.177C21.9148 28.1771 21.5747 28.0539 21.3049 27.829C20.7329 27.33 20.5649 26.522 20.9379 26.063C21.0839 25.883 21.3209 25.784 21.6049 25.784C21.9499 25.784 22.3119 25.929 22.6229 26.192ZM25.5249 24.844C25.6169 25.462 25.4219 25.718 25.2249 25.718C25.0099 25.718 24.7409 25.468 24.4239 24.973C24.1099 24.485 23.9949 23.925 24.1509 23.642C24.2529 23.455 24.4679 23.373 24.7389 23.476C25.2639 23.673 25.4689 24.475 25.5249 24.844ZM45.1189 21.614L43.4889 19.657C43.4507 19.6109 43.4264 19.5548 43.4189 19.4953C43.4115 19.4359 43.4211 19.3755 43.4467 19.3213C43.4723 19.2672 43.5129 19.2214 43.5636 19.1895C43.6143 19.1575 43.673 19.1407 43.7329 19.141H47.1419C47.3039 18.659 47.3959 18.144 47.3959 17.608C47.3959 15.158 45.5679 13.045 43.0599 13.045C40.5519 13.045 38.7239 15.158 38.7239 17.608C38.7239 20.058 40.5519 22.142 43.0599 22.142C43.8199 22.142 44.5159 21.948 45.1199 21.613L45.1189 21.614ZM52.4929 24.919C52.6699 25.115 52.5249 25.429 52.2579 25.429H48.5379C48.4632 25.4291 48.3893 25.4127 48.3216 25.3811C48.2538 25.3495 48.1939 25.3034 48.1459 25.246L47.5159 24.489C46.1892 25.3495 44.6413 25.8066 43.0599 25.805C38.5309 25.805 34.8469 22.128 34.8469 17.608C34.8469 13.088 38.5309 9.411 43.0599 9.411C47.5889 9.411 51.2729 13.088 51.2729 17.608C51.2729 19.238 50.7929 20.756 49.9679 22.034L52.4929 24.919ZM86.8619 9.79H83.8249C83.7181 9.79026 83.6158 9.83281 83.5403 9.90833C83.4648 9.98385 83.4222 10.0862 83.4219 10.193V25.026C83.4219 25.249 83.6019 25.429 83.8249 25.429H86.8619C87.0849 25.429 87.2659 25.249 87.2659 25.026V10.192C87.2659 10.0849 87.2234 9.98209 87.1476 9.90633C87.0719 9.83056 86.9691 9.788 86.8619 9.788V9.79ZM81.7519 9.79H78.3559C78.2697 9.78967 78.1856 9.81697 78.1159 9.86789C78.0463 9.91881 77.9948 9.99069 77.9689 10.073L75.2809 18.839L72.3259 10.063C72.2989 9.98294 72.2474 9.91341 72.1786 9.86424C72.1099 9.81507 72.0275 9.78875 71.9429 9.789H69.5729C69.4883 9.78869 69.4057 9.81497 69.3368 9.86413C69.2679 9.9133 69.2162 9.98286 69.1889 10.063L66.2349 18.839L63.5469 10.073C63.5213 9.9905 63.4699 9.91841 63.4002 9.86729C63.3305 9.81618 63.2463 9.78874 63.1599 9.789H59.7629C59.6991 9.78911 59.6363 9.80429 59.5794 9.83331C59.5226 9.86234 59.4734 9.90437 59.4359 9.956C59.3985 10.0071 59.3738 10.0665 59.3641 10.1292C59.3543 10.1918 59.3598 10.2559 59.3799 10.316L64.3699 25.157C64.4249 25.321 64.5799 25.431 64.7529 25.431H67.4489C67.6229 25.431 67.7769 25.321 67.8319 25.158L70.7579 16.487L73.6829 25.157C73.7379 25.321 73.893 25.431 74.0659 25.431H76.7629C76.937 25.431 77.091 25.321 77.146 25.157L82.1359 10.316C82.1561 10.2559 82.1616 10.192 82.152 10.1293C82.1425 10.0667 82.1181 10.0073 82.0809 9.956C82.0433 9.90429 81.994 9.86222 81.937 9.8332C81.88 9.80417 81.8169 9.78903 81.7529 9.789L81.7519 9.79ZM58.0939 10.193V25.026C58.0939 25.249 57.9139 25.429 57.6899 25.429H54.6539C54.547 25.429 54.4444 25.3866 54.3686 25.311C54.2929 25.2355 54.2502 25.133 54.2499 25.026V10.192C54.2499 9.969 54.4299 9.788 54.6539 9.788H57.6899C57.9129 9.788 58.0939 9.969 58.0939 10.193Z" fill="#FF8C00"/>
</g>
<defs>
<clipPath id="clip0_503_4379">
<rect width="87" height="33" fill="white" transform="translate(0 0.5)"/>
</clipPath>
</defs>
</svg>
