<svg width="132" height="56" viewBox="0 0 132 56" fill="none" xmlns="http://www.w3.org/2000/svg">
<g clip-path="url(#clip0_230_22899)">
<path d="M12 9.33342C12 9.16373 12 8.90918 11.7429 8.90918H11.4L9.68574 9.33342C9.60003 9.33342 9.4286 9.41827 9.4286 9.75766V17.9031C7.45717 16.1213 6.17145 16.1213 5.74288 16.1213C3.85717 16.1213 -0.0856934 16.9698 -0.0856934 24.1819C-0.0856934 30.9698 3.60002 31.8183 5.31431 31.8183C8.14288 31.8183 9.68574 30.3758 9.68574 30.3758C9.85717 31.1395 9.94289 32.0728 10.5429 31.7334L11.8286 30.9698C11.9143 30.8849 12.1715 30.8001 12.1715 30.7152C12.1715 30.5455 12 27.7455 12 26.4728V9.33342V9.33342ZM9.51432 28.6789C9.51432 28.6789 7.97145 30.0364 5.57145 30.0364C2.65717 30.0364 2.65717 26.3031 2.65717 23.9274C2.65717 21.1274 2.91431 18.0728 6.17145 18.0728C7.20002 18.0728 8.48574 18.5819 9.4286 19.091V28.6789H9.51432ZM20.2286 16.1213C16.4572 16.1213 13.7143 19.0062 13.7143 24.0122C13.7143 30.1213 17.6572 31.9031 20.9143 31.9031C22.3714 31.9031 23.6572 31.4789 24.6 31.0546C25.6286 30.6304 25.8 30.3758 25.8 30.291V30.1213L25.2 28.7637C25.2 28.6789 25.1143 28.594 25.0286 28.594H24.9429C24.8572 28.594 24.6857 28.6789 24.5143 28.7637C23.4 29.3577 22.2857 29.8668 20.9143 29.8668C18.7714 29.8668 16.3715 28.3395 16.3715 24.691V24.5213H25.8C26.0572 24.5213 26.1429 24.4365 26.1429 24.0122V23.7577C26.1429 17.4789 22.9715 16.1213 20.2286 16.1213V16.1213ZM16.3715 22.5698C16.4572 19.2607 18.2572 17.988 19.9715 17.988C21.0857 17.988 22.2 18.4122 22.8857 19.8546C23.4 21.0425 23.4 22.3152 23.4 22.4849C23.4 22.5698 16.3715 22.5698 16.3715 22.5698ZM42.4286 16.1213C41.0572 16.1213 39.7715 16.6304 37.8 17.988C37.2 16.7152 36.1715 16.1213 34.8 16.1213C32.8286 16.1213 31.5429 16.9698 30.1715 17.988C30.0857 17.5637 29.8286 16.7152 29.6572 16.3758C29.4857 15.9516 29.2286 16.1213 29.0572 16.2061L27.6 16.9698C27.5143 16.9698 27.4286 17.0546 27.4286 17.1395C27.4286 17.1395 27.4286 17.2243 27.5143 17.394C27.7715 17.8183 28.0286 18.3274 28.0286 20.4486V31.1395C28.0286 31.4789 28.2 31.5637 28.4572 31.5637H30.1715C30.5143 31.5637 30.6 31.394 30.6 31.1395V19.5152C31.6286 18.7516 32.5714 18.2425 33.7714 18.2425C35.8286 18.2425 35.9143 19.9395 35.9143 20.788V31.1395C35.9143 31.4789 36.0857 31.5637 36.3429 31.5637H38.0572C38.2286 31.5637 38.4857 31.5637 38.4857 31.1395V19.5152L38.7429 19.3455C38.9143 19.2607 40.2857 18.2425 41.6572 18.2425C43.7143 18.2425 43.8 19.9395 43.8 20.788V31.1395C43.8 31.4789 43.9715 31.5637 44.2286 31.5637H45.9429C46.1143 31.5637 46.3715 31.5637 46.3715 31.1395V20.8728C46.0286 18.8365 45.8572 16.1213 42.4286 16.1213V16.1213ZM50.7429 16.5455H49.0286C48.8572 16.5455 48.6 16.5455 48.6 16.9698V31.1395C48.6 31.4789 48.7714 31.5637 49.0286 31.5637H50.7429C50.9143 31.5637 51.1714 31.5637 51.1714 31.1395V16.9698C51.1714 16.8001 51.1714 16.5455 50.7429 16.5455V16.5455ZM50.1429 10.0971C49.2 10.0971 48.4286 10.8607 48.4286 11.794C48.4286 12.7274 49.2 13.491 50.1429 13.491C51.0857 13.491 51.8572 12.7274 51.8572 11.794C51.8572 10.8607 51.0857 10.0971 50.1429 10.0971ZM59.9143 23.0789C57.8572 22.2304 56.4857 21.7213 56.4857 20.194C56.4857 19.091 57.3429 18.0728 59.2286 18.0728C60.0857 18.0728 60.9429 18.2425 62.1429 18.7516C62.3143 18.8365 62.4 18.8365 62.6572 18.9213C62.7429 18.9213 62.9143 18.9213 63 18.6668L63.6 17.4789C63.6857 17.394 63.7715 17.1395 63.2572 16.8849C62.8286 16.6304 61.9714 16.3758 61.4572 16.291C60.6 16.1213 59.6572 15.9516 58.9715 15.9516C55.8857 15.9516 53.8286 17.7334 53.8286 20.194C53.8286 22.8243 55.9715 23.6728 58.2857 24.6061C60.3429 25.4546 61.6286 25.9637 61.6286 27.4062C61.6286 28.7637 60.6 29.6122 58.7143 29.6122C57.6 29.6122 56.1429 29.2728 55.2857 28.8486C54.7715 28.594 54.5143 28.5092 54.3429 28.4243H54.2572C54.0857 28.4243 54.0857 28.5092 54.0857 28.594L53.4 29.8668V30.1213C53.4 30.3758 53.9143 30.5455 54 30.6304C54.8572 31.0546 56.9143 31.6486 58.7143 31.6486C61.5429 31.6486 64.3715 30.2061 64.3715 27.3213C64.3715 24.8607 62.0572 23.9274 59.9143 23.0789V23.0789ZM90.7714 18.7516L91.5429 17.0546C91.6286 16.9698 91.7143 16.7152 91.2857 16.6304C90.9429 16.5455 90.5143 16.3758 90 16.3758C88.2857 16.3758 87.2572 17.6486 86.4857 18.4971L86.0572 19.0062C85.9714 18.4122 85.7143 17.5637 85.2857 16.8849C85.2 16.7152 85.0286 16.4607 84.7714 16.3758H84.6857C84.6 16.3758 84.6 16.4607 84.4286 16.4607L83.1429 17.3092C83.0572 17.394 83.0572 17.394 83.0572 17.5637C83.0572 17.7334 83.1429 17.8183 83.1429 17.9031L83.4 18.3274C83.7429 19.0061 83.9143 19.6849 83.9143 20.7031V31.394C83.9143 31.5637 83.9143 31.8183 84.3429 31.8183H86.0572C86.4 31.8183 86.4857 31.6486 86.4857 31.394V21.2122L87 20.6183C87.6 19.8546 88.6286 18.7516 89.5714 18.7516C89.7429 18.7516 90 18.7516 90.1714 18.8365C90.4286 18.9213 90.4286 19.0062 90.5143 19.0062C90.6857 18.9213 90.7714 18.8365 90.7714 18.7516V18.7516ZM97.0286 16.291C94.2 16.291 90.6 17.988 90.6 24.1819C90.6 30.3758 94.2857 32.0728 97.0286 32.0728C99.7715 32.0728 103.457 30.3758 103.457 24.1819C103.543 17.988 99.8572 16.291 97.0286 16.291V16.291ZM97.0286 30.2062C93.4286 30.2062 93.2572 25.8789 93.2572 24.2668C93.2572 22.6546 93.4286 18.3274 97.0286 18.3274C100.629 18.3274 100.8 22.6546 100.8 24.2668C100.886 25.8789 100.714 30.2062 97.0286 30.2062ZM82.1143 16.8001C82.0286 16.291 81.6 15.9516 81.0857 15.9516C79.8 16.1213 78.9429 16.6304 78.6 17.0546C77.5714 16.4607 76.3714 16.0365 75.1714 16.0365C72.0857 16.0365 69 18.3274 69 21.1274C69 22.9092 70.2 24.4364 71.8286 25.3698C71.8286 25.3698 71.8286 25.4546 71.7429 25.4546C71.3143 25.794 70.4572 26.3031 70.1143 26.8971C69.7715 27.5758 69.9429 28.1698 70.1143 28.4243C70.7143 29.6122 72.6857 29.7819 75.6 30.0364L76.2 30.1213C78.6857 30.3758 79.7143 31.6486 79.7143 32.6668C79.7143 33.9395 78 35.2971 75.5143 35.2971C72.6857 35.2971 72.1714 34.2789 71.7429 33.6849C71.6572 33.5152 71.6572 33.091 71.6572 33.0061C72 32.1577 71.3143 31.7334 70.8 31.5637C70.2 31.4789 69.6 31.5637 69.3429 32.0728C68.9143 32.8365 68.9143 33.7698 69.4286 34.5334C69.9429 35.3819 71.4857 36.9092 75.6857 36.9092H75.8572C79.8 36.9092 82.0286 34.788 82.1143 32.7516C82.2 30.7152 81.0857 28.2546 76.9715 28.0849C72.9429 27.9152 72.2572 28.0849 72.2572 27.4062C72.2572 26.6425 74.6572 26.1334 75.4286 26.1334C78.4286 25.9637 81.1714 23.7577 81.1714 21.0425C81.1714 19.9395 80.7429 18.9213 79.9715 18.1577C80.1429 17.988 80.4857 17.8183 81.2572 17.7334C81.7715 17.8183 82.1143 17.3092 82.1143 16.8001V16.8001ZM75.0857 24.7758C73.1143 24.7758 71.4857 22.994 71.4857 21.2122C71.4857 19.5152 73.2857 17.7334 75.2572 17.7334C77.2286 17.7334 78.6857 19.4304 78.6857 21.2122C78.6857 22.994 77.0572 24.7758 75.0857 24.7758V24.7758Z" fill="#231F20"/>
<path d="M116.828 29.6121C116.657 29.1879 116.571 28.7636 116.571 28.3394V16.4606C116.571 16.4606 116.571 16.3758 116.486 16.3758C116.486 16.3758 116.4 16.2909 116.057 16.3758L113.828 16.8C113.743 16.8 113.571 16.8849 113.571 17.2242V28.5091C112.628 29.1879 111.6 29.7818 110.228 29.7818C108.943 29.7818 108.171 29.5273 108.171 27.5758V16.5455C108.086 16.4606 107.914 16.4606 107.743 16.4606L105.6 16.8849C105.514 16.8849 105.343 16.9697 105.343 17.3091V27.6606C105.343 29.7818 105.771 32.3273 109.8 32.3273C111.343 32.3273 113.057 31.4788 113.743 30.4606L113.828 30.7151C113.914 30.8848 114 31.1394 114.343 31.7333C114.771 32.4121 114.943 32.497 115.114 32.4121L117.257 31.3091C117.343 31.2242 117.514 31.2242 117.514 31.0546C117.514 30.9697 117.428 30.9697 117.343 30.7151C117.257 30.3758 117 30.0364 116.828 29.6121ZM126.6 16.2909C124.8 16.2909 123.257 17.3091 122.4 17.9879L122.143 18.1576C121.971 17.5636 121.714 16.8849 121.286 16.4606C121.028 16.2061 120.857 16.2909 120.771 16.3758L119.143 17.2242C119.057 17.2242 118.971 17.3091 118.971 17.4788C118.971 17.5636 119.057 17.7333 119.228 17.903C120 19.1758 120 20.1091 120 20.7879V37.8424C120 38.2667 120.686 38.1818 120.857 38.097L122.4 37.6727C122.657 37.5879 122.657 37.3333 122.657 37.2485V30.9697C123.086 31.2242 124.371 31.9879 126.171 31.9879C128.229 31.9879 132 31.1394 132 24.0121C131.914 17.1394 128.229 16.2909 126.6 16.2909V16.2909ZM125.914 29.697C124.8 29.697 123.514 29.1879 122.657 28.7636V20.2788C123.514 19.6849 124.8 18.8364 126 18.8364C128.828 18.8364 129 21.5515 129 24.1818C129.086 26.9818 128.914 29.697 125.914 29.697V29.697ZM116.571 7.80606V5.17576L111 0L105.343 5.17576V7.80606L111 2.6303L116.571 7.80606Z" fill="#760900"/>
<path d="M116.571 12.303V9.6727L111 4.58179L105.343 9.6727V12.303L111 7.12724L116.571 12.303ZM21.0855 38.0969L20.5712 38.0121C20.4855 38.0121 20.4855 37.9272 20.3997 38.1818L19.5426 41.2363C19.4569 41.5757 19.3712 41.9151 19.1997 42.4242L18.7712 41.2363L17.4855 38.0969C17.3997 37.9272 17.314 38.0121 17.314 38.0121L17.0569 38.0969L16.8855 38.1818C16.714 38.1818 16.7998 38.2666 16.7998 38.3515L18.514 42.7636C18.514 42.8484 18.514 42.9333 18.6855 42.9333H19.0283L18.9426 43.2727C18.8569 43.6969 18.5998 44.2909 18.0855 44.2909C17.8283 44.2909 17.6569 44.1212 17.3998 43.9515C17.314 43.9515 17.314 43.8666 17.2283 43.8666C17.2283 43.8666 17.1426 43.8666 17.1426 43.9515L16.9712 44.3757C16.9712 44.4606 16.9712 44.5454 17.1426 44.7151C17.2283 44.8 17.5712 44.9697 18.0855 44.9697C18.9426 44.9697 19.3712 44.5454 19.6283 43.6969L21.2569 38.4363C21.1712 38.2666 21.1712 38.1818 21.0855 38.0969C21.1712 38.0969 21.0855 38.0969 21.0855 38.0969V38.0969ZM24.2569 41.2363C24.9426 40.8969 25.1997 40.3878 25.1997 39.6242C25.1997 38.0969 23.914 38.0121 23.2283 38.0121H21.6855C21.5997 38.0121 21.5997 38.0969 21.5997 38.0969V44.5454C21.5997 44.6303 21.5997 44.6303 21.6855 44.6303H23.0569C23.914 44.6303 24.3426 44.6303 24.7712 44.206C25.114 43.9515 25.4569 43.4424 25.4569 42.6788C25.4569 41.8303 24.8569 41.406 24.2569 41.2363V41.2363ZM22.3712 38.7757H23.2283C23.6569 38.7757 24.3426 38.8606 24.3426 39.7939C24.3426 41.0666 23.4855 41.0666 23.0569 41.0666H22.4569C22.3712 41.0666 22.3712 38.7757 22.3712 38.7757V38.7757ZM23.2283 44.1212H22.3712V41.7454H23.2283C23.5712 41.7454 24.514 41.8303 24.514 43.0181C24.514 44.0363 23.6569 44.1212 23.2283 44.1212ZM33.3426 44.6303C33.3426 44.7151 33.4283 44.7151 33.4283 44.7151H34.0283C34.114 44.7151 34.114 44.6303 34.114 44.6303V38.1818C34.114 38.0969 34.114 38.0969 34.0283 38.0969H31.0283C30.9426 38.0969 30.9426 38.1818 30.9426 38.1818V39.5394C30.9426 40.3879 30.9426 42.1697 30.6855 43.103C30.514 43.9515 30.0855 44.0363 29.6569 44.1212H27.0855V41.5757H29.0569C29.1426 41.5757 29.1426 41.4909 29.1426 41.4909V41.0666C29.1426 40.9818 29.1426 40.9818 29.0569 40.9818H27.0855V38.8606H29.314C29.3997 38.8606 29.3997 38.8606 29.3997 38.7757L29.5712 38.2666C29.5712 38.2666 29.5712 38.1818 29.4855 38.1818H26.3997C26.314 38.1818 26.314 38.2666 26.314 38.2666V44.7151C26.314 44.8 26.314 44.8 26.3997 44.8H29.3997V44.8848C29.3997 44.9697 29.4855 44.9697 29.5712 44.9697C29.7426 44.9697 29.9997 44.9697 30.1712 44.8848C30.6855 44.7151 31.0283 44.2909 31.2855 43.2727C31.3712 42.9333 31.5426 42.0848 31.5426 40.2181V38.8606H33.2569C33.3426 38.7757 33.3426 44.6303 33.3426 44.6303V44.6303ZM35.3997 44.7151H35.9997C36.0855 44.7151 36.0855 44.7151 36.1712 44.6303L38.5712 39.7091C38.6569 39.5394 38.7426 39.2 38.8283 38.9454C38.8283 39.2 38.7426 39.5394 38.7426 39.7939V44.5454C38.7426 44.6303 38.8283 44.6303 38.8283 44.6303H39.4283C39.514 44.6303 39.514 44.6303 39.514 44.5454V38.1818C39.514 38.0969 39.4283 38.0969 39.4283 38.0969H38.6569C38.6569 38.0969 38.5712 38.0969 38.4855 38.1818L36.1712 42.8485C36.0855 43.0181 35.9997 43.3575 35.914 43.6121C35.914 43.3575 35.9997 43.0181 35.9997 42.7636V38.1818C35.9997 38.0969 35.9997 38.0969 35.914 38.0969H35.314C35.2283 38.0969 35.2283 38.1818 35.2283 38.1818V44.6303C35.2283 44.7151 35.314 44.7151 35.3997 44.7151ZM42.1712 42.0848C42.6855 42.0848 43.114 42 43.6283 41.7454V44.6303C43.6283 44.7151 43.714 44.7151 43.714 44.7151H44.314C44.3997 44.7151 44.3997 44.6303 44.3997 44.6303V38.1818C44.3997 38.0969 44.3997 38.0969 44.314 38.0969H43.714C43.6283 38.0969 43.6283 38.1818 43.6283 38.1818V41.0666C43.1997 41.2363 42.7712 41.406 42.3426 41.406C41.314 41.406 41.314 40.6424 41.314 40.4727V38.1818C41.314 38.0969 41.314 38.0969 41.2283 38.0969H40.6283C40.5426 38.0969 40.5426 38.1818 40.5426 38.1818V40.4727C40.4569 41.7454 41.314 42.0848 42.1712 42.0848V42.0848ZM45.6855 44.7151H48.6855C48.7712 44.7151 48.7712 44.6303 48.7712 44.6303V44.206C48.7712 44.1212 48.7712 44.1212 48.6855 44.1212H46.2855V41.5757H48.2569C48.3426 41.5757 48.3426 41.4909 48.3426 41.4909V41.0666C48.3426 40.9818 48.3426 40.9818 48.2569 40.9818H46.2855V38.8606H48.514C48.5998 38.8606 48.5997 38.8606 48.5997 38.7757L48.7712 38.2666C48.7712 38.2666 48.7712 38.1818 48.6855 38.1818H45.5997C45.514 38.1818 45.514 38.2666 45.514 38.2666V44.7151H45.6855V44.7151ZM49.714 44.7151H50.314C50.3997 44.7151 50.3997 44.6303 50.3997 44.6303V41.6606H52.9712V44.6303C52.9712 44.7151 53.0569 44.7151 53.0569 44.7151H53.6569C53.7426 44.7151 53.7426 44.7151 53.7426 44.6303V38.1818C53.7426 38.0969 53.7426 38.0969 53.6569 38.0969H53.0569C52.9712 38.0969 52.9712 38.1818 52.9712 38.1818V40.8969H50.3997V38.1818C50.3997 38.0969 50.3997 38.0969 50.314 38.0969H49.714C49.6283 38.0969 49.6283 38.1818 49.6283 38.1818V44.6303C49.6283 44.7151 49.6283 44.7151 49.714 44.7151ZM55.0283 44.7151H55.6283C55.714 44.7151 55.714 44.7151 55.7998 44.6303L58.1997 39.7091C58.2855 39.5394 58.3712 39.2 58.4569 38.9454C58.4569 39.2 58.3712 39.5394 58.3712 39.7939V44.5454C58.3712 44.6303 58.4569 44.6303 58.4569 44.6303H59.0569C59.1426 44.6303 59.1426 44.6303 59.1426 44.5454V38.1818C59.1426 38.0969 59.0569 38.0969 59.0569 38.0969H58.2855C58.2855 38.0969 58.1997 38.0969 58.114 38.1818L55.7998 42.8485C55.714 43.0181 55.6283 43.3575 55.5426 43.6121C55.5426 43.3575 55.6283 43.0181 55.6283 42.7636V38.1818C55.6283 38.0969 55.6283 38.0969 55.5426 38.0969H54.9426C54.8569 38.0969 54.8569 38.1818 54.8569 38.1818V44.6303C54.8569 44.7151 54.9426 44.7151 55.0283 44.7151ZM60.4283 44.7151H63.4283C63.514 44.7151 63.514 44.6303 63.514 44.6303V44.206C63.514 44.1212 63.514 44.1212 63.4283 44.1212H61.114V41.5757H63.0855C63.1712 41.5757 63.1712 41.4909 63.1712 41.4909V41.0666C63.1712 40.9818 63.1712 40.9818 63.0855 40.9818H61.114V38.8606H63.3426C63.4283 38.8606 63.4283 38.8606 63.4283 38.7757L63.5997 38.2666C63.5997 38.2666 63.5998 38.1818 63.514 38.1818H60.4283C60.3426 38.1818 60.3426 38.2666 60.3426 38.2666V44.7151H60.4283V44.7151ZM36.9426 47.8545H33.1712C33.0855 47.8545 33.0855 47.9394 33.0855 47.9394V54.3878C33.0855 54.4727 33.0855 54.4727 33.1712 54.4727H33.7712C33.8569 54.4727 33.8569 54.3878 33.8569 54.3878V48.5333H36.3426V54.3878C36.3426 54.4727 36.4283 54.4727 36.4283 54.4727H37.0283C37.114 54.4727 37.114 54.4727 37.114 54.3878V47.9394C37.0283 47.9394 37.0283 47.8545 36.9426 47.8545V47.8545ZM39.8569 47.8545H38.314C38.2283 47.8545 38.2283 47.9394 38.2283 47.9394V54.3878C38.2283 54.4727 38.2283 54.4727 38.314 54.4727H38.914C38.9997 54.4727 38.9997 54.4727 38.9997 54.3878V51.6727H39.6855C40.114 51.6727 41.8283 51.6727 41.8283 49.5515C41.8283 47.8545 40.5426 47.8545 39.8569 47.8545V47.8545ZM39.5997 50.9939H38.9997V48.4485H39.7712C40.4569 48.4485 41.0569 48.5333 41.0569 49.6363C41.0569 50.9939 40.114 50.9939 39.5997 50.9939V50.9939ZM44.314 47.6848C42.1712 47.6848 42.0855 50.4 42.0855 51.1636C42.0855 54.1333 43.3712 54.6424 44.314 54.6424C45.1712 54.6424 46.5426 54.1333 46.5426 51.1636C46.5426 48.1939 45.1712 47.6848 44.314 47.6848ZM44.314 53.9636C42.9426 53.9636 43.0283 52.0121 43.0283 51.1636C43.0283 50.3151 43.0283 48.3636 44.314 48.3636C45.5997 48.3636 45.5997 49.8909 45.5997 51.1636C45.5997 52.0969 45.6855 53.9636 44.314 53.9636ZM63.7712 53.8788H63.5997C63.514 53.8788 63.3426 53.7939 63.1712 53.7091C63.0855 53.6242 63.0855 53.5394 62.9997 53.2L62.6569 51.9272C62.5712 51.7575 62.4855 51.3333 61.8855 51.0788C62.3997 50.8242 62.4855 50.4 62.6569 49.8909L62.8283 49.3818C62.914 48.9575 62.9998 48.7878 63.0855 48.703C63.2569 48.5333 63.4283 48.4485 63.514 48.4485H63.6855C63.8569 48.4485 63.8569 48.3636 63.8569 48.2787L63.6855 47.8545C63.6855 47.7697 63.5997 47.7697 63.5997 47.7697H63.4283C63.1712 47.7697 62.914 47.8545 62.6569 48.1939C62.3998 48.4485 62.314 48.7878 62.2283 49.2121L62.0569 49.9757C61.8855 50.7394 61.6283 50.8242 61.2855 50.8242H60.7712V48.1091C60.7712 48.0242 60.7712 48.0242 60.6855 48.0242H60.0855C59.9998 48.0242 59.9997 48.1091 59.9997 48.1091V50.8242H59.4855C59.1426 50.8242 58.8855 50.8242 58.6283 49.9757L58.4569 49.2121C58.3712 48.7878 58.1997 48.3636 58.0283 48.1939C57.7712 47.9394 57.514 47.8545 57.2569 47.7697H57.1712C57.0855 47.7697 56.9997 47.7697 56.9997 47.8545L56.8283 48.2787C56.8283 48.3636 56.8283 48.3636 56.9997 48.4485H57.1712C57.2569 48.4485 57.4283 48.4484 57.5997 48.703C57.6855 48.7878 57.6855 48.9575 57.8569 49.3818L58.0283 49.8909C58.114 50.3151 58.2855 50.7394 58.7998 51.0788C58.1998 51.3333 58.114 51.7575 58.0283 51.9272L57.6855 53.2C57.5997 53.5394 57.514 53.6242 57.514 53.7091C57.4283 53.7939 57.2569 53.8788 57.0855 53.8788H56.914L55.0283 47.9394C55.0283 47.8545 54.9426 47.8545 54.8569 47.8545H54.2569C54.1712 47.8545 54.1712 47.8545 54.0855 47.9394L52.1997 53.8788C52.1997 53.8788 52.1997 53.7939 52.0283 53.7939H51.514V47.9394C51.514 47.6848 51.4283 47.7697 51.3426 47.7697H47.9997C47.914 47.7697 47.8283 47.7697 47.8283 47.9394V48.5333C47.8283 50.5697 47.8283 52.0121 46.9712 53.7091H46.6283C46.3712 53.7091 46.4569 53.7939 46.4569 53.8788V55.7454C46.4569 55.8303 46.4569 55.8303 46.5426 55.8303H47.1426C47.2283 55.8303 47.2283 55.8303 47.2283 55.7454V54.3878H50.9997V55.7454C50.9997 55.8303 51.0855 55.8303 51.0855 55.8303H51.6855C51.7712 55.8303 51.7712 55.8303 51.7712 55.7454V54.3878H52.3712C52.5426 54.3878 52.5426 54.3878 52.5426 54.303L53.0569 52.4363H55.114L55.6283 54.303C55.6283 54.3878 55.714 54.3878 55.7998 54.3878H56.4855C56.4855 54.4727 56.4855 54.4727 56.5712 54.4727H56.914C57.3426 54.3878 57.5997 54.2181 57.7712 54.0484C57.9426 53.7939 58.0283 53.4545 58.114 53.0303L58.3712 52.0121C58.5426 51.2485 58.7998 51.1636 59.2283 51.1636H59.7426V54.1333C59.7426 54.2182 59.8283 54.2181 59.8283 54.2181H60.4283C60.514 54.2181 60.514 54.1333 60.514 54.1333V51.1636H61.0283C61.4569 51.1636 61.6283 51.2485 61.8855 52.0121L62.1426 53.0303C62.2283 53.4545 62.314 53.7939 62.4855 54.0484C62.5712 54.2181 62.8283 54.3878 63.3426 54.4727H63.6855C63.7712 54.4727 63.7712 54.4727 63.7712 54.3878L63.9426 53.9636C63.9426 54.0485 63.9426 53.9636 63.7712 53.8788V53.8788ZM50.314 53.8788H47.8283C48.3426 52.6909 48.514 51.4182 48.514 49.7212V48.6182H50.314V53.8788V53.8788ZM53.2283 51.8424L53.8283 49.7212C53.8283 49.6363 53.9997 49.2121 53.9997 48.7878C54.0855 49.2969 54.1712 49.4666 54.2569 49.7212L54.8569 51.8424H53.2283V51.8424Z" fill="#760900"/>
</g>
<defs>
<clipPath id="clip0_230_22899">
<rect width="132" height="56" fill="white"/>
</clipPath>
</defs>
</svg>
