<svg width="55" height="54" viewBox="0 0 55 54" fill="none" xmlns="http://www.w3.org/2000/svg">
<g clip-path="url(#clip0_230_22900)">
<path d="M26.9859 51.4725C30.1445 51.4725 32.7048 48.9512 32.7048 45.8415C32.7048 42.7312 30.1445 40.21 26.9859 40.21C23.8279 40.21 21.2676 42.7312 21.2676 45.8415C21.2676 48.9512 23.8279 51.4725 26.9859 51.4725Z" fill="#DF2926"/>
<path d="M3.33008 0.213867V8.89228L11.477 0.213867H3.33008Z" fill="#DF2926"/>
<path d="M54.1304 14.0213L40.8133 0.946205C40.3429 0.483361 39.7165 0.251953 39.0897 0.251953H26.9866C31.7652 0.251953 35.643 4.14758 35.4474 8.93007C35.2903 13.2497 31.6871 16.7596 27.3001 16.9526C22.4823 17.1455 18.4872 13.3273 18.4872 8.62164C18.4872 4.03176 22.2866 0.290517 26.9477 0.290517H16.5288H15.5889L7.79431 8.66023L16.9208 16.9526H12.4554L5.71838 10.8199L3.2901 13.4427V16.9526H0V19.1126H3.05511H3.2901V27.7905L11.437 19.1126H15.5889L7.79431 27.4435L16.9208 35.7361H12.4554L5.75757 29.5266L3.3293 32.1491V35.659H3.0943H0.0391595V52.2822C0.0391595 51.2025 0.940049 50.3541 2.03674 50.3924C3.05511 50.431 3.87764 51.2408 3.9168 52.244C3.95596 53.3236 3.05511 54.1724 1.99758 54.1724H10.7322C5.95354 54.1724 2.0759 50.2769 2.27173 45.4941C2.42841 41.1744 5.99273 37.6646 10.3794 37.5102C13.5129 37.3944 16.294 38.899 17.8604 41.2902L15.5497 42.7558C14.4137 41.0586 12.4554 40.0558 10.3794 40.2099C7.48109 40.4029 5.13114 42.7558 5.01356 45.6099C4.89598 48.811 7.52029 51.4724 10.7322 51.4724C12.651 51.4724 14.4137 50.5468 15.4713 48.9653L17.7432 50.4696C16.2156 52.6682 13.6305 54.1338 10.7322 54.1338H27.0257C22.2474 54.1338 18.3699 50.2383 18.5656 45.4558C18.7224 41.1358 22.3258 37.626 26.7129 37.433C31.5304 37.2404 35.5254 41.0586 35.5254 45.7643C35.5254 50.3541 31.726 54.0952 27.0653 54.0952H37.797V37.4719L41.0873 37.5102L46.3751 46.3811L51.6626 37.4719L54.9529 37.5102V37.4719V15.6413C54.8353 15.0627 54.5609 14.4455 54.1304 14.0213ZM26.9866 35.659C22.3258 35.659 18.5264 31.9175 18.5264 27.3277C18.5264 22.7382 22.3258 18.9968 26.9866 18.9968C31.6479 18.9968 35.4474 22.7382 35.4474 27.3277C35.4474 31.9565 31.6479 35.659 26.9866 35.659ZM46.3751 32.9979C48.2943 32.9979 50.0566 32.0719 51.1142 30.4905L53.3861 31.9947C51.8585 34.1933 49.2734 35.659 46.3751 35.659C41.7137 35.659 37.9149 31.9175 37.9149 27.3277C37.9149 22.7382 41.7137 18.9968 46.3751 18.9968C49.3518 18.9968 51.9761 20.501 53.4645 22.7768L51.1534 24.2421C50.0958 22.6221 48.2943 21.6582 46.3359 21.6582C43.1632 21.6582 40.6173 24.2038 40.6173 27.2894C40.6173 30.3747 43.2024 32.9979 46.3751 32.9979Z" fill="#DF2926"/>
<path d="M46.2575 52.7843L45.2 51.01L40.9697 43.9131V54.1728H51.545V43.9131L47.2367 51.1643L46.2575 52.7843Z" fill="#DF2926"/>
<path d="M26.9859 14.1765C30.1445 14.1765 32.7048 11.6553 32.7048 8.54525C32.7048 5.43521 30.1445 2.91406 26.9859 2.91406C23.8279 2.91406 21.2676 5.43521 21.2676 8.54525C21.2676 11.6553 23.8279 14.1765 26.9859 14.1765Z" fill="#DF2926"/>
<path d="M26.9868 32.9594C30.1455 32.9594 32.7058 30.4382 32.7058 27.3282C32.7058 24.2185 30.1455 21.6973 26.9868 21.6973C23.8289 21.6973 21.2686 24.2185 21.2686 27.3282C21.2686 30.4382 23.8289 32.9594 26.9868 32.9594Z" fill="#DF2926"/>
</g>
<defs>
<clipPath id="clip0_230_22900">
<rect width="55" height="54" fill="white"/>
</clipPath>
</defs>
</svg>
