<svg width="163" height="44" viewBox="0 0 163 44" fill="none" xmlns="http://www.w3.org/2000/svg">
<g clip-path="url(#clip0_230_22892)">
<path d="M135.618 6.04096C135.413 6.07 134.697 6.17165 134.01 6.25878C131.599 6.56373 129.29 7.23172 127.171 8.21917C122.553 10.3683 119.528 13.9116 118.417 18.4568C118.008 20.1413 118.052 24.1637 118.505 25.9208C119.177 28.5492 120.405 30.6113 122.407 32.5426C125.066 35.0839 128.442 36.7248 132.841 37.6251C134.376 37.9446 134.872 37.9736 138.541 37.9736C141.683 37.9591 142.822 37.9155 143.802 37.7268C144.488 37.5816 145.278 37.4363 145.555 37.3783C147.484 37.0297 151.503 35.5631 153.081 34.6482C153.637 34.3142 153.739 34.1981 153.812 33.6317C153.929 32.8766 153.856 27.7941 153.724 27.6779C153.681 27.6344 153.081 27.9538 152.409 28.404C150.919 29.3915 148.098 30.771 146.505 31.2647C140.762 33.0799 134.507 32.8911 130.138 30.7855C126.206 28.8832 124.233 25.9208 124.219 21.8984C124.219 17.2515 126.776 14.0278 131.716 12.4304C136.012 11.0509 141.697 11.2106 146.695 12.866C148.858 13.5776 151.854 15.1314 153.228 16.235L153.666 16.5981L153.754 16.2495C153.885 15.8139 153.914 11.138 153.798 10.441C153.724 9.99079 153.578 9.84558 152.731 9.33733C150.217 7.79805 145.921 6.50564 141.975 6.09904C140.733 5.96835 136.422 5.92478 135.618 6.04096Z" fill="#E00C3C"/>
<path d="M15.3593 7.14474C15.2131 7.50777 11.0482 17.2371 10.7413 17.9342C10.6244 18.1665 9.65983 20.4319 8.5784 22.9441C7.49697 25.4563 5.68483 29.682 4.54494 32.3249C3.41967 34.9678 2.48438 37.1751 2.48438 37.2187C2.48438 37.2767 3.93116 37.3203 5.69945 37.3203C8.82684 37.3203 8.91452 37.3203 9.07528 37.0008C9.16296 36.8411 9.89366 35.1276 10.6828 33.2107C11.472 31.2939 12.1588 29.6966 12.2027 29.6385C12.2611 29.5949 16.4407 29.5368 21.5118 29.5078C31.6685 29.4642 31.2154 29.4352 31.5223 30.3645C31.61 30.6404 32.2969 32.2959 33.0568 34.053L34.4305 37.2477L37.7479 37.2913C39.5746 37.3058 41.0653 37.2913 41.0653 37.2622C41.0653 37.1896 38.7709 31.9329 37.4848 29.0431C37.2218 28.4477 36.5642 26.9375 36.0234 25.7032C35.4827 24.4688 34.9274 23.1909 34.7813 22.8715C34.6351 22.552 34.0944 21.3032 33.5683 20.1124C31.5954 15.5817 29.6225 11.08 29.3302 10.4556C29.1695 10.0926 28.7603 9.1487 28.4096 8.35002L27.7958 6.89787L24.7122 6.85431C23.017 6.83979 21.6287 6.85431 21.6287 6.88335C21.6287 6.91239 21.7748 7.26091 21.9356 7.65299C22.1109 8.03054 22.4032 8.71305 22.5786 9.1487C23.3531 11.0074 24.4346 13.5777 25.3552 15.756C25.896 17.0338 26.4805 18.4424 26.6705 18.8781C26.8459 19.3137 27.372 20.5626 27.825 21.6226C28.278 22.6972 28.6434 23.6701 28.6434 23.7718C28.6434 23.9315 27.2989 23.9606 21.6287 23.9606C17.5368 23.9606 14.614 23.9025 14.614 23.8299C14.614 23.7573 16.0315 20.2431 17.7706 16.0173C21.5848 6.81074 21.4972 7.02856 21.3802 6.91239C21.3218 6.86883 19.9773 6.82526 18.3844 6.82526C15.5054 6.82526 15.4762 6.82526 15.3593 7.14474Z" fill="#E00C3C"/>
<path d="M42.9648 22.0728V37.3203L45.8584 37.2913L48.7374 37.2477L48.8104 22.3051C48.8689 10.02 48.9127 7.49325 49.0735 8.0015C49.2196 8.52427 50.7102 14.9863 51.1487 16.9903C51.2071 17.2662 51.8355 20.0107 52.537 23.0893C53.2385 26.1678 53.8523 28.8398 53.8961 29.0431C54.0422 29.7837 53.8815 29.7692 59.9024 29.7692C63.0006 29.7692 65.6165 29.7111 65.7188 29.653C65.8065 29.5949 66.6249 26.3131 67.5309 22.3632C69.2261 14.8847 69.2846 14.6233 69.5477 13.4325C70.1468 10.6589 70.9068 7.60942 71.0237 7.49325C71.126 7.3916 71.1698 12.5612 71.1698 22.3342V37.3203L74.0634 37.2913L76.9423 37.2477V22.0728V6.89787L71.1844 6.85431C68.0132 6.83979 65.3681 6.86883 65.3096 6.92691C65.2219 7.02856 64.3743 10.5137 63.8628 12.9243C63.8044 13.2002 63.3806 15.0589 62.9129 17.0629C62.4453 19.0523 62.0215 20.9256 61.963 21.2015C61.5392 23.1909 60.1801 28.9269 60.0778 29.2028C59.9171 29.6675 60.1509 30.6114 57.6519 19.5315C57.3011 18.0068 56.5851 14.8411 56.0443 12.4886C55.5036 10.1362 55.0068 7.97246 54.9483 7.68203C54.9045 7.40612 54.8022 7.08665 54.7437 6.99952C54.6706 6.86883 53.0777 6.82526 48.7958 6.82526H42.9648V22.0728Z" fill="#E00C3C"/>
<path d="M80.5962 6.99942C80.5524 7.10107 80.5377 13.9552 80.5524 22.2179L80.5962 37.2476L91.1183 37.2912C102.327 37.3493 102.912 37.3202 105.221 36.6377C109.108 35.4905 112.674 32.441 114.559 28.6654C116.298 25.1512 116.503 20.3592 115.071 16.5981C113.58 12.6337 109.897 9.07599 105.849 7.68193C103.628 6.91229 103.891 6.92681 91.8782 6.86872C82.686 6.81064 80.6547 6.83968 80.5962 6.99942ZM102.619 12.6483C103.043 12.7354 103.949 13.0694 104.636 13.3889C105.645 13.8681 106.098 14.2021 107.121 15.2331C108.465 16.5691 109.064 17.542 109.62 19.241C109.897 20.0832 109.956 20.5625 109.941 22.0727C109.941 23.6265 109.883 24.0621 109.561 25.0496C108.538 28.1427 105.805 30.7275 102.766 31.4535C102.123 31.5988 100.179 31.6423 94.158 31.6568H86.3687V22.0727V12.4885H94.1141C99.1267 12.4885 102.123 12.5466 102.619 12.6483Z" fill="#E00C3C"/>
<path d="M135.91 24.5412V27.3002L144.795 27.3293C149.677 27.3583 153.695 27.3583 153.739 27.3293C153.841 27.2567 153.915 22.5227 153.827 22.1161L153.739 21.7821H144.825H135.91V24.5412Z" fill="#E00C3C"/>
</g>
<defs>
<clipPath id="clip0_230_22892">
<rect width="161" height="32" fill="white" transform="matrix(1 0 0 -1 2 38)"/>
</clipPath>
</defs>
</svg>
