<svg width="154" height="36" viewBox="0 0 154 36" fill="none" xmlns="http://www.w3.org/2000/svg">
<g clip-path="url(#clip0_230_22906)">
<path fill-rule="evenodd" clip-rule="evenodd" d="M9.88102 12.6172C7.4243 12.6172 5.3552 13.5357 3.84689 15.0434V12.9917H0.148682V35.9625H3.84689V29.0059C5.3552 30.5136 7.4243 31.4319 9.88102 31.4319C15.1433 31.4319 19.4092 27.2201 19.4092 22.0246C19.4092 16.8291 15.1433 12.6172 9.88102 12.6172ZM9.88102 27.9824C6.54856 27.9824 3.84689 25.315 3.84689 22.0246C3.84689 18.7342 6.54856 16.0669 9.88102 16.0669C13.2136 16.0669 15.9153 18.7342 15.9153 22.0246C15.9153 25.315 13.2136 27.9824 9.88102 27.9824Z" fill="#433C7B"/>
<path fill-rule="evenodd" clip-rule="evenodd" d="M96.2897 31.4319C98.7466 31.4319 100.816 30.5136 102.324 29.0059V31.0575H106.022V12.9917H102.324V15.0433C100.816 13.5357 98.7466 12.6172 96.2897 12.6172C91.0275 12.6172 86.7617 16.8291 86.7617 22.0246C86.7617 27.2201 91.0275 31.4319 96.2897 31.4319ZM96.2897 15.8747C99.7298 15.8747 102.518 18.628 102.518 22.0246C102.518 25.421 99.7298 28.1745 96.2897 28.1745C92.8496 28.1745 90.0611 25.421 90.0611 22.0246C90.0611 18.628 92.8496 15.8747 96.2897 15.8747Z" fill="#433C7B"/>
<path fill-rule="evenodd" clip-rule="evenodd" d="M42.3903 12.6172C37.1282 12.6172 32.8623 16.8291 32.8623 22.0246C32.8623 27.2201 37.1282 31.4319 42.3903 31.4319C47.6527 31.4319 51.9184 27.2201 51.9184 22.0246C51.9184 16.8291 47.6527 12.6172 42.3903 12.6172ZM42.3903 28.1745C38.9504 28.1745 36.1617 25.421 36.1617 22.0246C36.1617 18.628 38.9504 15.8747 42.3903 15.8747C45.8303 15.8747 48.6191 18.628 48.6191 22.0246C48.6191 25.421 45.8303 28.1745 42.3903 28.1745Z" fill="#433C7B"/>
<path fill-rule="evenodd" clip-rule="evenodd" d="M130.464 12.6172C125.201 12.6172 120.936 16.8291 120.936 22.0246C120.936 27.2201 125.201 31.4319 130.464 31.4319C135.726 31.4319 139.992 27.2201 139.992 22.0246C139.992 16.8291 135.726 12.6172 130.464 12.6172ZM130.464 28.1745C127.023 28.1745 124.235 25.421 124.235 22.0246C124.235 18.628 127.023 15.8747 130.464 15.8747C133.904 15.8747 136.692 18.628 136.692 22.0246C136.692 25.421 133.904 28.1745 130.464 28.1745Z" fill="#433C7B"/>
<path fill-rule="evenodd" clip-rule="evenodd" d="M33.4564 12.7729C32.8985 12.6724 32.3245 12.6172 31.7373 12.6172C29.2806 12.6172 27.2114 13.5357 25.7031 15.0433V12.9917H22.0049V31.0575H25.7031V22.0246C25.7031 19.0141 27.9648 16.5269 30.9018 16.125C31.5636 14.8711 32.4294 13.74 33.4564 12.7729Z" fill="#433C7B"/>
<path fill-rule="evenodd" clip-rule="evenodd" d="M154 12.7729C153.442 12.6724 152.868 12.6172 152.281 12.6172C149.824 12.6172 147.755 13.5357 146.247 15.0433V12.9917H142.549V31.0575H146.247V22.0246C146.247 19.0141 148.509 16.5269 151.446 16.125C152.108 14.8711 152.973 13.74 154 12.7729Z" fill="#433C7B"/>
<path fill-rule="evenodd" clip-rule="evenodd" d="M70.513 31.058H66.8271V12.9922H70.513V31.058Z" fill="#433C7B"/>
<path fill-rule="evenodd" clip-rule="evenodd" d="M71.038 7.10584C71.038 8.39237 69.9817 9.43531 68.6787 9.43531C67.3755 9.43531 66.3193 8.39237 66.3193 7.10584C66.3193 5.81932 67.3755 4.77637 68.6787 4.77637C69.9817 4.77637 71.038 5.81932 71.038 7.10584Z" fill="#433C7B"/>
<path fill-rule="evenodd" clip-rule="evenodd" d="M65.861 1.40173C64.6876 0.563166 63.2465 0.0673828 61.6874 0.0673828C57.7502 0.0673828 54.5586 3.21864 54.5586 7.10599V31.057H58.2571V16.2586H62.538V12.9913H58.2571V7.10599C58.2571 5.23554 59.7928 3.71925 61.6874 3.71925C62.1763 3.71925 62.6401 3.82261 63.061 4.00491C63.6885 2.90178 64.6496 1.98058 65.861 1.40173Z" fill="#433C7B"/>
<path fill-rule="evenodd" clip-rule="evenodd" d="M82.8248 27.7901C81.2393 27.7901 79.954 26.5212 79.954 24.9557V16.2593H83.5493V12.992H79.954V5.40234L76.2555 5.96121C76.2555 5.96121 76.2555 9.38504 76.2555 12.992H74.7773V16.2593H76.2555C76.2555 20.3475 76.2555 24.2955 76.2555 24.9557C76.2555 28.538 79.1966 31.4422 82.8248 31.4422C84.1815 31.4422 85.4414 31.0348 86.4881 30.3391C85.6589 29.388 84.9983 28.3456 84.5003 27.2501C84.0288 27.5878 83.452 27.7901 82.8248 27.7901Z" fill="#433C7B"/>
<path fill-rule="evenodd" clip-rule="evenodd" d="M117.071 27.7901C115.485 27.7901 114.2 26.5212 114.2 24.9557V16.2593H117.795V12.992H114.2V5.40234L110.502 5.96121C110.502 5.96121 110.502 9.38504 110.502 12.992H109.023V16.2593H110.502C110.502 20.3475 110.502 24.2955 110.502 24.9557C110.502 28.538 113.443 31.4422 117.071 31.4422C118.428 31.4422 119.688 31.0348 120.734 30.3391C119.905 29.388 119.245 28.3456 118.747 27.2501C118.275 27.5878 117.698 27.7901 117.071 27.7901Z" fill="#433C7B"/>
</g>
<defs>
<clipPath id="clip0_230_22906">
<rect width="154" height="36" fill="white"/>
</clipPath>
</defs>
</svg>
