<svg width="159" height="58" viewBox="0 0 159 58" fill="none" xmlns="http://www.w3.org/2000/svg">
<path fill-rule="evenodd" clip-rule="evenodd" d="M27.1208 17.7464L39.0731 38.9263C39.4933 39.6412 40.1792 40.1605 40.9808 40.3709C41.7825 40.5813 42.6347 40.4656 43.3514 40.0491L44.1343 39.585C44.489 39.3791 44.7997 39.105 45.0484 38.7787C45.2971 38.4523 45.4791 38.0801 45.5838 37.6832C45.6885 37.2863 45.7139 36.8727 45.6585 36.466C45.6031 36.0593 45.4681 35.6675 45.2612 35.3131L33.2939 14.1233C32.8774 13.4086 32.1946 12.8884 31.3953 12.677C30.596 12.4655 29.7456 12.5801 29.0306 12.9954L28.2627 13.4745C27.5463 13.8918 27.0241 14.5758 26.8102 15.3772C26.5962 16.1786 26.7079 17.0322 27.1208 17.7514" fill="#C92027"/>
<path fill-rule="evenodd" clip-rule="evenodd" d="M30.0482 57.2314C25.354 57.2367 20.7335 56.0631 16.61 53.8179L15.6476 53.249C14.1517 52.3507 13.9523 50.3345 14.775 48.982L15.1839 48.2834C15.3616 47.9656 15.6013 47.6869 15.8887 47.4638C16.1762 47.2406 16.5056 47.0776 16.8573 46.9845C17.209 46.8914 17.5759 46.87 17.936 46.9217C18.2961 46.9734 18.6422 47.097 18.9536 47.2853L19.3375 47.5348L19.8362 47.8392C24.2599 50.237 29.3862 50.9984 34.315 49.9899C39.2438 48.9813 43.6601 46.2671 46.7885 42.324C49.9168 38.3808 51.5572 33.4607 51.4217 28.4275C51.2861 23.3944 49.3833 18.5698 46.0473 14.8011C42.7113 11.0323 38.1554 8.56015 33.1794 7.81873C28.2035 7.07731 23.1256 8.11399 18.8373 10.7468C14.5491 13.3795 11.3246 17.4401 9.73004 22.2155C8.13547 26.9909 8.27274 32.1759 10.1178 36.86L10.2923 37.2493L18.6045 28.1416L18.6793 27.9869C18.9657 27.5615 19.3516 27.2127 19.8036 26.9708C20.2556 26.729 20.7598 26.6015 21.2722 26.5995L28.8016 26.6893C29.6313 26.688 30.4276 27.0162 31.0156 27.602C31.6037 28.1877 31.9354 28.9831 31.9381 29.8134V30.7267C31.9407 31.1369 31.8625 31.5437 31.7081 31.9237C31.5537 32.3038 31.3259 32.6496 31.0379 32.9416C30.7499 33.2335 30.4073 33.4659 30.0296 33.6253C29.6519 33.7847 29.2465 33.8681 28.8365 33.8707L23.4862 33.7958L12.2519 45.4138C10.756 47.0008 8.1631 46.7313 7.19076 45.4138C6.40292 44.3858 6.36802 44.241 5.58516 43.0533C2.49678 37.6654 1.27008 31.4085 2.09511 25.252C2.92015 19.0956 5.75086 13.3833 10.1487 9.00033C14.5464 4.61733 20.2658 1.80831 26.4205 1.00849C32.5752 0.208674 38.8217 1.46272 44.192 4.57633C49.5624 7.68993 53.7568 12.4893 56.1254 18.2307C58.494 23.9721 58.9045 30.3351 57.2934 36.3337C55.6822 42.3323 52.1394 47.6317 47.2137 51.4107C42.288 55.1897 36.2546 57.2374 30.0482 57.2364" fill="#C92027"/>
<path d="M77.6229 37.0649C80.9837 37.1947 83.8808 35.6177 85.0526 33.6464L85.0875 33.5965V36.6408H88.8422V27.5779C88.8422 23.5656 87.7336 20.5064 85.5163 18.4003C83.6348 16.6038 81.1981 15.7038 78.2063 15.7005C76.7699 15.6654 75.341 15.918 74.0035 16.4434C72.666 16.9687 71.4468 17.7562 70.4176 18.7597C68.3001 20.7958 67.2397 23.4375 67.2363 26.6846C67.2363 29.7887 68.2336 32.2973 70.2281 34.2104C71.2106 35.1524 72.3701 35.8898 73.6395 36.3798C74.9089 36.8699 76.2629 37.1027 77.6229 37.0649ZM73.0903 21.215C73.7532 20.5803 74.5351 20.0832 75.3909 19.7526C76.2468 19.422 77.1596 19.2643 78.0767 19.2887C79.7316 19.2177 81.3562 19.7496 82.6492 20.7858C84.2082 22.1166 85.0144 24.2326 85.0675 27.1338C84.3196 31.9846 79.772 33.5666 78.1664 33.4817C76.4623 33.5216 74.7983 32.9618 73.4643 31.8997C71.8687 30.6155 71.0725 28.7857 71.0758 26.4102C71.0858 24.2343 71.749 22.4976 73.0903 21.215Z" fill="#111111"/>
<path d="M101.817 19.2881H102.316V15.6999H101.672C100.674 15.6708 99.6786 15.816 98.7303 16.1291C97.5402 16.578 96.5249 17.3965 95.8332 18.4647V16.1291H92.248V36.6402H95.9978V26.8987C95.9978 24.3868 96.5097 22.4638 97.5336 21.1296C98.486 19.907 99.9071 19.2881 101.817 19.2881Z" fill="#111111"/>
<path d="M115.051 33.0526H111.121C109.441 33.0526 108.404 32.7183 108 32.0545C107.801 31.7385 107.701 30.8701 107.701 29.4495V19.7179H115.051V16.1297H107.706V10.9795H103.956V29.7589C103.956 32.6933 104.834 34.7045 106.604 35.7874C107.785 36.4133 109.113 36.7081 110.448 36.6408H115.056L115.051 33.0526Z" fill="#111111"/>
<path d="M119.613 13.8241C119.955 13.842 120.297 13.7775 120.609 13.636C120.922 13.4945 121.196 13.28 121.408 13.0106C121.738 12.5994 121.915 12.0858 121.907 11.5584C121.9 10.981 121.694 10.4237 121.323 9.98139C121.113 9.73816 120.849 9.54775 120.552 9.42552C120.255 9.30329 119.933 9.25266 119.613 9.27773C119.272 9.26017 118.932 9.3249 118.621 9.46647C118.311 9.60804 118.039 9.8223 117.828 10.0912C117.499 10.5009 117.322 11.0127 117.329 11.5384C117.329 12.1087 117.525 12.6618 117.883 13.1055C118.094 13.354 118.36 13.5487 118.661 13.6737C118.962 13.7986 119.288 13.8502 119.613 13.8241Z" fill="#111111"/>
<path d="M121.488 16.1289H117.743V36.64H121.488V16.1289Z" fill="#111111"/>
<path d="M132.418 16.5341C131.212 16.8276 130.069 17.3346 129.042 18.0313C127.548 19.0093 126.365 20.3946 125.631 22.0237C125.006 23.4061 124.688 24.9079 124.699 26.4254C124.675 27.7195 124.908 29.0055 125.384 30.209C125.86 31.4126 126.569 32.5097 127.471 33.4371C129.522 35.5963 132.295 36.6776 135.789 36.6809H138.481V33.0528H135.923C133.525 33.0528 131.67 32.3641 130.339 31.0017C129.744 30.3928 129.278 29.6702 128.969 28.8771C128.659 28.0839 128.513 27.2365 128.538 26.3854C128.504 24.7741 129.065 23.2067 130.114 21.9838C131.424 20.4733 133.315 19.7181 135.789 19.7181H138.481V16.1299H135.963C134.77 16.1292 133.58 16.2648 132.418 16.5341Z" fill="#111111"/>
<path d="M153.52 36.2963C154.677 35.9606 155.686 35.2386 156.377 34.2502C156.696 33.7804 156.93 33.2585 157.07 32.7081C157.23 32.1245 157.309 31.5216 157.304 30.9165C157.308 29.7525 156.918 28.6215 156.197 27.7076C155.459 26.7394 154.093 25.906 152.104 25.1874C150.259 24.6434 148.419 24.0944 146.594 23.5255C146.057 23.3667 145.552 23.1187 145.098 22.7919C144.869 22.6158 144.685 22.3888 144.559 22.1289C144.434 21.869 144.371 21.5834 144.375 21.2948C144.367 21.0595 144.423 20.8265 144.536 20.6202C144.649 20.4139 144.815 20.2418 145.018 20.122C145.536 19.8303 146.125 19.6902 146.718 19.7177H156.367V16.1296H147.795C146.69 16.0998 145.585 16.2156 144.509 16.4739C143.281 16.7866 142.196 17.5082 141.433 18.52C141.052 18.9943 140.789 19.5517 140.665 20.1469C140.579 20.6549 140.536 21.169 140.535 21.684C140.548 22.7946 140.927 23.8699 141.612 24.7432C142.33 25.7014 143.66 26.5332 145.601 27.2385C147.456 27.8423 149.311 28.4212 151.196 28.9952C151.78 29.1694 152.33 29.4428 152.822 29.8036C153.044 29.9934 153.22 30.2302 153.339 30.497C153.458 30.7637 153.517 31.0536 153.51 31.3457C153.532 31.7229 153.413 32.0948 153.176 32.3891C152.939 32.6833 152.601 32.8789 152.228 32.9377C151.61 33.0472 150.981 33.089 150.353 33.0624H140.535V36.6506H150.588C151.577 36.6709 152.564 36.5517 153.52 36.2963Z" fill="#111111"/>
<path d="M68.6967 41.1621H67.2207V48.5132H68.6967V41.1621Z" fill="#4F504F"/>
<path d="M68.6967 38.6465H67.2207V40.1237H68.6967V38.6465Z" fill="#4F504F"/>
<path d="M73.4985 40.9675C73.1188 40.9574 72.7434 41.0499 72.4117 41.2352C72.0801 41.4205 71.8044 41.6918 71.6137 42.0206H71.5738V41.1622H70.1826V48.5082H71.6536V43.5776C71.6536 42.5795 72.227 42.1453 72.8304 42.1453C73.5933 42.1453 73.8526 42.4847 73.8526 43.4678V48.5082H75.3485V42.9638C75.3285 41.4766 74.6155 40.9675 73.4985 40.9675Z" fill="#4F504F"/>
<path d="M78.5801 39.0713H77.0842V41.1623H76.0869V42.2552H77.0842V46.8166C77.0842 48.3138 77.5828 48.5932 78.5801 48.5932C78.981 48.6028 79.3815 48.5609 79.7718 48.4685V47.3755C79.5955 47.4044 79.417 47.4177 79.2383 47.4155C78.7397 47.4155 78.5701 47.2258 78.5701 46.6369V42.2552H79.7818V41.1623H78.5801V39.0713Z" fill="#4F504F"/>
<path d="M83.073 40.9668C80.7793 40.9668 80.3555 43.0179 80.3555 44.9592C80.3555 48.3578 81.8514 48.7171 83.0431 48.7171C84.6388 48.7171 85.6211 47.719 85.6211 46.0671H84.2299C84.2299 46.5163 84.1102 47.704 83.0581 47.704C82.006 47.704 81.8265 46.4115 81.8265 45.4483V45.0241H85.6659V44.2456C85.6659 42.2094 85.1174 40.9668 83.073 40.9668ZM84.19 44.016H81.8265V43.8663C81.8265 42.9081 82.1306 41.9799 83.0581 41.9799C83.8908 41.9799 84.19 42.6885 84.19 43.6168V44.016Z" fill="#4F504F"/>
<path d="M88.3827 42.3047H88.3528V41.1618H86.8818V48.5079H88.3528V44.1112C88.3528 42.7438 89.1606 42.4444 89.8487 42.4444C90.056 42.4408 90.2626 42.4677 90.462 42.5242V41.0271C90.3493 40.9838 90.2286 40.965 90.108 40.9722C89.2553 40.9672 88.7118 41.4862 88.3827 42.3047Z" fill="#4F504F"/>
<path d="M94.5016 40.9676C94.1218 40.957 93.7461 41.0492 93.4144 41.2345C93.0826 41.4199 92.807 41.6915 92.6167 42.0206H92.5768V41.1623H91.1807V48.5083H92.6766V43.5777C92.6766 42.5796 93.25 42.1454 93.8484 42.1454C94.6163 42.1454 94.8756 42.4848 94.8756 43.4679V48.5083H96.3715V42.9638C96.3266 41.4767 95.6185 40.9676 94.5016 40.9676Z" fill="#4F504F"/>
<path d="M100.261 40.9678C97.9668 40.9678 97.543 43.0189 97.543 44.9602C97.543 48.3588 99.0389 48.7181 100.236 48.7181C101.831 48.7181 102.814 47.72 102.814 46.0681H101.422C101.422 46.5172 101.298 47.705 100.246 47.705C99.1935 47.705 99.0189 46.4474 99.0189 45.4642V45.0401H102.853V44.2466C102.853 42.2104 102.31 40.9678 100.261 40.9678ZM101.382 44.017H99.0189V43.8673C99.0189 42.9091 99.3181 41.9809 100.246 41.9809C101.078 41.9809 101.382 42.6895 101.382 43.6178V44.017Z" fill="#4F504F"/>
<path d="M105.9 39.0713H104.404V41.1623H103.407V42.2552H104.404V46.8166C104.404 48.3138 104.903 48.5932 105.9 48.5932C106.3 48.6028 106.699 48.5609 107.087 48.4685V47.3755C106.911 47.4046 106.732 47.4179 106.554 47.4155C106.055 47.4155 105.885 47.2258 105.885 46.6369V42.2552H107.087V41.1623H105.885L105.9 39.0713Z" fill="#4F504F"/>
<path d="M114.273 44.3412L113.33 44.0168C112.553 43.7423 112.293 43.5177 112.293 42.9338C112.293 42.2401 112.757 41.9806 113.345 41.9806C114.108 41.9806 114.313 42.5246 114.313 43.1135V43.3031H115.684V42.9738C115.684 42.0605 115.26 40.9775 113.39 40.9775C111.864 40.9775 110.897 41.6213 110.897 42.9738C110.845 43.4455 110.969 43.9198 111.245 44.3057C111.521 44.6916 111.93 44.9619 112.393 45.0648L113.674 45.5189C113.912 45.5792 114.122 45.719 114.269 45.9152C114.415 46.1113 114.491 46.3519 114.482 46.5969C114.482 47.2656 114.098 47.6748 113.281 47.6748C112.463 47.6748 112.134 47.2257 112.134 46.3623V46.1328H110.822V46.4122C110.822 47.8345 111.381 48.6979 113.241 48.6979C114.712 48.6979 115.873 48.0292 115.873 46.4571C115.868 45.2993 115.365 44.7105 114.273 44.3412Z" fill="#4F504F"/>
<path d="M119.403 40.9678C117.274 40.9678 116.676 42.5398 116.676 44.8354C116.676 47.1311 117.384 48.7031 119.403 48.7031C121.423 48.7031 122.166 47.1311 122.166 44.8354C122.166 42.5398 121.532 40.9678 119.403 40.9678ZM119.403 47.6102C118.356 47.6102 118.147 46.7069 118.147 44.8354C118.147 43.2085 118.356 42.0607 119.403 42.0607C120.45 42.0607 120.675 43.2085 120.675 44.8354C120.67 46.7069 120.485 47.6102 119.403 47.6102Z" fill="#4F504F"/>
<path d="M124.828 38.7568H123.353V48.5083H124.828V38.7568Z" fill="#4F504F"/>
<path d="M129.985 46.2974C129.997 46.4592 129.975 46.6217 129.919 46.7742C129.864 46.9267 129.777 47.0656 129.664 47.1818C129.55 47.2979 129.414 47.3886 129.263 47.4478C129.112 47.507 128.95 47.5333 128.788 47.525C128.145 47.525 127.791 47.2506 127.791 46.4321V41.1621H126.295V46.2974C126.295 48.1938 127.033 48.7028 128.125 48.7028C128.505 48.7129 128.88 48.6205 129.212 48.4352C129.543 48.2499 129.819 47.9786 130.01 47.6498H130.05V48.5082H131.441V41.1621H129.945L129.985 46.2974Z" fill="#4F504F"/>
<path d="M134.712 39.0703H133.216V41.1613H132.219V42.2543H133.216V46.8156C133.216 48.3128 133.715 48.5923 134.712 48.5923C135.111 48.6018 135.51 48.5599 135.899 48.4675V47.3746C135.722 47.4036 135.544 47.417 135.365 47.4145C134.867 47.4145 134.697 47.2248 134.697 46.636V42.2543H135.899V41.1613H134.697L134.712 39.0703Z" fill="#4F504F"/>
<path d="M138.222 38.6467H136.746V40.1239H138.222V38.6467Z" fill="#4F504F"/>
<path d="M138.222 41.1619H136.746V48.5129H138.222V41.1619Z" fill="#4F504F"/>
<path d="M142.156 40.9668C140.022 40.9668 139.424 42.5388 139.424 44.8345C139.424 47.1301 140.132 48.7021 142.156 48.7021C144.181 48.7021 144.899 47.1301 144.899 44.8345C144.899 42.5388 144.286 40.9668 142.156 40.9668ZM142.156 47.6092C141.104 47.6092 140.9 46.7059 140.9 44.8345C140.9 43.2075 141.104 42.0597 142.156 42.0597C143.208 42.0597 143.423 43.2075 143.423 44.8345C143.423 46.7059 143.233 47.6092 142.156 47.6092Z" fill="#4F504F"/>
<path d="M149.351 40.9676C148.971 40.957 148.596 41.0492 148.264 41.2345C147.932 41.4199 147.657 41.6915 147.466 42.0206H147.426V41.1623H146.03V48.5083H147.526V43.5777C147.526 42.5796 148.1 42.1454 148.698 42.1454C149.466 42.1454 149.725 42.4848 149.725 43.4679V48.5083H151.196V42.9638C151.176 41.4767 150.468 40.9676 149.351 40.9676Z" fill="#4F504F"/>
<path d="M155.724 44.3412L154.787 44.0168C154.004 43.7423 153.745 43.5177 153.745 42.9338C153.745 42.2401 154.214 41.9806 154.797 41.9806C155.565 41.9806 155.764 42.5246 155.764 43.1135V43.3031H157.161V42.9738C157.161 42.0605 156.737 40.9775 154.867 40.9775C153.336 40.9775 152.374 41.6213 152.374 42.9738C152.323 43.4453 152.447 43.9191 152.723 44.3047C152.999 44.6903 153.407 44.9609 153.87 45.0648L155.151 45.5189C155.388 45.5793 155.597 45.7194 155.743 45.9156C155.889 46.1118 155.964 46.3523 155.954 46.5969C155.954 47.2656 155.575 47.6748 154.757 47.6748C153.939 47.6748 153.61 47.2257 153.61 46.3623V46.1328H152.299V46.4122C152.299 47.8345 152.857 48.6979 154.712 48.6979C156.208 48.6979 157.35 48.0292 157.35 46.4571C157.325 45.2993 156.816 44.7105 155.724 44.3412Z" fill="#4F504F"/>
</svg>
