<svg width="158" height="28" viewBox="0 0 158 28" fill="none" xmlns="http://www.w3.org/2000/svg">
<g clip-path="url(#clip0_230_22909)">
<path fill-rule="evenodd" clip-rule="evenodd" d="M149.873 7.39584C148.708 7.39584 146.325 7.93089 145.296 9.99884H145.154C145.154 9.99884 145.19 9.46439 145.19 9.28556C145.439 5.96956 147.389 3.83057 150.405 3.4738L156.082 2.6018L154.877 0.502197L150.12 1.22758C147.921 1.47767 146.075 2.40399 144.8 3.86649C143.452 5.4348 142.778 7.5738 142.778 10.213V14.0994C142.778 17.9145 145.83 20.8028 149.874 20.8028C153.812 20.8028 156.932 17.8433 156.932 14.0994C156.932 10.32 153.846 7.39584 149.873 7.39584ZM149.873 18.556C147.247 18.556 145.296 16.6312 145.296 14.0994C145.296 11.5672 147.247 9.64206 149.873 9.64206C152.464 9.64206 154.414 11.5672 154.414 14.0994C154.414 16.6312 152.464 18.556 149.873 18.556Z" fill="#001727"/>
<path fill-rule="evenodd" clip-rule="evenodd" d="M134.479 6.06055C132.362 6.06055 130.583 6.77873 129.33 8.13569C128.089 9.47918 127.409 11.2913 127.409 13.2394C127.409 15.3019 128.061 17.1183 129.295 18.4885C130.598 19.989 132.514 20.7819 134.843 20.7819C137.144 20.7819 139.148 19.9763 140.166 19.2858L140.257 19.2237L139.136 17.2719L139.105 17.2892L139.104 17.2895L139.092 17.2971L139.061 17.314L139.036 17.3284L139.03 17.3321C139.029 17.333 139.025 17.3345 139.025 17.3345L139.024 17.3356C137.673 18.1441 136.402 18.5207 135.023 18.5207C133.459 18.5207 132.179 17.9693 131.319 16.926C130.849 16.3714 130.268 15.4624 130.117 14.2485H140.989L140.995 14.1335C141.177 11.034 140.342 9.26729 139.606 8.3292C138.421 6.86641 136.601 6.06055 134.479 6.06055ZM134.479 8.29182C135.673 8.29182 136.732 8.73027 137.459 9.52376C138.055 10.2051 138.417 11.1283 138.51 12.1998H130.112C130.208 11.3057 130.611 10.3796 131.228 9.64392C131.986 8.75871 133.111 8.29182 134.479 8.29182Z" fill="#001727"/>
<path d="M98.5949 15.8788C99.2446 13.5541 99.4268 11.0667 99.4268 8.36386V6.60352H110.677V20.2732H108.16V8.85634H101.886C101.794 11.2259 101.658 13.5595 101.08 16.0076C100.722 17.4819 99.8419 19.2703 99.061 20.2735H96.3467V20.1869C96.3588 20.1577 96.4259 20.0567 96.5304 19.8991C96.9867 19.2116 98.1571 17.4478 98.5949 15.8788Z" fill="#001727"/>
<path fill-rule="evenodd" clip-rule="evenodd" d="M124.218 13.4685C123.814 13.2244 123.005 13.0106 122.625 12.982V12.853C123.109 12.7822 123.651 12.5703 124.059 12.2607C124.503 11.9182 125.004 11.3085 125.004 10.2997C125.004 7.78493 122.762 6.28418 119.004 6.28418C116.116 6.28418 113.538 6.84509 113.538 6.84509V19.9343C113.538 19.9343 116.13 20.4924 119.537 20.4924C125.478 20.4924 125.939 17.2132 125.939 16.208C125.939 14.6449 124.951 13.9106 124.218 13.4685ZM116.053 8.70894C116.32 8.66896 117.612 8.49563 119.004 8.49563C122.239 8.49563 122.492 9.88682 122.492 10.2994C122.492 10.712 122.239 12.0569 119.004 12.0569H116.053V8.70894ZM119.537 18.2801C118.688 18.2801 117.051 18.178 116.053 18.0279V14.182H119.537C122.404 14.182 123.427 15.2282 123.427 16.208C123.427 17.1867 122.404 18.2801 119.537 18.2801Z" fill="#001727"/>
<path fill-rule="evenodd" clip-rule="evenodd" d="M57.029 6.01489C59.2893 6.01489 61.3409 6.77733 62.8074 8.16279C64.2435 9.51834 65.0338 11.3747 65.0336 13.3875C65.0336 15.4009 64.2432 17.257 62.8071 18.6122C61.3407 19.9977 59.2889 20.761 57.0287 20.761C56.4491 20.761 54.9091 20.6578 54.0696 19.9899H53.9443L53.9436 26.4222H51.4299V7.12406C51.4299 7.12406 54.1216 6.01489 57.029 6.01489ZM53.9439 17.7396C54.9624 18.2236 56.2165 18.5026 57.029 18.5026C60.2338 18.5026 62.3854 16.4462 62.3854 13.3875C62.3854 10.3282 60.2338 8.27235 57.029 8.27235C56.2509 8.27235 55.1023 8.46755 53.9439 8.7786V17.7396Z" fill="#001727"/>
<path fill-rule="evenodd" clip-rule="evenodd" d="M88.7531 6.04004C85.7614 6.04004 83.9073 7.60692 83.9073 7.60692C83.9073 7.60692 84.8849 9.29623 84.9627 9.4279C85.0151 9.39867 85.0722 9.3658 85.134 9.33016C85.7714 8.96291 86.9179 8.30236 88.7531 8.30236C90.8466 8.30236 92.6494 9.18469 92.6494 11.6117H92.5508C92.1674 11.4623 91.0893 11.1529 89.0207 11.1529C83.9957 11.1529 82.2061 13.6481 82.2061 15.9838C82.2061 18.3194 83.9957 20.8155 89.0207 20.8155C90.4879 20.8155 91.8908 20.6378 93.3074 20.2732C93.8704 20.1317 94.4529 19.9541 95.0859 19.7316L95.1675 19.7034V11.6779C95.1672 8.25319 92.6494 6.04004 88.7531 6.04004ZM92.6489 18.0219C92.3245 18.1449 91.0632 18.528 89.0207 18.528C86.3762 18.528 84.8589 17.5915 84.8589 15.9587C84.8589 14.3266 86.3762 13.3896 89.0207 13.3896C91.2042 13.3896 92.3738 13.6946 92.619 13.7586C92.6313 13.7618 92.6412 13.7644 92.6489 13.7663V18.0219Z" fill="#001727"/>
<path d="M69.8679 16.2684L78.168 6.60352H80.3231V20.2758H77.8053V10.4436H77.7207L77.4412 10.8611L69.2028 20.2758H67.0166V6.60352H69.5355V16.6556L69.6096 16.6553L69.8679 16.2684Z" fill="#001727"/>
<path fill-rule="evenodd" clip-rule="evenodd" d="M43.6019 0.5H44.8378L44.2151 1.58L29.8919 26.42H1.23592H0L0.622747 25.34L14.9459 0.5H43.6019ZM16.0998 1.58H42.9792L29.6262 24.7375L16.0998 1.58ZM15.2117 2.18256L1.85868 25.34H28.7381L15.2117 2.18256Z" fill="white"/>
<path d="M0 26.42L14.9459 0.5L29.8919 26.42H0Z" fill="#0064C8"/>
<path d="M44.8382 0.5L29.8922 26.42L14.9463 0.5H44.8382Z" fill="#E10000"/>
</g>
<defs>
<clipPath id="clip0_230_22909">
<rect width="158" height="27" fill="white" transform="translate(0 0.5)"/>
</clipPath>
</defs>
</svg>
