<svg width="100" height="56" viewBox="0 0 100 56" fill="none" xmlns="http://www.w3.org/2000/svg">
<g clip-path="url(#clip0_230_22901)">
<path d="M57.9943 10.4243C57.8222 10.2581 57.7363 10.0511 57.7363 9.803C57.7363 9.56043 57.8222 9.35591 57.9943 9.18966C58.1663 9.02348 58.3946 8.94043 58.6796 8.94043C58.9644 8.94043 59.1942 9.02348 59.3689 9.18966C59.5435 9.35591 59.6309 9.56043 59.6309 9.803C59.6309 10.0511 59.5435 10.2581 59.3689 10.4243C59.1942 10.5905 58.9617 10.6736 58.6715 10.6736C58.392 10.6736 58.1663 10.5905 57.9943 10.4243ZM57.9862 12.2484H59.3729V20.3207H57.9862V12.2484Z" fill="#353535"/>
<path d="M63.3757 19.9761C62.736 19.5936 62.2309 19.0766 61.86 18.4249C61.4892 17.7734 61.3037 17.0597 61.3037 16.2842C61.3037 15.5086 61.4892 14.7951 61.86 14.1434C62.2309 13.4919 62.736 12.9749 63.3757 12.5923C64.0153 12.2098 64.7248 12.0186 65.5041 12.0186C66.1437 12.0186 66.7322 12.1412 67.2697 12.3865C67.8072 12.6319 68.2627 12.9709 68.6363 13.4035C69.0098 13.8362 69.2799 14.3322 69.4465 14.8914H68.0195C67.8099 14.3797 67.482 13.9865 67.0359 13.7122C66.5898 13.4379 66.0818 13.3006 65.5122 13.3006C65.0284 13.3006 64.5701 13.4233 64.1376 13.6686C63.7048 13.914 63.3555 14.2636 63.0895 14.7172C62.8235 15.1711 62.6904 15.6933 62.6904 16.2842C62.6904 16.8805 62.8235 17.4054 63.0895 17.8591C63.3555 18.3129 63.7048 18.6624 64.1376 18.9077C64.5701 19.153 65.0284 19.2757 65.5122 19.2757C66.0818 19.2757 66.5898 19.1332 67.0359 18.8483C67.482 18.5634 67.8099 18.1519 68.0195 17.6138H69.4385C69.2825 18.1942 69.0179 18.7058 68.6444 19.1491C68.2707 19.5922 67.814 19.9365 67.2738 20.1818C66.7336 20.4272 66.1437 20.5498 65.5041 20.5498C64.7248 20.5498 64.0153 20.3585 63.3757 19.9761Z" fill="#353535"/>
<path d="M58.7217 32.1506C58.238 31.7233 57.9961 30.9397 57.9961 29.8002V25.9144H56.166V24.7194H57.9961V22.3214L59.3828 22.3135V24.7194H62.0998V25.9144H59.3828V29.8635C59.3828 30.5441 59.5185 31.0098 59.79 31.2603C60.0613 31.511 60.4174 31.6362 60.8582 31.6362H62.0998V32.7917H60.5841C59.8262 32.7917 59.2055 32.578 58.7217 32.1506Z" fill="#353535"/>
<path d="M71.1277 29.111H64.3071C64.3607 29.6387 64.5194 30.1017 64.7827 30.5C65.046 30.8984 65.378 31.2057 65.7784 31.422C66.1787 31.6384 66.6048 31.7464 67.0563 31.7464C67.6098 31.7464 68.0828 31.6291 68.4752 31.3942C68.8675 31.1595 69.1551 30.8153 69.3379 30.3615H70.8939C70.7379 30.8574 70.4773 31.3072 70.1118 31.7109C69.7463 32.1145 69.3029 32.4324 68.7816 32.6644C68.2602 32.8966 67.6958 33.0127 67.0885 33.0127C66.3092 33.0127 65.5997 32.8227 64.9601 32.4429C64.3205 32.0629 63.8179 31.5486 63.4525 30.8996C63.0869 30.2507 62.9043 29.5358 62.9043 28.7549C62.9043 27.9793 63.0883 27.2645 63.4565 26.6102C63.8246 25.9561 64.3272 25.439 64.9641 25.0591C65.6011 24.6792 66.3092 24.4893 67.0885 24.4893C67.8571 24.4893 68.5518 24.6752 69.1726 25.0472C69.7934 25.4191 70.2784 25.9165 70.6278 26.539C70.9771 27.1616 71.1519 27.8343 71.1519 28.5571C71.1519 28.631 71.1438 28.8157 71.1277 29.111ZM69.7329 27.9081C69.706 27.5282 69.5689 27.1749 69.3217 26.8476C69.0745 26.5206 68.7506 26.2594 68.3503 26.0642C67.9498 25.869 67.5211 25.7713 67.0643 25.7713C66.6451 25.7713 66.2501 25.8544 65.8792 26.0206C65.5084 26.1868 65.1899 26.431 64.9239 26.7527C64.6578 27.0746 64.4736 27.4598 64.3716 27.9081H69.7329Z" fill="#353535"/>
<path d="M74.4245 28.676L71.6429 24.719H73.2875L75.3834 27.758H75.3918L77.4958 24.719H79.1327L76.3515 28.676L79.2135 32.7913H77.5443L75.3757 29.6415L73.1989 32.7913H71.5703L74.4245 28.676Z" fill="#353535"/>
<path d="M82.1407 32.1506C81.6566 31.7233 81.415 30.9397 81.415 29.8002V25.9144H79.585V24.7194H81.415V22.3214L82.8018 22.3135V24.7194H85.5184V25.9144H82.8018V29.8634C82.8018 30.5441 82.9372 31.0098 83.2089 31.2603C83.4805 31.511 83.8361 31.6362 84.277 31.6362H85.5184V32.7917H84.0031C83.245 32.7917 82.624 32.578 82.1407 32.1506Z" fill="#353535"/>
<path d="M57.2461 46.9026C56.6656 46.6203 56.2343 46.2537 55.9521 45.8026C55.6699 45.3515 55.5127 44.862 55.4805 44.3345H56.7946C56.8859 44.8778 57.1399 45.3184 57.5565 45.6561C57.973 45.9937 58.5978 46.1627 59.4309 46.1627C60.1081 46.1627 60.6657 46.0281 61.1039 45.759C61.5419 45.4899 61.8617 45.1364 62.0633 44.6985C62.2649 44.2607 62.3656 43.7753 62.3656 43.2424V42.2452C62.0806 42.8466 61.6547 43.3123 61.0877 43.642C60.5206 43.9718 59.8824 44.1366 59.173 44.1366C58.4151 44.1366 57.7284 43.956 57.113 43.5945C56.4975 43.2332 56.0138 42.7438 55.6619 42.1265C55.3098 41.5092 55.1338 40.8339 55.1338 40.1005C55.1338 39.3724 55.3083 38.6931 55.6578 38.0626C56.0072 37.4323 56.4868 36.9297 57.097 36.555C57.7069 36.1804 58.3855 35.9932 59.1326 35.9932C59.6378 35.9932 60.1054 36.0802 60.5355 36.2543C60.9654 36.4284 61.3363 36.6632 61.6481 36.9586C61.9597 37.2542 62.199 37.5838 62.3656 37.9479V36.2147H63.6959V43.2028C63.6959 43.9732 63.5373 44.6695 63.2202 45.2921C62.903 45.9146 62.4233 46.4092 61.7811 46.7759C61.1388 47.1426 60.3553 47.326 59.4309 47.326C58.5548 47.326 57.8266 47.1848 57.2461 46.9026ZM60.8701 42.5499C61.3135 42.294 61.6654 41.9498 61.9263 41.5171C62.1869 41.0846 62.3173 40.6123 62.3173 40.1005C62.3173 39.594 62.1882 39.1245 61.9303 38.6918C61.6723 38.2593 61.3215 37.9137 60.8781 37.6551C60.4347 37.3966 59.9496 37.2673 59.4229 37.2673C58.8908 37.2673 58.4016 37.3913 57.9556 37.6393C57.5094 37.8873 57.1574 38.2262 56.8994 38.6562C56.6414 39.0863 56.5124 39.5677 56.5124 40.1005C56.5124 40.6282 56.6414 41.1083 56.8994 41.5408C57.1574 41.9735 57.5081 42.3138 57.9515 42.5618C58.3949 42.8098 58.8828 42.9337 59.4148 42.9337C59.9415 42.9337 60.4267 42.8059 60.8701 42.5499Z" fill="#353535"/>
<path d="M67.5805 36.2148V38.0192C67.7847 37.4547 68.1045 37.0128 68.54 36.6936C68.9753 36.3745 69.4885 36.2148 70.0798 36.2148H70.878V37.4098H70.1524C69.6686 37.4098 69.2359 37.5325 68.8543 37.7778C68.4726 38.0231 68.1743 38.378 67.9595 38.8422C67.7444 39.3066 67.637 39.8552 67.637 40.4883V44.2871H66.2422V36.2148H67.5805Z" fill="#353535"/>
<path d="M73.3961 43.947C72.7431 43.5671 72.2298 43.0514 71.8562 42.3997C71.4826 41.7483 71.2959 41.032 71.2959 40.2511C71.2959 39.4756 71.4826 38.7607 71.8562 38.1064C72.2298 37.4523 72.7417 36.9351 73.3921 36.5553C74.0425 36.1754 74.7682 35.9854 75.5685 35.9854C76.3697 35.9854 77.0977 36.1754 77.7541 36.5553C78.4098 36.9351 78.9238 37.4509 79.2979 38.1025C79.6711 38.7541 79.8581 39.4704 79.8581 40.2511C79.8581 41.032 79.6711 41.7483 79.2979 42.3997C78.9238 43.0514 78.4105 43.5671 77.758 43.947C77.1046 44.3268 76.375 44.5168 75.5685 44.5168C74.7736 44.5168 74.0494 44.3268 73.3961 43.947ZM77.0523 42.8469C77.4932 42.5885 77.8395 42.2324 78.0927 41.7785C78.3451 41.3248 78.4713 40.8157 78.4713 40.2511C78.4713 39.6919 78.3451 39.1854 78.0927 38.7316C77.8395 38.2779 77.4932 37.9205 77.0523 37.6593C76.6113 37.3981 76.1226 37.2676 75.5847 37.2676C75.0475 37.2676 74.5573 37.3981 74.1133 37.6593C73.6702 37.9205 73.3208 38.2779 73.0656 38.7316C72.8103 39.1854 72.6826 39.6919 72.6826 40.2511C72.6826 40.8157 72.8103 41.3248 73.0656 41.7785C73.3208 42.2324 73.6702 42.5885 74.1133 42.8469C74.5573 43.1055 75.0475 43.2347 75.5847 43.2347C76.1226 43.2347 76.6113 43.1055 77.0523 42.8469Z" fill="#353535"/>
<path d="M83.2678 44.0931C82.706 43.811 82.2682 43.373 81.9534 42.7795C81.6394 42.1859 81.4824 41.4355 81.4824 40.5279V36.2148H82.8607V40.4883C82.8607 41.3853 83.0647 42.0672 83.4733 42.5341C83.8819 43.001 84.4653 43.2345 85.2225 43.2345C85.9859 43.2345 86.5708 43.0024 86.9764 42.5381C87.3819 42.0738 87.5851 41.3905 87.5851 40.4883V36.2148H88.9719V40.5279C88.9719 41.4301 88.8133 42.1793 88.4963 42.7754C88.1792 43.3718 87.7413 43.811 87.1818 44.0931C86.6231 44.3753 85.9752 44.5166 85.2387 44.5166C84.4868 44.5166 83.8296 44.3753 83.2678 44.0931Z" fill="#353535"/>
<path d="M92.6187 36.2145V37.9398C92.9142 37.3595 93.3428 36.8899 93.9046 36.5311C94.4664 36.1723 95.0936 35.9929 95.787 35.9929C96.545 35.9929 97.233 36.1828 97.851 36.5628C98.4689 36.9426 98.9553 37.4584 99.3101 38.1099C99.6648 38.7616 99.8426 39.4751 99.8426 40.2506C99.8426 41.0315 99.6648 41.7478 99.3101 42.3994C98.9553 43.051 98.4705 43.5666 97.8548 43.9465C97.2399 44.3264 96.5558 44.5163 95.8031 44.5163C95.1259 44.5163 94.5041 44.3434 93.9369 43.998C93.3698 43.6524 92.9411 43.1867 92.651 42.6012L92.6748 43.5112V47.0409H91.2881V36.2145H92.6187ZM97.0167 42.8702C97.46 42.617 97.8117 42.2622 98.0726 41.8058C98.3335 41.3495 98.4635 40.8311 98.4635 40.2506C98.4635 39.6809 98.335 39.1692 98.0764 38.7153C97.8186 38.2617 97.4677 37.9056 97.0244 37.647C96.5812 37.3885 96.0933 37.2592 95.5615 37.2592C95.0343 37.2592 94.5495 37.3924 94.1062 37.6588C93.663 37.9253 93.312 38.2868 93.0542 38.743C92.7957 39.1994 92.6672 39.702 92.6672 40.2506C92.6672 40.81 92.7972 41.3191 93.0581 41.7781C93.319 42.2371 93.6707 42.5972 94.1139 42.8583C94.558 43.1195 95.0397 43.2501 95.5615 43.2501C96.0879 43.2501 96.5735 43.1234 97.0167 42.8702Z" fill="#353535"/>
<path d="M87.0986 12.4653C87.6603 12.7475 88.0982 13.1856 88.413 13.7791C88.7277 14.3726 88.8847 15.1231 88.8847 16.0306V20.3438H87.5057V16.0702C87.5057 15.1732 87.3017 14.4914 86.8931 14.0245C86.4852 13.5575 85.9019 13.3241 85.1439 13.3241C84.3805 13.3241 83.7964 13.5561 83.39 14.0204C82.9845 14.4846 82.7813 15.168 82.7813 16.0702V20.3438H81.3945V16.0306C81.3945 15.1285 81.5538 14.3792 81.8709 13.783C82.188 13.1868 82.6258 12.7475 83.1845 12.4653C83.744 12.1832 84.3912 12.042 85.1277 12.042C85.8803 12.042 86.5376 12.1832 87.0986 12.4653Z" fill="#353535"/>
<path d="M77.5823 12.6118C78.2349 12.9916 78.7482 13.5073 79.1215 14.1589C79.4955 14.8105 79.6825 15.5267 79.6825 16.3076C79.6825 17.0832 79.4955 17.798 79.1215 18.4523C78.7482 19.1065 78.2365 19.6236 77.5862 20.0035C76.9359 20.3833 76.2102 20.5732 75.4091 20.5732C74.6087 20.5732 73.8799 20.3833 73.2243 20.0035C72.5687 19.6236 72.0541 19.1078 71.6804 18.4562C71.3069 17.8046 71.1201 17.0884 71.1201 16.3076C71.1201 15.5267 71.3069 14.8105 71.6804 14.1589C72.0541 13.5073 72.5673 12.9916 73.2203 12.6118C73.873 12.2319 74.6033 12.042 75.4091 12.042C76.2048 12.042 76.929 12.2319 77.5823 12.6118ZM73.9261 13.7118C73.4851 13.9702 73.1384 14.3264 72.8857 14.7802C72.6332 15.2339 72.5068 15.743 72.5068 16.3076C72.5068 16.8668 72.6332 17.3733 72.8857 17.8271C73.1384 18.2808 73.4851 18.6383 73.9261 18.8995C74.3663 19.1606 74.8558 19.2912 75.3929 19.2912C75.9308 19.2912 76.4211 19.1606 76.8643 18.8995C77.3076 18.6383 77.657 18.2808 77.9125 17.8271C78.168 17.3733 78.2957 16.8668 78.2957 16.3076C78.2957 15.743 78.168 15.2339 77.9125 14.7802C77.657 14.3264 77.3076 13.9702 76.8643 13.7118C76.4211 13.4532 75.9308 13.3241 75.3929 13.3241C74.8558 13.3241 74.3663 13.4532 73.9261 13.7118Z" fill="#353535"/>
<path d="M28.7596 -0.0966797C27.6786 -0.0966797 26.6116 -0.0376822 25.5618 0.0775217C25.5611 0.0775217 25.5605 0.0776729 25.5599 0.0776729C25.5259 0.0813262 25.492 0.0849872 25.4583 0.0889431C11.2604 1.69513 0.236328 13.5351 0.236328 27.9024C0.236328 36.1808 3.89631 43.62 9.71434 48.7459C14.7643 53.195 21.4399 55.9015 28.7596 55.9015C36.5929 55.9015 43.6888 52.8019 48.8437 47.7837V8.02107C43.6888 3.00295 36.5929 -0.0966797 28.7596 -0.0966797Z" fill="#4B6BA5"/>
<path d="M48.843 8.1218V47.728C48.4335 48.1293 48.0117 48.5182 47.578 48.8944C43.1159 52.7662 36.1613 51.6641 33.1433 46.6245C29.6492 40.7895 30.1558 35.3783 31.945 31.0445C31.9557 31.0189 31.9662 30.9932 31.977 30.9677C32.1428 30.5706 32.3192 30.1827 32.5043 29.8044C42.4099 28.5308 43.7991 22.6855 43.8096 22.6398C41.4572 25.5823 36.9408 26.6658 34.0809 27.0635C36.5944 23.272 39.5291 20.9725 39.5291 20.9725C33.781 22.7115 30.9153 25.9122 29.7148 27.6718C29.2146 26.4059 28.4333 24.7222 27.3081 23.04C28.507 21.0482 31.475 17.8031 31.4981 17.7777C29.9549 18.3188 27.2101 20.4607 26.0718 21.3814C24.4635 19.449 22.3453 17.7148 19.6113 16.8746C19.6113 16.8746 26.1707 22.1689 26.9709 29.757C24.9668 29.0828 23.2297 28.6605 21.7264 28.4191C21.8532 26.8972 21.9865 22.9154 20.1774 20.9728C20.1868 21.018 21.233 26.0091 19.6996 28.1881C14.5522 27.8633 12.9602 29.9323 12.9602 29.9323C24.7764 28.4043 26.5453 34.3775 26.5453 34.3775L26.5513 34.3706C27.0097 38.056 26.267 42.2099 23.2243 46.5687C20.134 50.9954 13.9472 51.8915 9.71377 48.7457C9.40402 48.5155 9.10481 48.2637 8.81807 47.9902C3.48513 42.9027 0.171875 35.7861 0.171875 27.9099C0.171875 13.5216 11.2284 1.66687 25.4577 0.0887837C25.4914 0.0848278 25.5252 0.0811668 25.5593 0.077506C25.5599 0.077506 25.5605 0.0773623 25.5612 0.0773623C26.5766 -0.0316998 27.608 -0.0883529 28.6527 -0.0898127C36.5125 -0.101234 43.6625 3.04091 48.843 8.1218Z" fill="#D1E7F4"/>
<path d="M26.1729 19.1223C26.1729 19.1223 29.2916 12.5403 25.5492 6.72367C21.8068 0.906963 22.1186 10.9331 26.1729 19.1223Z" fill="#2C4578"/>
<path d="M27.3311 11.0991C27.0703 9.49846 26.5014 8.00832 25.6403 6.66991C25.1865 5.96474 24.7731 5.46273 24.4115 5.17803C24.0458 4.89008 23.7262 4.81731 23.4618 4.96178C23.1047 5.15693 22.896 5.73518 22.8419 6.68042C22.7909 7.56917 22.8824 8.73883 23.1065 10.0632C23.6107 13.0441 24.6961 16.3621 26.0846 19.1665L26.1791 19.3574L26.2702 19.165C26.2781 19.1483 27.0603 17.478 27.3705 15.1174C27.5529 13.7302 27.5396 12.3782 27.3311 11.0991ZM23.3092 10.0301C23.0877 8.72022 22.9969 7.56584 23.0471 6.69184C23.0957 5.8447 23.2784 5.29292 23.5619 5.13809C23.6174 5.10776 23.6783 5.09256 23.7444 5.09256C23.8971 5.09256 24.0774 5.17379 24.2829 5.33558C24.6267 5.60606 25.0248 6.09136 25.4664 6.77762C27.3819 9.7548 27.4488 12.9385 27.1675 15.0848C26.9237 16.9461 26.3836 18.3711 26.1716 18.8787C24.8384 16.134 23.7984 12.9221 23.3092 10.0301Z" fill="#353535"/>
<path d="M32.127 31.0626C32.127 31.0626 38.6227 36.3203 42.3834 35.6491C46.1441 34.9779 41.6186 30.6598 32.127 31.0626Z" fill="#2C4578"/>
<path d="M43.8038 34.5604C43.7579 34.1568 43.4394 33.7132 42.8828 33.2776C42.3085 32.8286 41.5002 32.4056 40.5452 32.0546C39.4742 31.661 38.2536 31.3652 36.9173 31.1755C35.414 30.9621 33.8015 30.8899 32.1242 30.9612L31.977 30.9674L31.8564 30.9724L31.9451 31.0442L32.0632 31.1398C32.0795 31.153 33.717 32.4731 35.7937 33.6934C37.0154 34.4113 38.1484 34.9551 39.1614 35.31C40.1079 35.6416 40.9527 35.8082 41.6835 35.8082C41.9375 35.8082 42.1776 35.7881 42.4035 35.7477C42.8849 35.6618 43.2504 35.5148 43.4898 35.3109C43.7281 35.1077 43.8367 34.8482 43.8038 34.5604ZM39.2316 35.1205C38.2317 34.7703 37.1113 34.2323 35.9015 33.5217C34.2727 32.5646 32.9156 31.5459 32.408 31.1524C35.4279 31.0534 38.2826 31.4386 40.4731 32.2436C42.2863 32.91 43.5135 33.8281 43.5995 34.5829C43.6534 35.0546 43.2155 35.3977 42.3667 35.5492C41.5272 35.6989 40.4724 35.5548 39.2316 35.1205Z" fill="#353535"/>
<path d="M24.8421 33.0692C24.8421 33.0692 16.7487 30.7923 13.5732 32.8808C10.3976 34.9692 16.3025 37.1561 24.8421 33.0692Z" fill="#2C4578"/>
<path d="M24.8694 32.9715C24.8491 32.9659 22.8109 32.3967 20.4107 32.091C18.9988 31.9112 17.7388 31.8563 16.6656 31.9278C15.3145 32.0178 14.2544 32.31 13.515 32.7964C13.1083 33.0637 12.833 33.3416 12.6965 33.6224C12.5605 33.902 12.5663 34.1825 12.7134 34.4335C12.9198 34.7856 13.3922 35.0675 14.0794 35.2489C14.6376 35.3961 15.322 35.4714 16.0848 35.4714C16.291 35.4714 16.5033 35.466 16.7201 35.4549C17.8622 35.3962 19.1016 35.1894 20.404 34.8399C21.8691 34.4468 23.3772 33.8814 24.8862 33.1592L25.127 33.0438L24.8694 32.9715ZM16.7094 35.2534C14.7759 35.3524 13.2774 34.9911 12.8916 34.333C12.6506 33.9215 12.9126 33.4353 13.6293 32.964C14.3383 32.4977 15.3642 32.2169 16.6783 32.1292C16.9781 32.1093 17.2928 32.0994 17.6216 32.0994C18.455 32.0994 19.3793 32.1633 20.3817 32.2909C22.2643 32.5303 23.9228 32.933 24.5482 33.095C21.8194 34.3687 19.0452 35.1335 16.7094 35.2534Z" fill="#353535"/>
<path d="M36.7725 20.2071C36.7725 20.2071 41.3975 16.4455 41.4233 13.7688C41.4492 11.0922 37.7594 13.6249 36.7725 20.2071Z" fill="#2C4578"/>
<path d="M41.3552 12.9496C41.2371 12.7497 41.0584 12.6353 40.8386 12.6184C40.2136 12.5706 39.3498 13.3057 38.5851 14.537C38.1591 15.2225 37.7834 16.0241 37.4678 16.9197C37.113 17.9265 36.8446 19.0279 36.67 20.1927L36.6309 20.453L36.8371 20.285C36.8487 20.2757 38.0127 19.3251 39.164 18.0592C39.8416 17.3141 40.3831 16.6063 40.7734 15.9555C41.2661 15.1339 41.5191 14.3985 41.5252 13.7701C41.5286 13.4221 41.4714 13.1461 41.3552 12.9496ZM36.9155 19.9533C37.2535 17.8974 37.9047 16.0198 38.7606 14.642C39.1299 14.0477 39.5279 13.5628 39.9118 13.2398C40.2367 12.9664 40.5433 12.8181 40.7812 12.8181C40.7952 12.8181 40.8091 12.8185 40.8226 12.8196C41.2627 12.8533 41.323 13.4284 41.3197 13.7682C41.3139 14.3605 41.0708 15.0617 40.5968 15.8521C40.2137 16.4912 39.6806 17.1878 39.0124 17.9229C38.1601 18.8603 37.3008 19.6234 36.9155 19.9533Z" fill="#353535"/>
<path d="M42.793 26.4771C42.793 26.4771 46.0786 26.087 46.9034 24.8541C47.7282 23.6212 45.2491 23.7154 42.793 26.4771Z" fill="#2C4578"/>
<path d="M47.0128 24.1141C46.7236 23.8986 46.0817 23.9848 45.3377 24.339C44.4684 24.7531 43.5381 25.4888 42.7181 26.4108L42.542 26.609L42.8079 26.5774C42.8162 26.5763 43.6476 26.476 44.5689 26.2253C45.8206 25.8846 46.6358 25.442 46.9918 24.9096C47.3186 24.421 47.1153 24.1905 47.0128 24.1141ZM43.0612 26.3372C43.8155 25.532 44.648 24.8918 45.4273 24.5206C45.9126 24.2896 46.302 24.1975 46.567 24.1975C46.714 24.1975 46.8229 24.2259 46.8884 24.2747C47.0522 24.3969 46.9158 24.6556 46.8199 24.7988C46.1686 25.7725 43.8642 26.2114 43.0612 26.3372Z" fill="#353535"/>
<path d="M19.7583 25.0854C19.7583 25.0854 15.5091 18.2216 12.5492 19.0907C9.58951 19.9598 12.7988 23.3251 19.7583 25.0854Z" fill="#2C4578"/>
<path d="M19.8493 25.0331C19.8386 25.0157 18.7659 23.2911 17.3442 21.6956C16.5064 20.7555 15.7121 20.0425 14.9837 19.5762C14.0562 18.9827 13.2284 18.7869 12.523 18.994C11.539 19.283 11.3412 19.7985 11.3488 20.1804C11.3562 20.5554 11.5603 20.9713 11.9556 21.4166C12.347 21.8576 12.9067 22.3061 13.6192 22.7498C14.3648 23.214 15.2473 23.6534 16.2424 24.0557C17.311 24.4877 18.4864 24.867 19.7359 25.1831L19.9806 25.245L19.8493 25.0331ZM13.7293 22.5794C12.3603 21.7269 11.5676 20.8511 11.5544 20.1764C11.5433 19.6116 12.107 19.3267 12.5818 19.1874C12.7441 19.1397 12.9141 19.1159 13.0919 19.1159C13.6206 19.1159 14.2163 19.3263 14.8705 19.7445C15.583 20.2004 16.3627 20.9009 17.1878 21.8266C18.3045 23.0796 19.2047 24.4135 19.5364 24.9232C16.6323 24.1634 14.7802 23.2338 13.7293 22.5794Z" fill="#353535"/>
<path d="M17.7072 26.4936C17.7072 26.4936 14.8247 25.0022 12.135 26.4914C9.44524 27.9808 13.947 28.0657 17.7072 26.4936Z" fill="#D2BC26"/>
<path d="M17.7591 26.4047C17.7291 26.3892 17.0122 26.0223 15.9519 25.8351C15.3285 25.7249 14.7167 25.7008 14.1331 25.7635C13.4021 25.8419 12.7141 26.0573 12.0885 26.4038C11.7567 26.5874 11.5178 26.7589 11.3779 26.9137C11.186 27.1261 11.2033 27.2853 11.2516 27.3816C11.3946 27.6661 11.9726 27.7421 12.549 27.7421C12.943 27.7421 13.3363 27.7065 13.5891 27.678C14.9417 27.5249 16.4588 27.1271 17.7514 26.5868L17.9503 26.5036L17.7591 26.4047ZM13.5655 27.4775C12.2415 27.6273 11.5336 27.4865 11.4361 27.2922C11.3798 27.1806 11.5482 26.9346 12.1895 26.5796C13.0811 26.0858 13.9953 25.9329 14.7858 25.9329C15.2015 25.9329 15.583 25.9751 15.909 26.0324C16.614 26.1564 17.1721 26.3668 17.4566 26.4886C16.2302 26.9769 14.8254 27.3348 13.5655 27.4775Z" fill="#353535"/>
<path d="M28.3457 17.6924C28.3457 17.6924 34.1378 13.6267 33.1771 11.1618C32.2165 8.69688 29.4498 11.6494 28.3457 17.6924Z" fill="#D2BC26"/>
<path d="M33.2706 11.126C32.9482 10.2989 32.4735 10.1629 32.1318 10.1945C31.7975 10.2255 31.4403 10.4278 31.07 10.7956C30.7047 11.1585 30.3437 11.6655 29.9971 12.3024C29.466 13.2789 28.7301 15.0037 28.2421 17.675L28.1973 17.9191L28.403 17.7748C28.4176 17.7646 29.8735 16.738 31.1924 15.4225C31.97 14.6469 32.5496 13.923 32.915 13.271C33.3814 12.439 33.501 11.7174 33.2706 11.126ZM28.4914 17.4596C28.974 14.9569 29.671 13.3304 30.1785 12.3975C30.8411 11.1798 31.56 10.4502 32.1511 10.3954C32.1738 10.3934 32.1961 10.3923 32.218 10.3923C32.6675 10.3923 32.9331 10.8251 33.0785 11.1983C33.2863 11.7312 33.1708 12.3955 32.7353 13.1729C32.3794 13.8084 31.8115 14.517 31.0477 15.2793C30.0345 16.2901 28.9389 17.1291 28.4914 17.4596Z" fill="#353535"/>
<path d="M19.8173 15.9545C19.8173 15.9545 18.8668 14.3688 17.6182 13.4784C16.2837 12.5267 14.8319 12.4887 14.3455 13.2614C13.7144 14.2638 16.7141 14.0942 19.8173 15.9545Z" fill="#D2BC26"/>
<path d="M19.9089 15.9032C19.8695 15.8378 18.9331 14.2891 17.6816 13.3966C16.8298 12.7891 15.8786 12.5119 15.1374 12.6553C14.7438 12.7314 14.4409 12.9226 14.261 13.2082C14.1607 13.3675 14.1359 13.5153 14.1868 13.6475C14.318 13.9869 14.9254 14.1669 15.8448 14.4393C16.8881 14.7482 18.317 15.1716 19.7666 16.0405L20.1169 16.2505L19.9089 15.9032ZM15.9041 14.2461C15.1052 14.0095 14.4743 13.8226 14.3791 13.5761C14.3515 13.5045 14.3701 13.4188 14.4359 13.3143C14.5849 13.0776 14.8413 12.9182 15.1771 12.8534C15.294 12.8307 15.4168 12.8196 15.5441 12.8196C16.1642 12.8196 16.8916 13.0827 17.5608 13.56C18.4234 14.1751 19.1497 15.14 19.5025 15.6547C18.1612 14.9145 16.8693 14.532 15.9041 14.2461Z" fill="#353535"/>
<path d="M29.9478 25.7987C29.9478 25.7987 29.75 24.2777 30.1099 23.0656C30.4947 21.7701 31.4317 21.018 32.1538 21.2836C33.0907 21.6281 31.0259 23.0187 29.9478 25.7987Z" fill="#D2BC26"/>
<path d="M32.4818 21.4527C32.445 21.3347 32.3483 21.2461 32.1941 21.1895C31.9227 21.0896 31.6188 21.1156 31.3157 21.2647C30.7485 21.5434 30.2624 22.2063 30.0155 23.0377C29.6537 24.256 29.842 25.7489 29.8501 25.8118L29.9022 26.2115L30.0482 25.835C30.551 24.5382 31.272 23.5447 31.7983 22.8194C32.2656 22.1754 32.5744 21.7499 32.4818 21.4527ZM31.4078 21.445C31.5608 21.3698 31.7125 21.3319 31.8567 21.3319C31.9487 21.3319 32.0377 21.3474 32.1221 21.3784C32.2595 21.4289 32.2789 21.4912 32.2851 21.5117C32.3482 21.7138 32.0316 22.1501 31.6309 22.7022C31.1522 23.362 30.5143 24.2409 30.0183 25.3706C29.9864 24.8392 29.9759 23.8925 30.213 23.0942C30.4441 22.3158 30.8908 21.6992 31.4078 21.445Z" fill="#353535"/>
<path d="M32.7588 34.0322C32.7588 34.0322 33.981 34.4224 34.7554 35.0929C35.583 35.8096 35.7883 36.7212 35.3097 37.1305C34.6887 37.6616 34.4374 35.7453 32.7588 34.0322Z" fill="#D2BC26"/>
<path d="M34.8248 35.0172C34.0435 34.3407 32.8426 33.9524 32.7919 33.9362L32.4014 33.8115L32.686 34.102C33.4669 34.8989 33.9364 35.7426 34.2792 36.3586C34.5848 36.9075 34.7866 37.2701 35.051 37.3165C35.0698 37.3199 35.0886 37.3215 35.1073 37.3215C35.1982 37.3215 35.2892 37.283 35.3786 37.2064C35.567 37.0454 35.6669 36.8143 35.6678 36.538C35.6693 36.0441 35.3541 35.4756 34.8248 35.0172ZM35.2436 37.0543C35.1552 37.1299 35.1041 37.1208 35.0873 37.1179C34.9198 37.0885 34.7168 36.7237 34.4597 36.2618C34.1555 35.7153 33.7533 34.9926 33.1239 34.2748C33.5428 34.4438 34.2086 34.7526 34.6888 35.1685C35.1744 35.5889 35.4635 36.1008 35.4621 36.5374C35.4616 36.7538 35.3859 36.9326 35.2436 37.0543Z" fill="#353535"/>
<path d="M23.1327 16.1491C23.1327 16.1491 22.6578 11.4104 18.5677 9.3503C14.4775 7.29016 18.0603 12.851 23.1327 16.1491Z" fill="#A13820"/>
<path d="M23.235 16.1396C23.23 16.0905 23.1074 14.9228 22.4785 13.4828C22.1089 12.6366 21.6402 11.8745 21.0857 11.2177C20.3913 10.3954 19.5601 9.73705 18.6146 9.26091C17.5943 8.74687 16.9694 8.66685 16.7572 9.02272C16.6152 9.26075 16.6935 9.66693 16.99 10.2298C17.2643 10.7507 17.715 11.3837 18.2933 12.0603C19.5929 13.5813 21.3361 15.1024 23.076 16.2336L23.2562 16.3509L23.235 16.1396ZM18.4507 11.9306C17.1531 10.412 16.7542 9.42701 16.9347 9.12461C16.9819 9.04526 17.0791 9.0054 17.2247 9.0054C17.2697 9.0054 17.3192 9.00926 17.3734 9.01682C17.6557 9.05653 18.0416 9.19911 18.5208 9.44032C20.604 10.4896 21.7186 12.2577 22.2869 13.5562C22.7482 14.6104 22.9345 15.5346 22.9998 15.9404C21.3392 14.8338 19.691 13.382 18.4507 11.9306Z" fill="#353535"/>
<path d="M39.8623 22.9985C39.8623 22.9985 43.4992 21.7728 44.3704 18.2991C45.2415 14.8255 41.5267 18.5549 39.8623 22.9985Z" fill="#A13820"/>
<path d="M44.5979 17.3177C44.5682 16.9939 44.4214 16.8838 44.3034 16.8484C44.0829 16.7822 43.7714 16.9172 43.3772 17.2495C43.017 17.5535 42.6008 18.0116 42.174 18.5742C41.2152 19.8379 40.3376 21.4379 39.766 22.9638L39.6914 23.163L39.8959 23.0941C39.9336 23.0814 40.8318 22.7741 41.851 22.0326C42.45 21.5968 42.9647 21.1013 43.3806 20.5597C43.9017 19.8814 44.2683 19.129 44.4704 18.3234C44.5772 17.897 44.6202 17.5587 44.5979 17.3177ZM41.7339 21.8666C41.0263 22.3824 40.3653 22.6876 40.0401 22.8218C40.6051 21.3781 41.4356 19.8853 42.3388 18.6948C43.2199 17.5335 43.8923 17.0336 44.1856 17.0336C44.2069 17.0336 44.2262 17.0362 44.2433 17.0413C44.3271 17.0665 44.3775 17.1656 44.3932 17.3358C44.4133 17.5544 44.3722 17.8704 44.2707 18.2751C43.8286 20.0378 42.6472 21.2012 41.7339 21.8666Z" fill="#353535"/>
<path d="M20.7847 20.0688C20.7847 20.0688 17.8196 16.7828 15.7899 16.8296C13.7601 16.8764 15.7707 19.5094 20.7847 20.0688Z" fill="#A13820"/>
<path d="M20.8648 20.0012C20.8573 19.9928 20.1069 19.1646 19.1174 18.3534C18.5346 17.8756 17.9832 17.4966 17.4789 17.2267C16.8399 16.8847 16.2717 16.7168 15.7905 16.7281C15.0167 16.7458 14.9161 17.1217 14.9088 17.2824C14.8873 17.75 15.4709 18.3718 16.4317 18.905C16.9634 19.2001 17.5823 19.4557 18.2706 19.6649C19.0441 19.8998 19.8872 20.0691 20.7762 20.1684L21.0424 20.1981L20.8648 20.0012ZM16.5329 18.7294C15.5327 18.1743 15.0996 17.6073 15.1141 17.2915C15.1278 16.9901 15.5469 16.9355 15.7953 16.9298C15.8086 16.9295 15.8219 16.9293 15.8353 16.9293C16.6358 16.9293 17.7232 17.4738 18.9836 18.5067C19.6708 19.0699 20.2413 19.6414 20.5225 19.9343C18.987 19.7344 17.5791 19.3101 16.5329 18.7294Z" fill="#353535"/>
<path d="M39.1729 29.4931C39.1729 29.4931 43.7789 31.42 45.8092 30.4164C47.8394 29.4128 44.5182 27.6966 39.1729 29.4931Z" fill="#A13820"/>
<path d="M46.4711 29.5463C46.2659 29.0674 45.3756 28.7162 44.1476 28.6297C43.4663 28.5818 42.7162 28.6147 41.9185 28.7275C41.022 28.8541 40.0872 29.0799 39.1402 29.3981L38.8867 29.4834L39.1332 29.5864C39.1447 29.5912 40.308 30.0752 41.7046 30.4293C42.527 30.6377 43.2693 30.7615 43.9105 30.7967C44.0383 30.8038 44.1623 30.8073 44.2822 30.8073C44.9238 30.8073 45.4521 30.7067 45.8559 30.507C46.1227 30.3751 46.3115 30.2261 46.4171 30.064C46.526 29.8969 46.5446 29.7178 46.4711 29.5463ZM41.7585 30.2346C40.7626 29.9822 39.8869 29.6632 39.4707 29.5028C41.1342 28.9739 42.7803 28.7358 44.1329 28.831C44.7207 28.8724 45.237 28.9764 45.6258 29.1316C45.9717 29.2696 46.2046 29.4447 46.2816 29.6244C46.4189 29.9449 46.0159 30.2019 45.7634 30.3268C44.9564 30.7259 43.5714 30.6938 41.7585 30.2346Z" fill="#353535"/>
<path d="M33.9984 21.3586C33.9984 21.3586 35.4541 18.441 34.8498 17.0906C34.2454 15.7403 32.976 17.8326 33.9984 21.3586Z" fill="#A13820"/>
<path d="M34.9428 17.0506C34.7033 16.5156 34.3955 16.5574 34.2742 16.6004C33.9327 16.7209 33.657 17.2964 33.5545 18.102C33.4349 19.043 33.557 20.2096 33.8984 21.3869L33.9718 21.6398L34.0896 21.4037C34.0932 21.3962 34.4602 20.6571 34.7475 19.762C35.1379 18.546 35.2037 17.6337 34.9428 17.0506ZM33.7585 18.127C33.8625 17.3097 34.1274 16.8666 34.3438 16.7902C34.3662 16.7823 34.3878 16.7786 34.4087 16.7786C34.5702 16.7786 34.6924 16.9929 34.7545 17.1319C35.2318 18.1982 34.3521 20.3346 34.0223 21.0642C33.745 20.0048 33.6513 18.9709 33.7585 18.127Z" fill="#353535"/>
<path d="M24.7898 28.2173C24.7898 28.2173 24.9096 24.9706 23.7976 23.9787C22.6856 22.9867 22.3938 25.4051 24.7898 28.2173Z" fill="#A13820"/>
<path d="M24.8159 26.4581C24.6682 25.1914 24.35 24.332 23.8697 23.9038C23.4291 23.5108 23.1654 23.6719 23.0725 23.7595C22.8104 24.0063 22.7972 24.6421 23.0378 25.4186C23.3187 26.3261 23.9141 27.3428 24.714 28.2818L24.8858 28.4835L24.8955 28.2207C24.8958 28.2125 24.9246 27.3907 24.8159 26.4581ZM23.2345 25.3601C22.9904 24.572 23.0488 24.0615 23.2148 23.9051C23.2542 23.8679 23.3 23.8529 23.3484 23.8529C23.4824 23.8529 23.6365 23.9684 23.7315 24.0531C24.6096 24.8365 24.6921 27.1393 24.6934 27.9375C24.0007 27.0806 23.4863 26.1737 23.2345 25.3601Z" fill="#353535"/>
<path d="M14.2605 31.0792C14.2605 31.0792 13.0085 30.3142 11.807 30.1408C10.5229 29.9554 9.49678 30.4491 9.44498 31.1619C9.37772 32.0867 11.4057 30.894 14.2605 31.0792Z" fill="#A13820"/>
<path d="M14.3189 30.9937C14.2671 30.9619 13.0349 30.2157 11.8261 30.0412C11.0005 29.922 10.2282 30.0711 9.76006 30.4403C9.50926 30.6381 9.36619 30.8852 9.34657 31.1549C9.33533 31.3089 9.37551 31.4267 9.46555 31.5054C9.55797 31.5858 9.69549 31.6179 9.87711 31.6179C10.1388 31.6179 10.4923 31.5514 10.9342 31.4685C11.7753 31.3102 12.9271 31.0937 14.2579 31.1801L14.6674 31.2065L14.3189 30.9937ZM10.8956 31.2702C10.2567 31.3903 9.75206 31.4851 9.60214 31.3544C9.58721 31.3415 9.54204 31.302 9.55158 31.1692C9.56713 30.957 9.68372 30.7594 9.88881 30.5976C10.2146 30.3406 10.7108 30.2023 11.2723 30.2023C11.4419 30.2023 11.6176 30.2151 11.7963 30.2408C12.5744 30.3531 13.3841 30.724 13.84 30.9605C12.6668 30.9372 11.6558 31.1272 10.8956 31.2702Z" fill="#353535"/>
<path d="M35.1365 15.0341C35.1365 15.0341 34.9599 13.0862 35.4626 11.5946C36.0001 10.0003 37.1993 9.15857 38.085 9.57934C39.2341 10.1254 36.6036 11.6427 35.1365 15.0341Z" fill="#A13820"/>
<path d="M38.4638 9.84229C38.4286 9.69238 38.3211 9.57658 38.1352 9.48815C37.8017 9.32977 37.4212 9.33075 37.035 9.49126C36.3314 9.78344 35.7092 10.5577 35.3704 11.5625C34.8667 13.0568 35.0323 14.9624 35.0396 15.0428L35.076 15.4445L35.2366 15.0732C35.9219 13.489 36.8642 12.3154 37.5525 11.4584C38.1538 10.7093 38.551 10.2146 38.4638 9.84229ZM37.391 11.3334C36.7521 12.129 35.8965 13.1945 35.222 14.61C35.2005 13.961 35.2132 12.6714 35.5656 11.6259C35.886 10.6755 36.4653 9.94697 37.1151 9.67717C37.2832 9.60728 37.4491 9.57234 37.6082 9.57234C37.7617 9.57234 37.9089 9.60486 38.0457 9.66984C38.1719 9.72982 38.2433 9.80114 38.2634 9.88752C38.3287 10.1656 37.9148 10.681 37.391 11.3334Z" fill="#353535"/>
</g>
<defs>
<clipPath id="clip0_230_22901">
<rect width="100" height="56" fill="white"/>
</clipPath>
</defs>
</svg>
