<svg width="89" height="56" viewBox="0 0 89 56" fill="none" xmlns="http://www.w3.org/2000/svg">
<path d="M22.3932 29.945L8.51367 5.14746L73.4734 17.0902L78.129 29.945H22.3932Z" fill="#EA2234"/>
<path d="M31.5298 31.5957L25.0469 49.4014L76.8233 44.2768L81.2612 31.5957H31.5298Z" fill="#111111"/>
<path d="M34.1843 42.2353L37.056 34.4182H39.8406V39.456L43.5389 34.4182H46.367L43.6259 42.2353H41.494L43.3649 37.2411L39.6231 42.2353H38.1437V37.1977L36.2293 42.2353H34.1843Z" fill="white"/>
<path d="M54.5904 34.4182L54.0683 35.8948H49.5869L48.9342 37.4582H52.9806L52.3279 38.9782H48.4991L47.8029 40.7588H52.3714L51.8493 42.2353H45.1924L48.1075 34.4182H54.5904Z" fill="white"/>
<path d="M62.2046 35.808C61.9435 34.9828 60.9428 34.4182 60.2031 34.4182C59.681 34.4182 55.8522 34.4182 55.8522 34.4182L52.8936 42.2353H57.4186C57.4186 42.2353 59.9421 42.0182 61.1168 40.0639C62.2046 38.3702 62.5527 36.8502 62.2046 35.808ZM59.333 39.2388C58.8109 40.1942 57.8972 40.6719 57.375 40.6719C56.8529 40.6719 55.6346 40.6719 55.6346 40.6719L57.375 35.8948H59.0283C59.0719 35.8948 61.0299 36.2422 59.333 39.2388Z" fill="white"/>
<path d="M64.5543 34.4182L61.6826 42.2353H63.8146L66.5992 34.4182H64.5543Z" fill="white"/>
<path d="M72.4295 34.4182H70.2976L64.4238 42.2788H66.5992L67.687 40.7153H70.3411V42.2788H72.5166L72.4295 34.4182ZM70.4281 39.3691V39.456H68.4702L70.4281 36.5897V39.3691Z" fill="white"/>
<path d="M25.3518 8.23088L8.51367 5.14746L10.8197 9.27319L25.3518 8.23088Z" fill="#EF5D54"/>
<path d="M22.8724 8.4043L27.0929 11.0968L12.0385 11.5311L10.8203 9.27288L22.8724 8.4043Z" fill="url(#paint0_linear_230_22902)"/>
<path d="M22.8711 8.4042L25.3511 8.23047L36.9682 10.3584L27.0045 11.0533L22.8711 8.4042Z" fill="#F4826A"/>
<path d="M19.7393 11.3143L36.2294 10.2285L53.3722 13.3988L42.3642 14.0502L19.7393 11.3143Z" fill="url(#paint1_linear_230_22902)"/>
<path d="M19.2607 11.3142L19.8698 12.3564L16.1715 18.8273L12.0381 11.5314L19.2607 11.3142Z" fill="#EF654C"/>
<path d="M17.4771 21.129L24.2647 19.1747L19.8702 12.3564L16.1719 18.8273L17.4771 21.129Z" fill="#F4825B"/>
<path d="M19.1299 11.2705L42.7991 14.0933L24.264 19.1744L19.1299 11.2705Z" fill="url(#paint2_linear_230_22902)"/>
<path d="M24.264 19.1748L26.222 22.1714L18.8254 23.5611L17.4766 21.1291L24.264 19.1748Z" fill="#DA4F2A"/>
<path d="M21.0017 27.4701L29.399 27.253L26.2228 22.1719L18.8262 23.5616L21.0017 27.4701Z" fill="#ED5627"/>
<path d="M20.7402 26.9485L25.0477 29.945H22.3936L20.7402 26.9485Z" fill="#F47F41"/>
<path d="M27.7881 27.2959L23.8723 29.1198L21.4792 27.4696L27.7881 27.2959Z" fill="#F36F37"/>
<path d="M29.3987 27.2529L31.1826 29.9454H25.0478L23.873 29.1203L27.7889 27.2964L29.3987 27.2529Z" fill="#F47B39"/>
<path d="M27.6149 18.2629L35.4901 20.6515L26.2226 22.1715L24.2646 19.1749L27.6149 18.2629Z" fill="#C74329"/>
<path d="M35.4894 16.0918L39.6664 18.8277V19.6963L35.4894 20.6518L27.6143 18.2632L35.4894 16.0918Z" fill="#CE4829"/>
<path d="M39.9718 14.875L39.6672 18.827L35.4902 16.091L39.9718 14.875Z" fill="#CD4229"/>
<path d="M42.3211 14.2236L40.9722 19.3047L40.3196 21.7802H39.2754L39.9715 14.875L42.3211 14.2236Z" fill="#C2332A"/>
<path d="M58.419 16.2647L40.9717 19.3047L42.3204 14.2236L58.419 16.2647Z" fill="#B7212A"/>
<path d="M54.1116 13.5291L73.4734 17.0902L73.865 18.1759L42.3206 14.2239V14.0936L54.1116 13.5291Z" fill="#E92330"/>
<path d="M75.3445 22.3012L40.3193 21.7801L40.972 19.3046L58.2453 16.2646L73.8652 18.1755L75.3445 22.3012Z" fill="#DA222A"/>
<path d="M39.4932 19.7395L39.2756 21.7806L35.4902 20.6515L39.4932 19.7395Z" fill="#E54727"/>
<path d="M29.0508 26.6445L39.2755 21.7805L35.4902 20.6514L26.2227 22.1714L29.0508 26.6445Z" fill="#DE492A"/>
<path d="M29.2238 26.9485L38.97 26.6445L39.2746 21.7805L29.0498 26.6445L29.2238 26.9485Z" fill="#DD563A"/>
<path d="M29.3977 27.2525L38.5782 28.9028L38.9698 26.6445L29.2236 26.9485L29.3977 27.2525Z" fill="#EF5E3B"/>
<path d="M31.1824 29.9454H38.4919L38.579 28.9032L29.3984 27.2529L31.1824 29.9454Z" fill="#F68E51"/>
<path d="M38.9705 26.6445L76.2582 24.7771L75.3445 22.3016L39.2751 21.7805L38.9705 26.6445Z" fill="#C7242A"/>
<path d="M78.1294 29.9453L76.2585 24.7773L38.9708 26.6448L38.4922 29.9453H78.1294Z" fill="url(#paint3_linear_230_22902)"/>
<path d="M32.4002 19.3047H30.2247L24.4814 27.1218H26.6134L27.6576 25.6887H30.4422L30.4857 27.1218H32.6178L32.4002 19.3047ZM30.4422 24.3424H28.5278L30.4422 21.4761V24.3424Z" fill="white"/>
<path d="M41.6674 22.5187C42.059 22.0844 42.4941 21.4764 42.4506 20.6946C42.4071 19.913 41.8849 19.5221 41.4499 19.4353C41.0148 19.3484 40.5362 19.3484 40.5362 19.3484H36.0547L33.2266 27.1655H35.2716L36.2287 24.3861C36.2287 24.3861 37.6645 24.3861 38.1867 24.3861C38.7088 24.3861 38.7088 24.8638 38.5782 25.2546C38.4477 25.6455 38.2736 26.2101 38.1431 26.4707C38.0561 26.7313 38.1867 27.1221 38.6217 27.1221C39.3179 27.1221 40.2752 27.1221 40.2752 27.1221C40.2752 27.1221 39.9271 26.9483 40.0576 26.5141C40.1446 26.1666 40.6667 24.6901 40.7972 24.3427C40.9278 23.9952 40.8407 23.8215 40.5797 23.6913C40.4057 23.6044 39.9706 23.6044 39.9706 23.6044L40.014 23.4307C40.1011 23.3873 41.0583 23.1701 41.6674 22.5187ZM39.84 22.3015C39.492 22.8227 38.7522 22.8227 38.7522 22.8227H36.8813L37.5775 20.8249C37.5775 20.8249 39.0568 20.8249 39.492 20.8249C39.9271 20.8249 40.0576 20.9552 40.1881 21.1724C40.2752 21.433 40.1011 21.9107 39.84 22.3015Z" fill="white"/>
<path d="M49.9347 22.5187C50.3264 22.0844 50.7614 21.4764 50.7179 20.6946C50.6744 19.913 50.1523 19.5221 49.7172 19.4353C49.2821 19.3484 48.8035 19.3484 48.8035 19.3484H44.322L41.4939 27.1655H43.5388L44.4961 24.3861C44.4961 24.3861 45.9319 24.3861 46.4539 24.3861C46.9761 24.3861 46.9761 24.8638 46.8456 25.2546C46.7151 25.6455 46.541 26.2101 46.4105 26.4707C46.3234 26.7313 46.4539 27.1221 46.8891 27.1221C47.5852 27.1221 48.5424 27.1221 48.5424 27.1221C48.5424 27.1221 48.1943 26.9483 48.3249 26.5141C48.4119 26.1666 48.9341 24.6901 49.0646 24.3427C49.1951 23.9952 49.108 23.8215 48.847 23.6913C48.6729 23.6044 48.2379 23.6044 48.2379 23.6044L48.2814 23.4307C48.3684 23.3873 49.3256 23.1701 49.9347 22.5187ZM48.0638 22.3015C47.7157 22.8227 46.9761 22.8227 46.9761 22.8227H45.1052L45.8013 20.8249C45.8013 20.8249 47.2807 20.8249 47.7157 20.8249C48.1509 20.8249 48.2814 20.9552 48.4119 21.1724C48.5424 21.433 48.3684 21.9107 48.0638 22.3015Z" fill="white"/>
<path d="M56.8962 19.1315C54.8947 19.0446 52.7193 19.4788 51.2834 21.9109C49.543 24.8205 50.0652 27.3394 53.0238 27.3828C55.8084 27.4263 57.3748 26.3405 58.506 24.2994C59.5068 22.4754 60.0724 19.2182 56.8962 19.1315ZM56.6787 23.648C55.9825 25.0377 55.2428 25.776 53.807 25.776C52.2406 25.776 52.4582 23.952 53.1543 22.5623C53.981 20.8685 55.0252 20.4777 56.0695 20.5646C57.5923 20.6515 57.0702 22.8663 56.6787 23.648Z" fill="white"/>
<path d="M60.4202 19.2617H62.5957L61.8125 24.864L65.2498 19.2617H66.9902L66.4245 24.864L69.6878 19.2617H71.8197L66.8161 27.2091H64.5971L65.2933 21.6069L61.8995 27.2091H59.7676L60.4202 19.2617Z" fill="white"/>
<defs>
<linearGradient id="paint0_linear_230_22902" x1="19.2331" y1="8.34022" x2="18.7254" y2="11.7735" gradientUnits="userSpaceOnUse">
<stop stop-color="#F37165"/>
<stop offset="0.3746" stop-color="#F37369"/>
<stop offset="0.8649" stop-color="#F37973"/>
<stop offset="1" stop-color="#F37B76"/>
</linearGradient>
<linearGradient id="paint1_linear_230_22902" x1="20.3194" y1="13.7035" x2="48.6422" y2="11.3294" gradientUnits="userSpaceOnUse">
<stop offset="0.0099995" stop-color="white"/>
<stop offset="1" stop-color="#EE4A9A"/>
</linearGradient>
<linearGradient id="paint2_linear_230_22902" x1="19.1488" y1="15.2206" x2="42.8034" y2="15.2206" gradientUnits="userSpaceOnUse">
<stop offset="0.0099995" stop-color="#F15F45"/>
<stop offset="1" stop-color="#F04C30"/>
</linearGradient>
<linearGradient id="paint3_linear_230_22902" x1="56.0122" y1="30.8295" x2="60.4489" y2="26.3597" gradientUnits="userSpaceOnUse">
<stop offset="0.0099995" stop-color="#EE202F"/>
<stop offset="1" stop-color="#EE1F3F"/>
</linearGradient>
</defs>
</svg>
