<?xml version="1.0" encoding="utf-8"?>
<!-- Generator: Adobe Illustrator 23.0.1, SVG Export Plug-In . SVG Version: 6.00 Build 0)  -->
<svg version="1.1" id="Слой_1" xmlns="http://www.w3.org/2000/svg" xmlns:xlink="http://www.w3.org/1999/xlink" x="0px" y="0px"
	 viewBox="0 0 100 116.9" style="enable-background:new 0 0 100 116.9;" xml:space="preserve">
<style type="text/css">
	.st0{clip-path:url(#SVGID_2_);fill:#57B36E;}
	.st1{clip-path:url(#SVGID_4_);fill:#57B36E;}
	.st2{fill:#FFFFFF;}
	.st3{fill:#E1EBF0;}
	.st4{fill:#848484;}
	.st5{fill:#CBCBCB;}
	.st6{fill:#E5E5E5;}
	.st7{fill:#444444;}
	.st8{fill:#7B7B7B;}
	.st9{fill:#686868;}
	.st10{fill:#E84C4F;}
</style>
<g>
	<g>
		<g>
			<g>
				<g>
					<g>
						<defs>
							<rect id="SVGID_1_" y="0" width="100" height="116.9"/>
						</defs>
						<clipPath id="SVGID_2_">
							<use xlink:href="#SVGID_1_"  style="overflow:visible;"/>
						</clipPath>
						<path class="st0" d="M94.4,78c-3.2,8.6-7.8,16-14.2,22c-7.1,6.9-16.4,12.5-27.6,16.4c-0.4,0.2-0.7,0.2-1.1,0.4
							c-0.6,0.2-1.1,0.2-1.5,0.2h-0.2c-0.6,0-1.1,0-1.7-0.2c-0.4,0-0.7-0.2-1.1-0.4c-11.2-3.9-20.5-9.5-27.6-16.4
							c-6.3-6-11-13.4-14.2-22c-5.8-15.5-5.4-32.6-5-46.2v-0.2c0-1.1,0-2.2,0.2-3.7c-0.2-6.3,5-11.7,11.5-12.1
							C25.5,15.1,35.9,10.6,44.9,2l0,0c1.5-1.3,3.4-2,5.2-2c1.9,0,3.5,0.7,5,2l0,0c8.9,8.8,19.4,13,32.8,13.8
							c6.5,0.4,11.5,5.8,11.7,12.1c0,1.3,0,2.4,0.2,3.7l0,0C99.8,45.4,100.2,62.6,94.4,78L94.4,78z"/>
					</g>
				</g>
				<g>
					<g>
						<defs>
							<rect id="SVGID_3_" y="0" width="100" height="116.9"/>
						</defs>
						<clipPath id="SVGID_4_">
							<use xlink:href="#SVGID_3_"  style="overflow:visible;"/>
						</clipPath>
						<path class="st1" d="M94.4,78c-3.2,8.6-7.8,16-14.2,22c-7.1,6.9-16.4,12.5-27.6,16.4c-0.4,0.2-0.7,0.2-1.1,0.4
							c-0.6,0.2-1.1,0.2-1.5,0.2V0c1.9,0,3.5,0.7,5,2l0,0c8.9,8.8,19.4,13,32.8,13.8c6.5,0.4,11.5,5.8,11.7,12.1
							c0,1.3,0,2.4,0.2,3.7l0,0C99.8,45.4,100.2,62.6,94.4,78L94.4,78z"/>
					</g>
				</g>
			</g>
			<path class="st2" d="M79.1,58.5c0,16-13,29.1-29.1,29.1h-0.2c-16,0-29.1-13-29.1-29.1s13-29.1,29.1-29.1h0.2
				C66.1,29.4,79.1,42.5,79.1,58.5L79.1,58.5z"/>
			<path class="st3" d="M79.1,58.5c0,16-13,29.1-29.1,29.1V29.2C66.1,29.4,79.1,42.5,79.1,58.5L79.1,58.5z"/>
		</g>
	</g>
	<g>
		<g>
			<path class="st4" d="M68,57.5c-0.4,0-0.7-0.4-0.7-0.7v-1.9c0-9.5-7.8-17.3-17.3-17.3s-17.3,7.8-17.3,17.3v1.9
				c0,0.4-0.4,0.7-0.7,0.7c-0.4,0-0.7-0.4-0.7-0.7v-1.9c0-10.4,8.4-18.8,18.8-18.8s18.8,8.4,18.8,18.8v1.9
				C68.7,57.4,68.3,57.5,68,57.5z"/>
			<path class="st4" d="M67.2,65.9h-1.9c-0.4,0-0.7-0.4-0.7-0.7c0-0.4,0.4-0.7,0.7-0.7h1.9c0.6,0,0.9-0.4,0.9-0.9v-3.9
				c0-0.4,0.4-0.7,0.7-0.7c0.4,0,0.7,0.4,0.7,0.7v3.9C69.5,65,68.5,65.9,67.2,65.9z"/>
			<path class="st5" d="M44.7,66.5h10.2v8.8H44.7V66.5z"/>
			<path class="st6" d="M65.2,63.1c0.2-0.6,0.2-1.1,0.2-1.9V48.6c0-4.1-3.4-7.4-7.4-7.4h-16c-4.1,0-7.4,3.4-7.4,7.4v12.7
				c0,4.1,3.4,7.4,7.4,7.4h16.2c1.9,0,3.5-0.7,4.8-1.9"/>
			<path class="st5" d="M40.2,64.2v4.5c-3.4-0.7-5.8-3.7-5.8-7.3v-4.3C37.8,57.9,40.2,60.7,40.2,64.2z"/>
			<path class="st5" d="M65.4,57.2v4.3c0,0.6,0,1.3-0.2,1.9L62.9,67c-0.9,0.7-2,1.3-3.2,1.7v-4.3C59.6,60.7,62,57.9,65.4,57.2z"/>
			<path class="st2" d="M47.9,52.5c0,2.6-2,4.8-4.8,4.8c-2.6,0-4.8-2-4.8-4.8c0-2.6,2-4.8,4.8-4.8C45.6,47.9,47.9,49.9,47.9,52.5z"
				/>
			<path class="st2" d="M61.6,52.5c0,2.6-2,4.8-4.8,4.8c-2.8,0-4.8-2-4.8-4.8c0-2.6,2-4.8,4.8-4.8C59.6,47.7,61.6,49.9,61.6,52.5z"
				/>
			<path class="st7" d="M43,54.4c-0.9,0-1.9-0.7-1.9-1.9s0.7-1.9,1.9-1.9c0.9,0,1.9,0.7,1.9,1.9C44.9,53.6,43.9,54.4,43,54.4z"/>
			<path class="st7" d="M56.8,54.4c-0.9,0-1.9-0.7-1.9-1.9s0.7-1.9,1.9-1.9s1.9,0.7,1.9,1.9S57.7,54.4,56.8,54.4z"/>
			<path class="st7" d="M38.4,65.4c0,1.1-0.9,2-2,2h-0.7c-1.1,0-2-0.9-2-2c0-1.1,0.9-2,2-2h0.7C37.4,63.1,38.4,64.1,38.4,65.4z"/>
			<g>
				<path class="st8" d="M47.1,61.1h2v7.8h-2V61.1z"/>
				<path class="st8" d="M50.7,61.1h2v7.8h-2V61.1z"/>
				<path class="st8" d="M54.2,61.3v7.6h2v-4.8C56.2,62.6,55.5,61.5,54.2,61.3z"/>
				<path class="st8" d="M45.6,61.3c-1.1,0.4-2,1.5-2,2.8v4.8h2V61.3z"/>
			</g>
			<path class="st9" d="M34.5,51.4v7.3c0,1.1-0.7,2-1.9,2.4c-0.2,0-0.4,0-0.7,0h-0.9c-1.3,0-2.4-1.1-2.4-2.4v-7.3
				c0-1.3,1.1-2.4,2.4-2.4h0.9c0.2,0,0.4,0,0.7,0C33.7,49.3,34.5,50.3,34.5,51.4z"/>
			<path class="st8" d="M34.5,51.4v7.3c0,1.1-0.7,2-1.9,2.4c-1.1-0.4-1.9-1.3-1.9-2.4v-7.3c0-1.1,0.7-2,1.9-2.4
				C33.7,49.3,34.5,50.3,34.5,51.4z"/>
			<path class="st9" d="M71.3,51.4v7.3c0,1.1-0.7,2-1.9,2.4c-0.2,0-0.4,0-0.7,0h-0.9c-1.3,0-2.4-1.1-2.4-2.4v-7.3
				c0-1.3,1.1-2.4,2.4-2.4h0.9c0.2,0,0.4,0,0.7,0C70.6,49.3,71.3,50.3,71.3,51.4z"/>
			<path class="st8" d="M71.3,51.4v7.3c0,1.1-0.7,2-1.9,2.4c-1.1-0.4-1.9-1.3-1.9-2.4v-7.3c0-1.1,0.7-2,1.9-2.4
				C70.6,49.3,71.3,50.3,71.3,51.4z"/>
			<path class="st7" d="M64.1,63.1h0.7c1.1,0,2,0.9,2,2s-0.9,2-2,2h-0.7c-1.1,0-2-0.9-2-2S62.9,63.1,64.1,63.1z"/>
			<path class="st4" d="M30.7,63.7v-3.9c0-0.4,0.4-0.7,0.7-0.7c0.4,0,0.7,0.4,0.7,0.7v3.9c0,0.6,0.4,0.9,0.9,0.9H35
				c0.4,0,0.7,0.4,0.7,0.7c0,0.4-0.4,0.7-0.7,0.7h-1.9C31.8,66.1,30.7,65,30.7,63.7z"/>
			<path class="st5" d="M64.8,77.7L64.8,77.7L35,77.8v-0.2c0-2.6,2-4.8,4.8-4.8h20.3C62.6,72.8,64.8,75,64.8,77.7z"/>
			<path class="st6" d="M64.8,77.7L64.8,77.7l-24.2,0.2v-0.2c0-2.6,2-4.8,4.8-4.8h14.7C62.6,72.8,64.8,75,64.8,77.7z"/>
		</g>
	</g>
	<path class="st10" d="M49.7,30.9c-14.9,0-27,12.1-27,27s12.1,27,27,27s27-12.1,27-27S64.6,30.9,49.7,30.9L49.7,30.9z M49.7,81.8
		c-13,0-23.8-10.6-23.8-23.8c0-5.8,2.2-11.4,6-15.6l33.5,33.5C60.9,79.5,55.5,81.8,49.7,81.8L49.7,81.8z M67.6,73.6L34.1,40
		c4.3-3.7,9.7-6,15.6-6c13,0,23.8,10.6,23.8,23.8C73.6,63.7,71.3,69.3,67.6,73.6L67.6,73.6z"/>
</g>
</svg>
