<?xml version="1.0" encoding="utf-8"?>
<!-- Generator: Adobe Illustrator 23.0.1, SVG Export Plug-In . SVG Version: 6.00 Build 0)  -->
<svg version="1.1" id="Слой_1" xmlns="http://www.w3.org/2000/svg" xmlns:xlink="http://www.w3.org/1999/xlink" x="0px" y="0px"
	 viewBox="0 0 530.1 414.4" style="enable-background:new 0 0 530.1 414.4;" xml:space="preserve">
<style type="text/css">
	.st0{fill:#FBBC04;}
	.st1{opacity:0.76;}
	.st2{clip-path:url(#SVGID_2_);}
	.st3{fill:#4285F4;}
	.st4{fill:#CCCCCC;}
</style>
<g>
	<ellipse class="st0" cx="47.5" cy="27.9" rx="27.9" ry="27.9"/>
	<g class="st1">
		<defs>
			<ellipse id="SVGID_1_" class="st1" cx="479.4" cy="365.5" rx="44.6" ry="44.5"/>
		</defs>
		<clipPath id="SVGID_2_">
			<use xlink:href="#SVGID_1_"  style="overflow:visible;"/>
		</clipPath>
		<g class="st2">
			<g>
				<rect x="428.7" y="329" class="st3" width="101.4" height="3.6"/>
				<g>
					<rect x="428.7" y="312.6" class="st3" width="101.4" height="3.6"/>
					<rect x="428.7" y="320.8" class="st3" width="101.4" height="3.6"/>
					<rect x="428.7" y="337.2" class="st3" width="101.4" height="3.6"/>
					<rect x="428.7" y="345.4" class="st3" width="101.4" height="3.6"/>
					<rect x="428.7" y="353.6" class="st3" width="101.4" height="3.6"/>
					<rect x="428.7" y="361.7" class="st3" width="101.4" height="3.6"/>
					<rect x="428.7" y="369.9" class="st3" width="101.4" height="3.6"/>
					<rect x="428.7" y="378.1" class="st3" width="101.4" height="3.6"/>
					<rect x="428.7" y="386.3" class="st3" width="101.4" height="3.6"/>
					<rect x="428.7" y="394.5" class="st3" width="101.4" height="3.6"/>
					<rect x="428.7" y="402.7" class="st3" width="101.4" height="3.6"/>
					<rect x="428.7" y="410.9" class="st3" width="101.4" height="3.6"/>
				</g>
			</g>
		</g>
	</g>
	<g>
		<g>
			<path class="st4" d="M9.5,182.4c0,2.6-2.1,4.7-4.7,4.7c-2.6,0-4.7-2.1-4.7-4.7c0-2.6,2.1-4.7,4.7-4.7
				C7.3,177.7,9.5,179.8,9.5,182.4z"/>
			<path class="st4" d="M33.7,182.4c0,2.6-2.1,4.7-4.7,4.7c-2.6,0-4.7-2.1-4.7-4.7c0-2.6,2.1-4.7,4.7-4.7
				C31.6,177.7,33.7,179.8,33.7,182.4z"/>
			<path class="st4" d="M58,182.4c0,2.6-2.1,4.7-4.7,4.7c-2.6,0-4.7-2.1-4.7-4.7c0-2.6,2.1-4.7,4.7-4.7
				C55.9,177.7,58,179.8,58,182.4z"/>
			<path class="st4" d="M82.3,182.4c0,2.6-2.1,4.7-4.7,4.7c-2.6,0-4.7-2.1-4.7-4.7c0-2.6,2.1-4.7,4.7-4.7
				C80.2,177.7,82.3,179.8,82.3,182.4z"/>
			<path class="st4" d="M106.6,182.4c0,2.6-2.1,4.7-4.7,4.7c-2.6,0-4.7-2.1-4.7-4.7c0-2.6,2.1-4.7,4.7-4.7
				C104.5,177.7,106.6,179.8,106.6,182.4z"/>
			<path class="st4" d="M130.9,182.4c0,2.6-2.1,4.7-4.7,4.7c-2.6,0-4.7-2.1-4.7-4.7c0-2.6,2.1-4.7,4.7-4.7
				C128.8,177.7,130.9,179.8,130.9,182.4z"/>
		</g>
		<g>
			<path class="st4" d="M9.5,206.7c0,2.6-2.1,4.7-4.7,4.7c-2.6,0-4.7-2.1-4.7-4.7c0-2.6,2.1-4.7,4.7-4.7
				C7.3,201.9,9.5,204.1,9.5,206.7z"/>
			<path class="st4" d="M33.7,206.7c0,2.6-2.1,4.7-4.7,4.7c-2.6,0-4.7-2.1-4.7-4.7c0-2.6,2.1-4.7,4.7-4.7
				C31.6,201.9,33.7,204.1,33.7,206.7z"/>
			<path class="st4" d="M58,206.7c0,2.6-2.1,4.7-4.7,4.7c-2.6,0-4.7-2.1-4.7-4.7c0-2.6,2.1-4.7,4.7-4.7
				C55.9,201.9,58,204.1,58,206.7z"/>
			<path class="st4" d="M82.3,206.7c0,2.6-2.1,4.7-4.7,4.7c-2.6,0-4.7-2.1-4.7-4.7c0-2.6,2.1-4.7,4.7-4.7
				C80.2,201.9,82.3,204.1,82.3,206.7z"/>
			<path class="st4" d="M106.6,206.7c0,2.6-2.1,4.7-4.7,4.7c-2.6,0-4.7-2.1-4.7-4.7c0-2.6,2.1-4.7,4.7-4.7
				C104.5,201.9,106.6,204.1,106.6,206.7z"/>
			<path class="st4" d="M130.9,206.7c0,2.6-2.1,4.7-4.7,4.7c-2.6,0-4.7-2.1-4.7-4.7c0-2.6,2.1-4.7,4.7-4.7
				C128.8,201.9,130.9,204.1,130.9,206.7z"/>
		</g>
		<g>
			<path class="st4" d="M9.5,230.9c0,2.6-2.1,4.7-4.7,4.7c-2.6,0-4.7-2.1-4.7-4.7c0-2.6,2.1-4.7,4.7-4.7
				C7.3,226.2,9.5,228.3,9.5,230.9z"/>
			<path class="st4" d="M33.7,230.9c0,2.6-2.1,4.7-4.7,4.7c-2.6,0-4.7-2.1-4.7-4.7c0-2.6,2.1-4.7,4.7-4.7
				C31.6,226.2,33.7,228.3,33.7,230.9z"/>
			<path class="st4" d="M58,230.9c0,2.6-2.1,4.7-4.7,4.7c-2.6,0-4.7-2.1-4.7-4.7c0-2.6,2.1-4.7,4.7-4.7
				C55.9,226.2,58,228.3,58,230.9z"/>
			<path class="st4" d="M82.3,230.9c0,2.6-2.1,4.7-4.7,4.7c-2.6,0-4.7-2.1-4.7-4.7c0-2.6,2.1-4.7,4.7-4.7
				C80.2,226.2,82.3,228.3,82.3,230.9z"/>
			<path class="st4" d="M106.6,230.9c0,2.6-2.1,4.7-4.7,4.7c-2.6,0-4.7-2.1-4.7-4.7c0-2.6,2.1-4.7,4.7-4.7
				C104.5,226.2,106.6,228.3,106.6,230.9z"/>
			<path class="st4" d="M130.9,230.9c0,2.6-2.1,4.7-4.7,4.7c-2.6,0-4.7-2.1-4.7-4.7c0-2.6,2.1-4.7,4.7-4.7
				C128.8,226.2,130.9,228.3,130.9,230.9z"/>
		</g>
		<g>
			<path class="st4" d="M9.5,255.2c0,2.6-2.1,4.7-4.7,4.7c-2.6,0-4.7-2.1-4.7-4.7c0-2.6,2.1-4.7,4.7-4.7
				C7.3,250.4,9.5,252.6,9.5,255.2z"/>
			<path class="st4" d="M33.7,255.2c0,2.6-2.1,4.7-4.7,4.7c-2.6,0-4.7-2.1-4.7-4.7c0-2.6,2.1-4.7,4.7-4.7
				C31.6,250.4,33.7,252.6,33.7,255.2z"/>
			<path class="st4" d="M58,255.2c0,2.6-2.1,4.7-4.7,4.7c-2.6,0-4.7-2.1-4.7-4.7c0-2.6,2.1-4.7,4.7-4.7
				C55.9,250.4,58,252.6,58,255.2z"/>
			<path class="st4" d="M82.3,255.2c0,2.6-2.1,4.7-4.7,4.7c-2.6,0-4.7-2.1-4.7-4.7c0-2.6,2.1-4.7,4.7-4.7
				C80.2,250.4,82.3,252.6,82.3,255.2z"/>
			<path class="st4" d="M106.6,255.2c0,2.6-2.1,4.7-4.7,4.7c-2.6,0-4.7-2.1-4.7-4.7c0-2.6,2.1-4.7,4.7-4.7
				C104.5,250.4,106.6,252.6,106.6,255.2z"/>
			<path class="st4" d="M130.9,255.2c0,2.6-2.1,4.7-4.7,4.7c-2.6,0-4.7-2.1-4.7-4.7c0-2.6,2.1-4.7,4.7-4.7
				C128.8,250.4,130.9,252.6,130.9,255.2z"/>
		</g>
		<g>
			<path class="st4" d="M9.5,279.4c0,2.6-2.1,4.7-4.7,4.7c-2.6,0-4.7-2.1-4.7-4.7c0-2.6,2.1-4.7,4.7-4.7
				C7.3,274.7,9.5,276.8,9.5,279.4z"/>
			<path class="st4" d="M33.7,279.4c0,2.6-2.1,4.7-4.7,4.7c-2.6,0-4.7-2.1-4.7-4.7c0-2.6,2.1-4.7,4.7-4.7
				C31.6,274.7,33.7,276.8,33.7,279.4z"/>
			<path class="st4" d="M58,279.4c0,2.6-2.1,4.7-4.7,4.7c-2.6,0-4.7-2.1-4.7-4.7c0-2.6,2.1-4.7,4.7-4.7
				C55.9,274.7,58,276.8,58,279.4z"/>
			<path class="st4" d="M82.3,279.4c0,2.6-2.1,4.7-4.7,4.7c-2.6,0-4.7-2.1-4.7-4.7c0-2.6,2.1-4.7,4.7-4.7
				C80.2,274.7,82.3,276.8,82.3,279.4z"/>
			<path class="st4" d="M106.6,279.4c0,2.6-2.1,4.7-4.7,4.7c-2.6,0-4.7-2.1-4.7-4.7c0-2.6,2.1-4.7,4.7-4.7
				C104.5,274.7,106.6,276.8,106.6,279.4z"/>
			<path class="st4" d="M130.9,279.4c0,2.6-2.1,4.7-4.7,4.7c-2.6,0-4.7-2.1-4.7-4.7c0-2.6,2.1-4.7,4.7-4.7
				C128.8,274.7,130.9,276.8,130.9,279.4z"/>
		</g>
		<g>
			<path class="st4" d="M9.5,303.7c0,2.6-2.1,4.7-4.7,4.7c-2.6,0-4.7-2.1-4.7-4.7c0-2.6,2.1-4.7,4.7-4.7
				C7.3,299,9.5,301.1,9.5,303.7z"/>
			<path class="st4" d="M33.7,303.7c0,2.6-2.1,4.7-4.7,4.7c-2.6,0-4.7-2.1-4.7-4.7c0-2.6,2.1-4.7,4.7-4.7
				C31.6,299,33.7,301.1,33.7,303.7z"/>
			<path class="st4" d="M58,303.7c0,2.6-2.1,4.7-4.7,4.7c-2.6,0-4.7-2.1-4.7-4.7c0-2.6,2.1-4.7,4.7-4.7C55.9,299,58,301.1,58,303.7z
				"/>
			<path class="st4" d="M82.3,303.7c0,2.6-2.1,4.7-4.7,4.7c-2.6,0-4.7-2.1-4.7-4.7c0-2.6,2.1-4.7,4.7-4.7
				C80.2,299,82.3,301.1,82.3,303.7z"/>
			<path class="st4" d="M106.6,303.7c0,2.6-2.1,4.7-4.7,4.7c-2.6,0-4.7-2.1-4.7-4.7c0-2.6,2.1-4.7,4.7-4.7
				C104.5,299,106.6,301.1,106.6,303.7z"/>
			<path class="st4" d="M130.9,303.7c0,2.6-2.1,4.7-4.7,4.7c-2.6,0-4.7-2.1-4.7-4.7c0-2.6,2.1-4.7,4.7-4.7
				C128.8,299,130.9,301.1,130.9,303.7z"/>
		</g>
	</g>
</g>
</svg>
