<svg id="Слой_1" data-name="Слой 1" xmlns="http://www.w3.org/2000/svg" viewBox="0 0 125.87 77.44"><defs><style>.cls-1{fill:#455a64;}</style></defs><title>w-ico-03</title><path class="cls-1" d="M18.21,46.57a13.28,13.28,0,0,1,8.24-12.31l.74-.3.26.75a25.41,25.41,0,0,0,1.44,3.35l1.43-.79A24.3,24.3,0,1,1,76,30l1.6.31a25.61,25.61,0,0,0,.32-3.6v-.52l.49-.17a10.13,10.13,0,0,1,8.58.83l.94-1.34a11.77,11.77,0,0,0-6.12-1.71,11.9,11.9,0,0,0-3.08.41l-.85.23-.09-.88A25.94,25.94,0,0,0,26,26.16a26.39,26.39,0,0,0,.61,5.6l.14.63-.6.24a14.95,14.95,0,0,0,5.38,28.89H41.77V59.88H31.53A13.33,13.33,0,0,1,18.21,46.57Z"/><path class="cls-1" d="M107.49,41.45A13.4,13.4,0,0,0,95.9,34.76H93.52V36.4H95.9a11.75,11.75,0,0,1,6.52,21.52l.82,1.41a13.38,13.38,0,0,0,4.25-17.88Z"/><path class="cls-1" d="M98.29,74.83V46.57a.8.8,0,0,0-.24-.58.83.83,0,0,0-.58-.24H84.91a.82.82,0,0,0-.81.82v29H79.45V56a.84.84,0,0,0-.24-.58.83.83,0,0,0-.58-.24H66.07a.82.82,0,0,0-.82.82V75.58H60.61V52.85a.82.82,0,0,0-.82-.82H47.23a.82.82,0,0,0-.82.82V75.58H41.77V67a.82.82,0,0,0-.82-.82H28.39a.82.82,0,0,0-.82.82v8.6H24.43v1.64h77V75.58H98.29ZM40.13,68.55v7H29.2V67.8H40.13Zm37.69-11v18H66.89V56.81H77.82Z"/><path class="cls-1" d="M97.36,23.55,72.57,48.33l-.38.39-.49-.25L53.88,39.56a.81.81,0,0,0-.89.1L34.72,54.88l1.05,1.26L53.24,41.57l.38-.31.44.22,17.93,9a.74.74,0,0,0,.36.09.83.83,0,0,0,.58-.24L98.51,24.71l1.29-1.29v6.69h1.63V21.45a.78.78,0,0,0-.24-.58.83.83,0,0,0-.58-.24H92v1.63h6.69Z"/></svg>