<svg id="Слой_1" data-name="Слой 1" xmlns="http://www.w3.org/2000/svg" viewBox="0 0 125.87 77.44"><defs><style>.cls-1{fill:#455a64;}</style></defs><title>w-ico-05</title><path class="cls-1" d="M81.73,31.68a18.8,18.8,0,1,0-36.41,6.49,27.6,27.6,0,0,1,4.73,7,27.9,27.9,0,0,1,25.7,0,27.9,27.9,0,0,1,4.82-7A18.8,18.8,0,0,0,81.73,31.68Z"/><path class="cls-1" d="M44.38,53.53A24.7,24.7,0,0,0,38.13,70v6.26a1,1,0,0,0,2,0V70a22.75,22.75,0,0,1,5.68-15A4.1,4.1,0,0,1,44.38,53.53Z"/><path class="cls-1" d="M80.08,55a22.68,22.68,0,0,1,5.66,15v6.26a1,1,0,1,0,2,0V70a24.65,24.65,0,0,0-6.28-16.47A4.17,4.17,0,0,1,80.08,55Z"/><path class="cls-1" d="M62.93,45.16a24.66,24.66,0,0,0-10.27,2.23c-.47.22-.93.44-1.38.68.22.64.42,1.29.59,2A22.74,22.74,0,0,1,71,48.63,22,22,0,0,1,73.91,50c.18-.66.38-1.31.6-1.94-.43-.23-.86-.44-1.31-.65A24.63,24.63,0,0,0,62.93,45.16Z"/><path class="cls-1" d="M100.94,29.31a27.84,27.84,0,0,1,13,3.22,18.8,18.8,0,1,0-26,0A27.94,27.94,0,0,1,100.94,29.31Z"/><path class="cls-1" d="M111.21,34.73a24.81,24.81,0,0,0-32.71,12c-.23.49-.44,1-.64,1.49s-.39,1-.56,1.55-.31,1-.44,1.44a1,1,0,0,0,.27.92l.21.17a.9.9,0,0,0,.24.12,1.15,1.15,0,0,0,.26,0,1,1,0,0,0,1-.75c.06-.21.13-.41.19-.62.16-.55.33-1.09.53-1.63s.39-1,.62-1.53A22.85,22.85,0,0,1,92.89,36,22.59,22.59,0,0,1,109,36a22.83,22.83,0,0,1,14.74,21.33v6.27a1,1,0,0,0,1,1,1,1,0,0,0,.7-.29.94.94,0,0,0,.3-.7V57.29A24.84,24.84,0,0,0,111.21,34.73Z"/><path class="cls-1" d="M24.93,29.31a27.76,27.76,0,0,1,13,3.23,18.8,18.8,0,1,0-26,0A27.81,27.81,0,0,1,24.93,29.31Z"/><path class="cls-1" d="M48.49,49.82c-.17-.53-.35-1-.55-1.56s-.4-1-.63-1.5A24.7,24.7,0,0,0,24.93,32.49h0a24.65,24.65,0,0,0-10.28,2.23,24.91,24.91,0,0,0-7.24,5A24.65,24.65,0,0,0,.13,57.29v6.27a1,1,0,0,0,2,0V57.29A22.78,22.78,0,0,1,45.68,48c.23.51.43,1,.61,1.55s.37,1.08.52,1.64c0,.14.09.27.13.41a1,1,0,0,0,1,.75l.26,0a1,1,0,0,0,.6-.46,1,1,0,0,0,.1-.75C48.76,50.64,48.62,50.23,48.49,49.82Z"/></svg>