<svg width="38" height="38" viewBox="0 0 38 38" fill="none" xmlns="http://www.w3.org/2000/svg">
<path fill-rule="evenodd" clip-rule="evenodd" d="M18.8925 37.0864C29.1097 37.0864 37.3925 28.8037 37.3925 18.5864C37.3925 8.36916 29.1097 0.0864258 18.8925 0.0864258C8.67519 0.0864258 0.392456 8.36916 0.392456 18.5864C0.392456 28.8037 8.67519 37.0864 18.8925 37.0864ZM17.1593 19.5249C16.8162 20.3625 16.6447 21.4876 16.6447 22.9004H20.5197L20.5802 21.9771C20.6912 20.9881 21.1302 20.1253 21.8971 19.3887L23.1232 18.2231C24.0818 17.2948 24.7529 16.4521 25.1364 15.6953C25.5198 14.9284 25.7115 14.116 25.7115 13.2583C25.7115 11.3713 25.1212 9.91309 23.9406 8.88379C22.7599 7.8444 21.0999 7.32471 18.9606 7.32471C16.8414 7.32471 15.1663 7.86963 13.9352 8.95947C12.7142 10.0493 12.0935 11.5579 12.0734 13.4854H16.463C16.4832 12.6781 16.7153 12.0474 17.1593 11.5933C17.6134 11.1291 18.2138 10.897 18.9606 10.897C20.5348 10.897 21.3219 11.7497 21.3219 13.4551C21.3219 14.0202 21.1705 14.5601 20.8678 15.0747C20.5651 15.5793 19.9545 16.2402 19.0363 17.0576C18.1281 17.8649 17.5024 18.6873 17.1593 19.5249ZM16.8868 25.8823C16.4327 26.3162 16.2057 26.8713 16.2057 27.5474C16.2057 28.2134 16.4277 28.7633 16.8717 29.1973C17.3258 29.6312 17.9212 29.8481 18.6578 29.8481C19.3945 29.8481 19.9848 29.6312 20.4288 29.1973C20.8829 28.7633 21.11 28.2134 21.11 27.5474C21.11 26.8713 20.8779 26.3162 20.4137 25.8823C19.9596 25.4383 19.3743 25.2163 18.6578 25.2163C17.9414 25.2163 17.351 25.4383 16.8868 25.8823Z" fill="white" fill-opacity="0.5"/>
</svg>
