<svg width="37" height="38" viewBox="0 0 37 38" fill="none" xmlns="http://www.w3.org/2000/svg">
<path fill-rule="evenodd" clip-rule="evenodd" d="M37 18.5864C37 28.8037 28.7173 37.0864 18.5 37.0864C8.28273 37.0864 0 28.8037 0 18.5864C0 8.36916 8.28273 0.0864258 18.5 0.0864258C28.7173 0.0864258 37 8.36916 37 18.5864ZM20.9667 9.03758V21.0626H16.0333V9.03758H20.9667ZM18.5 28.1353C19.8623 28.1353 20.9667 27.0309 20.9667 25.6686C20.9667 24.3063 19.8623 23.2019 18.5 23.2019C17.1377 23.2019 16.0333 24.3063 16.0333 25.6686C16.0333 27.0309 17.1377 28.1353 18.5 28.1353Z" fill="black" fill-opacity="0.5"/>
</svg>
