<svg width="16" height="16" viewBox="0 0 16 16" fill="none" xmlns="http://www.w3.org/2000/svg">
<path d="M13.6033 6H12.6116V4.6C12.6116 2 10.5289 0 8.04959 0C5.57025 0 3.38843 2.1 3.38843 4.6V6H2.39669C2.19835 6 2 6.2 2 6.3V14.6C2 15.4 2.59504 16 3.38843 16H12.6116C13.3058 16 14 15.4 14 14.6V6.3C13.9008 6.2 13.7025 6 13.6033 6ZM8.7438 11L8.94215 13C8.94215 13 8.94215 13.1 8.94215 13.2C8.84298 13.3 8.7438 13.3 8.7438 13.3H7.35537C7.2562 13.3 7.15702 13.2 7.15702 13.2C6.95868 13.1 6.95868 13 6.95868 13L7.2562 11C6.8595 10.8 6.66116 10.4 6.66116 10C6.66116 9.3 7.2562 8.6 8.04959 8.6C8.84298 8.6 9.33884 9.2 9.33884 10C9.33884 10.4 9.04132 10.8 8.7438 11ZM10.5289 6H5.3719V4.6C5.3719 3.2 6.56198 2 7.95041 2C9.33884 2 10.5289 3.2 10.5289 4.6V6Z" fill="white"/>
</svg>
