<svg width="16" height="18" viewBox="0 0 16 18" fill="none" xmlns="http://www.w3.org/2000/svg">
<path d="M14.8622 12.0375C14.356 13.3875 13.681 14.5125 12.6685 15.4125C11.5997 16.4812 10.1372 17.325 8.3935 17.9438C8.33725 18 8.281 18 8.22475 18C8.11225 18 8.056 18 7.99975 18H7.9435C7.831 18 7.77475 18 7.66225 17.9438C7.606 17.9438 7.54975 17.8875 7.4935 17.8875C5.74975 17.2687 4.3435 16.425 3.2185 15.3562C2.26225 14.4562 1.531 13.275 1.02475 11.9812C0.124746 9.61875 0.180996 6.975 0.237246 4.89375C0.237246 4.725 0.237246 4.55625 0.293496 4.33125C0.349746 3.31875 1.13725 2.475 2.14975 2.41875C4.231 2.30625 5.86225 1.63125 7.21225 0.28125C7.43725 0.1125 7.7185 0 7.99975 0C8.281 0 8.56225 0.1125 8.78725 0.28125C10.1372 1.63125 11.7685 2.30625 13.8497 2.41875C14.8622 2.475 15.5935 3.31875 15.6497 4.275C15.6497 4.5 15.6497 4.66875 15.706 4.8375C15.6497 6.975 15.706 9.61875 14.8622 12.0375Z" fill="#57B36E"/>
<path d="M14.8623 12.0375C14.356 13.3875 13.681 14.5125 12.6685 15.4125C11.5998 16.4812 10.1373 17.325 8.39351 17.9438C8.33726 18 8.28101 18 8.22476 18C8.11226 18 8.05601 18 7.99976 18V0C8.28101 0 8.56226 0.1125 8.78726 0.28125C10.1373 1.63125 11.7685 2.30625 13.8498 2.41875C14.8623 2.475 15.5935 3.31875 15.6498 4.275C15.6498 4.5 15.6498 4.66875 15.706 4.8375C15.6498 6.975 15.706 9.61875 14.8623 12.0375Z" fill="#57B36E"/>
<path d="M12.4999 9C12.4999 11.475 10.4749 13.5 7.99985 13.5H7.9436C5.4686 13.5 3.4436 11.475 3.4436 9C3.4436 6.525 5.4686 4.5 7.9436 4.5H7.99985C10.4749 4.5 12.4999 6.525 12.4999 9Z" fill="white"/>
<path d="M12.4998 9C12.4998 11.475 10.4748 13.5 7.99976 13.5V4.5C10.4748 4.5 12.4998 6.525 12.4998 9Z" fill="#E1EBF0"/>
<path d="M10.7561 8.83135C10.6999 8.83135 10.6436 8.7751 10.6436 8.71885V8.4376C10.6436 6.9751 9.46235 5.79385 7.99985 5.79385C6.53735 5.79385 5.3561 6.9751 5.3561 8.4376V8.71885C5.3561 8.7751 5.29985 8.83135 5.2436 8.83135C5.18735 8.83135 5.1311 8.7751 5.1311 8.71885V8.4376C5.1311 6.8626 6.42485 5.56885 7.99985 5.56885C9.57485 5.56885 10.8686 6.8626 10.8686 8.4376V8.71885C10.8686 8.83135 10.8124 8.83135 10.7561 8.83135Z" fill="#848484"/>
<path d="M10.6435 10.1251H10.3623C10.306 10.1251 10.2498 10.0689 10.2498 10.0126C10.2498 9.9564 10.306 9.90015 10.3623 9.90015H10.6435C10.756 9.90015 10.756 9.8439 10.756 9.78765V9.1689C10.756 9.11265 10.8123 9.0564 10.8685 9.0564C10.9248 9.0564 10.981 9.11265 10.981 9.1689V9.78765C10.981 10.0126 10.8685 10.1251 10.6435 10.1251Z" fill="#848484"/>
<path d="M7.15601 10.2375H8.73101V11.5875H7.15601V10.2375Z" fill="#CBCBCB"/>
<path d="M10.3624 9.73135C10.4186 9.61885 10.4186 9.5626 10.4186 9.4501V7.5376C10.4186 6.91885 9.91235 6.4126 9.2936 6.4126H6.8186C6.19985 6.4126 5.6936 6.91885 5.6936 7.5376V9.50635C5.6936 10.1251 6.19985 10.6313 6.8186 10.6313H9.2936C9.57485 10.6313 9.8561 10.5188 10.0249 10.3501" fill="#E5E5E5"/>
<path d="M6.48105 9.90015V10.5751C5.9748 10.4626 5.58105 10.0126 5.58105 9.45015V8.77515C6.14355 8.88765 6.48105 9.33765 6.48105 9.90015Z" fill="#CBCBCB"/>
<path d="M10.3624 8.8313V9.5063C10.3624 9.6188 10.3624 9.7313 10.3062 9.78755L9.96865 10.35C9.85615 10.4625 9.6874 10.575 9.4624 10.6313V9.9563C9.4624 9.33755 9.85615 8.88755 10.3624 8.8313Z" fill="#CBCBCB"/>
<path d="M7.66221 8.10015C7.66221 8.4939 7.38096 8.8314 6.93096 8.8314C6.53721 8.8314 6.19971 8.55015 6.19971 8.10015C6.19971 7.7064 6.48096 7.3689 6.93096 7.3689C7.32471 7.3689 7.66221 7.7064 7.66221 8.10015Z" fill="white"/>
<path d="M9.7999 8.10015C9.7999 8.4939 9.51865 8.8314 9.06865 8.8314C8.61865 8.8314 8.3374 8.55015 8.3374 8.10015C8.3374 7.7064 8.61865 7.3689 9.06865 7.3689C9.51865 7.3689 9.7999 7.7064 9.7999 8.10015Z" fill="white"/>
<path d="M6.93115 8.38135C6.81865 8.38135 6.6499 8.26885 6.6499 8.1001C6.6499 7.93135 6.7624 7.81885 6.93115 7.81885C7.04365 7.81885 7.2124 7.93135 7.2124 8.1001C7.2124 8.26885 7.04365 8.38135 6.93115 8.38135Z" fill="#333333"/>
<path d="M9.0686 8.38135C8.9561 8.38135 8.78735 8.26885 8.78735 8.1001C8.78735 7.93135 8.89985 7.81885 9.0686 7.81885C9.23735 7.81885 9.34985 7.93135 9.34985 8.1001C9.34985 8.26885 9.1811 8.38135 9.0686 8.38135Z" fill="#333333"/>
<path d="M6.1999 10.0688C6.1999 10.2375 6.0874 10.35 5.91865 10.35H5.80615C5.6374 10.35 5.5249 10.2375 5.5249 10.0688C5.5249 9.90003 5.6374 9.78753 5.80615 9.78753H5.91865C6.0874 9.73128 6.1999 9.84378 6.1999 10.0688Z" fill="#333333"/>
<path d="M7.5498 9.3938H7.83105V10.575H7.5498V9.3938Z" fill="#7B7B7B"/>
<path d="M8.1123 9.3938H8.39355V10.575H8.1123V9.3938Z" fill="#7B7B7B"/>
<path d="M8.61841 9.44995V10.6312H8.89966V9.89995C8.95591 9.6187 8.84341 9.44995 8.61841 9.44995Z" fill="#7B7B7B"/>
<path d="M7.32471 9.44995C7.15596 9.5062 7.04346 9.67495 7.04346 9.89995V10.6312H7.32471V9.44995Z" fill="#7B7B7B"/>
<path d="M5.6373 7.93135V9.05635C5.6373 9.2251 5.5248 9.3376 5.35605 9.4501C5.2998 9.4501 5.2998 9.4501 5.24355 9.4501H5.13105C4.90605 9.4501 4.7373 9.28135 4.7373 9.05635V7.93135C4.7373 7.70635 4.90605 7.5376 5.13105 7.5376H5.1873C5.24355 7.5376 5.24355 7.5376 5.2998 7.5376C5.46855 7.59385 5.6373 7.7626 5.6373 7.93135Z" fill="#686868"/>
<path d="M5.63721 7.93135V9.05635C5.63721 9.2251 5.52471 9.3376 5.35596 9.4501C5.18721 9.39385 5.07471 9.2251 5.07471 9.05635V7.93135C5.07471 7.7626 5.18721 7.6501 5.35596 7.5376C5.46846 7.59385 5.63721 7.7626 5.63721 7.93135Z" fill="#7B7B7B"/>
<path d="M11.2623 7.93135V9.05635C11.2623 9.2251 11.1498 9.3376 10.9811 9.4501C10.9248 9.4501 10.9248 9.4501 10.8686 9.4501H10.7561C10.5311 9.4501 10.3623 9.28135 10.3623 9.05635V7.93135C10.3623 7.70635 10.5311 7.5376 10.7561 7.5376H10.8686C10.9248 7.5376 10.9248 7.5376 10.9811 7.5376C11.1498 7.59385 11.2623 7.7626 11.2623 7.93135Z" fill="#686868"/>
<path d="M11.2622 7.93135V9.05635C11.2622 9.2251 11.1497 9.3376 10.981 9.4501C10.8122 9.39385 10.6997 9.2251 10.6997 9.05635V7.93135C10.6997 7.7626 10.8122 7.6501 10.981 7.5376C11.1497 7.59385 11.2622 7.7626 11.2622 7.93135Z" fill="#7B7B7B"/>
<path d="M10.1936 9.73145H10.3061C10.4749 9.73145 10.5874 9.84395 10.5874 10.0127C10.5874 10.1814 10.4749 10.2939 10.3061 10.2939H10.1936C10.0249 10.2939 9.91235 10.1814 9.91235 10.0127C9.91235 9.84395 9.9686 9.73145 10.1936 9.73145Z" fill="#333333"/>
<path d="M5.01855 9.78765V9.1689C5.01855 9.11265 5.0748 9.0564 5.13105 9.0564C5.1873 9.0564 5.24355 9.11265 5.24355 9.1689V9.78765C5.24355 9.90015 5.2998 9.90015 5.35605 9.90015H5.6373C5.69355 9.90015 5.7498 9.9564 5.7498 10.0126C5.7498 10.0689 5.69355 10.1251 5.6373 10.1251H5.35605C5.1873 10.1814 5.01855 10.0126 5.01855 9.78765Z" fill="#848484"/>
<path d="M10.3061 11.9813H5.6936V11.9251C5.6936 11.5313 5.97485 11.1938 6.42485 11.1938H9.57485C9.91235 11.1938 10.3061 11.5313 10.3061 11.9813Z" fill="#CBCBCB"/>
<path d="M10.306 11.9813L6.59351 12.0375V11.9813C6.59351 11.5875 6.87476 11.25 7.32476 11.25H9.57476C9.91226 11.1938 10.306 11.5313 10.306 11.9813Z" fill="#E5E5E5"/>
<path d="M7.94351 4.78125C5.63726 4.78125 3.78101 6.6375 3.78101 8.94375C3.78101 11.25 5.63726 13.1062 7.94351 13.1062C10.2498 13.1062 12.106 11.25 12.106 8.94375C12.106 6.6375 10.2498 4.78125 7.94351 4.78125ZM7.94351 12.6C5.91851 12.6 4.28726 10.9687 4.28726 8.94375C4.28726 8.04375 4.62476 7.2 5.18726 6.525L10.3623 11.7C9.68726 12.2625 8.84351 12.6 7.94351 12.6ZM10.6998 11.3063L5.52476 6.13125C6.19976 5.56875 7.04351 5.23125 7.94351 5.23125C9.96851 5.23125 11.5998 6.8625 11.5998 8.8875C11.656 9.7875 11.2623 10.6875 10.6998 11.3063Z" fill="#E84C4F"/>
</svg>
