<svg width="17" height="17" viewBox="0 0 17 17" fill="none" xmlns="http://www.w3.org/2000/svg">
<path d="M2.84674 8.79834C2.29823 8.79834 1.85358 9.243 1.85358 9.79151V15.7072L1.85358 15.7111L1.85358 15.715C1.85358 16.2594 2.2949 16.7007 2.8393 16.7007H13.2608C13.8052 16.7007 14.2465 16.2594 14.2465 15.715C14.2465 15.7123 14.2465 15.7096 14.2465 15.7069V9.79151C14.2465 9.243 13.8018 8.79834 13.2533 8.79834C12.7048 8.79834 12.2601 9.243 12.2601 9.79151V14.7292H9.04316V12.2217C9.04316 11.6732 8.5985 11.2285 8.04999 11.2285C7.50148 11.2285 7.05682 11.6732 7.05682 12.2217V14.7292H3.83991V9.79151C3.83991 9.243 3.39525 8.79834 2.84674 8.79834Z" fill="white"/>
<path d="M8.07552 0.701113C7.85214 0.694584 7.62524 0.762463 7.43537 0.90969L0.431744 6.34049C-0.000488201 6.67566 -0.0771245 7.29513 0.260573 7.72412C0.59827 8.15311 1.22242 8.22917 1.65465 7.89401L8.04986 2.93499L14.4453 7.8942C14.8776 8.22937 15.5017 8.15331 15.8394 7.72432C16.1771 7.29532 16.1005 6.67585 15.6682 6.34069L8.6646 0.909885C8.48919 0.773867 8.28217 0.705575 8.07552 0.701113Z" fill="white"/>
</svg>
