<svg width="96" height="40" viewBox="0 0 96 40" fill="none" xmlns="http://www.w3.org/2000/svg">
<path d="M0 19.9998C0 8.99993 8.9546 0 19.8991 0C30.8436 0 39.7982 8.99993 39.7982 19.9998C39.7982 30.9998 30.8436 39.9997 19.8991 39.9997C8.9546 39.9997 0 30.9998 0 19.9998Z" fill="#1A4A7F"/>
<path fill-rule="evenodd" clip-rule="evenodd" d="M16.6649 39.7507C12.6851 39.1257 8.954 37.2507 6.09351 34.3757L24.0027 17.8759L13.8044 20.3758C10.9439 21.1258 8.08342 19.3759 7.46157 16.5009C7.46157 16.5009 7.46157 16.5009 7.46157 16.3759C6.83972 13.5009 8.5809 10.6259 11.4414 9.87593L32.8329 4.62598C41.2901 11.7509 42.4094 24.3758 35.3203 32.7508C33.3304 35.1257 30.843 37.0007 27.9825 38.2507C27.9825 37.5007 27.9825 36.7507 28.2313 36.1257L31.5892 26.0008C31.4649 26.0008 16.6649 39.7507 16.6649 39.7507Z" fill="url(#paint0_linear_2585_19)"/>
<path d="M77.0069 1.03106L78.5752 1.95812C81.5693 3.66962 82.6386 7.52049 80.9277 10.5156L65.7436 36.8299C64.0327 39.825 60.1832 40.8947 57.1892 39.1832L55.6209 38.2561C52.6268 36.5446 51.5575 32.6938 53.2684 29.6986L68.4525 3.31306C70.1634 0.246624 74.0129 -0.823061 77.0069 1.03106Z" fill="#FBBD04"/>
<path d="M69.8768 1.74387L71.4451 0.816809C74.4392 -0.894688 78.2887 0.174998 79.9995 3.17012L95.1836 29.4844C96.8945 32.4795 95.8252 36.3304 92.8312 38.0419L91.2629 38.9689C88.2688 40.6804 84.4193 39.6107 82.7084 36.6156L67.5244 10.3727C65.8848 7.37755 66.8828 3.52668 69.8768 1.74387Z" fill="#438EDC"/>
<path d="M60.1126 39.5414C64.1284 39.5414 67.3838 36.2848 67.3838 32.2675C67.3838 28.2503 64.1284 24.9937 60.1126 24.9937C56.0968 24.9937 52.8413 28.2503 52.8413 32.2675C52.8413 36.2848 56.0968 39.5414 60.1126 39.5414Z" fill="#34A952"/>
<defs>
<linearGradient id="paint0_linear_2585_19" x1="46.2927" y1="-0.228235" x2="-22.1461" y2="62.257" gradientUnits="userSpaceOnUse">
<stop stop-color="#FFB800"/>
<stop offset="1" stop-color="#FFF11D"/>
</linearGradient>
</defs>
</svg>
