<svg width="17" height="17" viewBox="0 0 17 17" fill="none" xmlns="http://www.w3.org/2000/svg">
<path d="M16.5486 7.31256C16.5146 7.23122 16.466 7.15722 16.404 7.09522L14.4046 5.09588C14.144 4.83588 13.7226 4.83588 13.462 5.09588C13.2013 5.35653 13.2013 5.77853 13.462 6.03853L14.324 6.90053H10.6C10.2313 6.90053 9.93335 7.19919 9.93335 7.56719C9.93335 7.93519 10.2313 8.23384 10.6 8.23384H14.324L13.462 9.09584C13.2013 9.3565 13.2013 9.7785 13.462 10.0385C13.592 10.1691 13.7626 10.2338 13.9333 10.2338C14.104 10.2338 14.2746 10.1692 14.4046 10.0385L16.404 8.03916C16.466 7.97781 16.5146 7.90381 16.5486 7.82181C16.616 7.65922 16.616 7.47522 16.5486 7.31256Z" fill="white"/>
<path d="M11.9334 9.56722C11.5647 9.56722 11.2667 9.86587 11.2667 10.2339V13.5672H8.60008V2.90054C8.60008 2.60654 8.40674 2.34654 8.12474 2.26189L5.8094 1.56723H11.2667V4.90057C11.2667 5.26857 11.5647 5.56722 11.9334 5.56722C12.302 5.56722 12.6 5.26857 12.6 4.90057V0.900573C12.6 0.532543 12.302 0.233887 11.9334 0.233887H1.26675C1.24275 0.233887 1.22141 0.243887 1.1981 0.246543C1.16675 0.249887 1.1381 0.255199 1.1081 0.262543C1.0381 0.280543 0.974754 0.307887 0.915441 0.345199C0.900785 0.354543 0.882785 0.355199 0.868785 0.365855C0.86341 0.369887 0.86141 0.37723 0.856066 0.38123C0.78341 0.438543 0.722754 0.508543 0.678754 0.591886C0.66941 0.609886 0.66741 0.62923 0.660098 0.647886C0.638754 0.698542 0.615441 0.747886 0.607441 0.803886C0.604098 0.823886 0.610098 0.842542 0.609441 0.861886C0.608785 0.87523 0.600098 0.887229 0.600098 0.900542V14.2339C0.600098 14.5519 0.824754 14.8252 1.1361 14.8872L7.80274 16.2206C7.84609 16.2299 7.89009 16.2339 7.9334 16.2339C8.08605 16.2339 8.23605 16.1812 8.35605 16.0826C8.51005 15.9559 8.60005 15.7672 8.60005 15.5672V14.9006H11.9334C12.302 14.9006 12.6 14.6019 12.6 14.2339V10.2339C12.6 9.86587 12.302 9.56722 11.9334 9.56722Z" fill="white"/>
</svg>
