<svg width="17" height="17" viewBox="0 0 17 17" fill="none" xmlns="http://www.w3.org/2000/svg">
<path d="M16.05 10.8446C16.05 8.84463 14.95 7.04463 13.25 6.24463C13.15 10.0446 10.15 13.1446 6.35004 13.1446C7.25004 14.8446 8.95004 15.9446 10.95 15.9446C11.85 15.9446 12.75 15.7446 13.55 15.2446L16.05 16.0446L15.35 13.5446C15.85 12.7446 16.05 11.8446 16.05 10.8446Z" fill="white"/>
<path d="M12.25 6.14443C12.25 2.74443 9.55005 0.0444336 6.15005 0.0444336C2.75005 0.0444336 0.0500488 2.74443 0.0500488 6.14443C0.0500488 7.24443 0.350049 8.34443 0.850049 9.24443L0.0500488 12.2444L3.05005 11.4444C3.95005 12.0444 5.05005 12.2444 6.15005 12.2444C9.55005 12.2444 12.25 9.54443 12.25 6.14443ZM5.25005 4.74443H4.25005C4.25005 3.74443 5.05005 2.84443 6.15005 2.84443C7.25005 2.84443 8.05005 3.74443 8.05005 4.74443C8.05005 5.24443 7.85005 5.74443 7.45005 6.14443L6.65005 6.84443V7.54443H5.65005V6.44443L6.75005 5.44443C6.95005 5.24443 7.05005 5.04443 7.05005 4.74443C7.05005 4.24443 6.65005 3.84443 6.15005 3.84443C5.65005 3.84443 5.25005 4.24443 5.25005 4.74443ZM5.65005 8.54443H6.55005V9.44443H5.65005V8.54443Z" fill="white"/>
</svg>
