<svg width="16" height="16" viewBox="0 0 16 16" fill="none" xmlns="http://www.w3.org/2000/svg">
<g clip-path="url(#clip0_2318_52)">
<path fill-rule="evenodd" clip-rule="evenodd" d="M6.30462 -0.223299C6.83632 -0.0164543 7.10572 0.598372 6.90633 1.14996L5.03043 5.04202H10.9695L9.09361 1.14996C8.89422 0.598372 9.16362 -0.0164543 9.69533 -0.223299C10.2271 -0.430146 10.8197 -0.150681 11.0191 0.400903L13.2561 5.04202H14.9714C15.6203 5.04202 16.107 5.65782 15.9797 6.31786L14.3345 14.851C14.2384 15.3496 13.8164 15.7085 13.3263 15.7085H2.67368C2.18356 15.7085 1.76157 15.3496 1.66544 14.851L0.0203166 6.31786C-0.106933 5.65783 0.379709 5.04202 1.02855 5.04202H2.74392L4.98085 0.400903C5.18024 -0.150681 5.77291 -0.430146 6.30462 -0.223299ZM12.6034 7.17532C12.6191 7.1757 12.6349 7.1757 12.6508 7.17532H13.7172L12.4834 13.5752H3.51662L2.28277 7.17532H3.34923C3.36506 7.1757 3.38085 7.1757 3.39661 7.17532H12.6034ZM5.94356 8.24197C6.51142 8.24197 6.97177 8.71951 6.97177 9.30861V11.4419C6.97177 12.031 6.51142 12.5086 5.94356 12.5086C5.3757 12.5086 4.91536 12.031 4.91536 11.4419V9.30861C4.91536 8.71951 5.3757 8.24197 5.94356 8.24197ZM11.0846 9.30861C11.0846 8.71951 10.6243 8.24197 10.0564 8.24197C9.48852 8.24197 9.02818 8.71951 9.02818 9.30861V11.4419C9.02818 12.031 9.48852 12.5086 10.0564 12.5086C10.6243 12.5086 11.0846 12.031 11.0846 11.4419V9.30861Z" fill="white"/>
</g>
<defs>
<clipPath id="clip0_2318_52">
<rect width="16" height="16" fill="white"/>
</clipPath>
</defs>
</svg>
