<svg width="17" height="16" viewBox="0 0 17 16" fill="none" xmlns="http://www.w3.org/2000/svg">
<path fill-rule="evenodd" clip-rule="evenodd" d="M8.45005 3.23333C8.77253 3.23333 9.02412 2.97445 9.02412 2.6672C9.02412 2.35996 8.77253 2.10107 8.45005 2.10107C8.12757 2.10107 7.87598 2.35996 7.87598 2.6672C7.87598 2.97445 8.12757 3.23333 8.45005 3.23333ZM8.45005 4.73333C9.59553 4.73333 10.5241 3.8083 10.5241 2.6672C10.5241 1.52611 9.59553 0.601074 8.45005 0.601074C7.30457 0.601074 6.37598 1.52611 6.37598 2.6672C6.37598 3.8083 7.30457 4.73333 8.45005 4.73333Z" fill="#444444"/>
<path fill-rule="evenodd" clip-rule="evenodd" d="M2.52414 14.1005C2.84663 14.1005 3.09822 13.8416 3.09822 13.5344C3.09822 13.2271 2.84663 12.9683 2.52414 12.9683C2.20166 12.9683 1.95007 13.2271 1.95007 13.5344C1.95007 13.8416 2.20166 14.1005 2.52414 14.1005ZM2.52414 15.6005C3.66962 15.6005 4.59822 14.6755 4.59822 13.5344C4.59822 12.3933 3.66962 11.4683 2.52414 11.4683C1.37867 11.4683 0.450073 12.3933 0.450073 13.5344C0.450073 14.6755 1.37867 15.6005 2.52414 15.6005Z" fill="#444444"/>
<path fill-rule="evenodd" clip-rule="evenodd" d="M8.45005 14.0561C8.77253 14.0561 9.02412 13.7972 9.02412 13.49C9.02412 13.1827 8.77253 12.9238 8.45005 12.9238C8.12757 12.9238 7.87598 13.1827 7.87598 13.49C7.87598 13.7972 8.12757 14.0561 8.45005 14.0561ZM8.45005 15.5561C9.59553 15.5561 10.5241 14.631 10.5241 13.49C10.5241 12.3489 9.59553 11.4238 8.45005 11.4238C7.30457 11.4238 6.37598 12.3489 6.37598 13.49C6.37598 14.631 7.30457 15.5561 8.45005 15.5561Z" fill="#444444"/>
<path fill-rule="evenodd" clip-rule="evenodd" d="M14.376 14.101C14.6985 14.101 14.9501 13.8421 14.9501 13.5349C14.9501 13.2276 14.6985 12.9688 14.376 12.9688C14.0535 12.9688 13.8019 13.2276 13.8019 13.5349C13.8019 13.8421 14.0535 14.101 14.376 14.101ZM14.376 15.601C15.5215 15.601 16.4501 14.676 16.4501 13.5349C16.4501 12.3938 15.5215 11.4688 14.376 11.4688C13.2305 11.4688 12.3019 12.3938 12.3019 13.5349C12.3019 14.676 13.2305 15.601 14.376 15.601Z" fill="#444444"/>
<path d="M7.46918 4.37934C7.46918 3.8376 7.90834 3.39844 8.45008 3.39844C8.99182 3.39844 9.43099 3.8376 9.43099 4.37934V6.575H14.3517C14.3598 6.57481 14.3679 6.57471 14.376 6.57471C14.4039 6.57471 14.4315 6.57587 14.4588 6.57815C14.961 6.61834 15.3561 7.0383 15.3569 7.55071L15.3569 7.55561V11.8062C15.3569 12.348 14.9177 12.7871 14.376 12.7871C13.8342 12.7871 13.3951 12.348 13.3951 11.8062V8.5293H9.43099V11.5534C9.43099 12.0951 8.99182 12.5343 8.45008 12.5343C7.90834 12.5343 7.46918 12.0951 7.46918 11.5534V8.5293H3.50502V11.8062C3.50502 12.348 3.06586 12.7871 2.52412 12.7871C1.98238 12.7871 1.54321 12.348 1.54321 11.8062L1.54321 7.55388L1.54321 7.55215C1.54321 7.03895 1.93883 6.61816 2.44173 6.57812C2.46889 6.57586 2.49637 6.57471 2.52412 6.57471C2.53222 6.57471 2.54029 6.57481 2.54834 6.575H7.46918V4.37934Z" fill="#444444"/>
</svg>
