<svg width="16" height="16" viewBox="0 0 16 16" fill="none" xmlns="http://www.w3.org/2000/svg">
<g clip-path="url(#clip0_2298_27)">
<path fill-rule="evenodd" clip-rule="evenodd" d="M7.99997 3.13226C8.32246 3.13226 8.57405 2.87337 8.57405 2.56613C8.57405 2.25889 8.32246 2 7.99997 2C7.67749 2 7.4259 2.25889 7.4259 2.56613C7.4259 2.87337 7.67749 3.13226 7.99997 3.13226ZM7.99997 4.63226C9.14545 4.63226 10.074 3.70722 10.074 2.56613C10.074 1.42504 9.14545 0.5 7.99997 0.5C6.8545 0.5 5.9259 1.42504 5.9259 2.56613C5.9259 3.70722 6.8545 4.63226 7.99997 4.63226Z" fill="white"/>
<path fill-rule="evenodd" clip-rule="evenodd" d="M2.07407 13.9994C2.39655 13.9994 2.64814 13.7406 2.64814 13.4333C2.64814 13.1261 2.39655 12.8672 2.07407 12.8672C1.75159 12.8672 1.5 13.1261 1.5 13.4333C1.5 13.7406 1.75159 13.9994 2.07407 13.9994ZM2.07407 15.4994C3.21955 15.4994 4.14814 14.5744 4.14814 13.4333C4.14814 12.2922 3.21955 11.3672 2.07407 11.3672C0.928594 11.3672 0 12.2922 0 13.4333C0 14.5744 0.928594 15.4994 2.07407 15.4994Z" fill="white"/>
<path fill-rule="evenodd" clip-rule="evenodd" d="M7.99997 13.955C8.32246 13.955 8.57405 13.6961 8.57405 13.3889C8.57405 13.0816 8.32246 12.8228 7.99997 12.8228C7.67749 12.8228 7.4259 13.0816 7.4259 13.3889C7.4259 13.6961 7.67749 13.955 7.99997 13.955ZM7.99997 15.455C9.14545 15.455 10.074 14.53 10.074 13.3889C10.074 12.2478 9.14545 11.3228 7.99997 11.3228C6.8545 11.3228 5.9259 12.2478 5.9259 13.3889C5.9259 14.53 6.8545 15.455 7.99997 15.455Z" fill="white"/>
<path fill-rule="evenodd" clip-rule="evenodd" d="M13.9259 13.9999C14.2484 13.9999 14.5 13.741 14.5 13.4338C14.5 13.1266 14.2484 12.8677 13.9259 12.8677C13.6035 12.8677 13.3519 13.1266 13.3519 13.4338C13.3519 13.741 13.6035 13.9999 13.9259 13.9999ZM13.9259 15.4999C15.0714 15.4999 16 14.5749 16 13.4338C16 12.2927 15.0714 11.3677 13.9259 11.3677C12.7805 11.3677 11.8519 12.2927 11.8519 13.4338C11.8519 14.5749 12.7805 15.4999 13.9259 15.4999Z" fill="white"/>
<path d="M7.0191 4.27827C7.0191 3.73653 7.45827 3.29736 8.00001 3.29736C8.54175 3.29736 8.98092 3.73653 8.98092 4.27827V6.47393H13.9017C13.9097 6.47373 13.9178 6.47363 13.9259 6.47363C13.9538 6.47363 13.9814 6.4748 14.0087 6.47708C14.5109 6.51727 14.9061 6.93723 14.9068 7.44963L14.9068 7.45454V11.7052C14.9068 12.2469 14.4677 12.6861 13.9259 12.6861C13.3842 12.6861 12.945 12.2469 12.945 11.7052V8.42822H8.98092V11.4523C8.98092 11.9941 8.54175 12.4332 8.00001 12.4332C7.45827 12.4332 7.0191 11.9941 7.0191 11.4523V8.42822H3.05495V11.7052C3.05495 12.2469 2.61578 12.6861 2.07405 12.6861C1.53231 12.6861 1.09314 12.2469 1.09314 11.7052L1.09314 7.4528L1.09314 7.45107C1.09314 6.93788 1.48876 6.51709 1.99165 6.47704C2.01882 6.47478 2.0463 6.47363 2.07405 6.47363C2.08214 6.47363 2.09022 6.47373 2.09827 6.47393H7.0191V4.27827Z" fill="white"/>
</g>
<defs>
<clipPath id="clip0_2298_27">
<rect width="16" height="16" fill="white"/>
</clipPath>
</defs>
</svg>
