<svg width="16" height="16" viewBox="0 0 16 16" fill="none" xmlns="http://www.w3.org/2000/svg">
<g clip-path="url(#clip0_2298_27)">
<path d="M12.52 14.4999H3.52001C3.45135 14.5013 3.38312 14.488 3.31941 14.4606C3.25571 14.4332 3.19784 14.3924 3.14928 14.3406C3.10072 14.2887 3.06247 14.227 3.03682 14.159C3.01117 14.091 2.99865 14.0182 3.00001 13.9449V12.3226C3.00061 11.942 3.10367 11.5697 3.29692 11.2499C3.49017 10.9301 3.76546 10.6763 4.09001 10.5188C6.00001 9.60093 5.89001 9.63294 6.00001 9.63294H6.61001C6.72514 9.6319 6.83721 9.67247 6.92799 9.74805C7.01877 9.82363 7.08292 9.92976 7.11001 10.0492C7.16016 10.2489 7.27064 10.4254 7.42432 10.5512C7.578 10.6771 7.7663 10.7453 7.96001 10.7453C8.15372 10.7453 8.34201 10.6771 8.4957 10.5512C8.64938 10.4254 8.75986 10.2489 8.81001 10.0492C8.83709 9.92976 8.90125 9.82363 8.99203 9.74805C9.08281 9.67247 9.19488 9.6319 9.31001 9.63294C9.97001 9.63294 10 9.63294 10.13 9.63294L11.9 10.4761C12.2327 10.635 12.5143 10.8947 12.7099 11.223C12.9054 11.5513 13.0063 11.9336 13 12.3226V13.9449C13.0013 14.0173 12.9891 14.0892 12.9641 14.1565C12.9391 14.2238 12.9017 14.285 12.8542 14.3367C12.8067 14.3884 12.7501 14.4294 12.6875 14.4575C12.625 14.4855 12.5578 14.4999 12.49 14.4999H12.52ZM8.00001 1.50002C7.37743 1.50213 6.76939 1.7011 6.25269 2.0718C5.736 2.44251 5.33381 2.96832 5.09693 3.58284C4.86004 4.19735 4.79909 4.87301 4.92176 5.52447C5.04443 6.17594 5.34522 6.774 5.78615 7.24312C6.22708 7.71224 6.78838 8.03139 7.39914 8.16025C8.00991 8.28911 8.64275 8.22191 9.21776 7.96714C9.79276 7.71236 10.2841 7.28144 10.6298 6.72879C10.9755 6.17614 11.16 5.52655 11.16 4.86205C11.16 4.41965 11.0782 3.98159 10.9193 3.57299C10.7603 3.16439 10.5274 2.79329 10.2339 2.48095C9.9403 2.16862 9.59186 1.9212 9.20853 1.75287C8.8252 1.58454 8.41451 1.49861 8.00001 1.50002V1.50002ZM3.00001 5.09686C2.60445 5.09686 2.21777 5.22206 1.88887 5.45661C1.55997 5.69117 1.30362 6.02455 1.15225 6.4146C1.00087 6.80466 0.961267 7.23386 1.03844 7.64793C1.11561 8.06201 1.30609 8.44237 1.58579 8.7409C1.8655 9.03943 2.22187 9.24273 2.60983 9.3251C2.99779 9.40746 3.39992 9.36519 3.76537 9.20363C4.13083 9.04206 4.44318 8.76846 4.66295 8.41742C4.88271 8.06639 5.00001 7.65368 5.00001 7.23149C5.00001 6.66535 4.78929 6.1224 4.41422 5.72208C4.03915 5.32176 3.53044 5.09686 3.00001 5.09686V5.09686ZM12.92 5.09686C12.5244 5.09686 12.1378 5.22206 11.8089 5.45661C11.48 5.69117 11.2236 6.02455 11.0722 6.4146C10.9209 6.80466 10.8813 7.23386 10.9584 7.64793C11.0356 8.06201 11.2261 8.44237 11.5058 8.7409C11.7855 9.03943 12.1419 9.24273 12.5298 9.3251C12.9178 9.40746 13.3199 9.36519 13.6854 9.20363C14.0508 9.04206 14.3632 8.76846 14.5829 8.41742C14.8027 8.06639 14.92 7.65368 14.92 7.23149C14.9204 6.67984 14.7207 6.14944 14.3628 5.75148C14.0048 5.35353 13.5165 5.11893 13 5.09686H12.92ZM15.25 10.1346C14.18 9.62227 14.25 9.6116 14.06 9.6116H12.45C12.3759 9.60775 12.3028 9.63154 12.2432 9.6789C12.1837 9.72626 12.1415 9.79423 12.1237 9.87118C12.106 9.94813 12.1139 10.0293 12.1461 10.1007C12.1782 10.1721 12.2326 10.2294 12.3 10.2627C12.518 10.3714 12.7122 10.5278 12.87 10.7216C13.0676 10.959 13.2189 11.2361 13.315 11.5367C13.4112 11.8372 13.4503 12.1552 13.43 12.472C13.43 12.5654 13.4648 12.655 13.5267 12.7211C13.5885 12.7871 13.6725 12.8242 13.76 12.8242H15.48C15.6179 12.8242 15.7502 12.7657 15.8477 12.6617C15.9452 12.5576 16 12.4164 16 12.2692V11.362C16.0009 11.1016 15.9303 10.8466 15.797 10.6285C15.6638 10.4104 15.4736 10.2387 15.25 10.1346V10.1346ZM1.94001 9.62227C1.79001 9.62227 1.82001 9.62227 0.750008 10.1453C0.52641 10.2494 0.336256 10.4211 0.202987 10.6392C0.0697172 10.8573 -0.000841952 11.1123 7.58188e-06 11.3727V12.2692C7.58188e-06 12.4164 0.0547931 12.5576 0.152312 12.6617C0.249831 12.7657 0.382095 12.8242 0.520008 12.8242H2.24001C2.28334 12.8242 2.32626 12.8151 2.36629 12.7974C2.40633 12.7797 2.44271 12.7538 2.47335 12.7211C2.504 12.6883 2.5283 12.6495 2.54489 12.6068C2.56147 12.5641 2.57001 12.5183 2.57001 12.472C2.54746 12.155 2.58546 11.8364 2.68172 11.5355C2.77799 11.2346 2.9305 10.9577 3.13001 10.7216C3.29046 10.5308 3.48402 10.3749 3.70001 10.2627C3.76738 10.2294 3.8218 10.1721 3.85396 10.1007C3.88612 10.0293 3.89401 9.94813 3.87628 9.87118C3.85856 9.79423 3.81631 9.72626 3.75679 9.6789C3.69726 9.63154 3.62416 9.60775 3.55001 9.6116L1.94001 9.62227Z" fill="white"/>
</g>
<defs>
<clipPath id="clip0_2298_27">
<rect width="16" height="16" fill="white"/>
</clipPath>
</defs>
</svg>
