<svg width="17" height="17" viewBox="0 0 17 17" fill="none" xmlns="http://www.w3.org/2000/svg">
<path fill-rule="evenodd" clip-rule="evenodd" d="M15.941 7.19471C15.9128 6.96852 15.6586 6.79888 15.4326 6.79888C14.6983 6.79888 14.0487 6.37477 13.7662 5.69619C13.4838 5.01762 13.6533 4.22595 14.2181 3.71702C14.3876 3.54738 14.4158 3.29292 14.2746 3.12327C13.9075 2.64262 13.4838 2.21851 13.0036 1.85095C12.8342 1.70958 12.5517 1.73785 12.3823 1.9075C11.9021 2.41643 11.0548 2.61434 10.4052 2.3316C9.72734 2.04886 9.27543 1.34202 9.33192 0.578623C9.33192 0.352432 9.16246 0.126241 8.93651 0.0979671C8.34338 0.0414193 7.72201 0.0131455 7.12889 0.0979671C6.90294 0.126241 6.73347 0.324158 6.73347 0.550349C6.76172 1.28547 6.30981 1.99232 5.63195 2.24678C4.98234 2.50125 4.13502 2.3316 3.65487 1.7944C3.48541 1.62476 3.23121 1.59648 3.06175 1.73785C2.5816 2.10541 2.15794 2.55779 1.76252 3.01018C1.6213 3.20809 1.64955 3.46256 1.81901 3.6322C2.38389 4.14113 2.55336 4.9328 2.27092 5.63965C1.98848 6.28995 1.31062 6.71405 0.519786 6.71405C0.265589 6.71405 0.0961253 6.8837 0.0678813 7.10989C0.0113932 7.70364 -0.0168508 8.32567 0.0678813 8.91942C0.0961253 9.14561 0.350322 9.31525 0.604518 9.31525C1.31062 9.28698 1.96023 9.73936 2.24267 10.4179C2.52511 11.0965 2.35565 11.8882 1.79077 12.3971C1.6213 12.5667 1.59306 12.8212 1.73428 12.9909C2.10145 13.4715 2.52511 13.8956 3.00526 14.2632C3.17472 14.4045 3.45716 14.4045 3.62663 14.2066C4.10678 13.6694 4.9541 13.4715 5.63195 13.7543C6.30981 14.037 6.76172 14.7438 6.70523 15.5072C6.70523 15.7334 6.87469 15.9596 7.10064 15.9879C7.41133 16.0162 7.72201 16.0444 8.0327 16.0444C8.31514 16.0444 8.62582 16.0162 8.90826 15.9879C9.13421 15.9596 9.30368 15.7617 9.30368 15.5355C9.27543 14.8004 9.72734 14.0935 10.4052 13.8391C11.0548 13.5563 11.9021 13.7543 12.3823 14.2915C12.5517 14.4611 12.8059 14.4894 12.9754 14.348C13.4556 13.9804 13.8792 13.5281 14.2746 13.0757C14.4158 12.906 14.3876 12.6233 14.2181 12.4537C13.6533 11.9447 13.4838 11.1531 13.7662 10.4462C14.0487 9.79591 14.6983 9.3718 15.4044 9.3718H15.5174C15.7433 9.40007 15.9693 9.20216 15.9975 8.97596C16.0258 8.41049 16.0258 7.78846 15.941 7.19471ZM8.00445 10.7855C6.53576 10.7855 5.32127 9.59799 5.32127 8.09947C5.32127 6.62923 6.50752 5.41346 8.00445 5.41346C9.47314 5.41346 10.6876 6.60096 10.6876 8.09947C10.6594 9.56972 9.47314 10.7855 8.00445 10.7855Z" fill="white"/>
</svg>
