<svg width="16" height="16" viewBox="0 0 16 16" fill="none" xmlns="http://www.w3.org/2000/svg">
<path fill-rule="evenodd" clip-rule="evenodd" d="M6.4657 5.68912C6.39436 5.92565 6.17322 6.0879 5.92218 6.0879H2.61286C2.07636 6.0879 1.84003 6.75232 2.25969 7.08077L5.02386 9.24416C5.20456 9.38559 5.27986 9.62061 5.21422 9.83826L4.17991 13.2673C4.02235 13.7897 4.64289 14.2009 5.0766 13.8614L7.64684 11.8498C7.85351 11.6881 8.14649 11.6881 8.35317 11.8498L10.9234 13.8615C11.3571 14.2009 11.9777 13.7897 11.8201 13.2673L10.7858 9.83826C10.7201 9.62061 10.7954 9.38558 10.9761 9.24416L13.7403 7.08077C14.16 6.75232 13.9236 6.0879 13.3871 6.0879H10.0778C9.82678 6.0879 9.60564 5.92565 9.5343 5.68912L8.54352 2.40432C8.38314 1.87262 7.61686 1.87262 7.45648 2.40432L6.4657 5.68912ZM11.1782 4.08235L10.5002 1.83436C9.76247 -0.61145 6.23754 -0.611457 5.49981 1.83436L4.82176 4.08235H2.61286C0.144985 4.08235 -0.942154 7.13871 0.988295 8.64958L2.97514 10.2046L2.22325 12.6974C1.49843 15.1004 4.35295 16.9917 6.34799 15.4303L8 14.1373L9.65201 15.4303C11.6471 16.9917 14.5016 15.1004 13.7768 12.6974L13.0249 10.2046L15.0117 8.64958C16.9422 7.13871 15.855 4.08235 13.3871 4.08235H11.1782Z" fill="white"/>
</svg>
