<svg width="16" height="16" viewBox="0 0 16 16" fill="none" xmlns="http://www.w3.org/2000/svg">
<path d="M15.4728 1.5H10.5012C10.1968 1.5 9.68952 1.70392 9.4866 1.90784L3.39895 8.02549C3.09457 8.33137 3.09457 8.73922 3.29749 9.0451L8.57346 14.3471C8.77638 14.551 9.18222 14.551 9.4866 14.3471L15.5743 8.22941C15.7772 8.02549 15.9801 7.51569 15.9801 7.2098V2.11176C16.0816 1.80588 15.7772 1.5 15.4728 1.5ZM12.3275 6.49608C11.6173 6.49608 11.11 5.98628 11.11 5.27255C11.11 4.55882 11.6173 4.04902 12.3275 4.04902C13.0377 4.04902 13.545 4.55882 13.545 5.27255C13.545 5.98628 13.0377 6.49608 12.3275 6.49608Z" fill="white"/>
<path d="M1.26826 8.53529L8.26906 1.5H7.25445C6.95007 1.5 6.44276 1.70392 6.23984 1.90784L0.152191 8.02549C-0.0507304 8.22941 -0.0507304 8.63726 0.152191 8.94314L5.42816 14.2451C5.63108 14.449 6.03692 14.449 6.3413 14.2451L6.74715 13.8373L1.26826 8.53529Z" fill="white"/>
</svg>
