<?xml version="1.0" encoding="utf-8"?>
<!-- Generator: Adobe Illustrator 23.0.1, SVG Export Plug-In . SVG Version: 6.00 Build 0)  -->
<svg version="1.1" id="Слой_1" xmlns="http://www.w3.org/2000/svg" xmlns:xlink="http://www.w3.org/1999/xlink" x="0px" y="0px"
	 viewBox="0 0 230.1 57.2" style="enable-background:new 0 0 230.1 57.2;" xml:space="preserve">
<style type="text/css">
	.st0{fill:#3D88C8;}
	.st1{fill:#6F6F6E;}
	.st2{fill:#4EB594;}
	.st3{fill:#029E81;}
	.st4{fill:#057BAA;}
</style>
<g>
	<g>
		<g>
			<g>
				<path class="st0" d="M67.3,7.2c2.3,0,3.8,1.3,4.4,3c0.7,1.8,0.5,3.9-1.3,5.2c2.1,0.9,2.8,2.8,2.8,4.5c0,2.7-1.8,5.5-5.3,5.5
					h-8.3V7.2H67.3z M62.3,14.5h4.9c2.9,0,2.9-4.8,0.1-4.8h-5C62.3,9.7,62.3,14.5,62.3,14.5z M62.3,22.9h5.6c1.8,0,2.7-1.5,2.7-2.9
					s-0.9-2.9-2.7-2.9h-5.6C62.3,17.1,62.3,22.9,62.3,22.9z"/>
				<path class="st0" d="M78.4,9.9c1.6-1.7,3.9-2.7,6.4-2.7s4.8,1,6.4,2.7s2.6,3.9,2.6,6.4s-1,4.8-2.6,6.4c-1.7,1.7-3.9,2.7-6.4,2.7
					s-4.8-1-6.4-2.7s-2.6-3.9-2.6-6.4S76.8,11.6,78.4,9.9z M89.5,11.8c-1.2-1.2-2.8-1.9-4.6-1.9c-1.8,0-3.4,0.7-4.6,1.9
					s-1.9,2.8-1.9,4.6s0.7,3.4,1.9,4.6c1.2,1.2,2.8,1.9,4.6,1.9c1.8,0,3.4-0.7,4.6-1.9c1.2-1.2,1.9-2.8,1.9-4.6
					C91.3,14.5,90.6,12.9,89.5,11.8z"/>
				<path class="st0" d="M101.9,25.5V9.8h-5.5V7.2h13.7v2.5h-5.6v15.8C104.5,25.6,101.9,25.6,101.9,25.5z"/>
				<g>
					<path class="st1" d="M62.4,50h-2.6V31.6h10.9v2.6h-8.3v5.5h7.3v2.5h-7.3C62.4,42.3,62.4,50,62.4,50z"/>
					<path class="st1" d="M84,45.4h-7.4L74.8,50H72l7.3-18.3h1.9L88.5,50h-2.8L84,45.4z M77.6,42.9h5.5l-2.8-7.2L77.6,42.9z"/>
					<path class="st1" d="M109.7,50h-2.8l-1.9-1.7c-4,2.6-9.3,2.1-12.1-1c-1.6-1.7-2.7-3.9-2.7-6.4s1-4.8,2.7-6.4
						c1.6-1.7,3.9-2.7,6.4-2.7s4.8,1,6.4,2.7s2.7,3.9,2.7,6.4c0,2.1-0.7,4-1.9,5.6l3.1,3V50H109.7z M98.5,42.1h3.1l3,2.8
						c0.8-1.1,1.2-2.5,1.2-4c0-1.8-0.8-3.4-1.9-4.6c-1.2-1.2-2.8-1.9-4.6-1.9c-1.8,0-3.4,0.7-4.6,1.9c-1.1,1.2-1.9,2.8-1.9,4.6
						s0.8,3.5,1.9,4.6c2.2,2.2,5.5,2.6,8.2,1l-4.5-4v-0.4H98.5z M98.5,42.5V42V42.5z"/>
					<path class="st1" d="M116.5,50V34.2H111v-2.5h13.7v2.5h-5.5V50H116.5z"/>
					<path class="st1" d="M129.5,34.4c1.6-1.7,3.9-2.7,6.4-2.7s4.8,1,6.4,2.7c1.6,1.7,2.6,3.9,2.6,6.4s-1,4.8-2.6,6.4
						c-1.7,1.7-3.9,2.7-6.4,2.7s-4.8-1-6.4-2.7c-1.6-1.7-2.6-3.9-2.6-6.4C126.9,38.4,127.9,36.1,129.5,34.4z M140.5,36.3
						c-1.2-1.2-2.8-1.9-4.6-1.9s-3.4,0.7-4.6,1.9c-1.2,1.2-1.9,2.8-1.9,4.6s0.7,3.4,1.9,4.6c1.2,1.2,2.8,1.9,4.6,1.9
						s3.4-0.7,4.6-1.9c1.2-1.2,1.9-2.8,1.9-4.6S141.7,37.4,140.5,36.3z"/>
					<path class="st1" d="M151.6,40.7h3.1c2.2,0,3.3-1.6,3.3-3.2c0-1.6-1.1-3.2-3.3-3.2h-4.1v15.6H148V31.6h6.7c4,0,6,2.9,6,5.8
						c0,2.6-1.6,5-4.7,5.6l5.8,6.9h-3.4l-6.7-8v-1.3H151.6z"/>
				</g>
			</g>
		</g>
	</g>
	<g>
		<g>
			<path class="st2" d="M38.2,34.5c-4.8,5.8-10,12.1-13.4,15.6c-0.1,0-0.1-0.1-0.2-0.2c-1.7-1.5-3.8-3.5-6-5.8L15,47.7
				c4.5,4.7,8.7,8.2,9.6,8.9c0.1,0.1,0.2,0.1,0.2,0.1s11.7-12.8,17.1-18.6L38.2,34.5z"/>
			<path class="st0" d="M24.6,10L9.7,15.9c0,0,1.3,9.9,4.6,16.5c2.9,5.8,9.6,12.4,10.3,12.8c0.7-0.4,7.7-7.4,10.6-13.2
				c3.3-6.6,4.3-16.1,4.3-16.1L24.6,10z"/>
			<path class="st0" d="M48.5,9.8L24.6-0.3L0.7,9.8c0,0-1.7,13.9,5.8,26.8c1.5,2.5,3.3,5,5.3,7.3l3.6-3.6c-1.7-2-3.3-4.2-4.5-6.3
				c-4.3-7.2-5.2-15.4-5.3-20c2.1-1.2,17.2-7.3,19-8c1.7,0.7,16.9,6.8,19,8c-0.1,3.7-0.7,9.7-3.1,15.7l3.9,3.9
				C50,21.6,48.5,9.8,48.5,9.8z"/>
			<path class="st3" d="M41.9,38.2l-3.7-3.7c-4.8,5.8-10,12.1-13.4,15.6c-0.1,0,0,6.7,0,6.7S36.4,44,41.9,38.2z"/>
			<path class="st4" d="M40.5,29.8l3.9,3.9c5.6-12,4.1-23.8,4.1-23.8L24.6-0.3V6c1.7,0.7,16.9,6.8,19,8
				C43.5,17.8,42.9,23.8,40.5,29.8z"/>
			<path class="st4" d="M39.5,15.9c0,0-1,9.5-4.3,16.1c-2.9,5.8-9.9,12.8-10.6,13.2V10L39.5,15.9z"/>
		</g>
	</g>
</g>
</svg>
