<svg width="30" height="30" viewBox="0 0 30 30" fill="none" xmlns="http://www.w3.org/2000/svg">
<path d="M0.0292969 14.6201C0.0292969 6.67573 6.49883 0.175781 14.406 0.175781C22.3132 0.175781 28.7828 6.67573 28.7828 14.6201C28.7828 22.5646 22.3132 29.0644 14.406 29.0644C6.49883 29.0644 0.0292969 22.5646 0.0292969 14.6201Z" fill="#1A4A7F"/>
<path fill-rule="evenodd" clip-rule="evenodd" d="M12.0706 28.8835C9.19528 28.4321 6.49964 27.078 4.43298 25.0016L17.372 13.085L10.004 14.8906C7.93732 15.4322 5.87066 14.1683 5.42138 12.0919C5.42138 12.0919 5.42138 12.0919 5.42138 12.0017C4.97211 9.9253 6.23007 7.84893 8.29674 7.30727L23.7517 3.51562C29.8619 8.66143 30.6706 17.7795 25.5488 23.828C24.1111 25.5432 22.314 26.8975 20.2474 27.8002C20.2474 27.2586 20.2474 26.7169 20.4271 26.2655L22.8533 18.953C22.7634 18.953 12.0706 28.8835 12.0706 28.8835Z" fill="url(#paint0_linear_7480_1718)"/>
<defs>
<linearGradient id="paint0_linear_7480_1718" x1="33.4761" y1="0.00980227" x2="-15.9535" y2="45.1557" gradientUnits="userSpaceOnUse">
<stop stop-color="#FFB800"/>
<stop offset="1" stop-color="#FFF11D"/>
</linearGradient>
</defs>
</svg>
