<svg width="16" height="16" viewBox="0 0 16 16" fill="none" xmlns="http://www.w3.org/2000/svg">
<mask id="mask0_7508_678" style="mask-type:luminance" maskUnits="userSpaceOnUse" x="1" y="0" width="14" height="16">
<path d="M14.8498 0H1.14978V16H14.8498V0Z" fill="white"/>
</mask>
<g mask="url(#mask0_7508_678)">
<path d="M14.0998 10.7C13.6498 11.9 13.0498 12.9 12.1498 13.7C11.1998 14.65 9.89982 15.4 8.34982 15.95C8.29982 16 8.24981 16 8.19981 16C8.09981 16 8.04982 16 7.99981 16H7.94981C7.84981 16 7.79981 16 7.69981 15.95C7.64981 15.95 7.59982 15.9 7.54982 15.9C5.99981 15.35 4.74981 14.6 3.74981 13.65C2.89981 12.85 2.24981 11.8 1.79981 10.65C0.999815 8.55 1.04982 6.2 1.09982 4.35C1.09982 4.2 1.09982 4.05 1.14982 3.85C1.19982 2.95 1.89982 2.2 2.79982 2.15C4.64982 2.05 6.09982 1.45 7.29982 0.25C7.49981 0.1 7.74981 0 7.99981 0C8.24981 0 8.49981 0.1 8.69981 0.25C9.89981 1.45 11.3498 2.05 13.1998 2.15C14.0998 2.2 14.7498 2.95 14.7998 3.8C14.7998 4 14.7998 4.15 14.8498 4.3C14.7998 6.2 14.8498 8.55 14.0998 10.7Z" fill="#57B36E"/>
</g>
<mask id="mask1_7508_678" style="mask-type:luminance" maskUnits="userSpaceOnUse" x="1" y="0" width="14" height="16">
<path d="M14.8498 0H1.14978V16H14.8498V0Z" fill="white"/>
</mask>
<g mask="url(#mask1_7508_678)">
<path d="M14.1 10.7C13.65 11.9 13.05 12.9 12.15 13.7C11.2 14.65 9.9 15.4 8.35 15.95C8.3 16 8.25 16 8.2 16C8.1 16 8.05 16 8 16V0C8.25 0 8.5 0.1 8.7 0.25C9.9 1.45 11.35 2.05 13.2 2.15C14.1 2.2 14.75 2.95 14.8 3.8C14.8 4 14.8 4.15 14.85 4.3C14.8 6.2 14.85 8.55 14.1 10.7Z" fill="#57B36E"/>
</g>
<path d="M11.9998 8C11.9998 10.2 10.1998 12 7.99983 12H7.94983C5.74983 12 3.94983 10.2 3.94983 8C3.94983 5.8 5.74983 4 7.94983 4H7.99983C10.1998 4 11.9998 5.8 11.9998 8Z" fill="white"/>
<path d="M12 8C12 10.2 10.2 12 8 12V4C10.2 4 12 5.8 12 8Z" fill="#E1EBF0"/>
<path d="M10.4498 7.84922C10.3998 7.84922 10.3498 7.79922 10.3498 7.74922V7.49922C10.3498 6.19922 9.29983 5.14922 7.99983 5.14922C6.69983 5.14922 5.64983 6.19922 5.64983 7.49922V7.74922C5.64983 7.79922 5.59983 7.84922 5.54983 7.84922C5.49983 7.84922 5.44983 7.79922 5.44983 7.74922V7.49922C5.44983 6.09922 6.59983 4.94922 7.99983 4.94922C9.39983 4.94922 10.5498 6.09922 10.5498 7.49922V7.74922C10.5498 7.84922 10.4998 7.84922 10.4498 7.84922Z" fill="#848484"/>
<path d="M10.3493 8.99883H10.0993C10.0493 8.99883 9.99927 8.94883 9.99927 8.89883C9.99927 8.84883 10.0493 8.79883 10.0993 8.79883H10.3493C10.4493 8.79883 10.4493 8.74883 10.4493 8.69883V8.14883C10.4493 8.09883 10.4993 8.04883 10.5493 8.04883C10.5993 8.04883 10.6493 8.09883 10.6493 8.14883V8.69883C10.6493 8.89883 10.5493 8.99883 10.3493 8.99883Z" fill="#848484"/>
<path d="M7.24927 9.09961H8.64927V10.2996H7.24927V9.09961Z" fill="#CBCBCB"/>
<path d="M10.0998 8.64922C10.1498 8.54922 10.1498 8.49922 10.1498 8.39922V6.69922C10.1498 6.14922 9.69983 5.69922 9.14983 5.69922H6.94983C6.39983 5.69922 5.94983 6.14922 5.94983 6.69922V8.44922C5.94983 8.99922 6.39983 9.44922 6.94983 9.44922H9.14983C9.39983 9.44922 9.64983 9.34922 9.79983 9.19922" fill="#E5E5E5"/>
<path d="M6.64961 8.79883V9.39883C6.19961 9.29883 5.84961 8.89883 5.84961 8.39883V7.79883C6.34961 7.89883 6.64961 8.29883 6.64961 8.79883Z" fill="#CBCBCB"/>
<path d="M10.0996 7.84961V8.44961C10.0996 8.54961 10.0996 8.64961 10.0496 8.69961L9.74956 9.19961C9.64956 9.29961 9.49956 9.39961 9.29956 9.44961V8.84961C9.29956 8.29961 9.64956 7.89961 10.0996 7.84961Z" fill="#CBCBCB"/>
<path d="M7.69966 7.19883C7.69966 7.54883 7.44966 7.84883 7.04966 7.84883C6.69966 7.84883 6.39966 7.59883 6.39966 7.19883C6.39966 6.84883 6.64966 6.54883 7.04966 6.54883C7.39966 6.54883 7.69966 6.84883 7.69966 7.19883Z" fill="white"/>
<path d="M9.59956 7.19883C9.59956 7.54883 9.34956 7.84883 8.94956 7.84883C8.54956 7.84883 8.29956 7.59883 8.29956 7.19883C8.29956 6.84883 8.54956 6.54883 8.94956 6.54883C9.34956 6.54883 9.59956 6.84883 9.59956 7.19883Z" fill="white"/>
<path d="M7.04956 7.44922C6.94956 7.44922 6.79956 7.34922 6.79956 7.19922C6.79956 7.04922 6.89956 6.94922 7.04956 6.94922C7.14956 6.94922 7.29956 7.04922 7.29956 7.19922C7.29956 7.34922 7.14956 7.44922 7.04956 7.44922Z" fill="#444444"/>
<path d="M8.94983 7.44922C8.84983 7.44922 8.69983 7.34922 8.69983 7.19922C8.69983 7.04922 8.79983 6.94922 8.94983 6.94922C9.09983 6.94922 9.19983 7.04922 9.19983 7.19922C9.19983 7.34922 9.04983 7.44922 8.94983 7.44922Z" fill="#444444"/>
<path d="M6.39956 8.94829C6.39956 9.09829 6.29956 9.19829 6.14956 9.19829H6.04956C5.89956 9.19829 5.79956 9.09829 5.79956 8.94829C5.79956 8.79829 5.89956 8.69829 6.04956 8.69829H6.14956C6.29956 8.64829 6.39956 8.74829 6.39956 8.94829Z" fill="#444444"/>
<path d="M7.59912 8.34961H7.84912V9.39961H7.59912V8.34961Z" fill="#7B7B7B"/>
<path d="M8.09912 8.34961H8.34912V9.39961H8.09912V8.34961Z" fill="#7B7B7B"/>
<path d="M8.54895 8.40039V9.45039H8.79895V8.80039C8.84895 8.55039 8.74895 8.40039 8.54895 8.40039Z" fill="#7B7B7B"/>
<path d="M7.39917 8.40039C7.24917 8.45039 7.14917 8.60039 7.14917 8.80039V9.45039H7.39917V8.40039Z" fill="#7B7B7B"/>
<path d="M5.89961 7.04922V8.04922C5.89961 8.19922 5.79961 8.29922 5.64961 8.39922C5.59961 8.39922 5.59961 8.39922 5.54961 8.39922H5.44961C5.24961 8.39922 5.09961 8.24922 5.09961 8.04922V7.04922C5.09961 6.84922 5.24961 6.69922 5.44961 6.69922H5.49961C5.54961 6.69922 5.54961 6.69922 5.59961 6.69922C5.74961 6.74922 5.89961 6.89922 5.89961 7.04922Z" fill="#686868"/>
<path d="M5.89966 7.04922V8.04922C5.89966 8.19922 5.79966 8.29922 5.64966 8.39922C5.49966 8.34922 5.39966 8.19922 5.39966 8.04922V7.04922C5.39966 6.89922 5.49966 6.79922 5.64966 6.69922C5.74966 6.74922 5.89966 6.89922 5.89966 7.04922Z" fill="#7B7B7B"/>
<path d="M10.8996 7.04922V8.04922C10.8996 8.19922 10.7996 8.29922 10.6496 8.39922C10.5996 8.39922 10.5996 8.39922 10.5496 8.39922H10.4496C10.2496 8.39922 10.0996 8.24922 10.0996 8.04922V7.04922C10.0996 6.84922 10.2496 6.69922 10.4496 6.69922H10.5496C10.5996 6.69922 10.5996 6.69922 10.6496 6.69922C10.7996 6.74922 10.8996 6.89922 10.8996 7.04922Z" fill="#686868"/>
<path d="M10.8997 7.04922V8.04922C10.8997 8.19922 10.7997 8.29922 10.6497 8.39922C10.4997 8.34922 10.3997 8.19922 10.3997 8.04922V7.04922C10.3997 6.89922 10.4997 6.79922 10.6497 6.69922C10.7997 6.74922 10.8997 6.89922 10.8997 7.04922Z" fill="#7B7B7B"/>
<path d="M9.94983 8.64844H10.0498C10.1998 8.64844 10.2998 8.74844 10.2998 8.89844C10.2998 9.04844 10.1998 9.14844 10.0498 9.14844H9.94983C9.79983 9.14844 9.69983 9.04844 9.69983 8.89844C9.69983 8.74844 9.74983 8.64844 9.94983 8.64844Z" fill="#444444"/>
<path d="M5.34961 8.69883V8.14883C5.34961 8.09883 5.39961 8.04883 5.44961 8.04883C5.49961 8.04883 5.54961 8.09883 5.54961 8.14883V8.69883C5.54961 8.79883 5.59961 8.79883 5.64961 8.79883H5.89961C5.94961 8.79883 5.99961 8.84883 5.99961 8.89883C5.99961 8.94883 5.94961 8.99883 5.89961 8.99883H5.64961C5.49961 9.04883 5.34961 8.89883 5.34961 8.69883Z" fill="#848484"/>
<path d="M10.0498 10.6492H5.94983V10.5992C5.94983 10.2492 6.19983 9.94922 6.59983 9.94922H9.39983C9.69983 9.94922 10.0498 10.2492 10.0498 10.6492Z" fill="#CBCBCB"/>
<path d="M10.0493 10.6496L6.74927 10.6996V10.6496C6.74927 10.2996 6.99927 9.99959 7.39927 9.99959H9.39927C9.69927 9.94959 10.0493 10.2496 10.0493 10.6496Z" fill="#E5E5E5"/>
<path d="M7.95 4.25C5.9 4.25 4.25 5.9 4.25 7.95C4.25 10 5.9 11.65 7.95 11.65C10 11.65 11.65 10 11.65 7.95C11.65 5.9 10 4.25 7.95 4.25ZM7.95 11.2C6.15 11.2 4.7 9.75 4.7 7.95C4.7 7.15 5 6.4 5.5 5.8L10.1 10.4C9.5 10.9 8.75 11.2 7.95 11.2ZM10.4 10.05L5.8 5.45C6.4 4.95 7.15 4.65 7.95 4.65C9.75 4.65 11.2 6.1 11.2 7.9C11.25 8.7 10.9 9.5 10.4 10.05Z" fill="#E84C4F"/>
</svg>
