<?xml version="1.0" encoding="utf-8"?>
<!-- Generator: Adobe Illustrator 23.0.1, SVG Export Plug-In . SVG Version: 6.00 Build 0)  -->
<svg version="1.1" id="Слой_1" xmlns="http://www.w3.org/2000/svg" xmlns:xlink="http://www.w3.org/1999/xlink" x="0px" y="0px"
	 viewBox="0 0 73.5 64.1" style="enable-background:new 0 0 73.5 64.1;" xml:space="preserve">
<style type="text/css">
	.st0{fill:#465A61;}
	.st1{fill:#3B4A51;}
	.st2{opacity:0.8;fill:#556B79;enable-background:new    ;}
	.st3{fill:#556B79;}
	.st4{opacity:0.8;fill:#FBCB18;enable-background:new    ;}
	.st5{fill:#FBCB18;}
	.st6{fill:#57B36E;}
	.st7{fill:#76CE84;}
	.st8{fill:#67C17A;}
</style>
<title>shield</title>
<desc>Created with Sketch.</desc>
<g>
	<path class="st0" d="M9.2,4.2h4.2v4.3H9.2V4.2z"/>
	<path class="st0" d="M26.1,4.2h4.2v4.3h-4.2C26.1,8.5,26.1,4.2,26.1,4.2z"/>
	<path class="st1" d="M43.1,2.1h4.2v8.5h-4.2V2.1z"/>
	<path class="st1" d="M60,2.1h4.2v8.5H60V2.1z"/>
	<path class="st2" d="M0.6,0h72.3v4.2H0.6V0z"/>
	<path class="st3" d="M36.8,0h36.1v4.2H36.8V0z"/>
	<path class="st4" d="M0.6,8.5v47.4h72.3V8.5H0.6z"/>
	<path class="st5" d="M36.8,8.5h36.1v47.4H36.8V8.5z"/>
	<g>
		<path class="st3" d="M43.1,38.1h21.2v4.2H43.1V38.1z"/>
		<path class="st3" d="M43.1,29.6h21.2v4.3H43.1V29.6z"/>
		<path class="st3" d="M43.1,21.2h21.2v4.2H43.1V21.2z"/>
	</g>
	<path class="st6" d="M39.1,42.3H28.5L20,32.9c0.1-0.2,7.1-14.2,7.2-14.4L39.1,42.3z"/>
	<path class="st7" d="M18.7,22.8L9,42.3h19.6L18.7,22.8z"/>
	<path class="st8" d="M28.5,42.3h-6.6V29.1L28.5,42.3z"/>
</g>
</svg>
