<svg width="10" height="6" viewBox="0 0 10 6" fill="none" xmlns="http://www.w3.org/2000/svg">
<path d="M0.220115 5.77056C0.361098 5.91747 0.552285 6 0.751634 6C0.950983 6 1.14217 5.91747 1.28315 5.77056L5.00454 1.89154L8.72592 5.77056C8.86771 5.91331 9.05762 5.99229 9.25474 5.99051C9.45186 5.98872 9.64042 5.90631 9.77981 5.76101C9.91919 5.61572 9.99826 5.41917 9.99997 5.21371C10.0017 5.00824 9.92591 4.81029 9.78896 4.66249L5.53606 0.229439C5.39508 0.0825293 5.20389 0 5.00454 0C4.80519 0 4.614 0.0825293 4.47302 0.229439L0.220115 4.66249C0.0791756 4.80945 0 5.00873 0 5.21653C0 5.42432 0.0791756 5.62361 0.220115 5.77056Z" fill="#333333"/>
</svg>
