<?xml version="1.0" encoding="utf-8"?>
<!-- Generator: Adobe Illustrator 23.0.1, SVG Export Plug-In . SVG Version: 6.00 Build 0)  -->
<svg version="1.1" id="Слой_1" xmlns="http://www.w3.org/2000/svg" xmlns:xlink="http://www.w3.org/1999/xlink" x="0px" y="0px"
	 viewBox="0 0 612 792" style="enable-background:new 0 0 612 792;" xml:space="preserve">
<style type="text/css">
	.st0{clip-path:url(#SVGID_2_);fill:#57B36E;}
	.st1{clip-path:url(#SVGID_4_);fill:#57B36E;}
	.st2{fill:#FFFFFF;}
	.st3{fill:#E1EBF0;}
	.st4{fill:#848484;}
	.st5{fill:#CBCBCB;}
	.st6{fill:#E5E5E5;}
	.st7{fill:#444444;}
	.st8{fill:#7B7B7B;}
	.st9{fill:#686868;}
	.st10{fill:#E84C4F;}
</style>
<g>
	<g>
		<g>
			<g>
				<g>
					<g>
						<defs>
							<rect id="SVGID_1_" x="1.2" width="609.7" height="713"/>
						</defs>
						<clipPath id="SVGID_2_">
							<use xlink:href="#SVGID_1_"  style="overflow:visible;"/>
						</clipPath>
						<path class="st0" d="M576.8,475.7c-19.3,52.2-47.7,97.6-86.3,134c-43.1,42-99.9,76.1-168,99.9c-2.3,1.1-4.5,1.1-6.8,2.3
							c-3.4,1.1-6.8,1.1-9.1,1.1h-1.1c-3.4,0-6.8,0-10.2-1.1c-2.3,0-4.5-1.1-6.8-2.3c-68.1-23.8-124.9-57.9-168-99.9
							c-38.6-36.3-67-81.7-86.3-134C-1.1,381.5,1.2,277,3.4,194.1V193c0-6.8,0-13.6,1.1-22.7C3.4,131.7,35.2,98.8,75,96.5
							c81.7-4.5,145.3-31.8,199.8-84l0,0C283.9,4.5,295.2,0,306.6,0c11.4,0,21.6,4.5,30.7,12.5l0,0C391.7,65.8,455.3,92,537,96.5
							c39.7,2.3,70.4,35.2,71.5,73.8c0,7.9,0,14.8,1.1,22.7l0,0C609.7,277,612,381.5,576.8,475.7L576.8,475.7z"/>
					</g>
				</g>
				<g>
					<g>
						<defs>
							<rect id="SVGID_3_" x="1.2" width="609.7" height="713"/>
						</defs>
						<clipPath id="SVGID_4_">
							<use xlink:href="#SVGID_3_"  style="overflow:visible;"/>
						</clipPath>
						<path class="st1" d="M576.8,475.7c-19.3,52.2-47.7,97.6-86.3,134c-43.1,42-99.9,76.1-168,99.9c-2.3,1.1-4.5,1.1-6.8,2.3
							c-3.4,1.1-6.8,1.1-9.1,1.1V0c11.4,0,21.6,4.5,30.7,12.5l0,0C391.7,65.9,455.3,92,537,96.5c39.7,2.3,70.4,35.2,71.5,73.8
							c0,7.9,0,14.8,1.1,22.7l0,0C609.7,277,612,381.5,576.8,475.7L576.8,475.7z"/>
					</g>
				</g>
			</g>
			<path class="st2" d="M483.7,356.5c0,97.6-79.5,177.1-177.1,177.1h-1.1c-97.6,0-177.1-79.5-177.1-177.1s79.5-177.1,177.1-177.1
				h1.1C404.2,179.4,483.7,258.9,483.7,356.5L483.7,356.5z"/>
			<path class="st3" d="M483.7,356.5c0,97.6-79.5,177.1-177.1,177.1V178.2C404.2,179.4,483.7,258.9,483.7,356.5L483.7,356.5z"/>
		</g>
	</g>
	<g>
		<g>
			<path class="st4" d="M415.6,350.8c-2.3,0-4.5-2.3-4.5-4.5v-11.4c0-57.9-47.7-105.6-105.6-105.6S199.8,277,199.8,334.9v11.4
				c0,2.3-2.3,4.5-4.5,4.5c-2.3,0-4.5-2.3-4.5-4.5v-11.4c0-63.6,51.1-114.7,114.7-114.7s114.7,51.1,114.7,114.7v11.4
				C420.1,349.7,417.8,350.8,415.6,350.8z"/>
			<path class="st4" d="M411,401.9h-11.4c-2.3,0-4.5-2.3-4.5-4.5c0-2.3,2.3-4.5,4.5-4.5H411c3.4,0,5.7-2.3,5.7-5.7v-23.8
				c0-2.3,2.3-4.5,4.5-4.5s4.5,2.3,4.5,4.5v23.8C424.6,396.2,419,401.9,411,401.9z"/>
			<path class="st5" d="M273.6,405.3h62.4v53.4h-62.4V405.3z"/>
			<path class="st6" d="M398.5,384.9c1.1-3.4,1.1-6.8,1.1-11.4v-77.2c0-25-20.4-45.4-45.4-45.4h-97.6c-25,0-45.4,20.4-45.4,45.4
				v77.2c0,25,20.4,45.4,45.4,45.4h98.8c11.4,0,21.6-4.5,29.5-11.4"/>
			<path class="st5" d="M246.4,391.7v27.2c-20.4-4.5-35.2-22.7-35.2-44.3v-26.1C231.6,353.1,246.4,370.1,246.4,391.7z"/>
			<path class="st5" d="M399.7,348.6v26.1c0,3.4,0,7.9-1.1,11.4l-13.6,22.7c-5.7,4.5-12.5,7.9-19.3,10.2v-26.1
				C364.5,370.1,379.2,353.1,399.7,348.6z"/>
			<path class="st2" d="M292.9,320.2c0,15.9-12.5,29.5-29.5,29.5c-15.9,0-29.5-12.5-29.5-29.5c0-15.9,12.5-29.5,29.5-29.5
				C279.3,291.8,292.9,304.3,292.9,320.2z"/>
			<path class="st2" d="M377,320.2c0,15.9-12.5,29.5-29.5,29.5c-17,0-29.5-12.5-29.5-29.5c0-15.9,12.5-29.5,29.5-29.5
				C364.5,290.6,377,304.3,377,320.2z"/>
			<path class="st7" d="M263.4,331.5c-5.7,0-11.4-4.5-11.4-11.4s4.5-11.4,11.4-11.4c5.7,0,11.4,4.5,11.4,11.4
				C274.8,327,269.1,331.5,263.4,331.5z"/>
			<path class="st7" d="M347.4,331.5c-5.7,0-11.4-4.5-11.4-11.4s4.5-11.4,11.4-11.4c6.8,0,11.4,4.5,11.4,11.4
				S353.1,331.5,347.4,331.5z"/>
			<path class="st7" d="M235,398.5c0,6.8-5.7,12.5-12.5,12.5H218c-6.8,0-12.5-5.7-12.5-12.5S211.2,386,218,386h4.5
				C229.4,384.9,235,390.6,235,398.5z"/>
			<g>
				<path class="st8" d="M288.4,372.4h12.5v47.7h-12.5V372.4z"/>
				<path class="st8" d="M310,372.4h12.5v47.7H310V372.4z"/>
				<path class="st8" d="M331.5,373.5v46.5H344v-29.5C344,381.5,339.5,374.7,331.5,373.5z"/>
				<path class="st8" d="M279.3,373.5c-6.8,2.3-12.5,9.1-12.5,17v29.5h12.5V373.5z"/>
			</g>
			<path class="st9" d="M211.2,313.4v44.3c0,6.8-4.5,12.5-11.4,14.8c-1.1,0-2.3,0-4.5,0h-5.7c-7.9,0-14.8-6.8-14.8-14.8v-44.3
				c0-7.9,6.8-14.8,14.8-14.8h5.7c1.1,0,2.3,0,4.5,0C206.7,300.9,211.2,306.5,211.2,313.4z"/>
			<path class="st8" d="M211.2,313.4v44.3c0,6.8-4.5,12.5-11.4,14.8c-6.8-2.3-11.4-7.9-11.4-14.8v-44.3c0-6.8,4.5-12.5,11.4-14.8
				C206.7,300.9,211.2,306.5,211.2,313.4z"/>
			<path class="st9" d="M436,313.4v44.3c0,6.8-4.5,12.5-11.4,14.8c-1.1,0-2.3,0-4.5,0h-5.7c-7.9,0-14.8-6.8-14.8-14.8v-44.3
				c0-7.9,6.8-14.8,14.8-14.8h5.7c1.1,0,2.3,0,4.5,0C431.5,300.9,436,306.5,436,313.4z"/>
			<path class="st8" d="M436,313.4v44.3c0,6.8-4.5,12.5-11.4,14.8c-6.8-2.3-11.4-7.9-11.4-14.8v-44.3c0-6.8,4.5-12.5,11.4-14.8
				C431.5,300.9,436,306.5,436,313.4z"/>
			<path class="st7" d="M391.7,384.9h4.5c6.8,0,12.5,5.7,12.5,12.5s-5.7,12.5-12.5,12.5h-4.5c-6.8,0-12.5-5.7-12.5-12.5
				S384.9,384.9,391.7,384.9z"/>
			<path class="st4" d="M188.5,388.3v-23.8c0-2.3,2.3-4.5,4.5-4.5c2.3,0,4.5,2.3,4.5,4.5v23.8c0,3.4,2.3,5.7,5.7,5.7h11.4
				c2.3,0,4.5,2.3,4.5,4.5c0,2.3-2.3,4.5-4.5,4.5h-11.4C195.3,403,188.5,396.2,188.5,388.3z"/>
			<path class="st5" d="M396.3,473.4L396.3,473.4l-181.7,1.1v-1.1c0-15.9,12.5-29.5,29.5-29.5h123.8
				C382.6,443.9,396.3,457.5,396.3,473.4z"/>
			<path class="st6" d="M396.3,473.4L396.3,473.4l-147.6,1.1v-1.1c0-15.9,12.5-29.5,29.5-29.5h89.7
				C382.6,443.9,396.3,457.5,396.3,473.4z"/>
		</g>
	</g>
	<path class="st10" d="M304.3,188.5c-90.8,0-164.6,73.8-164.6,164.6s73.8,164.6,164.6,164.6s164.6-73.8,164.6-164.6
		S395.1,188.5,304.3,188.5L304.3,188.5z M304.3,498.4c-79.5,0-145.3-64.7-145.3-145.3c0-35.2,13.6-69.3,36.3-95.4l204.4,204.4
		C372.4,484.8,339.5,498.4,304.3,498.4L304.3,498.4z M413.3,448.5L208.9,244.1c26.1-22.7,59-36.3,95.4-36.3
		c79.5,0,145.3,64.7,145.3,145.3C449.6,388.3,436,422.4,413.3,448.5L413.3,448.5z"/>
</g>
</svg>
