<?xml version="1.0" encoding="utf-8"?>
<!-- Generator: Adobe Illustrator 23.0.1, SVG Export Plug-In . SVG Version: 6.00 Build 0)  -->
<svg version="1.1" id="Слой_1" xmlns="http://www.w3.org/2000/svg" xmlns:xlink="http://www.w3.org/1999/xlink" x="0px" y="0px"
	 viewBox="0 0 23.4 23.4" style="enable-background:new 0 0 23.4 23.4;" xml:space="preserve">
<style type="text/css">
	.st0{fill:#FFFFFF;}
	.st1{fill:#E2ECF1;}
	.st2{fill:#B3D0D6;}
</style>
<g>
	<path class="st0" d="M23.4,11.7c0,6.4-5.2,11.7-11.7,11.7l0,0C5.3,23.4,0,18.2,0,11.7S5.3,0,11.7,0l0,0
		C18.2,0.1,23.4,5.3,23.4,11.7L23.4,11.7z"/>
	<path class="st1" d="M23.4,11.7c0,6.4-5.2,11.7-11.7,11.7V0C18.2,0.1,23.4,5.3,23.4,11.7L23.4,11.7z"/>
	<path class="st2" d="M16.9,9.6h-0.3V8.2c0-2.6-2.1-4.9-4.7-4.9c-0.1,0-0.2,0-0.3,0C9,3.3,6.9,5.6,6.9,8.2v1.4H6.6
		c-0.5,0-0.9,0.5-0.9,1.1v7.2c0,0.6,0.4,1.1,0.9,1.1h10.3c0.5,0,0.9-0.5,0.9-1.1v-7.2C17.8,10.1,17.4,9.6,16.9,9.6L16.9,9.6z
		 M12.7,14.3v2.2c0,0.2-0.2,0.5-0.5,0.5h-1c-0.2,0-0.5-0.2-0.5-0.5v-2.2c-0.2-0.2-0.3-0.6-0.3-0.9c0-0.7,0.5-1.3,1.2-1.3
		c0.1,0,0.2,0,0.3,0c0.7,0,1.2,0.6,1.2,1.3C13.1,13.7,12.9,14.1,12.7,14.3L12.7,14.3z M14.6,9.6H8.9V8.2c0-1.6,1.3-2.9,2.9-2.9
		s2.9,1.3,2.9,2.9v1.4H14.6z"/>
</g>
</svg>
