<?xml version="1.0" encoding="utf-8"?>
<!-- Generator: Adobe Illustrator 25.4.1, SVG Export Plug-In . SVG Version: 6.00 Build 0)  -->
<svg version="1.1" id="Слой_1" xmlns="http://www.w3.org/2000/svg" xmlns:xlink="http://www.w3.org/1999/xlink" x="0px" y="0px"
	 viewBox="0 0 18 18" style="enable-background:new 0 0 18 18;" xml:space="preserve">
<style type="text/css">
	.st0{fill:#8D8D8D;}
</style>
<path class="st0" d="M17.83,7.36H9.18v3.48h4.94c-0.1,0.53-0.3,1.01-0.58,1.45c-0.32,0.5-0.73,0.93-1.25,1.27
	c-0.82,0.54-1.87,0.86-3.11,0.86c-0.01,0-0.02,0-0.04,0c-1.73-0.01-3.26-0.85-4.24-2.13c-0.35-0.45-0.63-0.95-0.82-1.49
	c-0.01-0.03-0.03-0.06-0.04-0.09C3.86,10.17,3.76,9.59,3.76,9c0-0.59,0.1-1.17,0.29-1.71C4.06,7.26,4.07,7.23,4.08,7.2
	C4.28,6.66,4.56,6.16,4.9,5.71c0.98-1.27,2.51-2.12,4.24-2.13c0.01,0,0.02,0,0.04,0c1.35,0,2.56,0.45,3.51,1.35l2.61-2.56l0.02-0.02
	C13.74,0.89,11.66,0,9.18,0C9.17,0,9.16,0,9.15,0C5.57,0.02,2.48,2.03,0.98,4.96C0.85,5.2,0.75,5.45,0.64,5.71C0.24,6.73,0,7.84,0,9
	s0.24,2.27,0.64,3.29c0.1,0.26,0.21,0.51,0.33,0.75c0.71,1.39,1.79,2.56,3.1,3.43c1.45,0.95,3.19,1.52,5.07,1.53
	c0.01,0,0.02,0,0.04,0c2.48,0,4.56-0.81,6.08-2.18c1.03-0.93,1.8-2.13,2.26-3.53C17.83,11.34,18,10.31,18,9.2
	C18,8.57,17.94,7.95,17.83,7.36z"/>
</svg>
