<?xml version="1.0" encoding="utf-8"?>
<!-- Generator: Adobe Illustrator 23.0.0, SVG Export Plug-In . SVG Version: 6.00 Build 0)  -->
<svg version="1.1" id="Слой_1" xmlns="http://www.w3.org/2000/svg" xmlns:xlink="http://www.w3.org/1999/xlink" x="0px" y="0px"
	 viewBox="0 0 56.7 56.7" style="enable-background:new 0 0 56.7 56.7;" xml:space="preserve">
<style type="text/css">
	.st0{fill:#FFFFFF;}
	.st1{fill:#757575;}
</style>
<g>
	<path class="st0" d="M147.1,17c-0.8-0.8-1.7-1.1-2.7-1.1H143V8.1c0-4.9-1.8-9.2-5.3-12.7c-3.5-3.5-7.8-5.3-12.7-5.3
		c-4.9,0-9.2,1.8-12.7,5.3c-3.5,3.5-5.3,7.8-5.3,12.7v7.7h-1.3c-1.1,0-2,0.4-2.7,1.1c-0.8,0.8-1.1,1.7-1.1,2.7v23.2
		c0,1.1,0.4,2,1.1,2.7c0.8,0.8,1.7,1.1,2.7,1.1h38.7c1.1,0,2-0.4,2.7-1.1c0.8-0.8,1.1-1.7,1.1-2.7V19.7
		C148.2,18.6,147.8,17.7,147.1,17L147.1,17z M135.3,15.9h-20.6V8.1c0-2.8,1-5.3,3-7.3c2-2,4.4-3,7.3-3c2.8,0,5.3,1,7.3,3
		c2,2,3,4.4,3,7.3V15.9z M135.3,15.9"/>
</g>
<g>
	<g>
		<path class="st1" d="M20.7,31.3c0-0.7-0.6-1.3-1.3-1.3h-4.5c-0.7,0-1.3,0.6-1.3,1.3v4.5c0,0.7,0.6,1.3,1.3,1.3h4.5
			c0.7,0,1.3-0.6,1.3-1.3V31.3z M20.7,31.3"/>
		<path class="st1" d="M31.9,31.3c0-0.7-0.6-1.3-1.3-1.3h-4.5c-0.7,0-1.3,0.6-1.3,1.3v4.5c0,0.7,0.6,1.3,1.3,1.3h4.5
			c0.7,0,1.3-0.6,1.3-1.3V31.3z M31.9,31.3"/>
		<path class="st1" d="M43.1,31.3c0-0.7-0.6-1.3-1.3-1.3h-4.5c-0.7,0-1.3,0.6-1.3,1.3v4.5c0,0.7,0.6,1.3,1.3,1.3h4.5
			c0.7,0,1.3-0.6,1.3-1.3V31.3z M43.1,31.3"/>
		<path class="st1" d="M20.7,42.5c0-0.7-0.6-1.3-1.3-1.3h-4.5c-0.7,0-1.3,0.6-1.3,1.3V47c0,0.7,0.6,1.3,1.3,1.3h4.5
			c0.7,0,1.3-0.6,1.3-1.3V42.5z M20.7,42.5"/>
		<path class="st1" d="M31.9,42.5c0-0.7-0.6-1.3-1.3-1.3h-4.5c-0.7,0-1.3,0.6-1.3,1.3V47c0,0.7,0.6,1.3,1.3,1.3h4.5
			c0.7,0,1.3-0.6,1.3-1.3V42.5z M31.9,42.5"/>
		<g>
			<path class="st1" d="M43.1,42.5c0-0.7-0.6-1.3-1.3-1.3h-4.5c-0.7,0-1.3,0.6-1.3,1.3V47c0,0.7,0.6,1.3,1.3,1.3h4.5
				c0.7,0,1.3-0.6,1.3-1.3V42.5z M43.1,42.5"/>
			<path class="st1" d="M51.1,6.3v6.9c0,3.1-2.5,5.6-5.6,5.6H42c-3.1,0-5.6-2.5-5.6-5.6V6.3h-16v6.9c0,3.1-2.5,5.6-5.6,5.6h-3.5
				c-3.1,0-5.6-2.5-5.6-5.6V6.3c-2.7,0.1-4.9,2.3-4.9,5.1v40.2c0,2.8,2.3,5.1,5.1,5.1H51c2.8,0,5.1-2.3,5.1-5.1V11.4
				C56.1,8.6,53.8,6.4,51.1,6.3L51.1,6.3z M49.5,49.1c0,1.2-1,2.2-2.2,2.2h-38c-1.2,0-2.2-1-2.2-2.2V28.3c0-1.2,1-2.2,2.2-2.2h38
				c1.2,0,2.2,1,2.2,2.2V49.1z M49.5,49.1"/>
		</g>
		<path class="st1" d="M11.2,15.1h3.5c1.1,0,1.9-0.9,1.9-1.9V1.9c0-1.1-0.9-1.9-1.9-1.9h-3.5c-1.1,0-1.9,0.9-1.9,1.9v11.2
			C9.2,14.2,10.1,15.1,11.2,15.1L11.2,15.1z M11.2,15.1"/>
		<path class="st1" d="M41.9,15.1h3.5c1.1,0,1.9-0.9,1.9-1.9V1.9c0-1.1-0.9-1.9-1.9-1.9h-3.5C40.9,0,40,0.9,40,1.9v11.2
			C40,14.2,40.9,15.1,41.9,15.1L41.9,15.1z M41.9,15.1"/>
	</g>
</g>
</svg>
