<?xml version="1.0" encoding="utf-8"?>
<!-- Generator: Adobe Illustrator 23.0.0, SVG Export Plug-In . SVG Version: 6.00 Build 0)  -->
<svg version="1.1" id="Слой_1" xmlns="http://www.w3.org/2000/svg" xmlns:xlink="http://www.w3.org/1999/xlink" x="0px" y="0px"
	 viewBox="0 0 76.9 64.1" style="enable-background:new 0 0 76.9 64.1;" xml:space="preserve">
<style type="text/css">
	.st0{fill:#D1D4D1;}
	.st1{fill:#2B3E51;}
	.st2{fill:#E84C4F;}
	.st3{fill:#FBCB18;}
	.st4{fill:#5C95E9;}
	.st5{fill:#FFFFFF;}
	.st6{fill:#E1EBF0;}
	.st7{fill:#B2D0D6;}
</style>
<title>shield</title>
<desc>Created with Sketch.</desc>
<g>
	<rect x="13.5" y="19.1" class="st0" width="54" height="27"/>
	<g>
		<path class="st1" d="M68.6,47.2V18h-54V9c0-0.6-0.5-1.1-1.1-1.1H7.9C7.3,7.9,6.8,8.4,6.8,9c0,0.6,0.5,1.1,1.1,1.1h4.5V18v1.1v27
			v1.1V54c0,0.6,0.5,1.1,1.1,1.1h11.2h27h10.1c0.6,0,1.1-0.5,1.1-1.1c0-0.6-0.5-1.1-1.1-1.1H14.6v-5.6H68.6z M59.6,20.2h6.7V27h-6.7
			V20.2z M59.6,29.2h6.7V36h-6.7V29.2z M59.6,38.2h6.7V45h-6.7V38.2z M50.6,20.2h6.7V27h-6.7V20.2z M50.6,29.2h6.7V36h-6.7V29.2z
			 M50.6,38.2h6.7V45h-6.7V38.2z M41.6,20.2h6.7V27h-6.7V20.2z M41.6,29.2h6.7V36h-6.7V29.2z M41.6,38.2h6.7V45h-6.7V38.2z
			 M32.6,20.2h6.7V27h-6.7V20.2z M32.6,29.2h6.7V36h-6.7V29.2z M32.6,38.2h6.7V45h-6.7V38.2z M23.6,20.2h6.7V27h-6.7V20.2z
			 M23.6,29.2h6.7V36h-6.7V29.2z M23.6,38.2h6.7V45h-6.7V38.2z M14.6,20.2h6.7V27h-6.7V20.2z M14.6,29.2h6.7V36h-6.7V29.2z
			 M14.6,38.2h6.7V45h-6.7V38.2z"/>
		<path class="st1" d="M20.3,59.6c0,2.5,2,4.5,4.5,4.5c2.5,0,4.5-2,4.5-4.5c0-2.5-2-4.5-4.5-4.5C22.3,55.1,20.3,57.1,20.3,59.6z"/>
		<path class="st1" d="M47.2,59.6c0,2.5,2,4.5,4.5,4.5c2.5,0,4.5-2,4.5-4.5c0-2.5-2-4.5-4.5-4.5C49.3,55.1,47.2,57.1,47.2,59.6z"/>
	</g>
	<path class="st2" d="M10.1,9c0,1.9-1.5,3.4-3.4,3.4c-1.9,0-3.4-1.5-3.4-3.4c0-1.9,1.5-3.4,3.4-3.4C8.6,5.6,10.1,7.1,10.1,9L10.1,9z
		 M10.1,9"/>
	<rect x="19.1" y="9" class="st3" width="15.7" height="9"/>
	<rect x="34.9" y="0" class="st4" width="18" height="18"/>
	<rect x="52.9" y="3.4" class="st2" width="11.2" height="14.6"/>
</g>
<g>
	<g>
		<path class="st5" d="M25.6,51.2c0,7-5.7,12.8-12.7,12.8l0,0C5.7,64,0,58.3,0,51.2s5.7-12.8,12.8-12.8l0,0
			C19.9,38.4,25.6,44.2,25.6,51.2L25.6,51.2z"/>
		<path class="st6" d="M25.6,51.2c0,7-5.7,12.8-12.7,12.8V38.4C19.9,38.4,25.6,44.2,25.6,51.2L25.6,51.2z"/>
		<path class="st7" d="M18.5,48.9h-0.3v-1.6c0-2.9-2.3-5.3-5.2-5.4c-0.1,0-0.2,0-0.3,0c-2.9,0.1-5.2,2.5-5.2,5.4v1.6H7.2
			c-0.5,0-0.9,0.5-0.9,1.2v7.8c0,0.7,0.4,1.2,0.9,1.2h11.3c0.5,0,0.9-0.5,0.9-1.2v-7.8C19.4,49.5,19,48.9,18.5,48.9L18.5,48.9z
			 M13.9,54v2.4c0,0.3-0.2,0.5-0.5,0.5h-1.1c-0.3,0-0.5-0.2-0.5-0.5V54c-0.3-0.3-0.4-0.6-0.4-1c0-0.8,0.6-1.4,1.3-1.4
			c0.1,0,0.2,0,0.3,0c0.7,0,1.3,0.7,1.3,1.4C14.3,53.4,14.1,53.8,13.9,54L13.9,54z M15.9,48.9H9.7v-1.6c0-1.7,1.4-3.1,3.1-3.1
			s3.1,1.4,3.1,3.1V48.9z"/>
	</g>
</g>
</svg>
