<?xml version="1.0" encoding="utf-8"?>
<!-- Generator: Adobe Illustrator 23.0.1, SVG Export Plug-In . SVG Version: 6.00 Build 0)  -->
<svg version="1.1" id="Слой_1" xmlns="http://www.w3.org/2000/svg" xmlns:xlink="http://www.w3.org/1999/xlink" x="0px" y="0px"
	 viewBox="0 0 394 237.9" style="enable-background:new 0 0 394 237.9;" xml:space="preserve">
<style type="text/css">
	.st0{fill:#FFFFFF;}
</style>
<g>
	<g>
		<path class="st0" d="M215.5,138.7l60.3,22l35.1-20.3c2.7-1.6,4.3-4.6,4.1-7.8c-0.2-3.2-2.2-5.9-5.2-7.1L153.1,63
			c-3.1-1.2-6.6-0.5-8.9,1.8c-2.3,2.3-3.1,5.8-1.8,8.9l62.5,156.7c1.2,2.9,3.9,5,7.1,5.2c3.2,0.2,6.2-1.4,7.8-4.1l20.3-35.1
			L215.5,138.7 M320.7,214.7"/>
	</g>
	<path class="st0" d="M116.1,26.8c-3.2-3.2-8.5-3.2-11.7,0c-3.2,3.2-3.2,8.5,0,11.7l18.4,18.4c1.6,1.6,3.7,2.4,5.9,2.4
		c2.1,0,4.2-0.8,5.9-2.4c3.2-3.2,3.2-8.5,0-11.7L116.1,26.8z M116.1,26.8"/>
	<path class="st0" d="M122.3,84c0-4.6-3.7-8.3-8.3-8.3H88c-4.6,0-8.3,3.7-8.3,8.3c0,4.6,3.7,8.3,8.3,8.3h26
		C118.6,92.3,122.3,88.6,122.3,84L122.3,84z M122.3,84"/>
	<path class="st0" d="M119,109.6L100.6,128c-3.2,3.2-3.2,8.5,0,11.7c1.6,1.6,3.7,2.4,5.9,2.4c2.1,0,4.2-0.8,5.9-2.4l18.4-18.4
		c3.2-3.2,3.2-8.5,0-11.7C127.4,106.3,122.2,106.3,119,109.6L119,109.6z M119,109.6"/>
	<path class="st0" d="M161.6,44.7c4.6,0,8.3-3.7,8.3-8.3v-26c0-4.6-3.7-8.3-8.3-8.3c-4.6,0-8.3,3.7-8.3,8.3v26
		C153.3,41,157,44.7,161.6,44.7L161.6,44.7z M161.6,44.7"/>
	<path class="st0" d="M193,55.5c2.1,0,4.2-0.8,5.9-2.4l18.4-18.4c3.2-3.2,3.2-8.5,0-11.7c-3.2-3.2-8.5-3.2-11.7,0l-18.4,18.4
		c-3.2,3.2-3.2,8.5,0,11.7C188.8,54.7,190.9,55.5,193,55.5L193,55.5z M193,55.5"/>
</g>
</svg>
