<?xml version="1.0" encoding="utf-8"?>
<!-- Generator: Adobe Illustrator 23.0.1, SVG Export Plug-In . SVG Version: 6.00 Build 0)  -->
<svg version="1.1" id="Слой_1" xmlns="http://www.w3.org/2000/svg" xmlns:xlink="http://www.w3.org/1999/xlink" x="0px" y="0px"
	 viewBox="0 0 57.1 17" style="enable-background:new 0 0 57.1 17;" xml:space="preserve">
<style type="text/css">
	.st0{fill:#555555;}
	.st1{fill:#FFFFFF;}
</style>
<path class="st0" d="M51.4,5.5L35,0.1c-0.2-0.1-0.3,0-0.4,0.1s-0.1,0.3-0.1,0.4l8.1,16c0.1,0.2,0.2,0.2,0.4,0.2
	c0.2,0,0.3-0.1,0.3-0.3l1.1-5l4.1,3.2c0.1,0.1,0.3,0.1,0.4,0c0,0,0.1-0.1,0.1-0.1l2-2.4c0.1-0.1,0.1-0.2,0.1-0.3
	c0-0.1-0.1-0.2-0.2-0.3L47,8.6l4.5-2.3c0.1-0.1,0.2-0.2,0.2-0.4C51.7,5.7,51.6,5.6,51.4,5.5z"/>
<path class="st1" d="M23.4,5.5L6.9,0.1c-0.2-0.1-0.3,0-0.4,0.1S6.4,0.5,6.4,0.7l8.1,16c0.1,0.2,0.2,0.2,0.4,0.2
	c0.2,0,0.3-0.1,0.3-0.3l1.1-5l4.1,3.2c0.1,0.1,0.3,0.1,0.4,0c0,0,0.1-0.1,0.1-0.1l2-2.4c0.1-0.1,0.1-0.2,0.1-0.3
	c0-0.1-0.1-0.2-0.2-0.3l-4.1-3.2l4.5-2.3c0.1-0.1,0.2-0.2,0.2-0.4C23.6,5.7,23.5,5.6,23.4,5.5z"/>
</svg>
