<?xml version="1.0" encoding="utf-8"?>
<!-- Generator: Adobe Illustrator 23.0.0, SVG Export Plug-In . SVG Version: 6.00 Build 0)  -->
<svg version="1.1" id="Слой_1" xmlns="http://www.w3.org/2000/svg" xmlns:xlink="http://www.w3.org/1999/xlink" x="0px" y="0px"
	 viewBox="0 0 52.5 35" style="enable-background:new 0 0 52.5 35;" xml:space="preserve">
<style type="text/css">
	.st0{fill-rule:evenodd;clip-rule:evenodd;fill:#454545;}
</style>
<g>
	<g>
		<path class="st0" d="M30.4,17.5L43,5.1c1.2-1.1,1.2-3,0-4.1c-1.2-1.1-3-1.1-4.2,0L26.2,13.4L13.7,0.9c-1.2-1.1-3-1.1-4.2,0
			c-1.2,1.1-1.2,3,0,4.1l12.6,12.4L9.5,29.9c-1.2,1.1-1.2,3,0,4.1c1.2,1.1,3,1.1,4.2,0l12.6-12.4l12.6,12.4c1.2,1.1,3,1.1,4.2,0
			c1.2-1.1,1.2-3,0-4.1L30.4,17.5z M30.4,17.5"/>
	</g>
</g>
</svg>
