<svg width="17" height="17" viewBox="0 0 17 17" fill="none" xmlns="http://www.w3.org/2000/svg">
<path fill-rule="evenodd" clip-rule="evenodd" d="M9.32002 0.955824C8.95959 0.499426 8.26747 0.499426 7.90703 0.955823L6.60165 2.60875C6.40787 2.85413 6.10065 2.98138 5.79012 2.9449L3.69828 2.69915C3.12069 2.63129 2.63129 3.12069 2.69915 3.69828L2.9449 5.79012C2.98138 6.10065 2.85413 6.40787 2.60875 6.60165L0.955824 7.90703C0.499426 8.26746 0.499426 8.95959 0.955823 9.32002L2.60875 10.6254C2.85413 10.8192 2.98138 11.1264 2.9449 11.4369L2.69915 13.5288C2.63129 14.1064 3.12069 14.5958 3.69828 14.5279L5.79012 14.2821C6.10065 14.2457 6.40787 14.3729 6.60165 14.6183L7.90703 16.2712C8.26746 16.7276 8.95959 16.7276 9.32002 16.2712L10.6254 14.6183C10.8192 14.3729 11.1264 14.2457 11.4369 14.2821L13.5288 14.5279C14.1064 14.5958 14.5958 14.1064 14.5279 13.5288L14.2821 11.4369C14.2457 11.1264 14.3729 10.8192 14.6183 10.6254L16.2712 9.32002C16.7276 8.95959 16.7276 8.26747 16.2712 7.90703L14.6183 6.60165C14.3729 6.40787 14.2457 6.10065 14.2821 5.79012L14.5279 3.69828C14.5958 3.12069 14.1064 2.63129 13.5288 2.69915L11.4369 2.9449C11.1264 2.98138 10.8192 2.85413 10.6254 2.60875L9.32002 0.955824ZM7.57046 9.92071L11.5784 5.72675L12.6646 6.81297L7.57046 12.0931L4.56244 9.48723L5.64864 8.40104L7.57046 9.92071Z" fill="white"/>
</svg>
