<?xml version="1.0" encoding="utf-8"?>
<!-- Generator: Adobe Illustrator 23.0.1, SVG Export Plug-In . SVG Version: 6.00 Build 0)  -->
<svg version="1.1" id="Слой_1" xmlns="http://www.w3.org/2000/svg" xmlns:xlink="http://www.w3.org/1999/xlink" x="0px" y="0px"
	 viewBox="0 0 16 16" style="enable-background:new 0 0 16 16;" xml:space="preserve">
<style type="text/css">
	.st0{fill:#FCFCFC;}
</style>
<path class="st0" d="M9.7,16h-6c-1.4,0-2.5-1.1-2.5-2.5V5c0-1.4,1.1-2.5,2.5-2.5h6c1.4,0,2.5,1.1,2.5,2.5v8.5
	C12.2,14.9,11.1,16,9.7,16z M3.8,3.8C3.1,3.8,2.5,4.3,2.5,5v8.5c0,0.7,0.6,1.3,1.3,1.3h6c0.7,0,1.3-0.6,1.3-1.3V5
	c0-0.7-0.6-1.3-1.3-1.3H3.8z M14.7,11.9V2.5c0-1.4-1.1-2.5-2.5-2.5H5.3C5,0,4.7,0.3,4.7,0.6S5,1.3,5.3,1.3h6.9
	c0.7,0,1.3,0.6,1.3,1.3v9.4c0,0.3,0.3,0.6,0.6,0.6S14.7,12.3,14.7,11.9z"/>
</svg>
