<?xml version="1.0" encoding="utf-8"?>
<!-- Generator: Adobe Illustrator 23.0.1, SVG Export Plug-In . SVG Version: 6.00 Build 0)  -->
<svg version="1.1" id="svg-icon-cpmBannerTypeShape"
	 xmlns="http://www.w3.org/2000/svg" xmlns:xlink="http://www.w3.org/1999/xlink" x="0px" y="0px" viewBox="0 0 16 16"
	 style="enable-background:new 0 0 16 16;" xml:space="preserve">
<style type="text/css">
	.st0{fill-rule:evenodd;clip-rule:evenodd;fill:#666666;}
</style>
<g>
	<path class="st0" d="M8,3C2,3,0,8,0,8s2,5,8,5s8-5,8-5S14,3,8,3 M8,5c3.3,0,5,1.9,5.7,3C13,9.1,11.3,11,8,11c-3.3,0-5-1.9-5.7-3
		C3,6.9,4.7,5,8,5"/>
	<path class="st0" d="M8,6C6.9,6,6,6.9,6,8s0.9,2,2,2s2-0.9,2-2C10,6.9,9.1,6,8,6"/>
</g>
</svg>
