<?xml version="1.0" encoding="utf-8"?>
<!-- Generator: Adobe Illustrator 23.0.0, SVG Export Plug-In . SVG Version: 6.00 Build 0)  -->
<svg version="1.1" id="Слой_1" xmlns="http://www.w3.org/2000/svg" xmlns:xlink="http://www.w3.org/1999/xlink" x="0px" y="0px"
	 viewBox="0 0 76.9 64.1" style="enable-background:new 0 0 76.9 64.1;" xml:space="preserve">
<style type="text/css">
	.st0{fill:#E84C4F;}
	.st1{fill:#FFFFFF;}
	.st2{fill:#E1EBF0;}
	.st3{fill:#B2D0D6;}
</style>
<title>shield</title>
<desc>Created with Sketch.</desc>
<g>
	<path class="st0" d="M44.4,15l1-2.2h-1.7c-0.4,0-0.7-0.3-0.7-0.7v-1.6l-2.2,1v1.8l0,0l1.8,1.7H44.4z"/>
	<path class="st0" d="M38.9,0.8c-17.3,0-31.2,13.8-31.3,31c0,17.4,13.8,31.4,31.1,31.4C56,63.2,70,49.4,70,32.2
		C70.1,14.8,56.3,0.9,38.9,0.8z M45.1,19.8c-0.4,0-0.7-0.3-0.7-0.7s0.3-0.7,0.7-0.7h1.3c0.4,0,0.7,0.3,0.7,0.7s-0.3,0.7-0.7,0.7
		H45.1z M45.5,23.5c-0.1,0.1-0.3,0.2-0.5,0.2s-0.3-0.1-0.5-0.2l-0.9-0.9c-0.3-0.3-0.3-0.7,0-0.9c0.3-0.3,0.7-0.3,0.9,0l0.9,0.9
		C45.8,22.8,45.8,23.2,45.5,23.5z M36.1,9.5c0-0.4,0.3-0.7,0.7-0.7s0.7,0.3,0.7,0.7v1.3c0,0.4-0.3,0.7-0.7,0.7s-0.7-0.3-0.7-0.7V9.5
		z M32.4,10.4c0.3-0.3,0.7-0.3,0.9,0l0.9,0.9c0.3,0.3,0.3,0.7,0,0.9c-0.1,0.1-0.3,0.2-0.5,0.2s-0.3-0.1-0.5-0.2l-0.9-0.9
		C32.2,11.1,32.2,10.7,32.4,10.4z M31,13.7h1.3c0.4,0,0.7,0.3,0.7,0.7S32.7,15,32.4,15H31c-0.4,0-0.7-0.3-0.7-0.7S30.7,13.7,31,13.7
		z M30.4,20.1c0-0.9,0.4-1.8,1-2.4l0,0c1.4-1.4,4.1-2.7,7-4c0.4-0.2,0.8-0.3,1.1-0.5v-2.1c0-0.3,0.1-0.5,0.4-0.6l3.5-1.6
		c0.2-0.1,0.4-0.1,0.6,0c0.2,0.1,0.3,0.3,0.3,0.5v2.1h2.1c0.2,0,0.4,0.1,0.5,0.3c0.1,0.2,0.1,0.4,0,0.6L45.4,16
		c-0.1,0.2-0.3,0.4-0.6,0.4h-2.5c-0.2,0-0.4-0.1-0.5-0.3l-1.7-1.6c-0.4,0.2-0.8,0.4-1.2,0.5c-2.6,1.2-5.3,2.4-6.6,3.7
		c-0.4,0.4-0.6,0.9-0.6,1.5V23c0,0.7,0.6,1.3,1.3,1.3h2.8c0.3,0,0.5-0.1,0.8-0.2l-3.4-3.4c-0.3-0.3-0.3-0.7,0-0.9
		c0.3-0.3,0.7-0.3,0.9,0l3.5,3.5c1-1.1,1.8-2.9,2.7-4.7c0.1-0.2,0.1-0.3,0.2-0.5c0.1-0.3,0.5-0.5,0.9-0.3c0.3,0.1,0.5,0.5,0.3,0.9
		c-0.1,0.2-0.1,0.3-0.2,0.5c-1.1,2.5-2.1,4.4-3.3,5.5c-0.6,0.6-1.5,1-2.4,1H33c-1.4,0-2.6-1.2-2.6-2.6V20.1z M42.2,23.6v1.3
		c0,0.4-0.3,0.7-0.7,0.7s-0.7-0.3-0.7-0.7v-1.3c0-0.4,0.3-0.7,0.7-0.7C42,22.9,42.2,23.2,42.2,23.6z M26.4,42.3
		c-0.1,2.2-1.7,4-3.9,4.1c-1.6,0.1-3.2,0-4.8,0c-0.7,0-1-0.3-1-1c0-4.9,0-9.8,0.1-14.7c0-0.3,0.6-0.9,0.9-0.9c1.6-0.1,3.3-0.1,4.9,0
		c2.1,0.1,3.7,1.8,3.8,3.9c0.1,1.5,0,2.9,0,4.4l0,0C26.4,39.5,26.4,40.9,26.4,42.3z M38.6,42.6c-0.1,2.1-1.8,3.8-3.9,3.9
		c-1.6,0.1-3.1,0-4.7,0c-1,0-1.2-0.5-1.2-1.3c0-1.2,0-2.4,0-3.6c0-1.2,0-2.3,0-3.5l0,0c0-2.4,0-4.7,0-7.1c0-0.9,0.4-1.3,1.3-1.2
		c1.5,0,2.9,0,4.4,0c2.2,0.1,4,1.6,4.1,3.8C38.8,36.6,38.8,39.6,38.6,42.6z M49.2,43c-0.2,2.3-1.8,3.7-4.1,3.7
		c-2.5,0-4.2-1.2-4.4-3.5c-0.2-1.9-0.2-3.7,0-5.6c0.2-2.3,1.8-3.6,4.3-3.6c2.4,0,3.9,1.4,4.1,3.6c0.1,0.9,0,1.8,0,2.7l0,0
		C49.3,41.3,49.3,42.2,49.2,43z M57.2,46.7c-2.6,0.4-4.7-0.5-5.7-2.4c-0.1-0.2-0.2-0.4-0.3-0.6c-0.6-1.9-0.2-2.5,2-2.5
		c0.1,0.3,0.1,0.6,0.1,0.8c0.2,1.6,0.9,2.3,2.3,2.5c1.5,0.1,2.6-0.4,2.9-1.5c0.4-1.4-0.1-2.6-1.5-3.3c-1-0.5-2.2-0.9-3.2-1.4
		c-2.2-1.1-3.1-3.2-2.4-5.6c0.6-2.1,2.6-3.3,5.4-3.1c2.2,0.1,3.8,1.7,4.1,3.9c0.2,1-0.3,1.3-1.2,1.5s-1.2-0.2-1.2-1.1
		c-0.1-1.3-0.8-1.9-2.1-2c-1.4-0.1-2.5,0.4-2.8,1.5c-0.4,1.2,0.1,2.2,1.3,2.9c1.1,0.6,2.3,1,3.4,1.5c2.1,1.1,3,3,2.6,5.3
		C60.7,44.9,59.2,46.4,57.2,46.7z"/>
	<path class="st0" d="M34.2,32c-0.6,0-1.2,0-1.7,0c-0.9-0.1-1.3,0.4-1.3,1.3c0,1.6,0,3.2,0,4.8c0,1.1,0,2.2,0,3.3c0,3,0,3,3,2.8
		c1.3-0.1,2.1-0.8,2.2-2.1c0.1-2.7,0.1-5.3,0-8C36.3,32.8,35.5,32.1,34.2,32z"/>
	<path class="st0" d="M22,32c-0.6,0-1.2,0-1.7,0c-1-0.1-1.3,0.4-1.3,1.4c0,1.6,0,3.1,0,4.7l0,0c0,1.1,0,2.2,0,3.3
		c0,3,0.1,3.1,3.1,2.8c1.2-0.1,2-0.8,2-2c0.1-2.7,0.1-5.3,0-8C24,32.8,23.3,32.1,22,32z"/>
	<path class="st0" d="M46.9,38c0-1.3-0.7-1.7-1.9-1.7s-1.9,0.5-1.9,1.7c0,1.6,0,3.1,0,4.7c0,1.4,0.6,1.8,1.9,1.8
		c1.3,0,1.8-0.5,1.9-1.8c0-0.7,0-1.4,0-2.1C46.9,39.7,46.9,38.8,46.9,38z"/>
</g>
<g>
	<g>
		<path class="st1" d="M25.6,51.2c0,7-5.7,12.8-12.7,12.8l0,0C5.7,64,0,58.3,0,51.2s5.7-12.8,12.8-12.8l0,0
			C19.9,38.4,25.6,44.2,25.6,51.2L25.6,51.2z"/>
		<path class="st2" d="M25.6,51.2c0,7-5.7,12.8-12.7,12.8V38.4C19.9,38.4,25.6,44.2,25.6,51.2L25.6,51.2z"/>
		<path class="st3" d="M18.5,48.9h-0.3v-1.6c0-2.9-2.3-5.3-5.2-5.4c-0.1,0-0.2,0-0.3,0c-2.9,0.1-5.2,2.5-5.2,5.4v1.6H7.2
			c-0.5,0-0.9,0.5-0.9,1.2v7.8c0,0.7,0.4,1.2,0.9,1.2h11.3c0.5,0,0.9-0.5,0.9-1.2v-7.8C19.4,49.5,19,48.9,18.5,48.9L18.5,48.9z
			 M13.9,54v2.4c0,0.3-0.2,0.5-0.5,0.5h-1.1c-0.3,0-0.5-0.2-0.5-0.5V54c-0.3-0.3-0.4-0.6-0.4-1c0-0.8,0.6-1.4,1.3-1.4
			c0.1,0,0.2,0,0.3,0c0.7,0,1.3,0.7,1.3,1.4C14.3,53.4,14.1,53.8,13.9,54L13.9,54z M15.9,48.9H9.7v-1.6c0-1.7,1.4-3.1,3.1-3.1
			s3.1,1.4,3.1,3.1V48.9z"/>
	</g>
</g>
</svg>
