<?xml version="1.0" encoding="utf-8"?>
<!-- Generator: Adobe Illustrator 23.0.1, SVG Export Plug-In . SVG Version: 6.00 Build 0)  -->
<svg version="1.1" id="svg-icon-dynamicTypeShape" xmlns="http://www.w3.org/2000/svg" xmlns:xlink="http://www.w3.org/1999/xlink"
	 x="0px" y="0px" viewBox="0 0 16 16" style="enable-background:new 0 0 16 16;" xml:space="preserve">
<style type="text/css">
	.st0{fill-rule:evenodd;clip-rule:evenodd;fill:#666666;}
</style>
<g>
	<path class="st0" d="M2,1v6l2-0.9V1H2z M2,15h2V9.9L2,9V15z M12,1v5.1L14,7V1H12z M12,9.9V15h2V9L12,9.9z"/>
	<path class="st0" d="M10,3h4V1h-4V3z M2,3h4V1H2V3z M10,15h4v-2h-4V15z M2,15h4v-2H2V15z M0,7v2l4-2.4v-2L0,7z M12,6.6L16,9V7
		l-4-2.4V6.6z"/>
	<path class="st0" d="M12,9.4v2L16,9V7L12,9.4z M0,9l4,2.4v-2L0,7V9z"/>
</g>
</svg>
