<?xml version="1.0" encoding="utf-8"?>
<!-- Generator: Adobe Illustrator 24.0.0, SVG Export Plug-In . SVG Version: 6.00 Build 0)  -->
<svg version="1.1" id="Слой_1" xmlns="http://www.w3.org/2000/svg" xmlns:xlink="http://www.w3.org/1999/xlink" x="0px" y="0px"
	 viewBox="0 0 23 23" style="enable-background:new 0 0 23 23;" xml:space="preserve">
<style type="text/css">
	.st0{fill:#333333;}
</style>
<g>
	<g id="settings">
		<path class="st0" d="M20,12.7c0-0.3,0.1-0.7,0.1-1.2c0-0.5,0-0.8-0.1-1.2l2.4-2c0.2-0.2,0.2-0.5,0.1-0.7l-2.3-4
			c-0.1-0.1-0.3-0.2-0.7-0.1l-2.9,1.2c-0.6-0.5-1.3-0.8-2-1.2l-0.5-3C14.3,0.2,14,0,13.7,0H9.1C8.9,0,8.5,0.2,8.5,0.5L8.1,3.6
			c-0.7,0.2-1.3,0.7-2,1.2L3.3,3.6C3,3.5,2.8,3.6,2.5,3.8l-2.3,4C0.1,8,0.2,8.3,0.4,8.6l2.4,1.8c0,0.3-0.1,0.7-0.1,1.2
			c0,0.5,0,0.8,0.1,1.2l-2.4,2c-0.2,0.2-0.2,0.5-0.1,0.7l2.3,4c0.1,0.1,0.3,0.2,0.7,0.1l2.9-1.2c0.6,0.5,1.3,0.8,2,1.2l0.5,3
			c0,0.2,0.2,0.5,0.6,0.5h4.6c0.2,0,0.6-0.2,0.6-0.5l0.5-3c0.7-0.3,1.4-0.7,2-1.2l2.9,1.2c0.2,0.1,0.6,0,0.7-0.2l2.3-4
			c0.1-0.2,0.1-0.6-0.1-0.7L20,12.7z M11.4,15.6c-2.2,0-4-1.8-4-4s1.8-4,4-4s4,1.8,4,4S13.6,15.6,11.4,15.6z"/>
	</g>
</g>
</svg>
