<?xml version="1.0" encoding="utf-8"?>
<!-- Generator: Adobe Illustrator 23.0.1, SVG Export Plug-In . SVG Version: 6.00 Build 0)  -->
<svg version="1.1" id="Capa_1" xmlns="http://www.w3.org/2000/svg" xmlns:xlink="http://www.w3.org/1999/xlink" x="0px" y="0px"
	 viewBox="0 0 24 36.1" style="enable-background:new 0 0 24 36.1;" xml:space="preserve">
<style type="text/css">
	.st0{fill:#6695E2;}
	.st1{fill:#27C58B;}
</style>
<path class="st0" d="M21.7,0H2.3C1,0,0,1,0,2.3v13.5C0,17,1,18,2.3,18h19.5c1.2,0,2.3-1,2.3-2.3V2.3C24,1,23,0,21.7,0z M21.7,1.5
	c0.1,0,0.2,0,0.3,0.1l-10,8.7L2,1.6c0.1,0,0.2-0.1,0.3-0.1L21.7,1.5z M21.7,16.5H2.3c-0.4,0-0.8-0.3-0.8-0.8V3.1l10,8.7
	c0.1,0.1,0.3,0.2,0.5,0.2c0.2,0,0.4-0.1,0.5-0.2l10-8.7v12.6C22.5,16.2,22.2,16.5,21.7,16.5z"/>
<path class="st1" d="M21.7,18H2.3C1,18,0,19,0,20.3v13.5C0,35,1,36,2.3,36h19.5c1.2,0,2.3-1,2.3-2.3V20.3C24,19,23,18,21.7,18z
	 M21.7,19.5c0.1,0,0.2,0,0.3,0.1l-10,8.7L2,19.6c0.1,0,0.2-0.1,0.3-0.1L21.7,19.5z M21.7,34.5H2.3c-0.4,0-0.8-0.3-0.8-0.8V21.1
	l10,8.7c0.1,0.1,0.3,0.2,0.5,0.2c0.2,0,0.4-0.1,0.5-0.2l10-8.7v12.6C22.5,34.2,22.2,34.5,21.7,34.5z"/>
</svg>
