<svg width="64" height="64" viewBox="0 0 64 64" fill="none" xmlns="http://www.w3.org/2000/svg">
<g clip-path="url(#clip0)">
<path d="M54.1286 63.9999H10.0956C6.63703 63.9994 3.42505 62.2087 1.60606 59.2663C-0.212441 56.3243 -0.378158 52.6502 1.16788 49.5562L23.1824 5.5213C24.8722 2.13775 28.3299 0 32.1121 0C35.8944 0 39.352 2.13775 41.0418 5.5213L63.0563 49.5562C64.6024 52.6502 64.4367 56.3243 62.6182 59.2663C60.7997 62.2087 57.5872 63.9994 54.1286 63.9999Z" fill="#E26565"/>
<path d="M32.1121 15.9966C33.2146 15.9966 34.1085 16.8905 34.1085 17.993V41.9498C34.1085 43.0523 33.2146 43.9462 32.1121 43.9462C31.0096 43.9462 30.1157 43.0523 30.1157 41.9498V17.993C30.1157 16.8905 31.0096 15.9966 32.1121 15.9966Z" fill="white"/>
<path d="M30.1157 47.939H34.1085V51.9318H30.1157V47.939Z" fill="white"/>
</g>
<defs>
<clipPath id="clip0">
<rect width="64" height="64" fill="white"/>
</clipPath>
</defs>
</svg>
