<?xml version="1.0" encoding="utf-8"?>
<!-- Generator: Adobe Illustrator 23.0.1, SVG Export Plug-In . SVG Version: 6.00 Build 0)  -->
<svg version="1.1" id="Слой_1" xmlns="http://www.w3.org/2000/svg" xmlns:xlink="http://www.w3.org/1999/xlink" x="0px" y="0px"
	 viewBox="0 0 57.1 17" style="enable-background:new 0 0 57.1 17;" xml:space="preserve">
<style type="text/css">
	.st0{fill:#FFFFFF;}
	.st1{fill:#455A64;}
</style>
<g>
	<g>
		<path class="st0" d="M14.5,0C9,0,4.1,3,0.5,7.8c-0.3,0.4-0.3,0.9,0,1.3c3.6,4.8,8.5,7.8,14,7.8s10.3-3,14-7.8
			c0.3-0.4,0.3-0.9,0-1.3C24.8,3,19.9,0,14.5,0L14.5,0z M14.9,14.4c-3.6,0.2-6.6-2.7-6.3-6.3c0.2-3,2.6-5.4,5.6-5.6
			c3.6-0.2,6.6,2.7,6.3,6.3C20.2,11.8,17.8,14.2,14.9,14.4L14.9,14.4z M14.7,11.6c-1.9,0.1-3.5-1.5-3.4-3.4c0.1-1.6,1.4-2.9,3-3
			c1.9-0.1,3.5,1.5,3.4,3.4C17.6,10.2,16.3,11.5,14.7,11.6L14.7,11.6z"/>
	</g>
</g>
<g>
	<g>
		<path class="st1" d="M42.8,0c-5.4,0-10.3,3-13.9,7.8c-0.3,0.4-0.3,0.9,0,1.3c3.6,4.8,8.5,7.8,14,7.8s10.3-3,14-7.8
			c0.3-0.4,0.3-0.9,0-1.3C53.1,2.9,48.2,0,42.8,0L42.8,0z M43.2,14.4c-3.6,0.2-6.6-2.7-6.3-6.3c0.2-3,2.6-5.4,5.6-5.6
			C46,2.3,49,5.2,48.8,8.8C48.6,11.8,46.2,14.2,43.2,14.4L43.2,14.4z M43,11.6c-1.9,0.1-3.5-1.5-3.4-3.4c0.1-1.6,1.4-2.9,3-3
			c1.9-0.1,3.5,1.5,3.4,3.4C45.9,10.2,44.6,11.5,43,11.6L43,11.6z"/>
	</g>
</g>
</svg>
