<?xml version="1.0" encoding="utf-8"?>
<!-- Generator: Adobe Illustrator 23.0.1, SVG Export Plug-In . SVG Version: 6.00 Build 0)  -->
<svg version="1.1" id="Слой_1" xmlns="http://www.w3.org/2000/svg" xmlns:xlink="http://www.w3.org/1999/xlink" x="0px" y="0px"
	 viewBox="0 0 56.7 56.6" style="enable-background:new 0 0 56.7 56.6;" xml:space="preserve">
<style type="text/css">
	.st0{fill:#767676;}
</style>
<g>
	<path class="st0" d="M28.4,0c8.5,0,17.1,0,25.6,0c1.5,0,2.4,0.7,2.7,2.1c0.2,0.9-0.1,1.6-0.7,2.2c-2.5,2.5-4.9,4.9-7.4,7.4
		c-4.1,4.1-8.1,8.1-12.2,12.2c-0.2,0.2-0.3,0.4-0.3,0.7c0,9.8,0,19.6,0,29.4c0,1.6-1.1,2.7-2.7,2.6c-0.7,0-1.2-0.3-1.7-0.8
		c-1.9-2-3.9-3.9-5.8-5.8c-1.4-1.4-2.8-2.8-4.3-4.2c-0.6-0.6-0.9-1.3-0.9-2.2c0-6.3,0-12.6,0-18.9c0-0.2-0.1-0.4-0.2-0.6
		c-6.5-6.5-13-13-19.6-19.5C0,3.5-0.2,2.7,0.2,1.6C0.7,0.5,1.5,0,2.7,0C11.2,0,19.8,0,28.4,0z"/>
</g>
</svg>
