<svg width="20" height="21" viewBox="0 0 20 21" fill="none" xmlns="http://www.w3.org/2000/svg">
<path d="M19.4049 12.1124C20.8518 5.61053 15.1558 -0.2961 8.46658 0.837773C4.83519 -1.41582 0 1.13081 0 5.45152C0 6.45635 0.277224 7.39708 0.759245 8.20794C-0.585251 14.7248 5.15737 20.5465 11.8407 19.3352C16.5652 21.8336 21.7858 16.851 19.4049 12.1124V12.1124ZM13.0462 16.0335C11.2913 16.7553 8.40331 16.7594 6.65588 15.8445C4.16419 14.5158 3.7213 11.5246 5.87083 11.5246C7.49088 11.5246 6.97806 13.4136 8.61393 14.1837C9.36485 14.5308 10.9791 14.5666 11.9173 13.9339C12.8439 13.3137 12.759 12.338 12.2553 11.8718C10.9208 10.6397 7.1021 11.1292 5.35634 8.97218C4.59793 8.03645 4.45474 6.38559 5.38714 5.18845C7.01219 3.09719 11.7808 2.96982 13.8312 4.54908C15.7244 6.01429 15.2132 7.95902 13.6856 7.95902C11.8482 7.95902 12.8139 5.55475 9.84771 5.55475C7.69735 5.55475 6.85152 7.08406 8.36585 7.82832C10.4188 8.84814 15.6503 8.50765 15.6503 12.4928C15.6461 14.1512 14.6296 15.3875 13.0462 16.0335V16.0335Z" fill="#455A64"/>
</svg>
