<svg width="16" height="16" viewBox="0 0 16 16" fill="none" xmlns="http://www.w3.org/2000/svg">
<g clip-path="url(#clip0_7508_677)">
<path d="M1.34991 14.8986L1.29991 14.8486C0.0999116 14.0986 -0.350088 12.5486 0.349912 11.3486L5.69991 1.99864C6.44991 0.798642 7.99991 0.348642 9.19991 1.04864L9.24991 1.09864C10.4499 1.84864 10.8999 3.39864 10.1999 4.59864L4.84991 13.9986C4.14991 15.1986 2.54991 15.6486 1.34991 14.8986Z" fill="#FBBC04"/>
<path d="M14.6999 14.8996L14.6499 14.9996C13.4499 15.7496 11.7999 15.2996 11.1499 14.0496L5.69992 4.5996C4.94992 3.3996 5.39992 1.7996 6.59992 1.0996L6.69992 0.999602C7.89992 0.249602 9.54992 0.699602 10.1999 1.9496L15.5999 11.3496C16.3999 12.5996 15.9499 14.1996 14.6999 14.8996Z" fill="#4385F5"/>
<path d="M1.34991 14.8994L1.29991 14.8494C0.0999116 14.0994 -0.350088 12.5494 0.349912 11.3494L0.399912 11.2994C1.14991 10.0994 2.69991 9.64942 3.89991 10.3494L3.94991 10.3994C5.14991 11.1494 5.59991 12.6994 4.89991 13.8994L4.84991 13.9994C4.14991 15.1994 2.54991 15.6494 1.34991 14.8994Z" fill="#34A853"/>
</g>
<defs>
<clipPath id="clip0_7508_677">
<rect width="16" height="16" fill="white"/>
</clipPath>
</defs>
</svg>
