<?xml version="1.0" encoding="utf-8"?>
<!-- Generator: Adobe Illustrator 24.0.0, SVG Export Plug-In . SVG Version: 6.00 Build 0)  -->
<svg version="1.1" id="Capa_1" xmlns="http://www.w3.org/2000/svg" xmlns:xlink="http://www.w3.org/1999/xlink" x="0px" y="0px"
	 viewBox="0 0 512 512" style="enable-background:new 0 0 512 512;" xml:space="preserve">
<style type="text/css">
	.st0{fill:#455A64;}
</style>
<g>
	<path class="st0" d="M510.3,490l-45-86.5c30.4-42.9,46.7-93.9,46.7-147.5c0-141.5-114.5-256-256-256C114.5,0,0,114.5,0,256
		c0,50,14.3,98.1,41.5,139.7L1.2,491.1C-4,503.4,8.4,516,20.9,510.7l95.4-40.3c87.6,57.2,202.1,55.1,287.2-5.2l86.5,45
		C503,517,517,502.9,510.3,490L510.3,490z M126.6,441.2c-4.3-3-9.8-3.5-14.4-1.5l-68.9,29.1l29.1-68.9c2-4.8,1.4-10.2-1.5-14.4
		C44.1,347.3,30,302.6,30,256C30,131.4,131.4,30,256,30c175.5,0,284.4,192.8,193.3,342.9l-16.7-32.1C495.2,210.8,399.8,60,256,60
		C147.9,60,60,147.9,60,256c0,143.7,150.7,239.2,280.8,176.6l32.1,16.7C297.1,495.3,200.3,492.8,126.6,441.2L126.6,441.2z
		 M347.9,402.4c-4.4-2.3-9.6-2.2-14,0.1C224,461.1,90,381.1,90,256c0-91.5,74.5-166,166-166c125.2,0,205.1,134.1,146.5,243.8
		c-2.3,4.4-2.4,9.6-0.1,14c53.9,103.6,11.8,22.7,59.3,113.8C372.5,415.2,450.5,455.9,347.9,402.4L347.9,402.4z"/>
	<circle class="st0" cx="256" cy="370.4" r="18.1"/>
	<path class="st0" d="M258.3,122.5h-4.6c-44.8,0-81.3,36.5-81.3,81.3c0,8.3,6.7,15,15,15c8.3,0,15-6.7,15-15
		c0-28.3,23-51.3,51.3-51.3h4.6c28.3,0,51.3,23,51.3,51.3c0,26.5-20.4,51.3-53.6,51.3c-8.3,0-15,6.7-15,15v32.2c0,8.3,6.7,15,15,15
		c8.3,0,15-6.7,15-15v-18.2c38.8-6.1,68.6-39.8,68.6-80.3C339.6,159,303.1,122.5,258.3,122.5L258.3,122.5z"/>
</g>
</svg>
