<?xml version="1.0" encoding="utf-8"?>
<!-- Generator: Adobe Illustrator 23.0.0, SVG Export Plug-In . SVG Version: 6.00 Build 0)  -->
<svg version="1.1" xmlns="http://www.w3.org/2000/svg" xmlns:xlink="http://www.w3.org/1999/xlink" x="0px" y="0px"
	 viewBox="0 0 17.4 34.3" style="enable-background:new 0 0 17.4 34.3;" xml:space="preserve">
<style type="text/css">
	.st0{fill:#666666;}
	.st1{fill:#999999;}
	.st2{fill:none;}
	.st3{fill:#FFFFFF;}
	.st4{opacity:0.7;fill:#FFFFFF;}
</style>
<g id="Слой_1">
</g>
<g id="Слой_2">
	<g>
		<g>
			<path class="st0" d="M8.9,7.9C8.9,7.9,9,8,9,8h6.5c0.1,0,0.1,0,0.2-0.1c0,0,0.1-0.1,0.1-0.2c-0.2-1.8-1-3.4-2.3-4.5
				c-1.3-1.2-3-1.8-4.8-1.8C7.1,1.4,5.5,1.9,4.3,3c0,0-0.1,0.1-0.1,0.2c0,0.1,0,0.1,0.1,0.2L8.9,7.9z M8,5.4l1.9-2.8
				c0.2,0,0.4,0.1,0.6,0.2L8.5,5.9L8,5.4z M8.7,2.5c0.1,0,0.1,0,0.2,0L7.4,4.8L6.9,4.3l1.2-1.7C8.3,2.5,8.5,2.5,8.7,2.5L8.7,2.5z
				 M6.8,2.8L6.2,3.7L5.8,3.3C6.1,3.1,6.4,3,6.7,2.9C6.7,2.9,6.8,2.8,6.8,2.8L6.8,2.8z M12.4,6.8L13.6,5c0.1,0.1,0.2,0.2,0.2,0.4
				l-1,1.4H12.4z M13.9,6.8l0.4-0.5c0.1,0.2,0.1,0.4,0.2,0.5H13.9z M10.6,6.8l1.9-2.9C12.6,4,12.7,4,12.8,4.1
				c0.1,0.1,0.2,0.2,0.3,0.3l-1.7,2.5H10.6z M9.6,6.8H9.4L9.1,6.5l2.3-3.4c0.2,0.1,0.4,0.2,0.5,0.3L9.6,6.8z M9.6,6.8"/>
			<path class="st0" d="M7.9,8.5L3.5,4C3.5,4,3.4,4,3.3,4C3.3,4,3.2,4,3.2,4c-1,1.3-1.6,2.8-1.6,4.5c0,2.2,1,4.3,2.8,5.6
				c0,0,0.1,0,0.1,0c0,0,0,0,0,0c0.1,0,0.1,0,0.1-0.1L8,8.7C8,8.6,8,8.5,7.9,8.5L7.9,8.5z M6.6,8.7l-2.3,3.8
				c-0.4-0.4-0.7-0.8-0.9-1.3C3,10.4,2.7,9.4,2.7,8.5c0-0.7,0.1-1.4,0.4-2.1c0.1-0.3,0.2-0.6,0.4-0.8L6.6,8.7z M6.6,8.7"/>
			<path class="st0" d="M15.6,9H9.1C9.1,9,9,9.1,9,9.1l-3.4,5.5c0,0.1,0,0.1,0,0.2c0,0.1,0.1,0.1,0.1,0.1c1,0.5,2,0.7,3.1,0.7
				c1.8,0,3.5-0.6,4.8-1.8c1.3-1.2,2.1-2.8,2.3-4.5c0-0.1,0-0.1-0.1-0.2C15.7,9,15.6,9,15.6,9L15.6,9z M15.6,9"/>
		</g>
	</g>
	<rect x="-17.4" class="st2" width="87" height="17"/>
	<g>
		<g>
			<path class="st3" d="M8.9,24.9C8.9,24.9,9,25,9,25h6.5c0.1,0,0.1,0,0.2-0.1c0,0,0.1-0.1,0.1-0.2c-0.2-1.8-1-3.4-2.3-4.5
				c-1.3-1.2-3-1.8-4.8-1.8c-1.6,0-3.2,0.6-4.5,1.6c0,0-0.1,0.1-0.1,0.2c0,0.1,0,0.1,0.1,0.2L8.9,24.9z M8,22.4l1.9-2.8
				c0.2,0,0.4,0.1,0.6,0.2l-2.1,3.1L8,22.4z M8.7,19.5c0.1,0,0.1,0,0.2,0l-1.5,2.3l-0.5-0.5l1.2-1.7C8.3,19.5,8.5,19.5,8.7,19.5
				L8.7,19.5z M6.8,19.8l-0.6,0.8l-0.4-0.4c0.3-0.1,0.5-0.3,0.8-0.4C6.7,19.9,6.8,19.8,6.8,19.8L6.8,19.8z M12.4,23.8l1.2-1.8
				c0.1,0.1,0.2,0.2,0.2,0.4l-1,1.4H12.4z M13.9,23.8l0.4-0.5c0.1,0.2,0.1,0.4,0.2,0.5H13.9z M10.6,23.8l1.9-2.9
				c0.1,0.1,0.1,0.1,0.2,0.2c0.1,0.1,0.2,0.2,0.3,0.3l-1.7,2.5H10.6z M9.6,23.8H9.4l-0.3-0.3l2.3-3.4c0.2,0.1,0.4,0.2,0.5,0.3
				L9.6,23.8z M9.6,23.8"/>
			<path class="st3" d="M7.9,25.5L3.5,21c0,0-0.1-0.1-0.2-0.1S3.2,21,3.2,21c-1,1.3-1.6,2.8-1.6,4.5c0,2.2,1,4.3,2.8,5.6
				c0,0,0.1,0,0.1,0c0,0,0,0,0,0c0.1,0,0.1,0,0.1-0.1L8,25.7C8,25.6,8,25.5,7.9,25.5L7.9,25.5z M6.6,25.7l-2.3,3.8
				c-0.4-0.4-0.7-0.8-0.9-1.3c-0.4-0.8-0.6-1.8-0.6-2.7c0-0.7,0.1-1.4,0.4-2.1c0.1-0.3,0.2-0.6,0.4-0.8L6.6,25.7z M6.6,25.7"/>
			<path class="st3" d="M15.6,26H9.1c-0.1,0-0.1,0-0.2,0.1l-3.4,5.5c0,0.1,0,0.1,0,0.2c0,0.1,0.1,0.1,0.1,0.1c1,0.5,2,0.7,3.1,0.7
				c1.8,0,3.5-0.6,4.8-1.8c1.3-1.2,2.1-2.8,2.3-4.5c0-0.1,0-0.1-0.1-0.2C15.7,26,15.6,26,15.6,26L15.6,26z M15.6,26"/>
		</g>
	</g>
	<rect x="-17.4" y="17" class="st2" width="87" height="17"/>
</g>
</svg>
