<?xml version="1.0" encoding="utf-8"?>
<!-- Generator: Adobe Illustrator 23.0.1, SVG Export Plug-In . SVG Version: 6.00 Build 0)  -->
<svg version="1.1" id="Слой_1" xmlns="http://www.w3.org/2000/svg" xmlns:xlink="http://www.w3.org/1999/xlink" x="0px" y="0px"
	 viewBox="0 0 23 23" style="enable-background:new 0 0 23 23;" xml:space="preserve">
<style type="text/css">
	.st0{fill:#E26666;}
</style>
<path class="st0" d="M17.1,19.9l1-1l-2-2c0.9-1,1.6-2.2,2-3.4c0.9,0.4,1.8,0.7,2.8,1l0.3-1.3c-1-0.2-1.9-0.6-2.8-1
	c0-0.2,0.1-0.4,0.1-0.5c0.1-0.8,0.1-1.5-0.1-2.2c0.5-0.2,1-0.5,1.4-0.9c0.6-0.6,0.9-1.3,1-2H23l0-1.3h-2.2c-0.1-0.7-0.5-1.4-1-2
	s-1.3-0.9-2-1l0-2.2l-1.3,0v2.2c-0.7,0.1-1.4,0.5-2,1c-0.4,0.4-0.7,0.8-0.9,1.4c-0.7-0.1-1.4-0.2-2.2-0.1c-0.2,0-0.4,0-0.5,0.1
	c-0.4-0.9-0.7-1.8-1-2.8L8.5,2.2c0.2,1,0.6,1.9,1,2.8C8.3,5.4,7.1,6.1,6.1,7l-2-2l-1,1l2,2c-0.9,1-1.6,2.2-2,3.4
	c-0.9-0.4-1.8-0.7-2.8-1L0,11.7c1,0.2,1.9,0.6,2.8,1c0,0.2-0.1,0.4-0.1,0.5c-0.3,2.1,0.4,4.1,1.7,5.4c1.4,1.4,3.3,2,5.4,1.7
	c0.2,0,0.4,0,0.5-0.1c0.4,0.9,0.7,1.8,1,2.8l1.3-0.3c-0.2-1-0.6-1.9-1-2.8c1.2-0.4,2.4-1.1,3.4-2L17.1,19.9z M10.8,4.6
	c0.8,1.7,1.8,3.1,3.1,4.5c1.3,1.3,2.7,2.3,4.5,3.1L18,13.5c-1.9-0.8-3.6-2-5.1-3.5C11.5,8.6,10.3,6.8,9.5,5L10.8,4.6z M9.3,16.4
	v-2.7H6.6l0-1.3h2.7V9.7h1.3v2.7h2.7v1.3h-2.7v2.7H9.3z"/>
</svg>
