<?xml version="1.0" encoding="utf-8"?>
<!-- Generator: Adobe Illustrator 23.0.1, SVG Export Plug-In . SVG Version: 6.00 Build 0)  -->
<svg version="1.1" id="Слой_1" xmlns="http://www.w3.org/2000/svg" xmlns:xlink="http://www.w3.org/1999/xlink" x="0px" y="0px"
	 viewBox="0 0 17.4 34.3" style="enable-background:new 0 0 17.4 34.3;" xml:space="preserve">
<style type="text/css">
	.st0{fill:#666666;}
	.st1{fill:#FFFFFF;}
</style>
<g>
	<path class="st0" d="M8.7,10.5L6.9,9l-5,4.3c0.2,0.2,0.4,0.3,0.7,0.3h12.1c0.3,0,0.5-0.1,0.7-0.3l-5-4.3L8.7,10.5z M8.7,10.5"/>
	<path class="st0" d="M15.5,3.7c-0.2-0.2-0.4-0.3-0.7-0.3H2.6c-0.3,0-0.5,0.1-0.7,0.3l6.8,5.8L15.5,3.7z M15.5,3.7"/>
	<path class="st0" d="M1.6,4.3v8.4l4.9-4.2L1.6,4.3z M1.6,4.3"/>
	<path class="st0" d="M10.9,8.5l4.9,4.2V4.3L10.9,8.5z M10.9,8.5"/>
</g>
<g>
	<path class="st1" d="M8.7,27.5L7,26l-5,4.3c0.2,0.2,0.4,0.3,0.7,0.3h12.1c0.3,0,0.5-0.1,0.7-0.3l-5-4.3L8.7,27.5z M8.7,27.5"/>
	<path class="st1" d="M15.5,20.7c-0.2-0.2-0.4-0.3-0.7-0.3H2.6c-0.3,0-0.5,0.1-0.7,0.3l6.8,5.8L15.5,20.7z M15.5,20.7"/>
	<path class="st1" d="M1.6,21.3v8.4l4.9-4.2L1.6,21.3z M1.6,21.3"/>
	<path class="st1" d="M10.9,25.6l4.9,4.2v-8.4L10.9,25.6z M10.9,25.6"/>
</g>
</svg>
