<svg width="25" height="25" viewBox="0 0 25 25" fill="none" xmlns="http://www.w3.org/2000/svg">
<g clip-path="url(#clip0)">
<path d="M13.1227 10.9172L11.1992 11.2564L11.6062 13.5647L13.5298 13.2255C14.1661 13.1133 14.5926 12.5042 14.4804 11.8679C14.3682 11.2316 13.7592 10.8054 13.1227 10.9172Z" fill="white"/>
<path d="M24.994 16.3099L23.4315 3.80944C23.358 3.22582 22.6907 2.93054 22.2102 3.26449C17.9674 6.2148 12.4056 7.29688 8.48702 7.68508C4.19828 8.1099 0.884188 7.81887 0.850983 7.81594C0.373523 7.77238 -0.0600876 8.17172 0.0068584 8.70723L1.56732 21.191C1.61615 21.5821 1.94868 21.8756 2.34274 21.8756C6.54115 21.8756 10.4008 21.548 13.8649 20.8999C14.3888 20.8019 14.8198 20.3708 14.8479 19.7037C14.9631 16.9814 17.2423 14.8203 19.9669 14.8442C21.6445 14.859 23.13 15.6909 24.0449 16.9605C24.3739 17.4171 25.0717 16.9374 24.994 16.3099ZM13.8011 14.7643L11.8775 15.1035L12.0131 15.8729L13.552 15.6015C13.977 15.5265 14.3822 15.8104 14.457 16.2353C14.5319 16.6602 14.2482 17.0655 13.8233 17.1404L12.2844 17.4117L12.4201 18.1812C12.4951 18.6061 12.2113 19.0113 11.7864 19.0863C11.3624 19.1612 10.9564 18.8783 10.8813 18.4525C10.7164 17.5174 9.68985 11.6955 9.52461 10.7584C9.44966 10.3335 9.73341 9.92823 10.1584 9.85332L12.8513 9.37845C14.3358 9.11672 15.7573 10.1116 16.0191 11.5965C16.2809 13.0814 15.2859 14.5025 13.8011 14.7643Z" fill="white"/>
<path d="M19.9215 23.4383C17.9829 23.4383 16.4058 21.8611 16.4058 19.9225C16.4058 17.9839 17.9829 16.4067 19.9215 16.4067C21.8601 16.4067 23.4373 17.9839 23.4373 19.9225C23.4373 21.8611 21.8601 23.4383 19.9215 23.4383Z" fill="white"/>
<path d="M10.0557 2.46047C9.80059 2.61477 9.80953 2.98837 10.0698 3.13383C10.9481 3.62467 11.6966 4.32153 12.2496 5.15847C12.3838 5.36166 12.6276 5.46322 12.8654 5.41092C14.377 5.07839 15.9677 4.63004 17.5521 4.02596C17.8149 3.92576 17.8892 3.58566 17.69 3.38716C15.6331 1.33708 12.4813 0.993272 10.0557 2.46047Z" fill="white"/>
<path d="M3.31451 5.73949C3.11846 5.99423 3.30377 6.36378 3.62521 6.3649C5.74708 6.37242 7.95419 6.22691 10.093 5.91503C10.4145 5.86816 10.5413 5.47454 10.3092 5.24713C8.29273 3.27113 5.0262 3.51523 3.31451 5.73949Z" fill="white"/>
</g>
<defs>
<clipPath id="clip0">
<rect width="25" height="25" fill="white"/>
</clipPath>
</defs>
</svg>
