<?xml version="1.0" encoding="utf-8"?>
<!-- Generator: Adobe Illustrator 23.0.0, SVG Export Plug-In . SVG Version: 6.00 Build 0)  -->
<svg version="1.1" xmlns="http://www.w3.org/2000/svg" xmlns:xlink="http://www.w3.org/1999/xlink" x="0px" y="0px"
	 viewBox="0 0 17.4 17" style="enable-background:new 0 0 17.4 17;" xml:space="preserve">
<style type="text/css">
	.st0{display:none;}
	.st1{fill:#666666;}
</style>
<g id="Слой_1" class="st0">
</g>
<g id="Слой_2">
	<g>
		<path class="st1" d="M17.2,9.4c0,0.1-0.1,0.3-0.1,0.4c0,0.2-0.1,0.2-0.3,0.1c-0.1-0.1-0.3-0.2-0.4-0.3c-0.7-0.7-1.4-1.4-2.1-2.1
			c0,0-0.1-0.1-0.1-0.2C14.1,7.4,14,7.5,14,7.5c-1.1,1.1-2.3,2.3-3.4,3.4c-0.7,0.7-1.6,0.8-2.4,0.3C8,11.1,7.9,11,7.8,10.9
			c-0.5-0.5-1-0.9-1.4-1.4c-0.9-0.9-0.9-2,0-2.9c1.1-1.1,2.2-2.2,3.4-3.4c0,0,0.1-0.1,0.2-0.1C9.8,3,9.8,3,9.7,2.9
			C9,2.2,8.3,1.5,7.6,0.8C7.5,0.7,7.4,0.6,7.4,0.5C7.2,0.3,7.3,0.1,7.6,0.1C7.8,0,8,0,8.3,0c1.5,0,3,0,4.5,0c1,0,1.9,0,2.8,0
			c0.2,0,0.5,0,0.7,0c0.5,0,0.8,0.3,0.8,0.9c0,0.1,0,0.2,0,0.3C17.2,3.9,17.2,6.7,17.2,9.4z"/>
		<path class="st1" d="M3,17c-0.3-0.1-0.5-0.1-0.8-0.2c-1.2-0.4-2.1-1.6-2.1-2.9c0-2.5,0-5,0-7.5c0-1.6,1.3-3,3-3.1
			c1.4,0,2.9,0,4.3,0c0,0,0,0,0.1,0c0,0-0.1,0.1-0.1,0.1C6.9,4,6.3,4.5,5.7,5.1C5.6,5.2,5.6,5.2,5.4,5.2c-0.6,0-1.3,0-2,0
			c-0.8,0-1.3,0.5-1.3,1.3c0,1.4,0,2.8,0,4.1c0,1,0,2,0,3c0,0.5,0.2,1,0.7,1.2C3,15,3.2,15,3.4,15c2.4,0,4.8,0,7.2,0
			c0.8,0,1.3-0.6,1.3-1.3c0-0.6,0-1.3,0-2c0-0.1,0-0.2,0.1-0.3c0.6-0.6,1.1-1.1,1.7-1.7c0,0,0.1-0.1,0.1-0.1c0,0.1,0,0.1,0,0.2
			c0,1.3,0,2.6,0,3.9c0,1.6-1.1,2.9-2.6,3.2c-0.1,0-0.1,0-0.2,0C8.4,17,5.7,17,3,17z"/>
	</g>
</g>
</svg>
