<?xml version="1.0" encoding="utf-8"?>
<!-- Generator: Adobe Illustrator 23.0.1, SVG Export Plug-In . SVG Version: 6.00 Build 0)  -->
<svg version="1.1" id="Слой_1" xmlns="http://www.w3.org/2000/svg" xmlns:xlink="http://www.w3.org/1999/xlink" x="0px" y="0px"
	 viewBox="0 0 23 23" style="enable-background:new 0 0 23 23;" xml:space="preserve">
<style type="text/css">
	.st0{fill:#757575;}
</style>
<path class="st0" d="M18.6,9h-1.2V7.3c0-3.2-2.6-5.8-5.8-5.8S5.7,4.1,5.7,7.3V9H4.4C4.2,9,4,9.2,4,9.4v10.4c0,0.9,0.7,1.7,1.7,1.7
	h11.6c0.9,0,1.7-0.7,1.7-1.7V9.4C19,9.2,18.8,9,18.6,9z M12.5,15.3l0.3,2.4c0,0.1,0,0.2-0.1,0.3c-0.1,0.1-0.2,0.1-0.3,0.1h-1.7
	c-0.1,0-0.2-0.1-0.3-0.1c-0.1-0.1-0.1-0.2-0.1-0.3l0.3-2.4C10.1,15,9.8,14.5,9.8,14c0-0.9,0.7-1.7,1.7-1.7s1.7,0.7,1.7,1.7
	C13.2,14.5,12.9,15,12.5,15.3z M14.8,9H8.2V7.3C8.2,5.5,9.7,4,11.5,4s3.3,1.5,3.3,3.3V9z"/>
</svg>
