<svg width="25" height="25" viewBox="0 0 25 25" fill="none" xmlns="http://www.w3.org/2000/svg">
<path d="M5.9082 4.44336C7.1352 4.44336 8.12988 3.44868 8.12988 2.22168C8.12988 0.99468 7.1352 0 5.9082 0C4.6812 0 3.68652 0.99468 3.68652 2.22168C3.68652 3.44868 4.6812 4.44336 5.9082 4.44336Z" fill="white"/>
<path d="M19.1406 4.44336C20.3676 4.44336 21.3623 3.44868 21.3623 2.22168C21.3623 0.99468 20.3676 0 19.1406 0C17.9136 0 16.9189 0.99468 16.9189 2.22168C16.9189 3.44868 17.9136 4.44336 19.1406 4.44336Z" fill="white"/>
<path d="M12.5244 4.44336C13.7514 4.44336 14.7461 3.44868 14.7461 2.22168C14.7461 0.99468 13.7514 0 12.5244 0C11.2974 0 10.3027 0.99468 10.3027 2.22168C10.3027 3.44868 11.2974 4.44336 12.5244 4.44336Z" fill="white"/>
<path d="M7.09473 6.5918H11.3379C11.0566 5.6875 10.2119 5.0293 9.21631 5.0293C8.2207 5.0293 7.37598 5.6875 7.09473 6.5918Z" fill="white"/>
<path d="M13.7109 6.5918H17.9541C17.6729 5.6875 16.8281 5.0293 15.8325 5.0293C14.8369 5.0293 13.9922 5.6875 13.7109 6.5918Z" fill="white"/>
<path d="M10.3027 24.2676C10.3027 24.521 10.4337 24.7564 10.6491 24.89C10.7669 24.9631 10.9008 25 11.0352 25C11.1463 25 11.2578 24.9747 11.3605 24.9237L14.3146 23.4589C14.564 23.3353 14.7217 23.081 14.7217 22.8027V20.0684H10.3027V24.2676Z" fill="white"/>
<path d="M21.2646 8.05664H3.73535C3.33086 8.05664 3.00293 8.38457 3.00293 8.78906V11.084H21.9971V8.78906C21.9971 8.38457 21.6691 8.05664 21.2646 8.05664Z" fill="white"/>
<path d="M9.70654 18.6035H15.3422L20.1859 12.5488H4.86279L9.70654 18.6035Z" fill="white"/>
</svg>
