<?xml version="1.0" encoding="utf-8"?>
<!-- Generator: Adobe Illustrator 23.0.0, SVG Export Plug-In . SVG Version: 6.00 Build 0)  -->
<svg version="1.1" xmlns="http://www.w3.org/2000/svg" xmlns:xlink="http://www.w3.org/1999/xlink" x="0px" y="0px"
	 viewBox="0 0 17.4 34.3" style="enable-background:new 0 0 17.4 34.3;" xml:space="preserve">
<style type="text/css">
	.st0{fill:#666666;}
	.st1{fill:#999999;}
	.st2{fill:none;}
	.st3{fill:#FFFFFF;}
	.st4{opacity:0.7;fill:#FFFFFF;}
</style>
<g id="Слой_1">
</g>
<g id="Слой_2">
	<g>
		<path class="st0" d="M11.5,12.9L9,11.6c-0.3-0.2-0.5-0.5-0.5-0.9v-1c0.1-0.1,0.2-0.2,0.2-0.3c0.3-0.5,0.6-1,0.8-1.6
			C9.8,7.7,10,7.4,10,7V6c0-0.2-0.1-0.4-0.3-0.6V3.8c0,0,0.3-2.4-2.9-2.4c-3.3,0-2.9,2.4-2.9,2.4v1.5C3.7,5.5,3.6,5.7,3.6,6V7
			c0,0.3,0.1,0.5,0.4,0.7c0.3,1.2,1,2,1,2v1c0,0.4-0.2,0.7-0.5,0.9l-2.4,1.3c-0.7,0.4-1.1,1.1-1.1,1.9v0.9h11.8v-0.8
			C12.7,14,12.3,13.2,11.5,12.9L11.5,12.9z M11.5,12.9"/>
		<path class="st1" d="M15.4,13.2L12.8,12c-0.1-0.1-0.3-0.2-0.3-0.4c-0.1-0.1,0-0.3,0.2-0.3h1.8c0,0,0.7,0.1,1.2-0.2
			c0.3-0.1,0.4-0.5,0.2-0.8c-0.6-0.8-1.7-2.7-1.7-4.6c0,0-0.1-3-3-3c-0.6,0-1.1,0.1-1.5,0.3c0.1,0.4,0.1,0.7,0.1,0.7v1.5
			C9.9,5.5,10,5.7,10,6V7c0,0.4-0.2,0.7-0.6,0.8C9.3,8.4,9,8.9,8.7,9.4C8.6,9.5,8.5,9.6,8.4,9.7v1c0,0.2,0.1,0.4,0.2,0.6h0.7
			c0.2,0,0.3,0.2,0.1,0.3c0,0-0.1,0.1-0.1,0.1l2.2,1.1c0.7,0.4,1.2,1.1,1.2,1.9v0.8h3.7v-0.7C16.5,14.1,16,13.5,15.4,13.2L15.4,13.2
			z M15.4,13.2"/>
	</g>
	<rect x="-52.2" class="st2" width="87" height="17"/>
	<g>
		<path class="st3" d="M11.5,29.9L9,28.6c-0.3-0.2-0.5-0.5-0.5-0.9v-1c0.1-0.1,0.2-0.2,0.2-0.3c0.3-0.5,0.6-1,0.8-1.6
			C9.8,24.7,10,24.4,10,24V23c0-0.2-0.1-0.4-0.3-0.6v-1.5c0,0,0.3-2.4-2.9-2.4c-3.3,0-2.9,2.4-2.9,2.4v1.5c-0.2,0.1-0.3,0.4-0.3,0.6
			V24c0,0.3,0.1,0.5,0.4,0.7c0.3,1.2,1,2,1,2v1c0,0.4-0.2,0.7-0.5,0.9l-2.4,1.3c-0.7,0.4-1.1,1.1-1.1,1.9v0.9h11.8v-0.8
			C12.7,31,12.3,30.2,11.5,29.9L11.5,29.9z M11.5,29.9"/>
		<path class="st4" d="M15.4,30.2L12.8,29c-0.1-0.1-0.3-0.2-0.3-0.4c-0.1-0.1,0-0.3,0.2-0.3h1.8c0,0,0.7,0.1,1.2-0.2
			c0.3-0.1,0.4-0.5,0.2-0.8c-0.6-0.8-1.7-2.7-1.7-4.6c0,0-0.1-3-3-3c-0.6,0-1.1,0.1-1.5,0.3c0.1,0.4,0.1,0.7,0.1,0.7v1.5
			C9.9,22.5,10,22.7,10,23V24c0,0.4-0.2,0.7-0.6,0.8c-0.2,0.6-0.4,1.1-0.8,1.6c-0.1,0.1-0.2,0.2-0.2,0.3v1c0,0.2,0.1,0.4,0.2,0.6
			h0.7c0.2,0,0.3,0.2,0.1,0.3c0,0-0.1,0.1-0.1,0.1l2.2,1.1c0.7,0.4,1.2,1.1,1.2,1.9v0.8h3.7v-0.7C16.5,31.1,16,30.5,15.4,30.2
			L15.4,30.2z M15.4,30.2"/>
	</g>
	<rect x="-52.2" y="17" class="st2" width="87" height="17"/>
</g>
</svg>
