<?xml version="1.0" encoding="utf-8"?>
<!-- Generator: Adobe Illustrator 23.0.1, SVG Export Plug-In . SVG Version: 6.00 Build 0)  -->
<svg version="1.1" id="Слой_1" xmlns="http://www.w3.org/2000/svg" xmlns:xlink="http://www.w3.org/1999/xlink" x="0px" y="0px"
	 viewBox="0 0 23 23" style="enable-background:new 0 0 23 23;" xml:space="preserve">
<style type="text/css">
	.st0{fill:#FFFFFF;}
</style>
<g>
	<path class="st0" d="M22.8,8.7c0-0.7-0.6-1.5-4.9-2.2c-0.9-2.7-2.5-5.1-4.1-5.1c-1,0-1.8,0.5-2.3,0.9c-0.4-0.4-1.2-0.9-2.3-0.9
		c-1.6,0-3.2,2.4-4.1,5.1C0.9,7.2,0.2,8,0.2,8.7c0,1.1,1.8,1.8,4,2.2c-0.4,0.5-0.7,1.3-0.7,2.3c0,1.6,0.7,2.8,1.6,2.8
		c1,3.4,3.5,5.6,6.3,5.6s5.2-2.2,6.3-5.6c0.9-0.1,1.6-1.2,1.6-2.8c0-1-0.2-1.8-0.7-2.3C21,10.5,22.8,9.8,22.8,8.7z M16.6,12.3
		c0,0.1,0,0.2,0,0.3c0,1.4-0.9,2.3-2.3,2.3c-0.9,0-2.1-0.4-2.8-1.1c-0.7,0.7-1.9,1.1-2.8,1.1c-1.4,0-2.3-0.8-2.3-2.3
		c0-0.1,0-0.2,0-0.3c0-0.4-0.1-0.9,0.3-1.3c0.4-0.4,1.1-0.6,2.5-0.6c1.1,0,1.8,0.1,2.3,0.5c0.4-0.3,1.1-0.5,2.3-0.5
		c1.4,0,2.1,0.2,2.5,0.6C16.6,11.4,16.6,11.9,16.6,12.3z M17,6.8c-0.1,0.1-1.2,1.3-5.5,1.3C7.2,8.1,6.1,6.9,6,6.8
		C5.8,6.6,5.8,6.2,6.1,6c0.2-0.2,0.6-0.2,0.8,0.1c0,0,1,0.9,4.6,0.9c3.7,0,4.6-0.9,4.6-0.9c0.2-0.2,0.6-0.2,0.8,0
		C17.2,6.2,17.2,6.6,17,6.8z"/>
</g>
</svg>
