<?xml version="1.0" encoding="utf-8"?>
<!-- Generator: Adobe Illustrator 23.0.1, SVG Export Plug-In . SVG Version: 6.00 Build 0)  -->
<svg version="1.1" id="Слой_1" xmlns="http://www.w3.org/2000/svg" xmlns:xlink="http://www.w3.org/1999/xlink" x="0px" y="0px"
	 viewBox="0 0 17.4 34.3" style="enable-background:new 0 0 17.4 34.3;" xml:space="preserve">
<style type="text/css">
	.st0{fill:#666666;}
	.st1{fill:#FFFFFF;}
</style>
<g>
	<path class="st0" d="M9.5,1.2c-0.4-0.4-0.9-0.4-1.2,0c-0.4,0.4-0.4,0.9,0,1.2l6,6c0.4,0.4,0.9,0.4,1.2,0c0.4-0.4,0.4-0.9,0-1.2
		L9.5,1.2z"/>
	<path class="st0" d="M7.8,3.5c-0.3,1.6-1.1,3-2.1,4.3L8.8,11c1.2-1.1,2.7-1.8,4.3-2.1l0.3-0.1L7.9,3.2L7.8,3.5z"/>
	<path class="st0" d="M5.1,8.5l-2.2,2.2c-0.5,0.5-0.5,1.3,0,1.9l1.2,1.2c0.5,0.5,1.3,0.5,1.9,0l2.2-2.2L5.1,8.5z M5.4,12
		c-0.2,0.2-0.4,0.2-0.6,0c-0.2-0.2-0.2-0.4,0-0.6l0.6-0.6c0.2-0.2,0.4-0.2,0.6,0s0.2,0.4,0,0.6L5.4,12z"/>
	<path class="st0" d="M10.7,11.6l-0.4-0.4c-0.3,0.2-0.4,0.4-0.7,0.5l0.5,0.5c0.2,0.2,0.2,0.4,0,0.6l-0.6,0.6l-0.9-0.9l-1.2,1.2l2,2
		c0.4,0.4,0.9,0.4,1.2,0s0.4-0.9,0-1.2l-0.4-0.4l0.6-0.6C11.2,13,11.2,12.1,10.7,11.6z"/>
	<g>
		<path class="st1" d="M9.6,18.5c-0.4-0.4-0.9-0.4-1.2,0c-0.4,0.4-0.4,0.9,0,1.2l6,6c0.4,0.4,0.9,0.4,1.2,0c0.4-0.4,0.4-0.9,0-1.2
			L9.6,18.5z"/>
		<path class="st1" d="M7.9,20.8c-0.3,1.6-1.1,3.1-2.1,4.3L9,28.4c1.2-1.1,2.7-1.8,4.3-2.1l0.3-0.1L8,20.5L7.9,20.8z"/>
		<path class="st1" d="M5.2,25.8L3,28c-0.5,0.5-0.5,1.3,0,1.9l1.2,1.2c0.5,0.5,1.3,0.5,1.9,0l2.2-2.2L5.2,25.8z M5.5,29.3
			c-0.2,0.2-0.4,0.2-0.6,0s-0.2-0.4,0-0.6L5.5,28c0.2-0.2,0.4-0.2,0.6,0s0.2,0.4,0,0.6L5.5,29.3z"/>
		<path class="st1" d="M10.8,28.9l-0.4-0.4c-0.3,0.2-0.4,0.4-0.7,0.5l0.5,0.5c0.2,0.2,0.2,0.4,0,0.6l-0.6,0.6l-0.9-0.9l-1.2,1.2l2,2
			c0.4,0.4,0.9,0.4,1.2,0s0.4-0.9,0-1.2l-0.4-0.4l0.6-0.6C11.3,30.3,11.3,29.5,10.8,28.9z"/>
	</g>
</g>
</svg>
