<?xml version="1.0" encoding="utf-8"?>
<!-- Generator: Adobe Illustrator 23.0.0, SVG Export Plug-In . SVG Version: 6.00 Build 0)  -->
<svg version="1.1" id="Слой_1" xmlns="http://www.w3.org/2000/svg" xmlns:xlink="http://www.w3.org/1999/xlink" x="0px" y="0px"
	 viewBox="0 0 42.5 42.6" style="enable-background:new 0 0 42.5 42.6;" xml:space="preserve">
<g>
	<path d="M42.5,39.3c-1.1,1.1-2.2,2.3-3.2,3.3c-4-4-7.9-7.9-12.2-12.2c-0.1-0.3-0.2-1.1-0.5-2.3c-4.7,3.6-9.7,4.7-15.1,3.2
		c-3.7-1-6.6-3.1-8.8-6.2c-4.4-6.3-3.5-15,2-20.5C10.2-0.8,19-1.5,25.2,2.9c3.8,2.7,6,6.5,6.6,11.2c0.6,4.6-0.7,8.7-3.7,12.6
		c1.1,0.2,1.9,0.3,2.3,0.4C34.5,31.3,38.5,35.3,42.5,39.3z M16,27c6.1,0,11-4.9,11-11C27,10,22.1,5.1,16.1,5.1C10,5,5.1,9.9,5,16
		C5,22.1,9.9,27,16,27z"/>
</g>
</svg>
