<?xml version="1.0" encoding="utf-8"?>
<!-- Generator: Adobe Illustrator 23.0.0, SVG Export Plug-In . SVG Version: 6.00 Build 0)  -->
<svg version="1.1" id="Слой_1" xmlns="http://www.w3.org/2000/svg" xmlns:xlink="http://www.w3.org/1999/xlink" x="0px" y="0px"
	 viewBox="0 0 56.7 56.7" style="enable-background:new 0 0 56.7 56.7;" xml:space="preserve">
<style type="text/css">
	.st0{fill:#4F5A7C;}
</style>
<g>
	<path class="st0" d="M50.4,26.9c-0.8-0.8-1.7-1.1-2.7-1.1h-1.3V18c0-4.9-1.8-9.2-5.3-12.7C37.5,1.8,33.3,0,28.3,0
		c-4.9,0-9.2,1.8-12.7,5.3s-5.3,7.8-5.3,12.7v7.7H9c-1.1,0-2,0.4-2.7,1.1c-0.8,0.8-1.1,1.7-1.1,2.7v23.2c0,1.1,0.4,2,1.1,2.7
		C7,56.3,7.9,56.7,9,56.7h38.7c1.1,0,2-0.4,2.7-1.1c0.8-0.8,1.1-1.7,1.1-2.7V29.6C51.5,28.6,51.2,27.6,50.4,26.9L50.4,26.9z
		 M38.7,25.8H18V18c0-2.8,1-5.3,3-7.3s4.4-3,7.3-3c2.8,0,5.3,1,7.3,3s3,4.4,3,7.3v7.8H38.7z"/>
</g>
</svg>
