<?xml version="1.0" encoding="utf-8"?>
<!-- Generator: Adobe Illustrator 23.0.0, SVG Export Plug-In . SVG Version: 6.00 Build 0)  -->
<svg version="1.1" xmlns="http://www.w3.org/2000/svg" xmlns:xlink="http://www.w3.org/1999/xlink" x="0px" y="0px"
	 viewBox="0 0 17.4 34.3" style="enable-background:new 0 0 17.4 34.3;" xml:space="preserve">
<style type="text/css">
	.st0{fill:#666666;}
	.st1{fill:#999999;}
	.st2{fill:none;}
	.st3{fill:#FFFFFF;}
	.st4{opacity:0.7;fill:#FFFFFF;}
</style>
<g id="Слой_1">
</g>
<g id="Слой_2">
	<g>
		<rect x="5" y="1.4" class="st0" width="4.2" height="1.7"/>
		<path class="st0" d="M7,9.7c1,0,1.8-0.7,2-1.7H6.6V5.6C5.7,5.8,5,6.7,5,7.7C5,8.8,5.9,9.7,7,9.7L7,9.7z M7,9.7"/>
		<path class="st0" d="M7.5,5.6v1.6h1.6C8.9,6.4,8.3,5.8,7.5,5.6L7.5,5.6z M7.5,5.6"/>
		<path class="st0" d="M12.5,2.2H9.9v1.7H4.1V2.2H1.6v13.3h10.9V2.2z M7,4.8c1.6,0,2.9,1.3,2.9,2.9S8.6,10.6,7,10.6S4.1,9.3,4.1,7.7
			S5.4,4.8,7,4.8L7,4.8z M10.8,13.9H3.3v-0.8h7.5V13.9z M10.8,12.3H3.3v-0.8h7.5V12.3z M10.8,12.3"/>
		<rect x="13.3" y="3.9" class="st0" width="2.5" height="1.7"/>
		<path class="st0" d="M13.3,12.8l1.2,2.8l1.2-2.8v-0.5h-2.5V12.8z M13.3,12.8"/>
		<rect x="13.3" y="6.4" class="st0" width="2.5" height="5"/>
	</g>
	<rect x="-69.6" y="0" class="st2" width="87" height="17"/>
	<g>
		<rect x="5" y="18.4" class="st3" width="4.2" height="1.7"/>
		<path class="st3" d="M7,26.7c1,0,1.8-0.7,2-1.7H6.6v-2.4c-0.9,0.2-1.7,1-1.7,2C5,25.8,5.9,26.7,7,26.7L7,26.7z M7,26.7"/>
		<path class="st3" d="M7.5,22.6v1.6h1.6C8.9,23.4,8.3,22.8,7.5,22.6L7.5,22.6z M7.5,22.6"/>
		<path class="st3" d="M12.5,19.2H9.9v1.7H4.1v-1.7H1.6v13.3h10.9V19.2z M7,21.8c1.6,0,2.9,1.3,2.9,2.9c0,1.6-1.3,2.9-2.9,2.9
			s-2.9-1.3-2.9-2.9C4.1,23.1,5.4,21.8,7,21.8L7,21.8z M10.8,30.9H3.3v-0.8h7.5V30.9z M10.8,29.3H3.3v-0.8h7.5V29.3z M10.8,29.3"/>
		<rect x="13.3" y="20.9" class="st3" width="2.5" height="1.7"/>
		<path class="st3" d="M13.3,29.8l1.2,2.8l1.2-2.8v-0.5h-2.5V29.8z M13.3,29.8"/>
		<rect x="13.3" y="23.4" class="st3" width="2.5" height="5"/>
	</g>
	<rect x="-69.6" y="17" class="st2" width="87" height="17"/>
</g>
</svg>
