<?xml version="1.0" encoding="utf-8"?>
<!-- Generator: Adobe Illustrator 23.0.0, SVG Export Plug-In . SVG Version: 6.00 Build 0)  -->
<svg version="1.1" xmlns="http://www.w3.org/2000/svg" xmlns:xlink="http://www.w3.org/1999/xlink" x="0px" y="0px"
	 viewBox="0 0 17.4 34.3" style="enable-background:new 0 0 17.4 34.3;" xml:space="preserve">
<style type="text/css">
	.st0{fill:#666666;}
	.st1{fill:#999999;}
	.st2{fill:none;}
	.st3{fill:#FFFFFF;}
	.st4{opacity:0.7;fill:#FFFFFF;}
</style>
<g id="Слой_1">
</g>
<g id="Слой_2">
	<g>
		<path class="st0" d="M15.8,14.5c-0.4,0.4-0.7,0.8-1.1,1.1c-1.3-1.3-2.6-2.6-4.1-4.1c0-0.1-0.1-0.4-0.2-0.8c-1.6,1.2-3.2,1.6-5,1.1
			c-1.2-0.3-2.2-1-2.9-2.1c-1.5-2.1-1.2-5,0.7-6.8C5,1.1,7.9,0.9,10,2.4c1.3,0.9,2,2.2,2.2,3.7C12.4,7.6,12,9,11,10.3
			c0.4,0.1,0.6,0.1,0.8,0.1C13.1,11.8,14.5,13.2,15.8,14.5z M6.9,10.4c2,0,3.7-1.6,3.7-3.7c0-2-1.6-3.6-3.6-3.6
			c-2,0-3.7,1.6-3.7,3.6C3.3,8.8,4.9,10.4,6.9,10.4z"/>
	</g>
	<rect y="0" class="st2" width="87" height="17"/>
	<g>
		<path class="st3" d="M15.8,31.5c-0.4,0.4-0.7,0.8-1.1,1.1c-1.3-1.3-2.6-2.6-4.1-4.1c0-0.1-0.1-0.4-0.2-0.8c-1.6,1.2-3.2,1.6-5,1.1
			c-1.2-0.3-2.2-1-2.9-2.1c-1.5-2.1-1.2-5,0.7-6.8c1.8-1.8,4.7-2,6.8-0.6c1.3,0.9,2,2.2,2.2,3.7c0.2,1.5-0.2,2.9-1.2,4.2
			c0.4,0.1,0.6,0.1,0.8,0.1C13.1,28.8,14.5,30.2,15.8,31.5z M6.9,27.4c2,0,3.7-1.6,3.7-3.7c0-2-1.6-3.6-3.6-3.6
			c-2,0-3.7,1.6-3.7,3.6C3.3,25.8,4.9,27.4,6.9,27.4z"/>
	</g>
	<rect y="17" class="st2" width="87" height="17"/>
</g>
</svg>
