<?xml version="1.0" encoding="utf-8"?>
<!-- Generator: Adobe Illustrator 23.0.0, SVG Export Plug-In . SVG Version: 6.00 Build 0)  -->
<svg version="1.1" xmlns="http://www.w3.org/2000/svg" xmlns:xlink="http://www.w3.org/1999/xlink" x="0px" y="0px"
	 viewBox="0 0 17.4 17" style="enable-background:new 0 0 17.4 17;" xml:space="preserve">
<style type="text/css">
	.st0{display:none;}
	.st1{fill:#666666;}
</style>
<g id="Слой_1" class="st0">
</g>
<g id="Слой_2">
	<path class="st1" d="M8.8,0c3-0.1,5.5,2.2,5.9,4.8c0.2,1.2,0,2.4-0.4,3.6c-0.5,1.3-1.1,2.6-1.8,3.7c-0.9,1.3-1.8,2.6-2.7,3.9
		c-0.2,0.3-0.5,0.6-0.8,0.9c-0.1,0.2-0.3,0.1-0.4,0c-0.3-0.4-0.6-0.7-0.9-1c-1-1.4-2-2.8-3-4.3C4,10.4,3.5,9.1,3.1,7.7
		C2.3,4.8,3.5,2,6.1,0.6C7,0.2,7.8,0,8.8,0z M11,5.9c0-1.1-1-2.1-2.2-2.1S6.7,4.8,6.7,6c0,1.1,0.7,2.1,2.1,2.2
		C10.2,8.2,11,7.1,11,5.9z"/>
</g>
</svg>
