<?xml version="1.0" encoding="utf-8"?>
<!-- Generator: Adobe Illustrator 23.0.0, SVG Export Plug-In . SVG Version: 6.00 Build 0)  -->
<svg version="1.1" xmlns="http://www.w3.org/2000/svg" xmlns:xlink="http://www.w3.org/1999/xlink" x="0px" y="0px"
	 viewBox="0 0 87 17" style="enable-background:new 0 0 87 17;" xml:space="preserve">
<style type="text/css">
	.st0{display:none;}
	.st1{fill:#666666;}
	.st2{fill:#999999;}
</style>
<g id="Слой_1" class="st0">
</g>
<g id="Слой_2">
	<g>
		<path class="st1" d="M63.7,12.9l-2.6-1.3c-0.3-0.2-0.5-0.5-0.5-0.9v-1c0.1-0.1,0.2-0.2,0.2-0.3c0.3-0.5,0.6-1,0.8-1.6
			C62,7.7,62.2,7.4,62.2,7V6c0-0.2-0.1-0.4-0.3-0.6V3.8c0,0,0.3-2.4-2.9-2.4c-3.3,0-2.9,2.4-2.9,2.4v1.5c-0.2,0.1-0.3,0.4-0.3,0.6V7
			c0,0.3,0.1,0.5,0.4,0.7c0.3,1.2,1,2,1,2v1c0,0.4-0.2,0.7-0.5,0.9l-2.4,1.3c-0.7,0.4-1.1,1.1-1.1,1.9v0.9h11.8v-0.8
			C64.9,14,64.5,13.2,63.7,12.9L63.7,12.9z M63.7,12.9"/>
		<path class="st2" d="M67.6,13.2L65,12c-0.1-0.1-0.3-0.2-0.3-0.4c-0.1-0.1,0-0.3,0.2-0.3h1.8c0,0,0.7,0.1,1.2-0.2
			c0.3-0.1,0.4-0.5,0.2-0.8c-0.6-0.8-1.7-2.7-1.7-4.6c0,0-0.1-3-3-3c-0.6,0-1.1,0.1-1.5,0.3C62,3.5,62,3.8,62,3.8v1.5
			c0.2,0.1,0.3,0.4,0.3,0.6V7c0,0.4-0.2,0.7-0.6,0.8c-0.2,0.6-0.4,1.1-0.8,1.6c-0.1,0.1-0.2,0.2-0.2,0.3v1c0,0.2,0.1,0.4,0.2,0.6
			h0.7c0.2,0,0.3,0.2,0.1,0.3c0,0-0.1,0.1-0.1,0.1l2.2,1.1c0.7,0.4,1.2,1.1,1.2,1.9v0.8h3.7v-0.7C68.7,14.1,68.2,13.5,67.6,13.2
			L67.6,13.2z M67.6,13.2"/>
	</g>
	<g>
		<path class="st1" d="M15.8,14.5c-0.4,0.4-0.7,0.8-1.1,1.1c-1.3-1.3-2.6-2.6-4.1-4.1c0-0.1-0.1-0.4-0.2-0.8c-1.6,1.2-3.2,1.6-5,1.1
			c-1.2-0.3-2.2-1-2.9-2.1c-1.5-2.1-1.2-5,0.7-6.8C5,1.1,7.9,0.9,10,2.4c1.3,0.9,2,2.2,2.2,3.7C12.4,7.6,12,9,11,10.3
			c0.4,0.1,0.6,0.1,0.8,0.1C13.1,11.8,14.5,13.2,15.8,14.5z M6.9,10.4c2,0,3.7-1.6,3.7-3.7c0-2-1.6-3.6-3.6-3.6
			c-2,0-3.7,1.6-3.7,3.6C3.3,8.8,4.9,10.4,6.9,10.4z"/>
	</g>
	<g>
		<g>
			<path class="st1" d="M26.3,7.9c0,0,0.1,0.1,0.2,0.1H33c0.1,0,0.1,0,0.2-0.1c0,0,0.1-0.1,0.1-0.2c-0.2-1.8-1-3.4-2.3-4.5
				c-1.3-1.2-3-1.8-4.8-1.8c-1.6,0-3.2,0.6-4.5,1.6c0,0-0.1,0.1-0.1,0.2c0,0.1,0,0.1,0.1,0.2L26.3,7.9z M25.4,5.4l1.9-2.8
				c0.2,0,0.4,0.1,0.6,0.2l-2.1,3.1L25.4,5.4z M26.1,2.5c0.1,0,0.1,0,0.2,0l-1.5,2.3l-0.5-0.5l1.2-1.7C25.7,2.5,25.9,2.5,26.1,2.5
				L26.1,2.5z M24.2,2.8l-0.6,0.8l-0.4-0.4c0.3-0.1,0.5-0.3,0.8-0.4C24.1,2.9,24.2,2.8,24.2,2.8L24.2,2.8z M29.8,6.8L31,5
				c0.1,0.1,0.2,0.2,0.2,0.4l-1,1.4H29.8z M31.3,6.8l0.4-0.5c0.1,0.2,0.1,0.4,0.2,0.5H31.3z M28,6.8L30,3.9C30,4,30.1,4,30.2,4.1
				c0.1,0.1,0.2,0.2,0.3,0.3l-1.7,2.5H28z M27,6.8h-0.2l-0.3-0.3l2.3-3.4c0.2,0.1,0.4,0.2,0.5,0.3L27,6.8z M27,6.8"/>
			<path class="st1" d="M25.3,8.5L20.9,4c0,0-0.1-0.1-0.2-0.1c-0.1,0-0.1,0-0.2,0.1c-1,1.3-1.6,2.8-1.6,4.5c0,2.2,1,4.3,2.8,5.6
				c0,0,0.1,0,0.1,0c0,0,0,0,0,0c0.1,0,0.1,0,0.1-0.1l3.3-5.3C25.4,8.6,25.4,8.5,25.3,8.5L25.3,8.5z M24,8.7l-2.3,3.8
				c-0.4-0.4-0.7-0.8-0.9-1.3c-0.4-0.8-0.6-1.8-0.6-2.7c0-0.7,0.1-1.4,0.4-2.1c0.1-0.3,0.2-0.6,0.4-0.8L24,8.7z M24,8.7"/>
			<path class="st1" d="M33,9h-6.4c-0.1,0-0.1,0-0.2,0.1L23,14.6c0,0.1,0,0.1,0,0.2c0,0.1,0.1,0.1,0.1,0.1c1,0.5,2,0.7,3.1,0.7
				c1.8,0,3.5-0.6,4.8-1.8c1.3-1.2,2.1-2.8,2.3-4.5c0-0.1,0-0.1-0.1-0.2C33.1,9,33,9,33,9L33,9z M33,9"/>
		</g>
	</g>
	<g>
		<rect x="74.6" y="1.4" class="st1" width="4.2" height="1.7"/>
		<path class="st1" d="M76.6,9.7c1,0,1.8-0.7,2-1.7h-2.4V5.6c-0.9,0.2-1.7,1-1.7,2C74.6,8.8,75.5,9.7,76.6,9.7L76.6,9.7z M76.6,9.7"
			/>
		<path class="st1" d="M77.1,5.6v1.6h1.6C78.5,6.4,77.9,5.8,77.1,5.6L77.1,5.6z M77.1,5.6"/>
		<path class="st1" d="M82.1,2.2h-2.5v1.7h-5.8V2.2h-2.5v13.3h10.9V2.2z M76.6,4.8c1.6,0,2.9,1.3,2.9,2.9s-1.3,2.9-2.9,2.9
			c-1.6,0-2.9-1.3-2.9-2.9S75,4.8,76.6,4.8L76.6,4.8z M80.4,13.9h-7.5v-0.8h7.5V13.9z M80.4,12.3h-7.5v-0.8h7.5V12.3z M80.4,12.3"/>
		<rect x="82.9" y="3.9" class="st1" width="2.5" height="1.7"/>
		<path class="st1" d="M82.9,12.8l1.2,2.8l1.2-2.8v-0.5h-2.5V12.8z M82.9,12.8"/>
		<rect x="82.9" y="6.4" class="st1" width="2.5" height="5"/>
	</g>
	<g>
		<g>
			<path class="st1" d="M50.4,6.8c-0.1,0-0.2,0-0.2,0.1L47.7,10c-0.1,0.1-0.3,0.2-0.4,0.2l-2.7-0.4c-0.1,0-0.3,0-0.4,0.1l-2.4,2.4
				c-0.1,0.1-0.2,0.1-0.3,0.1l-3.2,0.3c-0.1,0-0.2,0.1-0.3,0.1l-1.6,1.7c-0.1,0.1-0.1,0.2,0,0.3c0,0.1,0.1,0.2,0.2,0.2H50
				c0.3,0,0.5-0.2,0.5-0.5V7C50.5,6.9,50.4,6.8,50.4,6.8L50.4,6.8z M50.4,6.8"/>
			<path class="st1" d="M37.2,9.3c0.1,0,0.3-0.1,0.4-0.2l0.7-0.7c0.1,0,0.2,0.1,0.3,0.1c0.5,0,1-0.4,1.1-0.9l1.1-0.1
				c0.2,0.4,0.6,0.6,1,0.6c0.6,0,1.1-0.5,1.1-1.1c0-0.1,0-0.3-0.1-0.4l1-1c0.2,0.1,0.3,0.1,0.5,0.1c0.4,0,0.8-0.2,1-0.6L46,5.2
				C46.1,5.7,46.5,6,47.1,6c0.6,0,1.1-0.5,1.1-1.1c0-0.2,0-0.3-0.1-0.5l1.3-1.6c0.2-0.2,0.1-0.5-0.1-0.7c-0.2-0.2-0.5-0.1-0.7,0.1
				l-1.3,1.6c-0.1,0-0.2,0-0.3,0c-0.4,0-0.8,0.2-1,0.5l-0.7-0.1c-0.2-0.4-0.6-0.7-1.1-0.7c-0.6,0-1.1,0.5-1.1,1.1c0,0.1,0,0.2,0,0.2
				l-1.1,1.1c-0.1,0-0.2-0.1-0.4-0.1c-0.5,0-0.9,0.3-1.1,0.7l-1.3,0.1c-0.2-0.3-0.5-0.5-0.9-0.5c-0.6,0-1.1,0.5-1.1,1.1
				c0,0.2,0,0.3,0.1,0.5l-0.7,0.7c-0.2,0.2-0.2,0.5,0,0.7C36.9,9.2,37,9.3,37.2,9.3L37.2,9.3z M47.1,4.5c0.2,0,0.4,0.2,0.4,0.4
				c0,0.2-0.2,0.4-0.4,0.4c-0.2,0-0.4-0.2-0.4-0.4C46.6,4.7,46.8,4.5,47.1,4.5L47.1,4.5z M44.3,4.2c0.2,0,0.4,0.2,0.4,0.4
				c0,0.2-0.2,0.4-0.4,0.4c-0.2,0-0.4-0.2-0.4-0.4C43.9,4.3,44.1,4.2,44.3,4.2L44.3,4.2z M41.8,6.5c0.2,0,0.4,0.2,0.4,0.4
				c0,0.2-0.2,0.4-0.4,0.4c-0.2,0-0.4-0.2-0.4-0.4C41.3,6.7,41.5,6.5,41.8,6.5L41.8,6.5z M38.5,6.9c0.2,0,0.4,0.2,0.4,0.4
				c0,0.2-0.2,0.4-0.4,0.4c-0.2,0-0.4-0.2-0.4-0.4C38.1,7.1,38.3,6.9,38.5,6.9L38.5,6.9z M38.5,6.9"/>
		</g>
	</g>
</g>
</svg>
