<?xml version="1.0" encoding="utf-8"?>
<!-- Generator: Adobe Illustrator 23.0.0, SVG Export Plug-In . SVG Version: 6.00 Build 0)  -->
<svg version="1.1" xmlns="http://www.w3.org/2000/svg" xmlns:xlink="http://www.w3.org/1999/xlink" x="0px" y="0px"
	 viewBox="0 0 17.4 17" style="enable-background:new 0 0 17.4 17;" xml:space="preserve">
<style type="text/css">
	.st0{display:none;}
	.st1{fill:#666666;}
</style>
<g id="Слой_1" class="st0">
</g>
<g id="Слой_2">
	<g>
		<path class="st1" d="M8.7,17c-1.6,0-3.3,0-4.9,0c-2.2,0-3.6-1.4-3.6-3.6c0-3.3,0-6.6,0-9.9c0-2,1.5-3.5,3.5-3.5c3.3,0,6.6,0,9.9,0
			c2.2,0,3.6,1.4,3.6,3.6c0,3.3,0,6.6,0,9.9c0,2.1-1.4,3.5-3.5,3.5c-0.8,0-1.7,0-2.5,0C10.4,17,9.5,17,8.7,17z M1.9,5.1
			c0,0.1,0,0.2,0,0.3c0,2.7,0,5.4,0,8.2c0,1.1,0.7,1.8,1.8,1.8c3.3,0,6.6,0,9.9,0c1.2,0,1.9-0.7,1.9-1.9c0-2.6,0-5.2,0-7.8
			c0-0.1,0-0.3,0-0.4C10.9,5.1,6.4,5.1,1.9,5.1z M5.3,1.7c-0.6,0-1.1,0-1.7,0c0,0.6,0,1.1,0,1.7c0.6,0,1.1,0,1.7,0
			C5.3,2.8,5.3,2.3,5.3,1.7z"/>
		<path class="st1" d="M9.7,10.6c0.3-0.3,0.6-0.7,0.9-1c0.4-0.4,0.9-0.4,1.2-0.1c0.4,0.3,0.3,0.9,0,1.2c-0.8,0.8-1.6,1.6-2.4,2.4
			c-0.4,0.4-0.9,0.4-1.3,0c-0.8-0.8-1.6-1.6-2.4-2.4C5.2,10.4,5.2,10,5.5,9.6c0.3-0.3,0.9-0.3,1.2,0c0.3,0.3,0.6,0.7,0.9,1
			c0,0,0.1,0,0.1-0.1c0-0.2,0-0.3,0-0.5c0-1.1,0-2.1,0-3.2c0-0.6,0.3-1,0.9-1c0.5,0,0.8,0.4,0.8,1c0,1.2,0,2.4,0,3.6
			C9.6,10.6,9.6,10.6,9.7,10.6z"/>
	</g>
</g>
</svg>
