<?xml version="1.0" encoding="utf-8"?>
<!-- Generator: Adobe Illustrator 23.0.0, SVG Export Plug-In . SVG Version: 6.00 Build 0)  -->
<svg version="1.1" xmlns="http://www.w3.org/2000/svg" xmlns:xlink="http://www.w3.org/1999/xlink" x="0px" y="0px"
	 viewBox="0 0 17.4 34.3" style="enable-background:new 0 0 17.4 34.3;" xml:space="preserve">
<style type="text/css">
	.st0{fill:#666666;}
	.st1{fill:#999999;}
	.st2{fill:none;}
	.st3{fill:#FFFFFF;}
	.st4{opacity:0.7;fill:#FFFFFF;}
</style>
<g id="Слой_1">
</g>
<g id="Слой_2">
	<g>
		<g>
			<path class="st0" d="M15.6,6.8c-0.1,0-0.2,0-0.2,0.1L12.9,10c-0.1,0.1-0.3,0.2-0.4,0.2L9.8,9.7c-0.1,0-0.3,0-0.4,0.1L7,12.2
				c-0.1,0.1-0.2,0.1-0.3,0.1l-3.2,0.3c-0.1,0-0.2,0.1-0.3,0.1l-1.6,1.7c-0.1,0.1-0.1,0.2,0,0.3c0,0.1,0.1,0.2,0.2,0.2h13.4
				c0.3,0,0.5-0.2,0.5-0.5V7C15.7,6.9,15.6,6.8,15.6,6.8L15.6,6.8z M15.6,6.8"/>
			<path class="st0" d="M2.4,9.3c0.1,0,0.3-0.1,0.4-0.2l0.7-0.7c0.1,0,0.2,0.1,0.3,0.1c0.5,0,1-0.4,1.1-0.9l1.1-0.1
				c0.2,0.4,0.6,0.6,1,0.6c0.6,0,1.1-0.5,1.1-1.1c0-0.1,0-0.3-0.1-0.4l1-1c0.2,0.1,0.3,0.1,0.5,0.1c0.4,0,0.8-0.2,1-0.6l0.6,0.1
				C11.3,5.7,11.7,6,12.3,6c0.6,0,1.1-0.5,1.1-1.1c0-0.2,0-0.3-0.1-0.5l1.3-1.6c0.2-0.2,0.1-0.5-0.1-0.7c-0.2-0.2-0.5-0.1-0.7,0.1
				l-1.3,1.6c-0.1,0-0.2,0-0.3,0c-0.4,0-0.8,0.2-1,0.5l-0.7-0.1C10.4,3.7,10,3.4,9.5,3.4c-0.6,0-1.1,0.5-1.1,1.1c0,0.1,0,0.2,0,0.2
				L7.3,5.9C7.2,5.8,7.1,5.8,7,5.8c-0.5,0-0.9,0.3-1.1,0.7L4.6,6.6C4.4,6.3,4.1,6.2,3.7,6.2c-0.6,0-1.1,0.5-1.1,1.1
				c0,0.2,0,0.3,0.1,0.5L2,8.5C1.8,8.7,1.8,9,2,9.1C2.1,9.2,2.2,9.3,2.4,9.3L2.4,9.3z M12.3,4.5c0.2,0,0.4,0.2,0.4,0.4
				c0,0.2-0.2,0.4-0.4,0.4c-0.2,0-0.4-0.2-0.4-0.4C11.8,4.7,12,4.5,12.3,4.5L12.3,4.5z M9.5,4.2c0.2,0,0.4,0.2,0.4,0.4
				C10,4.8,9.8,5,9.5,5C9.3,5,9.1,4.8,9.1,4.6C9.1,4.3,9.3,4.2,9.5,4.2L9.5,4.2z M7,6.5c0.2,0,0.4,0.2,0.4,0.4
				c0,0.2-0.2,0.4-0.4,0.4c-0.2,0-0.4-0.2-0.4-0.4C6.5,6.7,6.7,6.5,7,6.5L7,6.5z M3.7,6.9c0.2,0,0.4,0.2,0.4,0.4
				c0,0.2-0.2,0.4-0.4,0.4c-0.2,0-0.4-0.2-0.4-0.4C3.3,7.1,3.5,6.9,3.7,6.9L3.7,6.9z M3.7,6.9"/>
		</g>
	</g>
	<rect x="-34.8" y="0" class="st2" width="87" height="17"/>
	<g>
		<g>
			<path class="st3" d="M15.6,23.8c-0.1,0-0.2,0-0.2,0.1L12.9,27c-0.1,0.1-0.3,0.2-0.4,0.2l-2.7-0.4c-0.1,0-0.3,0-0.4,0.1L7,29.2
				c-0.1,0.1-0.2,0.1-0.3,0.1l-3.2,0.3c-0.1,0-0.2,0.1-0.3,0.1l-1.6,1.7c-0.1,0.1-0.1,0.2,0,0.3c0,0.1,0.1,0.2,0.2,0.2h13.4
				c0.3,0,0.5-0.2,0.5-0.5V24C15.7,23.9,15.6,23.8,15.6,23.8L15.6,23.8z M15.6,23.8"/>
			<path class="st3" d="M2.4,26.3c0.1,0,0.3-0.1,0.4-0.2l0.7-0.7c0.1,0,0.2,0.1,0.3,0.1c0.5,0,1-0.4,1.1-0.9l1.1-0.1
				c0.2,0.4,0.6,0.6,1,0.6c0.6,0,1.1-0.5,1.1-1.1c0-0.1,0-0.3-0.1-0.4l1-1c0.2,0.1,0.3,0.1,0.5,0.1c0.4,0,0.8-0.2,1-0.6l0.6,0.1
				c0.1,0.5,0.6,0.8,1.1,0.8c0.6,0,1.1-0.5,1.1-1.1c0-0.2,0-0.3-0.1-0.5l1.3-1.6c0.2-0.2,0.1-0.5-0.1-0.7c-0.2-0.2-0.5-0.1-0.7,0.1
				l-1.3,1.6c-0.1,0-0.2,0-0.3,0c-0.4,0-0.8,0.2-1,0.5l-0.7-0.1c-0.2-0.4-0.6-0.7-1.1-0.7c-0.6,0-1.1,0.5-1.1,1.1c0,0.1,0,0.2,0,0.2
				l-1.1,1.1c-0.1,0-0.2-0.1-0.4-0.1c-0.5,0-0.9,0.3-1.1,0.7l-1.3,0.1c-0.2-0.3-0.5-0.5-0.9-0.5c-0.6,0-1.1,0.5-1.1,1.1
				c0,0.2,0,0.3,0.1,0.5L2,25.5c-0.2,0.2-0.2,0.5,0,0.7C2.1,26.2,2.2,26.3,2.4,26.3L2.4,26.3z M12.3,21.5c0.2,0,0.4,0.2,0.4,0.4
				c0,0.2-0.2,0.4-0.4,0.4c-0.2,0-0.4-0.2-0.4-0.4C11.8,21.7,12,21.5,12.3,21.5L12.3,21.5z M9.5,21.2c0.2,0,0.4,0.2,0.4,0.4
				c0,0.2-0.2,0.4-0.4,0.4c-0.2,0-0.4-0.2-0.4-0.4C9.1,21.3,9.3,21.2,9.5,21.2L9.5,21.2z M7,23.5c0.2,0,0.4,0.2,0.4,0.4
				c0,0.2-0.2,0.4-0.4,0.4c-0.2,0-0.4-0.2-0.4-0.4C6.5,23.7,6.7,23.5,7,23.5L7,23.5z M3.7,23.9c0.2,0,0.4,0.2,0.4,0.4
				c0,0.2-0.2,0.4-0.4,0.4c-0.2,0-0.4-0.2-0.4-0.4C3.3,24.1,3.5,23.9,3.7,23.9L3.7,23.9z M3.7,23.9"/>
		</g>
	</g>
	<rect x="-34.8" y="17" class="st2" width="87" height="17"/>
</g>
</svg>
