<?xml version="1.0" encoding="utf-8"?>
<!-- Generator: Adobe Illustrator 23.0.0, SVG Export Plug-In . SVG Version: 6.00 Build 0)  -->
<svg version="1.1" id="Слой_1" xmlns="http://www.w3.org/2000/svg" xmlns:xlink="http://www.w3.org/1999/xlink" x="0px" y="0px"
	 viewBox="0 0 106.9 108.4" style="enable-background:new 0 0 106.9 108.4;" xml:space="preserve">
<style type="text/css">
	.st0{fill:#6A7284;}
</style>
<g>
	<path class="st0" d="M99.5,1.8h-36c-3.6,0-6.5,2.9-6.5,6.5c0,3.6,2.9,6.5,6.5,6.5h20.4L49.8,48.8c-1.2,1.2-1.9,2.8-1.9,4.6
		c0,1.7,0.7,3.3,1.9,4.6c1.2,1.2,2.8,1.9,4.6,1.9c1.7,0,3.3-0.7,4.6-1.9L93,23.9v20.4c0,3.6,2.9,6.5,6.5,6.5c3.6,0,6.5-2.9,6.5-6.5
		v-36C106,4.7,103.1,1.8,99.5,1.8L99.5,1.8z M99.5,1.8"/>
	<path class="st0" d="M75.4,95.5H12.2V32.4h47.5l11.1-11.1H6.7c-3.1,0-5.5,2.5-5.5,5.5v74.2c0,3.1,2.5,5.5,5.5,5.5h74.2
		c3.1,0,5.5-2.5,5.5-5.5V36.9L75.4,48V95.5z M75.4,95.5"/>
</g>
</svg>
