<?xml version="1.0" encoding="utf-8"?>
<!-- Generator: Adobe Illustrator 23.0.1, SVG Export Plug-In . SVG Version: 6.00 Build 0)  -->
<svg version="1.1" id="Слой_1" xmlns="http://www.w3.org/2000/svg" xmlns:xlink="http://www.w3.org/1999/xlink" x="0px" y="0px"
	 viewBox="0 0 16 16" style="enable-background:new 0 0 16 16;" xml:space="preserve">
<style type="text/css">
	.st0{fill:#FFFFFF;}
</style>
<path class="st0" d="M15.4,1.6h-4.9c-0.3,0-0.8,0.2-1,0.4l-6,6C3.2,8.3,3.2,8.7,3.4,9l5.2,5.2c0.2,0.2,0.6,0.2,0.9,0l6-6
	c0.2-0.2,0.4-0.7,0.4-1V2.2C16,1.9,15.7,1.6,15.4,1.6z M12.3,6.5c-0.7,0-1.2-0.5-1.2-1.2s0.5-1.2,1.2-1.2s1.2,0.5,1.2,1.2
	S13,6.5,12.3,6.5z"/>
<path class="st0" d="M1.4,8.5l6.9-6.9h-1c-0.3,0-0.8,0.2-1,0.4l-6,6c-0.2,0.2-0.2,0.6,0,0.9l5.2,5.2c0.2,0.2,0.6,0.2,0.9,0l0.4-0.4
	L1.4,8.5L1.4,8.5z"/>
</svg>
