<?xml version="1.0" encoding="utf-8"?>
<!-- Generator: Adobe Illustrator 23.0.1, SVG Export Plug-In . SVG Version: 6.00 Build 0)  -->
<svg version="1.1" id="Слой_1" xmlns="http://www.w3.org/2000/svg" xmlns:xlink="http://www.w3.org/1999/xlink" x="0px" y="0px"
	 viewBox="0 0 16 16" style="enable-background:new 0 0 16 16;" xml:space="preserve">
<style type="text/css">
	.st0{fill:#FFFFFF;}
</style>
<path class="st0" d="M13.7,6h-1V4.6c0-2.6-2.1-4.6-4.6-4.6S3.4,2.1,3.4,4.6V6h-1C2.2,6,2,6.2,2,6.3v8.3C2,15.4,2.6,16,3.4,16h9.3
	c0.7,0,1.4-0.6,1.4-1.4V6.3C14,6.2,13.8,6,13.7,6z M8.8,11L9,13C9,13,9,13.1,9,13.2c-0.1,0.1-0.2,0.1-0.2,0.1H7.4
	c-0.1,0-0.2-0.1-0.2-0.1C7,13.1,7,13,7,13L7.3,11c-0.4-0.2-0.6-0.6-0.6-1c0-0.7,0.6-1.4,1.4-1.4S9.4,9.2,9.4,10
	C9.4,10.4,9.1,10.8,8.8,11z M10.6,6H5.4V4.6C5.4,3.2,6.6,2,8,2s2.6,1.2,2.6,2.6V6z"/>
</svg>
