<?xml version="1.0" encoding="utf-8"?>
<!-- Generator: Adobe Illustrator 23.0.1, SVG Export Plug-In . SVG Version: 6.00 Build 0)  -->
<svg version="1.1" id="Слой_1" xmlns="http://www.w3.org/2000/svg" xmlns:xlink="http://www.w3.org/1999/xlink" x="0px" y="0px"
	 viewBox="0 0 16 16" style="enable-background:new 0 0 16 16;" xml:space="preserve">
<style type="text/css">
	.st0{fill:#FFFFFF;}
</style>
<path class="st0" d="M11.9,13.8l0.7-0.7l-1.4-1.4c0.6-0.7,1.1-1.5,1.4-2.4c0.6,0.3,1.3,0.5,1.9,0.7l0.2-0.9C14,9,13.4,8.8,12.8,8.5
	c0-0.1,0-0.2,0.1-0.4c0.1-0.5,0-1.1,0-1.5c0.4-0.1,0.7-0.3,0.9-0.6c0.4-0.4,0.6-0.9,0.7-1.4H16l0-0.9h-1.5c-0.1-0.5-0.3-1-0.7-1.4
	c-0.4-0.4-0.9-0.6-1.4-0.7l0-1.5l-0.9,0v1.5c-0.5,0.1-1,0.3-1.4,0.7C9.8,2.5,9.6,2.9,9.4,3.2c-0.5-0.1-1-0.1-1.5,0
	c-0.1,0-0.2,0-0.4,0.1C7.2,2.6,7,2,6.8,1.3L5.9,1.5c0.2,0.7,0.4,1.3,0.7,1.9C5.8,3.8,4.9,4.2,4.2,4.9L2.8,3.4L2.2,4.1l1.4,1.4
	C2.9,6.2,2.5,7,2.2,7.9C1.5,7.6,0.9,7.4,0.2,7.2L0,8.1c0.7,0.2,1.3,0.4,1.9,0.7c0,0.1,0,0.2-0.1,0.4c-0.2,1.5,0.2,2.8,1.2,3.8
	c0.9,0.9,2.3,1.4,3.8,1.2c0.1,0,0.2,0,0.4-0.1c0.3,0.6,0.5,1.3,0.7,1.9l0.9-0.2c-0.2-0.7-0.4-1.3-0.7-1.9c0.8-0.3,1.7-0.8,2.4-1.4
	L11.9,13.8z M7.5,3.2c0.5,1.2,1.2,2.2,2.2,3.1c0.9,0.9,1.9,1.6,3.1,2.2l-0.2,0.9C11.3,8.8,10,8,9,7C8,6,7.2,4.7,6.6,3.5L7.5,3.2z
	 M6.4,11.4V9.6H4.6V8.6h1.9l0-1.9l0.9,0l0,1.9h1.9v0.9H7.4v1.9H6.4z"/>
</svg>
