<?xml version="1.0" encoding="utf-8"?>
<!-- Generator: Adobe Illustrator 23.0.1, SVG Export Plug-In . SVG Version: 6.00 Build 0)  -->
<svg version="1.1" id="Слой_1" xmlns="http://www.w3.org/2000/svg" xmlns:xlink="http://www.w3.org/1999/xlink" x="0px" y="0px"
	 viewBox="0 0 16 16" style="enable-background:new 0 0 16 16;" xml:space="preserve">
<style type="text/css">
	.st0{fill:#FFFFFF;}
</style>
<path class="st0" d="M15.3,11.5H15V8.3c0-1-0.8-1.8-1.8-1.8H9v-2h0.3c0.4,0,0.8-0.3,0.8-0.8V1.3c0-0.4-0.3-0.8-0.8-0.8H6.8
	C6.3,0.5,6,0.8,6,1.3v2.5c0,0.4,0.3,0.8,0.8,0.8H7v2H2.8C1.8,6.5,1,7.3,1,8.3v3.3H0.8c-0.4,0-0.8,0.3-0.8,0.8v2.5
	c0,0.4,0.3,0.8,0.8,0.8h2.5c0.4,0,0.8-0.3,0.8-0.8v-2.5c0-0.4-0.3-0.8-0.8-0.8H3v-3h4v3H6.8c-0.4,0-0.8,0.3-0.8,0.8v2.5
	c0,0.4,0.3,0.8,0.8,0.8h2.5c0.4,0,0.8-0.3,0.8-0.8v-2.5c0-0.4-0.3-0.8-0.8-0.8H9v-3h4v3h-0.3c-0.4,0-0.8,0.3-0.8,0.8v2.5
	c0,0.4,0.3,0.8,0.8,0.8h2.5c0.4,0,0.8-0.3,0.8-0.8v-2.5C16,11.8,15.7,11.5,15.3,11.5z M3,14.5H1v-2h2V14.5z M9,14.5H7v-2h2V14.5z
	 M7,3.5v-2h2v2H7z M15,14.5h-2v-2h2V14.5z"/>
</svg>
