<?xml version="1.0" encoding="utf-8"?>
<!-- Generator: Adobe Illustrator 23.0.1, SVG Export Plug-In . SVG Version: 6.00 Build 0)  -->
<svg version="1.1" id="Слой_1" xmlns="http://www.w3.org/2000/svg" xmlns:xlink="http://www.w3.org/1999/xlink" x="0px" y="0px"
	 viewBox="0 0 106.9 108.4" style="enable-background:new 0 0 106.9 108.4;" xml:space="preserve">
<style type="text/css">
	.st0{fill:#6A7284;}
</style>
<path class="st0" d="M79.2,92.9l4.4-4.4l-9.4-9.4c4.2-4.7,7.3-10.1,9.3-15.7c4.1,1.9,8.4,3.4,12.9,4.5l1.5-6
	c-4.4-1.1-8.7-2.6-12.8-4.5c0.1-0.8,0.3-1.6,0.4-2.5c0.4-3.6,0.3-7-0.3-10.2c2.3-0.9,4.4-2.2,6.2-4c2.6-2.6,4.2-5.8,4.8-9.2h10.2
	l0-6.2H96.3c-0.6-3.4-2.2-6.6-4.8-9.2s-5.8-4.2-9.2-4.8l0-10.2l-6.2,0v10.2c-3.4,0.6-6.6,2.2-9.2,4.8c-1.8,1.8-3.1,3.9-4,6.2
	c-3.2-0.6-6.6-0.7-10.2-0.3c-0.8,0.1-1.6,0.2-2.5,0.4c-1.9-4.1-3.4-8.4-4.5-12.8l-6,1.5c1.1,4.4,2.6,8.7,4.5,12.9
	c-5.6,1.9-11,5.1-15.7,9.3L19.1,24l-4.4,4.4l9.4,9.4c-4.2,4.7-7.3,10.1-9.3,15.7C10.7,51.6,6.4,50.1,2,49l-1.5,6
	c4.4,1.1,8.7,2.6,12.8,4.5c-0.1,0.8-0.3,1.6-0.4,2.5c-1.2,9.8,1.6,18.7,7.9,24.9c6.2,6.2,15.1,9,24.9,7.9c0.8-0.1,1.6-0.2,2.5-0.4
	c1.9,4.1,3.4,8.4,4.5,12.8l6-1.5c-1.1-4.4-2.6-8.7-4.5-12.9c5.6-1.9,11-5.1,15.7-9.3L79.2,92.9z M50.3,22.5
	c3.6,7.9,8.2,14.4,14.4,20.5c6.2,6.2,12.7,10.8,20.5,14.4l-1.6,6.1c-8.5-3.9-16.6-9.4-23.3-16.1c-6.7-6.7-12.2-14.8-16.1-23.3
	L50.3,22.5z M43.2,76.9V64.5H30.8l0-6.2l12.4,0V45.9l6.2,0l0,12.4h12.4v6.2H49.4v12.4H43.2z"/>
</svg>
