<?xml version="1.0" encoding="utf-8"?>
<!-- Generator: Adobe Illustrator 23.0.1, SVG Export Plug-In . SVG Version: 6.00 Build 0)  -->
<svg version="1.1" id="Слой_1" xmlns="http://www.w3.org/2000/svg" xmlns:xlink="http://www.w3.org/1999/xlink" x="0px" y="0px"
	 viewBox="0 0 16 16" style="enable-background:new 0 0 16 16;" xml:space="preserve">
<style type="text/css">
	.st0{fill:#FFFFFF;}
</style>
<g>
	<g>
		<path class="st0" d="M8,0C3.6,0,0,3.6,0,8s3.6,8,8,8s8-3.6,8-8S12.4,0,8,0z M12.5,5.9L7.4,11c-0.3,0.3-0.8,0.3-1.1,0L3.5,8.5
			C3.2,8.2,3.2,7.7,3.5,7.4c0.3-0.3,0.8-0.3,1.1,0l2.1,2l4.6-4.6c0.3-0.3,0.8-0.3,1.1,0C12.8,5.1,12.8,5.6,12.5,5.9z"/>
	</g>
</g>
</svg>
