<?xml version="1.0" encoding="utf-8"?>
<!-- Generator: Adobe Illustrator 23.0.1, SVG Export Plug-In . SVG Version: 6.00 Build 0)  -->
<svg version="1.1" id="Слой_1" xmlns="http://www.w3.org/2000/svg" xmlns:xlink="http://www.w3.org/1999/xlink" x="0px" y="0px"
	 viewBox="0 0 16 16" style="enable-background:new 0 0 16 16;" xml:space="preserve">
<style type="text/css">
	.st0{fill:#FFFFFF;}
</style>
<path class="st0" d="M2,14h14v2H0V0h2V14z M4.5,13C3.7,13,3,12.3,3,11.5S3.7,10,4.5,10c0,0,0.1,0,0.1,0l1.6-2.7C6.1,7.1,6,6.8,6,6.5
	C6,5.7,6.7,5,7.5,5S9,5.7,9,6.5c0,0.3-0.1,0.6-0.2,0.8l1.6,2.7c0,0,0.1,0,0.1,0c0,0,0.1,0,0.1,0l2.7-4.7C13.1,5.1,13,4.8,13,4.5
	C13,3.7,13.7,3,14.5,3S16,3.7,16,4.5S15.3,6,14.5,6c0,0-0.1,0-0.1,0l-2.7,4.7c0.2,0.2,0.3,0.5,0.3,0.8c0,0.8-0.7,1.5-1.5,1.5
	S9,12.3,9,11.5c0-0.3,0.1-0.6,0.2-0.8L7.6,8c0,0-0.1,0-0.1,0S7.4,8,7.4,8l-1.6,2.7C5.9,10.9,6,11.2,6,11.5C6,12.3,5.3,13,4.5,13z"/>
</svg>
