<?xml version="1.0" encoding="utf-8"?>
<!-- Generator: Adobe Illustrator 23.0.1, SVG Export Plug-In . SVG Version: 6.00 Build 0)  -->
<svg version="1.1" id="Layer_1" xmlns="http://www.w3.org/2000/svg" xmlns:xlink="http://www.w3.org/1999/xlink" x="0px" y="0px"
	 viewBox="0 0 16 16" style="enable-background:new 0 0 16 16;" xml:space="preserve">
<style type="text/css">
	.st0{fill:#FFFFFF;}
</style>
<title>ico154pl</title>
<g>
	<path class="st0" d="M11.2,0C8.7,0,6.7,2,6.7,4.5c0,0.8,0.2,1.5,0.5,2.1l-6.5,6.6c-0.5,0.5-0.5,1.4,0,1.9c0.3,0.3,0.6,0.4,0.9,0.4
		c0.3,0,0.7-0.1,1-0.4l0.8-0.8L5,16l1-1l-0.8-0.8l0.6-0.6l0.8,0.8l0.7-0.7L5.6,12l3.5-3.5C9.8,8.8,10.5,9,11.2,9
		c2.5,0,4.5-2,4.5-4.5S13.7,0,11.2,0z M11.2,7.4c-1.6,0-2.9-1.3-2.9-2.9s1.3-2.9,2.9-2.9c1.6,0,2.9,1.3,2.9,2.9S12.8,7.4,11.2,7.4z"
		/>
</g>
</svg>
