<?xml version="1.0" encoding="utf-8"?>
<!-- Generator: Adobe Illustrator 23.0.1, SVG Export Plug-In . SVG Version: 6.00 Build 0)  -->
<svg version="1.1" id="Layer_1" xmlns="http://www.w3.org/2000/svg" xmlns:xlink="http://www.w3.org/1999/xlink" x="0px" y="0px"
	 viewBox="0 0 16 16" style="enable-background:new 0 0 16 16;" xml:space="preserve">
<style type="text/css">
	.st0{fill:#FFFFFF;}
</style>
<title>ico154pl</title>
<g>
	<path class="st0" d="M15.6,0.2h-4.2c-0.2,0-0.4,0.2-0.4,0.4c0,0.1,0,0.2,0.1,0.3l1.8,1.8l-4,4L7.5,5.4C7.3,5.2,7,5.2,6.9,5.4
		l-6.7,6.7c-0.2,0.2-0.2,0.4,0,0.6c0.2,0.2,0.4,0.2,0.6,0c0,0,0,0,0,0l6.4-6.4l1.4,1.4c0.2,0.2,0.4,0.2,0.6,0l4.3-4.3l1.8,1.8
		c0.2,0.2,0.4,0.2,0.6,0C16,5.1,16,5,16,4.8V0.6C16,0.4,15.8,0.2,15.6,0.2z"/>
	<rect y="14.3" class="st0" width="16" height="1.7"/>
</g>
</svg>
