<?xml version="1.0" encoding="utf-8"?>
<!-- Generator: Adobe Illustrator 23.0.1, SVG Export Plug-In . SVG Version: 6.00 Build 0)  -->
<svg version="1.1" id="Слой_1" xmlns="http://www.w3.org/2000/svg" xmlns:xlink="http://www.w3.org/1999/xlink" x="0px" y="0px"
	 viewBox="0 0 56.7 56.7" style="enable-background:new 0 0 56.7 56.7;" xml:space="preserve">
<style type="text/css">
	.st0{fill:#FFFFFF;}
</style>
<g>
	<path class="st0" d="M40.9,33.7V23.6c0-1.4-1.1-2.5-2.5-2.5h-2.5v15.1h2.5C39.8,36.2,40.9,35.1,40.9,33.7z"/>
	<path class="st0" d="M20.8,23.6c0-1.4-1.1-2.5-2.5-2.5s-2.5,1.1-2.5,2.5v7.6h5C20.8,31.2,20.8,23.6,20.8,23.6z"/>
	<path class="st0" d="M3.2,54.3h50.4c1.4,0,2.5-1.1,2.5-2.5V5.5C56.1,4.1,55,3,53.6,3H3.2C1.8,3,0.6,4.1,0.6,5.5v46.3
		C0.6,53.2,1.8,54.3,3.2,54.3z M30.9,18.6c0-1.4,1.1-2.5,2.5-2.5h5c4.2,0,7.6,3.4,7.6,7.6v10.1c0,4.2-3.4,7.6-7.6,7.6h-5
		c-1.4,0-2.5-1.1-2.5-2.5C30.9,38.9,30.9,18.6,30.9,18.6z M10.7,23.6c0-4.2,3.4-7.6,7.6-7.6s7.6,3.4,7.6,7.6v15.1
		c0,1.4-1.1,2.5-2.5,2.5s-2.5-1.1-2.5-2.5v-2.5h-5v2.5c0,1.4-1.1,2.5-2.5,2.5s-2.5-1.1-2.5-2.5V23.6H10.7z"/>
</g>
</svg>
