<svg id="Layer_1" data-name="Layer 1" xmlns="http://www.w3.org/2000/svg" viewBox="0 0 16 16"><defs><style>.cls-1{fill:#fff;}</style></defs><title>ico154pl</title><path class="cls-1" d="M12.52,14.09h-9A.51.51,0,0,1,3,13.57V12.05a1.86,1.86,0,0,1,1.09-1.69C6,9.5,5.89,9.53,6,9.53h.61a.51.51,0,0,1,.5.39.88.88,0,0,0,1.7,0,.51.51,0,0,1,.5-.39c.66,0,.69,0,.82,0l1.77.79A1.86,1.86,0,0,1,13,12.05v1.52a.51.51,0,0,1-.51.52ZM8,1.91a3.15,3.15,0,1,0,3.16,3.15A3.15,3.15,0,0,0,8,1.91ZM3,5.28a2,2,0,1,0,2,2A2,2,0,0,0,3,5.28Zm9.92,0a2,2,0,1,0,2,2A2,2,0,0,0,13,5.28ZM15.25,10c-1.07-.48-1-.49-1.19-.49H12.45a.32.32,0,0,0-.15.61,1.72,1.72,0,0,1,.57.43,2.24,2.24,0,0,1,.56,1.64.33.33,0,0,0,.33.33h1.72A.52.52,0,0,0,16,12v-.85A1.25,1.25,0,0,0,15.25,10ZM1.94,9.52c-.15,0-.12,0-1.19.49A1.25,1.25,0,0,0,0,11.16V12a.52.52,0,0,0,.52.52H2.24a.33.33,0,0,0,.33-.33,2.2,2.2,0,0,1,.56-1.64,1.86,1.86,0,0,1,.57-.43.32.32,0,0,0-.15-.61Z"/></svg>