<?xml version="1.0" encoding="utf-8"?>
<!-- Generator: Adobe Illustrator 23.0.1, SVG Export Plug-In . SVG Version: 6.00 Build 0)  -->
<svg version="1.1" id="Слой_1" xmlns="http://www.w3.org/2000/svg" xmlns:xlink="http://www.w3.org/1999/xlink" x="0px" y="0px"
	 viewBox="0 0 56.7 56.7" style="enable-background:new 0 0 56.7 56.7;" xml:space="preserve">
<style type="text/css">
	.st0{fill:#FFFFFF;}
</style>
<g>
	<path class="st0" d="M34.6,23.8c-1.8,0-3.2,0.8-3.9,2.3v8.9c0.8,1.6,2.1,2.3,4,2.3c1.4,0,2.5-0.6,3.3-1.7c0.8-1.2,1.2-2.9,1.2-5.2
		c0-2-0.4-3.6-1.2-4.7C37.2,24.4,36.1,23.8,34.6,23.8z"/>
	<path class="st0" d="M28.3,0C12.7,0,0,12.7,0,28.3C0,44,12.7,56.7,28.3,56.7C44,56.7,56.7,44,56.7,28.3C56.7,12.7,44,0,28.3,0z
		 M21.3,40.4h-4.5v-20h4.5V40.4z M21,17c-0.4,0.4-1.1,0.7-1.9,0.7s-1.4-0.2-1.9-0.7c-0.4-0.4-0.7-1-0.7-1.7c0-0.7,0.2-1.3,0.7-1.7
		c0.4-0.5,1.1-0.7,1.9-0.7s1.4,0.2,1.9,0.7c0.4,0.5,0.7,1,0.7,1.7C21.6,16,21.4,16.5,21,17z M43.7,30.7c0,3.1-0.7,5.6-2.1,7.4
		c-1.4,1.8-3.3,2.8-5.6,2.8c-2.2,0-3.9-0.7-5.3-2.2v9.5h-4.5V20.5h4.1l0.2,2c1.3-1.6,3.1-2.4,5.4-2.4c2.4,0,4.3,0.9,5.7,2.7
		c1.4,1.8,2.1,4.3,2.1,7.6V30.7z"/>
</g>
</svg>
