<?xml version="1.0" encoding="utf-8"?>
<!-- Generator: Adobe Illustrator 23.0.1, SVG Export Plug-In . SVG Version: 6.00 Build 0)  -->
<svg version="1.1" id="Слой_1" xmlns="http://www.w3.org/2000/svg" xmlns:xlink="http://www.w3.org/1999/xlink" x="0px" y="0px"
	 viewBox="0 0 56.7 56.7" style="enable-background:new 0 0 56.7 56.7;" xml:space="preserve">
<style type="text/css">
	.st0{fill:#FFFFFF;}
</style>
<g>
	<g>
		<path class="st0" d="M29,26c0.2,0.2,0.4,0.3,0.6,0.3h26.1c0.2,0,0.5-0.1,0.6-0.3c0.2-0.2,0.2-0.4,0.2-0.7c-0.7-7-4-13.4-9.2-18.1
			C42.2,2.6,35.5,0,28.4,0C22,0,15.7,2.2,10.7,6.3c-0.2,0.2-0.3,0.4-0.3,0.6c0,0.2,0.1,0.5,0.3,0.7L29,26z M25.5,16.1L33,5
			c0.9,0.2,1.7,0.4,2.5,0.6l-8.2,12.3L25.5,16.1z M28.4,4.5c0.2,0,0.4,0,0.7,0L23,13.6l-2-2l4.9-7C26.8,4.6,27.6,4.5,28.4,4.5
			L28.4,4.5z M20.9,5.7l-2.4,3.4l-1.6-1.6C18,6.9,19.1,6.4,20.2,6C20.5,5.9,20.7,5.8,20.9,5.7L20.9,5.7z M43.1,21.7l4.8-7.2
			c0.3,0.5,0.6,0.9,0.9,1.4l-3.9,5.7H43.1z M49.1,21.7l1.5-2.2c0.3,0.7,0.5,1.4,0.7,2.2H49.1z M36.1,21.7l7.7-11.6
			c0.2,0.2,0.5,0.4,0.7,0.6c0.3,0.3,0.7,0.7,1,1l-6.6,10H36.1z M31.9,21.7h-0.8l-1.3-1.3l9-13.5c0.7,0.4,1.4,0.7,2.1,1.2L31.9,21.7z
			 M31.9,21.7"/>
		<path class="st0" d="M25.3,28.2L7.7,10.5c-0.2-0.2-0.4-0.3-0.7-0.3c-0.2,0-0.5,0.1-0.6,0.3c-4,5-6.3,11.3-6.3,17.8
			c0,8.8,4,17,11,22.4c0.2,0.1,0.3,0.2,0.5,0.2c0.1,0,0.1,0,0.2,0c0.2,0,0.5-0.2,0.6-0.4l13.1-21.3C25.6,28.9,25.6,28.4,25.3,28.2
			L25.3,28.2z M20.1,29.3l-9.3,15c-1.4-1.6-2.7-3.3-3.6-5.2c-1.7-3.4-2.6-7-2.6-10.8c0-2.8,0.5-5.6,1.5-8.2C6.5,19,7,17.9,7.6,16.8
			L20.1,29.3z M20.1,29.3"/>
		<path class="st0" d="M55.7,30.4H30.1c-0.3,0-0.6,0.2-0.7,0.4L15.9,52.7c-0.1,0.2-0.2,0.5-0.1,0.7c0.1,0.2,0.2,0.4,0.5,0.5
			c3.8,1.8,7.9,2.7,12.2,2.7c7,0,13.8-2.6,19-7.2c5.2-4.7,8.4-11.1,9.2-18.1c0-0.2-0.1-0.5-0.2-0.7C56.2,30.5,56,30.4,55.7,30.4
			L55.7,30.4z M55.7,30.4"/>
	</g>
</g>
</svg>
