<?xml version="1.0" encoding="utf-8"?>
<!-- Generator: Adobe Illustrator 23.0.0, SVG Export Plug-In . SVG Version: 6.00 Build 0)  -->
<svg version="1.1" id="Слой_1" xmlns="http://www.w3.org/2000/svg" xmlns:xlink="http://www.w3.org/1999/xlink" x="0px" y="0px"
	 viewBox="0 0 106.9 108.4" style="enable-background:new 0 0 106.9 108.4;" xml:space="preserve">
<style type="text/css">
	.st0{fill:#6A7284;}
</style>
<g>
	<path class="st0" d="M59.3,48.3c4.5,4.5,11.9,4.5,16.4,0c4.5-4.5,4.5-11.9,0-16.4c-2.3-2.3-5.2-3.4-8.2-3.4c-3,0-5.9,1.1-8.2,3.4
		C54.8,36.4,54.8,43.8,59.3,48.3z M61.6,34.2c3.3-3.3,8.6-3.3,11.9,0c0.7,0.7,0.7,1.8,0,2.5c-0.7,0.7-1.8,0.7-2.5,0
		c-1.9-1.9-5-1.9-6.9,0c-1.9,1.9-1.9,5,0,6.9c1.9,1.9,5,1.9,6.9,0c0.7-0.7,1.8-0.7,2.5,0c0.7,0.7,0.7,1.8,0,2.5
		c-1.6,1.6-3.8,2.5-5.9,2.5c-2.2,0-4.3-0.8-5.9-2.5C58.3,42.8,58.3,37.4,61.6,34.2z"/>
	<path class="st0" d="M105.7,3.5c-0.1-0.9-0.7-1.5-1.6-1.6C103.8,1.8,88,0.7,69.4,9l29.2,29.2C106.9,19.6,105.8,3.8,105.7,3.5z"/>
	<path class="st0" d="M31.9,41.6l-13.7-0.9c-0.8-0.1-1.5,0.4-1.7,1.1L5.8,68.9c-0.3,0.7-0.1,1.6,0.6,2c0.3,0.2,0.7,0.4,1.1,0.4
		c0.4,0,0.7-0.1,1-0.3l8.8-6.6l4.6,0.9l6.9,6.9l-1.9,3.4c-2.3-1.1-5-1.4-7.6-0.8c-3.5,0.9-6.4,3.3-7.8,6.6L1.2,104.1
		c-0.3,0.7-0.2,1.4,0.4,2c0.3,0.3,0.8,0.5,1.2,0.5c0.2,0,0.5-0.1,0.7-0.2l22.7-10.3c3.3-1.5,5.7-4.3,6.5-7.8
		c0.7-2.7,0.3-5.5-0.9-7.8l3.3-2l7.2,7.2l0.9,4.6l-6.6,8.8c-0.5,0.6-0.5,1.5,0,2.1c0.3,0.4,0.9,0.7,1.4,0.7c0.2,0,0.4,0,0.6-0.1
		l27.1-10.6c0.7-0.3,1.2-1,1.1-1.7L66,75.7c15.7-10.2,25.3-22.6,31.1-34.2l-31-31C54.5,16.3,42.1,25.9,31.9,41.6z M29.9,77.6
		l2.5-4.5c0.1-0.1,0.2-0.2,0.2-0.3l8.3-15.1h9v7.8L29.9,77.6z M17.2,60.8c-0.5-0.1-1,0-1.4,0.3l-4.5,3.4l7.9-20.2L29.8,45
		c-0.4,0.7-0.8,1.5-1.2,2.2c-0.2,0.4-0.4,0.8-0.7,1.2c-0.6,1.1-1.2,2.2-1.8,3.4c-0.2,0.4-0.4,0.7-0.6,1.1c-0.7,1.5-1.4,3-2.1,4.6
		c-0.2,0.4-0.4,0.9-0.6,1.4c-0.4,0.9-0.8,1.9-1.2,2.8L17.2,60.8z M29.4,87.4c-0.6,2.5-2.3,4.5-4.6,5.5l-18.5,8.4l8.4-18.5
		c1-2.3,3.1-4,5.5-4.6c0.6-0.2,1.3-0.2,1.9-0.2c1.1,0,2.1,0.2,3.1,0.7c-0.4,0.7-0.8,1.4-1.2,2.1c-0.5,1-1.1,2.2,0,3
		c1,0.8,2,0.2,2.9-0.4c0.7-0.4,1.3-0.8,2-1.1C29.6,83.9,29.8,85.7,29.4,87.4z M62.6,77.8l0.7,10.5l-20.2,7.9l3.4-4.5
		c0.3-0.4,0.4-0.9,0.3-1.4L46,85.9c1-0.4,1.9-0.8,2.8-1.2c0.4-0.2,0.9-0.4,1.3-0.5c1.6-0.7,3.1-1.4,4.6-2.1c0.4-0.2,0.7-0.4,1.1-0.5
		c1.2-0.6,2.3-1.2,3.4-1.8c0.4-0.2,0.8-0.4,1.2-0.7C61.1,78.7,61.9,78.3,62.6,77.8z M78.2,29.4c5.9,5.9,5.9,15.4,0,21.3
		c-2.9,2.9-6.8,4.4-10.7,4.4s-7.7-1.5-10.7-4.4c-5.9-5.9-5.9-15.4,0-21.3S72.3,23.6,78.2,29.4z"/>
</g>
</svg>
