<?xml version="1.0" encoding="utf-8"?>
<!-- Generator: Adobe Illustrator 24.0.0, SVG Export Plug-In . SVG Version: 6.00 Build 0)  -->
<svg version="1.1" id="Layer_1" xmlns="http://www.w3.org/2000/svg" xmlns:xlink="http://www.w3.org/1999/xlink" x="0px" y="0px"
	 viewBox="0 0 16 16" style="enable-background:new 0 0 16 16;" xml:space="preserve">
<style type="text/css">
	.st0{fill:#FFFFFF;}
</style>
<title>ico157pl</title>
<g>
	<path class="st0" d="M16,10.8c0-2-1.1-3.8-2.8-4.6c-0.1,3.8-3.1,6.9-6.9,6.9c0.9,1.7,2.6,2.8,4.6,2.8c0.9,0,1.8-0.2,2.6-0.7L16,16
		l-0.7-2.5C15.8,12.7,16,11.8,16,10.8z"/>
	<path class="st0" d="M12.2,6.1C12.2,2.7,9.5,0,6.1,0S0,2.7,0,6.1c0,1.1,0.3,2.2,0.8,3.1l-0.8,3l3-0.8c0.9,0.6,2,0.8,3.1,0.8
		C9.5,12.2,12.2,9.5,12.2,6.1z M5.2,4.7H4.2c0-1,0.8-1.9,1.9-1.9S8,3.7,8,4.7c0,0.5-0.2,1-0.6,1.4L6.6,6.8v0.7H5.6V6.4l1.1-1
		C6.9,5.2,7,5,7,4.7c0-0.5-0.4-0.9-0.9-0.9S5.2,4.2,5.2,4.7z M5.6,8.5h0.9v0.9H5.6V8.5z"/>
</g>
</svg>
