<?xml version="1.0" encoding="utf-8"?>
<!-- Generator: Adobe Illustrator 23.0.0, SVG Export Plug-In . SVG Version: 6.00 Build 0)  -->
<svg version="1.1" id="Слой_1" xmlns="http://www.w3.org/2000/svg" xmlns:xlink="http://www.w3.org/1999/xlink" x="0px" y="0px"
	 viewBox="0 0 106.9 108.4" style="enable-background:new 0 0 106.9 108.4;" xml:space="preserve">
<style type="text/css">
	.st0{fill:#6A7284;}
</style>
<path class="st0" d="M53.3,1c18.9-0.7,34.3,14,37.1,30.1c1.4,7.8,0.3,15.3-2.4,22.6c-2.9,8.2-6.7,16-11.5,23.2
	C71,85,65.4,93.1,59.7,101.1c-1.4,2-3.3,3.7-5,5.6c-0.9,1-1.7,0.8-2.5-0.1c-1.8-2.2-3.8-4.2-5.5-6.5C40.4,91.3,34,82.6,28.1,73.5
	c-4.8-7.4-8.1-15.7-10.6-24.2c-5.2-18.2,2.4-36.1,18.8-44.5C41.7,2.2,46.7,1,53.3,1z M67,38.2c0-7.1-6.4-13.4-13.5-13.4
	S40,31.2,40.1,38.3c0.1,6.6,4.6,13.4,13.2,13.6C61.9,52,66.8,45.2,67,38.2z"/>
</svg>
