<?xml version="1.0" encoding="utf-8"?>
<!-- Generator: Adobe Illustrator 23.0.0, SVG Export Plug-In . SVG Version: 6.00 Build 0)  -->
<svg version="1.1" id="Слой_1" xmlns="http://www.w3.org/2000/svg" xmlns:xlink="http://www.w3.org/1999/xlink" x="0px" y="0px"
	 viewBox="0 0 106.9 108.4" style="enable-background:new 0 0 106.9 108.4;" xml:space="preserve">
<style type="text/css">
	.st0{fill:#FFFFFF;}
</style>
<g>
	<path class="st0" d="M103.7,93.3L82.1,71.6c5.2-7.5,7.8-15.9,7.8-25.2c0-6-1.2-11.8-3.5-17.3C84.1,23.7,80.9,19,76.9,15
		c-4-4-8.7-7.1-14.2-9.5C57.2,3.2,51.5,2,45.5,2c-6,0-11.8,1.2-17.3,3.5C22.7,7.9,18,11,14,15c-4,4-7.1,8.7-9.5,14.2
		C2.2,34.7,1,40.5,1,46.5c0,6,1.2,11.8,3.5,17.3C6.9,69.2,10,73.9,14,77.9c4,4,8.7,7.1,14.2,9.5c5.5,2.3,11.2,3.5,17.3,3.5
		c9.3,0,17.6-2.6,25.2-7.8l21.6,21.6c1.5,1.6,3.4,2.4,5.7,2.4c2.2,0,4.1-0.8,5.7-2.4c1.6-1.6,2.4-3.5,2.4-5.7
		C106,96.7,105.3,94.8,103.7,93.3z M65.4,66.4c-5.5,5.5-12.2,8.3-20,8.3c-7.8,0-14.4-2.8-20-8.3c-5.5-5.5-8.3-12.2-8.3-20
		c0-7.8,2.8-14.4,8.3-20c5.5-5.5,12.2-8.3,20-8.3c7.8,0,14.4,2.8,20,8.3c5.5,5.5,8.3,12.2,8.3,20C73.7,54.2,71,60.9,65.4,66.4z"/>
</g>
</svg>
