<?xml version="1.0" encoding="utf-8"?>
<!-- Generator: Adobe Illustrator 23.0.0, SVG Export Plug-In . SVG Version: 6.00 Build 0)  -->
<svg version="1.1" id="Слой_1" xmlns="http://www.w3.org/2000/svg" xmlns:xlink="http://www.w3.org/1999/xlink" x="0px" y="0px"
	 viewBox="0 0 56.7 56.7" style="enable-background:new 0 0 56.7 56.7;" xml:space="preserve">
<style type="text/css">
	.st0{fill-rule:evenodd;clip-rule:evenodd;fill:#FFFFFF;}
</style>
<g>
	<g>
		<path class="st0" d="M56.5,25.2c-0.1-0.8-1-1.4-1.8-1.4c-2.6,0-4.9-1.5-5.9-3.9c-1-2.4-0.4-5.2,1.6-7c0.6-0.6,0.7-1.5,0.2-2.1
			c-1.3-1.7-2.8-3.2-4.5-4.5c-0.6-0.5-1.6-0.4-2.2,0.2C42.2,8.3,39.2,9,36.9,8c-2.4-1-4-3.5-3.8-6.2c0-0.8-0.6-1.6-1.4-1.7
			c-2.1-0.2-4.3-0.3-6.4,0c-0.8,0.1-1.4,0.8-1.4,1.6c0.1,2.6-1.5,5.1-3.9,6c-2.3,0.9-5.3,0.3-7-1.6c-0.6-0.6-1.5-0.7-2.1-0.2
			c-1.7,1.3-3.2,2.9-4.6,4.5c-0.5,0.7-0.4,1.6,0.2,2.2c2,1.8,2.6,4.6,1.6,7.1c-1,2.3-3.4,3.8-6.2,3.8c-0.9,0-1.5,0.6-1.6,1.4
			c-0.2,2.1-0.3,4.3,0,6.4c0.1,0.8,1,1.4,1.9,1.4c2.5-0.1,4.8,1.5,5.8,3.9c1,2.4,0.4,5.2-1.6,7c-0.6,0.6-0.7,1.5-0.2,2.1
			c1.3,1.7,2.8,3.2,4.5,4.5c0.6,0.5,1.6,0.5,2.2-0.2c1.7-1.9,4.7-2.6,7.1-1.6c2.4,1,4,3.5,3.8,6.2c0,0.8,0.6,1.6,1.4,1.7
			c1.1,0.1,2.2,0.2,3.3,0.2c1,0,2.1-0.1,3.1-0.2c0.8-0.1,1.4-0.8,1.4-1.6c-0.1-2.6,1.5-5.1,3.9-6c2.3-1,5.3-0.3,7,1.6
			c0.6,0.6,1.5,0.7,2.1,0.2c1.7-1.3,3.2-2.9,4.6-4.5c0.5-0.6,0.4-1.6-0.2-2.2c-2-1.8-2.6-4.6-1.6-7.1c1-2.3,3.3-3.8,5.8-3.8l0.4,0
			c0.8,0.1,1.6-0.6,1.7-1.4C56.8,29.5,56.8,27.3,56.5,25.2L56.5,25.2z M28.4,37.9c-5.2,0-9.5-4.2-9.5-9.5c0-5.2,4.2-9.5,9.5-9.5
			c5.2,0,9.5,4.2,9.5,9.5C37.8,33.6,33.6,37.9,28.4,37.9L28.4,37.9z M28.4,37.9"/>
	</g>
</g>
</svg>
