<?xml version="1.0" encoding="utf-8"?>
<!-- Generator: Adobe Illustrator 23.0.0, SVG Export Plug-In . SVG Version: 6.00 Build 0)  -->
<svg version="1.1" id="Слой_1" xmlns="http://www.w3.org/2000/svg" xmlns:xlink="http://www.w3.org/1999/xlink" x="0px" y="0px"
	 viewBox="0 0 106.9 108.4" style="enable-background:new 0 0 106.9 108.4;" xml:space="preserve">
<style type="text/css">
	.st0{fill:#6A7284;}
</style>
<g>
	<path class="st0" d="M27.8,31.2H4.7c-1.9,0-3.4,1.5-3.4,3.4v67c0,1.9,1.5,3.4,3.4,3.4h23.2c1.9,0,3.4-1.5,3.4-3.4v-67
		C31.3,32.7,29.7,31.2,27.8,31.2L27.8,31.2z M24.5,98.2H8V38h16.4V98.2z M24.5,98.2"/>
	<path class="st0" d="M102.2,49H79.1c-1.9,0-3.4,1.5-3.4,3.4v49.2c0,1.9,1.5,3.4,3.4,3.4h23.2c1.9,0,3.4-1.5,3.4-3.4V52.4
		C105.6,50.5,104.1,49,102.2,49L102.2,49z M82.4,55.8h5.3L82.4,61V55.8z M82.4,66.4l10.6-10.6h5.4l-16,16V66.4z M98.9,98.2h-5.3
		l5.3-5.3V98.2z M98.9,87.6L88.2,98.2h-5.4l16-16L98.9,87.6L98.9,87.6z M98.9,76.8L82.4,93.3v-5.4l16.4-16.4V76.8z M98.9,66.1
		L82.4,82.5v-5.4l16.4-16.4V66.1z M98.9,66.1"/>
	<path class="st0" d="M65.1,4H41.8c-1.9,0-3.4,1.5-3.4,3.4v94.2c0,1.9,1.5,3.4,3.4,3.4H65c1.9,0,3.4-1.5,3.4-3.4V7.4
		C68.4,5.5,66.9,4,65.1,4L65.1,4z M65.1,4"/>
</g>
</svg>
