<?xml version="1.0" encoding="utf-8"?>
<!-- Generator: Adobe Illustrator 23.0.0, SVG Export Plug-In . SVG Version: 6.00 Build 0)  -->
<svg version="1.1" id="Слой_1" xmlns="http://www.w3.org/2000/svg" xmlns:xlink="http://www.w3.org/1999/xlink" x="0px" y="0px"
	 viewBox="0 0 56.7 56.7" style="enable-background:new 0 0 56.7 56.7;" xml:space="preserve">
<style type="text/css">
	.st0{fill:#FFFFFF;}
</style>
<g>
	<g>
		<path class="st0" d="M56.4,2.3c-0.3-0.2-0.6-0.3-0.9-0.1l-55,25.6C0.2,27.9,0,28.2,0,28.5s0.2,0.6,0.5,0.8L16,36.9
			c0.3,0.1,0.6,0.1,0.9-0.1L32,25.5L20.2,37.7c-0.2,0.2-0.3,0.4-0.2,0.7l1.2,15.4c0,0.3,0.3,0.6,0.6,0.7c0.1,0,0.2,0,0.3,0
			c0.2,0,0.5-0.1,0.6-0.3l8.3-9.6l10.2,4.9c0.2,0.1,0.5,0.1,0.7,0s0.4-0.3,0.5-0.5L56.7,3.2C56.8,2.9,56.7,2.5,56.4,2.3L56.4,2.3z"
			/>
	</g>
</g>
</svg>
