<?xml version="1.0" encoding="utf-8"?>
<!-- Generator: Adobe Illustrator 23.0.1, SVG Export Plug-In . SVG Version: 6.00 Build 0)  -->
<svg version="1.1" id="Слой_1" xmlns="http://www.w3.org/2000/svg" xmlns:xlink="http://www.w3.org/1999/xlink" x="0px" y="0px"
	 viewBox="0 0 16 16" style="enable-background:new 0 0 16 16;" xml:space="preserve">
<style type="text/css">
	.st0{fill:#FFFFFF;}
</style>
<path class="st0" d="M16,4.7l-1.5-1.5l-3,3L9.8,4.5l3-3L11.3,0l-3,3L6.4,1.1L4.9,2.5l8.5,8.5l1.4-1.4L13,7.7L16,4.7z"/>
<path class="st0" d="M12.2,11.2L4.8,3.8c-1.6,1.9-3.4,4.9-2.2,7.4l-2.2,2.2c-0.5,0.5-0.5,1.4,0,1.9l0.2,0.2c0.5,0.5,1.4,0.5,1.9,0
	l2.2-2.2C7.3,14.7,10.2,12.8,12.2,11.2z"/>
</svg>
