<?xml version="1.0" encoding="utf-8"?>
<!-- Generator: Adobe Illustrator 23.0.1, SVG Export Plug-In . SVG Version: 6.00 Build 0)  -->
<svg version="1.1" id="Слой_1" xmlns="http://www.w3.org/2000/svg" xmlns:xlink="http://www.w3.org/1999/xlink" x="0px" y="0px"
	 viewBox="0 0 516.9 357" style="enable-background:new 0 0 516.9 357;" xml:space="preserve">
<style type="text/css">
	.st0{opacity:0.75;}
	.st1{fill:#4A4A4A;}
	.st2{opacity:0.3;fill:#F3F3F3;}
	.st3{fill:#FFFFFF;}
	.st4{opacity:0.2;}
	.st5{fill:#E6E6E6;}
	.st6{fill:#CCCCCC;}
	.st7{fill:#8D8D8D;}
	.st8{opacity:0.3;}
	.st9{opacity:0.4;fill:#F3F3F3;}
	.st10{fill:#C5C5C5;}
	.st11{fill:#808080;}
	.st12{fill:#686868;}
	.st13{opacity:0.5;fill:#383838;}
	.st14{fill:#777777;}
	.st15{fill:#8B8B8B;}
	.st16{fill:#959595;}
	.st17{fill:#828282;}
	.st18{opacity:0.5;fill:#D2D2D2;}
	.st19{opacity:0.3;fill:#202020;}
	.st20{display:none;}
	.st21{display:inline;fill:#EA4D50;}
	.st22{display:inline;fill:#E53435;}
	.st23{fill:#EA4D50;}
	.st24{fill:#E53435;}
</style>
<g class="st0">
	<g>
		<g>
			<g>
				<g>
					<g>
						<path class="st1" d="M298,144c-0.2,0-0.3-0.1-0.5-0.1c-2.3-0.4-4.6,1.2-4.9,3.6c-4,24.7,4.3,40.3,12,49.1
							c8.4,9.5,17.7,13.1,18.1,13.2c2.2,0.8,4.7-0.3,5.5-2.5c0.8-2.2-0.3-4.7-2.5-5.5c-1.3-0.5-31.2-12.3-24.6-52.8
							C301.4,146.7,300.1,144.6,298,144z"/>
						<path class="st2" d="M294.4,148c-4,24.7,4.3,40.3,12,49.1c7.2,8.1,15.1,11.9,17.4,12.9c-0.4,0-0.8-0.1-1.1-0.2
							c-0.4-0.1-9.8-3.7-18.1-13.2c-7.7-8.7-16-24.3-12-49.1c0.4-2.3,2.6-3.9,4.9-3.6c0.2,0,0.3,0.1,0.5,0.1
							c0.3,0.1,0.6,0.2,0.9,0.4C296.7,144.3,294.8,145.8,294.4,148z"/>
						<g>
							<polygon class="st3" points="290,153.4 290.8,146.5 301.8,148.8 301.4,155 							"/>
							<path class="st4" d="M290.5,149.3l0.2-2.1c1.3,0.9,2.7,1.7,4.3,2.1c2.3,0.6,4.5,0.7,6.7,0.2l-0.1,2c-2.3,0.4-4.7,0.3-7.1-0.3
								C293.1,150.7,291.7,150.1,290.5,149.3z"/>
							<path class="st3" d="M298.8,150.8c-8.2-0.1-14.8-6.8-14.7-15c0.1-8.2,6.8-14.8,15-14.7c8.2,0.1,14.8,6.8,14.7,15
								C313.7,144.3,306.9,150.9,298.8,150.8z M298.9,127.9c-4.5,0-8.1,3.6-8.1,8c0,4.5,3.6,8.1,8,8.1c4.5,0,8.1-3.6,8.1-8
								C307,131.6,303.4,127.9,298.9,127.9z"/>
							<path class="st2" d="M303.5,129.4c2.1,1.5,3.5,3.9,3.4,6.7c0,4.5-3.7,8.1-8.1,8c-1.4,0-2.6-0.4-3.7-1
								c1.3,0.9,2.9,1.5,4.6,1.5c4.5,0,8.1-3.6,8.1-8C307.8,133.4,306.1,130.7,303.5,129.4z M284.9,136.4c0.1-8.2,6.8-14.8,15-14.7
								c2.6,0,5,0.7,7.1,1.8c-2.3-1.5-5-2.3-7.9-2.4c-8.2-0.1-14.9,6.6-15,14.7c0,5.6,3.1,10.6,7.7,13.1
								C287.6,146.3,284.8,141.7,284.9,136.4z"/>
						</g>
					</g>
					<g>
						<path class="st1" d="M419.5,281.2c0.2,0,0.3,0.1,0.5,0.1c2.4,0.3,4.5-1.4,4.8-3.8c3-24.9-5.9-40.1-14-48.5
							c-8.8-9.1-18.3-12.3-18.7-12.4c-2.3-0.7-4.7,0.5-5.4,2.8c-0.7,2.3,0.5,4.7,2.8,5.4c1.3,0.4,31.7,11,26.8,51.7
							C415.9,278.7,417.4,280.7,419.5,281.2z"/>
						<path class="st2" d="M422.9,277.1c3-24.9-5.9-40.1-14-48.5c-7.5-7.8-15.6-11.3-18-12.2c0.4,0,0.8,0.1,1.2,0.2
							c0.4,0.1,9.9,3.3,18.7,12.4c8,8.4,17,23.6,14,48.5c-0.3,2.4-2.4,4-4.8,3.8c-0.2,0-0.3,0-0.5-0.1c-0.3-0.1-0.6-0.2-0.9-0.3
							C420.7,280.9,422.6,279.3,422.9,277.1z"/>
						<g>
							<polygon class="st3" points="427,271.5 426.5,278.5 415.5,276.7 415.7,270.5 							"/>
							<path class="st4" d="M426.8,275.7l-0.2,2.2c-1.3-0.9-2.8-1.5-4.4-1.9c-2.3-0.5-4.6-0.5-6.7,0.1l0.1-2c2.3-0.5,4.7-0.5,7.1,0
								C424.1,274.4,425.5,275,426.8,275.7z"/>
							<path class="st3" d="M422.4,296.7c2.2-1,3.8-3,4.4-5.4c1-4.3-1.7-8.7-6-9.7c-4.3-1-8.7,1.7-9.7,6c-0.5,2.2-0.1,4.4,1,6.2
								l-4.5,5.2c-2.9-3.5-4.2-8.2-3.1-12.9c1.9-8,9.9-12.9,17.9-11c8,1.9,12.9,9.9,11,17.9c-1.2,5.2-5.1,9.1-9.8,10.7L422.4,296.7z
								"/>
							<path class="st2" d="M432.5,292.6c-1.2,4.9-4.6,8.6-9,10.3l0.1,0.5c4.7-1.6,8.6-5.5,9.8-10.7c1.9-8-3-16-11-17.9
								c-0.2,0-0.3-0.1-0.5-0.1C429.6,277,434.3,284.8,432.5,292.6z M407,298.2c0.2,0.2,0.3,0.5,0.5,0.7l4.5-5.2
								c-1.1-1.8-1.5-4-1-6.2c1-4.2,5.1-6.8,9.3-6.1c-0.2,0-0.3-0.1-0.5-0.1c-4.3-1-8.7,1.7-9.7,6c-0.5,2.2-0.1,4.4,1,6.2L407,298.2
								z"/>
						</g>
					</g>
					<g>
						<path class="st5" d="M331.7,311.5L331.7,311.5c-4.7-1.6-7.2-6.6-5.7-11.2l14.7-44.6l16.9,5.6l-14.7,44.6
							C341.4,310.5,336.4,313,331.7,311.5z"/>
						<path class="st6" d="M349.6,259.2l-0.9-0.3l-17.3,52.5c0,0,0.2,0.1,0.4,0.2l0,0c0.2,0.1,0.5,0.1,0.5,0.1L349.6,259.2z"/>
						<path class="st6" d="M332.6,309.1c-4.5-1.5-7.2-6.6-5.7-11.2l-0.8,2.5c-1.5,4.7,1.2,9.8,5.7,11.2s9.7-1,11.3-5.6l0.8-2.5
							C342.3,308.2,337.1,310.6,332.6,309.1z"/>
						<polygon class="st6" points="336.5,268.7 353.8,272.9 352.8,276.1 335.6,271.4 						"/>
					</g>
					<g>
						
							<rect x="323.6" y="197.6" transform="matrix(0.9855 0.1696 -0.1696 0.9855 40.0604 -52.9534)" class="st7" width="12.6" height="20.8"/>
						
							<rect x="382.6" y="211.6" transform="matrix(-0.9565 -0.2918 0.2918 -0.9565 696.2201 547.8367)" class="st7" width="12.6" height="20.8"/>
						<g class="st8">
							<path d="M328,212.2l0-0.1c1.9-5.4,5.6-9.6,10.3-12l0.2-1.1l-3.1-0.5c-4.6,2.9-8.2,7.2-10.1,12.7l-2.8,6.2l2.9,0.5L328,212.2z
								"/>
							<path d="M386.1,211.7c2.9,4.3,4.3,9.6,3.5,15l-0.3,6.2l2.8,0.9l0.3-6.8c0.7-5.7-0.5-11.3-3.3-15.9l-2.6-0.8L386.1,211.7z"/>
						</g>
						<path class="st5" d="M360.7,274.5l-29.5-7c-13.4-3.2-21-17.2-16.5-30.2l11.3-25.6c3.9-11.2,15.7-17.7,27.2-14.9l19.6,4.6
							c11.6,2.7,19.2,13.8,17.6,25.6L389,255C387.2,268.6,374.1,277.7,360.7,274.5z"/>
						<path class="st6" d="M351.7,199.3l19.6,4.6c11.6,2.7,19.3,13.4,17.7,25.2l-1.3,27.7c-0.7,5.3-3.2,9.9-6.7,13.3
							c4.6-3.6,7.9-9,8.8-15.3l1.4-28c1.6-11.8-6-22.9-17.6-25.6l-19.6-4.6c-8-1.9-16.2,1-21.7,6.5
							C337.6,198.9,344.6,197.6,351.7,199.3z"/>
						<g>
							<path class="st6" d="M369.5,274.8c0.3,0,0.7-0.1,1-0.1l9.7-70.6c-0.3-0.2-0.6-0.3-0.9-0.5L369.5,274.8z"/>
							<path class="st6" d="M323.5,263.5c0.3,0.2,0.5,0.4,0.8,0.6l22.4-67.9c-0.3,0-0.7,0.1-1,0.1L323.5,263.5z"/>
						</g>
						<path class="st6" d="M361.7,271.8l-29.7-7c-12.1-2.9-19.5-14.7-17.6-26.5c-4,12.7,3.7,26.2,16.9,29.3l29.7,7
							c13.2,3.1,26.1-5.4,28.3-18.6C385.7,267.4,373.8,274.7,361.7,271.8z"/>
					</g>
					<g>
						<g>
							<path class="st3" d="M297.5,299.3c0.6,7-3.6,13-9.2,13.5c-5.7,0.5-10.8-4.8-11.3-11.8c-0.6-7,3.6-13,9.2-13.5
								C291.8,287.1,296.9,292.3,297.5,299.3z"/>
							<path class="st8" d="M286.3,287.5c-1.8,0.2-3.8,1-4.9,2l1.8,22.2c1.3,0.8,3.4,1.3,5.2,1.2c5.7-0.5,9.8-6.5,9.2-13.5
								C297,292.3,292,287,286.3,287.5z"/>
						</g>
						<g>
							<path class="st3" d="M306,298.6c-0.6-7,3.6-13,9.2-13.5c5.7-0.5,10.8,4.8,11.3,11.8c0.6,7-3.6,13-9.2,13.5
								C311.7,310.9,306.6,305.6,306,298.6z"/>
							<path class="st8" d="M317.2,310.4c1.8-0.1,3.8-1,4.9-2l-1.8-22.2c-1.3-0.8-3.4-1.3-5.2-1.2c-5.7,0.5-9.8,6.5-9.2,13.5
								C306.5,305.6,311.6,310.9,317.2,310.4z"/>
						</g>
						<path class="st1" d="M318.6,318l-30.2,2.5c-1.7,0.1-3.1-1.1-3.2-2.7l-2.8-34.5c-0.1-1.7,1.1-3.1,2.7-3.2l30.2-2.5
							c1.7-0.1,3.1,1.1,3.2,2.7l2.8,34.5C321.4,316.4,320.2,317.8,318.6,318z"/>
						<g>
							
								<rect x="282.3" y="282.1" transform="matrix(0.9966 -8.190402e-02 8.190402e-02 0.9966 -22.1742 25.5613)" class="st9" width="36.3" height="1.9"/>
							
								<rect x="282.8" y="288.5" transform="matrix(0.9966 -8.193802e-02 8.193801e-02 0.9966 -22.7026 25.6365)" class="st9" width="36.3" height="1.9"/>
							
								<rect x="283.4" y="294.8" transform="matrix(0.9966 -8.193668e-02 8.193667e-02 0.9966 -23.2219 25.7003)" class="st9" width="36.3" height="1.9"/>
							
								<rect x="283.9" y="301.2" transform="matrix(0.9966 -8.190376e-02 8.190375e-02 0.9966 -23.7324 25.7538)" class="st9" width="36.3" height="1.9"/>
							
								<rect x="284.4" y="307.6" transform="matrix(0.9966 -8.190510e-02 8.190509e-02 0.9966 -24.2522 25.8185)" class="st9" width="36.3" height="1.9"/>
							
								<rect x="284.9" y="313.9" transform="matrix(0.9966 -8.190376e-02 8.190375e-02 0.9966 -24.7713 25.8822)" class="st9" width="36.3" height="1.9"/>
						</g>
						<path class="st8" d="M319.1,317.9l-5,0.4l-3.3-40.5l5-0.4c1.4-0.1,2.6,0.9,2.7,2.3l2.9,35.5
							C321.5,316.6,320.4,317.8,319.1,317.9z"/>
					</g>
					<g>
						<g>
							<path class="st3" d="M357.8,319.3c0,7-4.6,12.7-10.3,12.7c-5.7,0-10.3-5.7-10.3-12.7c0-7,4.6-12.7,10.3-12.7
								C353.2,306.6,357.8,312.3,357.8,319.3z"/>
							<path class="st8" d="M347.6,306.6c-1.8,0-3.9,0.7-5.1,1.6l0,22.2c1.2,0.9,3.3,1.6,5.1,1.6c5.7,0,10.3-5.7,10.3-12.7
								C358,312.3,353.3,306.6,347.6,306.6z"/>
						</g>
						<g>
							<path class="st3" d="M366.4,319.3c0-7,4.6-12.7,10.3-12.7c5.7,0,10.3,5.7,10.3,12.7c0,7-4.6,12.7-10.3,12.7
								C371,332,366.4,326.3,366.4,319.3z"/>
							<path class="st8" d="M376.6,332c1.8,0,3.9-0.7,5.1-1.6l0-22.2c-1.2-0.9-3.3-1.6-5.1-1.6c-5.7,0-10.3,5.7-10.3,12.7
								C366.3,326.3,370.9,332,376.6,332z"/>
						</g>
						<path class="st1" d="M377.8,339.6h-31.3c-1.4,0-2.5-1.1-2.5-2.5v-35.6c0-1.4,1.1-2.5,2.5-2.5h31.3c1.4,0,2.5,1.1,2.5,2.5v35.6
							C380.3,338.5,379.2,339.6,377.8,339.6z"/>
						<g>
							<rect x="344" y="302.4" class="st9" width="36.3" height="1.9"/>
							<rect x="344" y="308.8" class="st9" width="36.3" height="1.9"/>
							<rect x="344" y="315.1" class="st9" width="36.3" height="1.9"/>
							<rect x="344" y="321.5" class="st9" width="36.3" height="1.9"/>
							<rect x="344" y="327.9" class="st9" width="36.3" height="1.9"/>
							<rect x="344" y="334.3" class="st9" width="36.3" height="1.9"/>
						</g>
						<path class="st8" d="M351.5,339.6h-5c-1.4,0-2.5-1.1-2.5-2.5v-35.6c0-1.4,1.1-2.5,2.5-2.5h5V339.6z"/>
					</g>
					<g>
						<path class="st4" d="M355.4,267.5l-16-3.8c-4.2-1-7.9-3.8-9.9-7.6c-2.1-3.8-2.5-8.4-1-12.5l0.1-0.2l6.1-13.8
							c2.6-7.4,10.4-11.6,18.1-9.8l10.6,2.5c7.7,1.8,12.7,9.1,11.7,16.9l-0.8,15.1c-0.6,4.4-3,8.3-6.5,10.7
							C364.2,267.6,359.7,268.5,355.4,267.5z"/>
						<path class="st10" d="M356.1,264.7l-16-3.8c-7.2-1.7-11.4-9.3-8.9-16.3l6.1-13.8c2.1-6.1,8.5-9.6,14.7-8.1l10.6,2.5
							c6.3,1.5,10.4,7.5,9.5,13.8l-0.8,15.1C370.4,261.5,363.3,266.4,356.1,264.7z"/>
						<polygon class="st3" points="356.3,224.7 332.3,254.9 338,260.4 365,226.8 						"/>
						<polygon class="st3" points="367.9,228.7 340.5,261.2 344,262 369.7,230.1 						"/>
						<polygon class="st3" points="371.4,233.5 347.3,262.6 355.5,264.5 373,241 						"/>
						<path class="st7" d="M355.7,266.5l-16-3.8c-4-0.9-7.4-3.5-9.3-7.1c-2-3.6-2.3-7.8-1-11.7l0.1-0.1l6.1-13.8
							c2.5-7,9.7-10.9,17-9.2l10.6,2.5c7.2,1.7,11.9,8.5,11,15.9l-0.8,15.2c-0.5,4-2.8,7.7-6.1,10
							C363.8,266.7,359.6,267.5,355.7,266.5z M333,245.3c-1,2.8-0.7,5.9,0.7,8.5c1.4,2.6,3.9,4.5,6.9,5.2l16,3.8
							c2.9,0.7,6,0.1,8.5-1.6c2.4-1.7,4.1-4.3,4.5-7.3l0.8-15.2c0.7-5.4-2.8-10.5-8.1-11.7l-10.6-2.5c-5.3-1.3-10.7,1.7-12.5,6.8
							l-0.1,0.1L333,245.3z"/>
					</g>
					<g>
						<path class="st3" d="M369.2,206.9c0.2,4.2-3.1,7.8-7.4,8c-4.2,0.2-7.8-3.1-8-7.4c-0.2-4.2,3.1-7.8,7.4-8
							C365.4,199.4,369,202.7,369.2,206.9z"/>
						<path class="st1" d="M361.7,211L361.7,211c-3,0.1-5.5-2.2-5.6-5.2l-0.9-22.2l10.8-0.4l0.9,22.2
							C367,208.4,364.6,210.9,361.7,211z"/>
						
							<rect x="355.7" y="195.2" transform="matrix(0.9992 -3.875842e-02 3.875841e-02 0.9992 -7.3456 14.1433)" class="st4" width="10.8" height="2.6"/>
					</g>
				</g>
				<g>
					<path class="st7" d="M401.2,167.4c-0.9,0-1.7-0.7-1.7-1.7v-4c0-21.3-17.4-38.7-38.7-38.7c-21.3,0-38.7,17.4-38.7,38.7v4
						c0,0.9-0.7,1.7-1.7,1.7c-0.9,0-1.7-0.7-1.7-1.7v-4c0-23.2,18.8-42,42-42s42,18.8,42,42v4C402.9,166.6,402.2,167.4,401.2,167.4z
						"/>
					<path class="st7" d="M318,180.9v-8.8c0-0.9,0.7-1.7,1.7-1.7c0.9,0,1.7,0.7,1.7,1.7v8.8c0,1.1,0.9,1.9,1.9,1.9h4.2
						c0.9,0,1.7,0.7,1.7,1.7c0,0.9-0.7,1.7-1.7,1.7h-4.2C320.4,186.2,318,183.8,318,180.9z"/>
					<path class="st7" d="M399.5,186.1h-4.2c-0.9,0-1.7-0.7-1.7-1.7c0-0.9,0.7-1.7,1.7-1.7h4.2c1.1,0,1.9-0.9,1.9-1.9V172
						c0-0.9,0.7-1.7,1.7-1.7c0.9,0,1.7,0.7,1.7,1.7v8.8C404.7,183.7,402.4,186.1,399.5,186.1z"/>
					<path class="st5" d="M395,179.9c0.3-1.3,0.5-2.6,0.5-4v-28.1c0-9.1-7.4-16.5-16.5-16.5h-36.1c-9.1,0-16.5,7.4-16.5,16.5v28.1
						c0,9.1,7.4,16.5,16.5,16.5H379c4.2,0,8-1.5,10.9-4.1"/>
					<path class="st6" d="M339.2,182.3v9.7c-7.4-1.7-12.9-8.2-12.9-16.1v-9.7C333.7,167.9,339.2,174.4,339.2,182.3z"/>
					<path class="st6" d="M395.5,166.2v9.7c0,1.4-0.2,2.7-0.5,4l-5.1,8.4c-2,1.8-4.5,3.1-7.2,3.7v-9.7
						C382.6,174.4,388.1,167.9,395.5,166.2z"/>
					<path class="st3" d="M359.4,156.2c0,7.7-6.2,13.9-13.9,13.9c-7.7,0-13.9-6.2-13.9-13.9c0-7.7,6.2-13.9,13.9-13.9
						C353.2,142.4,359.4,148.6,359.4,156.2z"/>
					<path class="st3" d="M386.9,156.2c0,5.9-4.8,10.6-10.6,10.6s-10.6-4.8-10.6-10.6c0-5.9,4.8-10.6,10.6-10.6
						S386.9,150.3,386.9,156.2z"/>
					<path class="st1" d="M335,184.5c0,2.6-2.1,4.7-4.7,4.7h-1.6c-2.6,0-4.7-2.1-4.7-4.7c0-2.6,2.1-4.7,4.7-4.7h1.6
						C333,179.8,335,181.9,335,184.5z"/>
					<path class="st11" d="M354.6,175.2h4.6v17.3h-4.6V175.2z"/>
					<path class="st11" d="M362.6,175.2h4.6v17.3h-4.6V175.2z"/>
					<path class="st11" d="M370.5,175.4v17.1h4.7v-10.9C375.2,178.6,373.2,176.1,370.5,175.4z"/>
					<path class="st11" d="M351.3,175.4c-2.7,0.7-4.7,3.2-4.7,6.1v10.9h4.7V175.4z"/>
					<path class="st12" d="M326.3,153.6v16.3c0,2.5-1.7,4.6-4,5.3c-0.5,0.1-1,0.2-1.5,0.2h-2.1c-3,0-5.5-2.5-5.5-5.5v-16.3
						c0-3,2.5-5.5,5.5-5.5h2.1c0.5,0,1,0.1,1.5,0.2C324.7,149,326.3,151.1,326.3,153.6z"/>
					<path class="st11" d="M326.3,153.6v16.3c0,2.5-1.7,4.6-4,5.3c-2.3-0.6-4-2.8-4-5.3v-16.3c0-2.5,1.7-4.6,4-5.3
						C324.7,149,326.3,151.1,326.3,153.6z"/>
					<path class="st12" d="M408.5,153.6v16.3c0,2.5-1.7,4.6-4,5.3c-0.5,0.1-1,0.2-1.5,0.2h-2.1c-3,0-5.5-2.5-5.5-5.5v-16.3
						c0-3,2.5-5.5,5.5-5.5h2.1c0.5,0,1,0.1,1.5,0.2C406.8,149,408.5,151.1,408.5,153.6z"/>
					<path class="st11" d="M408.5,153.6v16.3c0,2.5-1.7,4.6-4,5.3c-2.3-0.6-4-2.8-4-5.3v-16.3c0-2.5,1.7-4.6,4-5.3
						C406.8,149,408.5,151.1,408.5,153.6z"/>
					<path class="st1" d="M392.4,179.8h1.6c2.6,0,4.7,2.1,4.7,4.7c0,2.6-2.1,4.7-4.7,4.7h-1.6c-2.6,0-4.7-2.1-4.7-4.7
						C387.7,181.9,389.8,179.8,392.4,179.8z"/>
				</g>
			</g>
			<g>
				<g>
					<g>
						<path class="st1" d="M156.9,229.2c-0.1,0-0.2,0-0.3,0c-1.5-0.2-2.6-1.5-2.4-3c1.8-15.8,9.6-24,15.8-28
							c6.8-4.4,13.1-4.9,13.4-5c1.5-0.1,2.8,1,3,2.5c0.1,1.5-1,2.8-2.5,3c-0.9,0.1-21.2,2.2-24.2,28.1
							C159.5,228.2,158.3,229.2,156.9,229.2z"/>
						<path class="st3" d="M155.4,226.2c1.8-15.8,9.6-24,15.8-28c5.8-3.7,11.3-4.7,12.9-4.9c-0.2,0-0.5-0.1-0.7-0.1
							c-0.3,0-6.6,0.6-13.4,5c-6.2,4-14,12.1-15.8,28c-0.2,1.5,0.9,2.9,2.4,3c0.1,0,0.2,0,0.3,0c0.2,0,0.4,0,0.6-0.1
							C156.2,228.8,155.2,227.6,155.4,226.2z"/>
						<g>
							<polygon class="st3" points="153.6,222.1 152.9,226.5 160,227 160.9,223.1 							"/>
							<path class="st4" d="M153.2,224.7l-0.2,1.4c0.9-0.3,2-0.5,3-0.5c1.5,0,2.9,0.4,4.1,1l0.3-1.2c-1.3-0.6-2.8-1-4.4-1
								C155,224.3,154.1,224.4,153.2,224.7z"/>
							<path class="st3" d="M152.8,238.4c-1.2-0.9-1.9-2.4-1.9-4c0-2.8,2.3-5.1,5.1-5.1c2.8,0,5.1,2.3,5.1,5.1
								c0,1.4-0.6,2.7-1.5,3.7l2.1,3.9c2.3-1.7,3.8-4.5,3.8-7.5c0-5.2-4.2-9.4-9.4-9.4c-5.2,0-9.4,4.2-9.4,9.4c0,3.4,1.8,6.4,4.5,8
								L152.8,238.4z"/>
							<path class="st2" d="M156.3,224.9c-0.1,0-0.2,0-0.3,0c-5.2,0-9.4,4.2-9.4,9.4c0,3.4,1.8,6.4,4.5,8l0.1-0.3
								c-2.4-1.7-4-4.5-4-7.7C147.2,229.3,151.3,225.1,156.3,224.9z M160.2,238c0.9-0.9,1.5-2.2,1.5-3.7c0-2.8-2.3-5.1-5.1-5.1
								c-0.1,0-0.2,0-0.3,0c2.7,0.2,4.8,2.4,4.8,5.1c0,1.4-0.6,2.7-1.5,3.7l2.1,3.9c0.1-0.1,0.3-0.2,0.4-0.3L160.2,238z"/>
						</g>
					</g>
					<g>
						<path class="st1" d="M252.1,228.6c0.1,0,0.2,0,0.3,0c1.5-0.2,2.6-1.5,2.4-3c-1.8-15.8-9.6-24-15.8-28
							c-6.8-4.4-13.1-4.9-13.4-5c-1.5-0.1-2.8,1-3,2.5c-0.1,1.5,1,2.8,2.5,3c0.9,0.1,21.2,2.2,24.2,28.1
							C249.6,227.6,250.8,228.6,252.1,228.6z"/>
						<path class="st3" d="M253.6,225.6c-1.8-15.8-9.6-24-15.8-28c-5.8-3.7-11.3-4.7-12.9-4.9c0.2,0,0.5-0.1,0.7-0.1
							c0.3,0,6.6,0.6,13.4,5c6.2,4,14,12.1,15.8,28c0.2,1.5-0.9,2.9-2.4,3c-0.1,0-0.2,0-0.3,0c-0.2,0-0.4,0-0.6-0.1
							C252.9,228.2,253.8,227,253.6,225.6z"/>
						<g>
							<polygon class="st3" points="255.4,221.5 256.1,225.9 249,226.4 248.2,222.5 							"/>
							<path class="st4" d="M255.8,224.1l0.2,1.4c-0.9-0.3-2-0.5-3-0.5c-1.5,0-2.9,0.4-4.1,1l-0.3-1.2c1.3-0.6,2.8-1,4.4-1
								C254,223.7,254.9,223.8,255.8,224.1z"/>
							<path class="st3" d="M256.2,237.8c1.2-0.9,1.9-2.4,1.9-4c0-2.8-2.3-5.1-5.1-5.1c-2.8,0-5.1,2.3-5.1,5.1
								c0,1.4,0.6,2.7,1.5,3.7l-2.1,3.9c-2.3-1.7-3.8-4.5-3.8-7.5c0-5.2,4.2-9.4,9.4-9.4c5.2,0,9.4,4.2,9.4,9.4c0,3.4-1.8,6.4-4.5,8
								L256.2,237.8z"/>
							<path class="st2" d="M261.9,233.7c0,3.2-1.6,6-4,7.7l0.1,0.3c2.7-1.7,4.5-4.6,4.5-8c0-5.2-4.2-9.4-9.4-9.4
								c-0.1,0-0.2,0-0.3,0C257.8,224.5,261.9,228.6,261.9,233.7z M246.9,241c0.1,0.1,0.3,0.2,0.4,0.3l2.1-3.9
								c-0.9-0.9-1.5-2.2-1.5-3.7c0-2.7,2.1-5,4.8-5.1c-0.1,0-0.2,0-0.3,0c-2.8,0-5.1,2.3-5.1,5.1c0,1.4,0.6,2.7,1.5,3.7L246.9,241z
								"/>
						</g>
					</g>
					<g>
						<path class="st5" d="M207.6,259.4h-4.7c-1.8,0-3.3-1.5-3.3-3.3v-32.2h11.3v32.2C210.9,257.9,209.4,259.4,207.6,259.4z"/>
						<path class="st6" d="M205.6,224.2H205v35.2c0,0,0.2,0,0.3,0h0c0.1,0,0.3,0,0.3,0V224.2z"/>
						<path class="st6" d="M205.3,257.7c-3.3,0-5.6-2.5-5.6-5.7v1.7c0,3.1,2.3,5.7,5.6,5.7c3.3,0,5.6-2.5,5.6-5.7v-1.7
							C210.9,255.2,208.6,257.7,205.3,257.7z"/>
						<rect x="199.6" y="232.6" class="st6" width="11.3" height="1.8"/>
					</g>
					<g>
						
							<rect x="181.9" y="189.8" transform="matrix(0.998 -6.284307e-02 6.284306e-02 0.998 -11.9769 12.074)" class="st7" width="8" height="13.2"/>
						
							<rect x="220.5" y="189.8" transform="matrix(-0.998 -6.283951e-02 6.283950e-02 -0.998 436.2877 406.5888)" class="st7" width="8" height="13.2"/>
						<g class="st8">
							<path d="M185.4,199.3L185.4,199.3c0.4-3.7,2.1-6.8,4.6-9l0-0.7l-2,0.1c-2.4,2.4-4,5.7-4.4,9.3l-0.8,4.3l1.9-0.1L185.4,199.3z
								"/>
							<path d="M221.3,190.5c2.4,2.2,4,5.3,4.4,8.8l0.7,3.9l1.9,0.1l-0.8-4.2c-0.4-3.7-2-6.9-4.4-9.4l-1.8-0.1L221.3,190.5z"/>
						</g>
						<path class="st5" d="M214.8,233.1h-19.3c-8.7,0-15.5-7.5-14.7-16.2l3.2-17.5c0.8-7.5,7.1-13.2,14.7-13.2h12.8
							c7.6,0,13.9,5.7,14.7,13.2l3.2,17.5C230.3,225.5,223.5,233.1,214.8,233.1z"/>
						<path class="st6" d="M198.1,188.6h12.8c7.6,0,13.9,5.1,14.7,12.6l3.2,17.2c0.3,3.4-0.5,6.5-2.2,9.2c2.3-2.9,3.6-6.8,3.2-10.8
							l-3.2-17.4c-0.8-7.5-7.1-13.1-14.7-13.1h-12.8c-5.2,0-9.9,3.2-12.5,7.4C189.3,190.3,193.5,188.6,198.1,188.6z"/>
						<g>
							<path class="st6" d="M220.2,232c0.2-0.1,0.4-0.1,0.6-0.2l-4.4-44.8c-0.2-0.1-0.4-0.1-0.6-0.2L220.2,232z"/>
							<path class="st6" d="M190.1,232c0.2,0.1,0.4,0.2,0.6,0.2l3.9-45c-0.2,0.1-0.4,0.1-0.6,0.2L190.1,232z"/>
						</g>
						<path class="st6" d="M215,231.3h-19.4c-7.9,0-14.3-6.2-14.8-13.8c-0.6,8.5,6.2,15.6,14.8,15.6H215c8.6,0,15.3-7.2,14.8-15.6
							C229.2,225,222.9,231.3,215,231.3z"/>
					</g>
					<g>
						<g>
							<g>
								<ellipse class="st3" cx="174.5" cy="252.3" rx="6.6" ry="8.1"/>
								<path class="st8" d="M174.5,244.2c-1.2,0-2.5,0.4-3.2,1l0,14.1c0.8,0.6,2.1,1,3.2,1c3.6,0,6.6-3.6,6.6-8.1
									S178.2,244.2,174.5,244.2z"/>
							</g>
							<g>
								<ellipse class="st3" cx="193" cy="252.3" rx="6.6" ry="8.1"/>
								<path class="st8" d="M193,260.3c1.2,0,2.5-0.4,3.2-1l0-14.1c-0.8-0.6-2.1-1-3.2-1c-3.6,0-6.6,3.6-6.6,8.1
									S189.3,260.3,193,260.3z"/>
							</g>
							<path class="st1" d="M192.8,265.2h-18.1c-1.4,0-2.5-1.1-2.5-2.5v-20.8c0-1.4,1.1-2.5,2.5-2.5h18.1c1.4,0,2.5,1.1,2.5,2.5
								v20.8C195.3,264.1,194.2,265.2,192.8,265.2z"/>
							<g>
								<rect x="172.2" y="241.5" class="st9" width="23.1" height="1.2"/>
								<rect x="172.2" y="245.6" class="st9" width="23.1" height="1.2"/>
								<rect x="172.2" y="249.6" class="st9" width="23.1" height="1.2"/>
								<rect x="172.2" y="253.7" class="st9" width="23.1" height="1.2"/>
								<rect x="172.2" y="257.7" class="st9" width="23.1" height="1.2"/>
								<rect x="172.2" y="261.8" class="st9" width="23.1" height="1.2"/>
							</g>
							<path class="st8" d="M192.8,265.2h-2.3v-25.9h2.3c1.4,0,2.5,1.1,2.5,2.5v20.8C195.3,264.1,194.2,265.2,192.8,265.2z"/>
						</g>
						<g>
							<g>
								<path class="st3" d="M224,252.3c0,4.5-2.9,8.1-6.6,8.1c-3.6,0-6.6-3.6-6.6-8.1s2.9-8.1,6.6-8.1
									C221.1,244.2,224,247.8,224,252.3z"/>
								<path class="st8" d="M217.5,244.2c-1.2,0-2.5,0.4-3.2,1l0,14.1c0.8,0.6,2.1,1,3.2,1c3.6,0,6.6-3.6,6.6-8.1
									S221.2,244.2,217.5,244.2z"/>
							</g>
							<g>
								<ellipse class="st3" cx="236.1" cy="252.3" rx="6.6" ry="8.1"/>
								<path class="st8" d="M236,260.3c1.2,0,2.5-0.4,3.2-1l0-14.1c-0.8-0.6-2.1-1-3.2-1c-3.6,0-6.6,3.6-6.6,8.1
									S232.4,260.3,236,260.3z"/>
							</g>
							<path class="st1" d="M235.8,265.2h-18.1c-1.4,0-2.5-1.1-2.5-2.5v-20.8c0-1.4,1.1-2.5,2.5-2.5h18.1c1.4,0,2.5,1.1,2.5,2.5
								v20.8C238.3,264.1,237.2,265.2,235.8,265.2z"/>
							<g>
								<rect x="215.2" y="241.5" class="st9" width="23.1" height="1.2"/>
								<rect x="215.2" y="245.6" class="st9" width="23.1" height="1.2"/>
								<rect x="215.2" y="249.6" class="st9" width="23.1" height="1.2"/>
								<rect x="215.2" y="253.7" class="st9" width="23.1" height="1.2"/>
								<rect x="215.2" y="257.7" class="st9" width="23.1" height="1.2"/>
								<rect x="215.2" y="261.8" class="st9" width="23.1" height="1.2"/>
							</g>
							<path class="st8" d="M220,265.2h-2.3c-1.4,0-2.5-1.1-2.5-2.5v-20.8c0-1.4,1.1-2.5,2.5-2.5h2.3V265.2z"/>
						</g>
					</g>
					<g>
						<path class="st4" d="M210.5,229.5H200c-2.8,0-5.4-1.2-7.3-3.2c-1.9-2.1-2.8-4.8-2.5-7.6l0-0.1l1.8-9.4
							c0.5-4.9,4.7-8.7,9.7-8.7h6.9c5,0,9.2,3.8,9.7,8.7l1.8,9.5c0.3,2.8-0.6,5.6-2.5,7.6C215.9,228.3,213.2,229.5,210.5,229.5z"/>
						<path class="st10" d="M210.5,227.7H200c-4.7,0-8.4-4.1-7.9-8.8l1.8-9.5c0.4-4.1,3.8-7.2,7.9-7.2h6.9c4.1,0,7.5,3.1,7.9,7.2
							l1.8,9.5C218.9,223.6,215.2,227.7,210.5,227.7z"/>
						<polygon class="st3" points="204.7,202.2 194.3,224.8 198.6,227.2 210.4,202.2 						"/>
						<polygon class="st3" points="212.5,203.8 200.3,228.1 202.6,228.1 213.8,204.5 						"/>
						<polygon class="st3" points="215.4,206.2 204.7,227.7 210.1,227.7 217.5,210.5 						"/>
						<path class="st7" d="M210.5,228.9H200c-2.6,0-5.1-1.1-6.8-3c-1.7-1.9-2.6-4.5-2.3-7.1l0-0.1l1.7-9.4c0.5-4.7,4.4-8.2,9.1-8.2
							h6.9c4.7,0,8.6,3.5,9.1,8.2l1.8,9.5c0.3,2.6-0.6,5.2-2.3,7.1C215.6,227.8,213.1,228.9,210.5,228.9z M193.3,219.1
							c-0.2,1.9,0.4,3.8,1.7,5.2c1.3,1.4,3.1,2.2,5,2.2h10.4c1.9,0,3.7-0.8,5-2.2c1.3-1.4,1.9-3.3,1.7-5.2l-1.8-9.5
							c-0.4-3.5-3.2-6.1-6.7-6.1h-6.9c-3.5,0-6.4,2.6-6.7,6.1l0,0.1L193.3,219.1z"/>
					</g>
					<g>
						<path class="st3" d="M210.1,191.8c0,2.7-2.2,4.9-4.9,4.9c-2.7,0-4.9-2.2-4.9-4.9s2.2-4.9,4.9-4.9
							C208,186.9,210.1,189.1,210.1,191.8z"/>
						<path class="st1" d="M206.7,194.2h-2.9c-1.1,0-2-0.9-2-2v-15.5h6.9v15.5C208.7,193.3,207.8,194.2,206.7,194.2z"/>
						<rect x="201.8" y="183.9" class="st4" width="6.9" height="1.6"/>
					</g>
				</g>
				<g>
					<path class="st7" d="M230.8,166.2c-0.6,0-1.1-0.5-1.1-1.1v-2.5c0-13.6-11-24.6-24.6-24.6c-13.6,0-24.6,11-24.6,24.6v2.5
						c0,0.6-0.5,1.1-1.1,1.1s-1.1-0.5-1.1-1.1v-2.5c0-14.7,12-26.7,26.7-26.7c14.7,0,26.7,12,26.7,26.7v2.5
						C231.9,165.7,231.4,166.2,230.8,166.2z"/>
					<path class="st7" d="M177.9,174.8v-5.6c0-0.6,0.5-1.1,1.1-1.1c0.6,0,1.1,0.5,1.1,1.1v5.6c0,0.7,0.6,1.2,1.2,1.2h2.7
						c0.6,0,1.1,0.5,1.1,1.1c0,0.6-0.5,1.1-1.1,1.1h-2.7C179.4,178.1,177.9,176.6,177.9,174.8z"/>
					<path class="st7" d="M229.7,178.1H227c-0.6,0-1.1-0.5-1.1-1.1c0-0.6,0.5-1.1,1.1-1.1h2.7c0.7,0,1.2-0.6,1.2-1.2v-5.6
						c0-0.6,0.5-1.1,1.1-1.1c0.6,0,1.1,0.5,1.1,1.1v5.6C233,176.6,231.5,178.1,229.7,178.1z"/>
					<path class="st5" d="M226.8,174.2c0.2-0.8,0.3-1.7,0.3-2.5v-17.9c0-5.8-4.7-10.5-10.5-10.5h-23c-5.8,0-10.5,4.7-10.5,10.5v17.9
						c0,5.8,4.7,10.5,10.5,10.5h23c2.6,0,5.1-1,6.9-2.6"/>
					<path class="st6" d="M191.4,175.7v6.2c-4.7-1.1-8.2-5.2-8.2-10.2v-6.2C187.9,166.5,191.4,170.7,191.4,175.7z"/>
					<path class="st6" d="M227.1,165.4v6.2c0,0.9-0.1,1.7-0.3,2.5l-3.3,5.4c-1.3,1.1-2.9,2-4.6,2.3v-6.2
						C219,170.7,222.5,166.5,227.1,165.4z"/>
					<path class="st3" d="M204.2,159.1c0,4.9-3.9,8.8-8.8,8.8c-4.9,0-8.8-3.9-8.8-8.8c0-4.9,3.9-8.8,8.8-8.8
						C200.2,150.3,204.2,154.2,204.2,159.1z"/>
					<path class="st3" d="M221.7,159.1c0,3.7-3,6.8-6.8,6.8s-6.8-3-6.8-6.8c0-3.7,3-6.8,6.8-6.8S221.7,155.3,221.7,159.1z"/>
					<path class="st1" d="M188.7,177.1c0,1.6-1.3,3-3,3h-1c-1.6,0-3-1.3-3-3c0-1.6,1.3-3,3-3h1C187.4,174.1,188.7,175.4,188.7,177.1
						z"/>
					<path class="st11" d="M201.2,171.1h2.9v11h-2.9V171.1z"/>
					<path class="st11" d="M206.2,171.1h2.9v11h-2.9V171.1z"/>
					<path class="st11" d="M211.3,171.3v10.9h3v-7C214.2,173.3,213,171.7,211.3,171.3z"/>
					<path class="st11" d="M199,171.3c-1.7,0.5-3,2-3,3.9v7h3V171.3z"/>
					<path class="st12" d="M183.2,157.4v10.4c0,1.6-1.1,2.9-2.5,3.3c-0.3,0.1-0.6,0.1-0.9,0.1h-1.4c-1.9,0-3.5-1.6-3.5-3.5v-10.4
						c0-1.9,1.6-3.5,3.5-3.5h1.4c0.3,0,0.6,0,0.9,0.1C182.1,154.5,183.2,155.8,183.2,157.4z"/>
					<path class="st11" d="M183.2,157.4v10.4c0,1.6-1.1,2.9-2.5,3.3c-1.5-0.4-2.5-1.8-2.5-3.3v-10.4c0-1.6,1.1-2.9,2.5-3.3
						C182.1,154.5,183.2,155.8,183.2,157.4z"/>
					<path class="st12" d="M235.5,157.4v10.4c0,1.6-1.1,2.9-2.5,3.3c-0.3,0.1-0.6,0.1-0.9,0.1h-1.4c-1.9,0-3.5-1.6-3.5-3.5v-10.4
						c0-1.9,1.6-3.5,3.5-3.5h1.4c0.3,0,0.6,0,0.9,0.1C234.4,154.5,235.5,155.8,235.5,157.4z"/>
					<path class="st11" d="M235.5,157.4v10.4c0,1.6-1.1,2.9-2.5,3.3c-1.5-0.4-2.5-1.8-2.5-3.3v-10.4c0-1.6,1.1-2.9,2.5-3.3
						C234.4,154.5,235.5,155.8,235.5,157.4z"/>
					<path class="st1" d="M225.2,174.1h1c1.6,0,3,1.3,3,3c0,1.6-1.3,3-3,3h-1c-1.6,0-3-1.3-3-3C222.2,175.4,223.5,174.1,225.2,174.1
						z"/>
					<path class="st1" d="M199.1,159c0,1.6-1.3,2.9-2.9,2.9c-1.6,0-2.9-1.3-2.9-2.9s1.3-2.9,2.9-2.9
						C197.8,156.1,199.1,157.4,199.1,159z"/>
					<path class="st1" d="M217.2,159c0,1.6-1.3,2.9-2.9,2.9c-1.6,0-2.9-1.3-2.9-2.9s1.3-2.9,2.9-2.9
						C215.9,156.1,217.2,157.4,217.2,159z"/>
				</g>
			</g>
			<g>
				<g>
					<g>
						<path class="st1" d="M414.7,93.3c-0.1,0-0.1,0-0.2,0c-0.8,0.1-1.4,0.9-1.4,1.7c1,8.9,5.4,13.4,8.8,15.7
							c3.8,2.5,7.3,2.8,7.5,2.8c0.8,0.1,1.6-0.6,1.7-1.4c0.1-0.8-0.6-1.6-1.4-1.7c-0.5,0-11.9-1.2-13.5-15.7
							C416.1,93.9,415.4,93.3,414.7,93.3z"/>
						<path class="st3" d="M413.8,95c1,8.9,5.4,13.4,8.8,15.7c3.2,2.1,6.3,2.6,7.2,2.7c-0.1,0-0.3,0-0.4,0c-0.1,0-3.7-0.3-7.5-2.8
							c-3.5-2.3-7.8-6.8-8.8-15.7c-0.1-0.8,0.5-1.6,1.4-1.7c0.1,0,0.1,0,0.2,0c0.1,0,0.2,0,0.3,0C414.3,93.5,413.7,94.2,413.8,95z"
							/>
						<g>
							<polygon class="st3" points="412.8,97.3 412.4,94.8 416.4,94.6 416.9,96.7 							"/>
							<path class="st4" d="M412.6,95.8l-0.1-0.8c0.5,0.2,1.1,0.3,1.7,0.3c0.8,0,1.6-0.2,2.3-0.6l0.1,0.7c-0.7,0.4-1.6,0.6-2.5,0.6
								C413.6,96.1,413.1,96,412.6,95.8z"/>
							<path class="st3" d="M412.4,88.2c-0.7,0.5-1.1,1.3-1.1,2.3c0,1.6,1.3,2.9,2.9,2.9s2.9-1.3,2.9-2.9c0-0.8-0.3-1.5-0.9-2.1
								l1.1-2.2c1.3,1,2.1,2.5,2.1,4.2c0,2.9-2.4,5.3-5.3,5.3c-2.9,0-5.3-2.4-5.3-5.3c0-1.9,1-3.6,2.5-4.5L412.4,88.2z"/>
							<path class="st2" d="M409.2,90.4c0-1.8,0.9-3.4,2.3-4.3l-0.1-0.2c-1.5,0.9-2.5,2.6-2.5,4.5c0,2.9,2.4,5.3,5.3,5.3
								c0.1,0,0.1,0,0.2,0C411.5,95.6,409.2,93.3,409.2,90.4z M417.6,86.4c-0.1-0.1-0.2-0.1-0.2-0.2l-1.1,2.2
								c0.5,0.5,0.9,1.2,0.9,2.1c0,1.5-1.2,2.8-2.7,2.9c0.1,0,0.1,0,0.2,0c1.6,0,2.9-1.3,2.9-2.9c0-0.8-0.3-1.5-0.9-2.1L417.6,86.4z
								"/>
						</g>
					</g>
					<g>
						<path class="st1" d="M468,93.7c0.1,0,0.1,0,0.2,0c0.8,0.1,1.4,0.9,1.4,1.7c-1,8.9-5.4,13.4-8.8,15.7c-3.8,2.5-7.3,2.8-7.5,2.8
							c-0.8,0.1-1.6-0.6-1.7-1.4c-0.1-0.8,0.6-1.6,1.4-1.7c0.5,0,11.9-1.2,13.5-15.7C466.6,94.3,467.2,93.7,468,93.7z"/>
						<path class="st3" d="M468.9,95.4c-1,8.9-5.4,13.4-8.8,15.7c-3.2,2.1-6.3,2.6-7.2,2.7c0.1,0,0.3,0,0.4,0c0.1,0,3.7-0.3,7.5-2.8
							c3.5-2.3,7.8-6.8,8.8-15.7c0.1-0.8-0.5-1.6-1.4-1.7c-0.1,0-0.1,0-0.2,0c-0.1,0-0.2,0-0.3,0C468.4,93.9,468.9,94.6,468.9,95.4z
							"/>
						<g>
							<polygon class="st3" points="469.8,97.7 470.2,95.3 466.3,95 465.8,97.1 							"/>
							<path class="st4" d="M470.1,96.2l0.1-0.8c-0.5,0.2-1.1,0.3-1.7,0.3c-0.8,0-1.6-0.2-2.3-0.6l-0.1,0.7c0.7,0.4,1.6,0.6,2.5,0.6
								C469.1,96.5,469.6,96.4,470.1,96.2z"/>
							<path class="st3" d="M470.3,88.6c0.7,0.5,1.1,1.3,1.1,2.3c0,1.6-1.3,2.9-2.9,2.9s-2.9-1.3-2.9-2.9c0-0.8,0.3-1.5,0.9-2.1
								l-1.1-2.2c-1.3,1-2.1,2.5-2.1,4.2c0,2.9,2.4,5.3,5.3,5.3c2.9,0,5.3-2.4,5.3-5.3c0-1.9-1-3.6-2.5-4.5L470.3,88.6z"/>
							<path class="st2" d="M468.3,96.1c0.1,0,0.1,0,0.2,0c2.9,0,5.3-2.4,5.3-5.3c0-1.9-1-3.6-2.5-4.5l-0.1,0.2
								c1.4,1,2.3,2.5,2.3,4.3C473.5,93.7,471.2,96,468.3,96.1z M466.1,88.8c-0.5,0.5-0.9,1.2-0.9,2.1c0,1.6,1.3,2.9,2.9,2.9
								c0.1,0,0.1,0,0.2,0c-1.5-0.1-2.7-1.3-2.7-2.9c0-0.8,0.3-1.5,0.9-2.1l-1.1-2.2c-0.1,0.1-0.2,0.1-0.2,0.2L466.1,88.8z"/>
						</g>
					</g>
					<g>
						<path class="st5" d="M443.1,147.1h-2.7c-1,0-1.8-0.8-1.8-1.8v-18h6.3v18C444.9,146.2,444.1,147.1,443.1,147.1z"/>
						<path class="st6" d="M442,127.3h-0.3V147c0,0,0.1,0,0.2,0h0c0.1,0,0.2,0,0.2,0V127.3z"/>
						<path class="st6" d="M441.8,146.1c-1.9,0-3.2-1.4-3.2-3.2v0.9c0,1.7,1.3,3.2,3.2,3.2c1.9,0,3.2-1.4,3.2-3.2V143
							C444.9,144.7,443.6,146.1,441.8,146.1z"/>
						<rect x="438.6" y="132" class="st6" width="6.3" height="1"/>
					</g>
					<g>
						
							<rect x="428.7" y="108.1" transform="matrix(0.998 -6.284307e-02 6.284306e-02 0.998 -6.1728 27.3023)" class="st7" width="4.5" height="7.4"/>
						
							<rect x="450.3" y="108.1" transform="matrix(-0.998 -6.283951e-02 6.283950e-02 -0.998 897.1865 251.7766)" class="st7" width="4.5" height="7.4"/>
						<g class="st8">
							<path d="M430.6,113.4L430.6,113.4c0.2-2.1,1.2-3.8,2.6-5.1l0-0.4L432,108c-1.3,1.4-2.2,3.2-2.5,5.2l-0.4,2.4l1.1-0.1
								L430.6,113.4z"/>
							<path d="M450.7,108.4c1.4,1.2,2.3,3,2.5,4.9l0.4,2.2l1.1,0.1l-0.4-2.4c-0.2-2.1-1.1-3.9-2.5-5.2l-1-0.1L450.7,108.4z"/>
						</g>
						<path class="st5" d="M447.1,132.3h-10.8c-4.9,0-8.7-4.2-8.2-9.1l1.8-9.8c0.4-4.2,4-7.4,8.2-7.4h7.2c4.2,0,7.8,3.2,8.2,7.4
							l1.8,9.8C455.8,128.1,452,132.3,447.1,132.3z"/>
						<path class="st6" d="M437.8,107.4h7.2c4.2,0,7.8,2.9,8.2,7.1l1.8,9.6c0.2,1.9-0.3,3.6-1.2,5.1c1.3-1.6,2-3.8,1.8-6l-1.8-9.7
							c-0.4-4.2-4-7.3-8.2-7.3h-7.2c-2.9,0-5.5,1.8-7,4.1C432.8,108.3,435.2,107.4,437.8,107.4z"/>
						<g>
							<path class="st6" d="M450.1,131.7c0.1,0,0.2-0.1,0.3-0.1l-2.5-25.1c-0.1,0-0.2-0.1-0.3-0.1L450.1,131.7z"/>
							<path class="st6" d="M433.3,131.7c0.1,0,0.2,0.1,0.3,0.1l2.2-25.2c-0.1,0-0.2,0.1-0.3,0.1L433.3,131.7z"/>
						</g>
						<path class="st6" d="M447.2,131.3h-10.9c-4.4,0-8-3.5-8.3-7.7c-0.3,4.7,3.4,8.8,8.3,8.8h10.9c4.8,0,8.6-4,8.3-8.8
							C455.2,127.8,451.6,131.3,447.2,131.3z"/>
					</g>
					<g>
						<g>
							<g>
								<ellipse class="st3" cx="424.5" cy="143.1" rx="3.7" ry="4.5"/>
								<path class="st8" d="M424.5,138.5c-0.7,0-1.4,0.2-1.8,0.6l0,7.9c0.4,0.3,1.2,0.6,1.8,0.6c2,0,3.7-2,3.7-4.5
									S426.6,138.5,424.5,138.5z"/>
							</g>
							<g>
								<ellipse class="st3" cx="434.9" cy="143.1" rx="3.7" ry="4.5"/>
								<path class="st8" d="M434.9,147.6c0.7,0,1.4-0.2,1.8-0.6l0-7.9c-0.4-0.3-1.2-0.6-1.8-0.6c-2,0-3.7,2-3.7,4.5
									S432.8,147.6,434.9,147.6z"/>
							</g>
							<path class="st1" d="M433.7,150.3h-7.9c-1.4,0-2.5-1.1-2.5-2.5v-9.5c0-1.4,1.1-2.5,2.5-2.5h7.9c1.4,0,2.5,1.1,2.5,2.5v9.5
								C436.2,149.2,435.1,150.3,433.7,150.3z"/>
							<g>
								<rect x="423.2" y="137" class="st9" width="12.9" height="0.7"/>
								<rect x="423.2" y="139.3" class="st9" width="12.9" height="0.7"/>
								<rect x="423.2" y="141.6" class="st9" width="12.9" height="0.7"/>
								<rect x="423.2" y="143.9" class="st9" width="12.9" height="0.7"/>
								<rect x="423.2" y="146.1" class="st9" width="12.9" height="0.7"/>
								<rect x="423.2" y="148.4" class="st9" width="12.9" height="0.7"/>
							</g>
							<path class="st8" d="M434.6,150.3h-1.1v-14.5h1.1c0.9,0,1.6,0.7,1.6,1.6v11.4C436.2,149.6,435.5,150.3,434.6,150.3z"/>
						</g>
						<g>
							<g>
								<path class="st3" d="M452.3,143.1c0,2.5-1.6,4.5-3.7,4.5c-2,0-3.7-2-3.7-4.5s1.6-4.5,3.7-4.5
									C450.6,138.5,452.3,140.6,452.3,143.1z"/>
								<path class="st8" d="M448.6,138.5c-0.7,0-1.4,0.2-1.8,0.6l0,7.9c0.4,0.3,1.2,0.6,1.8,0.6c2,0,3.7-2,3.7-4.5
									S450.7,138.5,448.6,138.5z"/>
							</g>
							<g>
								<ellipse class="st3" cx="459" cy="143.1" rx="3.7" ry="4.5"/>
								<path class="st8" d="M459,147.6c0.7,0,1.4-0.2,1.8-0.6l0-7.9c-0.4-0.3-1.2-0.6-1.8-0.6c-2,0-3.7,2-3.7,4.5
									S456.9,147.6,459,147.6z"/>
							</g>
							<path class="st1" d="M457.8,150.3h-7.9c-1.4,0-2.5-1.1-2.5-2.5v-9.5c0-1.4,1.1-2.5,2.5-2.5h7.9c1.4,0,2.5,1.1,2.5,2.5v9.5
								C460.3,149.2,459.2,150.3,457.8,150.3z"/>
							<g>
								<rect x="447.3" y="137" class="st9" width="12.9" height="0.7"/>
								<rect x="447.3" y="139.3" class="st9" width="12.9" height="0.7"/>
								<rect x="447.3" y="141.6" class="st9" width="12.9" height="0.7"/>
								<rect x="447.3" y="143.9" class="st9" width="12.9" height="0.7"/>
								<rect x="447.3" y="146.1" class="st9" width="12.9" height="0.7"/>
								<rect x="447.3" y="148.4" class="st9" width="12.9" height="0.7"/>
							</g>
							<path class="st8" d="M450,150.3h-1.1c-0.9,0-1.6-0.7-1.6-1.6v-11.4c0-0.9,0.7-1.6,1.6-1.6h1.1V150.3z"/>
						</g>
					</g>
					<g>
						<path class="st4" d="M444.7,130.3h-5.8c-1.5,0-3-0.7-4.1-1.8c-1-1.2-1.5-2.7-1.4-4.2l0-0.1l1-5.3c0.3-2.8,2.6-4.9,5.5-4.9h3.9
							c2.8,0,5.2,2.1,5.5,4.9l1,5.3c0.2,1.6-0.3,3.1-1.4,4.3C447.7,129.6,446.2,130.3,444.7,130.3z"/>
						<path class="st10" d="M444.7,129.3h-5.8c-2.6,0-4.7-2.3-4.4-4.9l1-5.3c0.2-2.3,2.2-4,4.4-4h3.9c2.3,0,4.2,1.7,4.4,4l1,5.3
							C449.4,127,447.3,129.3,444.7,129.3z"/>
						<polygon class="st3" points="441.5,115 435.6,127.7 438,129 444.6,115 						"/>
						<polygon class="st3" points="445.8,115.9 439,129.5 440.3,129.5 446.5,116.3 						"/>
						<polygon class="st3" points="447.4,117.2 441.5,129.3 444.4,129.3 448.6,119.7 						"/>
						<path class="st7" d="M444.7,130h-5.8c-1.5,0-2.8-0.6-3.8-1.7c-1-1.1-1.4-2.5-1.3-4l0-0.1l1-5.3c0.3-2.6,2.5-4.6,5.1-4.6h3.9
							c2.6,0,4.8,2,5.1,4.6l1,5.3c0.1,1.4-0.3,2.9-1.3,4C447.5,129.3,446.1,130,444.7,130z M435.1,124.5c-0.1,1.1,0.2,2.1,1,2.9
							c0.7,0.8,1.7,1.2,2.8,1.2h5.8c1.1,0,2.1-0.5,2.8-1.2c0.7-0.8,1.1-1.8,1-2.9l-1-5.3c-0.2-1.9-1.8-3.4-3.8-3.4h-3.9
							c-1.9,0-3.6,1.5-3.8,3.4l0,0.1L435.1,124.5z"/>
					</g>
					<g>
						<path class="st3" d="M444.5,109.2c0,1.5-1.2,2.7-2.7,2.7c-1.5,0-2.7-1.2-2.7-2.7c0-1.5,1.2-2.7,2.7-2.7
							C443.3,106.4,444.5,107.7,444.5,109.2z"/>
						<path class="st1" d="M442.6,110.5h-1.6c-0.6,0-1.1-0.5-1.1-1.1v-8.7h3.8v8.7C443.7,110,443.2,110.5,442.6,110.5z"/>
						<rect x="439.8" y="104.7" class="st4" width="3.8" height="0.9"/>
					</g>
				</g>
				<g>
					<path class="st7" d="M456.1,94.8c-0.3,0-0.6-0.3-0.6-0.6v-1.4c0-7.6-6.2-13.8-13.8-13.8c-7.6,0-13.8,6.2-13.8,13.8v1.4
						c0,0.3-0.3,0.6-0.6,0.6c-0.3,0-0.6-0.3-0.6-0.6v-1.4c0-8.3,6.7-15,15-15s15,6.7,15,15v1.4C456.7,94.6,456.4,94.8,456.1,94.8z"
						/>
					<path class="st7" d="M426.4,99.7v-3.1c0-0.3,0.3-0.6,0.6-0.6c0.3,0,0.6,0.3,0.6,0.6v3.1c0,0.4,0.3,0.7,0.7,0.7h1.5
						c0.3,0,0.6,0.3,0.6,0.6c0,0.3-0.3,0.6-0.6,0.6h-1.5C427.3,101.5,426.4,100.7,426.4,99.7z"/>
					<path class="st7" d="M455.4,101.5h-1.5c-0.3,0-0.6-0.3-0.6-0.6c0-0.3,0.3-0.6,0.6-0.6h1.5c0.4,0,0.7-0.3,0.7-0.7v-3.1
						c0-0.3,0.3-0.6,0.6-0.6c0.3,0,0.6,0.3,0.6,0.6v3.1C457.3,100.7,456.5,101.5,455.4,101.5z"/>
					<path class="st5" d="M453.8,99.3c0.1-0.5,0.2-0.9,0.2-1.4v-10c0-3.2-2.6-5.9-5.9-5.9h-12.9c-3.2,0-5.9,2.6-5.9,5.9v10
						c0,3.2,2.6,5.9,5.9,5.9h12.9c1.5,0,2.8-0.6,3.9-1.5"/>
					<path class="st6" d="M434,100.2v3.5c-2.6-0.6-4.6-2.9-4.6-5.7v-3.5C432,95,434,97.4,434,100.2z"/>
					<path class="st6" d="M454,94.4v3.5c0,0.5-0.1,1-0.2,1.4l-1.8,3c-0.7,0.6-1.6,1.1-2.6,1.3v-3.5C449.4,97.4,451.4,95,454,94.4z"
						/>
					<path class="st3" d="M441.2,90.9c0,2.7-2.2,4.9-4.9,4.9c-2.7,0-4.9-2.2-4.9-4.9c0-2.7,2.2-4.9,4.9-4.9
						C438.9,85.9,441.2,88.1,441.2,90.9z"/>
					<path class="st3" d="M451,90.9c0,2.1-1.7,3.8-3.8,3.8c-2.1,0-3.8-1.7-3.8-3.8c0-2.1,1.7-3.8,3.8-3.8
						C449.3,87.1,451,88.8,451,90.9z"/>
					<path class="st1" d="M432.5,100.9c0,0.9-0.7,1.7-1.7,1.7h-0.6c-0.9,0-1.7-0.7-1.7-1.7c0-0.9,0.7-1.7,1.7-1.7h0.6
						C431.7,99.3,432.5,100,432.5,100.9z"/>
					<path class="st11" d="M439.5,97.6h1.6v6.2h-1.6V97.6z"/>
					<path class="st11" d="M442.3,97.6h1.6v6.2h-1.6V97.6z"/>
					<path class="st11" d="M445.1,97.7v6.1h1.7v-3.9C446.8,98.8,446.1,97.9,445.1,97.7z"/>
					<path class="st11" d="M438.3,97.7c-1,0.3-1.7,1.1-1.7,2.2v3.9h1.7V97.7z"/>
					<path class="st12" d="M429.4,89.9v5.8c0,0.9-0.6,1.6-1.4,1.9c-0.2,0-0.3,0.1-0.5,0.1h-0.8c-1.1,0-1.9-0.9-1.9-1.9v-5.8
						c0-1.1,0.9-1.9,1.9-1.9h0.8c0.2,0,0.4,0,0.5,0.1C428.8,88.3,429.4,89,429.4,89.9z"/>
					<path class="st11" d="M429.4,89.9v5.8c0,0.9-0.6,1.6-1.4,1.9c-0.8-0.2-1.4-1-1.4-1.9v-5.8c0-0.9,0.6-1.6,1.4-1.9
						C428.8,88.3,429.4,89,429.4,89.9z"/>
					<path class="st12" d="M458.7,89.9v5.8c0,0.9-0.6,1.6-1.4,1.9c-0.2,0-0.3,0.1-0.5,0.1H456c-1.1,0-1.9-0.9-1.9-1.9v-5.8
						c0-1.1,0.9-1.9,1.9-1.9h0.8c0.2,0,0.4,0,0.5,0.1C458.1,88.3,458.7,89,458.7,89.9z"/>
					<path class="st11" d="M458.7,89.9v5.8c0,0.9-0.6,1.6-1.4,1.9c-0.8-0.2-1.4-1-1.4-1.9v-5.8c0-0.9,0.6-1.6,1.4-1.9
						C458.1,88.3,458.7,89,458.7,89.9z"/>
					<path class="st1" d="M452.9,99.3h0.6c0.9,0,1.7,0.7,1.7,1.7c0,0.9-0.7,1.7-1.7,1.7h-0.6c-0.9,0-1.7-0.7-1.7-1.7
						C451.2,100,452,99.3,452.9,99.3z"/>
					<path class="st1" d="M438.3,90.8c0,0.9-0.7,1.6-1.6,1.6c-0.9,0-1.6-0.7-1.6-1.6c0-0.9,0.7-1.6,1.6-1.6
						C437.6,89.2,438.3,89.9,438.3,90.8z"/>
					<path class="st1" d="M448.5,90.8c0,0.9-0.7,1.6-1.6,1.6c-0.9,0-1.6-0.7-1.6-1.6c0-0.9,0.7-1.6,1.6-1.6
						C447.7,89.2,448.5,89.9,448.5,90.8z"/>
				</g>
			</g>
			<g>
				<g>
					<g>
						<path class="st1" d="M348.3,42.2c0,0-0.1,0-0.1,0c-0.6,0.1-1,0.6-1,1.2c0.7,6.3,3.8,9.5,6.3,11.1c2.7,1.7,5.2,2,5.3,2
							c0.6,0,1.1-0.4,1.2-1c0-0.6-0.4-1.1-1-1.2c-0.3,0-8.4-0.9-9.6-11.1C349.3,42.6,348.8,42.2,348.3,42.2z"/>
						<path class="st3" d="M347.7,43.4c0.7,6.3,3.8,9.5,6.3,11.1c2.3,1.5,4.5,1.9,5.1,1.9c-0.1,0-0.2,0-0.3,0c-0.1,0-2.6-0.2-5.3-2
							c-2.5-1.6-5.5-4.8-6.3-11.1c-0.1-0.6,0.4-1.1,1-1.2c0,0,0.1,0,0.1,0c0.1,0,0.2,0,0.2,0C348,42.3,347.6,42.8,347.7,43.4z"/>
						<g>
							<polygon class="st3" points="347,45 346.7,43.3 349.5,43.1 349.8,44.6 							"/>
							<path class="st4" d="M346.8,44l-0.1-0.5c0.4,0.1,0.8,0.2,1.2,0.2c0.6,0,1.1-0.1,1.6-0.4l0.1,0.5c-0.5,0.3-1.1,0.4-1.7,0.4
								C347.5,44.1,347.2,44.1,346.8,44z"/>
							<path class="st3" d="M346.7,38.5c-0.5,0.4-0.8,0.9-0.8,1.6c0,1.1,0.9,2,2,2s2-0.9,2-2c0-0.6-0.2-1.1-0.6-1.5l0.8-1.5
								c0.9,0.7,1.5,1.8,1.5,3c0,2.1-1.7,3.7-3.7,3.7c-2.1,0-3.7-1.7-3.7-3.7c0-1.3,0.7-2.5,1.8-3.2L346.7,38.5z"/>
							<path class="st2" d="M344.4,40.1c0-1.3,0.6-2.4,1.6-3.1L346,37c-1.1,0.7-1.8,1.8-1.8,3.2c0,2.1,1.7,3.7,3.7,3.7
								c0,0,0.1,0,0.1,0C346,43.8,344.4,42.2,344.4,40.1z M350.3,37.3c-0.1,0-0.1-0.1-0.2-0.1l-0.8,1.5c0.4,0.4,0.6,0.9,0.6,1.5
								c0,1.1-0.8,2-1.9,2c0,0,0.1,0,0.1,0c1.1,0,2-0.9,2-2c0-0.6-0.2-1.1-0.6-1.5L350.3,37.3z"/>
						</g>
					</g>
					<g>
						<path class="st1" d="M386,42.5c0,0,0.1,0,0.1,0c0.6,0.1,1,0.6,1,1.2c-0.7,6.3-3.8,9.5-6.3,11.1c-2.7,1.7-5.2,2-5.3,2
							c-0.6,0-1.1-0.4-1.2-1c0-0.6,0.4-1.1,1-1.2c0.3,0,8.4-0.9,9.6-11.1C385,42.9,385.5,42.5,386,42.5z"/>
						<path class="st3" d="M386.6,43.7c-0.7,6.3-3.8,9.5-6.3,11.1c-2.3,1.5-4.5,1.9-5.1,1.9c0.1,0,0.2,0,0.3,0c0.1,0,2.6-0.2,5.3-2
							c2.5-1.6,5.5-4.8,6.3-11.1c0.1-0.6-0.4-1.1-1-1.2c0,0-0.1,0-0.1,0c-0.1,0-0.2,0-0.2,0C386.3,42.6,386.7,43.1,386.6,43.7z"/>
						<g>
							<polygon class="st3" points="387.3,45.3 387.6,43.6 384.8,43.4 384.4,44.9 							"/>
							<path class="st4" d="M387.5,44.2l0.1-0.5c-0.4,0.1-0.8,0.2-1.2,0.2c-0.6,0-1.1-0.1-1.6-0.4l-0.1,0.5c0.5,0.3,1.1,0.4,1.7,0.4
								C386.7,44.4,387.1,44.4,387.5,44.2z"/>
							<path class="st3" d="M387.6,38.8c0.5,0.4,0.8,0.9,0.8,1.6c0,1.1-0.9,2-2,2s-2-0.9-2-2c0-0.6,0.2-1.1,0.6-1.5l-0.8-1.5
								c-0.9,0.7-1.5,1.8-1.5,3c0,2.1,1.7,3.7,3.7,3.7c2.1,0,3.7-1.7,3.7-3.7c0-1.3-0.7-2.5-1.8-3.2L387.6,38.8z"/>
							<path class="st2" d="M386.2,44.2c0,0,0.1,0,0.1,0c2.1,0,3.7-1.7,3.7-3.7c0-1.3-0.7-2.5-1.8-3.2l-0.1,0.1
								c1,0.7,1.6,1.8,1.6,3.1C389.9,42.4,388.2,44.1,386.2,44.2z M384.7,39c-0.4,0.4-0.6,0.9-0.6,1.5c0,1.1,0.9,2,2,2
								c0,0,0.1,0,0.1,0c-1.1-0.1-1.9-0.9-1.9-2c0-0.6,0.2-1.1,0.6-1.5l-0.8-1.5c-0.1,0-0.1,0.1-0.2,0.1L384.7,39z"/>
						</g>
					</g>
					<g>
						<path class="st5" d="M368.4,80.2h-1.9c-0.7,0-1.3-0.6-1.3-1.3V66.1h4.5v12.8C369.7,79.6,369.1,80.2,368.4,80.2z"/>
						<path class="st6" d="M367.6,66.2h-0.2v13.9c0,0,0.1,0,0.1,0h0c0,0,0.1,0,0.1,0V66.2z"/>
						<path class="st6" d="M367.4,79.5c-1.3,0-2.2-1-2.2-2.2v0.7c0,1.2,0.9,2.2,2.2,2.2c1.3,0,2.2-1,2.2-2.2v-0.7
							C369.7,78.5,368.8,79.5,367.4,79.5z"/>
						<rect x="365.2" y="69.6" class="st6" width="4.5" height="0.7"/>
					</g>
					<g>
						
							<rect x="358.2" y="52.6" transform="matrix(0.998 -6.284307e-02 6.284306e-02 0.998 -2.7599 22.7194)" class="st7" width="3.2" height="5.2"/>
						
							<rect x="373.5" y="52.6" transform="matrix(-0.998 -6.283951e-02 6.283950e-02 -0.998 745.9274 133.9271)" class="st7" width="3.2" height="5.2"/>
						<g class="st8">
							<path d="M359.6,56.4L359.6,56.4c0.1-1.5,0.8-2.7,1.8-3.6l0-0.3l-0.8,0c-0.9,1-1.6,2.3-1.7,3.7l-0.3,1.7l0.7,0L359.6,56.4z"/>
							<path d="M373.8,52.9c1,0.9,1.6,2.1,1.7,3.5l0.3,1.5l0.7,0l-0.3-1.7c-0.2-1.5-0.8-2.7-1.7-3.7l-0.7,0L373.8,52.9z"/>
						</g>
						<path class="st5" d="M371.2,69.7h-7.6c-3.5,0-6.2-3-5.8-6.4l1.3-6.9c0.3-3,2.8-5.2,5.8-5.2h5.1c3,0,5.5,2.3,5.8,5.2l1.3,6.9
							C377.4,66.8,374.7,69.7,371.2,69.7z"/>
						<path class="st6" d="M364.6,52.1h5.1c3,0,5.5,2,5.8,5l1.3,6.8c0.1,1.4-0.2,2.6-0.9,3.6c0.9-1.1,1.4-2.7,1.3-4.3l-1.3-6.9
							c-0.3-3-2.8-5.2-5.8-5.2H365c-2.1,0-3.9,1.3-4.9,2.9C361.1,52.8,362.8,52.1,364.6,52.1z"/>
						<g>
							<path class="st6" d="M373.4,69.3c0.1,0,0.2-0.1,0.2-0.1l-1.7-17.8c-0.1,0-0.2-0.1-0.2-0.1L373.4,69.3z"/>
							<path class="st6" d="M361.4,69.3c0.1,0,0.2,0.1,0.2,0.1l1.5-17.8c-0.1,0-0.2,0.1-0.2,0.1L361.4,69.3z"/>
						</g>
						<path class="st6" d="M371.3,69h-7.7c-3.1,0-5.6-2.5-5.8-5.5c-0.2,3.4,2.4,6.2,5.8,6.2h7.7c3.4,0,6.1-2.8,5.8-6.2
							C376.9,66.6,374.4,69,371.3,69z"/>
					</g>
					<g>
						<g>
							<g>
								<ellipse class="st3" cx="355.2" cy="77.3" rx="2.6" ry="3.2"/>
								<path class="st8" d="M355.3,74.1c-0.5,0-1,0.2-1.3,0.4l0,5.6c0.3,0.2,0.8,0.4,1.3,0.4c1.4,0,2.6-1.4,2.6-3.2
									C357.9,75.6,356.7,74.1,355.3,74.1z"/>
							</g>
							<g>
								<ellipse class="st3" cx="362.6" cy="77.3" rx="2.6" ry="3.2"/>
								<path class="st8" d="M362.6,80.5c0.5,0,1-0.2,1.3-0.4l0-5.6c-0.3-0.2-0.8-0.4-1.3-0.4c-1.4,0-2.6,1.4-2.6,3.2
									C360,79.1,361.1,80.5,362.6,80.5z"/>
							</g>
							<path class="st1" d="M361,82.5h-4.1c-1.4,0-2.5-1.1-2.5-2.5v-5.2c0-1.4,1.1-2.5,2.5-2.5h4.1c1.4,0,2.5,1.1,2.5,2.5v5.2
								C363.5,81.3,362.4,82.5,361,82.5z"/>
							<g>
								<rect x="354.3" y="73.1" class="st9" width="9.2" height="0.5"/>
								<rect x="354.3" y="74.7" class="st9" width="9.2" height="0.5"/>
								<rect x="354.3" y="76.3" class="st9" width="9.2" height="0.5"/>
								<rect x="354.3" y="77.9" class="st9" width="9.2" height="0.5"/>
								<rect x="354.3" y="79.5" class="st9" width="9.2" height="0.5"/>
								<rect x="354.3" y="81.1" class="st9" width="9.2" height="0.5"/>
							</g>
							<path class="st8" d="M362.4,82.5h-0.8V72.2h0.8c0.6,0,1.1,0.5,1.1,1.1v8C363.5,82,363,82.5,362.4,82.5z"/>
						</g>
						<g>
							<g>
								<path class="st3" d="M374.9,77.3c0,1.8-1.2,3.2-2.6,3.2c-1.4,0-2.6-1.4-2.6-3.2c0-1.8,1.2-3.2,2.6-3.2
									C373.7,74.1,374.9,75.6,374.9,77.3z"/>
								<path class="st8" d="M372.3,74.1c-0.5,0-1,0.2-1.3,0.4l0,5.6c0.3,0.2,0.8,0.4,1.3,0.4c1.4,0,2.6-1.4,2.6-3.2
									C374.9,75.6,373.7,74.1,372.3,74.1z"/>
							</g>
							<g>
								<ellipse class="st3" cx="379.6" cy="77.3" rx="2.6" ry="3.2"/>
								<path class="st8" d="M379.6,80.5c0.5,0,1-0.2,1.3-0.4l0-5.6c-0.3-0.2-0.8-0.4-1.3-0.4c-1.4,0-2.6,1.4-2.6,3.2
									C377,79.1,378.2,80.5,379.6,80.5z"/>
							</g>
							<path class="st1" d="M378,82.5h-4.1c-1.4,0-2.5-1.1-2.5-2.5v-5.2c0-1.4,1.1-2.5,2.5-2.5h4.1c1.4,0,2.5,1.1,2.5,2.5v5.2
								C380.5,81.3,379.4,82.5,378,82.5z"/>
							<g>
								<rect x="371.4" y="73.1" class="st9" width="9.2" height="0.5"/>
								<rect x="371.4" y="74.7" class="st9" width="9.2" height="0.5"/>
								<rect x="371.4" y="76.3" class="st9" width="9.2" height="0.5"/>
								<rect x="371.4" y="77.9" class="st9" width="9.2" height="0.5"/>
								<rect x="371.4" y="79.5" class="st9" width="9.2" height="0.5"/>
								<rect x="371.4" y="81.1" class="st9" width="9.2" height="0.5"/>
							</g>
							<path class="st8" d="M373.3,82.5h-0.8c-0.6,0-1.1-0.5-1.1-1.1v-8c0-0.6,0.5-1.1,1.1-1.1h0.8V82.5z"/>
						</g>
					</g>
					<g>
						<path class="st4" d="M369.5,68.3h-4.1c-1.1,0-2.1-0.5-2.9-1.3c-0.7-0.8-1.1-1.9-1-3l0,0l0.7-3.7c0.2-2,1.9-3.4,3.9-3.4h2.7
							c2,0,3.6,1.5,3.9,3.5l0.7,3.8c0.1,1.1-0.2,2.2-1,3C371.6,67.9,370.6,68.3,369.5,68.3z"/>
						<path class="st10" d="M369.5,67.6h-4.1c-1.9,0-3.3-1.6-3.1-3.5l0.7-3.7c0.2-1.6,1.5-2.8,3.1-2.8h2.7c1.6,0,3,1.2,3.1,2.8
							l0.7,3.7C372.8,66,371.4,67.6,369.5,67.6z"/>
						<polygon class="st3" points="367.2,57.5 363.1,66.5 364.8,67.4 369.5,57.5 						"/>
						<polygon class="st3" points="370.3,58.1 365.5,67.8 366.4,67.8 370.8,58.4 						"/>
						<polygon class="st3" points="371.4,59.1 367.2,67.6 369.3,67.6 372.3,60.8 						"/>
						<path class="st7" d="M369.5,68.1h-4.1c-1,0-2-0.4-2.7-1.2c-0.7-0.8-1-1.8-0.9-2.8l0,0l0.7-3.7c0.2-1.9,1.8-3.2,3.6-3.2h2.7
							c1.9,0,3.4,1.4,3.6,3.2l0.7,3.8c0.1,1-0.2,2-0.9,2.8C371.5,67.7,370.5,68.1,369.5,68.1z M362.7,64.2c-0.1,0.7,0.2,1.5,0.7,2
							c0.5,0.6,1.2,0.9,2,0.9h4.1c0.8,0,1.5-0.3,2-0.9c0.5-0.6,0.7-1.3,0.7-2l-0.7-3.8c-0.1-1.4-1.3-2.4-2.7-2.4h-2.7
							c-1.4,0-2.5,1-2.7,2.4l0,0L362.7,64.2z"/>
					</g>
					<g>
						<path class="st3" d="M369.4,53.4c0,1.1-0.9,1.9-1.9,1.9c-1.1,0-1.9-0.9-1.9-1.9s0.9-1.9,1.9-1.9
							C368.5,51.5,369.4,52.3,369.4,53.4z"/>
						<path class="st1" d="M368,54.4l-1.1,0c-0.4,0-0.8-0.4-0.8-0.8v-6.1h2.7v6.1C368.8,54,368.4,54.4,368,54.4z"/>
						<rect x="366.1" y="50.3" class="st4" width="2.7" height="0.6"/>
					</g>
				</g>
				<g>
					<path class="st7" d="M377.6,43.3c-0.2,0-0.4-0.2-0.4-0.4v-1c0-5.4-4.4-9.7-9.7-9.7c-5.4,0-9.7,4.4-9.7,9.7v1
						c0,0.2-0.2,0.4-0.4,0.4c-0.2,0-0.4-0.2-0.4-0.4v-1c0-5.8,4.7-10.6,10.6-10.6c5.8,0,10.6,4.7,10.6,10.6v1
						C378,43.1,377.8,43.3,377.6,43.3z"/>
					<path class="st7" d="M356.6,46.7v-2.2c0-0.2,0.2-0.4,0.4-0.4c0.2,0,0.4,0.2,0.4,0.4v2.2c0,0.3,0.2,0.5,0.5,0.5h1.1
						c0.2,0,0.4,0.2,0.4,0.4c0,0.2-0.2,0.4-0.4,0.4h-1.1C357.2,48,356.6,47.4,356.6,46.7z"/>
					<path class="st7" d="M377.1,48H376c-0.2,0-0.4-0.2-0.4-0.4c0-0.2,0.2-0.4,0.4-0.4h1.1c0.3,0,0.5-0.2,0.5-0.5v-2.2
						c0-0.2,0.2-0.4,0.4-0.4s0.4,0.2,0.4,0.4v2.2C378.4,47.4,377.8,48,377.1,48z"/>
					<path class="st5" d="M376,46.4c0.1-0.3,0.1-0.7,0.1-1v-7.1c0-2.3-1.9-4.2-4.2-4.2h-9.1c-2.3,0-4.2,1.9-4.2,4.2v7.1
						c0,2.3,1.9,4.2,4.2,4.2h9.1c1,0,2-0.4,2.7-1"/>
					<path class="st6" d="M361.9,47v2.4c-1.9-0.4-3.2-2.1-3.2-4.1V43C360.5,43.4,361.9,45,361.9,47z"/>
					<path class="st6" d="M376.1,43v2.4c0,0.3,0,0.7-0.1,1l-1.3,2.1c-0.5,0.4-1.1,0.8-1.8,0.9V47C372.9,45,374.2,43.4,376.1,43z"/>
					<path class="st3" d="M367,40.4c0,1.9-1.6,3.5-3.5,3.5c-1.9,0-3.5-1.6-3.5-3.5c0-1.9,1.6-3.5,3.5-3.5
						C365.5,36.9,367,38.5,367,40.4z"/>
					<path class="st3" d="M373.9,40.4c0,1.5-1.2,2.7-2.7,2.7s-2.7-1.2-2.7-2.7c0-1.5,1.2-2.7,2.7-2.7S373.9,39,373.9,40.4z"/>
					<path class="st1" d="M360.9,47.6c0,0.6-0.5,1.2-1.2,1.2h-0.4c-0.6,0-1.2-0.5-1.2-1.2c0-0.6,0.5-1.2,1.2-1.2h0.4
						C360.4,46.4,360.9,46.9,360.9,47.6z"/>
					<path class="st11" d="M365.8,45.2h1.2v4.4h-1.2V45.2z"/>
					<path class="st11" d="M367.8,45.2h1.2v4.4h-1.2V45.2z"/>
					<path class="st11" d="M369.8,45.3v4.3h1.2v-2.8C371,46.1,370.5,45.5,369.8,45.3z"/>
					<path class="st11" d="M365,45.3c-0.7,0.2-1.2,0.8-1.2,1.5v2.8h1.2V45.3z"/>
					<path class="st12" d="M358.7,39.8v4.1c0,0.6-0.4,1.2-1,1.3c-0.1,0-0.2,0.1-0.4,0.1h-0.5c-0.8,0-1.4-0.6-1.4-1.4v-4.1
						c0-0.8,0.6-1.4,1.4-1.4h0.5c0.1,0,0.3,0,0.4,0.1C358.3,38.6,358.7,39.1,358.7,39.8z"/>
					<path class="st11" d="M358.7,39.8v4.1c0,0.6-0.4,1.2-1,1.3c-0.6-0.2-1-0.7-1-1.3v-4.1c0-0.6,0.4-1.2,1-1.3
						C358.3,38.6,358.7,39.1,358.7,39.8z"/>
					<path class="st12" d="M379.4,39.8v4.1c0,0.6-0.4,1.2-1,1.3c-0.1,0-0.2,0.1-0.4,0.1h-0.5c-0.8,0-1.4-0.6-1.4-1.4v-4.1
						c0-0.8,0.6-1.4,1.4-1.4h0.5c0.1,0,0.3,0,0.4,0.1C379,38.6,379.4,39.1,379.4,39.8z"/>
					<path class="st11" d="M379.4,39.8v4.1c0,0.6-0.4,1.2-1,1.3c-0.6-0.2-1-0.7-1-1.3v-4.1c0-0.6,0.4-1.2,1-1.3
						C379,38.6,379.4,39.1,379.4,39.8z"/>
					<path class="st1" d="M375.3,46.4h0.4c0.6,0,1.2,0.5,1.2,1.2c0,0.6-0.5,1.2-1.2,1.2h-0.4c-0.6,0-1.2-0.5-1.2-1.2
						C374.1,46.9,374.7,46.4,375.3,46.4z"/>
					<path class="st1" d="M365,40.4c0,0.6-0.5,1.1-1.1,1.1c-0.6,0-1.1-0.5-1.1-1.1c0-0.6,0.5-1.1,1.1-1.1
						C364.5,39.3,365,39.8,365,40.4z"/>
					<path class="st1" d="M372.2,40.4c0,0.6-0.5,1.1-1.1,1.1c-0.6,0-1.1-0.5-1.1-1.1c0-0.6,0.5-1.1,1.1-1.1
						C371.7,39.3,372.2,39.8,372.2,40.4z"/>
				</g>
			</g>
			<g>
				<path class="st5" d="M108,341.4c0-0.6,0-1.2,0-1.8v-95.5c0-24.1-19.5-43.7-43.7-43.7c-24.1,0-43.7,19.5-43.7,43.7v95.5
					c0,0.6,0,1.2,0,1.8H108z"/>
				<g>
					<g>
						<path class="st1" d="M64.6,127.3c-4.9-14.9-2.6-36.8,12-46c8.7-5.5,19.4-6.6,28.3-11.7c7.8-4.5,13.9-11,17.9-19
							c2.8-5.5,4.8-11.3,7.5-16.8c1.5-3,2.9-6.1,4.8-8.9c3.3-5,14.9-20.9,22.5-5c1.9,3.9,7.7,0.5,5.9-3.4
							c-6.3-13-17.6-13.3-27.5-3.6c-14.3,13.9-14.5,37-31.2,48.8c-12,8.5-28.8,8.4-38.9,19.9c-11,12.6-12.8,32.2-7.7,47.5
							C59.4,133.2,66,131.4,64.6,127.3L64.6,127.3z"/>
					</g>
				</g>
				
					<rect x="72.1" y="62.7" transform="matrix(0.5941 -0.8044 0.8044 0.5941 -3.5935 134.7029)" class="st5" width="119.2" height="16.4"/>
				<polygon class="st6" points="160.5,18.1 159.9,18.8 168.9,25.5 98.7,120.6 102.9,123.7 173.7,27.9 				"/>
				
					<rect x="204.3" y="2.2" transform="matrix(0.5941 -0.8044 0.8044 0.5941 36.5948 196.0328)" class="st5" width="16.4" height="119.2"/>
				
					<rect x="214.1" y="-1.2" transform="matrix(0.594 -0.8044 0.8044 0.594 41.5593 197.6011)" class="st6" width="5" height="117.6"/>
				
					<rect x="71.1" y="107.6" transform="matrix(0.5985 -0.8011 0.8011 0.5985 -63.0354 123.7388)" class="st1" width="41.6" height="34.2"/>
				<polygon class="st13" points="90.7,97.9 90.4,98.2 107.6,111.1 83,144.1 93.2,151.6 118.1,118.3 				"/>
				
					<rect x="55.5" y="126.3" transform="matrix(0.5985 -0.8011 0.8011 0.5985 -86.241 119.7128)" class="st5" width="41.6" height="39.1"/>
				<polygon class="st6" points="90.1,130.3 67.6,160.4 50.6,147.7 48.2,150.8 79.5,174.3 104.4,141 				"/>
				<path class="st1" d="M95.9,239.4c0,17.4-14.1,31.5-31.5,31.5l0,0c-17.4,0-31.5-14.1-31.5-31.5v-79.2c0-17.4,14.1-31.5,31.5-31.5
					l0,0c17.4,0,31.5,14.1,31.5,31.5V239.4z"/>
				<path class="st13" d="M88.7,140.2C89.6,143,90,146,90,149v79.2c0,17.4-14.1,31.5-31.5,31.5c-9.8,0-18.6-4.5-24.4-11.6
					c3.8,13.1,15.9,22.7,30.2,22.7c17.4,0,31.5-14.1,31.5-31.5v-79.2C95.9,152.6,93.2,145.7,88.7,140.2z"/>
				<path class="st7" d="M86.6,238.2c0,12.3-9.9,22.2-22.2,22.2c-12.3,0-22.2-9.9-22.2-22.2c0-12.3,9.9-22.2,22.2-22.2
					C76.6,216,86.6,225.9,86.6,238.2z"/>
				<path class="st3" d="M80.5,238.2c0,8.9-7.2,16.2-16.2,16.2c-8.9,0-16.2-7.2-16.2-16.2c0-8.9,7.2-16.2,16.2-16.2
					C73.3,222,80.5,229.2,80.5,238.2z"/>
				<path class="st1" d="M75.8,238.2c0,6.3-5.1,11.5-11.5,11.5c-6.3,0-11.5-5.1-11.5-11.5c0-6.3,5.1-11.5,11.5-11.5
					C70.7,226.7,75.8,231.8,75.8,238.2z"/>
				<g>
					<path class="st1" d="M162.4,40.8c3.5,20.5,22.3,32.5,42.1,24.6c15.6-6.2,30.3-14.9,47.9-9c14.8,5,18.7,17.7,16.7,32
						c-0.6,4.3,6.2,4.3,6.8,0c2.7-20.1-6.1-36.4-27.1-40c-11.5-1.9-24.2,0.5-34.8,5c-8.5,3.6-16.4,9.4-26.2,7.5
						c-11.2-2.2-17.1-11.3-18.9-21.9C168.2,34.7,161.6,36.5,162.4,40.8L162.4,40.8z"/>
				</g>
				<g>
					<g>
						<path class="st7" d="M57.5,129.6c-0.2-0.5-0.4-0.9-0.5-1.4l7.7-2.7c0.1,0.4,0.3,0.8,0.4,1.2L57.5,129.6z"/>
					</g>
					<g>
						<path class="st7" d="M56.1,125.4c-0.3-1-0.5-1.9-0.7-2.9l8-1.7c0.2,0.8,0.4,1.6,0.6,2.4L56.1,125.4z M54.9,119.6
							c-0.1-1-0.2-2-0.3-3l8.1-0.6c0.1,0.8,0.1,1.6,0.3,2.4L54.9,119.6z M56.9,113.6l-2.5-0.1c0-1,0-1.8,0.1-2.7l8.1,0.5
							c0,0.7-0.1,1.5-0.1,2.2L56.9,113.6z M62.9,108.8l-8.1-1c0.1-1,0.3-1.9,0.4-2.9l8,1.4C63.1,107.2,63,108,62.9,108.8z
							 M63.7,103.9l-7.9-1.8c0.2-0.9,0.4-1.9,0.7-2.8l7.8,2.2C64.1,102.3,63.9,103.1,63.7,103.9z M65,99.1l-7.8-2.5
							c0.3-0.9,0.6-1.8,0.9-2.7l7.7,2.8C65.6,97.4,65.3,98.3,65,99.1z M66.7,94.3l-7.5-3.2c0.4-0.9,0.8-1.8,1.2-2.7l7.3,3.6
							C67.4,92.8,67.1,93.5,66.7,94.3z M68.9,90l-7-4.2c0.5-0.9,1.1-1.7,1.7-2.5l6.6,4.7C69.7,88.7,69.3,89.3,68.9,90z M71.6,86.3
							l-6.1-5.4c0.7-0.8,1.4-1.5,2.2-2.2l5.5,6C72.6,85.2,72.1,85.7,71.6,86.3z M74.9,83.2l-4.9-6.5c0.8-0.6,1.7-1.2,2.5-1.7
							l4.3,6.9C76.2,82.3,75.6,82.7,74.9,83.2z M78.9,80.7l-3.7-7.3c0.9-0.4,1.7-0.9,2.6-1.2l3.3,7.5C80.4,80,79.6,80.4,78.9,80.7z
							 M83.5,78.7l-2.9-7.6c0.9-0.3,1.7-0.7,2.6-1l2.7,7.7C85.1,78.1,84.3,78.4,83.5,78.7z M88.4,77l-2.6-7.7l2.6-0.9l2.6,7.7
							L88.4,77z M93.6,75.2l-2.8-7.7l0.3-0.1c0.7-0.2,1.5-0.5,2.2-0.8l2.8,7.7C95.3,74.7,94.4,75,93.6,75.2z M98.8,73.3l-3.1-7.5
							c0.8-0.3,1.5-0.7,2.3-1l3.5,7.3C100.6,72.5,99.7,72.9,98.8,73.3z M104,70.8l-3.9-7.2c0.7-0.4,1.4-0.8,2.1-1.2l4.3,6.9
							C105.7,69.8,104.9,70.3,104,70.8z M109,67.7l-4.7-6.7c0.7-0.5,1.3-1,1.9-1.5l5.1,6.4C110.6,66.6,109.8,67.2,109,67.7z
							 M113.6,64l-5.5-6c0.6-0.5,1.2-1.1,1.7-1.7l5.9,5.6C115.1,62.7,114.4,63.4,113.6,64z M117.7,59.8l-6.2-5.2
							c0.5-0.6,1-1.2,1.5-1.9l6.6,4.8C119,58.2,118.4,59,117.7,59.8z M121.2,54.9l-6.9-4.3c0.4-0.7,0.8-1.4,1.2-2.1l7.2,3.8
							C122.2,53.2,121.7,54.1,121.2,54.9z M124,49.7l-7.4-3.3c0.1-0.3,0.2-0.6,0.4-0.8l0.7-1.6l7.4,3.3l-0.7,1.5
							C124.3,49,124.2,49.4,124,49.7z M126.2,44.7l-7.5-3.2l1.1-2.5l7.5,3.2L126.2,44.7z M128.3,39.8l-7.5-3.2
							c0.4-0.8,0.7-1.7,1.1-2.5l7.4,3.3C129,38.1,128.7,39,128.3,39.8z M130.5,34.9l-7.4-3.4c0.4-0.8,0.8-1.7,1.2-2.5l7.3,3.5
							C131.2,33.3,130.8,34.1,130.5,34.9z M132.7,30.2l-7.2-3.7c0.4-0.8,0.9-1.7,1.3-2.5l7.1,4C133.5,28.7,133.1,29.5,132.7,30.2z
							 M135.2,25.8l-6.9-4.3c0.5-0.8,1-1.6,1.6-2.4l6.7,4.6C136.1,24.4,135.7,25.1,135.2,25.8z M138,21.7l-6.4-5
							c0.6-0.8,1.2-1.5,1.9-2.3l6.1,5.4C139.1,20.5,138.5,21.1,138,21.7z M141.2,18.1l-5.8-5.7c0.7-0.7,1.4-1.4,2.2-2l5.3,6.1
							C142.4,17,141.8,17.5,141.2,18.1z M155.2,16.5c-0.4-0.6-0.7-1.1-1.2-1.5l6-5.5c0.8,0.8,1.5,1.7,2.1,2.8L155.2,16.5z M144.8,15
							l-4.7-6.7c0.9-0.7,1.9-1.2,2.8-1.7l3.6,7.3C146,14.2,145.4,14.6,144.8,15z M152.8,13.9c-0.4-0.3-0.9-0.5-1.4-0.6l2.3-7.8
							c1.2,0.4,2.4,0.9,3.5,1.6L152.8,13.9z M148.3,13.3l-2.1-7.9c1.2-0.3,2.5-0.5,3.7-0.5l0,8.1C149.4,13,148.9,13.1,148.3,13.3z"
							/>
					</g>
					<g>
						<path class="st7" d="M156.7,19.6c-0.1-0.4-0.3-0.7-0.4-1l7.5-3.3c0.2,0.5,0.4,1,0.6,1.5L156.7,19.6z"/>
					</g>
				</g>
				<g>
					<g>
						<path class="st14" d="M161.8,41.8c-0.1-0.5-0.1-1-0.2-1.5l8.1-0.9c0,0.4,0.1,0.8,0.2,1.2L161.8,41.8z"/>
					</g>
					<g>
						<path class="st14" d="M268.8,84.2c0-1,0-1.8-0.1-2.6l8.1-0.3c0,0.9,0.1,1.8,0.1,2.7L268.8,84.2z M268.6,79
							c-0.1-0.9-0.1-1.8-0.2-2.6l8.1-0.8c0.1,0.9,0.2,1.9,0.3,2.9L268.6,79z M268,73.8c-0.1-0.9-0.3-1.8-0.4-2.6l8-1.4
							c0.2,0.9,0.3,1.9,0.4,2.9L268,73.8z M267.2,68.8c-0.2-1-0.4-1.4-0.4-1.5l-0.1-0.2l7.3-3.7c0.1,0.2,0.2,0.4,0.3,0.6
							c0.3,0.8,0.6,1.7,0.9,2.9L267.2,68.8z M192,68.8c-0.6,0-1.3,0-1.9-0.1c-0.4,0-0.8-0.1-1.2-0.1l0.9-8.1c0.3,0,0.7,0.1,1,0.1
							c0.4,0,0.9,0.1,1.3,0.1L192,68.8z M195.2,68.6l-0.9-8.1c0.8-0.1,1.5-0.2,2.3-0.4l1.7,8C197.3,68.4,196.3,68.5,195.2,68.6z
							 M185.8,68.1c-1-0.2-2.1-0.5-3-0.8l2.5-7.8c0.7,0.2,1.5,0.4,2.3,0.6L185.8,68.1z M201.4,67.3l-2.5-7.8
							c0.8-0.2,1.5-0.5,2.3-0.8l3,7.6C203.3,66.7,202.4,67,201.4,67.3z M179.7,66.1c-1-0.4-1.9-0.9-2.8-1.4l4-7.1
							c0.7,0.4,1.4,0.7,2.1,1L179.7,66.1z M265.6,65.5c-0.4-0.5-0.9-1.1-1.5-1.6l5.6-5.9c0.8,0.8,1.6,1.6,2.2,2.4L265.6,65.5z
							 M207,65.1l-3.4-7.4c0.8-0.4,1.6-0.7,2.4-1.1l3.6,7.3C208.7,64.3,207.8,64.7,207,65.1z M174.2,63c-0.9-0.6-1.7-1.3-2.5-2
							l5.5-6c0.6,0.5,1.2,1,1.8,1.4L174.2,63z M212.1,62.6l-3.7-7.2c0.8-0.4,1.7-0.8,2.5-1.3l3.6,7.3
							C213.7,61.8,212.9,62.2,212.1,62.6z M262.3,62.3c-0.6-0.5-1.3-1-2-1.4l4.5-6.8c0.9,0.6,1.7,1.2,2.5,1.8L262.3,62.3z
							 M216.8,60.3l-3.4-7.4c0.9-0.4,1.8-0.8,2.7-1.2l3,7.6C218.4,59.6,217.6,59.9,216.8,60.3z M258.2,59.6
							c-0.7-0.4-1.5-0.8-2.2-1.2l3.6-7.3c0.9,0.4,1.7,0.9,2.6,1.4L258.2,59.6z M169.5,58.7c-0.7-0.8-1.4-1.6-2-2.5l6.6-4.7
							c0.5,0.6,0.9,1.2,1.4,1.8L169.5,58.7z M221.5,58.4l-2.5-7.7c1-0.3,2-0.6,3-0.8l1.8,7.9C223,58,222.2,58.2,221.5,58.4z
							 M253.7,57.4l-0.8-0.3c-0.4-0.1-0.9-0.3-1.4-0.5l2.3-7.8c0.7,0.2,1.3,0.4,2,0.7l1,0.4L253.7,57.4z M226.5,57.1l-1.9-7.9
							c0.9-0.2,1.9-0.4,2.8-0.6l1.6,8C228.2,56.7,227.3,56.9,226.5,57.1z M231.6,56.1l-1.3-8c1-0.2,1.9-0.3,2.9-0.4l1,8.1
							C233.3,55.8,232.5,55.9,231.6,56.1z M249.2,56c-0.8-0.2-1.6-0.3-2.4-0.4l1.1-8.1c1,0.1,2,0.3,3,0.5L249.2,56z M236.7,55.4
							l-0.7-8.1c1-0.1,2-0.1,2.9-0.2l0.3,8.1C238.4,55.3,237.6,55.3,236.7,55.4z M244.3,55.3c-0.8-0.1-1.7-0.1-2.5-0.1l0.1-8.1
							c1,0,2,0.1,3,0.1L244.3,55.3z M165.8,53.6c-0.5-0.9-1-1.8-1.4-2.8l7.4-3.3c0.3,0.7,0.7,1.4,1.1,2.1L165.8,53.6z M163.3,47.8
							c-0.3-1-0.6-2-0.9-3l7.9-1.9c0.2,0.8,0.4,1.5,0.7,2.3L163.3,47.8z"/>
					</g>
					<g>
						<path class="st14" d="M276.5,89.3l-7.9-1.8c0.1-0.2,0.1-0.5,0.1-0.9l8.1,0.8C276.7,88.2,276.6,88.8,276.5,89.3z"/>
					</g>
				</g>
				<path class="st7" d="M175.6,34.5c-4.5,6.1-13,7.4-19.1,2.9c-6.1-4.5-7.4-13-2.9-19.1c4.5-6.1,13-7.4,19.1-2.9
					C178.8,19.8,180.1,28.4,175.6,34.5z"/>
				<path class="st3" d="M172.6,32.3c-3.3,4.4-9.5,5.3-13.9,2.1c-4.4-3.3-5.3-9.5-2.1-13.9c3.3-4.4,9.5-5.4,13.9-2.1
					C174.9,21.6,175.8,27.8,172.6,32.3z"/>
				<path class="st1" d="M170.3,30.5c-2.3,3.1-6.7,3.8-9.9,1.5c-3.1-2.3-3.8-6.7-1.5-9.9c2.3-3.1,6.7-3.8,9.9-1.5
					C171.9,23,172.6,27.4,170.3,30.5z"/>
				<polygon class="st1" points="261.3,114.8 251.9,104.8 265.3,86.8 277.5,92.8 				"/>
				<polygon class="st13" points="259.1,95.1 269.8,103 277.4,92.7 265.3,86.8 				"/>
				<path class="st6" d="M51.8,332.9c0,3.3,0,6,0,8.5H108c0-0.6,0-1.2,0-1.8v-95.5c0-1.9-0.2-3.8-0.4-5.7
					C107.3,242.4,100.6,325.1,51.8,332.9z"/>
				<rect x="4" y="323.4" class="st1" width="121.4" height="27.4"/>
				<path class="st13" d="M115.8,323.4c-1.5,11.1-10.9,19.6-22.4,19.6H4v7.7h121.4v-27.4H115.8z"/>
				<path class="st7" d="M76.8,165.2c0,6.8-5.6,12.4-12.4,12.4c-6.8,0-12.4-5.6-12.4-12.4c0-6.8,5.6-12.4,12.4-12.4
					C71.2,152.8,76.8,158.4,76.8,165.2z"/>
				<path class="st3" d="M73.4,165.2c0,5-4,9-9,9c-5,0-9-4-9-9c0-5,4-9,9-9C69.3,156.2,73.4,160.3,73.4,165.2z"/>
				<path class="st1" d="M70.8,165.2c0,3.5-2.9,6.4-6.4,6.4c-3.5,0-6.4-2.9-6.4-6.4c0-3.5,2.9-6.4,6.4-6.4
					C67.9,158.8,70.8,161.7,70.8,165.2z"/>
				<polygon class="st15" points="285.7,96.8 307.2,96.8 315.7,121 311.5,126.7 305.4,122.2 309.1,117.2 301.9,105.8 276.6,109.1 
									"/>
				<polygon class="st16" points="267.8,121.1 274.1,141.6 299.7,142.7 303.9,136.9 297.8,132.4 294.2,137.5 281.1,133.9 
					276.9,108.8 				"/>
				
					<rect x="256" y="98.4" transform="matrix(0.594 -0.8045 0.8045 0.594 25.5749 260.8805)" class="st1" width="30.5" height="13.4"/>
				
					<rect x="268.1" y="92.3" transform="matrix(0.5938 -0.8046 0.8046 0.5938 32.3514 262.07)" class="st13" width="15.3" height="13.4"/>
				<path class="st7" d="M283.4,114.1c-2.1,2.9-6.2,3.5-9.1,1.4c-2.9-2.1-3.5-6.2-1.4-9.1c2.1-2.9,6.2-3.5,9.1-1.4
					C284.9,107.1,285.6,111.2,283.4,114.1z"/>
				<path class="st3" d="M282,113c-1.6,2.1-4.5,2.6-6.7,1c-2.1-1.6-2.6-4.5-1-6.7c1.6-2.1,4.5-2.6,6.6-1
					C283.1,108,283.5,110.9,282,113z"/>
				<path class="st1" d="M280.9,112.2c-1.1,1.5-3.2,1.8-4.7,0.7c-1.5-1.1-1.8-3.2-0.7-4.7c1.1-1.5,3.2-1.8,4.7-0.7
					C281.7,108.6,282,110.7,280.9,112.2z"/>
			</g>
			<g>
				<rect x="492.4" y="76.1" class="st17" width="0.7" height="7"/>
				<g>
					<path class="st1" d="M492,82.6C492,82.6,492,82.5,492,82.6l-0.4,0c0-0.3,0.4-0.4,0.9-0.5c0.2,0,0.4-0.1,0.6-0.2
						c-0.1-0.1-0.4-0.1-0.6-0.2c-0.5-0.1-0.9-0.2-0.9-0.5c0-0.3,0.4-0.4,0.9-0.5c0.2,0,0.4-0.1,0.6-0.2c-0.1-0.1-0.4-0.1-0.6-0.2
						c-0.5-0.1-0.9-0.2-0.9-0.5c0-0.3,0.4-0.4,0.9-0.5c0.2,0,0.4-0.1,0.6-0.2c-0.1-0.1-0.4-0.1-0.6-0.2c-0.5-0.1-0.9-0.2-0.9-0.5
						c0-0.3,0.4-0.4,0.9-0.5c0.2,0,0.4-0.1,0.6-0.2c-0.1-0.1-0.4-0.1-0.6-0.2c-0.5-0.1-0.9-0.2-0.9-0.5c0-0.3,0.4-0.4,0.9-0.5
						c0.2,0,0.6-0.1,0.6-0.2c0,0,0,0,0,0h0.4c0,0.3-0.4,0.4-0.9,0.5c-0.2,0-0.4,0.1-0.6,0.2c0.1,0.1,0.4,0.1,0.6,0.2
						c0.5,0.1,0.9,0.2,0.9,0.5c0,0.3-0.4,0.4-0.9,0.5c-0.2,0-0.4,0.1-0.6,0.2c0.1,0.1,0.4,0.1,0.6,0.2c0.5,0.1,0.9,0.2,0.9,0.5
						c0,0.3-0.4,0.4-0.9,0.5c-0.2,0-0.4,0.1-0.6,0.2c0.1,0.1,0.4,0.1,0.6,0.2c0.5,0.1,0.9,0.2,0.9,0.5c0,0.3-0.4,0.4-0.9,0.5
						c-0.2,0-0.4,0.1-0.6,0.2c0.1,0.1,0.4,0.1,0.6,0.2c0.5,0.1,0.9,0.2,0.9,0.5c0,0.3-0.4,0.4-0.9,0.5
						C492.4,82.4,492.1,82.5,492,82.6z"/>
				</g>
				<rect x="499.7" y="76.1" class="st17" width="0.7" height="7"/>
				<g>
					<path class="st1" d="M499.3,82.6C499.3,82.6,499.3,82.5,499.3,82.6l-0.4,0c0-0.3,0.4-0.4,0.9-0.5c0.2,0,0.4-0.1,0.6-0.2
						c-0.1-0.1-0.4-0.1-0.6-0.2c-0.5-0.1-0.9-0.2-0.9-0.5c0-0.3,0.4-0.4,0.9-0.5c0.2,0,0.4-0.1,0.6-0.2c-0.1-0.1-0.4-0.1-0.6-0.2
						c-0.5-0.1-0.9-0.2-0.9-0.5c0-0.3,0.4-0.4,0.9-0.5c0.2,0,0.4-0.1,0.6-0.2c-0.1-0.1-0.4-0.1-0.6-0.2c-0.5-0.1-0.9-0.2-0.9-0.5
						c0-0.3,0.4-0.4,0.9-0.5c0.2,0,0.4-0.1,0.6-0.2c-0.1-0.1-0.4-0.1-0.6-0.2c-0.5-0.1-0.9-0.2-0.9-0.5c0-0.3,0.4-0.4,0.9-0.5
						c0.2,0,0.6-0.1,0.7-0.2c0,0,0,0,0,0h0.4c0,0.3-0.4,0.4-0.9,0.5c-0.2,0-0.4,0.1-0.6,0.2c0.1,0.1,0.4,0.1,0.6,0.2
						c0.5,0.1,0.9,0.2,0.9,0.5c0,0.3-0.4,0.4-0.9,0.5c-0.2,0-0.4,0.1-0.6,0.2c0.1,0.1,0.4,0.1,0.6,0.2c0.5,0.1,0.9,0.2,0.9,0.5
						c0,0.3-0.4,0.4-0.9,0.5c-0.2,0-0.4,0.1-0.6,0.2c0.1,0.1,0.4,0.1,0.6,0.2c0.5,0.1,0.9,0.2,0.9,0.5c0,0.3-0.4,0.4-0.9,0.5
						c-0.2,0-0.4,0.1-0.6,0.2c0.1,0.1,0.4,0.1,0.6,0.2c0.5,0.1,0.9,0.2,0.9,0.5c0,0.3-0.4,0.4-0.9,0.5
						C499.8,82.4,499.4,82.5,499.3,82.6z"/>
				</g>
				<path class="st13" d="M442.4,70c0.1,0.2,0.4,0.2,0.6,0.1l0,0c0.2-0.1,0.2-0.4,0.1-0.6l-4.2-5.4c-0.1-0.2-0.4-0.2-0.6-0.1l0,0
					c-0.2,0.1-0.2,0.4-0.1,0.6L442.4,70z"/>
				<path class="st1" d="M437.6,65.8c0.2,0.3,0.7,0.4,1,0.2l1.6-1.2c0.3-0.2,0.4-0.7,0.2-1l-1.2-1.6c-0.2-0.3-0.7-0.4-1-0.1
					l-1.6,1.2c-0.3,0.2-0.4,0.7-0.2,1L437.6,65.8z"/>
				<path class="st5" d="M432.2,64.4c0.8,1,2.2,1.2,3.2,0.5l5-3.8c1-0.8,1.2-2.2,0.5-3.2l-3.8-5c-0.8-1-2.2-1.2-3.2-0.5l-5,3.8
					c-1,0.8-1.2,2.2-0.5,3.2L432.2,64.4z"/>
				<path class="st5" d="M508.2,120.2c0-0.2,0-0.3,0-0.5V93.2c0-6.7-5.4-12.1-12.1-12.1c-6.7,0-12.1,5.4-12.1,12.1v26.4
					c0,0.2,0,0.3,0,0.5H508.2z"/>
				
					<rect x="476.4" y="28.8" transform="matrix(0.8044 -0.5941 0.5941 0.8044 66.7325 293.2578)" class="st5" width="4.5" height="33"/>
				<polygon class="st6" points="470.7,30.7 470.9,30.9 468.4,32.7 487.8,59.1 486.7,59.9 467.1,33.4 				"/>
				
					<rect x="439.8" y="40.5" transform="matrix(0.8044 -0.5941 0.5941 0.8044 63.8678 279.4745)" class="st5" width="33" height="4.5"/>
				
					<rect x="438.9" y="40.9" transform="matrix(0.8044 -0.594 0.594 0.8044 64.3012 278.5424)" class="st6" width="32.6" height="1.4"/>
				
					<rect x="485" y="54.4" transform="matrix(0.8011 -0.5985 0.5985 0.8011 61.3541 305.0492)" class="st1" width="9.5" height="11.5"/>
				<polygon class="st13" points="490.1,52.8 490.1,52.9 485.4,56.4 492.2,65.5 489.4,67.6 482.5,58.4 				"/>
				
					<rect x="488.6" y="60.3" transform="matrix(0.8011 -0.5985 0.5985 0.8011 58.7309 308.8379)" class="st5" width="10.8" height="11.5"/>
				<polygon class="st18" points="490.2,61.7 496.5,70.1 501.2,66.5 501.8,67.4 493.1,73.9 486.3,64.7 				"/>
				<path class="st7" d="M466.6,35.2c1.2,1.7,3.6,2,5.3,0.8c1.7-1.2,2-3.6,0.8-5.3c-1.2-1.7-3.6-2-5.3-0.8
					C465.7,31.1,465.3,33.5,466.6,35.2z"/>
				<path class="st3" d="M467.4,34.6c0.9,1.2,2.6,1.5,3.8,0.6c1.2-0.9,1.5-2.6,0.6-3.8c-0.9-1.2-2.6-1.5-3.8-0.6
					C466.7,31.6,466.5,33.4,467.4,34.6z"/>
				<path class="st1" d="M468,34.1c0.6,0.9,1.9,1.1,2.7,0.4c0.9-0.6,1.1-1.9,0.4-2.7c-0.6-0.9-1.9-1.1-2.7-0.4
					C467.6,32,467.4,33.2,468,34.1z"/>
				<polygon class="st1" points="442.8,57.4 445.4,54.7 441.7,49.7 438.3,51.3 				"/>
				<polygon class="st13" points="443.4,52 440.5,54.2 438.4,51.3 441.7,49.7 				"/>
				<path class="st6" d="M492.6,117.8c0,0.9,0,1.7,0,2.3h15.6c0-0.2,0-0.3,0-0.5V93.2c0-0.5,0-1.1-0.1-1.6
					C508,92.8,506.2,115.7,492.6,117.8z"/>
				<rect x="479.4" y="115.2" class="st1" width="33.6" height="7.6"/>
				<path class="st13" d="M510.9,115.2v0.4c0,2.8-2.3,5.2-5.2,5.2h-26.3v2H513v-7.6H510.9z"/>
				
					<rect x="438.2" y="50.5" transform="matrix(0.8045 -0.5939 0.5939 0.8045 53.4945 272.0561)" class="st1" width="3.7" height="8.4"/>
				
					<rect x="437" y="50.9" transform="matrix(0.8047 -0.5937 0.5937 0.8047 54.203 270.8904)" class="st13" width="3.7" height="4.2"/>
				<path class="st6" d="M436.1,52.1c-0.7-0.2-1.5-0.2-2.1,0.3l-5,3.8c-1,0.8-1.2,2.2-0.5,3.2l0.2,0.2l1.5,1.8l8.5-6.2L436.1,52.1z"
					/>
				<path class="st1" d="M496.1,61.3c-4.8,0-8.7,3.9-8.7,8.7v21.9c0,4.8,3.9,8.7,8.7,8.7c4.8,0,8.7-3.9,8.7-8.7V70
					C504.8,65.2,500.9,61.3,496.1,61.3z M502.7,79.5c0,0.8-0.7,1.5-1.5,1.5h-10c-0.8,0-1.5-0.7-1.5-1.5v-1.1c0-0.8,0.7-1.5,1.5-1.5
					h10c0.8,0,1.5,0.7,1.5,1.5V79.5z"/>
				<g>
					<path class="st19" d="M499.9,71.7c0,1.9-1.5,3.4-3.4,3.4c-1.9,0-3.4-1.5-3.4-3.4c0-1.9,1.5-3.4,3.4-3.4
						C498.4,68.2,499.9,69.8,499.9,71.7z"/>
					<path class="st7" d="M499.5,71.4c0,1.9-1.5,3.4-3.4,3.4c-1.9,0-3.4-1.5-3.4-3.4c0-1.9,1.5-3.4,3.4-3.4
						C498,68,499.5,69.5,499.5,71.4z"/>
					<path class="st3" d="M498.6,71.4c0,1.4-1.1,2.5-2.5,2.5c-1.4,0-2.5-1.1-2.5-2.5c0-1.4,1.1-2.5,2.5-2.5
						C497.5,68.9,498.6,70,498.6,71.4z"/>
					<path class="st1" d="M497.9,71.4c0,1-0.8,1.8-1.8,1.8c-1,0-1.8-0.8-1.8-1.8c0-1,0.8-1.8,1.8-1.8
						C497.1,69.6,497.9,70.4,497.9,71.4z"/>
				</g>
				<path class="st13" d="M496.1,100.7c4.8,0,8.7-3.9,8.7-8.7V81.2c0,0-1.7,10.8-17.4,10.8C487.4,96.8,491.3,100.7,496.1,100.7z"/>
				<g>
					<path class="st7" d="M502.3,91.6c0,3.4-2.8,6.1-6.1,6.1c-3.4,0-6.1-2.8-6.1-6.1c0-3.4,2.8-6.1,6.1-6.1
						C499.5,85.5,502.3,88.2,502.3,91.6z"/>
					<path class="st3" d="M500.6,91.6c0,2.5-2,4.5-4.5,4.5c-2.5,0-4.5-2-4.5-4.5c0-2.5,2-4.5,4.5-4.5
						C498.6,87.1,500.6,89.1,500.6,91.6z"/>
					<path class="st1" d="M499.3,91.6c0,1.8-1.4,3.2-3.2,3.2c-1.8,0-3.2-1.4-3.2-3.2c0-1.8,1.4-3.2,3.2-3.2
						C497.9,88.4,499.3,89.8,499.3,91.6z"/>
				</g>
			</g>
		</g>
		<polygon class="st1" points="350.4,158.8 348.1,156.5 350.4,154.3 348.4,152.3 346.1,154.6 343.9,152.4 341.9,154.4 344.2,156.6 
			342,158.8 343.9,160.8 346.2,158.5 348.4,160.8 		"/>
		<polygon class="st1" points="380.9,158.8 378.7,156.5 380.9,154.3 378.9,152.3 376.7,154.6 374.4,152.4 372.4,154.4 374.7,156.6 
			372.5,158.8 374.5,160.8 376.7,158.5 379,160.8 		"/>
	</g>
	<g class="st20">
		<path class="st21" d="M205,129.7c-34.9,0-63.5,28.5-63.5,63.5s28.5,63.5,63.5,63.5s63.5-28.5,63.5-63.5S240,129.7,205,129.7
			L205,129.7z M205,249.2c-30.8,0-56.1-25.2-56.1-56.1c0-13.7,5.1-26.6,14.1-36.7l78.6,78.6C231.6,244,218.7,249.2,205,249.2
			L205,249.2z M247,229.8l-78.6-78.6c10.2-9,23-14.1,36.7-14.1c30.8,0,56.1,25.2,56.1,56.1C261,206.7,256,219.6,247,229.8L247,229.8
			z"/>
		<path class="st22" d="M268.5,193.2c0,35.1-28.5,63.5-63.5,63.5v-7.5c13.7,0,26.6-5.1,36.7-14.1L205,198.4v-10.7l42,42
			c9-10.2,14.1-23,14.1-36.7c0-30.8-25.2-56.1-56.1-56.1v-7.5C240,129.7,268.5,158.1,268.5,193.2L268.5,193.2z"/>
	</g>
	<g>
		<path class="st23" d="M357.1,112.7c-53.9,0-98.1,43.9-98.1,98.1s43.9,98.1,98.1,98.1s98.1-43.9,98.1-98.1S411.3,112.7,357.1,112.7
			L357.1,112.7z M357.1,297.4c-47.6,0-86.6-39-86.6-86.6c0-21.2,7.8-41.1,21.7-56.8l121.4,121.4
			C398.2,289.3,378.3,297.4,357.1,297.4L357.1,297.4z M422,267.3L300.6,146c15.7-13.9,35.6-21.7,56.8-21.7c47.6,0,86.6,39,86.6,86.6
			C443.7,231.8,435.9,251.6,422,267.3L422,267.3z"/>
		<path class="st24" d="M455.2,210.8c0,54.1-43.9,98.1-98.1,98.1v-11.5c21.2,0,41.1-7.8,56.8-21.7l-56.8-56.8v-16.5l64.9,64.9
			c13.9-15.7,21.7-35.6,21.7-56.8c0-47.6-39-86.6-86.6-86.6v-11.5C411.3,112.7,455.2,156.7,455.2,210.8L455.2,210.8z"/>
	</g>
</g>
</svg>
