<?xml version="1.0" encoding="utf-8"?>
<!-- Generator: Adobe Illustrator 23.0.1, SVG Export Plug-In . SVG Version: 6.00 Build 0)  -->
<svg version="1.1" id="Слой_1" xmlns="http://www.w3.org/2000/svg" xmlns:xlink="http://www.w3.org/1999/xlink" x="0px" y="0px"
	 viewBox="0 0 16 16" style="enable-background:new 0 0 16 16;" xml:space="preserve">
<style type="text/css">
	.st0{fill:#FFFFFF;}
</style>
<path class="st0" d="M2.5,5v10c0,0.5,0.5,1,1,1h9c0.6,0,1-0.4,1-1V5H2.5z M5.5,14h-1V7h1V14z M7.5,14h-1V7h1V14z M9.5,14h-1V7h1V14z
	 M11.5,14h-1V7h1V14z"/>
<path class="st0" d="M13.8,2h-3.3V0.8c0-0.4-0.3-0.8-0.8-0.8H6.3C5.8,0,5.5,0.3,5.5,0.8V2H2.3C1.8,2,1.5,2.3,1.5,2.8V4h13V2.8
	C14.5,2.3,14.2,2,13.8,2z M9.5,2h-3V1h3V2z"/>
</svg>
