<?xml version="1.0" encoding="utf-8"?>
<!-- Generator: Adobe Illustrator 23.0.0, SVG Export Plug-In . SVG Version: 6.00 Build 0)  -->
<svg version="1.1" id="Capa_1" xmlns="http://www.w3.org/2000/svg" xmlns:xlink="http://www.w3.org/1999/xlink" x="0px" y="0px"
	 viewBox="0 0 512 512" style="enable-background:new 0 0 512 512;" xml:space="preserve">
<style type="text/css">
	.st0{fill:#6695E2;}
</style>
<g>
	<path class="st0" d="M39.8,39.8c53.1-53.1,139.1-53.1,192.2,0l72.8,72.8c-29.1-4.3-59-1.4-86.7,9.4l-34.2-34.2
		c-26.5-26.5-69.6-26.5-96.1,0c-26.5,26.5-26.5,69.6,0,96.1l96.1,96.1c26.5,26.5,69.6,26.5,96.1,0c8.3-8.3,13.7-18.3,16.8-28.8
		c2.5,1.4,5.1,2.7,7.2,4.8l44.7,44.7c-5.7,9.7-12.3,19.1-20.6,27.4c-53.1,53.1-139.1,53.1-192.2,0L39.8,232
		C-13.3,178.9-13.3,92.9,39.8,39.8z M207.2,399.4l72.8,72.8c53.1,53.1,139.1,53.1,192.2,0c53.1-53.1,53.1-139.1,0-192.2l-96.1-96.1
		c-53.1-53.1-139.1-53.1-192.2,0c-8.4,8.3-14.9,17.7-20.6,27.4L208,256c2.1,2.1,4.7,3.3,7.2,4.8c3.1-10.5,8.5-20.5,16.8-28.8
		c26.5-26.5,69.6-26.5,96.1,0l96.1,96.1c26.5,26.5,26.5,69.6,0,96.1c-26.5,26.5-69.6,26.5-96.1,0L293.9,390
		C266.2,400.7,236.3,403.7,207.2,399.4z"/>
</g>
</svg>
