<?xml version="1.0" encoding="utf-8"?>
<!-- Generator: Adobe Illustrator 23.0.1, SVG Export Plug-In . SVG Version: 6.00 Build 0)  -->
<svg version="1.1" id="Capa_1" xmlns="http://www.w3.org/2000/svg" xmlns:xlink="http://www.w3.org/1999/xlink" x="0px" y="0px"
	 viewBox="0 0 16 16" style="enable-background:new 0 0 16 16;" xml:space="preserve">
<style type="text/css">
	.st0{fill:#455A64;}
</style>
<g>
	<path class="st0" d="M12.2,0c-1,0-2,0.4-2.7,1.1l-3,3C6.7,4.1,6.9,4,7.2,4C7.8,4,8.4,4.2,9,4.4l1.9-1.9C11.2,2.2,11.7,2,12.2,2
		c1,0,1.8,0.8,1.8,1.8c0,0.5-0.2,0.9-0.5,1.3l-3.3,3.3c-0.7,0.7-1.9,0.7-2.6,0L6.1,9.9C6.8,10.6,7.8,11,8.8,11c1,0,2-0.4,2.7-1.1
		l3.3-3.3C15.6,5.8,16,4.9,16,3.8C16,1.7,14.3,0,12.2,0L12.2,0z"/>
	<path class="st0" d="M7,11.6l-1.8,1.8C4.8,13.8,4.3,14,3.8,14c-1,0-1.8-0.8-1.8-1.8c0-0.5,0.2-0.9,0.5-1.3l3.3-3.3
		c0.7-0.7,1.9-0.7,2.6,0l1.4-1.4c-1.4-1.4-4-1.4-5.4,0L1.1,9.5C0.4,10.2,0,11.1,0,12.2C0,14.3,1.7,16,3.8,16c1,0,2-0.4,2.7-1.1
		l2.9-2.9C9.3,12,9,12,8.8,12C8.2,12,7.5,11.9,7,11.6L7,11.6z"/>
</g>
</svg>
