<?xml version="1.0" encoding="utf-8"?>
<!-- Generator: Adobe Illustrator 23.0.1, SVG Export Plug-In . SVG Version: 6.00 Build 0)  -->
<svg version="1.1" id="Слой_1" xmlns="http://www.w3.org/2000/svg" xmlns:xlink="http://www.w3.org/1999/xlink" x="0px" y="0px"
	 viewBox="0 0 59.2 70" style="enable-background:new 0 0 59.2 70;" xml:space="preserve">
<style type="text/css">
	.st0{fill:#4EB593;}
	.st1{fill:#3E87C7;}
	.st2{fill:#009D80;}
	.st3{fill:#0C7CAA;}
</style>
<g>
	<g>
		<g>
			<path class="st0" d="M46.3,42.6C40.4,49.7,34,57.5,29.8,61.8c-0.1-0.1-0.1-0.1-0.2-0.2c-2.1-1.8-4.7-4.3-7.3-7.1l-4.4,4.4
				c5.5,5.7,10.7,10,11.7,10.9c0.1,0.1,0.2,0.2,0.2,0.2s14.3-15.7,21-22.9L46.3,42.6z"/>
			<path class="st1" d="M29.6,12.6l-18.3,7.2c0,0,1.5,12.1,5.6,20.3c3.6,7.1,11.8,15.2,12.7,15.7c0.9-0.5,9.5-9.1,13.1-16.2
				c4.1-8.2,5.3-19.8,5.3-19.8L29.6,12.6z"/>
			<path class="st1" d="M59,12.4L29.6,0L0.2,12.4c0,0-2.1,17.1,7.1,33c1.8,3.1,4.1,6.2,6.5,9l4.4-4.4c-2.1-2.5-4-5.1-5.5-7.7
				c-5.2-9-6.3-19.1-6.4-24.7c2.6-1.5,21.2-8.9,23.3-9.8c2.1,0.9,20.7,8.4,23.3,9.8c-0.1,4.5-0.9,11.9-3.8,19.3l4.8,4.8
				C60.8,26.9,59,12.4,59,12.4z"/>
			<path class="st2" d="M50.8,47.1l-4.5-4.5C40.4,49.7,34,57.5,29.8,61.8c-0.1-0.1,0,8.2,0,8.2S44.1,54.3,50.8,47.1z"/>
			<path class="st3" d="M49.1,36.8l4.8,4.8C60.8,26.9,59,12.4,59,12.4L29.6,0v7.7c2.1,0.9,20.7,8.4,23.3,9.8
				C52.8,22.1,52.1,29.5,49.1,36.8z"/>
			<path class="st3" d="M47.9,19.8c0,0-1.2,11.6-5.3,19.8c-3.6,7.1-12.2,15.7-13.1,16.2V12.6L47.9,19.8z"/>
		</g>
	</g>
</g>
</svg>
