<svg id="Capa_1" data-name="Capa 1" xmlns="http://www.w3.org/2000/svg" viewBox="0 0 16 16"><defs><style>.cls-1{fill:#2f3435;}</style></defs><title>magic</title><g id="auto-fix"><polygon class="cls-1" points="4.95 2.74 6.86 3.81 5.79 1.91 6.86 0 4.95 1.07 3.05 0 4.11 1.91 3.05 3.81 4.95 2.74"/><polygon class="cls-1" points="14.1 10.21 12.19 9.14 13.26 11.05 12.19 12.95 14.1 11.89 16 12.95 14.93 11.05 16 9.14 14.1 10.21"/><polygon class="cls-1" points="16 0 14.1 1.07 12.19 0 13.26 1.91 12.19 3.81 14.1 2.74 16 3.81 14.93 1.91 16 0"/><path class="cls-1" d="M10.21,4A.73.73,0,0,0,9.14,4L.23,13A.73.73,0,0,0,.23,14L2,15.77a.73.73,0,0,0,1.07,0L12,6.86a.73.73,0,0,0,0-1.07ZM9.37,8.23l-1.6-1.6L9.6,4.8l1.6,1.6Z"/></g></svg>