<?xml version="1.0" encoding="utf-8"?>
<!-- Generator: Adobe Illustrator 23.0.0, SVG Export Plug-In . SVG Version: 6.00 Build 0)  -->
<svg version="1.1" id="Слой_1" xmlns="http://www.w3.org/2000/svg" xmlns:xlink="http://www.w3.org/1999/xlink" x="0px" y="0px"
	 viewBox="0 0 76.9 64.1" style="enable-background:new 0 0 76.9 64.1;" xml:space="preserve">
<style type="text/css">
	.st0{fill:#4BA05D;}
	.st1{fill:#57B36E;}
	.st2{fill:#E6AF78;}
	.st3{fill:#707487;}
	.st4{fill:#D29B6E;}
	.st5{fill:#F0C087;}
	.st6{fill:#5B5D6E;}
	.st7{fill:#515262;}
	.st8{fill:#785550;}
	.st9{fill:#694B4B;}
	.st10{fill:#5A4146;}
	.st11{fill:#EFF2FA;}
	.st12{fill:#E4EAF6;}
	.st13{fill:#C63940;}
	.st14{fill:#E84C4F;}
	.st15{fill:#FCFCFC;}
	.st16{fill:#494B5B;}
	.st17{fill:#FFFFFF;}
	.st18{fill:#E1EBF0;}
	.st19{fill:#B2D0D6;}
</style>
<title>shield</title>
<desc>Created with Sketch.</desc>
<g>
	<circle class="st0" cx="38.5" cy="32" r="31.2"/>
	<circle class="st1" cx="38.5" cy="26.8" r="26"/>
	<g>
		<polygon class="st2" points="41.1,20.6 41.1,18.9 36.6,18.9 36.6,20.6 38.9,22.6 		"/>
		<path class="st3" d="M44.6,21.4l-3.1-0.7c-0.1,0-0.1,0-0.1-0.1l-2.5,1.5l-2.4-1.5c-0.1,0.1-0.1,0.1-0.2,0.1l-3.1,0.7
			c-0.4,0.1-0.8,0.5-0.8,1v2c0,0.3,0.2,0.5,0.5,0.5h12c0.3,0,0.5-0.2,0.5-0.5v-2C45.4,21.9,45,21.5,44.6,21.4z"/>
		<path class="st4" d="M36.6,18.9v1.8c2.8,1,4.5-1.5,4.5-1.5v-0.3H36.6z"/>
		<path class="st5" d="M35.6,13.1l0.2,4.8c0,0.4,0.2,0.9,0.6,1.1l1,0.8c0.3,0.2,0.6,0.3,0.9,0.3h1c0.3,0,0.7-0.1,0.9-0.3l1-0.8
			c0.4-0.3,0.6-0.7,0.6-1.1l0.2-4.8H35.6z"/>
		<path class="st2" d="M38.1,14.1c1,0,2.5-0.3,2.8-1h-5.3l0.2,4.8c0,0.4,0.2,0.9,0.6,1.1l1,0.8c0.3,0.2,0.6,0.3,0.9,0.3h0.5
			c-0.5,0-1.5-1-1.5-2.2c0-0.6,0-2.2,0-3C37.4,14.6,37.6,14.1,38.1,14.1z"/>
		<g>
			<path class="st6" d="M43.5,23.2l1.6-1.5c0.1,0.2,0.2,0.4,0.2,0.6v2c0,0.3-0.2,0.5-0.5,0.5h-1.7v-0.7
				C43.1,23.8,43.3,23.5,43.5,23.2z"/>
			<path class="st6" d="M34.2,23.2l-1.6-1.5c-0.1,0.2-0.2,0.4-0.2,0.6v2c0,0.3,0.2,0.5,0.5,0.5h1.7v-0.7
				C34.6,23.8,34.5,23.5,34.2,23.2z"/>
			<polygon class="st6" points="39.5,24.9 38.2,24.9 38.4,22.6 39.3,22.6 			"/>
		</g>
		<path class="st7" d="M39.5,22.1h-1.2v0.2c0,0.3,0.3,0.6,0.6,0.6h0c0.3,0,0.6-0.3,0.6-0.6L39.5,22.1L39.5,22.1z"/>
		<g>
			<path class="st6" d="M36.6,20.1l2.3,2.1c0,0-0.7,0.3-1.4,1C37.3,23.2,37,23.2,37,23l-1.1-2.4l0.3-0.5C36.3,20,36.5,20,36.6,20.1z
				"/>
			<path class="st6" d="M41.1,20.1l-2.3,2c0,0,0.7,0.3,1.4,1c0.2,0.1,0.4,0.1,0.5-0.1l1.1-2.4l-0.3-0.5C41.4,20,41.3,20,41.1,20.1z"
				/>
		</g>
		<path class="st8" d="M40.4,11.5l0.2,1.6c1.1,0.2,1.2,1.9,1.2,2.4c0,0.1,0,0.2,0.1,0.2l0.4,0.6c0,0-0.1-1,0.5-1.7
			C42.8,14.6,43,10.5,40.4,11.5z"/>
		<path class="st5" d="M42.6,16.3l-0.3,1.1c0,0.1-0.2,0.2-0.3,0.2l0,0c-0.2,0-0.3-0.1-0.3-0.3l-0.2-1.1c0-0.3,0.2-0.6,0.5-0.6l0,0
			C42.4,15.6,42.7,15.9,42.6,16.3z"/>
		<path class="st9" d="M35.9,11l0.4,0.3c-1.7,1.2-1.4,3.3-1.4,3.3c0.5,0.5,0.5,1.7,0.5,1.7l0.5-0.5c0,0-0.2-1.4,0.8-2
			c0.9-0.5,1.6-0.3,2.4-0.3c2.1,0,2.7-0.8,2.6-1.7c-0.1-0.5-0.8-1.5-2.7-1.5C38.1,10.4,36.6,10.6,35.9,11z"/>
		<path class="st10" d="M35.7,13.4c0,0-0.3-1,0.5-2.1c-1.7,1.2-1.4,3.3-1.4,3.3c0.5,0.5,0.5,1.7,0.5,1.7l0.5-0.5c0,0-0.2-1.4,0.8-2
			c0.9-0.5,1.6-0.3,2.4-0.3c0.3,0,0.6,0,0.9-0.1C38.3,13.6,37.4,12.4,35.7,13.4z"/>
		<path class="st2" d="M35.1,16.3l0.3,1.1c0,0.1,0.2,0.2,0.3,0.2l0,0c0.2,0,0.3-0.1,0.3-0.3l0.2-1.1c0-0.3-0.2-0.6-0.5-0.6l0,0
			C35.3,15.6,35.1,15.9,35.1,16.3z"/>
		<path class="st6" d="M41.8,24.4h-1.2c-0.3,0-0.5,0.2-0.5,0.5l0,0h2.2l0,0C42.4,24.6,42.1,24.4,41.8,24.4z"/>
		<polygon class="st2" points="25,17.4 25,15.6 20.5,15.6 20.5,17.4 22.8,19.3 		"/>
		<path class="st11" d="M28.5,18.2l-3.1-0.7c-0.1,0-0.1,0-0.1-0.1l-2.5,1.5l-2.4-1.5c-0.1,0.1-0.1,0.1-0.2,0.1l-3.1,0.7
			c-0.4,0.1-0.8,0.5-0.8,1v2c0,0.3,0.2,0.5,0.5,0.5h12c0.3,0,0.5-0.2,0.5-0.5v-2C29.3,18.7,28.9,18.3,28.5,18.2z"/>
		<path class="st4" d="M20.5,15.6v1.8c2.8,1,4.5-1.5,4.5-1.5v-0.3L20.5,15.6L20.5,15.6z"/>
		<path class="st5" d="M19.5,9.9l0.2,4.8c0,0.4,0.2,0.9,0.6,1.1l1,0.8c0.3,0.2,0.6,0.3,0.9,0.3h1c0.3,0,0.7-0.1,0.9-0.3l1-0.8
			c0.4-0.3,0.6-0.7,0.6-1.1L26,9.9H19.5L19.5,9.9z"/>
		<path class="st2" d="M22,10.8c1,0,2.5-0.3,2.8-1h-5.3l0.2,4.8c0,0.4,0.2,0.9,0.6,1.1l1,0.8c0.3,0.2,0.6,0.3,0.9,0.3h0.5
			c-0.5,0-1.5-1-1.5-2.2c0-0.6,0-2.2,0-3C21.3,11.4,21.5,10.8,22,10.8z"/>
		<g>
			<path class="st12" d="M27.4,20l1.6-1.5c0.1,0.2,0.2,0.4,0.2,0.6v2c0,0.3-0.2,0.5-0.5,0.5H27v-0.7C27,20.5,27.2,20.2,27.4,20z"/>
			<path class="st12" d="M18.1,20l-1.6-1.5c-0.1,0.2-0.2,0.4-0.2,0.6v2c0,0.3,0.2,0.5,0.5,0.5h1.7v-0.7C18.5,20.5,18.4,20.2,18.1,20
				z"/>
		</g>
		<polygon class="st6" points="23.4,21.6 22.2,21.6 22.3,19.3 23.2,19.3 		"/>
		<path class="st7" d="M23.4,18.8h-1.2V19c0,0.3,0.3,0.6,0.6,0.6h0c0.3,0,0.6-0.3,0.6-0.6L23.4,18.8L23.4,18.8z"/>
		<g>
			<path class="st12" d="M20.5,16.8l2.3,2.1c0,0-0.7,0.3-1.4,1c-0.2,0.1-0.4,0.1-0.5-0.1l-1.1-2.4l0.3-0.5
				C20.2,16.7,20.4,16.7,20.5,16.8z"/>
			<path class="st12" d="M25.1,16.8l-2.3,2.1c0,0,0.7,0.3,1.4,1c0.2,0.1,0.4,0.1,0.5-0.1l1.1-2.4l-0.3-0.5
				C25.4,16.7,25.2,16.7,25.1,16.8z"/>
		</g>
		<path class="st8" d="M24.3,8.2l0.2,1.6c1.1,0.2,1.2,1.9,1.2,2.4c0,0.1,0,0.2,0.1,0.2l0.4,0.6c0,0-0.1-1,0.5-1.7
			C26.8,11.4,27,7.2,24.3,8.2z"/>
		<path class="st5" d="M26.5,13l-0.3,1.1c0,0.1-0.2,0.2-0.3,0.2l0,0c-0.2,0-0.3-0.1-0.3-0.3L25.5,13c0-0.3,0.2-0.6,0.5-0.6l0,0
			C26.3,12.4,26.6,12.7,26.5,13z"/>
		<path class="st9" d="M19.8,7.7L20.1,8c-1.7,1.2-1.4,3.3-1.4,3.3c0.5,0.5,0.5,1.7,0.5,1.7l0.5-0.5c0,0-0.2-1.4,0.8-2
			c0.9-0.5,1.6-0.3,2.4-0.3c2.1,0,2.7-0.8,2.6-1.7c-0.1-0.5-0.8-1.5-2.7-1.5C22,7.1,20.5,7.4,19.8,7.7z"/>
		<path class="st10" d="M19.6,10.1c0,0-0.3-1,0.5-2.1c-1.7,1.2-1.4,3.3-1.4,3.3c0.5,0.5,0.5,1.7,0.5,1.7l0.5-0.5c0,0-0.2-1.4,0.8-2
			c0.9-0.5,1.6-0.3,2.4-0.3c0.3,0,0.6,0,0.9-0.1C22.2,10.3,21.3,9.1,19.6,10.1z"/>
		<path class="st2" d="M19.1,13l0.3,1.1c0,0.1,0.2,0.2,0.3,0.2l0,0c0.2,0,0.3-0.1,0.3-0.3l0.2-1.1c0-0.3-0.2-0.6-0.5-0.6l0,0
			C19.2,12.4,19,12.7,19.1,13z"/>
		<path class="st12" d="M25.8,21.1h-1.2c-0.3,0-0.5,0.2-0.5,0.5l0,0h2.2l0,0C26.3,21.3,26.1,21.1,25.8,21.1z"/>
		<path class="st9" d="M54.2,6.7c-5,0-4.5,6.1-4.5,10.5c0,0.2,0.1,0.3,0.2,0.4c0.5,0.3,2.1,1.1,4.2,1.1c2.1,0,3.7-0.8,4.2-1.1
			c0.2-0.1,0.2-0.2,0.2-0.4C58.7,12.8,59.3,6.7,54.2,6.7z"/>
		<path class="st10" d="M53.9,6.7c-4.7,0.3-4.1,6.2-4.1,10.5c0,0.2,0.1,0.3,0.2,0.4c0.5,0.3,2.1,1.1,4.2,1.1l1.3-8.9"/>
		<path class="st9" d="M54.2,6.7c-2.9,0-3.1,3.5-3.1,3.5c1.6-0.3,2.7,0.4,4.3-0.3l-1.3,8.9c2.1,0,3.7-0.8,4.2-1.1
			c0.2-0.1,0.2-0.2,0.2-0.4C58.7,12.8,59.3,6.7,54.2,6.7z"/>
		<path class="st8" d="M58.7,17.2c0-3.8,0.4-8.9-2.7-10.2c-0.1,0.3-0.2,1.1,0.1,1.6c0.6,1.3,1.3,1.3,1.9,2.2
			c0.6,3.5-1.2,7.2-1.8,7.7l0,0c1.1-0.3,1.9-0.7,2.2-0.9C58.6,17.5,58.7,17.4,58.7,17.2z"/>
		<path class="st2" d="M59.1,18.2L56.2,17c-0.2-0.1-0.4-0.3-0.4-0.6v-0.8h-3.2v0.8c0,0.3-0.2,0.5-0.4,0.6l-2.8,1.2
			c-0.4,0.2-0.6,0.5-0.6,0.9v1.3c0,0.3,0.3,0.6,0.6,0.6H59c0.3,0,0.6-0.3,0.6-0.6v-1.3C59.6,18.7,59.4,18.4,59.1,18.2z"/>
		<path class="st11" d="M59.1,18.2l-2.7-1.1l-2.1,0.9l-2.1-0.9l-2.7,1.1c-0.4,0.2-0.6,0.5-0.6,0.9v1.3c0,0.3,0.3,0.6,0.6,0.6H59
			c0.3,0,0.6-0.3,0.6-0.6v-1.3C59.6,18.7,59.4,18.4,59.1,18.2z"/>
		<path class="st4" d="M55.8,15.6h-3.2v0.8c0,0.3-0.2,0.5-0.4,0.6l-0.4,0.2C55.2,18.1,55.8,15.6,55.8,15.6z"/>
		<g>
			<path class="st12" d="M50.4,19.4l-1.3-1c-0.2,0.2-0.3,0.4-0.3,0.7v1.3c0,0.3,0.3,0.6,0.6,0.6h1.3v-0.8
				C50.7,19.9,50.6,19.6,50.4,19.4z"/>
			<path class="st12" d="M59.6,20.4v-1.3c0-0.3-0.1-0.5-0.3-0.7l-1.3,1c-0.2,0.2-0.4,0.4-0.4,0.8V21H59C59.3,21,59.6,20.7,59.6,20.4
				z"/>
			<path class="st12" d="M54.3,20.4h-0.1c-0.2,0-0.3-0.1-0.3-0.3V18h0.6v2.1C54.6,20.2,54.4,20.4,54.3,20.4z"/>
			<path class="st12" d="M54.2,17.9l-1.8-1.4c-0.1-0.1-0.3-0.1-0.4,0.1l-0.4,0.5l1.1,1.6c0.1,0.1,0.3,0.1,0.4,0.1L54.2,17.9z"/>
			<path class="st12" d="M54.2,17.9l1.8-1.4c0.1-0.1,0.3-0.1,0.4,0.1l0.4,0.5l-1.1,1.6c-0.1,0.1-0.3,0.1-0.4,0.1L54.2,17.9z"/>
		</g>
		<path class="st5" d="M55.8,9.5c-1.6,1.6-4.7,0.3-4.7,2.9l0.2,1.9c0,0.4,0.3,0.8,0.7,1l1.8,1c0.3,0.2,0.7,0.2,0.9,0l1.8-1
			c0.4-0.2,0.6-0.6,0.7-1l0.2-2.2c0-0.2,0-0.3,0-0.5C57.3,10.8,56.1,10.2,55.8,9.5z"/>
		<path class="st2" d="M51.1,12.4l0.2,1.9c0,0.4,0.3,0.8,0.7,1l1.8,1c0.2,0.1,0.4,0.1,0.7,0.1l0,0c0,0-0.9-0.3-1.5-1.7
			c-0.2-0.4-0.4-2.8-0.2-3.1c0.4-0.6,2.6-0.6,3.2-1.7c0-0.1-0.1-0.1-0.1-0.1l0,0c0-0.1-0.1-0.1-0.1-0.1
			C54.2,11.1,51.1,9.9,51.1,12.4z"/>
		<path class="st12" d="M56.6,20.4h-0.8c-0.3,0-0.5,0.2-0.5,0.5V21h1.9v-0.1C57.1,20.6,56.8,20.4,56.6,20.4z"/>
	</g>
	<path class="st13" d="M64.8,24.2l-0.1,1.6l-0.3,3.5l-2.1,22.9C56.6,58.9,48,63.2,38.5,63.2c-5.1,0-10-1.2-14.3-3.5
		c-3.7-1.9-6.9-4.5-9.6-7.7l-2.4-26.3l-0.1-1.6H64.8z"/>
	<g>
		<path class="st14" d="M64.4,29.2l-0.5,5.1l-0.5,5.6l-1.1,12.2C56.6,58.9,48,63.2,38.5,63.2c-5.1,0-10-1.2-14.3-3.5L22,35.7
			c-0.3-3.5,2.4-6.5,5.9-6.5L64.4,29.2L64.4,29.2z"/>
		<path class="st14" d="M67.1,26.6c-57.4,0,0,0-57.4,0c-0.7,0-1.2-0.6-1.2-1.2v-3.8c0-0.7,0.6-1.2,1.2-1.2h57.4
			c0.7,0,1.2,0.6,1.2,1.2v3.8C68.4,26,67.8,26.6,67.1,26.6z"/>
	</g>
	<path class="st15" d="M37.7,54.2v5.4c-2.5,0-4.1,0-5.2-0.3c-0.6-0.2-1.1-0.6-1.4-1.1l0,0c0,0,0,0,0,0c-0.2-0.6-0.5-1.8,0-2.8
		c0.3-0.6,1.1-0.7,1.4-1.1L37.7,54.2L37.7,54.2z"/>
	<path class="st16" d="M33.3,47.6l2.7,5.4l-2.3-1.2c0,0-0.4,0.8-1.3,2.4c-0.2,0.5-0.5,1-0.9,1.7c-0.5,1-0.7,1.7-0.5,2.3l-2.8-4.8
		c-0.3-0.5-0.3-1.1-0.1-1.6l1.2-2.3l-2.1-1.2L33.3,47.6z"/>
	<path class="st15" d="M42.6,49.8l4.7-2.7c1.3,2.2,2.1,3.6,2.3,4.7c0.2,0.6,0.1,1.3-0.3,1.8l0,0c0,0,0,0,0,0C49,54,48,55,47,55
		c-0.7,0-1.1-0.7-1.7-0.6L42.6,49.8z"/>
	<path class="st16" d="M39.2,56.9l3.3-5l0.1,2.6c0,0,0.9,0,2.7-0.1c0.5,0,1.2-0.1,1.9-0.1c1.1-0.1,1.8-0.2,2.2-0.7l-2.7,4.8
		c-0.3,0.5-0.8,0.8-1.3,0.8l-2.6,0.1l0,2.4L39.2,56.9z"/>
	<path class="st15" d="M36.3,47.8l-4.7-2.7c1.3-2.2,2.1-3.6,2.9-4.3c0.5-0.4,1.1-0.7,1.7-0.7l0,0c0,0,0,0,0,0
		c0.6,0.1,1.8,0.5,2.4,1.4c0.4,0.6,0,1.3,0.3,1.8L36.3,47.8z"/>
	<path class="st16" d="M44.1,47.2l-6-0.4l2.2-1.4c0,0-0.4-0.7-1.4-2.3c-0.3-0.5-0.6-1-1-1.6c-0.6-0.9-1.1-1.5-1.7-1.6l5.6-0.1
		c0.6,0,1.1,0.3,1.4,0.7l1.4,2.2l2.1-1.2L44.1,47.2z"/>
	<g>
		<path class="st15" d="M23.7,35.8v-4.6h-1.7v-0.9h4.4v0.9h-1.7v4.6H23.7z"/>
		<path class="st15" d="M27.2,35.8v-5.6h2.4c0.6,0,1,0.1,1.3,0.2c0.3,0.1,0.5,0.3,0.6,0.5c0.2,0.3,0.2,0.5,0.2,0.9
			c0,0.4-0.1,0.8-0.4,1c-0.2,0.3-0.6,0.4-1.1,0.5c0.2,0.1,0.4,0.3,0.6,0.5c0.2,0.2,0.4,0.5,0.6,0.9l0.7,1.1h-1.3l-0.8-1.2
			c-0.3-0.4-0.5-0.7-0.6-0.8c-0.1-0.1-0.2-0.2-0.3-0.2c-0.1,0-0.3-0.1-0.6-0.1h-0.2v2.3H27.2z M28.4,32.6h0.8c0.5,0,0.9,0,1-0.1
			c0.1,0,0.2-0.1,0.3-0.2c0.1-0.1,0.1-0.3,0.1-0.4c0-0.2-0.1-0.3-0.2-0.5c-0.1-0.1-0.2-0.2-0.4-0.2c-0.1,0-0.4,0-0.8,0h-0.9V32.6z"
			/>
		<path class="st15" d="M37.9,35.8h-1.2l-0.5-1.3h-2.2l-0.5,1.3h-1.2l2.2-5.6h1.2L37.9,35.8z M35.8,33.6L35,31.5l-0.8,2.1H35.8z"/>
		<path class="st15" d="M38.5,35.8v-5.6h3.8v0.9h-2.7v1.3h2.3v0.9h-2.3v2.4H38.5z"/>
		<path class="st15" d="M43.3,35.8v-5.6h3.8v0.9h-2.7v1.3h2.3v0.9h-2.3v2.4H43.3z"/>
		<path class="st15" d="M48,35.8v-5.6h1.1v5.6H48z"/>
		<path class="st15" d="M53.7,33.8l1.1,0.3c-0.2,0.6-0.4,1.1-0.8,1.4c-0.4,0.3-0.9,0.4-1.5,0.4c-0.7,0-1.4-0.3-1.8-0.8
			c-0.5-0.5-0.7-1.2-0.7-2.1c0-0.9,0.2-1.7,0.7-2.2c0.5-0.5,1.1-0.8,1.9-0.8c0.7,0,1.2,0.2,1.7,0.6c0.3,0.2,0.4,0.6,0.6,1L53.7,32
			c-0.1-0.3-0.2-0.5-0.4-0.7c-0.2-0.2-0.5-0.3-0.8-0.3c-0.4,0-0.7,0.1-1,0.4c-0.3,0.3-0.4,0.8-0.4,1.4c0,0.7,0.1,1.2,0.4,1.5
			c0.3,0.3,0.6,0.4,1,0.4c0.3,0,0.6-0.1,0.8-0.3C53.5,34.5,53.6,34.2,53.7,33.8z"/>
	</g>
</g>
<g>
	<g>
		<path class="st17" d="M25.6,51.2c0,7-5.7,12.8-12.7,12.8l0,0C5.7,64,0,58.3,0,51.2s5.7-12.8,12.8-12.8l0,0
			C19.9,38.4,25.6,44.2,25.6,51.2L25.6,51.2z"/>
		<path class="st18" d="M25.6,51.2c0,7-5.7,12.8-12.7,12.8V38.4C19.9,38.4,25.6,44.2,25.6,51.2L25.6,51.2z"/>
		<path class="st19" d="M18.5,48.9h-0.3v-1.6c0-2.9-2.3-5.3-5.2-5.4c-0.1,0-0.2,0-0.3,0c-2.9,0.1-5.2,2.5-5.2,5.4v1.6H7.2
			c-0.5,0-0.9,0.5-0.9,1.2v7.8c0,0.7,0.4,1.2,0.9,1.2h11.3c0.5,0,0.9-0.5,0.9-1.2v-7.8C19.4,49.5,19,48.9,18.5,48.9L18.5,48.9z
			 M13.9,54v2.4c0,0.3-0.2,0.5-0.5,0.5h-1.1c-0.3,0-0.5-0.2-0.5-0.5V54c-0.3-0.3-0.4-0.6-0.4-1c0-0.8,0.6-1.4,1.3-1.4
			c0.1,0,0.2,0,0.3,0c0.7,0,1.3,0.7,1.3,1.4C14.3,53.4,14.1,53.8,13.9,54L13.9,54z M15.9,48.9H9.7v-1.6c0-1.7,1.4-3.1,3.1-3.1
			s3.1,1.4,3.1,3.1V48.9z"/>
	</g>
</g>
</svg>
