<?xml version="1.0" encoding="utf-8"?>
<!-- Generator: Adobe Illustrator 23.0.1, SVG Export Plug-In . SVG Version: 6.00 Build 0)  -->
<svg version="1.1" id="Capa_1" xmlns="http://www.w3.org/2000/svg" xmlns:xlink="http://www.w3.org/1999/xlink" x="0px" y="0px"
	 viewBox="0 0 19 16" style="enable-background:new 0 0 19 16;" xml:space="preserve">
<style type="text/css">
	.st0{fill:#828282;}
</style>
<g>
	<path class="st0" d="M11.5,2.7c0.9,0.6,1.5,1.5,1.6,2.6c0.4,0.2,0.8,0.3,1.2,0.3c1.5,0,2.8-1.2,2.8-2.8C17,1.2,15.8,0,14.3,0
		C12.7,0,11.5,1.2,11.5,2.7z M9.6,8.5c1.5,0,2.8-1.2,2.8-2.8s-1.2-2.8-2.8-2.8S6.9,4.1,6.9,5.7S8.1,8.5,9.6,8.5z M10.8,8.6H8.5
		c-2,0-3.6,1.6-3.6,3.6v2.9l0,0l0.2,0.1C7,15.8,8.6,16,10,16c2.6,0,4.1-0.7,4.2-0.8l0.2-0.1h0v-2.9C14.4,10.2,12.8,8.6,10.8,8.6z
		 M15.4,5.8h-2.3c0,0.9-0.4,1.8-1.1,2.4c1.7,0.5,3,2.1,3,4.1v0.9c2.3-0.1,3.7-0.7,3.7-0.8l0.2-0.1h0V9.3C19,7.4,17.4,5.8,15.4,5.8z
		 M4.8,5.6c0.5,0,1.1-0.2,1.5-0.4c0.1-0.9,0.6-1.7,1.3-2.2c0-0.1,0-0.1,0-0.2C7.5,1.2,6.3,0,4.8,0C3.2,0,2,1.2,2,2.8
		C2,4.3,3.2,5.6,4.8,5.6z M7.3,8.2c-0.6-0.6-1-1.4-1.1-2.4c-0.1,0-0.2,0-0.3,0H3.6C1.6,5.8,0,7.4,0,9.3v2.9l0,0l0.2,0.1
		c1.5,0.5,2.9,0.7,4,0.8v-0.9C4.2,10.3,5.5,8.7,7.3,8.2z"/>
</g>
</svg>
