<?xml version="1.0" encoding="utf-8"?>
<!-- Generator: Adobe Illustrator 23.0.0, SVG Export Plug-In . SVG Version: 6.00 Build 0)  -->
<svg version="1.1" id="Слой_1" xmlns="http://www.w3.org/2000/svg" xmlns:xlink="http://www.w3.org/1999/xlink" x="0px" y="0px"
	 viewBox="0 0 146.2 170.1" style="enable-background:new 0 0 146.2 170.1;" xml:space="preserve">
<style type="text/css">
	.st0{fill:#444B59;}
	.st1{fill:#FFFFFF;}
	.st2{opacity:0.2;fill:#020203;}
	.st3{opacity:0.3;fill:#EBF4FC;}
	.st4{fill:#E7E6E6;}
	.st5{fill:#CDCCCC;}
	.st6{fill:#6390CC;}
	.st7{opacity:0.3;}
	.st8{fill:#020203;}
	.st9{opacity:0.3;fill:#020203;}
	.st10{opacity:0.4;fill:#EBF4FC;}
	.st11{fill:#92D3E6;}
	.st12{fill:#EA4D4F;}
	.st13{fill:#E53434;}
	.st14{fill:#808386;}
	.st15{opacity:0.5;fill:#08486D;}
	.st16{opacity:0.5;fill:#D0D2D3;}
	.st17{opacity:0.3;fill:#231F20;}
</style>
<g>
	<g>
		<g>
			<g>
				<path class="st0" d="M138.1,90.1c0.1,0,0.2,0,0.2,0c1.2,0.1,2,1.2,1.9,2.4c-1.4,12.5-7.5,18.8-12.4,22
					c-5.3,3.4-10.3,3.9-10.5,3.9c-1.2,0.1-2.2-0.8-2.3-2c-0.1-1.2,0.8-2.2,2-2.3c0.7-0.1,16.7-1.7,19-22.1
					C136.1,90.9,137,90.1,138.1,90.1z"/>
				<path class="st1" d="M139.3,92.5c-1.4,12.5-7.5,18.8-12.4,22c-4.6,2.9-8.9,3.7-10.2,3.9c0.2,0,0.4,0.1,0.6,0
					c0.2,0,5.2-0.5,10.5-3.9c4.9-3.2,11-9.5,12.4-22c0.1-1.2-0.7-2.3-1.9-2.4c-0.1,0-0.2,0-0.2,0c-0.2,0-0.3,0-0.5,0.1
					C138.7,90.4,139.4,91.3,139.3,92.5z"/>
				<g>
					<polygon class="st1" points="140.6,95.7 141.2,92.2 135.6,91.8 135,94.9 					"/>
					<path class="st2" d="M141,93.6l0.2-1.1c-0.7,0.3-1.5,0.4-2.4,0.4c-1.2,0-2.3-0.3-3.2-0.8l-0.2,1c1,0.5,2.2,0.8,3.4,0.8
						C139.5,93.9,140.3,93.8,141,93.6z"/>
					<path class="st1" d="M141.3,82.8c0.9,0.7,1.5,1.9,1.5,3.2c0,2.2-1.8,4-4,4s-4-1.8-4-4c0-1.1,0.5-2.1,1.2-2.9l-1.6-3.1
						c-1.8,1.4-3,3.5-3,5.9c0,4.1,3.3,7.4,7.4,7.4c4.1,0,7.4-3.3,7.4-7.4c0-2.7-1.4-5-3.5-6.3L141.3,82.8z"/>
					<path class="st3" d="M138.5,93.4c0.1,0,0.2,0,0.2,0c4.1,0,7.4-3.3,7.4-7.4c0-2.7-1.4-5-3.5-6.3l-0.1,0.2
						c1.9,1.3,3.2,3.6,3.2,6.1C145.7,90,142.5,93.3,138.5,93.4z M135.5,83.1c-0.7,0.7-1.2,1.8-1.2,2.9c0,2.2,1.8,4,4,4
						c0.1,0,0.2,0,0.2,0c-2.1-0.1-3.8-1.9-3.8-4c0-1.1,0.5-2.1,1.2-2.9l-1.6-3.1c-0.1,0.1-0.2,0.2-0.3,0.3L135.5,83.1z"/>
				</g>
			</g>
			<g>
				<path class="st0" d="M63.2,90.6c-0.1,0-0.2,0-0.2,0c-1.2,0.1-2,1.2-1.9,2.4c1.4,12.5,7.5,18.8,12.4,22
					c5.3,3.4,10.3,3.9,10.5,3.9c1.2,0.1,2.2-0.8,2.3-2c0.1-1.2-0.8-2.2-2-2.3c-0.7-0.1-16.7-1.7-19-22.1
					C65.2,91.4,64.2,90.6,63.2,90.6z"/>
				<path class="st1" d="M62,93c1.4,12.5,7.5,18.8,12.4,22c4.6,2.9,8.9,3.7,10.2,3.9c-0.2,0-0.4,0.1-0.6,0c-0.2,0-5.2-0.5-10.5-3.9
					c-4.9-3.2-11-9.5-12.4-22c-0.1-1.2,0.7-2.3,1.9-2.4c0.1,0,0.2,0,0.2,0c0.2,0,0.3,0,0.5,0.1C62.6,90.9,61.9,91.9,62,93z"/>
				<g>
					<polygon class="st1" points="60.6,96.2 60,92.8 65.6,92.4 66.3,95.4 					"/>
					<path class="st2" d="M60.3,94.2l-0.2-1.1c0.7,0.3,1.5,0.4,2.4,0.4c1.2,0,2.3-0.3,3.2-0.8l0.2,1c-1,0.5-2.2,0.8-3.4,0.8
						C61.7,94.5,61,94.4,60.3,94.2z"/>
					<path class="st1" d="M60,83.4c-0.9,0.7-1.5,1.9-1.5,3.2c0,2.2,1.8,4,4,4s4-1.8,4-4c0-1.1-0.5-2.1-1.2-2.9l1.6-3.1
						c1.8,1.4,3,3.5,3,5.9c0,4.1-3.3,7.4-7.4,7.4c-4.1,0-7.4-3.3-7.4-7.4c0-2.7,1.4-5,3.5-6.3L60,83.4z"/>
					<path class="st3" d="M55.5,86.6c0-2.5,1.3-4.7,3.2-6.1l-0.1-0.2c-2.1,1.3-3.5,3.6-3.5,6.3c0,4.1,3.3,7.4,7.4,7.4
						c0.1,0,0.2,0,0.2,0C58.7,93.9,55.5,90.6,55.5,86.6z M67.3,80.9c-0.1-0.1-0.2-0.2-0.3-0.3l-1.6,3.1c0.7,0.7,1.2,1.8,1.2,2.9
						c0,2.2-1.7,3.9-3.8,4c0.1,0,0.2,0,0.2,0c2.2,0,4-1.8,4-4c0-1.1-0.5-2.1-1.2-2.9L67.3,80.9z"/>
				</g>
			</g>
			<g>
				<path class="st4" d="M99,165.5h2.2c1.9,0,3.4-1.5,3.4-3.4v-24.5h-8.9v24.5C95.6,164,97.1,165.5,99,165.5z"/>
				<path class="st5" d="M99.7,137.9h0.5v27.7c0,0-0.1,0-0.2,0h0c-0.1,0-0.3,0-0.3,0V137.9z"/>
				<path class="st5" d="M100,164.2c2.6,0,4.4-2,4.4-4.4v1.3c0,2.5-1.8,4.4-4.4,4.4c-2.6,0-4.4-2-4.4-4.4v-1.3
					C95.6,162.2,97.4,164.2,100,164.2z"/>
				
					<rect x="95.6" y="144.4" transform="matrix(-1 -4.131729e-11 4.131729e-11 -1 200.0807 290.3318)" class="st5" width="8.9" height="1.4"/>
			</g>
			<g>
				
					<rect x="112.1" y="110.8" transform="matrix(-0.998 -6.284306e-02 6.284306e-02 -0.998 222.9383 239.0047)" class="st6" width="6.3" height="10.4"/>
				
					<rect x="81.7" y="110.8" transform="matrix(0.998 -6.283951e-02 6.283951e-02 0.998 -7.1214 5.5628)" class="st6" width="6.3" height="10.4"/>
				<g class="st7">
					<path class="st8" d="M115.7,118.3L115.7,118.3c-0.3-2.9-1.6-5.4-3.6-7.1l0-0.6l1.6,0.1c1.9,1.9,3.1,4.5,3.4,7.3l0.6,3.3
						l-1.5-0.1L115.7,118.3z"/>
					<path class="st8" d="M87.5,111.3c-1.9,1.7-3.2,4.2-3.5,6.9l-0.6,3.1l-1.5,0.1l0.6-3.3c0.3-2.9,1.6-5.4,3.5-7.4l1.4-0.1
						L87.5,111.3z"/>
				</g>
				<path class="st4" d="M92.6,144.8h15.2c6.9,0,12.2-5.9,11.5-12.8l-2.6-13.8c-0.6-5.9-5.6-10.4-11.5-10.4H95.1
					c-5.9,0-10.9,4.5-11.5,10.4L81,132.1C80.3,138.9,85.7,144.8,92.6,144.8z"/>
				<path class="st5" d="M105.7,109.8H95.6c-5.9,0-10.9,4-11.5,9.9l-2.6,13.5c-0.3,2.7,0.4,5.1,1.7,7.2c-1.8-2.3-2.8-5.3-2.5-8.5
					l2.6-13.7c0.6-5.9,5.6-10.3,11.5-10.3h10.1c4.1,0,7.8,2.5,9.8,5.8C112.6,111.1,109.3,109.8,105.7,109.8z"/>
				<g>
					<path class="st5" d="M88.3,144c-0.2-0.1-0.3-0.1-0.5-0.2l3.5-35.3c0.2-0.1,0.3-0.1,0.5-0.1L88.3,144z"/>
					<path class="st5" d="M111.9,144c-0.2,0.1-0.3,0.1-0.5,0.2l-3.1-35.4c0.2,0.1,0.3,0.1,0.5,0.2L111.9,144z"/>
				</g>
				<path class="st5" d="M92.4,143.4h15.3c6.2,0,11.2-4.9,11.6-10.9c0.5,6.7-4.8,12.3-11.6,12.3H92.4c-6.8,0-12.1-5.6-11.6-12.3
					C81.2,138.5,86.2,143.4,92.4,143.4z"/>
			</g>
			<g>
				<g>
					<g>
						<ellipse class="st1" cx="124.3" cy="159.9" rx="5.2" ry="6.3"/>
						<path class="st9" d="M124.2,153.6c0.9,0,1.9,0.3,2.5,0.8l0,11.1c-0.6,0.4-1.6,0.8-2.6,0.8c-2.9,0-5.2-2.8-5.2-6.3
							S121.4,153.6,124.2,153.6z"/>
					</g>
					<g>
						<ellipse class="st1" cx="109.7" cy="159.9" rx="5.2" ry="6.3"/>
						<path class="st9" d="M109.7,166.3c-0.9,0-1.9-0.3-2.5-0.8l0-11.1c0.6-0.4,1.6-0.8,2.6-0.8c2.9,0,5.2,2.8,5.2,6.3
							S112.6,166.3,109.7,166.3z"/>
					</g>
					<path class="st0" d="M110.4,170.1h13.2c1.4,0,2.5-1.1,2.5-2.5v-15.3c0-1.4-1.1-2.5-2.5-2.5h-13.2c-1.4,0-2.5,1.1-2.5,2.5v15.3
						C107.9,169,109,170.1,110.4,170.1z"/>
					<g>
						<rect x="107.9" y="151.4" class="st10" width="18.2" height="1"/>
						<rect x="107.9" y="154.6" class="st10" width="18.2" height="1"/>
						<rect x="107.9" y="157.8" class="st10" width="18.2" height="1"/>
						<rect x="107.9" y="161" class="st10" width="18.2" height="1"/>
						<rect x="107.9" y="164.2" class="st10" width="18.2" height="1"/>
						<rect x="107.9" y="167.4" class="st10" width="18.2" height="1"/>
					</g>
					<path class="st9" d="M110.4,170.1h1.3v-20.3h-1.3c-1.4,0-2.5,1.1-2.5,2.5v15.3C107.9,169,109,170.1,110.4,170.1z"/>
				</g>
				<g>
					<g>
						<path class="st1" d="M85.3,159.9c0,3.5,2.3,6.3,5.2,6.3c2.9,0,5.2-2.8,5.2-6.3s-2.3-6.3-5.2-6.3
							C87.6,153.6,85.3,156.4,85.3,159.9z"/>
						<path class="st9" d="M90.4,153.6c0.9,0,1.9,0.3,2.5,0.8l0,11.1c-0.6,0.4-1.6,0.8-2.6,0.8c-2.9,0-5.2-2.8-5.2-6.3
							S87.5,153.6,90.4,153.6z"/>
					</g>
					<g>
						<ellipse class="st1" cx="75.8" cy="159.9" rx="5.2" ry="6.3"/>
						<path class="st9" d="M75.9,166.3c-0.9,0-1.9-0.3-2.5-0.8l0-11.1c0.6-0.4,1.6-0.8,2.6-0.8c2.9,0,5.2,2.8,5.2,6.3
							S78.7,166.3,75.9,166.3z"/>
					</g>
					<path class="st0" d="M76.5,170.1h13.2c1.4,0,2.5-1.1,2.5-2.5v-15.3c0-1.4-1.1-2.5-2.5-2.5H76.5c-1.4,0-2.5,1.1-2.5,2.5v15.3
						C74,169,75.1,170.1,76.5,170.1z"/>
					<g>
						<rect x="74" y="151.4" class="st10" width="18.2" height="1"/>
						<rect x="74" y="154.6" class="st10" width="18.2" height="1"/>
						<rect x="74" y="157.8" class="st10" width="18.2" height="1"/>
						<rect x="74" y="161" class="st10" width="18.2" height="1"/>
						<rect x="74" y="164.2" class="st10" width="18.2" height="1"/>
						<rect x="74" y="167.4" class="st10" width="18.2" height="1"/>
					</g>
					<path class="st9" d="M88.4,170.1h1.3c1.4,0,2.5-1.1,2.5-2.5v-15.3c0-1.4-1.1-2.5-2.5-2.5h-1.3V170.1z"/>
				</g>
			</g>
			<g>
				<path class="st2" d="M90.2,139.5c-1.5-1.6-2.2-3.8-1.9-6l1.4-7.4c0.4-3.9,3.7-6.9,7.7-6.9h5.4c3.9,0,7.2,3,7.7,6.8l1.4,7.4
					l0,0.1c0.2,2.2-0.5,4.3-1.9,5.9c-1.5,1.6-3.5,2.5-5.7,2.5h-8.2C93.8,142,91.7,141.1,90.2,139.5z"/>
				<path class="st11" d="M95.9,140.6h8.2c3.7,0,6.6-3.2,6.2-6.9l-1.4-7.4c-0.3-3.2-3-5.6-6.2-5.6h-5.4c-3.2,0-5.9,2.4-6.2,5.6
					l-1.4,7.4C89.3,137.4,92.2,140.6,95.9,140.6z"/>
				<polygon class="st1" points="100.4,120.6 108.6,138.3 105.3,140.2 96,120.6 				"/>
				<polygon class="st1" points="94.4,121.8 104,140.9 102.1,140.9 93.3,122.3 				"/>
				<polygon class="st1" points="92.1,123.6 100.4,140.6 96.3,140.6 90.4,127.1 				"/>
				<path class="st6" d="M90.6,139.1c-1.4-1.5-2-3.5-1.8-5.6l1.4-7.5c0.4-3.7,3.5-6.5,7.2-6.5h5.4c3.7,0,6.8,2.8,7.2,6.5l1.4,7.4
					l0,0.1c0.2,2-0.5,4.1-1.8,5.6c-1.4,1.5-3.3,2.4-5.4,2.4h-8.2C93.9,141.5,91.9,140.7,90.6,139.1z M108.1,126.4L108.1,126.4
					c-0.3-2.8-2.6-4.8-5.3-4.8h-5.4c-2.7,0-5,2.1-5.3,4.8l-1.4,7.5c-0.1,1.5,0.3,3,1.3,4.1c1,1.1,2.4,1.8,3.9,1.8h8.2
					c1.5,0,2.9-0.6,3.9-1.8c1-1.1,1.5-2.6,1.3-4.1L108.1,126.4z"/>
			</g>
			<g>
				<path class="st1" d="M96.2,112.3c0,2.1,1.7,3.8,3.8,3.8c2.1,0,3.8-1.7,3.8-3.8c0-2.1-1.7-3.8-3.8-3.8
					C97.9,108.5,96.2,110.2,96.2,112.3z"/>
				<path class="st0" d="M99.4,114.3h1.3c1.1,0,2-0.9,2-2v-11.7h-5.4v11.7C97.3,113.3,98.3,114.3,99.4,114.3z"/>
				
					<rect x="97.3" y="106.1" transform="matrix(-1 -3.610058e-11 3.610058e-11 -1 200.0807 213.4901)" class="st2" width="5.4" height="1.3"/>
			</g>
		</g>
		<g>
			<path class="st6" d="M79.9,92.2c0.5,0,0.8-0.4,0.8-0.8v-2c0-10.7,8.7-19.4,19.4-19.4c10.7,0,19.4,8.7,19.4,19.4v2
				c0,0.5,0.4,0.8,0.8,0.8c0.5,0,0.8-0.4,0.8-0.8v-2c0-11.6-9.4-21-21-21s-21,9.4-21,21v2C79.1,91.8,79.5,92.2,79.9,92.2z"/>
			<path class="st6" d="M121.6,99v-4.4c0-0.5-0.4-0.8-0.8-0.8c-0.5,0-0.8,0.4-0.8,0.8V99c0,0.5-0.4,1-1,1h-2.1
				c-0.5,0-0.8,0.4-0.8,0.8c0,0.5,0.4,0.8,0.8,0.8h2.1C120.4,101.6,121.6,100.4,121.6,99z"/>
			<path class="st6" d="M80.8,101.6h2.1c0.5,0,0.8-0.4,0.8-0.8c0-0.5-0.4-0.8-0.8-0.8h-2.1c-0.5,0-1-0.4-1-1v-4.4
				c0-0.5-0.4-0.8-0.8-0.8c-0.5,0-0.8,0.4-0.8,0.8v4.4C78.2,100.4,79.4,101.6,80.8,101.6z"/>
			<path class="st4" d="M83.1,98.5c-0.2-0.6-0.2-1.3-0.2-2V82.4c0-4.6,3.7-8.3,8.3-8.3h18.1c4.6,0,8.3,3.7,8.3,8.3v14.1
				c0,4.6-3.7,8.3-8.3,8.3H91.1c-2.1,0-4-0.8-5.4-2"/>
			<path class="st5" d="M111,99.7v4.9c3.7-0.8,6.4-4.1,6.4-8.1v-4.9C113.7,92.4,111,95.7,111,99.7z"/>
			<path class="st5" d="M82.8,91.6v4.9c0,0.7,0.1,1.4,0.2,2l2.6,4.2c1,0.9,2.3,1.5,3.6,1.8v-4.9C89.3,95.7,86.5,92.4,82.8,91.6z"/>
			<path class="st1" d="M100.9,86.6c0,3.8,3.1,6.9,6.9,6.9c3.8,0,6.9-3.1,6.9-6.9c0-3.8-3.1-6.9-6.9-6.9
				C104,79.7,100.9,82.8,100.9,86.6z"/>
			<path class="st1" d="M87.1,86.6c0,2.9,2.4,5.3,5.3,5.3c2.9,0,5.3-2.4,5.3-5.3c0-2.9-2.4-5.3-5.3-5.3
				C89.5,81.3,87.1,83.7,87.1,86.6z"/>
			<path class="st0" d="M113.1,100.8c0,1.3,1,2.3,2.3,2.3h0.8c1.3,0,2.3-1,2.3-2.3c0-1.3-1-2.3-2.3-2.3h-0.8
				C114.1,98.4,113.1,99.5,113.1,100.8z"/>
			<path class="st12" d="M103.3,96.1H101v8.6h2.3V96.1z"/>
			<path class="st12" d="M99.3,96.1H97v8.6h2.3V96.1z"/>
			<path class="st12" d="M95.3,96.2v8.5H93v-5.5C93,97.8,94,96.6,95.3,96.2z"/>
			<path class="st12" d="M104.9,96.2c1.3,0.4,2.3,1.6,2.3,3.1v5.5h-2.3V96.2z"/>
			<path class="st13" d="M117.4,85.3v8.2c0,1.3,0.8,2.3,2,2.6c0.2,0.1,0.5,0.1,0.7,0.1h1.1c1.5,0,2.7-1.2,2.7-2.7v-8.2
				c0-1.5-1.2-2.7-2.7-2.7h-1.1c-0.3,0-0.5,0-0.7,0.1C118.3,83,117.4,84,117.4,85.3z"/>
			<path class="st12" d="M117.4,85.3v8.2c0,1.3,0.8,2.3,2,2.6c1.2-0.3,2-1.4,2-2.6v-8.2c0-1.3-0.8-2.3-2-2.6
				C118.3,83,117.4,84,117.4,85.3z"/>
			<path class="st13" d="M76.3,85.3v8.2c0,1.3,0.8,2.3,2,2.6c0.2,0.1,0.5,0.1,0.7,0.1h1.1c1.5,0,2.7-1.2,2.7-2.7v-8.2
				c0-1.5-1.2-2.7-2.7-2.7H79c-0.3,0-0.5,0-0.7,0.1C77.1,83,76.3,84,76.3,85.3z"/>
			<path class="st12" d="M76.3,85.3v8.2c0,1.3,0.8,2.3,2,2.6c1.2-0.3,2-1.4,2-2.6v-8.2c0-1.3-0.8-2.3-2-2.6
				C77.1,83,76.3,84,76.3,85.3z"/>
			<path class="st0" d="M84.4,98.4h-0.8c-1.3,0-2.3,1-2.3,2.3c0,1.3,1,2.3,2.3,2.3h0.8c1.3,0,2.3-1,2.3-2.3
				C86.7,99.5,85.7,98.4,84.4,98.4z"/>
			<path class="st0" d="M104.9,86.6c0,1.3,1,2.3,2.3,2.3c1.3,0,2.3-1,2.3-2.3s-1-2.3-2.3-2.3C105.9,84.3,104.9,85.3,104.9,86.6z"/>
			<path class="st0" d="M90.6,86.6c0,1.3,1,2.3,2.3,2.3c1.3,0,2.3-1,2.3-2.3s-1-2.3-2.3-2.3C91.6,84.3,90.6,85.3,90.6,86.6z"/>
		</g>
	</g>
	<g>
		<rect x="28" y="65.8" class="st14" width="0.9" height="9.8"/>
		<g>
			<path class="st0" d="M29.5,75C29.5,75,29.4,74.9,29.5,75l0.5-0.1c0-0.5-0.6-0.6-1.3-0.8c-0.2-0.1-0.6-0.1-0.8-0.2
				c0.2-0.1,0.6-0.2,0.8-0.2c0.7-0.2,1.3-0.3,1.3-0.8c0-0.5-0.6-0.6-1.3-0.8c-0.2-0.1-0.6-0.1-0.8-0.2c0.2-0.1,0.6-0.2,0.8-0.2
				c0.7-0.2,1.3-0.3,1.3-0.8c0-0.5-0.6-0.6-1.3-0.8c-0.2-0.1-0.6-0.1-0.8-0.2c0.2-0.1,0.6-0.2,0.8-0.2c0.7-0.2,1.3-0.3,1.3-0.8
				c0-0.5-0.6-0.6-1.3-0.8c-0.2-0.1-0.6-0.1-0.8-0.2c0.2-0.1,0.6-0.2,0.8-0.2c0.7-0.2,1.3-0.3,1.3-0.8c0-0.5-0.6-0.6-1.3-0.8
				c-0.3-0.1-0.8-0.2-0.9-0.3c0,0,0,0,0,0.1h-0.6c0,0.5,0.6,0.6,1.3,0.8c0.2,0.1,0.6,0.1,0.8,0.2c-0.2,0.1-0.6,0.2-0.8,0.2
				c-0.7,0.2-1.3,0.3-1.3,0.8c0,0.5,0.6,0.6,1.3,0.8c0.2,0.1,0.6,0.1,0.8,0.2c-0.2,0.1-0.6,0.2-0.8,0.2c-0.7,0.2-1.3,0.3-1.3,0.8
				c0,0.5,0.6,0.6,1.3,0.8c0.2,0.1,0.6,0.1,0.8,0.2c-0.2,0.1-0.6,0.2-0.8,0.2c-0.7,0.2-1.3,0.3-1.3,0.8c0,0.5,0.6,0.6,1.3,0.8
				c0.2,0.1,0.6,0.1,0.8,0.2c-0.2,0.1-0.6,0.2-0.8,0.2c-0.7,0.2-1.3,0.3-1.3,0.8c0,0.5,0.6,0.6,1.3,0.8C28.9,74.8,29.4,74.9,29.5,75
				z"/>
		</g>
		<rect x="17.7" y="65.8" class="st14" width="0.9" height="9.8"/>
		<g>
			<path class="st0" d="M19.2,75C19.2,75,19.2,74.9,19.2,75l0.5-0.1c0-0.5-0.6-0.6-1.3-0.8c-0.2-0.1-0.6-0.1-0.8-0.2
				c0.2-0.1,0.6-0.2,0.8-0.2c0.7-0.2,1.3-0.3,1.3-0.8c0-0.5-0.6-0.6-1.3-0.8c-0.2-0.1-0.6-0.1-0.8-0.2c0.2-0.1,0.6-0.2,0.8-0.2
				c0.7-0.2,1.3-0.3,1.3-0.8c0-0.5-0.6-0.6-1.3-0.8c-0.2-0.1-0.6-0.1-0.8-0.2c0.2-0.1,0.6-0.2,0.8-0.2c0.7-0.2,1.3-0.3,1.3-0.8
				c0-0.5-0.6-0.6-1.3-0.8c-0.2-0.1-0.6-0.1-0.8-0.2c0.2-0.1,0.6-0.2,0.8-0.2c0.7-0.2,1.3-0.3,1.3-0.8c0-0.5-0.6-0.6-1.3-0.8
				c-0.3-0.1-0.8-0.2-0.9-0.3c0,0,0,0,0,0.1H17c0,0.5,0.6,0.6,1.3,0.8c0.2,0.1,0.6,0.1,0.8,0.2c-0.2,0.1-0.6,0.2-0.8,0.2
				c-0.7,0.2-1.3,0.3-1.3,0.8c0,0.5,0.6,0.6,1.3,0.8c0.2,0.1,0.6,0.1,0.8,0.2c-0.2,0.1-0.6,0.2-0.8,0.2C17.6,69.4,17,69.6,17,70
				c0,0.5,0.6,0.6,1.3,0.8c0.2,0.1,0.6,0.1,0.8,0.2c-0.2,0.1-0.6,0.2-0.8,0.2C17.6,71.4,17,71.5,17,72c0,0.5,0.6,0.6,1.3,0.8
				c0.2,0.1,0.6,0.1,0.8,0.2c-0.2,0.1-0.6,0.2-0.8,0.2c-0.7,0.2-1.3,0.3-1.3,0.8c0,0.5,0.6,0.6,1.3,0.8C18.6,74.8,19.1,74.9,19.2,75
				z"/>
		</g>
		<path class="st15" d="M99.1,57.3c-0.2,0.2-0.5,0.3-0.8,0.1l0,0c-0.2-0.2-0.3-0.5-0.1-0.8l5.9-7.6c0.2-0.2,0.5-0.3,0.8-0.1l0,0
			c0.2,0.2,0.3,0.5,0.1,0.8L99.1,57.3z"/>
		<path class="st0" d="M105.9,51.4c-0.3,0.5-1,0.6-1.5,0.2l-2.3-1.7c-0.5-0.3-0.6-1-0.2-1.5l1.7-2.3c0.3-0.5,1-0.6,1.5-0.2l2.3,1.7
			c0.5,0.3,0.6,1,0.2,1.5L105.9,51.4z"/>
		<path class="st4" d="M113.5,49.5c-1.1,1.4-3.1,1.7-4.5,0.6l-7.1-5.3c-1.4-1.1-1.7-3.1-0.6-4.5l5.3-7.1c1.1-1.4,3.1-1.7,4.5-0.6
			l7.1,5.3c1.4,1.1,1.7,3.1,0.6,4.5L113.5,49.5z"/>
		<path class="st4" d="M6.8,127.8c0-0.2,0-0.5,0-0.7V90c0-9.4,7.6-17,17-17c9.4,0,17,7.6,17,17v37.1c0,0.2,0,0.5,0,0.7H6.8z"/>
		<rect x="25" y="19.4" transform="matrix(0.5941 -0.8044 0.8044 0.5941 1.3385 47.9228)" class="st4" width="46.3" height="6.4"/>
		<polygon class="st5" points="59.4,2.1 59.1,2.4 62.6,5 35.3,42 37,43.2 64.5,5.9 		"/>
		
			<rect x="76.4" y="-4.1" transform="matrix(0.5941 -0.8044 0.8044 0.5941 16.9606 71.7624)" class="st4" width="6.4" height="46.3"/>
		<rect x="80.2" y="-5.4" transform="matrix(0.594 -0.8044 0.8044 0.594 18.8937 72.3757)" class="st5" width="1.9" height="45.7"/>
		
			<rect x="24.6" y="36.9" transform="matrix(0.5985 -0.8011 0.8011 0.5985 -21.7779 43.688)" class="st0" width="16.2" height="13.3"/>
		<polygon class="st15" points="32.2,33.1 32.1,33.3 38.8,38.3 29.2,51.1 33.2,54 42.9,41.1 		"/>
		
			<rect x="18.5" y="44.2" transform="matrix(0.5985 -0.8011 0.8011 0.5985 -30.8002 42.1208)" class="st4" width="16.2" height="15.2"/>
		<polygon class="st16" points="32,45.7 23.2,57.4 16.6,52.5 15.7,53.7 27.9,62.8 37.6,49.9 		"/>
		<path class="st6" d="M65.2,8.5c-1.7,2.4-5.1,2.9-7.4,1.1c-2.4-1.7-2.9-5.1-1.1-7.4c1.7-2.4,5.1-2.9,7.4-1.1
			C66.5,2.8,67,6.1,65.2,8.5z"/>
		<path class="st1" d="M64.1,7.6c-1.3,1.7-3.7,2.1-5.4,0.8c-1.7-1.3-2.1-3.7-0.8-5.4c1.3-1.7,3.7-2.1,5.4-0.8
			C65,3.5,65.3,5.9,64.1,7.6z"/>
		<path class="st0" d="M63.2,6.9c-0.9,1.2-2.6,1.5-3.8,0.6c-1.2-0.9-1.5-2.6-0.6-3.8c0.9-1.2,2.6-1.5,3.8-0.6
			C63.8,4,64.1,5.7,63.2,6.9z"/>
		<polygon class="st0" points="98.6,39.7 94.9,35.8 100.1,28.8 104.9,31.1 		"/>
		<polygon class="st15" points="97.7,32.1 101.8,35.1 104.8,31.1 100.1,28.8 		"/>
		<path class="st5" d="M28.6,124.5c0,1.3,0,2.3,0,3.3H6.8c0-0.2,0-0.5,0-0.7V90c0-0.8,0.1-1.5,0.2-2.2C7,89.3,9.6,121.5,28.6,124.5z
			"/>
		<rect x="0" y="120.8" class="st0" width="47.2" height="10.6"/>
		<path class="st15" d="M3,120.8v0.6c0,4,3.2,7.2,7.2,7.2h37v2.8H0l0-10.6H3z"/>
		
			<rect x="96.5" y="33.3" transform="matrix(0.5939 -0.8045 0.8045 0.5939 12.6833 96.986)" class="st0" width="11.8" height="5.2"/>
		
			<rect x="101.2" y="30.9" transform="matrix(0.5937 -0.8047 0.8047 0.5937 15.3235 97.4548)" class="st15" width="5.9" height="5.2"/>
		<path class="st5" d="M108,32.2c1-0.3,2.1-0.2,3,0.5l7.1,5.3c1.4,1.1,1.7,3.1,0.6,4.5l-0.2,0.3l-2,2.6l-12-8.7L108,32.2z"/>
		<path class="st0" d="M11.5,57.3v30.8c0,6.8,5.5,12.2,12.2,12.2c6.8,0,12.2-5.5,12.2-12.2V57.3c0-6.8-5.5-12.2-12.2-12.2
			C17,45.1,11.5,50.6,11.5,57.3z M14.4,69.1c0-1.2,0.9-2.1,2.1-2.1h14c1.2,0,2.1,0.9,2.1,2.1v1.5c0,1.2-0.9,2.1-2.1,2.1h-14
			c-1.2,0-2.1-0.9-2.1-2.1V69.1z"/>
		<g>
			<path class="st17" d="M18.3,59.7c0,2.7,2.2,4.8,4.8,4.8c2.7,0,4.8-2.2,4.8-4.8s-2.2-4.8-4.8-4.8C20.5,54.9,18.3,57,18.3,59.7z"/>
			<path class="st6" d="M18.9,59.3c0,2.7,2.2,4.8,4.8,4.8c2.7,0,4.8-2.2,4.8-4.8c0-2.7-2.2-4.8-4.8-4.8
				C21.1,54.5,18.9,56.6,18.9,59.3z"/>
			<path class="st1" d="M20.2,59.3c0,1.9,1.6,3.5,3.5,3.5c1.9,0,3.5-1.6,3.5-3.5c0-1.9-1.6-3.5-3.5-3.5
				C21.8,55.8,20.2,57.4,20.2,59.3z"/>
			<path class="st0" d="M21.2,59.3c0,1.4,1.1,2.5,2.5,2.5c1.4,0,2.5-1.1,2.5-2.5c0-1.4-1.1-2.5-2.5-2.5
				C22.3,56.8,21.2,57.9,21.2,59.3z"/>
		</g>
		<path class="st15" d="M23.7,100.4c-6.8,0-12.2-5.5-12.2-12.2V73c0,0,2.4,15.2,24.5,15.2C36,94.9,30.5,100.4,23.7,100.4z"/>
		<g>
			<path class="st6" d="M15.1,87.7c0,4.8,3.9,8.6,8.6,8.6c4.8,0,8.6-3.9,8.6-8.6c0-4.8-3.9-8.6-8.6-8.6C18.9,79,15.1,82.9,15.1,87.7
				z"/>
			<path class="st1" d="M17.4,87.7c0,3.5,2.8,6.3,6.3,6.3c3.5,0,6.3-2.8,6.3-6.3c0-3.5-2.8-6.3-6.3-6.3
				C20.2,81.4,17.4,84.2,17.4,87.7z"/>
			<path class="st0" d="M19.3,87.7c0,2.5,2,4.5,4.5,4.5c2.5,0,4.5-2,4.5-4.5c0-2.5-2-4.5-4.5-4.5C21.3,83.2,19.3,85.2,19.3,87.7z"/>
		</g>
	</g>
</g>
</svg>
