<?xml version="1.0" encoding="utf-8"?>
<!-- Generator: Adobe Illustrator 23.0.1, SVG Export Plug-In . SVG Version: 6.00 Build 0)  -->
<svg version="1.1" id="Слой_1" xmlns="http://www.w3.org/2000/svg" xmlns:xlink="http://www.w3.org/1999/xlink" x="0px" y="0px"
	 viewBox="0 0 16 16" style="enable-background:new 0 0 16 16;" xml:space="preserve">
<style type="text/css">
	.st0{fill:#FCFCFC;}
</style>
<path class="st0" d="M12.5,10.7c-0.7,0-1.4,0.3-1.8,0.7L6.1,8.8C6.1,8.5,6.2,8.3,6.2,8c0-0.3,0-0.5-0.1-0.8l4.6-2.6
	c0.5,0.5,1.1,0.7,1.8,0.7c1.5,0,2.7-1.2,2.7-2.7C15.2,1.2,14,0,12.5,0C11,0,9.8,1.2,9.8,2.7c0,0.3,0,0.6,0.1,0.8L5.4,6.1
	C4.9,5.6,4.2,5.3,3.5,5.3C2,5.3,0.8,6.5,0.8,8s1.2,2.7,2.7,2.7c0.7,0,1.4-0.3,1.9-0.8l4.6,2.6c-0.1,0.3-0.1,0.5-0.1,0.8
	c0,1.5,1.2,2.7,2.7,2.7c1.5,0,2.7-1.2,2.7-2.7C15.2,11.9,14,10.7,12.5,10.7z"/>
</svg>
