<?xml version="1.0" encoding="utf-8"?>
<!-- Generator: Adobe Illustrator 23.0.0, SVG Export Plug-In . SVG Version: 6.00 Build 0)  -->
<svg version="1.1" id="Слой_1" xmlns="http://www.w3.org/2000/svg" xmlns:xlink="http://www.w3.org/1999/xlink" x="0px" y="0px"
	 viewBox="0 0 56.7 56.7" style="enable-background:new 0 0 56.7 56.7;" xml:space="preserve">
<style type="text/css">
	.st0{fill:#666666;}
</style>
<g>
	<path class="st0" d="M28.4,9.1V1.8l-9.8,9.8l9.8,9.8V14c8.1,0,14.7,6.6,14.7,14.7c0,2.5-0.7,4.9-1.7,6.8l3.7,3.7
		C46.8,36,48,32.6,48,28.7C48,17.9,39.2,9.1,28.4,9.1L28.4,9.1z M28.4,43.4c-8.1,0-14.7-6.6-14.7-14.7c0-2.5,0.7-4.9,1.7-6.9
		l-3.7-3.7c-1.7,3.2-2.9,6.6-2.9,10.5c0,10.8,8.8,19.6,19.6,19.6v7.4l9.8-9.8L28.4,36V43.4z M28.4,43.4"/>
</g>
</svg>
