<?xml version="1.0" encoding="utf-8"?>
<!-- Generator: Adobe Illustrator 23.0.1, SVG Export Plug-In . SVG Version: 6.00 Build 0)  -->
<svg version="1.1" id="Слой_1" xmlns="http://www.w3.org/2000/svg" xmlns:xlink="http://www.w3.org/1999/xlink" x="0px" y="0px"
	 viewBox="0 0 56.7 56.7" style="enable-background:new 0 0 56.7 56.7;" xml:space="preserve">
<style type="text/css">
	.st0{fill:#27C58B;}
	.st1{fill:#FFFFFF;}
</style>
<circle class="st0" cx="28.4" cy="28.4" r="28.4"/>
<g>
	<path class="st1" d="M28.4,14.5V9.2l-7.1,7.1l7.1,7.1v-5.4c5.9,0,10.6,4.8,10.6,10.6c0,1.8-0.5,3.5-1.2,4.9l2.7,2.7
		c1.2-2.3,2.1-4.8,2.1-7.6C42.6,20.9,36.2,14.5,28.4,14.5L28.4,14.5z M28.4,39.3c-5.9,0-10.6-4.8-10.6-10.6c0-1.8,0.5-3.5,1.2-5
		L16.3,21c-1.2,2.3-2.1,4.8-2.1,7.6c0,7.8,6.4,14.2,14.2,14.2v5.4l7.1-7.1L28.4,34V39.3z"/>
</g>
<image style="overflow:visible;" width="228" height="228" xlink:href="diagramm_circle.png"  transform="matrix(1 0 0 1 -460 -359.1102)">
</image>
</svg>
