<?xml version="1.0" encoding="utf-8"?>
<!-- Generator: Adobe Illustrator 23.0.1, SVG Export Plug-In . SVG Version: 6.00 Build 0)  -->
<svg version="1.1" id="Слой_1" xmlns="http://www.w3.org/2000/svg" xmlns:xlink="http://www.w3.org/1999/xlink" x="0px" y="0px"
	 viewBox="0 0 16 16" style="enable-background:new 0 0 16 16;" xml:space="preserve">
<style type="text/css">
	.st0{fill:#FFFFFF;}
</style>
<path class="st0" d="M12.3,0H3.7C2.7,0,2,0.7,2,1.7v12.7C2,15.3,2.7,16,3.7,16h8.7c0.9,0,1.7-0.7,1.7-1.7V1.7C14,0.7,13.3,0,12.3,0z
	 M8,15c-0.4,0-0.7-0.3-0.7-0.7c0-0.4,0.3-0.7,0.7-0.7c0.4,0,0.7,0.3,0.7,0.7C8.7,14.7,8.4,15,8,15z M12.7,13c0,0.2-0.1,0.3-0.3,0.3
	H3.7c-0.2,0-0.3-0.1-0.3-0.3V1.7c0-0.2,0.1-0.3,0.3-0.3h8.7c0.2,0,0.3,0.1,0.3,0.3V13z"/>
<rect x="7.4" y="4.2" transform="matrix(0.7071 -0.7071 0.7071 0.7071 -2.778 7.7781)" class="st0" width="1.2" height="6"/>
<rect x="5" y="6.6" transform="matrix(0.7071 -0.7071 0.7071 0.7071 -2.7782 7.7782)" class="st0" width="6" height="1.2"/>
</svg>
