<svg width="16" height="16" viewBox="0 0 16 16" fill="none" xmlns="http://www.w3.org/2000/svg">
<path d="M3.73894 3.24421L10.1174 1.50317L9.77959 0.820403C9.55859 0.376608 9.01957 0.19334 8.57577 0.414339L2.86572 3.24421H3.73894Z" fill="white"/>
<path d="M12.0974 1.5535C12.0183 1.5535 11.9392 1.56428 11.8602 1.58584L10.3617 1.99549L5.7854 3.24423H10.9798H13.2437L12.9634 2.21649C12.8556 1.81582 12.4926 1.5535 12.0974 1.5535Z" fill="white"/>
<path d="M14.1799 3.87311H13.9751H13.6966H13.4181H11.2925H3.48209H2.45795H1.59551H1.4356H0.900168C0.616283 3.87311 0.362942 4.00427 0.197642 4.2109C0.122179 4.30612 0.0646828 4.41572 0.0323414 4.53611C0.0125772 4.61157 0 4.69063 0 4.77148V4.87928V5.90343V14.7811C0 15.2771 0.402471 15.6795 0.898372 15.6795H14.1781C14.674 15.6795 15.0765 15.2771 15.0765 14.7811V12.2747H9.74554C8.90286 12.2747 8.2183 11.5901 8.2183 10.7474V9.92454V9.64604V9.36755V8.74947C8.2183 8.33622 8.38359 7.96072 8.65132 7.68582C8.88849 7.44144 9.20651 7.27614 9.56227 7.23482C9.62156 7.22765 9.68265 7.22403 9.74374 7.22403H14.329H14.6075H14.886H15.0765V4.77148C15.0783 4.27558 14.6758 3.87311 14.1799 3.87311Z" fill="white"/>
<path d="M15.7072 8.08283C15.6173 8.00018 15.5113 7.93729 15.3927 7.89597C15.3011 7.86544 15.2041 7.84747 15.1017 7.84747H15.0783H15.0603H14.7818H13.7775H9.74554C9.24962 7.84747 8.84717 8.24993 8.84717 8.74585V9.19323V9.47172V9.75022V10.7456C8.84717 11.2415 9.24962 11.644 9.74554 11.644H15.0783H15.1017C15.2041 11.644 15.3011 11.626 15.3927 11.5955C15.5113 11.556 15.6173 11.4913 15.7072 11.4086C15.8868 11.2451 16 11.008 16 10.7456V8.74585C16 8.48351 15.8868 8.24632 15.7072 8.08283ZM11.6214 9.92451C11.6214 10.1725 11.4201 10.3737 11.1722 10.3737H10.8739C10.626 10.3737 10.4247 10.1725 10.4247 9.92451V9.62625C10.4247 9.48251 10.4912 9.35492 10.5972 9.27406C10.6745 9.21477 10.7697 9.17706 10.8739 9.17706H10.9494H11.1722C11.4201 9.17706 11.6214 9.37828 11.6214 9.62625V9.92451Z" fill="white"/>
</svg>
