<?xml version="1.0" encoding="utf-8"?>
<!-- Generator: Adobe Illustrator 23.0.1, SVG Export Plug-In . SVG Version: 6.00 Build 0)  -->
<svg version="1.1" id="Слой_1" xmlns="http://www.w3.org/2000/svg" xmlns:xlink="http://www.w3.org/1999/xlink" x="0px" y="0px"
	 viewBox="0 0 16 16" style="enable-background:new 0 0 16 16;" xml:space="preserve">
<style type="text/css">
	.st0{fill:#FFFFFF;}
</style>
<path class="st0" d="M15.8,14.3L9,0.7C8.7,0.2,8.3,0,8,0h0C7.7,0,7.3,0.2,7,0.7L0.2,14.3c-0.5,0.9-0.1,1.7,1,1.7h13.6
	C15.9,16,16.3,15.2,15.8,14.3z M8,14c-0.6,0-1-0.4-1-1s0.4-1,1-1c0.6,0,1,0.4,1,1S8.6,14,8,14z M9,10c0,0.6-0.4,1-1,1
	c-0.6,0-1-0.4-1-1V7c0-0.6,0.4-1,1-1c0.6,0,1,0.4,1,1V10z"/>
</svg>
