<svg width="25" height="22" viewBox="0 0 25 22" fill="none" xmlns="http://www.w3.org/2000/svg">
<path d="M13.4726 0.851125C13.3241 0.592471 13.11 0.377574 12.8519 0.228134C12.5938 0.0786933 12.3008 0 12.0026 0C11.7043 0 11.4113 0.0786933 11.1532 0.228134C10.8951 0.377574 10.681 0.592471 10.5326 0.851125L0.247053 18.3516C-0.438447 19.5186 0.383553 21.0021 1.71705 21.0021H22.2866C23.6201 21.0021 24.4436 19.5171 23.7566 18.3516L13.4726 0.851125ZM11.9996 6.00212C12.8021 6.00212 13.4306 6.69512 13.3496 7.49462L12.8246 12.7551C12.8069 12.9618 12.7124 13.1543 12.5596 13.2946C12.4068 13.4349 12.207 13.5127 11.9996 13.5127C11.7921 13.5127 11.5923 13.4349 11.4395 13.2946C11.2867 13.1543 11.1922 12.9618 11.1746 12.7551L10.6496 7.49462C10.6307 7.30597 10.6516 7.11547 10.7108 6.93537C10.7701 6.75528 10.8664 6.5896 10.9936 6.44899C11.1207 6.30839 11.276 6.19598 11.4492 6.11902C11.6225 6.04205 11.81 6.00223 11.9996 6.00212ZM12.0026 15.0021C12.4004 15.0021 12.7819 15.1602 13.0632 15.4415C13.3445 15.7228 13.5026 16.1043 13.5026 16.5021C13.5026 16.9 13.3445 17.2815 13.0632 17.5628C12.7819 17.8441 12.4004 18.0021 12.0026 18.0021C11.6047 18.0021 11.2232 17.8441 10.9419 17.5628C10.6606 17.2815 10.5026 16.9 10.5026 16.5021C10.5026 16.1043 10.6606 15.7228 10.9419 15.4415C11.2232 15.1602 11.6047 15.0021 12.0026 15.0021Z" fill="#F7C970"/>
</svg>
