<svg width="16" height="16" viewBox="0 0 16 16" fill="none" xmlns="http://www.w3.org/2000/svg">
<g clip-path="url(#clip0_7508_676)">
<path d="M0.015625 7.79739C0.015625 3.56039 3.46604 0.09375 7.6832 0.09375C11.9004 0.09375 15.3508 3.56039 15.3508 7.79739C15.3508 12.0344 11.9004 15.501 7.6832 15.501C3.46604 15.501 0.015625 12.0344 0.015625 7.79739Z" fill="#1A4A7F"/>
<path fill-rule="evenodd" clip-rule="evenodd" d="M6.43764 15.4045C4.90415 15.1638 3.46647 14.4416 2.36426 13.3342L9.26508 6.97867L5.33545 7.94164C4.23324 8.23053 3.13102 7.55645 2.8914 6.44901C2.8914 6.44901 2.8914 6.44902 2.8914 6.4009C2.65179 5.29349 3.32271 4.18609 4.42493 3.89721L12.6676 1.875C15.9264 4.61943 16.3576 9.48238 13.626 12.7083C12.8593 13.6231 11.9008 14.3453 10.7986 14.8268C10.7986 14.5379 10.7986 14.249 10.8945 14.0082L12.1884 10.1083C12.1405 10.1083 6.43764 15.4045 6.43764 15.4045Z" fill="url(#paint0_linear_7508_676)"/>
</g>
<defs>
<linearGradient id="paint0_linear_7508_676" x1="17.8539" y1="0.00522788" x2="-8.50855" y2="24.083" gradientUnits="userSpaceOnUse">
<stop stop-color="#FFB800"/>
<stop offset="1" stop-color="#FFF11D"/>
</linearGradient>
<clipPath id="clip0_7508_676">
<rect width="16" height="16" fill="white"/>
</clipPath>
</defs>
</svg>
