<svg width="22" height="16" viewBox="0 0 22 16" fill="none" xmlns="http://www.w3.org/2000/svg">
<path d="M21.5467 2.50433C21.2931 1.52538 20.5501 0.753729 19.6078 0.490119C17.8862 0.000732422 10.9998 0.000732422 10.9998 0.000732422C10.9998 0.000732422 4.11357 0.000732422 2.39197 0.471464C1.46781 0.7349 0.706632 1.52555 0.453016 2.50433C0 4.29241 0 8.00073 0 8.00073C0 8.00073 0 11.7277 0.453016 13.4971C0.706799 14.4759 1.44969 15.2477 2.39214 15.5113C4.1317 16.0007 11 16.0007 11 16.0007C11 16.0007 17.8862 16.0007 19.6078 15.53C20.5502 15.2666 21.2931 14.4947 21.5469 13.516C21.9999 11.7277 21.9999 8.01956 21.9999 8.01956C21.9999 8.01956 22.018 4.29241 21.5467 2.50433Z" fill="#FF0000"/>
<path d="M8.80713 11.4266L14.5336 8.00073L8.80713 4.57483V11.4266Z" fill="white"/>
</svg>
