<?xml version="1.0" encoding="utf-8"?>
<!-- Generator: Adobe Illustrator 23.0.1, SVG Export Plug-In . SVG Version: 6.00 Build 0)  -->
<svg version="1.1" id="Слой_1" xmlns="http://www.w3.org/2000/svg" xmlns:xlink="http://www.w3.org/1999/xlink" x="0px" y="0px"
	 viewBox="0 0 23 23" style="enable-background:new 0 0 23 23;" xml:space="preserve">
<style type="text/css">
	.st0{fill:#E26666;}
</style>
<g>
	<path class="st0" d="M6.4,6.8C5.8,5.9,5.3,5,4.8,4.1C3.6,3.9,3.1,3.6,3,2.9C2.9,2.3,3.2,1.7,3.7,1.4s1.2-0.1,1.6,0.3
		c0.4,0.5,0.4,1.1,0,1.9c0.6,1,1.2,2.1,1.8,3.2c2.9,0,5.8,0,8.6,0c0.6-1.1,1.2-2.1,1.8-3.1c-0.4-0.9-0.4-1.6,0.1-2.1
		c0.4-0.4,1.1-0.4,1.6-0.2C19.7,1.7,20,2.4,19.9,3c-0.1,0.6-0.6,0.9-1.7,1c-0.5,0.9-1,1.8-1.6,2.8c0.3,0,0.5,0.1,0.7,0.1
		c1.5,0.1,2.8,1.6,2.8,3.1c0,2.7,0,5.5,0,8.2c0,1.6-1.3,3-3,3c-0.6,0-1.3,0-1.9,0c-3,0-6.1,0-9.1,0c-1.6,0-2.8-1-3.1-2.5
		c-0.1-0.3-0.1-0.7-0.1-1c0-2.5,0-4.9,0-7.4c0-0.6,0.1-1.3,0.4-1.8c0.5-0.9,1.3-1.5,2.3-1.6C5.8,6.9,6.1,6.9,6.4,6.8z M7.3,17.8
		c0.7,0,1.4,0,2.1,0s1.4,0,2.1,0c0.7,0,1.4,0,2.1,0c0.7,0,1.3,0.1,2-0.1c0-0.5,0-1,0-1.4c-2.8,0-5.6,0-8.3,0
		C7.3,16.8,7.3,17.2,7.3,17.8z M9.5,12.1c0-0.9-0.7-1.6-1.6-1.6c-0.8,0-1.4,0.6-1.4,1.5c0,0.8,0.7,1.6,1.5,1.6
		C8.7,13.6,9.5,12.9,9.5,12.1z M16.5,12c0-0.8-0.6-1.4-1.6-1.4c-0.7,0-1.5,0.7-1.5,1.5c0,0.8,0.7,1.5,1.5,1.5
		C15.8,13.6,16.5,12.9,16.5,12z"/>
	<path class="st0" d="M20.7,10.6c1.1,0,2.1,0.9,2.1,2c0.1,1.1-0.8,2.1-2.1,2.1C20.7,13.3,20.7,12,20.7,10.6z"/>
	<path class="st0" d="M2.2,10.5c0,1.5,0,2.8,0,4.2c-1.2,0-2-0.7-2.1-1.6C0,11.6,0.7,10.7,2.2,10.5z"/>
</g>
</svg>
