<?xml version="1.0" encoding="utf-8"?>
<!-- Generator: Adobe Illustrator 23.0.1, SVG Export Plug-In . SVG Version: 6.00 Build 0)  -->
<svg version="1.1" id="Слой_1" xmlns="http://www.w3.org/2000/svg" xmlns:xlink="http://www.w3.org/1999/xlink" x="0px" y="0px"
	 viewBox="0 0 79.4 79.4" style="enable-background:new 0 0 79.4 79.4;" xml:space="preserve">
<style type="text/css">
	.st0{fill:#E5E5E5;}
	.st1{fill:#4D4D4D;}
</style>
<g>
	<circle class="st0" cx="39.7" cy="39.7" r="39.7"/>
	<g>
		<g>
			<path class="st1" d="M54.4,12.8c-3.6,0-6.4,2.9-6.4,6.4s2.9,6.4,6.4,6.4s6.4-2.9,6.4-6.4S58,12.8,54.4,12.8z M54.4,24.2
				c-2.8,0-5-2.2-5-5s2.3-5,5-5c2.8,0,5,2.2,5,5S57.2,24.2,54.4,24.2z"/>
			<path class="st1" d="M56,21.6l0.3-0.3l-0.6-0.6c0.3-0.3,0.5-0.6,0.6-1c0.3,0.1,0.5,0.2,0.8,0.3l0.1-0.4c-0.3-0.1-0.5-0.2-0.8-0.3
				c0-0.1,0-0.1,0-0.1c0-0.2,0-0.4,0-0.6c0.1-0.1,0.3-0.1,0.4-0.3c0.2-0.2,0.3-0.4,0.3-0.6h0.6v-0.4H57c0-0.2-0.1-0.4-0.3-0.6
				s-0.4-0.3-0.6-0.3v-0.6h-0.4v0.6c-0.2,0-0.4,0.1-0.6,0.3C55.1,17,55,17.1,55,17.3c-0.2,0-0.4-0.1-0.6,0c-0.1,0-0.1,0-0.1,0
				c-0.1-0.3-0.2-0.5-0.3-0.8l-0.4,0.1c0.1,0.3,0.2,0.5,0.3,0.8c-0.3,0.1-0.7,0.3-1,0.6l-0.6-0.6L52,17.6l0.6,0.6
				c-0.3,0.3-0.5,0.6-0.6,1c-0.3-0.1-0.5-0.2-0.8-0.3l-0.1,0.4c0.3,0.1,0.5,0.2,0.8,0.3c0,0.1,0,0.1,0,0.1c-0.1,0.6,0.1,1.2,0.5,1.5
				c0.4,0.4,0.9,0.6,1.5,0.5c0.1,0,0.1,0,0.1,0c0.1,0.3,0.2,0.5,0.3,0.8l0.4-0.1c-0.1-0.3-0.2-0.5-0.3-0.8c0.3-0.1,0.7-0.3,1-0.6
				L56,21.6z M54.2,17.2c0.2,0.5,0.5,0.9,0.9,1.3c0.4,0.4,0.8,0.7,1.3,0.9l-0.1,0.4c-0.5-0.2-1-0.6-1.4-1c-0.4-0.4-0.7-0.9-1-1.4
				L54.2,17.2z M53.8,20.6v-0.8H53v-0.4h0.8v-0.8h0.4v0.8h0.8v0.4h-0.8v0.8H53.8z"/>
			<path class="st1" d="M51.3,26.5c-0.2-0.3-0.7-0.4-1-0.1L43.2,32L34,28.2c-0.2-0.1-0.5,0-0.7,0.1l-9.9,7c-0.3,0.2-0.4,0.7-0.2,1
				c0.1,0.2,0.4,0.3,0.6,0.3c0.1,0,0.3,0,0.4-0.1l9.6-6.8l9.2,3.8c0.2,0.1,0.5,0,0.7-0.1l7.4-5.9C51.5,27.3,51.5,26.8,51.3,26.5z"/>
			<path class="st1" d="M61.6,58.1h-3.3V33c0-0.4-0.3-0.7-0.7-0.7h-6.5c-0.4,0-0.7,0.3-0.7,0.7v25h-2.4v-18c0-0.4-0.3-0.7-0.7-0.7
				h-6.5c-0.4,0-0.7,0.3-0.7,0.7v18h-2.4V39c0-0.4-0.3-0.7-0.7-0.7h-6.5c-0.4,0-0.7,0.3-0.7,0.7v19.1h-2.4V43.1
				c0-0.4-0.3-0.7-0.7-0.7h-6.5c-0.4,0-0.7,0.3-0.7,0.7v14.9h-3.3c-0.4,0-0.7,0.3-0.7,0.7c0,0.4,0.3,0.7,0.7,0.7h45.2
				c0.4,0,0.7-0.3,0.7-0.7C62.3,58.4,62,58.1,61.6,58.1z M26.1,58.1H21V43.8h5.1V58.1z M36.4,58.1h-5.1V39.7h5.1V58.1z M46.6,58.1
				h-5.1V40.8h5.1V58.1z M56.9,58.1h-5.1V33.7h5.1V58.1z"/>
		</g>
	</g>
</g>
</svg>
