<svg width="75" height="64" viewBox="0 0 75 64" fill="none" xmlns="http://www.w3.org/2000/svg">
<path d="M56.958 15.4955L56.9618 15.3549L56.84 15.2846C56.2804 14.9619 54.8705 14.3206 53.0613 13.5349C51.2456 12.7464 49.0116 11.8057 46.7915 10.8819C43.6873 9.59008 40.584 8.3203 38.7103 7.55362C38.0396 7.2792 37.5265 7.06923 37.2272 6.94579V0.857408L61.5914 11.25C61.5915 11.2512 61.5916 11.2525 61.5918 11.2538C61.6016 11.3459 61.6153 11.4833 61.6308 11.663C61.6618 12.0225 61.6996 12.5512 61.7271 13.2255C61.7819 14.5741 61.7949 16.5043 61.6269 18.8263C61.2963 23.3951 60.2656 29.4742 57.4802 35.625L53.7789 31.8891C56.2379 25.613 56.8545 19.3598 56.958 15.4955Z" fill="white" stroke="#D7E1E9" stroke-width="0.472222"/>
<mask id="path-2-inside-1" fill="white">
<path fill-rule="evenodd" clip-rule="evenodd" d="M36.9911 0.5L61.8105 11.0868C61.8105 11.0868 63.3682 23.4554 57.5527 36.0338L53.5027 31.9458C55.995 25.6566 56.6181 19.3675 56.722 15.4892C54.8685 14.4201 43.1884 9.64104 38.6401 7.78005L38.64 7.78002L38.6396 7.77982L38.639 7.77958C37.8363 7.45117 37.256 7.2137 36.9911 7.10362C35.1219 7.83735 19.441 14.2313 17.2603 15.4892C17.3641 20.3109 18.2987 28.906 22.7641 36.453C24.0103 38.6542 25.6718 40.9603 27.4372 43.0567L23.6987 46.8302C21.6218 44.4193 19.7526 41.7988 18.1949 39.1783C10.4064 25.6566 12.1718 11.0868 12.1718 11.0868L36.9911 0.5ZM36.991 11.2964L21.518 17.3759C21.518 17.3759 22.868 27.753 26.295 34.6711C29.3063 40.7502 36.2632 47.6677 36.991 48.0879V48.088C36.991 48.0879 36.9911 48.0879 36.9911 48.0879C36.9911 48.0879 36.9911 48.0879 36.9912 48.088C37.7181 47.6687 44.9874 40.3313 47.9989 34.2518C51.4258 27.3337 52.4643 17.3759 52.4643 17.3759H52.4642L36.9912 11.2964H36.991V11.2964ZM51.114 36.8723L50.7255 37.3461C45.8506 43.2922 40.6378 49.6505 37.1985 53.2241C37.1343 53.2241 37.1098 53.1841 37.076 53.1288C37.055 53.0946 37.0305 53.0545 36.9908 53.0145C35.2254 51.4422 33.0447 49.3458 30.76 46.935L27.0216 50.7085C31.6947 55.635 36.0562 59.3036 36.9908 60.0374C37.0876 60.1351 37.1844 60.1417 37.1971 60.1422L37.1986 60.247C37.1986 60.247 49.2448 46.8301 54.9564 40.7506L54.9063 40.7L54.9563 40.6458L51.1176 36.8759L51.1141 36.8723L51.114 36.8724L51.114 36.8723Z"/>
</mask>
<path fill-rule="evenodd" clip-rule="evenodd" d="M36.9911 0.5L61.8105 11.0868C61.8105 11.0868 63.3682 23.4554 57.5527 36.0338L53.5027 31.9458C55.995 25.6566 56.6181 19.3675 56.722 15.4892C54.8685 14.4201 43.1884 9.64104 38.6401 7.78005L38.64 7.78002L38.6396 7.77982L38.639 7.77958C37.8363 7.45117 37.256 7.2137 36.9911 7.10362C35.1219 7.83735 19.441 14.2313 17.2603 15.4892C17.3641 20.3109 18.2987 28.906 22.7641 36.453C24.0103 38.6542 25.6718 40.9603 27.4372 43.0567L23.6987 46.8302C21.6218 44.4193 19.7526 41.7988 18.1949 39.1783C10.4064 25.6566 12.1718 11.0868 12.1718 11.0868L36.9911 0.5ZM36.991 11.2964L21.518 17.3759C21.518 17.3759 22.868 27.753 26.295 34.6711C29.3063 40.7502 36.2632 47.6677 36.991 48.0879V48.088C36.991 48.0879 36.9911 48.0879 36.9911 48.0879C36.9911 48.0879 36.9911 48.0879 36.9912 48.088C37.7181 47.6687 44.9874 40.3313 47.9989 34.2518C51.4258 27.3337 52.4643 17.3759 52.4643 17.3759H52.4642L36.9912 11.2964H36.991V11.2964ZM51.114 36.8723L50.7255 37.3461C45.8506 43.2922 40.6378 49.6505 37.1985 53.2241C37.1343 53.2241 37.1098 53.1841 37.076 53.1288C37.055 53.0946 37.0305 53.0545 36.9908 53.0145C35.2254 51.4422 33.0447 49.3458 30.76 46.935L27.0216 50.7085C31.6947 55.635 36.0562 59.3036 36.9908 60.0374C37.0876 60.1351 37.1844 60.1417 37.1971 60.1422L37.1986 60.247C37.1986 60.247 49.2448 46.8301 54.9564 40.7506L54.9063 40.7L54.9563 40.6458L51.1176 36.8759L51.1141 36.8723L51.114 36.8724L51.114 36.8723Z" fill="white"/>
<path d="M61.8105 11.0868L62.279 11.0277L62.2451 10.7588L61.9957 10.6524L61.8105 11.0868ZM36.9911 0.5L37.1764 0.0656424L36.9911 -0.0133877L36.8058 0.0656424L36.9911 0.5ZM57.5527 36.0338L57.2173 36.3661L57.696 36.8493L57.9814 36.2319L57.5527 36.0338ZM53.5027 31.9458L53.0637 31.7718L52.95 32.0588L53.1673 32.2782L53.5027 31.9458ZM56.722 15.4892L57.194 15.5018L57.2015 15.2206L56.9579 15.0801L56.722 15.4892ZM38.6401 7.78005L38.4585 8.21595L38.4613 8.2171L38.6401 7.78005ZM38.64 7.78002L38.8217 7.34411L38.8191 7.34307L38.64 7.78002ZM38.6396 7.77982L38.8187 7.34287L38.8174 7.34237L38.6396 7.77982ZM38.639 7.77958L38.4602 8.21664L38.4611 8.21703L38.639 7.77958ZM36.9911 7.10362L37.1723 6.66756L36.9962 6.59434L36.8186 6.66405L36.9911 7.10362ZM17.2603 15.4892L17.0243 15.0801L16.7821 15.2198L16.7881 15.4993L17.2603 15.4892ZM22.7641 36.453L23.1751 36.2204L23.1705 36.2126L22.7641 36.453ZM27.4372 43.0567L27.7727 43.389L28.0763 43.0825L27.7984 42.7525L27.4372 43.0567ZM23.6987 46.8302L23.341 47.1384L23.6745 47.5255L24.0342 47.1625L23.6987 46.8302ZM18.1949 39.1783L17.7856 39.4141L17.789 39.4196L18.1949 39.1783ZM12.1718 11.0868L11.9865 10.6524L11.7358 10.7593L11.703 11.03L12.1718 11.0868ZM21.518 17.3759L21.3453 16.9364L21.0022 17.0712L21.0498 17.4368L21.518 17.3759ZM36.991 11.2964L37.1637 11.7359L37.4632 11.6183V11.2964H36.991ZM26.295 34.6711L26.7181 34.4615V34.4615L26.295 34.6711ZM36.991 48.0879H37.4632V47.8152L37.2271 47.6789L36.991 48.0879ZM36.991 48.088H36.5188V48.9017L37.2253 48.498L36.991 48.088ZM36.9911 48.0879L37.2254 47.6779L36.9911 47.544L36.7568 47.6779L36.9911 48.0879ZM36.9912 48.088L36.7569 48.498L36.9923 48.6325L37.2271 48.497L36.9912 48.088ZM47.9989 34.2518L48.4221 34.4614V34.4614L47.9989 34.2518ZM52.4643 17.3759L52.934 17.4249L52.9883 16.9037H52.4643V17.3759ZM52.4642 17.3759L52.2915 17.8154L52.3747 17.8481H52.4642V17.3759ZM36.9912 11.2964L37.1639 10.8569L37.0806 10.8241H36.9912V11.2964ZM36.991 11.2964V10.8241H36.5188V11.2964H36.991ZM50.7255 37.3461L50.3604 37.0467L50.3603 37.0467L50.7255 37.3461ZM51.114 36.8723L51.4479 36.5384L51.0793 36.1698L50.7488 36.5729L51.114 36.8723ZM37.1985 53.2241V53.6963H37.3994L37.5388 53.5516L37.1985 53.2241ZM37.076 53.1288L37.4787 52.8822H37.4787L37.076 53.1288ZM36.9908 53.0145L37.3263 52.6821L37.3159 52.6716L37.3049 52.6618L36.9908 53.0145ZM30.76 46.935L31.1028 46.6101L30.7676 46.2564L30.4246 46.6026L30.76 46.935ZM27.0216 50.7085L26.6861 50.3761L26.3639 50.7013L26.679 51.0334L27.0216 50.7085ZM36.9908 60.0374L37.3263 59.705L37.3056 59.6841L37.2824 59.6659L36.9908 60.0374ZM37.1971 60.1422L37.6693 60.1354L37.6628 59.6862L37.2139 59.6702L37.1971 60.1422ZM37.1986 60.247L36.7265 60.2538L36.7438 61.4604L37.55 60.5625L37.1986 60.247ZM54.9564 40.7506L55.3006 41.074L55.6125 40.7419L55.2919 40.4183L54.9564 40.7506ZM54.9063 40.7L54.5592 40.3799L54.2531 40.7117L54.5708 41.0324L54.9063 40.7ZM54.9563 40.6458L55.3034 40.966L55.6137 40.6296L55.2872 40.3089L54.9563 40.6458ZM51.1176 36.8759L50.7821 37.2082L50.7868 37.2128L51.1176 36.8759ZM51.1141 36.8723L51.4496 36.54L51.089 36.1759L50.7555 36.565L51.1141 36.8723ZM51.114 36.8724L50.7801 37.2063L51.1407 37.5669L51.4726 37.1797L51.114 36.8724ZM61.9957 10.6524L37.1764 0.0656424L36.8058 0.934358L61.6252 11.5211L61.9957 10.6524ZM57.9814 36.2319C60.9197 29.8765 61.9931 23.5801 62.3334 18.8775C62.5036 16.525 62.4906 14.5678 62.4348 13.1967C62.4069 12.511 62.3683 11.9716 62.3365 11.6023C62.3206 11.4176 62.3064 11.2754 62.2961 11.1787C62.2909 11.1303 62.2867 11.0933 62.2838 11.068C62.2823 11.0554 62.2812 11.0457 62.2803 11.0389C62.2799 11.0356 62.2796 11.033 62.2794 11.0311C62.2793 11.0302 62.2792 11.0294 62.2791 11.0289C62.2791 11.0286 62.279 11.0283 62.279 11.0282C62.279 11.0279 62.279 11.0277 61.8105 11.0868C61.3419 11.1458 61.3419 11.1457 61.3419 11.1456C61.3419 11.1457 61.3419 11.1457 61.3419 11.1458C61.342 11.146 61.342 11.1464 61.3421 11.1469C61.3422 11.1481 61.3424 11.15 61.3428 11.1526C61.3434 11.1579 61.3444 11.1661 61.3457 11.1772C61.3483 11.1995 61.3521 11.2335 61.357 11.2788C61.3666 11.3694 61.3802 11.5052 61.3955 11.6833C61.4262 12.0395 61.4639 12.5646 61.4911 13.2351C61.5457 14.5762 61.5587 16.4974 61.3914 18.8093C61.0566 23.4356 60.0012 29.6127 57.1241 35.8356L57.9814 36.2319ZM53.1673 32.2782L57.2173 36.3661L57.8882 35.7014L53.8382 31.6135L53.1673 32.2782ZM56.2499 15.4765C56.1469 19.3239 55.5283 25.5527 53.0637 31.7718L53.9417 32.1198C56.4618 25.7606 57.0893 19.4111 57.194 15.5018L56.2499 15.4765ZM38.4613 8.2171C40.7356 9.14768 44.7909 10.8069 48.5089 12.367C52.2473 13.9357 55.5924 15.3828 56.486 15.8982L56.9579 15.0801C55.9981 14.5265 52.5764 13.0496 48.8743 11.4961C45.1518 9.93419 41.0929 8.2734 38.8189 7.34299L38.4613 8.2171ZM38.4584 8.21591L38.4585 8.21594L38.8217 7.34415L38.8217 7.34412L38.4584 8.21591ZM38.4605 8.21676L38.461 8.21696L38.8191 7.34307L38.8187 7.34287L38.4605 8.21676ZM38.4611 8.21703L38.4617 8.21727L38.8174 7.34237L38.8168 7.34213L38.4611 8.21703ZM36.8099 7.53968C37.0763 7.6504 37.6584 7.88859 38.4602 8.21664L38.8178 7.34253C38.0143 7.01375 37.4356 6.77699 37.1723 6.66756L36.8099 7.53968ZM17.4962 15.8982C18.0132 15.6 19.3738 14.9762 21.1892 14.1843C22.9918 13.398 25.2121 12.459 27.4244 11.5356C31.85 9.68857 36.2338 7.90819 37.1637 7.54319L36.8186 6.66405C35.8792 7.03279 31.488 8.81626 27.0606 10.6641C24.8464 11.5882 22.6208 12.5294 20.8115 13.3186C19.015 14.1023 17.5977 14.7494 17.0243 15.0801L17.4962 15.8982ZM23.1705 36.2126C18.7649 28.7666 17.8355 20.2658 17.7324 15.479L16.7881 15.4993C16.8927 20.3559 17.8325 29.0455 22.3577 36.6935L23.1705 36.2126ZM27.7984 42.7525C26.0472 40.673 24.4038 38.3908 23.1751 36.2204L22.3532 36.6857C23.6168 38.9177 25.2964 41.2476 27.076 43.3608L27.7984 42.7525ZM24.0342 47.1625L27.7727 43.389L27.1018 42.7243L23.3633 46.4978L24.0342 47.1625ZM17.789 39.4196C19.3603 42.0631 21.2456 44.7061 23.341 47.1384L24.0565 46.5219C21.998 44.1325 20.1448 41.5345 18.6008 38.937L17.789 39.4196ZM12.1718 11.0868C11.703 11.03 11.703 11.0302 11.7029 11.0304C11.7029 11.0306 11.7029 11.0309 11.7028 11.0312C11.7027 11.0318 11.7026 11.0327 11.7025 11.0338C11.7023 11.0359 11.7019 11.039 11.7014 11.0429C11.7005 11.0508 11.6992 11.0621 11.6976 11.0769C11.6943 11.1065 11.6897 11.1499 11.684 11.2066C11.6726 11.3199 11.6571 11.4866 11.6403 11.7026C11.6067 12.1346 11.5677 12.7644 11.5456 13.5615C11.5013 15.1553 11.5243 17.4194 11.7927 20.1088C12.3293 25.4846 13.8481 32.5779 17.7857 39.414L18.6041 38.9426C14.7532 32.2571 13.2604 25.3045 12.7325 20.015C12.4687 17.3717 12.4463 15.1483 12.4897 13.5877C12.5113 12.8075 12.5494 12.1934 12.5819 11.7759C12.5982 11.5671 12.613 11.4074 12.6237 11.3008C12.6291 11.2475 12.6334 11.2074 12.6363 11.181C12.6378 11.1678 12.6389 11.1581 12.6396 11.1518C12.64 11.1487 12.6402 11.1464 12.6404 11.145C12.6405 11.1444 12.6405 11.1439 12.6406 11.1436C12.6406 11.1435 12.6406 11.1435 12.6406 11.1434C12.6406 11.1435 12.6406 11.1436 12.1718 11.0868ZM36.8058 0.0656424L11.9865 10.6524L12.357 11.5211L37.1764 0.934358L36.8058 0.0656424ZM21.6907 17.8154L37.1637 11.7359L36.8183 10.8569L21.3453 16.9364L21.6907 17.8154ZM26.7181 34.4615C25.0302 31.054 23.8457 26.7744 23.0825 23.3271C22.7017 21.6073 22.4274 20.1024 22.2483 19.0278C22.1588 18.4906 22.0932 18.0613 22.05 17.7668C22.0284 17.6195 22.0124 17.506 22.0018 17.4295C21.9965 17.3913 21.9926 17.3624 21.99 17.3432C21.9888 17.3335 21.9878 17.3263 21.9872 17.3216C21.9869 17.3193 21.9866 17.3175 21.9865 17.3164C21.9864 17.3159 21.9864 17.3155 21.9863 17.3152C21.9863 17.3151 21.9863 17.315 21.9863 17.315C21.9863 17.315 21.9863 17.315 21.518 17.3759C21.0498 17.4368 21.0498 17.4369 21.0498 17.437C21.0498 17.4371 21.0498 17.4373 21.0498 17.4375C21.0499 17.4379 21.05 17.4384 21.0501 17.4391C21.0502 17.4405 21.0505 17.4426 21.0509 17.4452C21.0516 17.4506 21.0526 17.4583 21.054 17.4686C21.0567 17.489 21.0608 17.5192 21.0662 17.5587C21.0771 17.6376 21.0935 17.7538 21.1155 17.9038C21.1595 18.2038 21.2261 18.6393 21.3167 19.183C21.4979 20.2703 21.7753 21.792 22.1603 23.5313C22.9288 27.0021 24.1328 31.3701 25.8718 34.8807L26.7181 34.4615ZM37.2271 47.6789C37.2279 47.6793 37.2246 47.6775 37.2167 47.6721C37.2091 47.667 37.1988 47.6597 37.1857 47.65C37.1593 47.6305 37.1254 47.604 37.0836 47.5697C37.0001 47.5011 36.8928 47.4079 36.7634 47.2904C36.5049 47.0558 36.1674 46.733 35.7703 46.3354C34.9765 45.5406 33.952 44.4546 32.8559 43.192C30.6583 40.6606 28.1971 37.4472 26.7181 34.4615L25.8718 34.8807C27.4042 37.9741 29.9271 41.259 32.1427 43.8111C33.2533 45.0903 34.2927 46.1924 35.1021 47.0028C35.5066 47.4078 35.8556 47.7419 36.1286 47.9897C36.3855 48.2229 36.6119 48.4143 36.7549 48.4968L37.2271 47.6789ZM37.4632 48.088V48.0879H36.5188V48.088H37.4632ZM36.7568 47.6779L36.7567 47.678L37.2253 48.498L37.2254 48.4979L36.7568 47.6779ZM37.2255 47.678L37.2254 47.6779L36.7568 48.4979L36.7569 48.498L37.2255 47.678ZM47.5758 34.0422C46.0968 37.0278 43.5578 40.3461 41.2808 42.9839C40.1454 44.2993 39.0816 45.4381 38.2582 46.2724C37.8463 46.6898 37.4965 47.029 37.2294 47.2751C37.0956 47.3984 36.985 47.496 36.8992 47.5675C36.8563 47.6033 36.8217 47.6307 36.7949 47.6508C36.7661 47.6724 36.7542 47.6795 36.7552 47.6789L37.2271 48.497C37.3724 48.4132 37.6056 48.2127 37.8693 47.9697C38.1506 47.7106 38.5115 47.3603 38.9304 46.9358C39.7686 46.0865 40.8466 44.9323 41.9958 43.601C44.2881 40.9455 46.8895 37.5553 48.4221 34.4614L47.5758 34.0422ZM52.4643 17.3759C51.9946 17.3269 51.9946 17.3269 51.9946 17.3269C51.9946 17.327 51.9946 17.327 51.9946 17.3271C51.9946 17.3273 51.9946 17.3277 51.9945 17.3282C51.9944 17.3293 51.9942 17.3309 51.994 17.3332C51.9935 17.3376 51.9928 17.3445 51.9918 17.3537C51.9898 17.372 51.9867 17.3997 51.9826 17.4363C51.9743 17.5095 51.9617 17.6184 51.9443 17.7597C51.9096 18.0424 51.8561 18.455 51.7812 18.9722C51.6313 20.0067 51.3959 21.4583 51.0541 23.1247C50.369 26.4647 49.2624 30.6372 47.5758 34.0422L48.4221 34.4614C50.1623 30.9483 51.2884 26.6829 51.9793 23.3145C52.3255 21.6266 52.5639 20.1564 52.7159 19.1076C52.7918 18.5831 52.8462 18.1637 52.8817 17.8748C52.8994 17.7304 52.9124 17.6185 52.921 17.5425C52.9253 17.5045 52.9285 17.4754 52.9307 17.4557C52.9318 17.4458 52.9326 17.4383 52.9331 17.4331C52.9334 17.4305 52.9336 17.4286 52.9337 17.4272C52.9338 17.4265 52.9339 17.426 52.9339 17.4256C52.9339 17.4254 52.934 17.4252 52.934 17.4251C52.934 17.425 52.934 17.4249 52.4643 17.3759ZM52.4642 17.8481H52.4643V16.9037H52.4642V17.8481ZM36.8185 11.7359L52.2915 17.8154L52.6369 16.9364L37.1639 10.8569L36.8185 11.7359ZM36.991 11.7686H36.9912V10.8241H36.991V11.7686ZM37.4632 11.2964V11.2964H36.5188V11.2964H37.4632ZM51.0907 37.6455L51.4791 37.1717L50.7488 36.5729L50.3604 37.0467L51.0907 37.6455ZM37.5388 53.5516C40.9944 49.961 46.2218 43.5843 51.0907 37.6455L50.3603 37.0467C45.4795 43.0001 40.2812 49.3401 36.8583 52.8967L37.5388 53.5516ZM36.6732 53.3753C36.68 53.3864 36.7293 53.4739 36.8061 53.5446C36.9119 53.642 37.0483 53.6963 37.1985 53.6963V52.7519C37.2328 52.7519 37.2784 52.7575 37.3285 52.777C37.3791 52.7967 37.4181 52.8243 37.4457 52.8498C37.4709 52.873 37.4848 52.8927 37.4874 52.8964C37.4891 52.8989 37.4889 52.8989 37.4787 52.8822L36.6732 53.3753ZM36.6554 53.3468C36.6526 53.344 36.6525 53.3414 36.6732 53.3753L37.4787 52.8822C37.4576 52.8477 37.4084 52.765 37.3263 52.6821L36.6554 53.3468ZM30.4173 47.2598C32.7105 49.6797 34.9008 51.7854 36.6768 53.3671L37.3049 52.6618C35.55 51.0989 33.3788 49.0119 31.1028 46.6101L30.4173 47.2598ZM27.357 51.0408L31.0955 47.2673L30.4246 46.6026L26.6861 50.3761L27.357 51.0408ZM37.2824 59.6659C36.3649 58.9456 32.0205 55.2924 27.3642 50.3835L26.679 51.0334C31.3688 55.9776 35.7475 59.6617 36.6992 60.4088L37.2824 59.6659ZM37.2139 59.6702C37.2461 59.6714 37.2698 59.6762 37.2885 59.683C37.309 59.6906 37.3213 59.7 37.3263 59.705L36.6554 60.3697C36.8633 60.5797 37.0915 60.6109 37.1803 60.6141L37.2139 59.6702ZM37.6708 60.2402L37.6693 60.1354L36.7249 60.149L36.7265 60.2538L37.6708 60.2402ZM54.6122 40.4273C51.7531 43.4706 47.3109 48.3478 43.5856 52.4617C41.7225 54.5191 40.038 56.3865 38.8192 57.7396C38.2098 58.4161 37.7169 58.9641 37.3762 59.3429C37.2059 59.5323 37.0737 59.6795 36.984 59.7793C36.9392 59.8291 36.905 59.8672 36.882 59.8928C36.8705 59.9056 36.8618 59.9153 36.856 59.9218C36.8531 59.925 36.8509 59.9274 36.8495 59.9291C36.8487 59.9299 36.8482 59.9305 36.8478 59.9309C36.8476 59.9311 36.8475 59.9313 36.8474 59.9314C36.8473 59.9315 36.8472 59.9315 37.1986 60.247C37.55 60.5625 37.55 60.5624 37.5501 60.5623C37.5502 60.5622 37.5504 60.5621 37.5505 60.5619C37.5509 60.5615 37.5515 60.5609 37.5522 60.5601C37.5536 60.5584 37.5558 60.556 37.5587 60.5528C37.5645 60.5463 37.5732 60.5367 37.5847 60.5239C37.6076 60.4983 37.6418 60.4603 37.6866 60.4105C37.7762 60.3107 37.9083 60.1637 38.0785 59.9744C38.419 59.5957 38.9118 59.048 39.521 58.3717C40.7393 57.0191 42.4233 55.1523 44.2857 53.0956C48.0114 48.9812 52.4481 44.1101 55.3006 41.074L54.6122 40.4273ZM54.5708 41.0324L54.6209 41.083L55.2919 40.4183L55.2417 40.3677L54.5708 41.0324ZM54.6092 40.3256L54.5592 40.3799L55.2534 41.0202L55.3034 40.966L54.6092 40.3256ZM50.7868 37.2128L54.6254 40.9827L55.2872 40.3089L51.4485 36.539L50.7868 37.2128ZM50.7786 37.2046L50.7821 37.2082L51.4531 36.5436L51.4496 36.54L50.7786 37.2046ZM51.4726 37.1797L51.4726 37.1796L50.7555 36.565L50.7555 36.565L51.4726 37.1797ZM50.7801 37.2062L50.7801 37.2063L51.4479 36.5384L51.4479 36.5384L50.7801 37.2062Z" fill="#D7E1E9" mask="url(#path-2-inside-1)"/>
<g opacity="0.2">
<path d="M51.2797 37.0262C46.2739 43.1315 40.851 49.7631 37.3053 53.4473C37.201 53.4473 37.201 53.342 37.0967 53.2368C35.3239 51.6578 33.1338 49.5526 30.8396 47.1315L27.0852 50.921C31.7781 55.8684 36.1582 59.5526 37.0967 60.2894C37.201 60.3947 37.3053 60.3947 37.3053 60.3947C37.3053 60.3947 49.5068 46.921 55.1383 40.8157L51.2797 37.0262Z" fill="#4EB594"/>
<path d="M37.0969 11.342L21.5582 17.4473C21.5582 17.4473 22.9139 27.8684 26.3554 34.8157C29.3797 40.921 36.3669 47.8684 37.0969 48.2894C37.8269 47.8684 45.1269 40.4999 48.1512 34.3947C51.5927 27.4473 52.6355 17.4473 52.6355 17.4473L37.0969 11.342Z" fill="#3D88C8"/>
<path d="M62.0213 11.1316L37.0969 0.500061L12.1725 11.1316C12.1725 11.1316 10.3996 25.7632 18.2211 39.3422C19.7854 41.9737 21.6625 44.6053 23.7483 47.0264L27.5026 43.2369C25.7297 41.1316 24.0611 38.8159 22.8097 36.6053C18.3254 29.0264 17.3868 20.3948 17.2825 15.5527C19.4725 14.2895 35.2198 7.86848 37.0969 7.13164C38.8698 7.86848 54.7213 14.2895 56.9113 15.5527C56.807 19.4474 56.1813 25.7632 53.6784 32.079L57.7456 36.1843C63.5856 23.5527 62.0213 11.1316 62.0213 11.1316Z" fill="#3D88C8"/>
<path d="M55.1384 40.921L51.2798 37.0262C46.2741 43.1315 40.8512 49.7631 37.3055 53.4473C37.2012 53.4473 37.3055 60.4999 37.3055 60.4999C37.3055 60.4999 49.4027 47.0262 55.1384 40.921Z" fill="#029E81"/>
<path d="M53.6783 32.079L57.7454 36.1842C63.5855 23.5526 62.0212 11.1316 62.0212 11.1316L37.0967 0.5V7.13158C38.8696 7.86842 54.7211 14.2895 56.9111 15.5526C56.8068 19.4474 56.1811 25.7632 53.6783 32.079Z" fill="#057BAA"/>
<path d="M52.6354 17.4473C52.6354 17.4473 51.5925 27.4473 48.1511 34.3947C45.1268 40.4999 37.8267 47.8684 37.0967 48.2894V11.342L52.6354 17.4473Z" fill="#057BAA"/>
</g>
<circle cx="37" cy="30" r="23.8095" stroke="#CB1A1A" stroke-width="12.381"/>
<g filter="url(#filter0_d)">
<g filter="url(#filter1_i)">
<path d="M56.2845 34.4893V25.7579L61.3432 26.5894C61.3432 26.5894 62.4519 27.7675 62.4519 30.1236C62.4519 32.4797 61.3432 33.6577 61.3432 33.6577L56.2845 34.4893Z" fill="white"/>
</g>
<g filter="url(#filter2_dii)">
<path d="M19.3207 34.4893V25.7579L14.262 26.5894C14.262 26.5894 13.1532 27.7675 13.1532 30.1236C13.1532 32.4797 14.262 33.6577 14.262 33.6577L19.3207 34.4893Z" fill="white"/>
</g>
<g filter="url(#filter3_ii)">
<rect x="16.3091" y="15.238" width="42.9208" height="29.4555" rx="14.7277" fill="white"/>
</g>
<g filter="url(#filter4_ii)">
<rect x="23.0417" y="20.7085" width="29.4555" height="18.5149" rx="9.25743" fill="url(#paint0_linear)"/>
</g>
<g filter="url(#filter5_iii)">
<path d="M49.1309 29.9659C49.1309 31.4764 47.9063 32.701 46.3957 32.701C44.8851 32.701 43.0773 31.7681 43.0773 30.2575C43.0773 28.7469 44.8851 27.2307 46.3957 27.2307C47.9063 27.2307 49.1309 28.4553 49.1309 29.9659Z" fill="#0047FF"/>
<path d="M49.1309 29.9659C49.1309 31.4764 47.9063 32.701 46.3957 32.701C44.8851 32.701 43.0773 31.7681 43.0773 30.2575C43.0773 28.7469 44.8851 27.2307 46.3957 27.2307C47.9063 27.2307 49.1309 28.4553 49.1309 29.9659Z" fill="url(#paint1_linear)"/>
<path d="M49.1309 29.9659C49.1309 31.4764 47.9063 32.701 46.3957 32.701C44.8851 32.701 43.0773 31.7681 43.0773 30.2575C43.0773 28.7469 44.8851 27.2307 46.3957 27.2307C47.9063 27.2307 49.1309 28.4553 49.1309 29.9659Z" fill="url(#paint2_linear)" fill-opacity="0.7"/>
</g>
<path d="M46.3957 33.2843C48.2284 33.2843 49.7141 31.7986 49.7141 29.9659C49.7141 28.1331 48.2284 26.6474 46.3957 26.6474C45.4613 26.6474 44.4997 27.1061 43.7832 27.7411C43.0699 28.3732 42.494 29.2761 42.494 30.2575C42.494 31.2727 43.1061 32.0434 43.8492 32.5328C44.5907 33.0212 45.5331 33.2843 46.3957 33.2843Z" stroke="#1F295B" stroke-width="1.16655"/>
<g filter="url(#filter6_iii)">
<path d="M32.4617 30.2575C32.4617 31.7681 30.6538 32.701 29.1432 32.701C27.6327 32.701 26.4081 31.4764 26.4081 29.9659C26.4081 28.4553 27.6327 27.2307 29.1432 27.2307C30.6538 27.2307 32.4617 28.7469 32.4617 30.2575Z" fill="#0047FF"/>
<path d="M32.4617 30.2575C32.4617 31.7681 30.6538 32.701 29.1432 32.701C27.6327 32.701 26.4081 31.4764 26.4081 29.9659C26.4081 28.4553 27.6327 27.2307 29.1432 27.2307C30.6538 27.2307 32.4617 28.7469 32.4617 30.2575Z" fill="url(#paint3_linear)"/>
<path d="M32.4617 30.2575C32.4617 31.7681 30.6538 32.701 29.1432 32.701C27.6327 32.701 26.4081 31.4764 26.4081 29.9659C26.4081 28.4553 27.6327 27.2307 29.1432 27.2307C30.6538 27.2307 32.4617 28.7469 32.4617 30.2575Z" fill="url(#paint4_linear)" fill-opacity="0.7"/>
</g>
<path d="M29.1432 33.2843C30.0058 33.2843 30.9482 33.0212 31.6898 32.5328C32.4328 32.0434 33.0449 31.2727 33.0449 30.2575C33.0449 29.2761 32.469 28.3732 31.7558 27.7411C31.0393 27.1061 30.0777 26.6474 29.1432 26.6474C27.3105 26.6474 25.8248 28.1331 25.8248 29.9659C25.8248 31.7986 27.3105 33.2843 29.1432 33.2843Z" stroke="#1F295B" stroke-width="1.16655"/>
</g>
<rect x="52.714" y="7.23651" width="12.381" height="53.9698" transform="rotate(45 52.714 7.23651)" fill="url(#paint5_linear)"/>
<defs>
<filter id="filter0_d" x="0.690518" y="9.57318" width="74.2241" height="54.3808" filterUnits="userSpaceOnUse" color-interpolation-filters="sRGB">
<feFlood flood-opacity="0" result="BackgroundImageFix"/>
<feColorMatrix in="SourceAlpha" type="matrix" values="0 0 0 0 0 0 0 0 0 0 0 0 0 0 0 0 0 0 127 0"/>
<feOffset dy="6.79783"/>
<feGaussianBlur stdDeviation="6.23134"/>
<feColorMatrix type="matrix" values="0 0 0 0 0.00190973 0 0 0 0 0.0475522 0 0 0 0 0.458333 0 0 0 0.4 0"/>
<feBlend mode="normal" in2="BackgroundImageFix" result="effect1_dropShadow"/>
<feBlend mode="normal" in="SourceGraphic" in2="effect1_dropShadow" result="shape"/>
</filter>
<filter id="filter1_i" x="56.2845" y="24.4955" width="6.16744" height="9.99381" filterUnits="userSpaceOnUse" color-interpolation-filters="sRGB">
<feFlood flood-opacity="0" result="BackgroundImageFix"/>
<feBlend mode="normal" in="SourceGraphic" in2="BackgroundImageFix" result="shape"/>
<feColorMatrix in="SourceAlpha" type="matrix" values="0 0 0 0 0 0 0 0 0 0 0 0 0 0 0 0 0 0 127 0" result="hardAlpha"/>
<feOffset dy="-1.68317"/>
<feGaussianBlur stdDeviation="0.631188"/>
<feComposite in2="hardAlpha" operator="arithmetic" k2="-1" k3="1"/>
<feColorMatrix type="matrix" values="0 0 0 0 0 0 0 0 0 0.266333 0 0 0 0 0.783333 0 0 0 0.3 0"/>
<feBlend mode="normal" in2="shape" result="effect1_innerShadow"/>
</filter>
<filter id="filter2_dii" x="0.690534" y="20.093" width="31.0928" height="33.6568" filterUnits="userSpaceOnUse" color-interpolation-filters="sRGB">
<feFlood flood-opacity="0" result="BackgroundImageFix"/>
<feColorMatrix in="SourceAlpha" type="matrix" values="0 0 0 0 0 0 0 0 0 0 0 0 0 0 0 0 0 0 127 0"/>
<feOffset dy="6.79783"/>
<feGaussianBlur stdDeviation="6.23134"/>
<feColorMatrix type="matrix" values="0 0 0 0 0 0 0 0 0 0.0450001 0 0 0 0 0.45 0 0 0 0.05 0"/>
<feBlend mode="normal" in2="BackgroundImageFix" result="effect1_dropShadow"/>
<feBlend mode="normal" in="SourceGraphic" in2="effect1_dropShadow" result="shape"/>
<feColorMatrix in="SourceAlpha" type="matrix" values="0 0 0 0 0 0 0 0 0 0 0 0 0 0 0 0 0 0 127 0" result="hardAlpha"/>
<feOffset dy="-1.68317"/>
<feGaussianBlur stdDeviation="0.631188"/>
<feComposite in2="hardAlpha" operator="arithmetic" k2="-1" k3="1"/>
<feColorMatrix type="matrix" values="0 0 0 0 0 0 0 0 0 0.266333 0 0 0 0 0.783333 0 0 0 0.3 0"/>
<feBlend mode="normal" in2="shape" result="effect2_innerShadow"/>
<feColorMatrix in="SourceAlpha" type="matrix" values="0 0 0 0 0 0 0 0 0 0 0 0 0 0 0 0 0 0 127 0" result="hardAlpha"/>
<feOffset dy="-1.69946"/>
<feGaussianBlur stdDeviation="1.13297"/>
<feComposite in2="hardAlpha" operator="arithmetic" k2="-1" k3="1"/>
<feColorMatrix type="matrix" values="0 0 0 0 0.766667 0 0 0 0 0.93 0 0 0 0 1 0 0 0 0.4 0"/>
<feBlend mode="normal" in2="effect2_innerShadow" result="effect3_innerShadow"/>
</filter>
<filter id="filter3_ii" x="16.3091" y="13.5386" width="42.9208" height="31.1549" filterUnits="userSpaceOnUse" color-interpolation-filters="sRGB">
<feFlood flood-opacity="0" result="BackgroundImageFix"/>
<feBlend mode="normal" in="SourceGraphic" in2="BackgroundImageFix" result="shape"/>
<feColorMatrix in="SourceAlpha" type="matrix" values="0 0 0 0 0 0 0 0 0 0 0 0 0 0 0 0 0 0 127 0" result="hardAlpha"/>
<feOffset dy="-1.68317"/>
<feGaussianBlur stdDeviation="0.631188"/>
<feComposite in2="hardAlpha" operator="arithmetic" k2="-1" k3="1"/>
<feColorMatrix type="matrix" values="0 0 0 0 0.690196 0 0 0 0 0.776941 0 0 0 0 1 0 0 0 0.8 0"/>
<feBlend mode="normal" in2="shape" result="effect1_innerShadow"/>
<feColorMatrix in="SourceAlpha" type="matrix" values="0 0 0 0 0 0 0 0 0 0 0 0 0 0 0 0 0 0 127 0" result="hardAlpha"/>
<feOffset dy="-1.69946"/>
<feGaussianBlur stdDeviation="1.13297"/>
<feComposite in2="hardAlpha" operator="arithmetic" k2="-1" k3="1"/>
<feColorMatrix type="matrix" values="0 0 0 0 0.766667 0 0 0 0 0.93 0 0 0 0 1 0 0 0 0.4 0"/>
<feBlend mode="normal" in2="effect1_innerShadow" result="effect2_innerShadow"/>
</filter>
<filter id="filter4_ii" x="23.0417" y="19.8669" width="29.4555" height="21.0002" filterUnits="userSpaceOnUse" color-interpolation-filters="sRGB">
<feFlood flood-opacity="0" result="BackgroundImageFix"/>
<feBlend mode="normal" in="SourceGraphic" in2="BackgroundImageFix" result="shape"/>
<feColorMatrix in="SourceAlpha" type="matrix" values="0 0 0 0 0 0 0 0 0 0 0 0 0 0 0 0 0 0 127 0" result="hardAlpha"/>
<feOffset dy="1.64372"/>
<feGaussianBlur stdDeviation="0.82186"/>
<feComposite in2="hardAlpha" operator="arithmetic" k2="-1" k3="1"/>
<feColorMatrix type="matrix" values="0 0 0 0 0.188333 0 0 0 0 0.399267 0 0 0 0 0.941667 0 0 0 0.31 0"/>
<feBlend mode="normal" in2="shape" result="effect1_innerShadow"/>
<feColorMatrix in="SourceAlpha" type="matrix" values="0 0 0 0 0 0 0 0 0 0 0 0 0 0 0 0 0 0 127 0" result="hardAlpha"/>
<feOffset dy="-0.841584"/>
<feGaussianBlur stdDeviation="0.420792"/>
<feComposite in2="hardAlpha" operator="arithmetic" k2="-1" k3="1"/>
<feColorMatrix type="matrix" values="0 0 0 0 0.0807292 0 0 0 0 0.101146 0 0 0 0 0.208333 0 0 0 0.8 0"/>
<feBlend mode="normal" in2="effect1_innerShadow" result="effect2_innerShadow"/>
</filter>
<filter id="filter5_iii" x="41.9107" y="23.5394" width="8.38668" height="10.7489" filterUnits="userSpaceOnUse" color-interpolation-filters="sRGB">
<feFlood flood-opacity="0" result="BackgroundImageFix"/>
<feBlend mode="normal" in="SourceGraphic" in2="BackgroundImageFix" result="shape"/>
<feColorMatrix in="SourceAlpha" type="matrix" values="0 0 0 0 0 0 0 0 0 0 0 0 0 0 0 0 0 0 127 0" result="hardAlpha"/>
<feOffset dy="-2.52475"/>
<feGaussianBlur stdDeviation="2.10396"/>
<feComposite in2="hardAlpha" operator="arithmetic" k2="-1" k3="1"/>
<feColorMatrix type="matrix" values="0 0 0 0 0.575 0 0 0 0 1 0 0 0 0 0.949 0 0 0 1 0"/>
<feBlend mode="normal" in2="shape" result="effect1_innerShadow"/>
<feColorMatrix in="SourceAlpha" type="matrix" values="0 0 0 0 0 0 0 0 0 0 0 0 0 0 0 0 0 0 127 0" result="hardAlpha"/>
<feOffset dy="-0.841584"/>
<feGaussianBlur stdDeviation="0.841584"/>
<feComposite in2="hardAlpha" operator="arithmetic" k2="-1" k3="1"/>
<feColorMatrix type="matrix" values="0 0 0 0 1 0 0 0 0 1 0 0 0 0 1 0 0 0 0.12 0"/>
<feBlend mode="normal" in2="effect1_innerShadow" result="effect2_innerShadow"/>
<feColorMatrix in="SourceAlpha" type="matrix" values="0 0 0 0 0 0 0 0 0 0 0 0 0 0 0 0 0 0 127 0" result="hardAlpha"/>
<feOffset dy="0.420792"/>
<feGaussianBlur stdDeviation="0.841584"/>
<feComposite in2="hardAlpha" operator="arithmetic" k2="-1" k3="1"/>
<feColorMatrix type="matrix" values="0 0 0 0 1 0 0 0 0 1 0 0 0 0 1 0 0 0 0.12 0"/>
<feBlend mode="normal" in2="effect2_innerShadow" result="effect3_innerShadow"/>
</filter>
<filter id="filter6_iii" x="25.2415" y="23.5394" width="8.38668" height="10.7489" filterUnits="userSpaceOnUse" color-interpolation-filters="sRGB">
<feFlood flood-opacity="0" result="BackgroundImageFix"/>
<feBlend mode="normal" in="SourceGraphic" in2="BackgroundImageFix" result="shape"/>
<feColorMatrix in="SourceAlpha" type="matrix" values="0 0 0 0 0 0 0 0 0 0 0 0 0 0 0 0 0 0 127 0" result="hardAlpha"/>
<feOffset dy="-2.52475"/>
<feGaussianBlur stdDeviation="2.10396"/>
<feComposite in2="hardAlpha" operator="arithmetic" k2="-1" k3="1"/>
<feColorMatrix type="matrix" values="0 0 0 0 0.575 0 0 0 0 1 0 0 0 0 0.949 0 0 0 1 0"/>
<feBlend mode="normal" in2="shape" result="effect1_innerShadow"/>
<feColorMatrix in="SourceAlpha" type="matrix" values="0 0 0 0 0 0 0 0 0 0 0 0 0 0 0 0 0 0 127 0" result="hardAlpha"/>
<feOffset dy="-0.841584"/>
<feGaussianBlur stdDeviation="0.841584"/>
<feComposite in2="hardAlpha" operator="arithmetic" k2="-1" k3="1"/>
<feColorMatrix type="matrix" values="0 0 0 0 1 0 0 0 0 1 0 0 0 0 1 0 0 0 0.12 0"/>
<feBlend mode="normal" in2="effect1_innerShadow" result="effect2_innerShadow"/>
<feColorMatrix in="SourceAlpha" type="matrix" values="0 0 0 0 0 0 0 0 0 0 0 0 0 0 0 0 0 0 127 0" result="hardAlpha"/>
<feOffset dy="0.420792"/>
<feGaussianBlur stdDeviation="0.841584"/>
<feComposite in2="hardAlpha" operator="arithmetic" k2="-1" k3="1"/>
<feColorMatrix type="matrix" values="0 0 0 0 1 0 0 0 0 1 0 0 0 0 1 0 0 0 0.12 0"/>
<feBlend mode="normal" in2="effect2_innerShadow" result="effect3_innerShadow"/>
</filter>
<linearGradient id="paint0_linear" x1="23.0417" y1="20.7085" x2="23.0417" y2="39.2234" gradientUnits="userSpaceOnUse">
<stop stop-color="#181927"/>
<stop offset="1" stop-color="#1D2433"/>
</linearGradient>
<linearGradient id="paint1_linear" x1="46.3999" y1="25.2662" x2="46.3999" y2="31.4854" gradientUnits="userSpaceOnUse">
<stop offset="0.00520833" stop-color="white" stop-opacity="0.08"/>
<stop offset="0.0851933" stop-opacity="0.08"/>
<stop offset="0.336988" stop-color="white" stop-opacity="0.1"/>
<stop offset="0.660917" stop-color="white" stop-opacity="0.1"/>
<stop offset="1" stop-opacity="0.1"/>
</linearGradient>
<linearGradient id="paint2_linear" x1="46.3957" y1="27.2307" x2="46.3957" y2="32.701" gradientUnits="userSpaceOnUse">
<stop stop-color="#526EFF"/>
<stop offset="1" stop-color="white" stop-opacity="0"/>
</linearGradient>
<linearGradient id="paint3_linear" x1="29.1474" y1="25.2662" x2="29.1474" y2="31.4854" gradientUnits="userSpaceOnUse">
<stop offset="0.00520833" stop-color="white" stop-opacity="0.08"/>
<stop offset="0.0851933" stop-opacity="0.08"/>
<stop offset="0.336988" stop-color="white" stop-opacity="0.1"/>
<stop offset="0.660917" stop-color="white" stop-opacity="0.1"/>
<stop offset="1" stop-opacity="0.1"/>
</linearGradient>
<linearGradient id="paint4_linear" x1="29.1432" y1="27.2307" x2="29.1432" y2="32.701" gradientUnits="userSpaceOnUse">
<stop stop-color="#526EFF"/>
<stop offset="1" stop-color="white" stop-opacity="0"/>
</linearGradient>
<linearGradient id="paint5_linear" x1="58.9045" y1="7.23651" x2="58.3722" y2="65.4222" gradientUnits="userSpaceOnUse">
<stop stop-color="#CB1A1A"/>
<stop offset="0.800971" stop-color="#9E182F"/>
<stop offset="0.828125" stop-color="#9B1932" stop-opacity="0.18"/>
</linearGradient>
</defs>
</svg>
