<svg width="60" height="60" viewBox="0 0 60 60" fill="none" xmlns="http://www.w3.org/2000/svg">
<circle cx="30" cy="30" r="30" fill="#688BE1"/>
<path d="M19.875 24H21.125V25.25C21.125 25.7677 21.5447 26.1875 22.0625 26.1875C22.5803 26.1875 23 25.7677 23 25.25V24H24.25C24.7677 24 25.1875 23.5803 25.1875 23.0625C25.1875 22.5447 24.7677 22.125 24.25 22.125H23V20.875C23 20.3572 22.5803 19.9375 22.0625 19.9375C21.5447 19.9375 21.125 20.3572 21.125 20.875V22.125H19.875C19.3572 22.125 18.9375 22.5447 18.9375 23.0625C18.9375 23.5803 19.3572 24 19.875 24Z" fill="white"/>
<path d="M34.4375 24H38.1875C38.7052 24 39.125 23.5803 39.125 23.0625C39.125 22.5447 38.7052 22.125 38.1875 22.125H34.4375C33.9197 22.125 33.5 22.5447 33.5 23.0625C33.5 23.5803 33.9197 24 34.4375 24Z" fill="white"/>
<path d="M38.5 37.9375H34.125C33.6072 37.9375 33.1875 38.3572 33.1875 38.875C33.1875 39.3928 33.6072 39.8125 34.125 39.8125H38.5C39.0177 39.8125 39.4375 39.3928 39.4375 38.875C39.4375 38.3572 39.0177 37.9375 38.5 37.9375Z" fill="white"/>
<path d="M38.5 34.8125H34.125C33.6072 34.8125 33.1875 35.2322 33.1875 35.75C33.1875 36.2678 33.6072 36.6875 34.125 36.6875H38.5C39.0177 36.6875 39.4375 36.2678 39.4375 35.75C39.4375 35.2322 39.0177 34.8125 38.5 34.8125Z" fill="white"/>
<path d="M24.2878 35.0872C23.9218 34.721 23.3282 34.721 22.962 35.0872L22.0625 35.9867L21.1628 35.0871C20.7968 34.721 20.2032 34.721 19.837 35.0871C19.4709 35.4532 19.4709 36.0468 19.837 36.4129L20.7367 37.3125L19.837 38.2122C19.4709 38.5783 19.4709 39.1718 19.837 39.538C20.0201 39.721 20.26 39.8125 20.5 39.8125C20.7399 39.8125 20.9798 39.721 21.1628 39.5379L22.0625 38.6383L22.9621 39.538C23.1451 39.721 23.385 39.8125 23.625 39.8125C23.8649 39.8125 24.1048 39.721 24.2878 39.5379C24.654 39.1718 24.654 38.5782 24.2878 38.2121L23.3883 37.3125L24.2879 36.4129C24.654 36.0468 24.654 35.4532 24.2878 35.0872Z" fill="white"/>
<path d="M44.375 31.9481V17.8125C44.375 16.2617 43.1133 15 41.5625 15H16.8125C15.2617 15 14 16.2617 14 17.8125V42.5625C14 44.1133 15.2617 45.375 16.8125 45.375H30.948C32.4849 46.401 34.3299 47 36.3125 47C41.6543 47 46 42.6542 46 37.3125C46 35.33 45.401 33.4849 44.375 31.9481ZM42.5 17.8125V29.8644C40.8206 28.4668 38.6631 27.625 36.3125 27.625C33.9619 27.625 31.8044 28.4668 30.125 29.8644V16.875H41.5625C42.0794 16.875 42.5 17.2956 42.5 17.8125ZM16.8125 16.875H28.25V29.25H15.875V17.8125C15.875 17.2956 16.2956 16.875 16.8125 16.875ZM15.875 42.5625V31.125H28.25V31.9481C27.224 33.4849 26.625 35.33 26.625 37.3125C26.625 39.6631 27.4668 41.8206 28.8644 43.5H16.8125C16.2956 43.5 15.875 43.0794 15.875 42.5625ZM36.3125 45.125C32.0047 45.125 28.5 41.6203 28.5 37.3125C28.5 33.0047 32.0047 29.5 36.3125 29.5C40.6203 29.5 44.125 33.0047 44.125 37.3125C44.125 41.6203 40.6203 45.125 36.3125 45.125Z" fill="white"/>
</svg>
