<svg width="29" height="27" viewBox="0 0 29 27" fill="none" xmlns="http://www.w3.org/2000/svg">
<path d="M14.5 27C22.5081 27 29 20.9558 29 13.5001C29 6.04418 22.5081 0 14.5 0C6.49187 0 0 6.04418 0 13.5001C0 20.9558 6.49187 27 14.5 27Z" fill="#3A64F8"/>
<path fill-rule="evenodd" clip-rule="evenodd" d="M12.8247 8.62001C13.8444 8.64292 13.9286 7.84834 13.9999 7.17426C14.0173 7.00998 14.0341 6.85294 14.0632 6.71657C14.0873 6.60427 14.125 6.46566 14.167 6.31086C14.3856 5.5068 14.7226 4.26753 13.8841 4.02536C12.8845 3.73664 11.9743 5.99454 11.8847 6.66404L11.871 6.76472C11.7757 7.4519 11.6176 8.59295 12.8247 8.62001ZM9.91496 10.2617C10.8945 9.92758 10.6446 8.88284 10.4127 7.91354C10.3957 7.84259 10.3789 7.77184 10.3625 7.70195C10.2946 7.41046 10.2738 7.01743 10.252 6.60512C10.1971 5.56881 10.1357 4.41008 9.30316 4.4332C8.13927 4.46548 7.78142 6.98632 8.12437 8.54202C8.12437 8.54202 8.38837 10.7811 9.91496 10.2617ZM19.5959 10.5522C20.0342 10.5864 20.5308 10.6252 20.7632 10.9733C21.2255 11.6656 21.0017 12.8865 20.1729 13.7557C19.344 14.6248 17.3459 15.1969 16.6297 15.3282C16.0432 15.4357 16.1102 15.7303 16.2084 16.1631C16.2302 16.2588 16.2535 16.3614 16.2716 16.4703C16.3713 17.0707 16.4897 19.1088 16.4954 21.0255C16.501 22.9423 15.8604 26.3148 15.8604 26.3148C15.7367 26.8663 16.0431 26.9282 16.0431 26.9282C11.6885 27.2943 8.95318 26.1417 8.95318 26.1417C8.95318 26.1417 9.13035 26.1689 9.23426 26.112C9.49111 25.8721 9.5909 25.4237 10.0384 23.4115L10.1256 23.0204C11.3202 17.6609 10.933 14.8132 10.7954 14.1336C10.7854 14.0843 10.7702 14.0183 10.7519 13.939C10.6361 13.4369 10.3984 12.4055 10.6014 11.7706C10.8364 11.0356 11.2599 9.79792 13.6117 9.3823C15.9633 8.96669 18.4501 8.97447 19.2111 9.21078C19.9721 9.44708 20.0515 9.89157 19.8975 9.88027C19.8672 9.87814 19.8148 9.86642 19.7486 9.85183C19.4234 9.77991 18.7659 9.63449 18.7784 10.1691C18.7858 10.4889 19.1624 10.5183 19.5959 10.5522ZM12.6556 11.6689C12.6556 12.0646 13.0211 12.3861 13.4708 12.3861C13.687 12.386 13.8943 12.3104 14.0471 12.1759C14.2 12.0414 14.2859 11.8591 14.2861 11.6689C14.2859 11.4787 14.2 11.2963 14.0471 11.1618C13.8943 11.0273 13.687 10.9517 13.4708 10.9515C13.2546 10.9517 13.0473 11.0273 12.8945 11.1618C12.7416 11.2963 12.6557 11.4787 12.6556 11.6689Z" fill="white"/>
</svg>
