<svg width="70" height="74" viewBox="0 0 70 74" fill="none" xmlns="http://www.w3.org/2000/svg">
<rect y="2" width="70" height="70" rx="15.2174" fill="url(#paint0_linear)"/>
<rect y="2" width="70" height="70" rx="15.2174" fill="url(#paint1_linear)" fill-opacity="0.2" style="mix-blend-mode:soft-light"/>
<path d="M9.55556 74C9.55556 74 5 74 5 69.4444V37.5556C5 37.5556 5 33 9.55556 33H25.5C25.5 33 30.0556 33 30.0556 37.5556V69.4444C30.0556 69.4444 30.0556 74 25.5 74H9.55556Z" fill="url(#paint2_linear)"/>
<path d="M7.27777 38.6944H27.7778V68.3055H7.27777V38.6944Z" fill="url(#paint3_linear)"/>
<path d="M38.2727 47.4545C38.2727 47.4545 33 47.4545 33 42.1818V5.27273C33 5.27273 33 0 38.2727 0H56.7273C56.7273 0 62 0 62 5.27273V42.1818C62 42.1818 62 47.4545 56.7273 47.4545H38.2727Z" fill="url(#paint4_linear)"/>
<path d="M35.6364 6.59085H59.3636V40.8636H35.6364V6.59085Z" fill="url(#paint5_linear)"/>
<defs>
<linearGradient id="paint0_linear" x1="35" y1="2" x2="35" y2="72" gradientUnits="userSpaceOnUse">
<stop stop-color="#C0D2F1"/>
<stop offset="1" stop-color="#BCD1F6"/>
</linearGradient>
<linearGradient id="paint1_linear" x1="35" y1="2" x2="35" y2="72" gradientUnits="userSpaceOnUse">
<stop offset="0.328125" stop-color="white"/>
<stop offset="1" stop-opacity="0.1"/>
</linearGradient>
<linearGradient id="paint2_linear" x1="26.5" y1="33" x2="6" y2="75" gradientUnits="userSpaceOnUse">
<stop stop-color="#5C6273"/>
<stop offset="0.260417" stop-color="#959EB6"/>
<stop offset="0.296971" stop-color="#8B95B0"/>
<stop offset="1" stop-color="#131620"/>
</linearGradient>
<linearGradient id="paint3_linear" x1="17.5278" y1="38.6944" x2="17.5278" y2="68.3055" gradientUnits="userSpaceOnUse">
<stop stop-color="#D5FEF1"/>
<stop offset="1" stop-color="#5BB4FF"/>
</linearGradient>
<linearGradient id="paint4_linear" x1="57.8847" y1="-5.40317e-07" x2="34.1574" y2="48.612" gradientUnits="userSpaceOnUse">
<stop stop-color="#5C6273"/>
<stop offset="0.260417" stop-color="#959EB6"/>
<stop offset="0.296971" stop-color="#8B95B0"/>
<stop offset="1" stop-color="#131620"/>
</linearGradient>
<linearGradient id="paint5_linear" x1="47.5" y1="6.59085" x2="47.5" y2="40.8636" gradientUnits="userSpaceOnUse">
<stop stop-color="#D5FEF1"/>
<stop offset="1" stop-color="#5BB4FF"/>
</linearGradient>
</defs>
</svg>
