<?xml version="1.0" encoding="utf-8"?>
<!-- Generator: Adobe Illustrator 23.0.1, SVG Export Plug-In . SVG Version: 6.00 Build 0)  -->
<svg version="1.1" id="Слой_1" xmlns="http://www.w3.org/2000/svg" xmlns:xlink="http://www.w3.org/1999/xlink" x="0px" y="0px"
	 viewBox="0 0 32 32" style="enable-background:new 0 0 32 32;" xml:space="preserve">
<style type="text/css">
	.st0{clip-path:url(#SVGID_2_);fill:#57B36E;}
	.st1{clip-path:url(#SVGID_4_);fill:#57B36E;}
	.st2{fill:#FFFFFF;}
	.st3{fill:#E1EBF0;}
	.st4{fill:#848484;}
	.st5{fill:#CBCBCB;}
	.st6{fill:#E5E5E5;}
	.st7{fill:#444444;}
	.st8{fill:#7B7B7B;}
	.st9{fill:#686868;}
	.st10{fill:#E84C4F;}
</style>
<g>
	<g>
		<g>
			<g>
				<g>
					<g>
						<g>
							<defs>
								<rect id="SVGID_1_" x="2.3" width="27.4" height="32"/>
							</defs>
							<clipPath id="SVGID_2_">
								<use xlink:href="#SVGID_1_"  style="overflow:visible;"/>
							</clipPath>
							<path class="st0" d="M28.2,21.4c-0.9,2.4-2.1,4.4-3.9,6c-1.9,1.9-4.5,3.4-7.6,4.5c-0.1,0.1-0.2,0.1-0.3,0.1
								C16.2,32,16.1,32,16,32h-0.1c-0.2,0-0.3,0-0.5-0.1c-0.1,0-0.2-0.1-0.3-0.1c-3.1-1.1-5.6-2.6-7.6-4.5c-1.7-1.6-3-3.7-3.9-6
								c-1.6-4.2-1.5-8.9-1.4-12.6V8.7c0-0.3,0-0.6,0.1-1C2.4,5.9,3.8,4.4,5.6,4.3c3.7-0.2,6.6-1.4,9-3.8l0,0C15,0.2,15.5,0,16,0
								c0.5,0,1,0.2,1.4,0.5l0,0c2.4,2.4,5.3,3.6,9,3.8c1.8,0.1,3.1,1.6,3.2,3.3c0,0.4,0,0.7,0.1,1l0,0
								C29.6,12.4,29.7,17.1,28.2,21.4L28.2,21.4z"/>
						</g>
					</g>
				</g>
				<g>
					<g>
						<g>
							<defs>
								<rect id="SVGID_3_" x="2.3" width="27.4" height="32"/>
							</defs>
							<clipPath id="SVGID_4_">
								<use xlink:href="#SVGID_3_"  style="overflow:visible;"/>
							</clipPath>
							<path class="st1" d="M28.2,21.4c-0.9,2.4-2.1,4.4-3.9,6c-1.9,1.9-4.5,3.4-7.6,4.5c-0.1,0.1-0.2,0.1-0.3,0.1
								C16.2,32,16.1,32,16,32V0c0.5,0,1,0.2,1.4,0.5l0,0c2.4,2.4,5.3,3.6,9,3.8c1.8,0.1,3.1,1.6,3.2,3.3c0,0.4,0,0.7,0.1,1l0,0
								C29.6,12.4,29.7,17.1,28.2,21.4L28.2,21.4z"/>
						</g>
					</g>
				</g>
			</g>
			<path class="st2" d="M24,16c0,4.4-3.6,8-8,8h-0.1c-4.4,0-8-3.6-8-8s3.6-8,8-8H16C20.4,8,24,11.6,24,16L24,16z"/>
			<path class="st3" d="M24,16c0,4.4-3.6,8-8,8V8C20.4,8,24,11.6,24,16L24,16z"/>
		</g>
	</g>
	<g>
		<g>
			<path class="st4" d="M20.9,15.7c-0.1,0-0.2-0.1-0.2-0.2V15c0-2.6-2.1-4.7-4.7-4.7c-2.6,0-4.7,2.1-4.7,4.7v0.5
				c0,0.1-0.1,0.2-0.2,0.2c-0.1,0-0.2-0.1-0.2-0.2V15c0-2.8,2.3-5.1,5.1-5.1s5.1,2.3,5.1,5.1v0.5C21.1,15.7,21,15.7,20.9,15.7z"/>
			<path class="st4" d="M20.7,18h-0.5c-0.1,0-0.2-0.1-0.2-0.2c0-0.1,0.1-0.2,0.2-0.2h0.5c0.2,0,0.2-0.1,0.2-0.2v-1.1
				c0-0.1,0.1-0.2,0.2-0.2c0.1,0,0.2,0.1,0.2,0.2v1.1C21.3,17.8,21.1,18,20.7,18z"/>
			<path class="st5" d="M14.5,18.2h2.8v2.4h-2.8V18.2z"/>
			<path class="st6" d="M20.2,17.3c0.1-0.2,0.1-0.3,0.1-0.5v-3.4c0-1.1-0.9-2-2-2h-4.4c-1.1,0-2,0.9-2,2v3.5c0,1.1,0.9,2,2,2h4.4
				c0.5,0,1-0.2,1.3-0.5"/>
			<path class="st5" d="M13.3,17.6v1.2c-0.9-0.2-1.6-1-1.6-2v-1.2C12.7,15.8,13.3,16.6,13.3,17.6z"/>
			<path class="st5" d="M20.2,15.7v1.2c0,0.2,0,0.4-0.1,0.5l-0.6,1c-0.2,0.2-0.5,0.4-0.9,0.5v-1.2C18.6,16.6,19.3,15.8,20.2,15.7z"
				/>
			<path class="st2" d="M15.4,14.4c0,0.7-0.5,1.3-1.3,1.3c-0.7,0-1.3-0.5-1.3-1.3c0-0.7,0.5-1.3,1.3-1.3
				C14.8,13.1,15.4,13.7,15.4,14.4z"/>
			<path class="st2" d="M19.2,14.4c0,0.7-0.5,1.3-1.3,1.3s-1.3-0.5-1.3-1.3c0-0.7,0.5-1.3,1.3-1.3S19.2,13.7,19.2,14.4z"/>
			<path class="st7" d="M14.1,14.9c-0.2,0-0.5-0.2-0.5-0.5c0-0.3,0.2-0.5,0.5-0.5c0.2,0,0.5,0.2,0.5,0.5
				C14.6,14.7,14.3,14.9,14.1,14.9z"/>
			<path class="st7" d="M17.9,14.9c-0.2,0-0.5-0.2-0.5-0.5c0-0.3,0.2-0.5,0.5-0.5s0.5,0.2,0.5,0.5C18.4,14.7,18.1,14.9,17.9,14.9z"
				/>
			<path class="st7" d="M12.8,17.9c0,0.3-0.2,0.5-0.5,0.5h-0.2c-0.3,0-0.5-0.2-0.5-0.5s0.2-0.5,0.5-0.5h0.2
				C12.6,17.3,12.8,17.5,12.8,17.9z"/>
			<g>
				<path class="st8" d="M15.2,16.7h0.5v2.1h-0.5V16.7z"/>
				<path class="st8" d="M16.2,16.7h0.5v2.1h-0.5V16.7z"/>
				<path class="st8" d="M17.1,16.8v2.1h0.5v-1.3C17.7,17.1,17.5,16.8,17.1,16.8z"/>
				<path class="st8" d="M14.8,16.8c-0.3,0.1-0.5,0.4-0.5,0.8v1.3h0.5V16.8z"/>
			</g>
			<path class="st9" d="M11.8,14.1v2c0,0.3-0.2,0.5-0.5,0.7c-0.1,0-0.1,0-0.2,0h-0.2c-0.4,0-0.7-0.3-0.7-0.7v-2
				c0-0.4,0.3-0.7,0.7-0.7H11c0.1,0,0.1,0,0.2,0C11.5,13.5,11.8,13.8,11.8,14.1z"/>
			<path class="st8" d="M11.8,14.1v2c0,0.3-0.2,0.5-0.5,0.7c-0.3-0.1-0.5-0.4-0.5-0.7v-2c0-0.3,0.2-0.5,0.5-0.7
				C11.5,13.5,11.8,13.8,11.8,14.1z"/>
			<path class="st9" d="M21.8,14.1v2c0,0.3-0.2,0.5-0.5,0.7c-0.1,0-0.1,0-0.2,0h-0.2c-0.4,0-0.7-0.3-0.7-0.7v-2
				c0-0.4,0.3-0.7,0.7-0.7h0.2c0.1,0,0.1,0,0.2,0C21.6,13.5,21.8,13.8,21.8,14.1z"/>
			<path class="st8" d="M21.8,14.1v2c0,0.3-0.2,0.5-0.5,0.7c-0.3-0.1-0.5-0.4-0.5-0.7v-2c0-0.3,0.2-0.5,0.5-0.7
				C21.6,13.5,21.8,13.8,21.8,14.1z"/>
			<path class="st7" d="M19.9,17.3h0.2c0.3,0,0.5,0.2,0.5,0.5s-0.2,0.5-0.5,0.5h-0.2c-0.3,0-0.5-0.2-0.5-0.5S19.5,17.3,19.9,17.3z"
				/>
			<path class="st4" d="M10.7,17.4v-1.1c0-0.1,0.1-0.2,0.2-0.2c0.1,0,0.2,0.1,0.2,0.2v1.1c0,0.2,0.1,0.2,0.2,0.2h0.5
				c0.1,0,0.2,0.1,0.2,0.2c0,0.1-0.1,0.2-0.2,0.2h-0.5C11,18.1,10.7,17.8,10.7,17.4z"/>
			<path class="st5" d="M20.1,21.3L20.1,21.3l-8.2,0v-0.1c0-0.7,0.5-1.3,1.3-1.3h5.6C19.4,19.9,20.1,20.5,20.1,21.3z"/>
			<path class="st6" d="M20.1,21.3L20.1,21.3l-6.6,0.1v-0.1c0-0.7,0.5-1.3,1.3-1.3h4C19.4,19.9,20.1,20.5,20.1,21.3z"/>
		</g>
	</g>
	<path class="st10" d="M15.9,8.5c-4.1,0-7.4,3.3-7.4,7.4s3.3,7.4,7.4,7.4s7.4-3.3,7.4-7.4S20,8.5,15.9,8.5L15.9,8.5z M15.9,22.4
		c-3.6,0-6.5-2.9-6.5-6.5c0-1.6,0.6-3.1,1.6-4.3l9.2,9.2C19,21.8,17.5,22.4,15.9,22.4L15.9,22.4z M20.8,20.1l-9.2-9.2
		c1.2-1,2.7-1.6,4.3-1.6c3.6,0,6.5,2.9,6.5,6.5C22.5,17.4,21.8,19,20.8,20.1L20.8,20.1z"/>
</g>
</svg>
