<svg width="16" height="17" viewBox="0 0 16 17" fill="none" xmlns="http://www.w3.org/2000/svg">
<g clip-path="url(#clip0)">
<g filter="url(#filter0_b)">
<ellipse cx="8.2807" cy="7.83562" rx="7.38519" ry="7.38786" fill="url(#paint0_linear)"/>
<path d="M15.5339 7.83562C15.5339 11.843 12.2865 15.0915 8.2807 15.0915C4.27492 15.0915 1.02751 11.843 1.02751 7.83562C1.02751 3.82827 4.27492 0.579753 8.2807 0.579753C12.2865 0.579753 15.5339 3.82827 15.5339 7.83562Z" stroke="url(#paint1_linear)" stroke-opacity="0.5" stroke-width="0.263998"/>
</g>
<g filter="url(#filter1_d)">
<path d="M8 0C3.5892 0 0 3.5905 0 8.0029C0 12.4153 3.5892 16.0077 8 16.0077C12.4108 16.0077 16 12.4171 16 8.00475C16 3.59235 12.4108 0 8 0ZM11.447 6.47731L7.44611 10.7863C7.26518 10.9821 7.01777 11.0818 6.76852 11.0818C6.55435 11.0818 6.34203 11.0079 6.16663 10.8602L4.012 9.01319C3.62428 8.68074 3.57997 8.09894 3.9123 7.71108C4.24464 7.32322 4.82622 7.27705 5.21394 7.61135L6.69467 8.88021L10.0919 5.22137C10.439 4.84828 11.0224 4.82612 11.3972 5.17335C11.772 5.52058 11.7923 6.10422 11.447 6.47731Z" fill="url(#paint2_linear)"/>
</g>
</g>
<defs>
<filter id="filter0_b" x="-18.9043" y="-19.3521" width="54.3701" height="54.3754" filterUnits="userSpaceOnUse" color-interpolation-filters="sRGB">
<feFlood flood-opacity="0" result="BackgroundImageFix"/>
<feGaussianBlur in="BackgroundImage" stdDeviation="9.89992"/>
<feComposite in2="SourceAlpha" operator="in" result="effect1_backgroundBlur"/>
<feBlend mode="normal" in="SourceGraphic" in2="effect1_backgroundBlur" result="shape"/>
</filter>
<filter id="filter1_d" x="-10" y="-22" width="48" height="48.0077" filterUnits="userSpaceOnUse" color-interpolation-filters="sRGB">
<feFlood flood-opacity="0" result="BackgroundImageFix"/>
<feColorMatrix in="SourceAlpha" type="matrix" values="0 0 0 0 0 0 0 0 0 0 0 0 0 0 0 0 0 0 127 0"/>
<feOffset dx="6" dy="-6"/>
<feGaussianBlur stdDeviation="8"/>
<feColorMatrix type="matrix" values="0 0 0 0 0.698039 0 0 0 0 0.968627 0 0 0 0 0.388235 0 0 0 0.2 0"/>
<feBlend mode="normal" in2="BackgroundImageFix" result="effect1_dropShadow"/>
<feBlend mode="normal" in="SourceGraphic" in2="effect1_dropShadow" result="shape"/>
</filter>
<linearGradient id="paint0_linear" x1="14.6187" y1="3.11596" x2="-3.78764" y2="0.571787" gradientUnits="userSpaceOnUse">
<stop stop-color="white"/>
<stop offset="1" stop-color="white" stop-opacity="0.61"/>
</linearGradient>
<linearGradient id="paint1_linear" x1="2.4866" y1="5.4043" x2="15.0287" y2="5.47351" gradientUnits="userSpaceOnUse">
<stop stop-color="white"/>
<stop offset="1" stop-color="white" stop-opacity="0"/>
</linearGradient>
<linearGradient id="paint2_linear" x1="16" y1="0" x2="4.7123" y2="13.1952" gradientUnits="userSpaceOnUse">
<stop stop-color="#5AFFCB"/>
<stop offset="1" stop-color="#51B696"/>
</linearGradient>
<clipPath id="clip0">
<rect width="16" height="16.0077" fill="white"/>
</clipPath>
</defs>
</svg>
