<?xml version="1.0" encoding="utf-8"?>
<!-- Generator: Adobe Illustrator 23.0.1, SVG Export Plug-In . SVG Version: 6.00 Build 0)  -->
<svg version="1.1" id="Слой_1" xmlns="http://www.w3.org/2000/svg" xmlns:xlink="http://www.w3.org/1999/xlink" x="0px" y="0px"
	 viewBox="0 0 140 112.8" style="enable-background:new 0 0 140 112.8;" xml:space="preserve">
<style type="text/css">
	.st0{fill:#FFFFFF;}
	.st1{clip-path:url(#SVGID_2_);fill:#57B36E;}
	.st2{clip-path:url(#SVGID_4_);fill:#57B36E;}
	.st3{fill:#E1EBF0;}
	.st4{fill:#848484;}
	.st5{fill:#CBCBCB;}
	.st6{fill:#E5E5E5;}
	.st7{fill:#444444;}
	.st8{fill:#7B7B7B;}
	.st9{fill:#686868;}
	.st10{fill:#E84C4F;}
	.st11{fill:#F5F5F5;}
	.st12{fill:#465A61;}
	.st13{fill:#3B4A51;}
	.st14{opacity:0.8;fill:#556B79;enable-background:new    ;}
	.st15{fill:#556B79;}
	.st16{opacity:0.8;fill:#FBCB18;enable-background:new    ;}
	.st17{fill:#FBCB18;}
	.st18{fill:#57B36E;}
	.st19{fill:#76CE84;}
	.st20{fill:#67C17A;}
	.st21{fill:#DCB115;}
	.st22{fill:#434A54;}
	.st23{fill:#FBBD04;}
	.st24{fill:#438EDC;}
	.st25{fill:#34A952;}
</style>
<g>
	<g>
		<g>
			<rect x="5" y="5" class="st0" width="130" height="102.8"/>
			<path class="st11" d="M130,10v7h-14.4v7.1H130v78.7H70.1H10V24.1h14.3V17H10v-7h60.1H130 M87.5,24.1h21.1V17H87.5V24.1
				 M59.3,24.1h10.8h10.5V17H70.1H59.3V24.1 M31.2,24.1h21.1V17H31.2V24.1 M140,0h-10H70.1H10H0v10v7v10v75.8v10h10h60.1H130h10v-10
				V27V17v-7V0L140,0z"/>
		</g>
		<path class="st12" d="M24.3,17h7v7.1h-7V17z"/>
		<path class="st12" d="M52.3,17h7v7.1h-7L52.3,17z"/>
		<path class="st13" d="M80.5,13.5h7v14.1h-7V13.5z"/>
		<path class="st13" d="M108.6,13.5h7v14.1h-7V13.5z"/>
		<path class="st14" d="M10,10h120v7H10V10z"/>
		<path class="st15" d="M70.1,10H130v7H70.1V10z"/>
		<path class="st16" d="M10,24.1v78.7h120V24.1H10z"/>
		<path class="st17" d="M70.1,24.1H130v78.7H70.1V24.1z"/>
		<g>
			<path class="st15" d="M80.5,73.2h35.2v7H80.5V73.2z"/>
			<path class="st15" d="M80.5,59.1h35.2v7.1H80.5V59.1z"/>
			<path class="st15" d="M80.5,45.2h35.2v7H80.5V45.2z"/>
		</g>
		<path class="st18" d="M73.9,80.2H56.3L42.2,64.6C42.4,64.3,54,41,54.1,40.7L73.9,80.2z"/>
		<path class="st19" d="M40,47.8L23.9,80.2h32.5L40,47.8z"/>
		<path class="st20" d="M56.3,80.2h-11V58.3L56.3,80.2z"/>
	</g>
</g>
</svg>
