<?xml version="1.0" encoding="utf-8"?>
<!-- Generator: Adobe Illustrator 23.0.1, SVG Export Plug-In . SVG Version: 6.00 Build 0)  -->
<svg version="1.1" id="Слой_1" xmlns="http://www.w3.org/2000/svg" xmlns:xlink="http://www.w3.org/1999/xlink" x="0px" y="0px"
	 viewBox="0 0 79.4 79.4" style="enable-background:new 0 0 79.4 79.4;" xml:space="preserve">
<style type="text/css">
	.st0{fill:#E5E5E5;}
	.st1{fill:#4D4D4D;}
</style>
<g>
	<circle class="st0" cx="39.7" cy="39.7" r="39.7"/>
	<g>
		<g>
			<path class="st1" d="M31.9,30.5l-1.8,1.8l-0.4-0.4c-0.3-0.3-0.7-0.3-1,0c-0.3,0.3-0.3,0.7,0,1l0.9,0.9c0.1,0.1,0.3,0.2,0.5,0.2
				s0.4-0.1,0.5-0.2l2.3-2.3c0.3-0.3,0.3-0.7,0-1C32.6,30.2,32.1,30.2,31.9,30.5z"/>
			<path class="st1" d="M35.4,31.7h15.9c0.4,0,0.7-0.3,0.7-0.7c0-0.4-0.3-0.7-0.7-0.7H35.4c-0.4,0-0.7,0.3-0.7,0.7
				C34.7,31.3,35,31.7,35.4,31.7z"/>
			<path class="st1" d="M35.4,34.4h12.5c0.4,0,0.7-0.3,0.7-0.7S48.3,33,47.9,33H35.4c-0.4,0-0.7,0.3-0.7,0.7S35,34.4,35.4,34.4z"/>
			<path class="st1" d="M31.9,37.7l-1.8,1.8l-0.4-0.4c-0.3-0.3-0.7-0.3-1,0c-0.3,0.3-0.3,0.7,0,1l0.9,0.9c0.1,0.1,0.3,0.2,0.5,0.2
				s0.4-0.1,0.5-0.2l2.3-2.3c0.3-0.3,0.3-0.7,0-1C32.6,37.4,32.1,37.4,31.9,37.7z"/>
			<path class="st1" d="M35.4,41.6h12.5c0.4,0,0.7-0.3,0.7-0.7c0-0.4-0.3-0.7-0.7-0.7H35.4c-0.4,0-0.7,0.3-0.7,0.7
				C34.7,41.3,35,41.6,35.4,41.6z"/>
			<path class="st1" d="M31.9,44.9l-1.8,1.8l-0.4-0.4c-0.3-0.3-0.7-0.3-1,0c-0.3,0.3-0.3,0.7,0,1l0.9,0.9c0.1,0.1,0.3,0.2,0.5,0.2
				s0.4-0.1,0.5-0.2l2.3-2.3c0.3-0.3,0.3-0.7,0-1C32.6,44.7,32.1,44.7,31.9,44.9z"/>
			<path class="st1" d="M35.4,46.1h15.9c0.4,0,0.7-0.3,0.7-0.7s-0.3-0.7-0.7-0.7H35.4c-0.4,0-0.7,0.3-0.7,0.7S35,46.1,35.4,46.1z"/>
			<path class="st1" d="M35.4,48.9h12.5c0.4,0,0.7-0.3,0.7-0.7s-0.3-0.7-0.7-0.7H35.4c-0.4,0-0.7,0.3-0.7,0.7S35,48.9,35.4,48.9z"/>
			<path class="st1" d="M66.2,38.8c0-4.1-3.3-7.5-7.5-7.5V20.9c0-1.9-1.6-3.5-3.5-3.5h-12c-0.6-1.2-1.8-2-3.2-2H40
				c-1.4,0-2.6,0.8-3.2,2h-12c-1.9,0-3.5,1.6-3.5,3.5v37.7c0,1.9,1.6,3.5,3.5,3.5h30.4c1.9,0,3.5-1.6,3.5-3.5V46.3
				c1.9,0,3.6-0.7,4.9-1.9c0,0,0.1-0.1,0.1-0.1C65.2,43,66.2,41,66.2,38.8z M64.8,38.8c0,1.5-0.5,2.8-1.4,3.9
				c-0.6-1.1-1.5-2-2.7-2.5c0.4-0.5,0.7-1.2,0.7-1.9v-0.5c0-1.6-1.3-2.8-2.8-2.8c-1.6,0-2.8,1.3-2.8,2.8v0.5c0,0.7,0.3,1.4,0.7,1.9
				c-1.1,0.5-2.1,1.4-2.7,2.5c-0.9-1.1-1.4-2.4-1.4-3.9c0-3.4,2.8-6.2,6.2-6.2S64.8,35.4,64.8,38.8z M54.9,43.7
				c0.6-1.5,2.1-2.5,3.7-2.5s3.1,1,3.7,2.5c-1,0.8-2.3,1.3-3.7,1.3C57.2,44.9,56,44.4,54.9,43.7z M57.2,38.3v-0.5
				c0-0.8,0.7-1.5,1.5-1.5s1.5,0.7,1.5,1.5v0.5c0,0.8-0.7,1.5-1.5,1.5S57.2,39.1,57.2,38.3z M57.3,20.9v10.4
				c-0.7,0.1-1.3,0.3-1.9,0.6V21.5c0-0.4-0.3-0.7-0.7-0.7h-8.4v-1.4c0-0.2,0-0.3-0.1-0.5h9C56.4,18.9,57.3,19.8,57.3,20.9z
				 M37.3,18.9c0.3,0,0.6-0.2,0.7-0.5c0.2-0.9,1.1-1.5,2-1.5h0.1c0.9,0,1.8,0.6,2,1.5c0.1,0.3,0.4,0.5,0.7,0.5h1.6
				c0.3,0,0.5,0.2,0.5,0.5v1.4h-9.7v-1.4c0-0.3,0.2-0.5,0.5-0.5H37.3z M55.3,60.7H24.9c-1.1,0-2.1-0.9-2.1-2.1V20.9
				c0-1.1,0.9-2.1,2.1-2.1h9c0,0.2-0.1,0.3-0.1,0.5v1.4h-8.4c-0.4,0-0.7,0.3-0.7,0.7v36.6c0,0.4,0.3,0.7,0.7,0.7h11.9
				c0.4,0,0.7-0.3,0.7-0.7c0-0.4-0.3-0.7-0.7-0.7H26.1V22.2H54v10.6c-1.4,1.1-2.5,2.8-2.8,4.7H35.4c-0.4,0-0.7,0.3-0.7,0.7
				c0,0.4,0.3,0.7,0.7,0.7h15.7c0,2.2,1,4.1,2.5,5.5c0,0,0.1,0.1,0.1,0.1c0.1,0.1,0.2,0.2,0.3,0.3v12.7H42.8c-0.4,0-0.7,0.3-0.7,0.7
				c0,0.4,0.3,0.7,0.7,0.7h11.9c0.4,0,0.7-0.3,0.7-0.7V45.6c0.6,0.3,1.3,0.5,1.9,0.6v12.4C57.3,59.8,56.4,60.7,55.3,60.7z"/>
			<path class="st1" d="M40.1,19.5c0.2,0,0.4-0.1,0.5-0.2c0.1-0.1,0.2-0.3,0.2-0.5c0-0.2-0.1-0.4-0.2-0.5c-0.1-0.1-0.3-0.2-0.5-0.2
				c-0.2,0-0.4,0.1-0.5,0.2c-0.1,0.1-0.2,0.3-0.2,0.5c0,0.2,0.1,0.4,0.2,0.5C39.7,19.4,39.9,19.5,40.1,19.5z"/>
			<path class="st1" d="M40.1,57.4c-0.2,0-0.4,0.1-0.5,0.2c-0.1,0.1-0.2,0.3-0.2,0.5c0,0.2,0.1,0.4,0.2,0.5c0.1,0.1,0.3,0.2,0.5,0.2
				c0.2,0,0.4-0.1,0.5-0.2c0.1-0.1,0.2-0.3,0.2-0.5c0-0.2-0.1-0.4-0.2-0.5C40.4,57.4,40.3,57.4,40.1,57.4z"/>
		</g>
	</g>
</g>
</svg>
