<?xml version="1.0" encoding="utf-8"?>
<!-- Generator: Adobe Illustrator 23.0.1, SVG Export Plug-In . SVG Version: 6.00 Build 0)  -->
<svg version="1.1" id="Слой_1" xmlns="http://www.w3.org/2000/svg" xmlns:xlink="http://www.w3.org/1999/xlink" x="0px" y="0px"
	 viewBox="0 0 16 17" style="enable-background:new 0 0 16 17;" xml:space="preserve">
<style type="text/css">
	.st0{clip-path:url(#SVGID_2_);}
	.st1{fill:url(#SVGID_3_);}
	.st2{fill:#27C58B;}
</style>
<g>
	<defs>
		<rect id="SVGID_1_" y="0" width="16" height="16"/>
	</defs>
	<clipPath id="SVGID_2_">
		<use xlink:href="#SVGID_1_"  style="overflow:visible;"/>
	</clipPath>
	<g class="st0">
		<g>
			
				<linearGradient id="SVGID_3_" gradientUnits="userSpaceOnUse" x1="13.8597" y1="9.283" x2="-4.5466" y2="11.8272" gradientTransform="matrix(1 0 0 -1 0 17.8898)">
				<stop  offset="0" style="stop-color:#FFFFFF"/>
				<stop  offset="1" style="stop-color:#FFFFFF;stop-opacity:0.61"/>
			</linearGradient>
			<ellipse class="st1" cx="8.3" cy="7.8" rx="7.4" ry="7.4"/>
		</g>
		<g>
			<path class="st2" d="M8,0C3.6,0,0,3.6,0,8s3.6,8,8,8s8-3.6,8-8C16,3.6,12.4,0,8,0z M11.4,6.5l-4,4.3C7.3,11,7,11.1,6.8,11.1
				c-0.2,0-0.4-0.1-0.6-0.2L4,9C3.6,8.7,3.6,8.1,3.9,7.7c0.3-0.4,0.9-0.4,1.3-0.1l1.5,1.3l3.4-3.7c0.3-0.4,0.9-0.4,1.3,0
				C11.8,5.5,11.8,6.1,11.4,6.5z"/>
		</g>
	</g>
</g>
</svg>
