<svg id="Слой_1" data-name="Слой 1" xmlns="http://www.w3.org/2000/svg" viewBox="0 0 125.87 77.44"><defs><style>.cls-1{fill:#455a64;}</style></defs><title>w-ico-04</title><path class="cls-1" d="M93.64,9.85C83.67,9.23,73.48,6,63.35.33a.84.84,0,0,0-.83,0C52.39,6,42.2,9.23,32.23,9.85a.85.85,0,0,0-.79.85V44A25.86,25.86,0,0,0,36.38,59,42.49,42.49,0,0,0,47.13,69.32a66.37,66.37,0,0,0,15.54,7.86,1.27,1.27,0,0,0,.26,0,1.09,1.09,0,0,0,.26,0,66.13,66.13,0,0,0,15.55-7.86A42.49,42.49,0,0,0,89.49,59,25.93,25.93,0,0,0,94.43,44V10.7A.85.85,0,0,0,93.64,9.85Zm-.9,2.47V44c0,9-5,17.07-14.89,23.91a66.61,66.61,0,0,1-14.61,7.5l-.31.11-.3-.11a66.82,66.82,0,0,1-14.54-7.45c-9.93-6.85-15-14.91-15-24V11.49l.82-.08A73,73,0,0,0,62.5,2.27L62.93,2l.44.24a73,73,0,0,0,28.54,9.14l.83.08Z"/><path class="cls-1" d="M68.3,40.77l0-.29.24-.15a10.06,10.06,0,1,0-11.13,0l.24.15,0,.29c-.23,1.52-.48,3-.73,4.54-.51,3-1,6.18-1.33,9.29A1.3,1.3,0,0,0,56.8,56H69.06a1.29,1.29,0,0,0,1-.43,1.31,1.31,0,0,0,.34-1c-.3-3.11-.82-6.25-1.33-9.28C68.78,43.8,68.53,42.28,68.3,40.77Z"/><path class="cls-1" d="M86.71,16.12A79.44,79.44,0,0,1,63.32,8.26a.86.86,0,0,0-.39-.09.85.85,0,0,0-.38.09,79.44,79.44,0,0,1-23.39,7.86.83.83,0,0,0-.71.83V44c0,7.12,4.17,13.65,12.4,19.4a61.11,61.11,0,0,0,11.77,6.31.85.85,0,0,0,.31.06.87.87,0,0,0,.32-.06c1.27-.51,3.26-1.37,5.51-2.54a.85.85,0,0,0,.42-.49.82.82,0,0,0-.06-.65.83.83,0,0,0-.75-.45.92.92,0,0,0-.39.09c-1.52.8-3.11,1.54-4.7,2.2l-.35.15-.35-.15A58.67,58.67,0,0,1,51.82,62c-7.76-5.42-11.69-11.48-11.69-18V17.67l.75-.14a81.25,81.25,0,0,0,21.65-7.37l.4-.2.41.2A81.13,81.13,0,0,0,85,17.53l.74.14V44c0,4.86-2.19,9.49-6.51,13.76a.85.85,0,0,0,.59,1.45.87.87,0,0,0,.6-.24c4.65-4.6,7-9.64,7-15V17A.84.84,0,0,0,86.71,16.12Z"/><path class="cls-1" d="M74.47,61.85a.84.84,0,0,0-.6.25l-.17.17a.84.84,0,0,0-.25.6.86.86,0,0,0,.25.6.83.83,0,0,0,1.19,0l.18-.18a.79.79,0,0,0,.24-.6.83.83,0,0,0-.25-.59A.82.82,0,0,0,74.47,61.85Z"/></svg>