<?xml version="1.0" encoding="iso-8859-1"?>
<!-- Generator: Adobe Illustrator 23.0.1, SVG Export Plug-In . SVG Version: 6.00 Build 0)  -->
<svg version="1.1" id="Capa_1" xmlns="http://www.w3.org/2000/svg" xmlns:xlink="http://www.w3.org/1999/xlink" x="0px" y="0px"
	 viewBox="-49 141 512 512" style="enable-background:new -49 141 512 512;" xml:space="preserve">
<g id="Page-1">
	<g transform="translate(-1)">
		<path id="Shape" style="fill:#FFFFFF;" d="M165.919,439.098c-46.767-46.767-57.327-93.534-59.709-112.271
			c-0.666-5.181,1.117-10.377,4.824-14.057l37.846-37.829c5.567-5.564,6.555-14.235,2.382-20.908l-60.258-93.568
			c-4.617-7.39-14.096-10.057-21.888-6.158l-96.736,45.559c-6.302,3.103-10.008,9.798-9.293,16.786
			c5.069,48.152,26.061,166.523,142.387,282.857s234.679,137.319,282.857,142.387c6.988,0.715,13.683-2.991,16.786-9.293
			l45.559-96.736c3.884-7.776,1.234-17.229-6.125-21.854l-93.568-60.241c-6.67-4.177-15.34-3.196-20.908,2.365l-37.829,37.846
			c-3.681,3.706-8.876,5.489-14.057,4.824C259.453,496.424,212.686,485.865,165.919,439.098L165.919,439.098z"/>
		<path style="fill:#FFFFFF;" d="M351.627,413.898c-9.331,0-16.896-7.564-16.896-16.896
			c-0.079-69.951-56.766-126.638-126.717-126.717c-9.331,0-16.896-7.564-16.896-16.896c0-9.331,7.564-16.896,16.896-16.896
			c88.605,0.098,160.41,71.902,160.508,160.508C368.522,406.334,360.958,413.898,351.627,413.898z"/>
		<path style="fill:#FFFFFF;" d="M436.104,413.898c-9.331,0-16.896-7.564-16.896-16.896
			c-0.13-116.585-94.609-211.064-211.195-211.195c-9.331,0-16.896-7.564-16.896-16.896s7.564-16.896,16.896-16.896
			C343.254,152.166,452.851,261.762,453,397.003c0,4.481-1.78,8.778-4.949,11.947C444.883,412.118,440.585,413.898,436.104,413.898z
			"/>
	</g>
</g>
</svg>
