<?xml version="1.0" encoding="iso-8859-1"?>
<!-- Generator: Adobe Illustrator 23.0.1, SVG Export Plug-In . SVG Version: 6.00 Build 0)  -->
<svg version="1.1" id="Capa_1" xmlns="http://www.w3.org/2000/svg" xmlns:xlink="http://www.w3.org/1999/xlink" x="0px" y="0px"
	 viewBox="-49 141 512 512" style="enable-background:new -49 141 512 512;" xml:space="preserve">
<g>
	<g>
		<path style="fill:#FFFFFF;" d="M430.136,436.298c14.866-125.118-7.14-204.105-46.834-239.831l0.019-0.019
			c-64.062-61.016-280.411-70.043-357.057,2.736c-34.417,35.605-46.541,87.852-47.868,152.541
			c-1.329,64.706-2.91,185.916,110.045,218.798h0.101l-0.101,50.22c0,0-0.771,20.344,12.225,24.434
			c14.865,4.815,21.591-4.632,67.822-59.85c77.305,6.705,136.679-8.657,143.424-10.896
			C327.521,569.196,415.855,557.509,430.136,436.298L430.136,436.298z M176.105,549.998c0,0-48.928,61.01-64.149,76.848
			c-4.982,5.15-10.441,4.673-10.354-5.544c0-6.705,0.37-83.366,0.37-83.366C6.209,510.492,11.861,407.278,12.895,353.282
			c1.038-54.017,10.921-98.257,40.068-128.043c67.24-63.048,256.916-48.953,305.241-3.532
			c59.079,52.379,38.052,200.348,38.179,205.392c-12.144,101.182-83.721,107.598-96.883,111.976
			C293.873,540.946,241.661,554.377,176.105,549.998L176.105,549.998z M176.105,549.998"/>
	</g>
	<path style="fill:#FFFFFF;" d="M203.174,237.094c-7.992,0-7.992,12.453,0,12.559c62.009,0.476,113.075,43.697,113.639,122.974
		c0,8.367,12.244,8.266,12.143-0.101h-0.021C328.271,287.102,272.511,237.571,203.174,237.094L203.174,237.094z M203.174,237.094"/>
	<path style="fill:#FFFFFF;" d="M284.735,359.491c-0.183,8.261,12.042,8.657,12.148,0.288c1.015-47.103-28.026-85.9-82.601-89.99
		c-7.992-0.583-8.824,11.977-0.851,12.559C260.764,285.936,285.693,318.241,284.735,359.491L284.735,359.491z M284.735,359.491"/>
	<path style="fill:#FFFFFF;" d="M271.66,413.066c-10.252-5.935-20.698-2.241-25.016,3.593l-9.026,11.687
		c-4.592,5.935-13.163,5.15-13.163,5.15c-62.571-16.548-79.301-82.023-79.301-82.023s-0.771-8.864,4.961-13.618l11.292-9.34
		c5.646-4.48,9.22-15.276,3.467-25.883c-15.362-27.759-25.68-37.328-30.931-44.676c-5.518-6.913-13.826-8.468-22.461-3.802h-0.188
		c-17.955,10.507-37.616,30.166-31.32,50.409c10.729,21.337,30.449,89.367,93.31,140.763c29.542,24.312,76.29,49.223,96.137,54.974
		l0.188,0.289c19.553,6.517,38.568-13.907,48.721-32.406v-0.141c4.505-8.951,3.01-17.42-3.573-22.964
		C303.088,433.704,285.485,421.144,271.66,413.066L271.66,413.066z M271.66,413.066"/>
	<path style="fill:#FFFFFF;" d="M222.833,316.122c19.948,1.161,29.623,11.586,30.663,32.989c0.375,8.362,12.518,7.785,12.143-0.583
		c-1.327-27.942-15.899-43.511-42.141-44.966C215.505,303.087,214.759,315.646,222.833,316.122L222.833,316.122z M222.833,316.122"
		/>
</g>
</svg>
