<?xml version="1.0" encoding="utf-8"?>
<!-- Generator: Adobe Illustrator 23.0.1, SVG Export Plug-In . SVG Version: 6.00 Build 0)  -->
<svg version="1.1" id="Слой_1" xmlns="http://www.w3.org/2000/svg" xmlns:xlink="http://www.w3.org/1999/xlink" x="0px" y="0px"
	 viewBox="0 0 79.4 79.4" style="enable-background:new 0 0 79.4 79.4;" xml:space="preserve">
<style type="text/css">
	.st0{fill:#E5E5E5;}
	.st1{fill:#4D4D4D;}
</style>
<g>
	<circle class="st0" cx="39.7" cy="39.7" r="39.7"/>
	<g>
		<g>
			<path class="st1" d="M62.4,18.7H17.2c-0.4,0-0.7,0.3-0.7,0.7v28.4c0,0.4,0.3,0.7,0.7,0.7s0.7-0.3,0.7-0.7V27.4h21.3v24.8h-1.7
				c-1.1,0-2.2,0.6-2.8,1.6h-7.4c-0.5,0-0.9,0.1-1.3,0.2h-8v-3.2c0-0.4-0.3-0.7-0.7-0.7s-0.7,0.3-0.7,0.7v3.9c0,0.4,0.3,0.7,0.7,0.7
				H24c-0.5,0.7-0.8,1.5-0.8,2.4c0,0.7,0.6,1.4,1.3,1.4h11.3c1.5,0,3,0.4,4.3,1.1c0.8,0.4,1.6,0.8,2.4,1c0.8,0.2,1.7,0.3,2.6,0.3
				h0.1l1.9,3.5c0.1,0.2,0.3,0.4,0.6,0.4h6.5c0.4,0,0.7-0.3,0.7-0.7S54.8,64,54.4,64h-6.1l-1.5-2.7l9.1-1.7c0,0,0,0,0,0l0.7-0.1
				l2.7,4.5h-2c-0.4,0-0.7,0.3-0.7,0.7s0.3,0.7,0.7,0.7h3.2c0.2,0,0.5-0.1,0.6-0.3c0.1-0.2,0.1-0.5,0-0.7l-3.6-6
				C57.3,58.1,57,58,56.8,58l-0.4,0.1c-0.2-1-0.5-2-1.1-2.8h7.2c0.4,0,0.7-0.3,0.7-0.7V30.4c0-0.4-0.3-0.7-0.7-0.7s-0.7,0.3-0.7,0.7
				V54h-7.8c-1.5-1.2-3.7-1.8-6.5-1.8h-6.9V27.4h21.3v0.1c0,0.4,0.3,0.7,0.7,0.7s0.7-0.3,0.7-0.7v-8.1C63.1,19,62.8,18.7,62.4,18.7z
				 M53.2,55.2C53.2,55.2,53.2,55.2,53.2,55.2c1.1,0.9,1.6,2.1,1.8,3.2l-9.3,1.8h-0.4c-0.8,0-1.5-0.1-2.2-0.3
				c-0.7-0.2-1.4-0.5-2.1-0.8c-1.5-0.9-3.3-1.3-5-1.3H24.6c0-1.4,1.2-2.6,2.6-2.6h6.9c0,0.1,0,0.3,0,0.4c0,0.3,0.1,0.6,0.3,0.8
				c0.2,0.2,0.5,0.3,0.8,0.4c3.8,0.1,6.7,0.5,7.5,1c0.4,0.2,0.8,0.6,1.2,0.9c0.3,0.2,0.7,0.2,1-0.1c0.2-0.3,0.2-0.7-0.1-1
				c-0.4-0.3-0.9-0.7-1.3-1c-1.4-0.8-5.5-1.1-8-1.2c0-0.2,0.1-0.4,0.2-0.6c0.3-0.7,1-1.1,1.8-1.1h10C50.2,53.6,52.1,54.2,53.2,55.2z
				 M17.8,26v-5.9h43.9V26H17.8z"/>
			<path class="st1" d="M21.3,21c-1.1,0-2,0.9-2,2s0.9,2,2,2s2-0.9,2-2S22.5,21,21.3,21z M21.3,23.7c-0.4,0-0.7-0.3-0.7-0.7
				s0.3-0.7,0.7-0.7S22,22.6,22,23S21.7,23.7,21.3,23.7z"/>
			<path class="st1" d="M26.8,21c-1.1,0-2,0.9-2,2s0.9,2,2,2s2-0.9,2-2S27.9,21,26.8,21z M26.8,23.7c-0.4,0-0.7-0.3-0.7-0.7
				s0.3-0.7,0.7-0.7s0.7,0.3,0.7,0.7S27.2,23.7,26.8,23.7z"/>
			<path class="st1" d="M32.3,21c-1.1,0-2,0.9-2,2s0.9,2,2,2c1.1,0,2-0.9,2-2S33.4,21,32.3,21z M32.3,23.7c-0.4,0-0.7-0.3-0.7-0.7
				s0.3-0.7,0.7-0.7S33,22.6,33,23S32.7,23.7,32.3,23.7z"/>
			<path class="st1" d="M58.9,39.3H43.2c-0.4,0-0.7,0.3-0.7,0.7c0,0.4,0.3,0.7,0.7,0.7h15.7c0.4,0,0.7-0.3,0.7-0.7
				C59.6,39.6,59.3,39.3,58.9,39.3z"/>
			<path class="st1" d="M43.2,36.8h7.8c0.4,0,0.7-0.3,0.7-0.7c0-0.4-0.3-0.7-0.7-0.7h-7.8c-0.4,0-0.7,0.3-0.7,0.7
				C42.6,36.5,42.9,36.8,43.2,36.8z"/>
			<path class="st1" d="M58.9,42.5H43.2c-0.4,0-0.7,0.3-0.7,0.7c0,0.4,0.3,0.7,0.7,0.7h15.7c0.4,0,0.7-0.3,0.7-0.7
				C59.6,42.8,59.3,42.5,58.9,42.5z"/>
			<path class="st1" d="M58.9,45.8H43.2c-0.4,0-0.7,0.3-0.7,0.7c0,0.4,0.3,0.7,0.7,0.7h15.7c0.4,0,0.7-0.3,0.7-0.7
				C59.6,46.1,59.3,45.8,58.9,45.8z"/>
			<g>
				<path class="st1" d="M32.2,41.9c-1.3,1.6-2.7,3.3-3.6,4.2l-0.1,0c0,0-1-0.9-1.6-1.6l-1,1c1.2,1.3,2.4,2.2,2.6,2.4
					c0,0,0.1,0,0.1,0s3.1-3.5,4.6-5l0,0c0,0,0,0,0,0L32.2,41.9z"/>
				<path class="st1" d="M28.6,37.1l2.2,0.8c-0.2,0.8-0.4,1.8-0.8,2.5c-0.3,0.6-0.9,1.4-1.4,1.9c-0.5-0.5-1-1.2-1.3-1.8
					c-0.4-0.8-0.7-1.8-0.8-2.6L28.6,37.1 M28.6,35.6L24.8,37c0,0,0.3,2.5,1.2,4.1c0.7,1.5,2.4,3.1,2.6,3.2c0.2-0.1,1.9-1.9,2.7-3.3
					c0.8-1.7,1.1-4,1.1-4L28.6,35.6L28.6,35.6z"/>
				<path class="st1" d="M35,35.2l-6.5-2.7l-6.5,2.7c0,0-0.5,3.8,1.6,7.3c0.4,0.7,0.9,1.4,1.4,2l1-1c-0.5-0.5-0.9-1.1-1.2-1.7
					c-1.2-2-1.4-4.2-1.4-5.4c0.6-0.3,4.7-2,5.2-2.2c0.5,0.2,4.6,1.8,5.2,2.2c0,0.8-0.1,1.9-0.4,3c-0.1,0.4-0.2,0.8-0.4,1.2l0,0v0
					l1.1,1.1C35.4,38.4,35,35.2,35,35.2z"/>
			</g>
		</g>
	</g>
</g>
</svg>
