<svg id="Слой_1" data-name="Слой 1" xmlns="http://www.w3.org/2000/svg" viewBox="0 0 141.46 50"><defs><style>.cls-1{fill:#3d88c8;}.cls-2{fill:#6f6f6e;}.cls-3{fill:#4eb594;}.cls-4{fill:#029e81;}.cls-5{fill:#057baa;}</style></defs><title>logo</title><path class="cls-1" d="M58.57,6.58a3.9,3.9,0,0,1,3.86,2.63,3.73,3.73,0,0,1-1.14,4.56,4.08,4.08,0,0,1,2.45,3.95,4.6,4.6,0,0,1-4.65,4.82H51.81v-16ZM54.18,13h4.3C61,13,61,8.77,58.57,8.77H54.18Zm0,7.37h4.91a2.39,2.39,0,0,0,2.37-2.54,2.4,2.4,0,0,0-2.37-2.55H54.18Z"/><path class="cls-1" d="M68.3,9A7.84,7.84,0,0,1,79.53,9a8.12,8.12,0,0,1,2.28,5.61,8,8,0,0,1-2.28,5.62,7.81,7.81,0,0,1-5.61,2.36,7.69,7.69,0,0,1-5.62-2.36A8.05,8.05,0,0,1,68.3,9ZM78,10.53a5.71,5.71,0,0,0-9.74,4,5.71,5.71,0,1,0,11.41,0A6.49,6.49,0,0,0,78,10.53Z"/><path class="cls-1" d="M88.92,22.63V8.77H84.09V6.58h12V8.77H91.2V22.63Z"/><path class="cls-2" d="M54.27,44H52V28h9.56v2.28H54.27v4.83h6.4v2.19h-6.4Z"/><path class="cls-2" d="M73.22,40h-6.5l-1.57,4H62.69L69.09,28h1.67L77.16,44H74.71ZM67.6,37.81h4.83L70,31.49Z"/><path class="cls-2" d="M95.76,44H93.3l-1.66-1.5c-3.51,2.28-8.16,1.85-10.62-.87a8.21,8.21,0,0,1-2.37-5.62,7.94,7.94,0,0,1,13.6-5.61,8.21,8.21,0,0,1,2.37,5.61A8.11,8.11,0,0,1,93,41l2.72,2.64V44Zm-9.83-6.93h2.72l2.64,2.45A6,6,0,0,0,90.67,32a5.71,5.71,0,0,0-8.07,0,6,6,0,0,0-1.67,4,5.89,5.89,0,0,0,1.67,4,5.82,5.82,0,0,0,7.19.87l-3.94-3.5v-.35Zm0,.35v0Z"/><path class="cls-2" d="M101.72,44V30.18H96.9V28h12v2.2h-4.83V44Z"/><path class="cls-2" d="M113.13,30.35a7.84,7.84,0,0,1,11.23,0A8.12,8.12,0,0,1,126.64,36a8,8,0,0,1-2.28,5.62A7.86,7.86,0,0,1,118.74,44a7.67,7.67,0,0,1-5.61-2.37A8.09,8.09,0,0,1,110.85,36,8.25,8.25,0,0,1,113.13,30.35ZM122.78,32a5.73,5.73,0,1,0,1.66,4A5.47,5.47,0,0,0,122.78,32Z"/><path class="cls-2" d="M132.51,35.88h2.72a2.81,2.81,0,1,0,0-5.62h-3.59V44h-2.28V28h5.87a5,5,0,0,1,5.27,5.09A4.86,4.86,0,0,1,136.37,38L141.46,44h-3l-5.88-7V35.88Z"/><path class="cls-3" d="M33,30.44c-4.21,5.09-8.77,10.61-11.75,13.68-.09,0-.09-.08-.18-.17-1.49-1.32-3.33-3.07-5.26-5.09L12.69,42a93.12,93.12,0,0,0,8.42,7.8.28.28,0,0,0,.18.09s10.26-11.23,15-16.31Z"/><path class="cls-1" d="M21.11,9,8,14.12s1.14,8.69,4,14.48a44.72,44.72,0,0,0,9,11.22c.61-.35,6.75-6.49,9.3-11.57,2.89-5.79,3.77-14.13,3.77-14.13Z"/><path class="cls-1" d="M42.07,8.86,21.11,0,.15,8.86A41.55,41.55,0,0,0,5.23,32.37a46.66,46.66,0,0,0,4.65,6.4L13,35.61a38.26,38.26,0,0,1-3.95-5.52C5.32,23.77,4.53,16.58,4.44,12.54c1.85-1,15.09-6.4,16.67-7,1.49.61,14.82,6,16.67,7a41.24,41.24,0,0,1-2.72,13.78l3.42,3.42A42.05,42.05,0,0,0,42.07,8.86Z"/><path class="cls-4" d="M36.29,33.68,33,30.44c-4.21,5.09-8.77,10.61-11.75,13.68-.09,0,0,5.88,0,5.88S31.46,38.77,36.29,33.68Z"/><path class="cls-5" d="M35.06,26.32l3.42,3.42A42.05,42.05,0,0,0,42.07,8.86L21.11,0V5.53c1.49.61,14.82,6,16.67,7A41.24,41.24,0,0,1,35.06,26.32Z"/><path class="cls-5" d="M34.18,14.12s-.88,8.34-3.77,14.13c-2.55,5.08-8.69,11.22-9.3,11.57V9Z"/></svg>