<?xml version="1.0" encoding="utf-8"?>
<!-- Generator: Adobe Illustrator 23.0.1, SVG Export Plug-In . SVG Version: 6.00 Build 0)  -->
<svg version="1.1" id="Layer_1" xmlns="http://www.w3.org/2000/svg" xmlns:xlink="http://www.w3.org/1999/xlink" x="0px" y="0px"
	 viewBox="0 0 24 20.9" style="enable-background:new 0 0 24 20.9;" xml:space="preserve">
<style type="text/css">
	.st0{fill:#455A64;}
</style>
<g>
	<g>
		<g>
			<path class="st0" d="M3,0C1.3,0,0,1.3,0,3s1.3,3,3,3s3-1.3,3-3S4.6,0,3,0z"/>
		</g>
	</g>
	<g>
		<g>
			<path class="st0" d="M3,7.5c-1.6,0-3,1.3-3,3s1.3,3,3,3s3-1.3,3-3S4.6,7.5,3,7.5z"/>
		</g>
	</g>
	<g>
		<g>
			<path class="st0" d="M3,15c-1.6,0-3,1.3-3,3s1.3,3,3,3s3-1.3,3-3S4.6,15,3,15z"/>
		</g>
	</g>
	<g>
		<g>
			<path class="st0" d="M21.8,0.8H9.7c-1.2,0-2.2,1-2.2,2.2s1,2.2,2.2,2.2h12.1C23,5.2,24,4.2,24,3S23,0.8,21.8,0.8z"/>
		</g>
	</g>
	<g>
		<g>
			<path class="st0" d="M21.8,8.3H9.7c-1.2,0-2.2,1-2.2,2.2s1,2.2,2.2,2.2h12.1c1.2,0,2.2-1,2.2-2.2S23,8.3,21.8,8.3z"/>
		</g>
	</g>
	<g>
		<g>
			<path class="st0" d="M21.8,15.8H9.7c-1.2,0-2.2,1-2.2,2.2s1,2.2,2.2,2.2h12.1c1.2,0,2.2-1,2.2-2.2S23,15.8,21.8,15.8z"/>
		</g>
	</g>
</g>
</svg>
