<?xml version="1.0" encoding="utf-8"?>
<!-- Generator: Adobe Illustrator 23.0.1, SVG Export Plug-In . SVG Version: 6.00 Build 0)  -->
<svg version="1.1" id="Слой_1" xmlns="http://www.w3.org/2000/svg" xmlns:xlink="http://www.w3.org/1999/xlink" x="0px" y="0px"
	 viewBox="0 0 15 17" style="enable-background:new 0 0 15 17;" xml:space="preserve">
<style type="text/css">
	.st0{fill:#FFFFFF;}
</style>
<g>
	<path class="st0" d="M7.4,8.2c1.1,0,2.1-0.4,2.9-1.2c0.8-0.8,1.2-1.8,1.2-2.9c0-1.1-0.4-2.1-1.2-2.9C9.5,0.4,8.5,0,7.4,0
		C6.3,0,5.3,0.4,4.5,1.2S3.3,3,3.3,4.1c0,1.1,0.4,2.1,1.2,2.9C5.3,7.8,6.3,8.2,7.4,8.2z"/>
	<path class="st0" d="M14.6,13.1c0-0.3-0.1-0.7-0.1-1.1c-0.1-0.4-0.2-0.7-0.3-1.1c-0.1-0.3-0.3-0.7-0.4-1C13.5,9.6,13.3,9.3,13,9
		c-0.3-0.3-0.6-0.5-1-0.6c-0.4-0.1-0.8-0.2-1.2-0.2c-0.2,0-0.3,0.1-0.7,0.3C10,8.6,9.8,8.8,9.5,8.9C9.3,9.1,9,9.2,8.6,9.3
		C8.2,9.5,7.9,9.5,7.5,9.5S6.8,9.5,6.4,9.3C6,9.2,5.7,9.1,5.5,8.9C5.2,8.8,5,8.6,4.8,8.5C4.5,8.3,4.3,8.2,4.1,8.2
		c-0.4,0-0.9,0.1-1.2,0.2C2.5,8.6,2.2,8.8,2,9C1.7,9.3,1.5,9.6,1.3,9.9c-0.2,0.3-0.3,0.7-0.4,1c-0.1,0.3-0.2,0.7-0.3,1.1
		c-0.1,0.4-0.1,0.7-0.1,1.1c0,0.3,0,0.7,0,1c0,0.9,0.3,1.6,0.8,2.1C1.8,16.7,2.5,17,3.4,17h8.2c0.9,0,1.6-0.3,2.2-0.8
		c0.6-0.5,0.8-1.2,0.8-2.1C14.6,13.7,14.6,13.4,14.6,13.1z"/>
</g>
</svg>
