<?xml version="1.0" encoding="utf-8"?>
<!-- Generator: Adobe Illustrator 23.0.1, SVG Export Plug-In . SVG Version: 6.00 Build 0)  -->
<svg version="1.1" id="Слой_1" xmlns="http://www.w3.org/2000/svg" xmlns:xlink="http://www.w3.org/1999/xlink" x="0px" y="0px"
	 viewBox="0 0 80 80" style="enable-background:new 0 0 80 80;" xml:space="preserve">
<style type="text/css">
	.st0{fill:#455A64;}
</style>
<g>
	<path class="st0" d="M62.9,47.5l-0.4-0.4l0.5-0.2l16.3-8.1c0.4-0.3,0.7-0.7,0.7-1.2c0-0.5-0.3-0.8-0.9-1l-26.4-8.2
		c-0.1,0-0.2,0-0.3,0c-0.5,0-1,0.3-1.1,0.8c-0.2,0.6,0.2,1.3,0.7,1.4l22.7,7.1l1,0.3l-0.9,0.4l-14.7,7.3c-0.3,0.2-0.6,0.5-0.7,0.9
		c-0.1,0.3,0.1,0.7,0.3,1l17.1,17.1l0.3,0.3l-0.3,0.3L65.2,76.8l-0.3,0.3l-0.3-0.3L47.6,59.7c-0.2-0.2-0.6-0.4-0.8-0.4
		c-0.1,0-0.1,0-0.2,0c-0.4,0.1-0.7,0.4-0.9,0.7l-7.3,14.7L38,75.7l-0.3-1l-16.5-53l-0.2-0.7l0.7,0.2L40,26.9c0.1,0,0.2,0,0.3,0
		c0.5,0,1-0.3,1.1-0.8c0.1-0.3,0-0.6-0.1-0.9c-0.1-0.3-0.4-0.5-0.6-0.6l-21.2-6.6C19.4,18,19.3,18,19.2,18c-0.3,0-0.6,0.2-0.9,0.3
		c-0.3,0.3-0.4,0.7-0.2,1.1l18.4,59.7c0.2,0.4,0.6,0.8,1,0.9h0.1c0.4,0,0.8-0.3,1-0.7L46.7,63l0.3-0.5l0.4,0.4L64,79.5
		c0.2,0.2,0.5,0.3,0.8,0.3c0.3,0,0.7-0.1,0.9-0.3l13.7-13.7c0.4-0.4,0.4-1.2,0-1.7L62.9,47.5z"/>
	<path class="st0" d="M7.3,5.6C7.1,5.4,6.8,5.3,6.5,5.3c-0.3,0-0.6,0.1-0.9,0.3c-0.4,0.5-0.4,1.3,0,1.7l4,4c0.2,0.2,0.5,0.3,0.9,0.3
		c0.4,0,0.6-0.1,0.9-0.3c0.4-0.4,0.4-1.2,0-1.7L7.3,5.6z"/>
	<path class="st0" d="M27.8,11.6c0.4,0,0.6-0.1,0.9-0.3l4-4c0.4-0.4,0.4-1.2,0-1.7c-0.2-0.2-0.5-0.3-0.8-0.3c-0.3,0-0.7,0.1-0.9,0.3
		l-4,4c-0.4,0.4-0.4,1.2,0,1.7C27.2,11.5,27.4,11.6,27.8,11.6z"/>
	<path class="st0" d="M10.5,26.6c-0.3,0-0.6,0.1-0.8,0.4l-4.1,4c-0.4,0.4-0.4,1.2,0,1.7C5.8,32.9,6,33,6.4,33c0.4,0,0.6-0.1,0.9-0.3
		l4-4c0.4-0.4,0.4-1.2,0-1.7C11,26.7,10.8,26.6,10.5,26.6z"/>
	<path class="st0" d="M19.2,8.1c0.7,0,1.2-0.5,1.2-1.2V1.2c0-0.7-0.5-1.2-1.2-1.2C18.5,0,18,0.5,18,1.2v5.7
		C18,7.6,18.5,8.1,19.2,8.1z"/>
	<path class="st0" d="M8.1,19.2c0-0.7-0.5-1.2-1.2-1.2H1.2C0.5,18,0,18.5,0,19.2c0,0.7,0.5,1.2,1.2,1.2h5.7
		C7.6,20.4,8.1,19.7,8.1,19.2z"/>
	<path class="st0" d="M46.5,28.8c0.5,0,0.9-0.4,1.1-0.9c0.2-0.5-0.1-1-0.5-1.2c-0.2-0.1-0.5-0.2-0.7-0.2c-0.2,0-0.5,0.1-0.7,0.2
		c-0.4,0.2-0.7,0.8-0.4,1.3C45.4,28.4,46,28.8,46.5,28.8z"/>
</g>
</svg>
