<svg id="Слой_1" data-name="Слой 1" xmlns="http://www.w3.org/2000/svg" viewBox="0 0 96.66 77"><defs><style>.cls-1{fill:#fff;}.cls-2{fill:#475b62;}.cls-3{fill:#3b4b52;}.cls-4,.cls-5{fill:#566c7a;}.cls-4,.cls-6{opacity:0.8;isolation:isolate;}.cls-6,.cls-7{fill:#fbcb19;}.cls-8{fill:#58b46f;}.cls-9{fill:#7dc083;}.cls-10{fill:#6cba7a;}</style></defs><title>project-ico-1</title><polygon class="cls-1" points="90.53 1 48.39 1 6.13 1 1.25 1 1.25 5.87 1.25 10.77 1.25 15.64 1.25 15.79 1.25 71.13 1.25 76 6.13 76 48.39 76 90.53 76 95.4 76 95.4 71.13 95.4 15.79 95.4 15.64 95.4 10.77 95.4 5.87 95.4 1 90.53 1"/><path class="cls-2" d="M16.16,10.77h4.91v5H16.16Z"/><path class="cls-2" d="M35.89,10.77H40.8v5H35.89Z"/><path class="cls-3" d="M55.74,8.32h4.9v9.93h-4.9Z"/><path class="cls-3" d="M75.47,8.32h4.9v9.93h-4.9Z"/><path class="cls-4" d="M6.12,5.87H90.53v4.9H6.12Z"/><path class="cls-5" d="M48.38,5.87H90.53v4.9H48.38Z"/><path class="cls-6" d="M6.12,15.79V71.13H90.53V15.79Z"/><path class="cls-7" d="M48.38,15.79H90.53V71.13H48.38Z"/><path class="cls-5" d="M55.74,50.35H80.49v4.9H55.74Z"/><path class="cls-5" d="M55.74,40.43H80.49v5H55.74Z"/><path class="cls-5" d="M55.74,30.62H80.49v4.9H55.74Z"/><path class="cls-8" d="M51.07,55.25H38.69l-9.92-11,8.41-16.81Z"/><path class="cls-9" d="M27.25,32.49,15.93,55.25H38.81Z"/><path class="cls-10" d="M38.69,55.25H31V39.84Z"/></svg>