<svg id="Слой_1" data-name="Слой 1" xmlns="http://www.w3.org/2000/svg" viewBox="0 0 96.66 77"><defs><style>.cls-1{fill:#fff;}.cls-2{fill:#fabd09;}.cls-3{fill:#4a8bca;}.cls-4{fill:#34aa53;}</style></defs><title>project-ico-3</title><path class="cls-1" d="M86.8,51.77,64.64,13.38A14.9,14.9,0,0,0,61.2,7.51,14.93,14.93,0,0,0,48.81,1a15.52,15.52,0,0,0-3,.31,14.77,14.77,0,0,0-8.66,4.38A15.12,15.12,0,0,0,31.83,14L11.73,48.86A16.81,16.81,0,0,0,9.93,52l-.07.12A15,15,0,0,0,15.41,72.5L18,74l0,0,0,0a15,15,0,0,0,20-5,16.46,16.46,0,0,0,2.55-4.38l7.83-13.56,9.82,17a15,15,0,0,0,13,7.53,14.85,14.85,0,0,0,7.36-2h0l0,0,2.55-1.51A15,15,0,0,0,86.8,51.77Z"/><path class="cls-2" d="M52.93,7.37l2.58,1.52A10.35,10.35,0,0,1,59.37,23L34.42,66.17a10.34,10.34,0,0,1-14,3.87l-2.58-1.53a10.34,10.34,0,0,1-3.87-14.05L38.87,11.11A10,10,0,0,1,52.93,7.37Z"/><path class="cls-3" d="M41.22,8.54,43.79,7a10.35,10.35,0,0,1,14.06,3.87L82.8,54.1a10.35,10.35,0,0,1-3.86,14.06l-2.58,1.52A10.35,10.35,0,0,1,62.3,65.82L37.35,22.71A10.62,10.62,0,0,1,41.22,8.54Z"/><circle class="cls-4" cx="25.17" cy="58.67" r="11.95"/></svg>