<svg id="Слой_1" data-name="Слой 1" xmlns="http://www.w3.org/2000/svg" viewBox="0 0 96.66 77"><defs><style>.cls-1{fill:#fff;}.cls-2{fill:#fbcb19;}.cls-3{fill:#dcb216;}.cls-4{fill:#444b55;}</style></defs><title>project-ico-2</title><path class="cls-1" d="M87.09,65.23c-1.79-4.93-3.38-10-4.91-14.9-.23-.72-.45-1.42-.67-2.13V1H7.27V76H47.2V60.26H61.69c.89,2.86,1.81,5.6,2.75,8.19l1.13,3.1H89.39Z"/><path class="cls-2" d="M63,48.92H59.53v6.62H46.94V48.92H42.49V71.29H29.89V48.92H25.44V71.29H12V5.71H76.8V48.92Z"/><path class="cls-3" d="M63.33,48.92H76.8c1.84,5.86,3.69,11.94,5.86,17.92H68.87C66.7,60.86,64.85,54.68,63.33,48.92Z"/><rect class="cls-4" x="28.92" y="16.79" width="29.31" height="5.75"/><rect class="cls-4" x="28.92" y="29.81" width="29.31" height="5.75"/></svg>