<svg id="Слой_1" data-name="Слой 1" xmlns="http://www.w3.org/2000/svg" viewBox="0 0 125.87 77.44"><defs><style>.cls-1{fill:#455a64;}</style></defs><title>w-ico-01</title><path class="cls-1" d="M55.5,65.42a1,1,0,0,0,.4.09,1,1,0,0,0,.94-.62L70.9,32.09a1.05,1.05,0,0,0,0-.78,1,1,0,0,0-.55-.56,1.1,1.1,0,0,0-.4-.08,1,1,0,0,0-.93.62L55,64.09a1,1,0,0,0,0,.78A1,1,0,0,0,55.5,65.42Z"/><path class="cls-1" d="M48.24,58.25a1,1,0,0,0,.64.23,1,1,0,0,0,.79-.38,1,1,0,0,0,.22-.75,1,1,0,0,0-.38-.68l-9.42-7.55-1.3-1,1.3-1,9.42-7.54a1,1,0,0,0,.38-.68,1,1,0,0,0-1-1.13,1,1,0,0,0-.64.22L36.53,47.29a1,1,0,0,0-.38.8,1,1,0,0,0,.38.79Z"/><path class="cls-1" d="M77,58.48a1,1,0,0,0,.63-.23l11.72-9.37a1,1,0,0,0,.38-.79,1,1,0,0,0-.38-.8L77.63,37.92A1.06,1.06,0,0,0,77,37.7a1,1,0,0,0-.8.38,1,1,0,0,0,.16,1.43l9.43,7.54,1.29,1-1.29,1-9.43,7.54a1,1,0,0,0-.37.69,1,1,0,0,0,.21.75A1,1,0,0,0,77,58.48Z"/><path class="cls-1" d="M95.89.22H30a5.71,5.71,0,0,0-5.7,5.7v65.6a5.71,5.71,0,0,0,5.7,5.7H95.89a5.71,5.71,0,0,0,5.7-5.7V5.92A5.71,5.71,0,0,0,95.89.22ZM77,9.59H91.05a1,1,0,0,1,0,2H77a1,1,0,1,1,0-2Zm-23.43,0a1,1,0,1,1,0,2,1,1,0,0,1,0-2Zm-9.37,0a1,1,0,1,1-1,1A1,1,0,0,1,44.19,9.59Zm-9.37,0a1,1,0,1,1-1,1A1,1,0,0,1,34.82,9.59ZM99.55,22.32v49.2a3.66,3.66,0,0,1-3.66,3.66H30a3.67,3.67,0,0,1-3.67-3.66V21H99.55Z"/></svg>