<?xml version="1.0" encoding="utf-8"?>
<!-- Generator: Adobe Illustrator 23.0.1, SVG Export Plug-In . SVG Version: 6.00 Build 0)  -->
<svg version="1.1" id="Слой_1" xmlns="http://www.w3.org/2000/svg" xmlns:xlink="http://www.w3.org/1999/xlink" x="0px" y="0px"
	 viewBox="0 0 32 32" style="enable-background:new 0 0 32 32;" xml:space="preserve">
<style type="text/css">
	.st0{fill:#1A4A7F;}
	.st1{fill-rule:evenodd;clip-rule:evenodd;fill:url(#SVGID_1_);}
</style>
<g>
	<path class="st0" d="M0,16C0,7.2,7.2,0,16,0s16,7.2,16,16s-7.2,16-16,16S0,24.8,0,16z"/>
	
		<linearGradient id="SVGID_1_" gradientUnits="userSpaceOnUse" x1="37.2224" y1="32.0732" x2="-17.5535" y2="-18.1908" gradientTransform="matrix(1 0 0 -1 0 31.8898)">
		<stop  offset="0" style="stop-color:#FFB800"/>
		<stop  offset="1" style="stop-color:#FFF11D"/>
	</linearGradient>
	<path class="st1" d="M13.4,31.8c-3.2-0.5-6.2-2-8.5-4.3l14.4-13.2l-8.2,2c-2.3,0.6-4.6-0.8-5.1-3.1c0,0,0,0,0-0.1
		c-0.5-2.3,0.9-4.6,3.2-5.2l17.2-4.2c6.8,5.7,7.7,15.8,2,22.5c-1.6,1.9-3.6,3.4-5.9,4.4c0-0.6,0-1.2,0.2-1.7l2.7-8.1
		C25.3,20.8,13.4,31.8,13.4,31.8z"/>
</g>
</svg>
