<svg xmlns="http://www.w3.org/2000/svg" viewBox="-49 141 512 512"><path d="M207 141C65.516 141-49 255.496-49 397c0 44.902 11.711 88.758 33.949 127.438l-32.984 102.43a19.996 19.996 0 004.895 20.273 20.003 20.003 0 0020.273 4.895l102.43-32.984C118.242 641.289 162.098 653 207 653c141.484 0 256-114.496 256-256 0-141.484-114.496-256-256-256zm0 472c-40.559 0-80.094-11.316-114.332-32.727a20.013 20.013 0 00-16.734-2.078L1.992 602.008l23.813-73.941a20.013 20.013 0 00-2.082-16.734C2.316 477.094-9 437.559-9 397c0-119.102 96.898-216 216-216s216 96.898 216 216-96.898 216-216 216zm25-216c0 13.805-11.191 25-25 25s-25-11.195-25-25c0-13.809 11.191-25 25-25s25 11.191 25 25zm100 0c0 13.805-11.191 25-25 25s-25-11.195-25-25c0-13.809 11.191-25 25-25s25 11.191 25 25zm-200 0c0 13.805-11.191 25-25 25-13.805 0-25-11.195-25-25 0-13.809 11.195-25 25-25 13.809 0 25 11.191 25 25z" fill="#fff"/></svg>