<svg xmlns="http://www.w3.org/2000/svg" viewBox="-49 141 512 512"><g fill="#fff"><path d="M164.919 439.098c-46.767-46.767-57.327-93.534-59.709-112.271a16.79 16.79 0 014.824-14.057l37.846-37.829a16.895 16.895 0 002.382-20.908l-60.258-93.568c-4.617-7.39-14.096-10.057-21.888-6.158l-96.736 45.559a16.803 16.803 0 00-9.293 16.786c5.069 48.152 26.061 166.523 142.387 282.857s234.679 137.319 282.857 142.387a16.803 16.803 0 0016.786-9.293l45.559-96.736c3.884-7.776 1.234-17.229-6.125-21.854l-93.568-60.241a16.896 16.896 0 00-20.908 2.365l-37.829 37.846a16.798 16.798 0 01-14.057 4.824c-18.736-2.383-65.503-12.942-112.27-59.709z"/><path d="M350.627 413.898c-9.331 0-16.896-7.564-16.896-16.896-.079-69.951-56.766-126.638-126.717-126.717-9.331 0-16.896-7.564-16.896-16.896 0-9.331 7.564-16.896 16.896-16.896 88.605.098 160.41 71.902 160.508 160.508 0 9.333-7.564 16.897-16.895 16.897z"/><path d="M435.104 413.898c-9.331 0-16.896-7.564-16.896-16.896-.13-116.585-94.609-211.064-211.195-211.195-9.331 0-16.896-7.564-16.896-16.896s7.564-16.896 16.896-16.896c135.241.151 244.838 109.747 244.987 244.988a16.895 16.895 0 01-16.896 16.895z"/></g></svg>