<svg xmlns="http://www.w3.org/2000/svg" viewBox="-49 141 512 512"><path d="M430.136 436.298c14.866-125.118-7.14-204.105-46.834-239.831l.019-.019c-64.062-61.016-280.411-70.043-357.057 2.736-34.417 35.605-46.541 87.852-47.868 152.541-1.329 64.706-2.91 185.916 110.045 218.798h.101l-.101 50.22s-.771 20.344 12.225 24.434c14.865 4.815 21.591-4.632 67.822-59.85 77.305 6.705 136.679-8.657 143.424-10.896 15.609-5.235 103.943-16.922 118.224-138.133zm-254.031 113.7s-48.928 61.01-64.149 76.848c-4.982 5.15-10.441 4.673-10.354-5.544 0-6.705.37-83.366.37-83.366-95.763-27.444-90.111-130.658-89.077-184.654 1.038-54.017 10.921-98.257 40.068-128.043 67.24-63.048 256.916-48.953 305.241-3.532 59.079 52.379 38.052 200.348 38.179 205.392-12.144 101.182-83.721 107.598-96.883 111.976-5.627 1.871-57.839 15.302-123.395 10.923zm0 0" fill="#fff"/><path d="M203.174 237.094c-7.992 0-7.992 12.453 0 12.559 62.009.476 113.075 43.697 113.639 122.974 0 8.367 12.244 8.266 12.143-.101h-.021c-.664-85.424-56.424-134.955-125.761-135.432zm0 0" fill="#fff"/><path d="M284.735 359.491c-.183 8.261 12.042 8.657 12.148.288 1.015-47.103-28.026-85.9-82.601-89.99-7.992-.583-8.824 11.977-.851 12.559 47.333 3.588 72.262 35.893 71.304 77.143zm-13.075 53.575c-10.252-5.935-20.698-2.241-25.016 3.593l-9.026 11.687c-4.592 5.935-13.163 5.15-13.163 5.15-62.571-16.548-79.301-82.023-79.301-82.023s-.771-8.864 4.961-13.618l11.292-9.34c5.646-4.48 9.22-15.276 3.467-25.883-15.362-27.759-25.68-37.328-30.931-44.676-5.518-6.913-13.826-8.468-22.461-3.802h-.188c-17.955 10.507-37.616 30.166-31.32 50.409 10.729 21.337 30.449 89.367 93.31 140.763 29.542 24.312 76.29 49.223 96.137 54.974l.188.289c19.553 6.517 38.568-13.907 48.721-32.406v-.141c4.505-8.951 3.01-17.42-3.573-22.964-11.669-11.374-29.272-23.934-43.097-32.012zm0 0" fill="#fff"/><path d="M222.833 316.122c19.948 1.161 29.623 11.586 30.663 32.989.375 8.362 12.518 7.785 12.143-.583-1.327-27.942-15.899-43.511-42.141-44.966-7.993-.475-8.739 12.084-.665 12.56zm0 0" fill="#fff"/></svg>