<svg xmlns="http://www.w3.org/2000/svg" viewBox="-49 141 512 512"><path d="M207.063 145h-.126C67.99 145-45 258.022-45 397c0 55.125 17.766 106.218 47.974 147.703l-31.406 93.618 96.863-30.965C108.279 633.754 155.813 649 207.063 649 346.009 649 459 535.947 459 397S346.009 145 207.063 145zm146.632 355.855c-6.079 17.168-30.208 31.405-49.455 35.564-13.167 2.803-30.366 5.04-88.263-18.963C141.921 486.775 94.23 411.522 90.513 406.639c-3.559-4.882-29.925-39.847-29.925-76.009s18.364-53.77 25.767-61.331c6.079-6.206 16.128-9.04 25.767-9.04 3.118 0 5.922.158 8.442.284 7.403.315 11.119.756 16.002 12.443 6.079 14.647 20.885 50.809 22.648 54.526 1.796 3.717 3.591 8.757 1.071 13.64-2.362 5.04-4.441 7.276-8.158 11.56-3.717 4.284-7.245 7.56-10.962 12.159-3.402 4-7.245 8.285-2.961 15.687 4.284 7.245 19.089 31.406 40.887 50.81 28.13 25.043 50.936 33.043 59.094 36.445 6.079 2.52 13.325 1.921 17.766-2.803 5.639-6.079 12.6-16.16 19.687-26.082 5.04-7.119 11.403-8.001 18.081-5.481 6.804 2.362 42.809 20.16 50.211 23.845 7.402 3.717 12.285 5.481 14.08 8.599 1.765 3.118 1.765 17.766-4.315 34.964z" fill="#fff"/></svg>