<svg width="31" height="23" viewBox="0 0 31 23" fill="none" xmlns="http://www.w3.org/2000/svg">
<path fill-rule="evenodd" clip-rule="evenodd" d="M31 11.5C31 11.1022 30.842 10.7206 30.5607 10.4393C30.2794 10.158 29.8978 10 29.5 10H1.5C1.10218 10 0.720644 10.158 0.43934 10.4393C0.158035 10.7206 0 11.1022 0 11.5C0 11.8978 0.158035 12.2794 0.43934 12.5607C0.720644 12.842 1.10218 13 1.5 13H29.5C29.8978 13 30.2794 12.842 30.5607 12.5607C30.842 12.2794 31 11.8978 31 11.5ZM31 1.5C31 1.10218 30.842 0.720644 30.5607 0.43934C30.2794 0.158035 29.8978 0 29.5 0H1.5C1.10218 0 0.720644 0.158035 0.43934 0.43934C0.158035 0.720644 0 1.10218 0 1.5C0 1.89782 0.158035 2.27936 0.43934 2.56066C0.720644 2.84196 1.10218 3 1.5 3H29.5C29.8978 3 30.2794 2.84196 30.5607 2.56066C30.842 2.27936 31 1.89782 31 1.5ZM31 21.5C31 21.1022 30.842 20.7206 30.5607 20.4393C30.2794 20.158 29.8978 20 29.5 20H1.5C1.10218 20 0.720644 20.158 0.43934 20.4393C0.158035 20.7206 0 21.1022 0 21.5C0 21.8978 0.158035 22.2794 0.43934 22.5607C0.720644 22.842 1.10218 23 1.5 23H29.5C29.8978 23 30.2794 22.842 30.5607 22.5607C30.842 22.2794 31 21.8978 31 21.5Z" fill="black"/>
</svg>
