<svg width="11" height="8" viewBox="0 0 11 8" fill="none" xmlns="http://www.w3.org/2000/svg">
<path d="M0.2713 0.793894C0.0904331 0.989823 0 1.23919 0 1.54199C0 1.84478 0.0904331 2.09415 0.2713 2.29008L4.80942 7.20611C4.90807 7.31298 5.01495 7.3885 5.13004 7.43267C5.24514 7.47685 5.36846 7.49929 5.5 7.5C5.63154 7.5 5.75913 7.47328 5.88278 7.41985C6.00643 7.36641 6.10903 7.29517 6.19058 7.20611L10.7287 2.29008C10.9096 2.09415 11 1.84478 11 1.54199C11 1.23919 10.9096 0.989823 10.7287 0.793894C10.5478 0.597965 10.3176 0.5 10.0381 0.5C9.75859 0.5 9.5284 0.597965 9.34753 0.793894L5.5 4.96183L1.65247 0.793894C1.4716 0.597965 1.2414 0.5 0.961883 0.5C0.682362 0.5 0.452167 0.597965 0.2713 0.793894Z" fill="#111111"/>
</svg>
