<svg width="24" height="24" viewBox="0 0 24 24" fill="none" xmlns="http://www.w3.org/2000/svg">
<path d="M12 0C5.4 0 0 5.4 0 12C0 18.6 5.4 24 12 24C18.6 24 24 18.6 24 12C24 5.4 18.6 0 12 0ZM18.9 17.3H16.8C16.8 17.3 16.3 17.4 15.8 17C15 16.5 14.3 15.1 13.7 15.2C13 15.4 13 16.7 13 16.7C13 16.7 13 17 12.9 17.1C12.8 17.3 12.5 17.3 12.5 17.3H11.6C11.6 17.3 9.5 17.4 7.7 15.5C5.7 13.4 3.9 9.3 3.9 9.3C3.9 9.3 3.8 9 3.9 8.9C4 8.7 4.4 8.7 4.4 8.7H6.7C6.7 8.7 6.9 8.7 7.1 8.8C7.2 8.9 7.3 9.1 7.3 9.1C7.3 9.1 7.5 10 8 10.9C8.9 12.5 9.4 12.9 9.7 12.7C10.2 12.4 10 10.4 10 10.4C10 10.4 10 9.7 9.8 9.3C9.6 9.1 9.3 9 9.1 9C9 8.9 9.2 8.6 9.4 8.5C9.8 8.3 10.5 8.3 11.4 8.3C12.1 8.3 12.2 8.3 12.5 8.4C13.3 8.6 13 9.3 13 11C13 11.6 12.9 12.3 13.3 12.6C13.5 12.7 13.9 12.6 14.9 10.8C15.5 10 15.9 9 15.9 9C15.9 9 16 8.8 16.1 8.7C16.2 8.6 16.4 8.6 16.4 8.6H18.8C18.8 8.6 19.5 8.5 19.6 8.8C19.7 9.1 19.3 9.9 18.4 11.2C16.8 13.3 16.6 13.1 18 14.3C19.3 15.5 19.5 16 19.6 16.1C20 17.2 18.9 17.3 18.9 17.3Z" fill="#111111"/>
</svg>
