<?xml version="1.0" encoding="utf-8"?>
<!-- Generator: Adobe Illustrator 23.0.1, SVG Export Plug-In . SVG Version: 6.00 Build 0)  -->
<svg version="1.1" id="Слой_1" xmlns="http://www.w3.org/2000/svg" xmlns:xlink="http://www.w3.org/1999/xlink" x="0px" y="0px"
	 viewBox="0 0 107.7 107.7" style="enable-background:new 0 0 107.7 107.7;" xml:space="preserve">
<style type="text/css">
	.st0{opacity:0.2;fill:#929292;}
	.st1{fill:#3D88C8;}
	.st2{opacity:0.2;fill:#6C6C6C;}
	.st3{fill:#057BAA;}
</style>
<g>
	<g>
		<g>
			<path class="st0" d="M77.9,64.8c-8.5,10.2-17.7,21.4-23.7,27.6c-0.2,0-0.2-0.2-0.4-0.4c-3-2.6-6.7-6.2-10.6-10.2l-6.4,6.4
				c7.9,8.3,15.4,14.5,17,15.7c0.2,0.2,0.4,0.2,0.4,0.2s20.7-22.6,30.2-32.9L77.9,64.8z"/>
			<path class="st1" d="M53.8,21.7L27.5,32c0,0,2.3,17.5,8.1,29.1c5.1,10.2,17,21.9,18.2,22.6c1.2-0.7,13.6-13.1,18.7-23.3
				C78.4,48.7,80.2,32,80.2,32L53.8,21.7z"/>
			<path class="st1" d="M96.1,21.4L53.8,3.5L11.6,21.4c0,0-3,24.6,10.2,47.3c2.6,4.4,5.8,8.8,9.4,12.9l6.4-6.4
				c-3-3.5-5.8-7.4-7.9-11.1c-7.6-12.7-9.2-27.2-9.4-35.3c3.7-2.1,30.4-12.9,33.6-14.1c3,1.2,29.8,12,33.6,14.1
				c-0.2,6.5-1.2,17.1-5.5,27.7l6.9,6.9C98.7,42.2,96.1,21.4,96.1,21.4z"/>
			<path class="st2" d="M84.4,71.3l-6.5-6.5c-8.5,10.2-17.7,21.4-23.7,27.6c-0.2,0,0,11.8,0,11.8S74.7,81.6,84.4,71.3z"/>
			<path class="st3" d="M81.9,56.5l6.9,6.9c9.9-21.2,7.2-42,7.2-42L53.8,3.5v11.1c3,1.2,29.8,12,33.6,14.1
				C87.2,35.3,86.2,45.9,81.9,56.5z"/>
			<path class="st3" d="M80.2,32c0,0-1.8,16.8-7.6,28.4C67.4,70.6,55.1,83,53.8,83.7v-62L80.2,32z"/>
		</g>
	</g>
</g>
</svg>
