<?xml version="1.0" encoding="utf-8"?>
<!-- Generator: Adobe Illustrator 23.0.1, SVG Export Plug-In . SVG Version: 6.00 Build 0)  -->
<svg version="1.1" id="Слой_1" xmlns="http://www.w3.org/2000/svg" xmlns:xlink="http://www.w3.org/1999/xlink" x="0px" y="0px"
	 viewBox="0 0 76.9 64.1" style="enable-background:new 0 0 76.9 64.1;" xml:space="preserve">
<style type="text/css">
	.st0{fill:#E84C4F;}
	.st1{fill:#D64C52;}
	.st2{fill:none;}
	.st3{fill:#FCD546;}
	.st4{fill:#FBCB18;}
	.st5{fill:#FFFFFF;}
	.st6{fill:#EFEFEF;}
</style>
<g>
	<g>
		<g>
			<g>
				<g>
					<g>
						<g>
							<g>
								<g>
									<g>
										<circle class="st0" cx="38.5" cy="32" r="32"/>
									</g>
								</g>
							</g>
						</g>
					</g>
				</g>
			</g>
		</g>
	</g>
	<path class="st1" d="M70.5,32c0-1.5-0.1-2.9-0.3-4.4L56.5,14L20.6,50.2l13.6,13.5c1.4,0.2,2.8,0.3,4.2,0.3
		C56.1,64.1,70.5,49.7,70.5,32z"/>
	<g>
		<g>
			<path class="st2" d="M29.3,34.2l-5.1,5.1c-2,2-2,5.3,0,7.3c2,2,5.3,2,7.3,0l5.1-5.1c-1.6-0.6-3.2-1.5-4.5-2.8
				C30.8,37.3,29.9,35.8,29.3,34.2L29.3,34.2z"/>
		</g>
		<g>
			<path class="st2" d="M48.1,29.9l5.1-5.1c2-2,2-5.3,0-7.3c-2-2-5.3-2-7.3,0l-5.1,5.1c1.6,0.6,3.2,1.5,4.5,2.8
				C46.6,26.8,47.5,28.3,48.1,29.9L48.1,29.9z"/>
		</g>
		<g>
			<ellipse transform="matrix(0.7071 -0.7071 0.7071 0.7071 -11.3268 36.7547)" class="st2" cx="38.7" cy="32" rx="2.6" ry="4.5"/>
		</g>
		<g>
			<g>
				<path class="st3" d="M40.8,22.7l-4,4c-0.6,0.6-1.1,1.4-1.3,2.2c1.7-0.5,3.7-0.1,5,1.3c1.4,1.4,1.8,3.3,1.3,5
					c-0.2,0.8-0.7,1.6-1.3,2.2l-4,4l-5.1,5.1c-2,2-5.3,2-7.3,0c-2-2-2-5.3,0-7.3l5.1-5.1c-1.2-3.4-0.8-7.2,1.2-10.3
					c-0.7,0.4-1.4,1-2,1.6l-9.1,9.1c-4.6,4.6-4.6,12.1,0,16.7s12.1,4.6,16.7,0l9.1-9.1c0.6-0.6,1.1-1.3,1.6-2
					c2-3.1,2.4-6.9,1.2-10.3c-0.6-1.6-1.5-3.2-2.8-4.5C44,24.2,42.5,23.2,40.8,22.7L40.8,22.7z"/>
			</g>
		</g>
		<g>
			<g>
				<path class="st4" d="M40.6,30.2c1.4,1.4,1.8,3.3,1.3,5c-0.2,0.8-0.7,1.6-1.3,2.2l-4,4l-5.1,5.1c-2,2-5.3,2-7.3,0
					c0,0-0.1-0.1-0.1-0.1l-4.7,4.7c0,0,0.1,0.1,0.1,0.1c4.6,4.6,12.1,4.6,16.7,0l9.1-9.1c0.6-0.6,1.1-1.3,1.6-2
					c2-3.1,2.4-6.9,1.2-10.3c-0.6-1.6-1.5-3.2-2.8-4.5L40.6,30.2z"/>
			</g>
		</g>
		<g>
			<path class="st5" d="M41.3,12.8l-9.1,9.1c-0.6,0.6-1.1,1.3-1.6,2c-2,3.1-2.4,6.9-1.2,10.3c0.6,1.6,1.5,3.2,2.8,4.5
				c1.3,1.3,2.8,2.2,4.5,2.8l4-4c0.6-0.6,1.1-1.4,1.3-2.2c-1.7,0.5-3.7,0.1-5-1.3c-1.4-1.4-1.8-3.3-1.3-5c0.2-0.8,0.7-1.6,1.3-2.2
				l4-4l5.1-5.1c2-2,5.3-2,7.3,0c2,2,2,5.3,0,7.3l-5.1,5.1c1.2,3.4,0.8,7.2-1.2,10.3c0.7-0.4,1.4-1,2-1.6l9.1-9.1
				c4.6-4.6,4.6-12.1,0-16.7S45.9,8.2,41.3,12.8L41.3,12.8z"/>
		</g>
		<g>
			<path class="st6" d="M32.1,38.6c1.3,1.3,2.8,2.2,4.5,2.8l4-4c0.6-0.6,1.1-1.4,1.3-2.2c-1.7,0.5-3.7,0.1-5-1.3L32.1,38.6z"/>
			<path class="st6" d="M53.2,17.5c2,2,2,5.3,0,7.3l-5.1,5.1c1.2,3.4,0.8,7.2-1.2,10.3c0.7-0.4,1.4-1,2-1.6l9.1-9.1
				c4.6-4.6,4.6-12.1,0-16.7L53.2,17.5z"/>
		</g>
	</g>
</g>
</svg>
