<?xml version="1.0" encoding="utf-8"?>
<!-- Generator: Adobe Illustrator 23.0.1, SVG Export Plug-In . SVG Version: 6.00 Build 0)  -->
<svg version="1.1" id="Слой_1" xmlns="http://www.w3.org/2000/svg" xmlns:xlink="http://www.w3.org/1999/xlink" x="0px" y="0px"
	 viewBox="0 0 32 32" style="enable-background:new 0 0 32 32;" xml:space="preserve">
<style type="text/css">
	.st0{fill:#465A61;}
	.st1{fill:#3B4A51;}
	.st2{opacity:0.8;fill:#556B79;enable-background:new    ;}
	.st3{fill:#556B79;}
	.st4{opacity:0.8;fill:#FBCB18;enable-background:new    ;}
	.st5{fill:#FBCB18;}
	.st6{fill:#57B36E;}
	.st7{fill:#76CE84;}
	.st8{fill:#67C17A;}
</style>
<g>
	<path class="st0" d="M3.8,5.5h1.8v1.9H3.8V5.5z"/>
	<path class="st0" d="M11.2,5.5h1.8v1.9h-1.8C11.2,7.4,11.2,5.5,11.2,5.5z"/>
	<path class="st1" d="M18.8,4.5h1.8v3.8h-1.8V4.5z"/>
	<path class="st1" d="M26.3,4.5h1.8v3.8h-1.8V4.5z"/>
	<path class="st2" d="M0,3.6h32v1.8H0V3.6z"/>
	<path class="st3" d="M16.1,3.6H32v1.8H16.1V3.6z"/>
	<path class="st4" d="M0,7.4v21h32v-21H0z"/>
	<path class="st5" d="M16.1,7.4H32v21H16.1V7.4z"/>
	<g>
		<path class="st3" d="M18.8,20.5h9.4v1.8h-9.4C18.8,22.3,18.8,20.5,18.8,20.5z"/>
		<path class="st3" d="M18.8,16.7h9.4v1.9h-9.4C18.8,18.7,18.8,16.7,18.8,16.7z"/>
		<path class="st3" d="M18.8,13h9.4v1.8h-9.4C18.8,14.9,18.8,13,18.8,13z"/>
	</g>
	<path class="st6" d="M17.1,22.3h-4.7l-3.8-4.2c0-0.1,3.2-6.2,3.2-6.3L17.1,22.3z"/>
	<path class="st7" d="M8,13.8l-4.3,8.6h8.7L8,13.8z"/>
	<path class="st8" d="M12.4,22.3h-3v-5.8L12.4,22.3z"/>
</g>
</svg>
