<svg width="27" height="27" viewBox="0 0 27 27" fill="none" xmlns="http://www.w3.org/2000/svg">
<path d="M0.0263672 13.1581C0.0263672 6.00816 5.84895 0.158203 12.9654 0.158203C20.0819 0.158203 25.9045 6.00816 25.9045 13.1581C25.9045 20.3081 20.0819 26.158 12.9654 26.158C5.84895 26.158 0.0263672 20.3081 0.0263672 13.1581Z" fill="#1A4A7F"/>
<path fill-rule="evenodd" clip-rule="evenodd" d="M10.8631 25.9956C8.27533 25.5894 5.84925 24.3707 3.98926 22.5019L15.6344 11.777L9.00315 13.402C7.14316 13.8895 5.28317 12.752 4.87882 10.8832C4.87882 10.8832 4.87882 10.8832 4.87882 10.802C4.47447 8.93326 5.60664 7.06452 7.46664 6.57703L21.3761 3.16455C26.8753 7.79577 27.6031 16.002 22.9935 21.4457C21.6996 22.9894 20.0822 24.2082 18.2222 25.0207C18.2222 24.5332 18.2222 24.0457 18.384 23.6394L20.5675 17.0582C20.4866 17.0582 10.8631 25.9956 10.8631 25.9956Z" fill="url(#paint0_linear_649_7)"/>
<defs>
<linearGradient id="paint0_linear_649_7" x1="30.1281" y1="0.00930909" x2="-14.3586" y2="40.6406" gradientUnits="userSpaceOnUse">
<stop stop-color="#FFB800"/>
<stop offset="1" stop-color="#FFF11D"/>
</linearGradient>
</defs>
</svg>
