<?xml version="1.0" encoding="utf-8"?>
<!-- Generator: Adobe Illustrator 23.0.1, SVG Export Plug-In . SVG Version: 6.00 Build 0)  -->
<svg version="1.1" id="Слой_1" xmlns="http://www.w3.org/2000/svg" xmlns:xlink="http://www.w3.org/1999/xlink" x="0px" y="0px"
	 viewBox="0 0 26.5 24.2" style="enable-background:new 0 0 26.5 24.2;" xml:space="preserve">
<style type="text/css">
	.st0{fill:#FBBC04;}
	.st1{fill:#4385F5;}
	.st2{fill:#34A853;}
</style>
<g>
	<path class="st0" d="M2.3,23.5l-0.1-0.1c-2-1.2-2.7-3.8-1.6-5.8L9.5,2.2c1.2-2,3.8-2.7,5.8-1.6l0.1,0.1c2,1.2,2.7,3.8,1.6,5.8
		L8.1,22C6.9,24,4.3,24.7,2.3,23.5z"/>
	<path class="st1" d="M24.3,23.5l-0.1,0.1c-2,1.2-4.7,0.5-5.8-1.6L9.5,6.5C8.3,4.5,9,1.9,11,0.7l0.1-0.1c2-1.2,4.7-0.5,5.8,1.6
		l8.9,15.5C27.1,19.7,26.4,22.3,24.3,23.5z"/>
	<path class="st2" d="M2.3,23.5l-0.1-0.1c-2-1.2-2.7-3.8-1.6-5.8l0.1-0.1c1.2-2,3.8-2.7,5.8-1.6L6.6,16c2,1.2,2.7,3.8,1.6,5.8
		L8.1,22C6.9,24,4.3,24.7,2.3,23.5z"/>
</g>
</svg>
