<?xml version="1.0" encoding="utf-8"?>
<!-- Generator: Adobe Illustrator 23.0.1, SVG Export Plug-In . SVG Version: 6.00 Build 0)  -->
<svg version="1.1" id="Слой_1" xmlns="http://www.w3.org/2000/svg" xmlns:xlink="http://www.w3.org/1999/xlink" x="0px" y="0px"
	 viewBox="0 0 96.7 77" style="enable-background:new 0 0 96.7 77;" xml:space="preserve">
<style type="text/css">
	.st0{fill:#FFFFFF;}
	.st1{fill:#1A4A7F;}
	.st2{fill-rule:evenodd;clip-rule:evenodd;fill:url(#SVGID_1_);}
</style>
<circle class="st0" cx="48.3" cy="38.5" r="37.5"/>
<g>
	<path class="st1" d="M15.5,38.5c0-18.1,14.7-32.8,32.8-32.8s32.8,14.7,32.8,32.8S66.4,71.3,48.3,71.3S15.5,56.6,15.5,38.5z"/>
	
		<linearGradient id="SVGID_1_" gradientUnits="userSpaceOnUse" x1="91.822" y1="72.5554" x2="-20.4337" y2="-30.4537" gradientTransform="matrix(1 0 0 -1 0 77.8898)">
		<stop  offset="0" style="stop-color:#FFB800"/>
		<stop  offset="1" style="stop-color:#FFF11D"/>
	</linearGradient>
	<path class="st2" d="M43,70.8c-6.6-1.1-12.7-4.1-17.4-8.8L55.1,35l-16.9,4.1c-4.7,1.1-9.3-1.7-10.5-6.4c0,0,0-0.1,0-0.1
		c-1.1-4.8,1.8-9.5,6.6-10.7l35.2-8.5C83.3,25,85.1,45.7,73.5,59.6c-3.3,3.9-7.4,7-12,9c-0.1-1.2,0-2.4,0.4-3.6l5.6-16.6
		C67.5,48.4,43,70.8,43,70.8z"/>
</g>
</svg>
