<?xml version="1.0" encoding="utf-8"?>
<!-- Generator: Adobe Illustrator 23.0.0, SVG Export Plug-In . SVG Version: 6.00 Build 0)  -->
<svg version="1.1" id="Слой_1" xmlns="http://www.w3.org/2000/svg" xmlns:xlink="http://www.w3.org/1999/xlink" x="0px" y="0px"
	 viewBox="0 0 397.6 321.3" style="enable-background:new 0 0 397.6 321.3;" xml:space="preserve">
<style type="text/css">
	.st0{fill:#6290CB;}
</style>
<g>
	<g>
		<g>
			<path class="st0" d="M96.9,254.6H13.4c-1.6,0-2.8-1.3-2.8-2.8v-208c0-1.6,1.3-2.8,2.8-2.8h116c1.6,0,2.8,1.3,2.8,2.8v128.6h9.7
				V21.6c0-10.9-8.9-19.8-19.8-19.8h-1.8V0h-18.8v1.8H21.3c-10.9,0-19.8,8.9-19.8,19.8V42H0v10.4h1.5v4H0v10.4h1.5v205.9
				c0,10.9,8.9,19.8,19.8,19.8h75.6V254.6z M70.8,11.7c1.8,0,3.2,1.5,3.2,3.2c0,1.8-1.4,3.2-3.2,3.2s-3.2-1.4-3.2-3.2
				C67.6,13.1,69.1,11.7,70.8,11.7z M59.5,24.9h23.9v3.9H59.5V24.9z M72.3,287.3c-7.8,0-14.2-6.4-14.2-14.2
				c0-7.8,6.4-14.2,14.2-14.2s14.2,6.4,14.2,14.2C86.5,280.9,80.1,287.3,72.3,287.3z"/>
		</g>
		<g>
			<path class="st0" d="M395.8,301.5v-1.8h1.8v-18.8h-1.8v-80.2c0-10.9-8.9-19.8-19.8-19.8h-20.3v-1.5h-10.4v1.5h-4v-1.5h-10.4v1.5
				H124.7c-10.9,0-19.8,8.9-19.8,19.8v100.8c0,10.9,8.9,19.8,19.8,19.8h251.2C386.8,321.3,395.8,312.4,395.8,301.5z M385.9,250.2
				c0,1.8-1.5,3.2-3.2,3.2c-1.8,0-3.2-1.4-3.2-3.2s1.4-3.2,3.2-3.2C384.4,247,385.9,248.4,385.9,250.2z M372.7,238.9v23.9h-3.9
				v-23.9H372.7z M110.3,251.7c0-7.8,6.4-14.2,14.2-14.2c7.8,0,14.2,6.4,14.2,14.2c0,7.8-6.4,14.2-14.2,14.2
				C116.7,265.9,110.3,259.5,110.3,251.7z M145.8,311.7c-1.6,0-2.8-1.3-2.8-2.8v-116c0-1.6,1.3-2.8,2.8-2.8h208
				c1.6,0,2.8,1.3,2.8,2.8v116c0,1.6-1.3,2.8-2.8,2.8H145.8z"/>
			<circle class="st0" cx="124.5" cy="251.7" r="11.3"/>
			<circle class="st0" cx="72.3" cy="273.1" r="11.3"/>
		</g>
	</g>
	<path class="st0" d="M161.4,72.5c0-2,0-3.5,0-5.7c24.3,0.5,46.5,6.6,65.7,21.6c19.5,15.3,28.6,36.2,31.7,61.3
		c2.7-2.7,4.8-4.8,7.4-7.4c0,3.3,0,5.9,0,9c-3,3.2-6.2,6.7-9.9,10.6c-3.7-3.4-7.3-6.8-10.9-10.1c-0.2-2.7-0.5-5.1-0.8-8.6
		c2.8,2.2,4.9,3.8,7.6,5.9c-1-11.9-4.1-22.5-9.3-32.4c-10.1-19.2-26.4-30.9-46.4-37.9c-10.4-3.6-21.2-5.5-32.3-6
		C163.5,72.8,162.7,72.7,161.4,72.5z"/>
</g>
</svg>
