<?xml version="1.0" encoding="utf-8"?>
<!-- Generator: Adobe Illustrator 23.0.1, SVG Export Plug-In . SVG Version: 6.00 Build 0)  -->
<svg version="1.1" id="Слой_1" xmlns="http://www.w3.org/2000/svg" xmlns:xlink="http://www.w3.org/1999/xlink" x="0px" y="0px"
	 viewBox="0 0 282 44" style="enable-background:new 0 0 282 44;" xml:space="preserve">
<style type="text/css">
	.st0{fill:#F3F3F3;}
	.st1{fill:#E1E1E1;}
	.st2{fill:#424242;}
	.st3{fill:none;stroke:#E1E1E1;stroke-miterlimit:10;}
	.st4{fill:#4285F4;}
	.st5{fill:#34A853;}
	.st6{fill:#FBBC04;}
	.st7{fill:#EA4335;}
</style>
<path class="st0" d="M260,44H22C9.9,44,0,34.1,0,22v0C0,9.9,9.9,0,22,0l238,0c12.1,0,22,9.9,22,22v0C282,34.1,272.1,44,260,44z"/>
<path class="st1" d="M260,1c11.6,0,21,9.4,21,21c0,11.6-9.4,21-21,21H22C10.4,43,1,33.6,1,22C1,10.4,10.4,1,22,1H260 M260,0H22
	C9.9,0,0,9.9,0,22v0c0,12.1,9.9,22,22,22h238c12.1,0,22-9.9,22-22v0C282,9.9,272.1,0,260,0L260,0z"/>
<g>
	<g>
		<g>
			<g>
				<circle class="st2" cx="263.5" cy="26.3" r="0.9"/>
				<path class="st2" d="M263.5,13c-5,0-9,4-9,9c0,5,4,9,9,9c5,0,9-4,9-9C272.5,17,268.5,13,263.5,13z M263.5,29.6
					c-4.2,0-7.6-3.4-7.6-7.6c0-4.2,3.4-7.6,7.6-7.6c4.2,0,7.6,3.4,7.6,7.6C271.1,26.2,267.7,29.6,263.5,29.6z"/>
				<path class="st2" d="M263.5,17.5c-1.6,0-2.8,1.3-2.8,2.8c0,0.4,0.3,0.7,0.7,0.7s0.7-0.3,0.7-0.7c0-0.8,0.6-1.4,1.4-1.4
					s1.4,0.6,1.4,1.4s-0.6,1.4-1.4,1.4c-0.4,0-0.7,0.3-0.7,0.7v1.8c0,0.4,0.3,0.7,0.7,0.7s0.7-0.3,0.7-0.7v-1.1
					c1.2-0.3,2.1-1.4,2.1-2.7C266.3,18.8,265.1,17.5,263.5,17.5z"/>
			</g>
		</g>
	</g>
</g>
<g>
	<path class="st2" d="M53.6,18.7c0-0.6-0.2-1-0.6-1.4c-0.4-0.3-1-0.5-1.7-0.5c-0.6,0-1.1,0.2-1.6,0.5S49,18.2,49,18.7h-1.4
		c0-0.6,0.2-1.1,0.5-1.5c0.3-0.4,0.7-0.8,1.3-1.1c0.6-0.3,1.2-0.4,1.8-0.4c1.2,0,2.1,0.3,2.8,0.8c0.7,0.5,1,1.3,1,2.2
		c0,0.5-0.2,0.9-0.5,1.3c-0.3,0.4-0.7,0.7-1.3,1c1.3,0.4,1.9,1.3,1.9,2.5c0,1-0.4,1.7-1.1,2.3c-0.7,0.6-1.7,0.8-2.9,0.8
		c-0.7,0-1.4-0.1-1.9-0.4c-0.6-0.3-1-0.6-1.4-1.1c-0.3-0.5-0.5-1-0.5-1.7h1.4c0,0.6,0.2,1,0.7,1.4c0.4,0.4,1,0.6,1.7,0.6
		c0.8,0,1.4-0.2,1.8-0.5c0.5-0.4,0.7-0.8,0.7-1.4c0-1.3-0.8-1.9-2.3-1.9h-1.3v-1.1h1.3c0.7,0,1.3-0.2,1.6-0.5
		C53.4,19.7,53.6,19.3,53.6,18.7z"/>
	<path class="st2" d="M61.7,26.5c-0.1-0.2-0.1-0.4-0.2-0.8c-0.6,0.7-1.4,1-2.3,1c-0.8,0-1.4-0.2-1.9-0.7s-0.8-1-0.8-1.7
		c0-0.8,0.3-1.5,0.9-1.9c0.6-0.5,1.5-0.7,2.6-0.7h1.3v-0.6c0-0.5-0.1-0.9-0.4-1.1s-0.7-0.4-1.3-0.4c-0.5,0-0.9,0.1-1.2,0.4
		s-0.5,0.5-0.5,0.9h-1.4c0-0.4,0.1-0.8,0.4-1.1c0.3-0.4,0.7-0.7,1.1-0.9c0.5-0.2,1-0.3,1.6-0.3c0.9,0,1.6,0.2,2.1,0.7
		c0.5,0.5,0.8,1.1,0.8,1.9v3.6c0,0.7,0.1,1.3,0.3,1.7v0.1H61.7z M59.4,25.5c0.4,0,0.8-0.1,1.2-0.3c0.4-0.2,0.7-0.5,0.8-0.9v-1.6
		h-1.1c-1.7,0-2.5,0.5-2.5,1.5c0,0.4,0.1,0.8,0.4,1C58.6,25.4,59,25.5,59.4,25.5z"/>
	<path class="st2" d="M71.6,22.6c0,1.2-0.3,2.2-0.8,2.9s-1.3,1.1-2.2,1.1c-1,0-1.7-0.3-2.3-0.9v3.8H65v-11h1.2l0.1,0.9
		c0.6-0.7,1.3-1,2.3-1c1,0,1.7,0.4,2.3,1.1c0.6,0.7,0.8,1.7,0.8,3V22.6z M70.3,22.5c0-0.9-0.2-1.6-0.6-2.1s-0.9-0.8-1.6-0.8
		c-0.8,0-1.4,0.4-1.8,1.1v3.8c0.4,0.7,1,1.1,1.9,1.1c0.6,0,1.2-0.3,1.5-0.8C70.1,24.3,70.3,23.5,70.3,22.5z"/>
	<path class="st2" d="M76.7,26.7c-1.1,0-1.9-0.4-2.6-1.1c-0.7-0.7-1-1.6-1-2.8v-0.2c0-0.8,0.1-1.5,0.5-2.1c0.3-0.6,0.7-1.1,1.3-1.5
		c0.5-0.3,1.1-0.5,1.8-0.5c1,0,1.8,0.3,2.4,1s0.9,1.7,0.9,2.9v0.6h-5.4c0,0.8,0.2,1.4,0.7,1.9c0.4,0.5,1,0.7,1.7,0.7
		c0.5,0,0.9-0.1,1.2-0.3s0.6-0.5,0.9-0.8l0.8,0.6C79,26.2,78,26.7,76.7,26.7z M76.5,19.6c-0.5,0-1,0.2-1.4,0.6
		c-0.4,0.4-0.6,1-0.7,1.7h4v-0.1c0-0.7-0.2-1.2-0.6-1.6C77.5,19.8,77.1,19.6,76.5,19.6z"/>
	<path class="st2" d="M86.4,19.7h-3.7v6.8h-1.4v-7.9h5V19.7z"/>
	<path class="st2" d="M92.7,18.6h1.4v7.9h-1.4v-5.8l-3.7,5.8h-1.4v-7.9h1.4v5.8L92.7,18.6z"/>
	<path class="st2" d="M99.4,25.6c0.5,0,0.9-0.1,1.3-0.4s0.6-0.7,0.6-1.1h1.3c0,0.5-0.2,0.9-0.5,1.3s-0.7,0.7-1.2,1
		c-0.5,0.2-1,0.4-1.5,0.4c-1.1,0-1.9-0.4-2.6-1.1c-0.6-0.7-1-1.7-1-3v-0.2c0-0.8,0.1-1.5,0.4-2.1s0.7-1.1,1.2-1.4
		c0.5-0.3,1.2-0.5,1.9-0.5c0.9,0,1.6,0.3,2.2,0.8s0.9,1.2,0.9,2.1h-1.3c0-0.5-0.2-0.9-0.6-1.3c-0.3-0.3-0.8-0.5-1.3-0.5
		c-0.7,0-1.2,0.2-1.6,0.7c-0.4,0.5-0.6,1.2-0.6,2.1v0.3c0,0.9,0.2,1.6,0.6,2.1C98.2,25.3,98.7,25.6,99.4,25.6z"/>
	<path class="st2" d="M110,19.7h-2.7v6.8H106v-6.8h-2.6v-1.1h6.6V19.7z"/>
	<path class="st2" d="M118,22.6c0,1.2-0.3,2.2-0.8,2.9s-1.3,1.1-2.2,1.1c-1,0-1.7-0.3-2.3-0.9v3.8h-1.4v-11h1.2l0.1,0.9
		c0.6-0.7,1.3-1,2.3-1c1,0,1.7,0.4,2.3,1.1c0.6,0.7,0.8,1.7,0.8,3V22.6z M116.7,22.5c0-0.9-0.2-1.6-0.6-2.1s-0.9-0.8-1.6-0.8
		c-0.8,0-1.4,0.4-1.8,1.1v3.8c0.4,0.7,1,1.1,1.9,1.1c0.6,0,1.2-0.3,1.5-0.8C116.5,24.3,116.7,23.5,116.7,22.5z"/>
	<path class="st2" d="M124.9,18.6h1.4v7.9h-1.4v-5.8l-3.7,5.8h-1.4v-7.9h1.4v5.8L124.9,18.6z"/>
	<path class="st2" d="M135.1,22.6c0,1.2-0.3,2.2-0.8,2.9c-0.6,0.7-1.3,1.1-2.2,1.1c-1,0-1.7-0.3-2.3-0.9v3.8h-1.4v-11h1.2l0.1,0.9
		c0.6-0.7,1.3-1,2.3-1c1,0,1.7,0.4,2.3,1.1c0.6,0.7,0.8,1.7,0.8,3V22.6z M133.7,22.5c0-0.9-0.2-1.6-0.6-2.1s-0.9-0.8-1.6-0.8
		c-0.8,0-1.4,0.4-1.8,1.1v3.8c0.4,0.7,1,1.1,1.9,1.1c0.6,0,1.2-0.3,1.5-0.8C133.5,24.3,133.7,23.5,133.7,22.5z"/>
	<path class="st2" d="M136.5,22.5c0-0.8,0.2-1.5,0.5-2.1c0.3-0.6,0.7-1.1,1.3-1.4c0.5-0.3,1.2-0.5,1.9-0.5c1.1,0,2,0.4,2.6,1.1
		c0.7,0.7,1,1.7,1,3v0.1c0,0.8-0.1,1.5-0.4,2.1c-0.3,0.6-0.7,1.1-1.3,1.4c-0.5,0.3-1.2,0.5-1.9,0.5c-1.1,0-1.9-0.4-2.6-1.1
		C136.8,24.8,136.5,23.8,136.5,22.5L136.5,22.5z M137.8,22.6c0,0.9,0.2,1.6,0.6,2.1c0.4,0.5,1,0.8,1.6,0.8c0.7,0,1.2-0.3,1.6-0.8
		c0.4-0.5,0.6-1.3,0.6-2.3c0-0.9-0.2-1.6-0.6-2.1c-0.4-0.5-1-0.8-1.6-0.8c-0.7,0-1.2,0.3-1.6,0.8S137.8,21.7,137.8,22.6z"/>
	<path class="st2" d="M145.5,26.5v-7.9h3.1c1.1,0,1.9,0.2,2.4,0.6c0.6,0.4,0.8,0.9,0.8,1.6c0,0.4-0.1,0.7-0.3,1
		c-0.2,0.3-0.5,0.5-1,0.7c0.5,0.1,0.9,0.3,1.2,0.7c0.3,0.3,0.4,0.7,0.4,1.2c0,0.7-0.3,1.3-0.8,1.7c-0.5,0.4-1.3,0.6-2.3,0.6H145.5z
		 M146.8,22h1.8c1.3,0,1.9-0.4,1.9-1.1s-0.6-1.1-1.8-1.1h-1.9V22z M146.8,23v2.4h2.2c0.6,0,1-0.1,1.3-0.3c0.3-0.2,0.4-0.5,0.4-0.9
		c0-0.8-0.6-1.2-1.7-1.2H146.8z"/>
	<path class="st2" d="M158.8,26.5c-0.1-0.2-0.1-0.4-0.2-0.8c-0.6,0.7-1.4,1-2.3,1c-0.8,0-1.4-0.2-1.9-0.7c-0.5-0.4-0.8-1-0.8-1.7
		c0-0.8,0.3-1.5,0.9-1.9c0.6-0.5,1.5-0.7,2.6-0.7h1.3v-0.6c0-0.5-0.1-0.9-0.4-1.1c-0.3-0.3-0.7-0.4-1.3-0.4c-0.5,0-0.9,0.1-1.2,0.4
		s-0.5,0.5-0.5,0.9h-1.4c0-0.4,0.1-0.8,0.4-1.1c0.3-0.4,0.7-0.7,1.1-0.9c0.5-0.2,1-0.3,1.6-0.3c0.9,0,1.6,0.2,2.1,0.7
		c0.5,0.5,0.8,1.1,0.8,1.9v3.6c0,0.7,0.1,1.3,0.3,1.7v0.1H158.8z M156.6,25.5c0.4,0,0.8-0.1,1.2-0.3c0.4-0.2,0.7-0.5,0.8-0.9v-1.6
		h-1.1c-1.7,0-2.5,0.5-2.5,1.5c0,0.4,0.1,0.8,0.4,1C155.8,25.4,156.1,25.5,156.6,25.5z"/>
	<path class="st2" d="M168.6,26.5h-1.4v-3.4h-3.6v3.4h-1.4v-7.9h1.4V22h3.6v-3.4h1.4V26.5z"/>
	<path class="st2" d="M170.4,22.5c0-0.8,0.2-1.5,0.5-2.1c0.3-0.6,0.7-1.1,1.3-1.4c0.5-0.3,1.2-0.5,1.9-0.5c1.1,0,2,0.4,2.6,1.1
		c0.7,0.7,1,1.7,1,3v0.1c0,0.8-0.1,1.5-0.4,2.1c-0.3,0.6-0.7,1.1-1.3,1.4c-0.5,0.3-1.2,0.5-1.9,0.5c-1.1,0-1.9-0.4-2.6-1.1
		C170.7,24.8,170.4,23.8,170.4,22.5L170.4,22.5z M171.7,22.6c0,0.9,0.2,1.6,0.6,2.1c0.4,0.5,1,0.8,1.6,0.8c0.7,0,1.2-0.3,1.6-0.8
		c0.4-0.5,0.6-1.3,0.6-2.3c0-0.9-0.2-1.6-0.6-2.1c-0.4-0.5-1-0.8-1.6-0.8c-0.7,0-1.2,0.3-1.6,0.8S171.7,21.7,171.7,22.6z"/>
	<path class="st2" d="M183.1,26.5v-7.9h3.1c1.1,0,1.9,0.2,2.4,0.6c0.6,0.4,0.8,0.9,0.8,1.6c0,0.4-0.1,0.7-0.3,1
		c-0.2,0.3-0.5,0.5-1,0.7c0.5,0.1,0.9,0.3,1.2,0.7c0.3,0.3,0.4,0.7,0.4,1.2c0,0.7-0.3,1.3-0.8,1.7c-0.5,0.4-1.3,0.6-2.3,0.6H183.1z
		 M184.5,22h1.8c1.3,0,1.9-0.4,1.9-1.1s-0.6-1.1-1.8-1.1h-1.9V22z M184.5,23v2.4h2.2c0.6,0,1-0.1,1.3-0.3c0.3-0.2,0.4-0.5,0.4-0.9
		c0-0.8-0.6-1.2-1.7-1.2H184.5z"/>
	<path class="st2" d="M203.4,25.1c-0.4,0.5-0.9,0.9-1.5,1.2c-0.6,0.3-1.4,0.4-2.3,0.4c-0.9,0-1.6-0.2-2.3-0.6
		c-0.7-0.4-1.2-1-1.6-1.7c-0.4-0.8-0.6-1.6-0.6-2.6v-0.9c0-1.6,0.4-2.9,1.1-3.7c0.8-0.9,1.8-1.3,3.2-1.3c1.1,0,2,0.3,2.7,0.9
		s1.1,1.4,1.2,2.4H202c-0.3-1.4-1.1-2.1-2.5-2.1c-0.9,0-1.7,0.3-2.1,1c-0.5,0.7-0.7,1.6-0.7,2.9v0.9c0,1.2,0.3,2.1,0.8,2.9
		c0.5,0.7,1.3,1.1,2.2,1.1c0.5,0,1-0.1,1.4-0.2c0.4-0.1,0.7-0.3,1-0.6v-2.4h-2.5v-1.1h3.9V25.1z"/>
	<path class="st2" d="M205.2,22.5c0-0.8,0.2-1.5,0.5-2.1c0.3-0.6,0.7-1.1,1.3-1.4c0.5-0.3,1.2-0.5,1.9-0.5c1.1,0,2,0.4,2.6,1.1
		c0.7,0.7,1,1.7,1,3v0.1c0,0.8-0.1,1.5-0.4,2.1c-0.3,0.6-0.7,1.1-1.3,1.4c-0.5,0.3-1.2,0.5-1.9,0.5c-1.1,0-1.9-0.4-2.6-1.1
		C205.5,24.8,205.2,23.8,205.2,22.5L205.2,22.5z M206.5,22.6c0,0.9,0.2,1.6,0.6,2.1c0.4,0.5,1,0.8,1.6,0.8c0.7,0,1.2-0.3,1.6-0.8
		c0.4-0.5,0.6-1.3,0.6-2.3c0-0.9-0.2-1.6-0.6-2.1c-0.4-0.5-1-0.8-1.6-0.8c-0.7,0-1.2,0.3-1.6,0.8S206.5,21.7,206.5,22.6z"/>
	<path class="st2" d="M213.7,22.5c0-0.8,0.2-1.5,0.5-2.1c0.3-0.6,0.7-1.1,1.3-1.4c0.5-0.3,1.2-0.5,1.9-0.5c1.1,0,2,0.4,2.6,1.1
		c0.7,0.7,1,1.7,1,3v0.1c0,0.8-0.1,1.5-0.4,2.1c-0.3,0.6-0.7,1.1-1.3,1.4c-0.5,0.3-1.2,0.5-1.9,0.5c-1.1,0-1.9-0.4-2.6-1.1
		C214,24.8,213.7,23.8,213.7,22.5L213.7,22.5z M215.1,22.6c0,0.9,0.2,1.6,0.6,2.1c0.4,0.5,1,0.8,1.6,0.8c0.7,0,1.2-0.3,1.6-0.8
		c0.4-0.5,0.6-1.3,0.6-2.3c0-0.9-0.2-1.6-0.6-2.1c-0.4-0.5-1-0.8-1.6-0.8c-0.7,0-1.2,0.3-1.6,0.8S215.1,21.7,215.1,22.6z"/>
	<path class="st2" d="M222.3,22.5c0-1.2,0.3-2.2,0.9-2.9c0.6-0.7,1.3-1.1,2.3-1.1c1,0,1.7,0.3,2.3,1l0.1-0.9h1.2v7.7
		c0,1-0.3,1.8-0.9,2.4c-0.6,0.6-1.4,0.9-2.5,0.9c-0.6,0-1.1-0.1-1.7-0.4s-1-0.6-1.3-1l0.7-0.8c0.6,0.7,1.3,1.1,2.1,1.1
		c0.7,0,1.2-0.2,1.5-0.6c0.4-0.4,0.6-0.9,0.6-1.6v-0.7c-0.5,0.6-1.3,0.9-2.2,0.9c-0.9,0-1.7-0.4-2.3-1.1
		C222.6,24.8,222.3,23.8,222.3,22.5z M223.7,22.6c0,0.9,0.2,1.6,0.5,2.1c0.4,0.5,0.9,0.8,1.5,0.8c0.9,0,1.5-0.4,1.9-1.2v-3.6
		c-0.4-0.8-1-1.1-1.9-1.1c-0.7,0-1.2,0.3-1.5,0.8S223.7,21.6,223.7,22.6z"/>
	<path class="st2" d="M232.5,26.5h-1.4V15.3h1.4V26.5z"/>
	<path class="st2" d="M238,26.7c-1.1,0-1.9-0.4-2.6-1.1c-0.7-0.7-1-1.6-1-2.8v-0.2c0-0.8,0.1-1.5,0.5-2.1c0.3-0.6,0.7-1.1,1.3-1.5
		c0.5-0.3,1.1-0.5,1.8-0.5c1,0,1.8,0.3,2.4,1s0.9,1.7,0.9,2.9v0.6h-5.4c0,0.8,0.2,1.4,0.7,1.9c0.4,0.5,1,0.7,1.7,0.7
		c0.5,0,0.9-0.1,1.2-0.3c0.3-0.2,0.6-0.5,0.9-0.8l0.8,0.6C240.3,26.2,239.3,26.7,238,26.7z M237.8,19.6c-0.5,0-1,0.2-1.4,0.6
		c-0.4,0.4-0.6,1-0.7,1.7h4v-0.1c0-0.7-0.2-1.2-0.6-1.6C238.8,19.8,238.4,19.6,237.8,19.6z"/>
</g>
<g>
	<circle id="path-1_1_" class="st3" cx="22" cy="22" r="14"/>
	<g>
		<path class="st4" d="M32,22.2c0-0.7-0.1-1.4-0.2-2.1h-9.6v3.9h5.5c-0.2,1.3-1,2.4-2,3.1v2.5H29C30.9,28,32,25.3,32,22.2L32,22.2z"
			/>
		<path class="st5" d="M22.2,32.2c2.8,0,5.1-0.9,6.8-2.5l-3.3-2.5c-0.9,0.6-2.1,1-3.5,1c-2.7,0-4.9-1.8-5.7-4.2h-3.4v2.6
			C14.8,30,18.3,32.2,22.2,32.2z"/>
		<path class="st6" d="M16.5,24c-0.4-1.3-0.4-2.6,0-3.9v-2.6h-3.4c-1.4,2.9-1.4,6.3,0,9.2L16.5,24z"/>
		<path class="st7" d="M22.2,15.8c1.5,0,2.9,0.5,3.9,1.5l2.9-2.9c-1.8-1.7-4.3-2.7-6.8-2.7c-3.9,0-7.4,2.2-9.1,5.6l3.4,2.6
			C17.3,17.6,19.5,15.8,22.2,15.8z"/>
	</g>
</g>
</svg>
