<svg width="662" height="970" viewBox="0 0 662 970" fill="none" xmlns="http://www.w3.org/2000/svg">
<g opacity="0.8">
<circle cx="108.281" cy="467.982" r="12" transform="rotate(7.09836 108.281 467.982)" fill="white"/>
<circle cx="309.543" cy="271.543" r="23" transform="rotate(-118.142 309.543 271.543)" stroke="#6FCF97" stroke-width="8"/>
<circle cx="154.129" cy="319.83" r="23" transform="rotate(-118.142 154.129 319.83)" stroke="#56CCF2" stroke-width="8"/>
<circle cx="572.351" cy="747.289" r="12" transform="rotate(-152.621 572.351 747.289)" fill="#6FCF97"/>
<circle cx="598.497" cy="962.199" r="12" transform="rotate(-152.621 598.497 962.199)" fill="#56CCF2"/>
<circle cx="67.6104" cy="973.311" r="12" transform="rotate(-95.3251 67.6104 973.311)" fill="white"/>
<circle cx="93.6099" cy="-5.68884" r="12" transform="rotate(-95.3251 93.6099 -5.68884)" fill="white"/>
<path d="M-1.92676 617.298L18.3746 611.146L12.222 590.844L32.5234 584.692L26.3708 564.39L46.6722 558.238" stroke="#56CCF2" stroke-width="8" stroke-linecap="round" stroke-linejoin="round"/>
<path d="M435.677 210.463L438.326 189.416L417.279 186.767L419.929 165.719L398.882 163.07L401.532 142.023" stroke="white" stroke-width="8" stroke-linecap="round" stroke-linejoin="round"/>
<path d="M-68.3296 809.451L-59.7137 828.835L-40.329 820.22L-31.7131 839.604L-12.3284 830.988L-3.71258 850.373" stroke="white" stroke-width="8" stroke-linecap="round" stroke-linejoin="round"/>
<path d="M199.784 878.934L203.479 858.045L182.59 854.35L186.286 833.461L165.397 829.766L169.092 808.877" stroke="#6FCF97" stroke-width="8" stroke-linecap="round" stroke-linejoin="round"/>
<path d="M18.645 51.373L15.6927 30.3663L-5.31405 33.3186L-8.26635 12.3118L-29.2731 15.2641L-32.2254 -5.74261" stroke="#56CCF2" stroke-width="8" stroke-linecap="round" stroke-linejoin="round"/>
<path d="M42.5991 338.516C36.3611 338.058 30.3286 336.087 25.0235 332.774C19.7183 329.46 15.3003 324.904 12.1517 319.5C9.00299 314.096 7.21848 308.005 6.9525 301.756C6.68652 295.507 7.94708 289.287 10.6251 283.635" stroke="white" stroke-width="8"/>
<path d="M154.571 36.2115C156.899 42.0171 157.777 48.3024 157.129 54.5236C156.481 60.7447 154.328 66.7144 150.854 71.9162C147.381 77.118 142.693 81.3952 137.195 84.3778C131.697 87.3604 125.555 88.9586 119.301 89.0342" stroke="#6FCF97" stroke-width="8"/>
<circle cx="365.267" cy="898.267" r="23" transform="rotate(167.323 365.267 898.267)" stroke="#56CCF2" stroke-width="8"/>
</g>
</svg>
