<svg width="1253" height="970" viewBox="0 0 1253 970" fill="none" xmlns="http://www.w3.org/2000/svg">
<g opacity="0.5">
<circle cx="841.267" cy="780.267" r="23" transform="rotate(-12.677 841.267 780.267)" stroke="white" stroke-width="8"/>
<circle cx="264.686" cy="37.6862" r="8" transform="rotate(67.4353 264.686 37.6862)" fill="#F2F2F2" stroke="white" stroke-width="8"/>
<circle cx="84.4796" cy="861.48" r="8" transform="rotate(58.8155 84.4796 861.48)" fill="#F2F2F2" stroke="white" stroke-width="8"/>
<circle cx="418.978" cy="292.978" r="23" transform="rotate(140.956 418.978 292.978)" stroke="white" stroke-width="8"/>
<circle cx="422.687" cy="849.687" r="23" transform="rotate(-28.9023 422.687 849.687)" stroke="white" stroke-width="8"/>
<circle cx="36.5429" cy="655.543" r="23" transform="rotate(61.8584 36.5429 655.543)" stroke="white" stroke-width="8"/>
<circle cx="67.6852" cy="292.685" r="8" transform="rotate(-145.522 67.6852 292.685)" fill="white" stroke="white" stroke-width="8"/>
<circle cx="558.685" cy="-2.31481" r="8" transform="rotate(-145.522 558.685 -2.31481)" fill="white" stroke="white" stroke-width="8"/>
<circle cx="588.959" cy="138.959" r="8" transform="rotate(-47.1562 588.959 138.959)" fill="#F2F2F2" stroke="white" stroke-width="8"/>
<circle cx="87.9585" cy="768.959" r="8" transform="rotate(-47.1562 87.9585 768.959)" fill="#F2F2F2" stroke="white" stroke-width="8"/>
<path d="M228.599 503.074L208.298 509.227L214.45 529.528L194.149 535.681L200.301 555.982L180 562.135" stroke="white" stroke-width="8" stroke-linecap="round" stroke-linejoin="round"/>
<path d="M221.247 946.071C218.92 940.266 218.042 933.98 218.69 927.759C219.338 921.538 221.491 915.568 224.965 910.367C228.438 905.165 233.126 900.888 238.624 897.905C244.122 894.922 250.264 893.324 256.518 893.249" stroke="white" stroke-width="8"/>
<path d="M592.422 796.04C596.623 800.675 599.631 806.263 601.186 812.321C602.742 818.379 602.798 824.725 601.35 830.81C599.902 836.895 596.993 842.535 592.875 847.243C588.757 851.951 583.554 855.585 577.716 857.83" stroke="white" stroke-width="8"/>
<path d="M193.247 179.071C190.92 173.265 190.042 166.98 190.69 160.759C191.338 154.538 193.491 148.568 196.965 143.366C200.438 138.165 205.126 133.887 210.624 130.905C216.122 127.922 222.264 126.324 228.518 126.248" stroke="white" stroke-width="8"/>
</g>
</svg>
