<?xml version="1.0" encoding="utf-8"?>
<!-- Generator: Adobe Illustrator 23.0.1, SVG Export Plug-In . SVG Version: 6.00 Build 0)  -->
<svg version="1.1" id="Слой_1" xmlns="http://www.w3.org/2000/svg" xmlns:xlink="http://www.w3.org/1999/xlink" x="0px" y="0px"
	 viewBox="0 0 35 19" style="enable-background:new 0 0 35 19;" xml:space="preserve">
<style type="text/css">
	.st0{fill:#2F383E;}
</style>
<path class="st0" d="M1.1,2.9h32.8c0.6,0,1.1-0.5,1.1-1.1c0-0.6-0.5-1.1-1.1-1.1H1.1C0.5,0.8,0,1.2,0,1.8C0,2.4,0.5,2.9,1.1,2.9z"/>
<path class="st0" d="M33.9,8.4H1.1C0.5,8.4,0,8.9,0,9.5s0.5,1.1,1.1,1.1h32.8c0.6,0,1.1-0.5,1.1-1.1S34.5,8.4,33.9,8.4z"/>
<path class="st0" d="M23,16.1H1.1c-0.6,0-1.1,0.5-1.1,1.1c0,0.6,0.5,1.1,1.1,1.1H23c0.6,0,1.1-0.5,1.1-1.1
	C24.1,16.6,23.6,16.1,23,16.1z"/>
</svg>
