<?xml version="1.0" encoding="utf-8"?>
<!-- Generator: Adobe Illustrator 23.0.1, SVG Export Plug-In . SVG Version: 6.00 Build 0)  -->
<svg version="1.1" id="Слой_1" xmlns="http://www.w3.org/2000/svg" xmlns:xlink="http://www.w3.org/1999/xlink" x="0px" y="0px"
	 viewBox="0 0 1920 1080" style="enable-background:new 0 0 1920 1080;" xml:space="preserve">
<style type="text/css">
	.st0{opacity:0.8;}
	.st1{fill:none;stroke:#56CCF2;stroke-width:8;}
	.st2{fill:#FFFFFF;}
	.st3{fill:none;stroke:#6FCF97;stroke-width:8;}
	.st4{fill:#6FCF97;}
	.st5{fill:#56CCF2;}
	.st6{fill:none;stroke:#FFFFFF;stroke-width:8;}
	.st7{fill:none;stroke:#56CCF2;stroke-width:8;stroke-linecap:round;stroke-linejoin:round;}
	.st8{fill:none;stroke:#FFFFFF;stroke-width:8;stroke-linecap:round;stroke-linejoin:round;}
	.st9{fill:none;stroke:#6FCF97;stroke-width:8;stroke-linecap:round;stroke-linejoin:round;}
	.st10{fill:none;stroke:#E0E0E0;stroke-width:8;}
	.st11{fill:#E0E0E0;}
	.st12{fill:none;stroke:#E0E0E0;stroke-width:8;stroke-linecap:round;stroke-linejoin:round;}
</style>
<g>
	<g class="st0">
		<circle class="st1" cx="1499.9" cy="263.2" r="23"/>
		<circle class="st2" cx="1763.9" cy="553.4" r="12"/>
		<circle class="st3" cx="1347.2" cy="665.5" r="23"/>
		<circle class="st1" cx="1581" cy="701.5" r="23"/>
		<circle class="st4" cx="1299.8" cy="274.1" r="12"/>
		<circle class="st5" cx="1273.7" cy="59.2" r="12"/>
		<path class="st6" d="M1472.7,31.3"/>
		<circle class="st2" cx="1804.6" cy="48.1" r="12"/>
		<circle class="st2" cx="1641.6" cy="1027.1" r="12"/>
		<path class="st7" d="M1874.1,404.1l-20.3,6.2l6.1,20.3l-20.3,6.2l6.2,20.3l-20.3,6.2"/>
		<path class="st8" d="M1299.5,810.9l-2.7,21l21,2.6l-2.7,21l21.1,2.6l-2.7,21"/>
		<path class="st9" d="M1672.4,142.4l-3.7,20.9l20.9,3.7l-3.7,20.9l20.9,3.7l-3.7,20.9"/>
		<path class="st7" d="M1716.5,970l2.9,21l21-3l2.9,21l21-3l3,21"/>
		<path class="st6" d="M1692.6,682.9c6.2,0.5,12.3,2.4,17.6,5.7c5.3,3.3,9.7,7.9,12.9,13.3c3.2,5.4,4.9,11.5,5.2,17.7
			s-1,12.5-3.7,18.1"/>
		<path class="st3" d="M1580.6,985.2c-2.3-5.8-3.2-12.1-2.6-18.3c0.6-6.2,2.8-12.2,6.3-17.4c3.5-5.2,8.2-9.5,13.7-12.5
			c5.5-3,11.6-4.6,17.9-4.7"/>
	</g>
	<circle class="st10" cx="613.9" cy="853.2" r="23"/>
	<circle class="st11" cx="215.2" cy="45.7" r="12"/>
	<circle class="st11" cx="35" cy="869.5" r="12"/>
	<circle class="st10" cx="236.6" cy="404.9" r="23"/>
	<circle class="st10" cx="324.3" cy="723.6" r="23"/>
	<circle class="st2" cx="18.2" cy="300.7" r="12"/>
	<circle class="st11" cx="305.6" cy="183.9" r="12"/>
	<circle class="st11" cx="38.5" cy="777" r="12"/>
	<path class="st12" d="M104.2,471l-20.3,6.2l6.2,20.3l-20.3,6.2l6.2,20.3L55.6,530"/>
	<path class="st10" d="M171.7,954.1c-2.3-5.8-3.2-12.1-2.6-18.3s2.8-12.2,6.3-17.4c3.5-5.2,8.2-9.5,13.7-12.5
		c5.5-3,11.6-4.6,17.9-4.7"/>
	<path class="st10" d="M447.1,819c4.2,4.6,7.2,10.2,8.8,16.3c1.6,6.1,1.6,12.4,0.2,18.5c-1.4,6.1-4.4,11.7-8.5,16.4
		c-4.1,4.7-9.3,8.3-15.2,10.6"/>
	<path class="st10" d="M143.7,187.1c-2.3-5.8-3.2-12.1-2.6-18.3s2.8-12.2,6.3-17.4c3.5-5.2,8.2-9.5,13.7-12.5
		c5.5-3,11.6-4.6,17.9-4.7"/>
</g>
</svg>
