<svg width="593" height="358" viewBox="0 0 593 358" fill="none" xmlns="http://www.w3.org/2000/svg">
<circle cx="130.5" cy="170.5" r="107.5" fill="white"/>
<circle cx="440" cy="90" r="90" fill="white"/>
<path d="M377.026 259.737L383.703 260.804C384.224 260.889 384.715 261.114 385.091 261.423C385.466 261.732 385.756 262.153 385.871 262.603C385.9 262.743 385.929 262.884 385.929 263.024C385.929 263.164 385.929 263.277 385.9 263.417L370.522 353.968C370.32 355.148 369.077 355.934 367.718 355.766C367.66 355.766 367.631 355.766 367.574 355.738L360.896 354.67C360.839 354.67 360.81 354.642 360.752 354.642C359.393 354.361 358.468 353.237 358.671 352.057L374.049 261.507C374.077 261.366 374.106 261.254 374.164 261.114C374.222 260.973 374.28 260.861 374.367 260.72C374.627 260.327 375.031 260.018 375.494 259.849C375.956 259.709 376.477 259.653 377.026 259.737Z" fill="#FFB93E"/>
<path d="M378.736 305.678L370.498 354.17C370.324 355.209 369.081 355.884 367.723 355.743C367.665 355.743 367.636 355.743 367.578 355.715L360.901 354.647C360.843 354.647 360.814 354.619 360.756 354.619C359.398 354.338 358.473 353.327 358.646 352.287L365.873 309.752C369.486 309.639 374.574 308.824 378.736 305.678Z" fill="#FFA412"/>
<path d="M372.582 270.368L372.407 271.394L384.242 273.295L384.417 272.27L372.582 270.368Z" fill="#FFA412"/>
<path d="M371.986 273.826L371.812 274.852L383.648 276.748L383.822 275.722L371.986 273.826Z" fill="#FFA412"/>
<path d="M371.277 278.048L371.103 279.073L382.939 280.973L383.113 279.947L371.277 278.048Z" fill="#FFA412"/>
<path d="M370.205 284.416L370.031 285.442L381.868 287.34L382.042 286.314L370.205 284.416Z" fill="#FFA412"/>
<path d="M369.05 291.152L368.876 292.177L380.713 294.076L380.887 293.05L369.05 291.152Z" fill="#FFA412"/>
<path d="M367.273 301.55L367.099 302.575L378.935 304.471L379.109 303.445L367.273 301.55Z" fill="#FFA412"/>
<path d="M365.637 311.293L365.463 312.318L377.298 314.22L377.473 313.194L365.637 311.293Z" fill="#FFA412"/>
<path d="M364.172 319.936L363.998 320.961L375.834 322.859L376.008 321.834L364.172 319.936Z" fill="#FFA412"/>
<path d="M373.128 267.045L372.954 268.071L384.791 269.966L384.965 268.941L373.128 267.045Z" fill="#FFA412"/>
<path d="M373.502 264.825L373.328 265.851L385.164 267.749L385.338 266.723L373.502 264.825Z" fill="#FFA412"/>
<path d="M373.87 262.722L373.696 263.747L385.533 265.643L385.707 264.617L373.87 262.722Z" fill="#FFA412"/>
<path d="M373.966 262.187L385.789 264.069L385.904 263.423C385.933 263.283 385.933 263.17 385.933 263.03L374.198 261.147C374.14 261.26 374.111 261.4 374.082 261.541L373.966 262.187Z" fill="#FFA412"/>
<path d="M374.371 260.784L385.847 262.61C385.731 262.161 385.442 261.739 385.066 261.43L375.498 259.913C375.036 260.082 374.631 260.391 374.371 260.784Z" fill="#FFA412"/>
<path d="M389.135 259.737L395.812 260.804C396.332 260.889 396.824 261.114 397.2 261.423C397.575 261.732 397.864 262.153 397.98 262.603C398.009 262.743 398.038 262.884 398.038 263.024C398.038 263.164 398.038 263.277 398.009 263.417L382.631 353.968C382.429 355.148 381.186 355.934 379.827 355.766C379.769 355.766 379.741 355.766 379.683 355.738L373.005 354.67C372.948 354.67 372.919 354.642 372.861 354.642C371.502 354.361 370.606 353.237 370.78 352.057L386.158 261.507C386.187 261.366 386.215 261.254 386.273 261.114C386.331 260.973 386.389 260.861 386.476 260.72C386.736 260.327 387.14 260.018 387.603 259.849C388.094 259.709 388.615 259.653 389.135 259.737Z" fill="#FFB93E"/>
<path d="M390.847 305.678L382.609 354.17C382.435 355.209 381.192 355.884 379.834 355.743C379.776 355.743 379.747 355.743 379.689 355.715L373.012 354.647C372.954 354.647 372.925 354.619 372.867 354.619C371.509 354.338 370.584 353.327 370.757 352.287L377.984 309.752C381.597 309.639 386.684 308.824 390.847 305.678Z" fill="#FFA412"/>
<path d="M384.699 270.374L384.524 271.4L396.36 273.302L396.534 272.276L384.699 270.374Z" fill="#FFA412"/>
<path d="M384.114 273.841L383.94 274.867L395.776 276.763L395.95 275.737L384.114 273.841Z" fill="#FFA412"/>
<path d="M383.395 278.054L383.221 279.08L395.056 280.979L395.23 279.954L383.395 278.054Z" fill="#FFA412"/>
<path d="M382.317 284.378L382.143 285.404L393.979 287.302L394.153 286.277L382.317 284.378Z" fill="#FFA412"/>
<path d="M381.167 291.158L380.993 292.184L392.829 294.082L393.003 293.056L381.167 291.158Z" fill="#FFA412"/>
<path d="M379.389 301.597L379.214 302.623L391.05 304.523L391.224 303.497L379.389 301.597Z" fill="#FFA412"/>
<path d="M377.745 311.247L377.571 312.273L389.407 314.171L389.581 313.146L377.745 311.247Z" fill="#FFA412"/>
<path d="M376.278 319.932L376.104 320.958L387.941 322.856L388.115 321.83L376.278 319.932Z" fill="#FFA412"/>
<path d="M385.252 267.058L385.077 268.083L396.913 269.983L397.087 268.957L385.252 267.058Z" fill="#FFA412"/>
<path d="M385.639 264.851L385.466 265.876L397.302 267.772L397.476 266.746L385.639 264.851Z" fill="#FFA412"/>
<path d="M385.987 262.728L385.813 263.754L397.65 265.65L397.823 264.624L385.987 262.728Z" fill="#FFA412"/>
<path d="M386.078 262.187L397.9 264.069L398.016 263.423C398.045 263.283 398.045 263.17 398.045 263.03L386.309 261.147C386.251 261.26 386.222 261.4 386.193 261.541L386.078 262.187Z" fill="#FFA412"/>
<path d="M386.51 260.784L397.986 262.61C397.871 262.161 397.582 261.739 397.206 261.43L387.638 259.913C387.175 260.082 386.771 260.391 386.51 260.784Z" fill="#FFA412"/>
<path d="M344.822 346.661V353.235C344.822 353.769 344.677 354.247 344.417 354.64C344.157 355.061 343.781 355.399 343.348 355.595C343.203 355.651 343.088 355.708 342.943 355.736C342.798 355.764 342.683 355.764 342.538 355.764L248.131 355.539C246.917 355.539 245.905 354.471 245.847 353.123C245.847 353.067 245.847 353.039 245.847 352.982V346.408C245.847 346.352 245.847 346.324 245.847 346.268C245.905 344.947 246.917 343.851 248.131 343.879L342.538 344.104C342.683 344.104 342.798 344.132 342.943 344.132C343.088 344.16 343.232 344.217 343.348 344.273C343.781 344.469 344.157 344.807 344.417 345.228C344.677 345.649 344.822 346.127 344.822 346.661Z" fill="#FFB93E"/>
<path d="M298.434 355.673L247.849 355.561C246.75 355.561 245.883 354.493 245.825 353.144C245.825 353.088 245.825 353.06 245.825 353.004V346.43C245.825 346.374 245.825 346.346 245.825 346.289C245.883 344.969 246.779 343.873 247.878 343.901L292.248 344.014C292.942 347.441 294.59 352.189 298.434 355.673Z" fill="#FFA412"/>
<path d="M332.281 344.101L332.253 355.76L333.323 355.763L333.351 344.104L332.281 344.101Z" fill="#FFA412"/>
<path d="M328.628 344.071L328.6 355.73L329.669 355.733L329.698 344.073L328.628 344.071Z" fill="#FFA412"/>
<path d="M324.285 344.069L324.253 355.729L325.323 355.732L325.355 344.072L324.285 344.069Z" fill="#FFA412"/>
<path d="M317.594 344.056L317.566 355.715L318.635 355.717L318.663 344.058L317.594 344.056Z" fill="#FFA412"/>
<path d="M310.551 344.034L310.522 355.693L311.592 355.696L311.62 344.036L310.551 344.034Z" fill="#FFA412"/>
<path d="M299.724 344.026L299.696 355.686L300.766 355.688L300.794 344.029L299.724 344.026Z" fill="#FFA412"/>
<path d="M289.587 343.985L289.558 355.645L290.628 355.647L290.656 343.988L289.587 343.985Z" fill="#FFA412"/>
<path d="M280.532 343.962L280.5 355.622L281.57 355.624L281.601 343.965L280.532 343.962Z" fill="#FFA412"/>
<path d="M335.73 344.099L335.701 355.758L336.771 355.76L336.799 344.101L335.73 344.099Z" fill="#FFA412"/>
<path d="M338.007 344.104L337.982 355.763L339.051 355.765L339.076 344.106L338.007 344.104Z" fill="#FFA412"/>
<path d="M340.209 344.115L340.18 355.775L341.25 355.777L341.278 344.118L340.209 344.115Z" fill="#FFA412"/>
<path d="M341.88 344.139L341.851 355.799H342.516C342.661 355.799 342.776 355.799 342.921 355.771L342.95 344.196C342.805 344.168 342.69 344.167 342.545 344.167L341.88 344.139Z" fill="#FFA412"/>
<path d="M343.354 344.309L343.325 355.632C343.759 355.435 344.135 355.098 344.395 354.676L344.424 345.264C344.164 344.815 343.788 344.478 343.354 344.309Z" fill="#FFA412"/>
<path d="M334.741 334.973V341.547C334.741 342.081 334.596 342.559 334.336 342.952C334.076 343.373 333.7 343.711 333.266 343.907C333.122 343.963 333.006 344.02 332.862 344.048C332.717 344.076 332.602 344.076 332.457 344.076L238.05 343.851C236.836 343.851 235.824 342.783 235.766 341.435C235.766 341.379 235.766 341.351 235.766 341.294V334.72C235.766 334.664 235.766 334.636 235.766 334.58C235.824 333.231 236.836 332.163 238.05 332.191L332.457 332.416C332.515 332.416 332.573 332.416 332.63 332.416C332.659 332.416 332.688 332.416 332.717 332.416C332.746 332.416 332.775 332.416 332.804 332.416C332.833 332.416 332.833 332.416 332.862 332.416C333.006 332.444 333.151 332.501 333.266 332.557C333.295 332.557 333.295 332.585 333.324 332.585C333.353 332.585 333.353 332.613 333.382 332.613C333.411 332.641 333.469 332.641 333.498 332.669C333.527 332.669 333.555 332.697 333.555 332.697C333.584 332.697 333.584 332.725 333.613 332.725C333.642 332.753 333.671 332.781 333.729 332.81C333.758 332.838 333.816 332.866 333.845 332.894C333.873 332.922 333.902 332.95 333.931 332.978C333.96 333.006 333.96 333.006 333.989 333.034C334.047 333.091 334.105 333.147 334.162 333.231C334.191 333.259 334.191 333.259 334.22 333.287C334.249 333.315 334.249 333.315 334.278 333.343C334.307 333.371 334.336 333.428 334.365 333.484C334.596 333.961 334.741 334.467 334.741 334.973Z" fill="#FFB93E"/>
<path d="M288.375 343.985L237.79 343.873C236.691 343.873 235.824 342.805 235.766 341.457C235.766 341.4 235.766 341.372 235.766 341.316V334.742C235.766 334.686 235.766 334.658 235.766 334.602C235.824 333.253 236.72 332.186 237.818 332.214L282.189 332.326C282.218 332.41 282.218 332.523 282.247 332.607C282.97 336.006 284.646 340.586 288.375 343.985Z" fill="#FFA412"/>
<path d="M322.196 332.408L322.168 344.067L323.238 344.07L323.266 332.41L322.196 332.408Z" fill="#FFA412"/>
<path d="M318.573 332.409L318.544 344.069L319.614 344.071L319.642 332.411L318.573 332.409Z" fill="#FFA412"/>
<path d="M314.199 332.408L314.17 344.067L315.24 344.07L315.269 332.41L314.199 332.408Z" fill="#FFA412"/>
<path d="M307.538 332.39L307.51 344.05L308.579 344.052L308.608 332.393L307.538 332.39Z" fill="#FFA412"/>
<path d="M300.464 332.371L300.439 344.03L301.509 344.032L301.534 332.373L300.464 332.371Z" fill="#FFA412"/>
<path d="M289.642 332.333L289.611 343.993L290.68 343.996L290.711 332.336L289.642 332.333Z" fill="#FFA412"/>
<path d="M279.531 332.322L279.502 343.982L280.571 343.984L280.6 332.325L279.531 332.322Z" fill="#FFA412"/>
<path d="M270.472 332.298L270.447 343.958L271.517 343.96L271.542 332.301L270.472 332.298Z" fill="#FFA412"/>
<path d="M325.645 332.433L325.617 344.092L326.687 344.094L326.715 332.435L325.645 332.433Z" fill="#FFA412"/>
<path d="M327.924 332.438L327.896 344.098L328.965 344.1L328.994 332.441L327.924 332.438Z" fill="#FFA412"/>
<path d="M330.153 332.424L330.125 344.083L331.194 344.086L331.223 332.426L330.153 332.424Z" fill="#FFA412"/>
<path d="M331.792 332.447L331.763 344.106H332.428C332.573 344.106 332.688 344.106 332.833 344.078L332.862 332.503C332.717 332.475 332.601 332.475 332.457 332.475L331.792 332.447Z" fill="#FFA412"/>
<path d="M333.295 332.622L333.266 343.944C333.7 343.748 334.075 343.411 334.336 342.989L334.365 333.577C334.104 333.156 333.729 332.819 333.295 332.622Z" fill="#FFA412"/>
<path d="M339.654 323.627V330.202C339.654 330.735 339.51 331.213 339.25 331.606C338.99 332.028 338.614 332.365 338.18 332.562C338.036 332.618 337.92 332.674 337.776 332.702C337.631 332.73 337.515 332.73 337.371 332.73L242.963 332.505C242.587 332.505 242.212 332.393 241.923 332.224C241.258 331.831 240.766 331.101 240.708 330.23C240.708 330.202 240.708 330.145 240.708 330.117C240.708 330.061 240.708 330.033 240.708 329.977V323.403C240.708 323.346 240.708 323.318 240.708 323.262C240.766 321.942 241.778 320.846 242.992 320.874L337.4 321.099C337.544 321.099 337.66 321.127 337.804 321.127C337.949 321.155 338.093 321.211 338.209 321.267C338.643 321.464 339.019 321.801 339.279 322.223C339.51 322.616 339.654 323.122 339.654 323.627Z" fill="#FFB93E"/>
<path d="M293.261 332.643L242.675 332.53C242.328 332.53 242.01 332.418 241.75 332.249C241.143 331.856 240.738 331.126 240.651 330.255C240.651 330.227 240.651 330.17 240.651 330.142C240.651 330.086 240.651 330.058 240.651 330.002V323.428C240.651 323.372 240.651 323.343 240.651 323.287C240.709 321.967 241.605 320.871 242.704 320.899L287.075 321.012C287.768 324.355 289.329 328.934 292.943 332.39C293.058 332.446 293.174 332.558 293.261 332.643Z" fill="#FFA412"/>
<path d="M341.938 311.996V318.57C341.938 319.104 341.794 319.582 341.534 319.975C341.274 320.396 340.898 320.734 340.464 320.93C340.32 320.986 340.204 321.043 340.059 321.071C339.915 321.099 339.799 321.099 339.655 321.099L245.248 320.874C244.034 320.874 243.022 319.806 242.964 318.458C242.964 318.402 242.964 318.374 242.964 318.317V311.743C242.964 311.687 242.964 311.659 242.964 311.603C243.022 310.367 243.889 309.355 244.988 309.215C245.074 309.215 245.161 309.187 245.248 309.187L339.655 309.411C339.799 309.411 339.915 309.439 340.059 309.439C340.204 309.467 340.349 309.524 340.464 309.58C340.898 309.777 341.274 310.114 341.534 310.535C341.794 310.985 341.938 311.462 341.938 311.996Z" fill="#FFB93E"/>
<path d="M295.544 320.987L244.958 320.874C243.86 320.874 242.992 319.807 242.935 318.458C242.935 318.402 242.935 318.374 242.935 318.318V311.743C242.935 311.687 242.935 311.659 242.935 311.603C242.992 310.367 243.773 309.355 244.727 309.215C244.813 309.215 244.871 309.187 244.958 309.187L289.329 309.299C289.329 309.299 289.329 309.299 289.329 309.327C290.08 312.783 291.728 317.531 295.544 320.987Z" fill="#FFA412"/>
<path d="M335.001 300.332V306.907C335.001 307.441 334.856 307.918 334.596 308.312C334.336 308.733 333.96 309.07 333.526 309.267C333.382 309.323 333.266 309.379 333.122 309.407C333.064 309.407 333.035 309.435 332.977 309.435C332.948 309.435 332.919 309.435 332.891 309.435C332.862 309.435 332.833 309.435 332.804 309.435C332.775 309.435 332.717 309.435 332.688 309.435L238.281 309.211C237.067 309.211 236.055 308.143 235.997 306.794C235.997 306.738 235.997 306.71 235.997 306.654V300.079C235.997 300.023 235.997 299.995 235.997 299.939C235.997 299.911 235.997 299.855 235.997 299.827C236.084 298.759 236.806 297.86 237.703 297.607C237.731 297.607 237.76 297.607 237.76 297.579C237.934 297.551 238.078 297.523 238.252 297.523L332.659 297.747C332.717 297.747 332.804 297.747 332.862 297.747C332.891 297.747 332.919 297.747 332.948 297.747C332.977 297.747 333.006 297.747 333.064 297.776C333.209 297.804 333.353 297.86 333.469 297.916C333.902 298.113 334.278 298.45 334.538 298.871C334.856 299.321 335.001 299.798 335.001 300.332Z" fill="#FFB93E"/>
<path d="M288.635 309.354L238.049 309.241C236.951 309.241 236.084 308.174 236.026 306.825C236.026 306.769 236.026 306.741 236.026 306.685V300.11C236.026 300.054 236.026 300.026 236.026 299.97C236.026 299.942 236.026 299.886 236.026 299.857C236.113 298.762 236.777 297.863 237.616 297.638C237.645 297.638 237.674 297.61 237.702 297.61C237.818 297.582 237.934 297.582 238.049 297.582L282.42 297.694C282.42 297.722 282.42 297.75 282.449 297.778C283.172 301.178 284.819 305.87 288.635 309.354C288.635 309.326 288.635 309.354 288.635 309.354Z" fill="#FFA412"/>
<path d="M334.827 288.76V295.334C334.827 295.868 334.683 296.345 334.423 296.738C334.162 297.16 333.787 297.497 333.353 297.694C333.238 297.75 333.151 297.778 333.035 297.806C333.006 297.806 332.977 297.834 332.948 297.834C332.804 297.862 332.688 297.862 332.544 297.862L238.136 297.637C238.05 297.637 237.934 297.637 237.847 297.609C237.818 297.609 237.761 297.609 237.732 297.581C236.691 297.385 235.911 296.401 235.853 295.221C235.853 295.165 235.853 295.137 235.853 295.081V288.507C235.853 288.451 235.853 288.423 235.853 288.366C235.911 287.018 236.922 285.95 238.136 285.978L332.544 286.203C332.602 286.203 332.659 286.203 332.717 286.203C332.746 286.203 332.775 286.203 332.804 286.203C332.833 286.203 332.862 286.203 332.891 286.203C332.92 286.203 332.92 286.203 332.948 286.203C333.093 286.231 333.238 286.287 333.353 286.344C333.382 286.344 333.382 286.372 333.411 286.372C333.44 286.372 333.44 286.4 333.469 286.4C333.498 286.428 333.555 286.428 333.584 286.456C333.613 286.484 333.671 286.512 333.7 286.54C333.729 286.568 333.758 286.596 333.816 286.625C333.845 286.653 333.902 286.681 333.931 286.709C333.96 286.737 333.989 286.765 334.018 286.793C334.047 286.821 334.047 286.821 334.076 286.849C334.134 286.905 334.191 286.962 334.249 287.046C334.278 287.074 334.278 287.074 334.307 287.102C334.336 287.13 334.336 287.13 334.365 287.158C334.394 287.186 334.423 287.243 334.452 287.299C334.683 287.748 334.827 288.254 334.827 288.76Z" fill="#FFB93E"/>
<path d="M288.462 297.775L237.877 297.662C237.848 297.662 237.79 297.662 237.761 297.662C237.703 297.662 237.674 297.662 237.616 297.634C236.634 297.494 235.882 296.482 235.824 295.246C235.824 295.19 235.824 295.162 235.824 295.106V288.531C235.824 288.475 235.824 288.447 235.824 288.391C235.882 287.042 236.778 285.975 237.877 286.003L282.247 286.115C282.276 286.199 282.276 286.312 282.305 286.396C283.027 289.767 284.675 294.319 288.346 297.69C288.404 297.718 288.433 297.747 288.462 297.775Z" fill="#FFA412"/>
<path d="M339.741 277.415V283.989C339.741 284.523 339.597 285 339.337 285.394C339.076 285.815 338.701 286.152 338.267 286.349C338.123 286.405 338.007 286.461 337.862 286.489C337.718 286.517 337.602 286.517 337.458 286.517L243.051 286.293C242.675 286.293 242.299 286.18 242.01 286.012C241.345 285.618 240.854 284.888 240.796 284.017C240.796 283.989 240.796 283.933 240.796 283.905C240.796 283.848 240.796 283.82 240.796 283.764V277.19C240.796 277.134 240.796 277.106 240.796 277.049C240.854 275.701 241.865 274.633 243.079 274.661L337.487 274.886C337.631 274.886 337.747 274.914 337.891 274.914C338.036 274.942 338.18 274.999 338.296 275.055C338.73 275.251 339.105 275.589 339.366 276.01C339.597 276.403 339.741 276.909 339.741 277.415Z" fill="#FFB93E"/>
<path d="M293.347 286.43L242.761 286.318C242.414 286.318 242.096 286.205 241.836 286.037C241.229 285.643 240.825 284.913 240.738 284.042C240.738 284.014 240.738 283.958 240.738 283.93C240.738 283.873 240.738 283.845 240.738 283.789V277.215C240.738 277.159 240.738 277.131 240.738 277.074C240.796 275.726 241.692 274.658 242.79 274.686L287.161 274.799C287.855 278.142 289.416 282.721 293.029 286.177C293.145 286.233 293.26 286.318 293.347 286.43Z" fill="#FFA412"/>
<path d="M347.459 265.783V272.357C347.459 272.891 347.315 273.368 347.054 273.762C346.794 274.183 346.419 274.52 345.985 274.717C345.84 274.773 345.725 274.829 345.58 274.857C345.436 274.886 345.32 274.885 345.176 274.885L250.768 274.661C249.554 274.661 248.542 273.593 248.484 272.245C248.484 272.188 248.484 272.16 248.484 272.104V265.53C248.484 265.474 248.484 265.446 248.484 265.389C248.542 264.153 249.409 263.142 250.508 263.001C250.595 263.001 250.681 262.973 250.768 262.973L345.176 263.198C345.32 263.198 345.436 263.226 345.58 263.226C345.725 263.254 345.869 263.31 345.985 263.366C346.419 263.563 346.794 263.9 347.054 264.322C347.344 264.771 347.459 265.249 347.459 265.783Z" fill="#FFB93E"/>
<path d="M301.094 274.798L250.508 274.686C249.409 274.686 248.542 273.618 248.484 272.269C248.484 272.213 248.484 272.185 248.484 272.129V265.555C248.484 265.498 248.484 265.47 248.484 265.414C248.542 264.178 249.323 263.167 250.277 263.026C250.363 263.026 250.45 262.998 250.508 262.998L294.879 263.11C294.879 263.11 294.879 263.11 294.879 263.139C295.602 266.566 297.249 271.314 301.094 274.798Z" fill="#FFA412"/>
<path d="M335.087 254.116V260.69C335.087 261.224 334.943 261.702 334.683 262.095C334.422 262.516 334.047 262.853 333.613 263.05C333.469 263.106 333.353 263.163 333.208 263.191C333.151 263.191 333.122 263.219 333.064 263.219C333.035 263.219 333.006 263.219 332.948 263.219C332.919 263.219 332.919 263.219 332.89 263.219C332.861 263.219 332.804 263.219 332.775 263.219L238.368 262.994C237.154 262.994 236.142 261.926 236.084 260.578C236.084 260.522 236.084 260.493 236.084 260.437V253.863C236.084 253.807 236.084 253.779 236.084 253.723C236.142 252.402 237.154 251.306 238.368 251.335L332.775 251.559C332.804 251.559 332.861 251.559 332.89 251.559C332.977 251.559 333.093 251.587 333.179 251.587C333.324 251.615 333.469 251.672 333.584 251.728C333.642 251.756 333.729 251.784 333.787 251.84C333.815 251.868 333.873 251.896 333.902 251.925C333.931 251.953 333.989 251.981 334.018 252.009C334.018 252.009 334.018 252.009 334.047 252.009C334.076 252.037 334.104 252.065 334.162 252.093C334.249 252.149 334.307 252.234 334.394 252.318C334.422 252.346 334.451 252.374 334.451 252.402C334.451 252.43 334.48 252.43 334.48 252.458C334.509 252.486 334.538 252.514 334.538 252.543C334.567 252.599 334.596 252.627 334.625 252.683C334.943 253.104 335.087 253.582 335.087 254.116Z" fill="#FFB93E"/>
<path d="M288.723 263.141L238.137 263.029C237.038 263.029 236.171 261.961 236.113 260.613C236.113 260.556 236.113 260.528 236.113 260.472V253.898C236.113 253.842 236.113 253.814 236.113 253.757C236.171 252.437 237.067 251.341 238.166 251.369L282.537 251.482C282.566 251.566 282.565 251.65 282.594 251.763C283.317 255.134 284.965 259.714 288.723 263.141C288.694 263.113 288.723 263.113 288.723 263.141Z" fill="#FFA412"/>
<path d="M342.054 242.743V249.317C342.054 249.851 341.909 250.329 341.649 250.722C341.389 251.144 341.013 251.481 340.58 251.677C340.435 251.734 340.319 251.79 340.175 251.818C340.03 251.846 339.915 251.846 339.77 251.846L245.363 251.621C244.987 251.621 244.64 251.509 244.351 251.34C243.658 250.947 243.166 250.188 243.108 249.317C243.108 249.289 243.108 249.261 243.108 249.205C243.108 249.149 243.108 249.121 243.108 249.065V242.49C243.108 242.434 243.108 242.406 243.108 242.35C243.166 241.114 244.033 240.102 245.132 239.962C245.219 239.962 245.305 239.934 245.392 239.934L339.799 240.159C339.944 240.159 340.059 240.187 340.204 240.187C340.348 240.215 340.493 240.271 340.609 240.327C341.042 240.524 341.418 240.861 341.678 241.282C341.909 241.732 342.054 242.238 342.054 242.743Z" fill="#FFB93E"/>
<path d="M295.688 251.758L245.103 251.646C244.785 251.646 244.467 251.561 244.206 251.365C243.599 250.971 243.166 250.213 243.079 249.342C243.079 249.314 243.079 249.286 243.079 249.23C243.079 249.173 243.079 249.145 243.079 249.089V242.515C243.079 242.459 243.079 242.431 243.079 242.374C243.137 241.138 243.917 240.127 244.871 239.986C244.958 239.986 245.016 239.958 245.103 239.958L289.473 240.071C289.473 240.071 289.473 240.071 289.473 240.099C290.167 243.442 291.728 248.021 295.37 251.477C295.486 251.589 295.573 251.674 295.688 251.758Z" fill="#FFA412"/>
<path d="M335.056 231.111V237.685C335.056 238.219 334.911 238.697 334.651 239.09C334.391 239.511 334.015 239.849 333.582 240.045C333.437 240.101 333.322 240.158 333.177 240.186C333.119 240.186 333.09 240.214 333.033 240.214C333.004 240.214 332.975 240.214 332.946 240.214C332.917 240.214 332.888 240.214 332.859 240.214C332.83 240.214 332.772 240.214 332.744 240.214L238.337 239.989C237.123 239.989 236.111 238.921 236.053 237.573C236.053 237.517 236.053 237.489 236.053 237.432V230.858C236.053 230.802 236.053 230.774 236.053 230.718C236.111 229.397 237.123 228.302 238.337 228.33L332.744 228.554C332.888 228.554 333.004 228.582 333.148 228.582C333.293 228.611 333.437 228.667 333.553 228.723C333.987 228.92 334.362 229.257 334.622 229.678C334.911 230.1 335.056 230.577 335.056 231.111Z" fill="#FFB93E"/>
<path d="M288.662 240.101L238.076 239.989C236.978 239.989 236.111 238.921 236.053 237.573C236.053 237.517 236.053 237.489 236.053 237.432V230.858C236.053 230.802 236.053 230.774 236.053 230.718C236.111 229.397 237.007 228.302 238.105 228.33L282.476 228.442C283.199 231.87 284.817 236.618 288.662 240.101Z" fill="#FFA412"/>
<path d="M327.099 321.069L327.07 332.728L328.139 332.73L328.168 321.071L327.099 321.069Z" fill="#FFA412"/>
<path d="M323.473 321.042L323.448 332.702L324.518 332.704L324.543 321.044L323.473 321.042Z" fill="#FFA412"/>
<path d="M319.1 321.041L319.074 332.7L320.143 332.702L320.169 321.043L319.1 321.041Z" fill="#FFA412"/>
<path d="M312.441 321.023L312.413 332.683L313.482 332.686L313.511 321.026L312.441 321.023Z" fill="#FFA412"/>
<path d="M305.369 321.003L305.34 332.662L306.41 332.665L306.438 321.006L305.369 321.003Z" fill="#FFA412"/>
<path d="M294.542 320.995L294.514 332.654L295.583 332.656L295.612 320.997L294.542 320.995Z" fill="#FFA412"/>
<path d="M284.402 320.951L284.377 332.611L285.446 332.613L285.471 320.953L284.402 320.951Z" fill="#FFA412"/>
<path d="M275.377 320.932L275.349 332.591L276.418 332.594L276.446 320.934L275.377 320.932Z" fill="#FFA412"/>
<path d="M330.548 321.065L330.519 332.725L331.589 332.727L331.617 321.067L330.548 321.065Z" fill="#FFA412"/>
<path d="M332.825 321.071L332.8 332.73L333.869 332.733L333.894 321.073L332.825 321.071Z" fill="#FFA412"/>
<path d="M335.056 321.084L335.028 332.744L336.097 332.746L336.126 321.087L335.056 321.084Z" fill="#FFA412"/>
<path d="M336.706 321.098L336.677 332.757H337.342C337.487 332.757 337.602 332.757 337.747 332.729L337.776 321.154C337.631 321.126 337.515 321.126 337.371 321.126L336.706 321.098Z" fill="#FFA412"/>
<path d="M338.181 321.266L338.152 332.588C338.585 332.391 338.961 332.054 339.221 331.633L339.25 322.221C338.99 321.8 338.614 321.463 338.181 321.266Z" fill="#FFA412"/>
<path d="M296.842 309.346L296.813 321.006L297.883 321.008L297.911 309.349L296.842 309.346Z" fill="#FFA412"/>
<path d="M286.703 309.307L286.675 320.967L287.745 320.969L287.773 309.31L286.703 309.307Z" fill="#FFA412"/>
<path d="M277.647 309.286L277.619 320.946L278.689 320.948L278.717 309.289L277.647 309.286Z" fill="#FFA412"/>
<path d="M333.874 321.097L333.902 309.438H332.949C333.006 309.438 333.035 309.438 333.093 309.41L333.122 297.835C333.064 297.835 332.977 297.807 332.92 297.807L332.949 286.512H333.353L333.324 297.694C333.758 297.498 334.134 297.16 334.394 296.739L334.423 287.327C334.22 286.962 333.902 286.681 333.584 286.484H333.96L333.989 274.825H332.92L332.891 286.232C332.775 286.203 332.659 286.203 332.544 286.203H331.879L331.85 297.863H332.052L332.024 309.438H332.688C332.717 309.438 332.775 309.438 332.804 309.438L332.775 321.069L333.874 321.097Z" fill="#FFA412"/>
<path d="M335.126 309.42L335.097 321.079L336.167 321.082L336.195 309.422L335.126 309.42Z" fill="#FFA412"/>
<path d="M337.328 309.437L337.296 321.096L338.366 321.099L338.397 309.439L337.328 309.437Z" fill="#FFA412"/>
<path d="M338.99 309.438L338.961 321.098H339.626C339.77 321.098 339.886 321.098 340.03 321.07L340.059 309.494C339.915 309.466 339.799 309.466 339.655 309.466L338.99 309.438Z" fill="#FFA412"/>
<path d="M340.464 309.607L340.435 320.929C340.869 320.732 341.244 320.395 341.505 319.973L341.533 310.562C341.273 310.14 340.898 309.803 340.464 309.607Z" fill="#FFA412"/>
<path d="M323.496 309.438L323.525 297.779H323.323L323.351 286.203H322.282L322.253 297.863H322.455L322.426 309.41H321.386L321.357 321.069H322.426L322.455 309.438H323.496Z" fill="#FFA412"/>
<path d="M315.547 297.746H315.344L315.373 286.171H314.304L314.275 297.831H314.477L314.448 309.406H314.709L314.68 321.037H315.749L315.778 309.378H315.518L315.547 297.746Z" fill="#FFA412"/>
<path d="M333.555 297.975L333.526 309.297C333.96 309.101 334.336 308.764 334.596 308.342L334.625 298.931C334.365 298.509 333.989 298.172 333.555 297.975Z" fill="#FFA412"/>
<path d="M308.696 286.171H307.627L307.598 297.831H307.8L307.771 309.378H307.656L307.627 321.009L308.696 321.037L308.725 309.378H308.841L308.87 297.746H308.667L308.696 286.171Z" fill="#FFA412"/>
<path d="M301.614 286.146H300.545V297.806H300.718V309.381H301.788L301.817 297.722H301.614V286.146Z" fill="#FFA412"/>
<path d="M290.803 286.119H289.733L289.705 297.778H289.907L289.878 309.354H290.947L290.976 297.694H290.774L290.803 286.119Z" fill="#FFA412"/>
<path d="M280.657 286.119H279.588V297.75H279.761V309.326H280.831L280.86 297.666H280.657V286.119Z" fill="#FFA412"/>
<path d="M271.609 286.087H270.541V297.747H270.714V309.294H271.783L271.812 297.662H271.609V286.087Z" fill="#FFA412"/>
<path d="M326.82 286.203H325.751L325.722 297.863H325.924L325.895 309.41H325.751L325.722 321.069H326.791L326.82 309.438H326.965L326.994 297.779H326.791L326.82 286.203Z" fill="#FFA412"/>
<path d="M329.104 286.232H328.237L328.266 274.854H327.167V286.513H328.035L328.006 297.863H328.208L328.179 309.438H329.249L329.278 297.779H329.075L329.104 286.232Z" fill="#FFA412"/>
<path d="M323.565 274.821L323.536 286.48L324.606 286.483L324.634 274.823L323.565 274.821Z" fill="#FFA412"/>
<path d="M319.16 286.203H318.64L318.611 297.835L318.813 297.863V309.41H319.883V297.779H319.709V286.484H320.23L320.258 274.825H319.189L319.16 286.203Z" fill="#FFA412"/>
<path d="M312.532 274.806L312.5 286.466L313.57 286.469L313.601 274.809L312.532 274.806Z" fill="#FFA412"/>
<path d="M305.458 274.784L305.43 286.443L306.499 286.446L306.528 274.786L305.458 274.784Z" fill="#FFA412"/>
<path d="M294.632 274.775L294.604 286.435L295.673 286.437L295.701 274.778L294.632 274.775Z" fill="#FFA412"/>
<path d="M284.492 274.735L284.466 286.395L285.536 286.397L285.561 274.738L284.492 274.735Z" fill="#FFA412"/>
<path d="M275.465 274.714L275.437 286.373L276.507 286.376L276.535 274.716L275.465 274.714Z" fill="#FFA412"/>
<path d="M330.607 286.232H330.231L330.203 297.863H330.405L330.376 309.438H329.364V321.07H330.434L330.463 309.438H331.445L331.474 297.807H331.272L331.301 286.513H331.677L331.706 274.854H330.636L330.607 286.232Z" fill="#FFA412"/>
<path d="M335.116 274.865L335.088 286.524L336.157 286.527L336.186 274.867L335.116 274.865Z" fill="#FFA412"/>
<path d="M337.834 286.482L337.862 274.907C337.718 274.879 337.602 274.879 337.458 274.879H336.793L336.764 286.539H337.429C337.573 286.539 337.718 286.51 337.834 286.482Z" fill="#FFA412"/>
<path d="M339.337 285.415L339.366 276.003C339.106 275.581 338.73 275.244 338.296 275.048L338.267 286.37C338.701 286.173 339.077 285.836 339.337 285.415Z" fill="#FFA412"/>
<path d="M334.929 263.205L334.9 274.864L335.97 274.867L335.998 263.208L334.929 263.205Z" fill="#FFA412"/>
<path d="M320.242 263.162L320.214 274.822L321.283 274.824L321.312 263.165L320.242 263.162Z" fill="#FFA412"/>
<path d="M313.199 263.168L313.17 274.827L314.24 274.83L314.268 263.171L313.199 263.168Z" fill="#FFA412"/>
<path d="M302.372 263.13L302.344 274.79L303.413 274.792L303.442 263.133L302.372 263.13Z" fill="#FFA412"/>
<path d="M292.234 263.12L292.205 274.78L293.275 274.782L293.303 263.123L292.234 263.12Z" fill="#FFA412"/>
<path d="M283.176 263.099L283.151 274.758L284.22 274.76L284.246 263.101L283.176 263.099Z" fill="#FFA412"/>
<path d="M338.378 263.227L338.349 274.886L339.419 274.889L339.447 263.23L338.378 263.227Z" fill="#FFA412"/>
<path d="M340.656 263.232L340.628 274.892L341.697 274.894L341.726 263.234L340.656 263.232Z" fill="#FFA412"/>
<path d="M342.857 263.219L342.829 274.879L343.898 274.881L343.926 263.222L342.857 263.219Z" fill="#FFA412"/>
<path d="M344.511 263.25L344.482 274.91H345.147C345.291 274.91 345.407 274.91 345.552 274.881L345.58 263.306C345.436 263.278 345.32 263.278 345.176 263.278L344.511 263.25Z" fill="#FFA412"/>
<path d="M346.014 263.418L345.985 274.741C346.419 274.544 346.794 274.207 347.055 273.786L347.084 264.374C346.823 263.952 346.448 263.615 346.014 263.418Z" fill="#FFA412"/>
<path d="M322.513 263.195L323.583 263.223L323.612 251.563H322.571L322.6 240.185H323.641L323.669 228.553L322.571 228.525V240.185L321.53 240.157L321.501 251.816H322.542L322.513 263.195Z" fill="#FFA412"/>
<path d="M318.908 251.539L318.876 263.198L319.946 263.201L319.977 251.542L318.908 251.539Z" fill="#FFA412"/>
<path d="M300.828 251.505L300.8 263.164L301.869 263.167L301.898 251.507L300.828 251.505Z" fill="#FFA412"/>
<path d="M290.001 251.467L289.973 263.127L291.043 263.129L291.071 251.47L290.001 251.467Z" fill="#FFA412"/>
<path d="M279.863 251.454L279.834 263.113L280.904 263.115L280.933 251.456L279.863 251.454Z" fill="#FFA412"/>
<path d="M270.807 251.434L270.779 263.093L271.849 263.096L271.877 251.436L270.807 251.434Z" fill="#FFA412"/>
<path d="M325.982 263.225H326.936L326.907 274.857H327.976L328.005 263.197H327.051L327.08 251.566H326.936V240.215H327.08L327.109 228.556H326.04L326.011 240.187H325.866L325.837 251.847H326.011L325.982 263.225Z" fill="#FFA412"/>
<path d="M328.283 251.573L328.26 263.232L329.33 263.234L329.352 251.575L328.283 251.573Z" fill="#FFA412"/>
<path d="M333.815 251.847H334.018L334.047 240.187H333.093C333.151 240.187 333.179 240.187 333.237 240.159L333.266 228.584C333.122 228.556 333.006 228.556 332.861 228.556H332.197L332.168 240.215H332.833C332.861 240.215 332.919 240.215 332.948 240.215L332.919 251.594C332.89 251.594 332.833 251.594 332.804 251.594H332.139L332.11 263.225H331.532L331.561 251.594H330.549L330.578 240.215H331.59L331.619 228.556H330.549L330.52 240.187H329.508L329.479 251.847H330.491L330.462 263.225H331.272L331.243 274.857H332.312L332.341 263.225H332.775C332.919 263.225 333.035 263.225 333.179 263.197L333.208 251.847H333.613L333.584 263.057C334.018 262.86 334.394 262.523 334.654 262.101L334.683 252.689C334.48 252.352 334.191 252.043 333.815 251.847Z" fill="#FFA412"/>
<path d="M296.951 240.094L296.925 251.753L297.995 251.755L298.02 240.096L296.951 240.094Z" fill="#FFA412"/>
<path d="M286.814 240.083L286.786 251.743L287.855 251.745L287.884 240.086L286.814 240.083Z" fill="#FFA412"/>
<path d="M277.786 240.063L277.758 251.723L278.828 251.725L278.856 240.066L277.786 240.063Z" fill="#FFA412"/>
<path d="M335.237 240.201L335.209 251.86L336.278 251.863L336.306 240.203L335.237 240.201Z" fill="#FFA412"/>
<path d="M337.466 240.183L337.438 251.842L338.507 251.844L338.536 240.185L337.466 240.183Z" fill="#FFA412"/>
<path d="M339.105 240.211L339.076 251.87H339.741C339.886 251.87 340.001 251.87 340.146 251.842L340.175 240.267C340.03 240.239 339.915 240.239 339.77 240.239L339.105 240.211Z" fill="#FFA412"/>
<path d="M341.649 250.746L341.678 241.334C341.418 240.913 341.042 240.576 340.608 240.379L340.58 251.702C341.013 251.505 341.389 251.168 341.649 250.746Z" fill="#FFA412"/>
<path d="M318.956 228.512L318.927 240.171L319.997 240.174L320.025 228.514L318.956 228.512Z" fill="#FFA412"/>
<path d="M315.663 228.525H314.593L314.564 240.185H314.853L314.824 251.535H314.564L314.535 263.195H315.605L315.634 251.816H315.894L315.923 240.157H315.663V228.525Z" fill="#FFA412"/>
<path d="M307.887 240.13H307.771V251.789H307.887L307.858 263.168H308.927L308.956 251.536H308.841V240.158H308.985V228.499H307.916L307.887 240.13Z" fill="#FFA412"/>
<path d="M300.878 228.472L300.85 240.131L301.919 240.134L301.948 228.474L300.878 228.472Z" fill="#FFA412"/>
<path d="M290.052 228.464L290.023 240.124L291.093 240.126L291.122 228.467L290.052 228.464Z" fill="#FFA412"/>
<path d="M279.915 228.425L279.883 240.084L280.953 240.087L280.984 228.428L279.915 228.425Z" fill="#FFA412"/>
<path d="M270.855 228.401L270.83 240.06L271.9 240.062L271.926 228.403L270.855 228.401Z" fill="#FFA412"/>
<path d="M328.338 228.541L328.307 240.2L329.376 240.203L329.408 228.543L328.338 228.541Z" fill="#FFA412"/>
<path d="M333.671 228.726L333.642 240.049C334.076 239.852 334.451 239.515 334.712 239.093L334.741 229.682C334.48 229.26 334.134 228.923 333.671 228.726Z" fill="#FFA412"/>
<path d="M365.13 259.796L371.808 260.948C372.328 261.032 372.819 261.257 373.166 261.566C373.542 261.903 373.831 262.297 373.947 262.746C373.976 262.887 374.005 263.027 374.005 263.168C374.005 263.308 374.005 263.42 373.976 263.561L357.413 353.887C357.21 355.039 355.938 355.825 354.58 355.657C354.522 355.657 354.493 355.657 354.435 355.628L347.758 354.477C347.7 354.477 347.671 354.449 347.613 354.449C346.284 354.168 345.359 353.016 345.59 351.836L362.153 261.51C362.153 261.454 362.182 261.398 362.182 261.341C362.182 261.313 362.182 261.285 362.211 261.257C362.211 261.229 362.24 261.201 362.24 261.173C362.24 261.145 362.24 261.145 362.269 261.117C362.327 260.976 362.384 260.864 362.471 260.751C362.471 260.723 362.5 260.723 362.5 260.695C362.5 260.667 362.529 260.667 362.529 260.639C362.558 260.611 362.587 260.583 362.616 260.527C362.645 260.499 362.645 260.499 362.673 260.47C362.702 260.442 362.702 260.442 362.731 260.414C362.76 260.386 362.789 260.358 362.818 260.33C362.847 260.302 362.905 260.274 362.934 260.246C362.962 260.218 362.991 260.19 363.02 260.161C363.049 260.133 363.078 260.133 363.078 260.105C363.136 260.049 363.223 260.021 363.309 259.993C363.338 259.993 363.367 259.965 363.367 259.965C363.396 259.965 363.425 259.937 363.425 259.937C363.483 259.909 363.512 259.909 363.57 259.88C364.061 259.768 364.581 259.712 365.13 259.796Z" fill="#FFB93E"/>
<path d="M366.247 305.762L357.373 354.169C357.171 355.209 355.928 355.883 354.569 355.686C354.512 355.686 354.483 355.686 354.425 355.658L347.748 354.506C347.69 354.506 347.661 354.478 347.603 354.478C346.274 354.197 345.32 353.158 345.522 352.118L353.298 309.667C353.384 309.667 353.5 309.667 353.587 309.667C357.229 309.555 362.172 308.74 366.247 305.762Z" fill="#FFA412"/>
<path d="M360.534 270.367L360.346 271.39L372.155 273.439L372.343 272.416L360.534 270.367Z" fill="#FFA412"/>
<path d="M359.907 273.841L359.719 274.864L371.53 276.907L371.717 275.884L359.907 273.841Z" fill="#FFA412"/>
<path d="M359.14 277.974L358.953 278.998L370.763 281.043L370.951 280.019L359.14 277.974Z" fill="#FFA412"/>
<path d="M357.956 284.372L357.769 285.396L369.579 287.441L369.766 286.417L357.956 284.372Z" fill="#FFA412"/>
<path d="M356.732 291.134L356.544 292.158L368.354 294.201L368.542 293.177L356.732 291.134Z" fill="#FFA412"/>
<path d="M354.856 301.498L354.669 302.522L366.479 304.568L366.667 303.544L354.856 301.498Z" fill="#FFA412"/>
<path d="M353.03 311.205L352.842 312.229L364.652 314.271L364.84 313.248L353.03 311.205Z" fill="#FFA412"/>
<path d="M351.479 319.884L351.291 320.907L363.1 322.956L363.288 321.932L351.479 319.884Z" fill="#FFA412"/>
<path d="M361.14 267.034L360.953 268.058L372.763 270.103L372.95 269.079L361.14 267.034Z" fill="#FFA412"/>
<path d="M361.572 264.866L361.384 265.89L373.194 267.936L373.382 266.913L361.572 264.866Z" fill="#FFA412"/>
<path d="M361.929 262.718L361.741 263.741L373.551 265.786L373.739 264.763L361.929 262.718Z" fill="#FFA412"/>
<path d="M362.056 262.183L373.85 264.234L373.966 263.588C373.995 263.448 373.995 263.335 373.995 263.195L362.287 261.172C362.23 261.284 362.201 261.425 362.172 261.537L362.056 262.183Z" fill="#FFA412"/>
<path d="M362.49 260.783L373.936 262.75C373.821 262.3 373.561 261.879 373.156 261.57L363.617 259.912C363.154 260.109 362.75 260.418 362.49 260.783Z" fill="#FFA412"/>
<path d="M590.155 355.658H549.571C547.403 353.86 551.074 349.786 554.919 349.533C556.595 349.421 558.705 349.758 561.104 350.236C561.654 343.015 564.862 310.622 576.858 311.942C590.357 313.403 576.858 326.214 573.043 333.8C570.21 339.419 567.233 347.483 565.874 351.275C566.972 351.5 568.1 351.725 569.256 351.95C571.048 346.612 577.696 328.631 586.195 329.67C596.138 330.906 592.149 338.099 585.096 342.369C579.922 345.516 573.563 349.983 570.557 352.146C573.1 352.54 575.789 352.821 578.477 352.764C585.443 352.624 588.825 354.591 590.155 355.658Z" fill="white"/>
<path d="M61.1444 354.366C59.5256 351.894 54.6694 345.516 48.2234 346.359C41.1992 347.286 55.9991 351.781 60.5373 354.366C59.5256 354.366 58.6584 354.31 58.0225 354.085C54.9874 353.046 49.8132 355.04 48.1366 355.743H76.9849C76.7825 355.068 76.2622 353.973 74.9325 353.186C74.47 352.905 73.5161 352.877 72.2732 352.961C73.9786 350.995 75.1927 344.701 70.3943 346.331C66.8966 347.511 66.9256 351.36 67.2435 353.608C66.492 353.72 65.7404 353.832 65.0178 353.945C63.5725 346.837 58.5139 325.962 48.1944 325.428C37.7594 324.866 57.0397 347.061 63.4857 354.169C62.6764 354.254 61.8959 354.338 61.1444 354.366Z" fill="white"/>
<path d="M347.303 177.215C363.536 161.437 363.536 135.857 347.303 120.08C331.07 104.303 304.752 104.303 288.519 120.08C272.287 135.857 272.287 161.437 288.519 177.215C304.752 192.992 331.07 192.992 347.303 177.215Z" fill="#E2810E"/>
<path d="M354.942 160.61C360.773 139.029 347.501 116.94 325.297 111.273C303.093 105.605 280.367 118.506 274.536 140.087C268.705 161.667 281.977 183.756 304.181 189.424C326.385 195.091 349.111 182.191 354.942 160.61Z" fill="#FFB93E"/>
<path d="M315.027 187.564C301.672 187.564 288.693 180.68 281.813 168.543C276.928 159.946 275.801 150.001 278.605 140.561C281.409 131.121 287.855 123.31 296.7 118.562C305.545 113.814 315.778 112.718 325.491 115.444C335.203 118.169 343.239 124.434 348.124 133.031C358.212 150.815 351.535 173.235 333.237 183.012C327.485 186.103 321.212 187.564 315.027 187.564ZM314.911 116.146C308.985 116.146 303.117 117.607 297.77 120.473C289.445 124.94 283.403 132.273 280.744 141.151C278.113 150.029 279.183 159.384 283.779 167.476C290.254 178.91 302.452 185.372 315.027 185.372C320.837 185.372 326.705 183.996 332.168 181.074C349.367 171.859 355.64 150.787 346.158 134.071C341.562 125.979 334.018 120.107 324.884 117.523C321.588 116.595 318.235 116.146 314.911 116.146Z" fill="#FFA412"/>
<path d="M356.074 126.908C354.339 125.728 350.379 123.087 350.177 123.677C350.032 124.098 350.235 124.8 350.726 125.559C348.327 124.688 345.928 124.126 340.204 125.194C339.048 125.418 338.007 126.037 337.4 126.992C336.822 127.863 336.591 128.987 338.065 129.857C340.985 131.627 340.146 130.56 344.193 133.145C348.24 135.729 353.212 136.376 356.189 134.577L360.178 133.931L360.67 127.554C360.67 127.554 358.386 127.301 356.074 126.908Z" fill="#FFA283"/>
<path d="M460.54 73.4724C460.54 73.4724 451.145 84.3171 439.178 79.7657C439.178 79.7657 436.606 73.7252 436.577 69.2581C436.577 68.6962 436.577 68.1905 436.548 67.6848C436.49 62.6558 436.317 59.8463 436.317 59.8463C436.866 59.6215 454.614 52.5416 454.585 53.1316C454.296 66.7015 460.54 73.4724 460.54 73.4724Z" fill="#FFA283"/>
<path d="M452.822 56.3289C451.117 59.4193 445.249 65.4598 436.548 67.6512C436.49 62.6222 436.317 59.8126 436.317 59.8126C436.808 59.7003 453.342 55.4298 452.822 56.3289Z" fill="#FF8A5E"/>
<path d="M432.588 59.3074C432.588 59.3074 452.562 63.8588 455.279 51.7498C457.996 39.6127 462.419 32.0551 449.787 28.6276C437.155 25.2 433.628 29.3018 431.691 33.1228C429.813 36.9437 427.471 57.7902 432.588 59.3074Z" fill="#FFA283"/>
<path d="M454.614 55.0383C454.875 55.2069 459.182 56.4992 467.304 40.738C468.576 38.2656 469.443 32.9276 466.466 28.1795C463.489 23.4596 452.938 19.7511 444.179 18.1216C435.421 16.4921 433.311 21.2963 431.229 26.1286C429.061 31.1857 422.789 35.3438 422.789 35.3438C430.362 39.4456 439.468 33.5738 442.618 34.529C445.769 35.4842 446.896 40.3166 447.128 41.8899C447.359 43.4351 447.735 44.7275 451.695 43.3508C455.655 41.9742 453.487 48.8293 452.851 50.1217C452.88 50.1217 452.331 53.6335 454.614 55.0383Z" fill="#09434C"/>
<path d="M506.038 357.453H518.121C520.665 357.453 523.469 354.98 524.162 350.485C524.856 345.962 530.088 343.518 531.216 339.809C532.343 336.101 526.562 330.903 526.562 330.903L525.608 329.695L524.596 328.431L515.028 330.622C515.028 330.622 514.797 332.842 514.652 335.651C514.537 337.702 514.508 340.034 514.623 342.113C514.912 347.03 513.207 352.34 508.698 353.295C504.159 354.278 506.038 357.453 506.038 357.453Z" fill="#09434C"/>
<path d="M421.893 357.45H453.921C454.239 357.394 454.47 357.337 454.615 357.253C456.754 356.214 456.089 348.263 455.829 345.791C455.771 345.341 455.742 345.06 455.742 345.06C455.742 345.06 444.469 336.294 442.937 343.009C442.879 343.206 442.821 343.431 442.763 343.627C440.797 349.892 432.068 352.758 427.009 353.545C423.136 354.163 422.153 356.354 421.893 357.45Z" fill="#09434C"/>
<path d="M428.34 177.872C428.34 177.872 430.045 198.634 432.068 223.554C434.815 257.437 438.081 299.046 438.428 306.94C438.977 320.623 441.232 342.537 441.232 342.537C441.232 342.537 446.579 347.734 457.275 345.543C457.275 345.543 466.814 314.273 469.531 281.205C469.56 280.671 469.617 280.11 469.646 279.576C472.19 245.918 476.121 175.006 476.121 175.006L428.34 177.872Z" fill="#057BAA"/>
<path d="M428.34 177.872C428.34 177.872 430.045 198.634 432.068 223.554L469.56 281.205C469.589 280.671 469.646 280.11 469.675 279.576C472.219 245.918 476.15 175.006 476.15 175.006L428.34 177.872Z" fill="#074B66"/>
<path d="M436.143 180.315C436.143 180.315 466.986 255.47 487.249 290.785C507.541 326.1 513.872 335.962 513.872 335.962C513.872 335.962 525.492 331.438 526.533 328.376C526.533 328.376 518.786 260.189 505.2 243.585C497.54 234.202 488.521 206.022 488.087 196.161C487.654 186.3 485.341 166.802 485.341 166.802L436.143 180.315Z" fill="#057BAA"/>
<path d="M506.5 166.662L506.818 171.494C506.818 171.494 503.552 180.091 512.715 184.474C512.715 184.474 516.646 186.019 516.82 183.041C516.993 180.063 516.473 181.187 516.791 177.001C517.109 172.814 515.403 168.853 512.571 167.504L510.229 164.892L506.5 166.662Z" fill="#FFA283"/>
<path d="M510.085 170.204C506.674 171.271 506.125 171.019 506.125 171.019C506.125 171.019 489.504 141.631 487.828 138.934C486.151 136.237 452.562 105.95 452.562 105.95L461.205 74.6526C461.205 74.6526 499.419 122.751 503.553 129.635C510.374 141.041 514.364 167.535 514.364 167.535C514.364 167.535 512.745 169.361 510.085 170.204Z" fill="#074B66"/>
<path d="M421.835 118.222C421.951 124.656 422.326 131.876 422.847 139.209C422.876 139.63 422.904 140.08 422.933 140.501C423.251 145.053 423.627 149.604 424.032 154.043C424.205 155.813 424.379 157.583 424.552 159.325L424.581 159.55C424.581 160.196 424.668 160.898 424.754 161.544C426.431 178.177 428.194 191.325 428.541 191.522C428.946 191.775 429.379 191.915 429.842 191.859C434.322 191.297 447.735 192.308 458.69 189.976C467.94 188.066 475.918 184.47 484.359 179.638C485.486 178.991 488.03 177.278 487.827 176.013C487.625 174.609 487.249 172.586 486.758 170.057C485.081 161.207 482.22 145.98 481.237 128.168C481.035 124.852 480.774 121.565 480.399 118.334C479.445 109.934 477.942 101.955 475.918 94.8751C472.16 81.7266 466.639 71.6406 459.702 67.7073C458.806 67.2016 453.921 70.2358 449.44 73.0172C445.307 75.6019 440.942 76.3043 436.722 75.9391L432.993 79.9567C428.483 85.0418 423.685 91.8408 422.355 101.477C422.269 102.18 422.182 102.938 422.095 103.753C421.806 107.686 421.719 112.659 421.835 118.222Z" fill="#046992"/>
<path d="M421.835 118.229C421.95 124.663 422.326 131.883 422.847 139.216C422.875 139.638 422.904 140.087 422.933 140.509C448.573 124.916 452.533 96.3713 452.533 96.3713C439.93 96.9051 429.9 99.7146 422.182 103.76C421.806 107.694 421.719 112.666 421.835 118.229Z" fill="#074B66"/>
<path d="M357.028 130.526C356.767 126.817 358.733 126.227 358.733 126.227C358.733 126.227 397.409 119.428 400.676 118.417C403.971 117.406 432.068 89.0015 432.068 89.0015C432.068 89.0015 442.85 77.2016 451.666 79.8145C459.326 82.0901 462.333 87.9058 463.344 93.4405C464.558 100.043 461.436 106.673 455.54 110.185C442.358 118.052 415.938 133.56 409.695 135.33C395.849 139.263 358.646 135.639 358.646 135.639C358.646 135.639 357.23 133.42 357.028 130.526Z" fill="#046992"/>
<path opacity="0.2" d="M402.525 202.704V342.393C402.525 350.54 395.674 357.199 387.291 357.199H239.553C238.281 357.199 237.009 357.058 235.824 356.749C233.251 356.131 230.939 354.895 229.06 353.209C227.701 352.001 226.574 350.596 225.735 348.995C225.678 348.911 225.649 348.826 225.591 348.742C224.695 347.028 224.146 345.09 224.001 343.095C223.972 342.758 223.972 342.393 223.972 342.055V203.603C223.972 195.764 228.135 188.516 234.928 184.302C234.928 184.302 234.928 184.302 234.956 184.302C240.622 180.79 244.38 174.609 244.38 167.585C244.38 165.506 244.062 163.511 243.426 161.601H383.071C382.464 163.483 382.117 165.478 382.117 167.585C382.117 174.3 385.557 180.256 390.847 183.852C391.194 184.077 391.57 184.33 391.916 184.526C398.478 188.404 402.525 195.259 402.525 202.704Z" fill="white"/>
<path opacity="0.2" d="M402.525 202.704V342.393C402.525 350.203 396.252 356.637 388.361 357.171C388.014 357.199 387.638 357.199 387.291 357.199H322.253C313.697 357.199 306.672 350.372 306.672 342.055V203.603C306.672 195.764 310.835 188.516 317.628 184.302C323.293 180.79 327.051 174.609 327.051 167.585C327.051 165.506 326.733 163.511 326.097 161.601H383.071C382.464 163.483 382.117 165.478 382.117 167.585C382.117 173.092 384.43 178.093 388.159 181.689C389.286 182.785 390.558 183.74 391.916 184.526C398.478 188.404 402.525 195.259 402.525 202.704Z" fill="white"/>
<path opacity="0.6" d="M390.847 183.852C386.28 181.211 366.537 171.799 316.269 172.193C258.717 172.642 235.65 183.964 234.927 184.302C240.593 180.79 244.351 174.609 244.351 167.585C244.351 165.506 244.033 163.511 243.397 161.601H383.042C382.435 163.483 382.088 165.478 382.088 167.585C382.146 174.328 385.586 180.256 390.847 183.852Z" fill="white"/>
<path d="M386.251 160.646V166.996C386.251 167.614 385.73 168.12 385.094 168.12H241.431C240.795 168.12 240.275 167.614 240.275 166.996V160.646C240.275 160.028 240.795 159.523 241.431 159.523H385.094C385.73 159.494 386.251 160.028 386.251 160.646Z" fill="#057BAA"/>
<path d="M386.251 160.646V166.996C386.251 167.614 385.731 168.12 385.095 168.12H330.723C330.087 168.12 329.566 167.614 329.566 166.996V160.646C329.566 160.028 330.087 159.523 330.723 159.523H385.095C385.731 159.494 386.251 160.028 386.251 160.646Z" fill="#074B66"/>
<path d="M290.399 192C290.399 192 286.698 197.057 283.287 197.142C279.905 197.226 274.731 194.782 274.731 194.782C274.731 194.782 271.609 188.039 273.719 185.398C273.719 185.398 275.829 184.499 278.055 186.1C278.431 186.381 278.836 186.718 279.211 187.168C279.761 187.786 280.339 188.151 281.004 188.348C283.432 189.05 286.294 187.393 287.363 188.994C287.999 189.949 288.664 190.652 289.242 191.157C289.907 191.719 290.399 192 290.399 192Z" fill="#F9DDBF"/>
<path d="M242.125 228.555C242.125 228.555 255.219 197.735 278.778 197.145C278.778 197.145 300.515 199.505 301.729 228.555H242.125Z" fill="#F9DDBF"/>
<path d="M272.332 198.094C272.332 198.094 281.784 200.145 284.675 198.937C284.675 198.937 285.109 195.088 281.148 195.65C278.431 196.015 276.668 194.751 275.598 194.245C274.124 193.487 271.927 196.493 272.332 198.094Z" fill="#F1A34F"/>
<path d="M280.542 192.324C279.935 192.774 278.084 186.115 278.084 186.115C278.46 186.396 278.865 186.733 279.241 187.183C279.79 187.801 280.368 188.166 281.033 188.363C281.004 188.559 281.12 191.903 280.542 192.324Z" fill="#E5C1A1"/>
<path d="M289.242 191.164C289.097 191.248 284.733 193.777 284.155 193.777C283.548 193.777 287.363 189 287.363 189C287.999 189.955 288.693 190.658 289.242 191.164Z" fill="#E5C1A1"/>
<path d="M254.931 219.961C254.699 219.764 264.18 206.363 266.811 206.25C269.441 206.166 275.309 209.172 279.558 209.565C283.807 209.959 287.941 208.779 288.75 211.223C289.56 213.667 291.757 222.349 290.398 223.725C289.039 225.13 260.134 224.287 254.931 219.961Z" fill="#E5C1A1"/>
<path opacity="0.5" d="M244.322 346.664C243.571 347.058 242.79 347.423 242.039 347.76C241.316 348.182 240.565 348.575 239.813 348.968C236.315 350.738 232.731 352.171 229.06 353.239C227.701 352.031 226.574 350.626 225.736 349.024C225.158 349.333 224.579 349.614 223.972 349.895V244.511C226.661 244.848 229.32 245.382 231.951 246.056C246.606 249.905 259.643 258.952 267.592 272.297C283.317 298.762 272.939 332.055 244.322 346.664Z" fill="#E2810E"/>
<path d="M254.237 268.142C238.483 240.357 202.524 230.242 173.936 245.554C145.348 260.866 134.942 295.816 150.695 323.602C166.449 351.388 202.408 361.502 230.996 346.19C259.613 330.879 269.991 295.928 254.237 268.142Z" fill="#E2810E"/>
<path d="M228.713 347.369C227.99 347.791 227.239 348.212 226.487 348.634C226.227 348.774 225.967 348.914 225.736 349.027C225.157 349.336 224.579 349.617 223.972 349.898C195.818 363.327 161.477 353.016 146.186 326.045C131.588 300.31 139.422 268.422 163.385 251.678C165.293 250.329 167.316 249.093 169.426 247.969C170.178 247.576 170.958 247.183 171.71 246.817C172.462 246.452 173.213 246.115 173.965 245.778C176.277 244.766 178.619 243.924 181.018 243.249C184.544 242.21 188.129 241.507 191.713 241.142C202.842 239.99 214.057 241.985 224.001 246.705C234.552 251.706 243.657 259.825 249.757 270.558C265.077 297.641 255.624 331.468 228.713 347.369Z" fill="#FFB93E"/>
<path d="M198.361 351.273C193.332 351.273 188.273 350.57 183.33 349.194C169.513 345.316 158.066 336.41 151.129 324.189C144.191 311.94 142.573 297.808 146.562 284.378C150.551 270.949 159.714 259.823 172.288 253.081C184.891 246.338 199.431 244.764 213.248 248.642C227.065 252.519 238.512 261.425 245.449 273.646C252.387 285.896 254.005 300.027 250.016 313.457C246.027 326.886 236.864 338.012 224.29 344.755C216.225 349.081 207.351 351.273 198.361 351.273ZM153.933 322.672C160.466 334.191 171.219 342.535 184.226 346.187C197.234 349.84 210.906 348.351 222.758 342.001C234.609 335.652 243.194 325.2 246.952 312.558C250.71 299.915 249.178 286.626 242.645 275.107C236.113 263.588 225.359 255.244 212.352 251.592C199.344 247.939 185.672 249.428 173.82 255.778C161.969 262.127 153.384 272.579 149.626 285.221C145.868 297.864 147.4 311.153 153.933 322.672Z" fill="#FFA412"/>
<path d="M154.02 96.035C154.193 95.3327 138.266 103.031 137.456 103.902C129.999 111.965 132.109 122.472 136.387 122.557C139.133 122.613 138.584 127.052 138.584 127.052L169.109 114.493C169.166 114.493 165.466 93.647 154.02 96.035Z" fill="#09434C"/>
<path d="M157.777 97.6611C157.777 97.6611 158.876 86.0859 145.579 86.0859C145.579 86.0859 149.597 87.1535 151.678 89.2607C151.678 89.2607 143.209 84.4283 133.988 91.8454C124.767 99.2906 130.49 117.918 127.686 121.458C124.882 124.997 113.956 125.7 115.286 137.163C116.615 148.597 149.973 162.954 147.805 172.422C147.805 172.422 160.87 153.767 151.534 145.226C151.534 145.226 156.101 149.384 156.563 154.357C156.563 154.357 157.806 144.692 151.476 141.602C145.868 138.876 141.272 128.846 141.763 127.048C142.255 125.25 157.777 97.6611 157.777 97.6611Z" fill="#09434C"/>
<path d="M145.724 152.048C143.671 142.468 130.866 139.49 124.825 147.328C123.726 148.733 122.975 150.39 122.714 152.357C121.327 163.258 139.249 207.592 141.821 211.61C146.504 218.914 173.994 243.975 173.994 243.975L179.052 240.997C179.052 240.997 159.541 208.912 156.534 205.906C153.037 202.422 149.597 170.254 145.724 152.048Z" fill="#FF8A5E"/>
<path d="M172.057 241.004C172.057 241.004 179.457 236.284 182.261 236.593C185.065 236.902 193.158 239.177 193.274 240.329C193.361 241.481 184.255 242.212 183.619 242.83C183.012 243.476 176.798 247.493 174.572 246.229C172.288 244.965 172.057 241.004 172.057 241.004Z" fill="#FF8A5E"/>
<path d="M120.46 347.653L113.84 346.698C113.84 346.698 91.6114 329.532 88.3161 297.504C87.9693 294.245 87.9115 290.929 88.1716 287.614C88.2005 287.221 88.1427 286.856 87.9404 286.518C87.2177 285.451 85.4545 282.81 83.0553 279.017C80.685 275.309 76.6381 268.257 72.2155 260.362C64.2085 246.146 54.8719 229.149 51.6633 223.754C41.4595 206.532 46.3735 194.929 46.3735 194.929C46.3735 194.929 74.817 192.204 82.5928 185.573L85.3966 189.787C85.3966 189.787 91.5536 216.309 91.2646 216.421C91.5536 217.321 91.8716 218.248 92.1896 219.175C97.0458 233.756 102.654 251.99 105.689 266.852C107.394 275.196 108.319 282.501 107.828 287.446C107.654 289.159 107.857 291.772 108.319 295.003C111.094 313.995 120.46 347.653 120.46 347.653Z" fill="#057BAA"/>
<path d="M134.306 355.767H106.729C106.729 355.767 106.064 351.693 107.51 348.574C108.897 345.596 110.863 345.512 107.77 340.848C109.533 342.59 115.141 343.321 119.13 342.815C119.621 343.574 122.281 348.743 123.9 349.895C125.721 351.159 133.757 350.71 134.306 355.767Z" fill="#074B66"/>
<path d="M92.2187 219.147C89.8195 232.042 84.125 253.535 72.2157 260.39C64.2086 246.174 54.8719 229.177 51.6634 223.783C41.4595 206.532 46.3735 194.929 46.3735 194.929C46.3735 194.929 74.8172 192.204 82.593 185.573L85.3969 189.788C85.3969 189.788 91.5539 216.309 91.2648 216.422C91.5828 217.321 91.9007 218.22 92.2187 219.147Z" fill="#074B66"/>
<path d="M142.775 146.1C142.775 146.1 146.678 150.033 148.441 154.753C148.441 154.753 142.226 172.116 127.686 174.279C127.686 174.279 139.191 146.1 142.775 146.1Z" fill="#ED7D2B"/>
<path d="M72.8804 196.918L72.9671 191.917C62.7054 193.181 37.5571 179.977 37.5571 179.977C37.5571 179.977 26.8041 186.916 25.3299 206.779C24.6072 216.472 20.069 257.435 19.5775 269.656C19.4041 274.095 19.3463 277.242 19.3174 278.506C19.3174 278.899 19.1151 279.236 18.8838 279.545C16.7448 282.158 14.9237 284.94 13.3049 287.833C-2.36217 316.181 5.81826 354.7 5.81826 354.7L9.46042 353.801C9.46042 353.801 22.7283 313.878 31.3712 296.599C32.8454 293.677 34.1751 291.402 35.3025 290.081C38.5689 286.232 42.0087 279.714 45.3907 271.847C51.7789 256.985 57.9937 237.375 62.4453 222.203C62.7343 222.232 72.8804 196.918 72.8804 196.918Z" fill="#057BAA"/>
<path d="M132.976 163.457C116.182 159.721 126.906 136.767 127.889 137.188C130.201 136.739 135.317 132.749 139.885 124.995L140.492 125.529L150.811 134.322C150.811 134.322 148.441 137.75 146.417 141.093C144.856 143.706 143.527 146.291 143.729 147.19C144.596 147.808 137.456 164.469 132.976 163.457Z" fill="#FFA283"/>
<path d="M150.84 134.294C150.84 134.294 148.441 137.721 146.446 141.065C140.029 137.216 140.029 129.518 140.521 125.5L150.84 134.294Z" fill="#FF8A5E"/>
<path d="M151.129 138.712C151.129 138.712 135.549 130.284 141.099 120.956C146.649 111.601 148.383 104.24 158.558 109.213C168.733 114.185 168.531 118.821 167.461 122.389C166.392 125.929 155.321 140.679 151.129 138.712Z" fill="#FFA283"/>
<path d="M170.091 116.933C169.369 112.775 167.201 112.382 165.698 112.663C159.945 103.42 150.551 107.016 150.551 107.016C145.521 113.141 138.266 114.18 138.266 114.18C138.266 114.18 140.087 117.439 147.516 119.462C149.799 120.08 152.372 119.715 154.858 118.9C149.684 121.709 144.278 122.777 144.278 122.777C154.078 123.648 163.414 114.939 164.397 114.011C164.859 115.36 165.64 118.198 165.177 120.249C164.542 123.058 161.969 128.143 163.53 128.818C163.53 128.818 171.161 123.142 170.091 116.933Z" fill="#09434C"/>
<path d="M27.7291 355.771H0.15265C0.15265 355.771 -0.512195 351.697 0.93311 348.578C2.3206 345.6 4.48856 344.252 3.96825 340.655C5.73152 342.397 8.56432 344.364 12.5534 343.858C13.0448 344.617 15.7041 348.747 17.3229 349.899C19.144 351.163 27.1798 350.713 27.7291 355.771Z" fill="#074B66"/>
<path d="M134.97 181.64C131.415 182.848 126.443 183.494 121.356 184.028C114.1 184.786 106.613 185.32 102.711 186.837C101.295 187.399 100.312 188.073 100.023 188.944C98.3174 193.917 90.8308 201.587 90.8308 201.587C42.8179 199.452 37.557 179.954 37.557 179.954C69.845 143.458 124.535 132.895 124.535 132.895C124.535 132.895 128.438 131.293 138.266 138.879C144.827 143.964 143.96 145.903 143.96 145.903C143.96 145.903 145.405 178.128 134.97 181.64Z" fill="#046992"/>
<path d="M121.356 184.056C114.1 184.815 106.614 185.349 102.711 186.866C101.121 163.603 112.395 146.1 112.395 146.1C112.395 146.1 119.766 175.235 121.356 184.056Z" fill="#074B66"/>
<path d="M128.814 141.597C128.814 141.597 110.632 143.339 109.186 154.829C107.741 166.292 126.617 213.042 129.305 217.285C134.219 224.983 163.212 251.392 163.212 251.392L168.559 248.245C168.559 248.245 148.007 214.419 144.827 211.272C139.798 206.243 134.971 145.558 128.814 141.597Z" fill="#FFA283"/>
<path d="M109.706 161.715C109.764 161.967 126.472 167.024 137.225 161.715C137.225 161.715 139.538 137.581 126.674 138.902C113.84 140.222 106.209 144.155 105.891 150.111C105.602 156.096 109.706 161.715 109.706 161.715Z" fill="#074B66"/>
<path d="M161.564 248.002C161.564 248.002 168.068 242.186 170.901 242.046C173.705 241.905 182.087 242.888 182.376 244.012C182.666 245.136 173.763 247.271 173.271 248.002C172.78 248.732 167.316 253.677 164.888 252.778C162.46 251.879 161.564 248.002 161.564 248.002Z" fill="#FFA283"/>
</svg>
