<svg width="685" height="282" viewBox="0 0 685 282" fill="none" xmlns="http://www.w3.org/2000/svg">
<path d="M61.8431 157.574C67.3271 166.775 78.5553 170.88 88.9229 170.919C99.2905 170.938 105.935 175.588 98.2498 190.275C94.9874 199.223 86.8414 210.74 81.9178 223.404C81.9378 223.423 81.9578 223.423 81.9779 223.443C88.6227 225.368 114.922 240.25 134.356 246.709C134.937 246.806 135.477 246.923 135.957 247.039C141.141 248.323 142.983 240.056 144.023 229.123C144.764 221.478 148.527 210.993 161.136 207.744C173.745 204.495 183.993 210.545 188.156 220.544C192.299 230.543 186.054 242.02 181.151 248.42C176.227 254.801 178.268 262.057 189.357 265.87C200.365 269.644 232.848 274.838 240.374 277.834H240.394C244.517 265.209 246.018 250.677 249.14 242.079C252.643 225.971 260.809 226.399 268.895 232.722C276.981 239.025 288.369 242.682 298.597 238.869C308.804 235.056 315.009 222.061 309.925 209.825C305.261 198.562 293.113 196.111 281.224 194.555C269.355 192.998 268.635 187.707 272.778 177.027C276.921 166.347 291.231 141.233 293.813 131.254C293.813 131.196 293.733 131.176 293.653 131.196C286.127 128.2 253.644 123.006 242.636 119.232C231.547 115.419 229.526 108.163 234.43 101.782C239.353 95.4016 245.598 83.9243 241.435 73.9059C237.292 63.9069 227.024 57.857 214.415 61.1057C201.806 64.3544 198.043 74.8396 197.302 82.4847C196.242 93.4174 194.42 101.685 189.236 100.401C188.756 100.284 188.216 100.187 187.635 100.07C168.181 93.612 141.902 78.7303 135.257 76.8044C135.197 76.746 135.137 76.7071 135.077 76.746C130.654 86.0836 125.57 114.349 121.887 125.204C118.204 136.059 112.62 140.377 103.974 133.686C94.6071 126.429 84.4797 123.862 71.5902 127.986C60.1018 131.682 56.3591 148.373 61.8431 157.574Z" fill="#56CCF2"/>
<path d="M352.339 235.072C348.836 224.645 353.3 213.42 360.425 205.639C367.53 197.858 368.431 189.707 351.518 185.35C341.071 182.723 327.481 179.786 314.051 174.767C314.051 174.748 314.051 174.728 314.051 174.689C317.093 168.386 323.398 138.487 331.684 119.52C332.004 119.014 332.284 118.548 332.524 118.1C335.086 113.354 342.892 117.653 352.259 124.403C358.804 129.111 369.712 133.507 380.96 126.309C392.188 119.112 394.47 107.284 389.406 97.2853C384.343 87.3059 370.953 84.0767 362.526 83.3569C354.08 82.6371 349.737 76.1203 354.36 65.2266C358.944 54.4107 377.177 26.5343 379.999 18.8504C379.999 18.8504 379.999 18.8504 380.019 18.8309C392.849 24.4334 405.398 33.304 414.345 36.8834C429.516 45.3455 434.78 38.9454 435.36 28.5575C435.941 18.1695 440.864 7.12013 450.912 2.12067C460.959 -2.89823 475.51 1.42036 481.694 13.6175C487.398 24.8614 480.994 35.6384 474.049 45.5789C467.103 55.5195 470.806 59.7019 482.115 63.9621C493.423 68.2224 523.165 74.7781 532.812 79.7192C532.852 79.7581 532.812 79.8164 532.752 79.8942C529.95 87.5782 511.696 115.455 507.113 126.27C502.51 137.164 506.853 143.681 515.279 144.401C523.725 145.121 537.095 148.35 542.159 158.329C547.222 168.309 544.941 180.156 533.713 187.353C522.484 194.551 511.576 190.155 505.011 185.447C495.644 178.716 487.839 174.397 485.277 179.144C485.037 179.572 484.756 180.058 484.436 180.564C476.17 199.55 469.846 229.43 466.803 235.733C466.803 235.83 466.783 235.889 466.723 235.889C456.296 232.776 430.396 217.136 419.288 212.409C408.16 207.701 400.895 208.907 400.254 219.957C399.554 231.959 394.61 241.297 382.481 248.086C371.633 254.194 355.842 245.518 352.339 235.072Z" fill="#27C58B"/>
<path d="M54.5593 257.168L53.4985 266.389L56.6208 269.385L60.7238 267.011C60.7238 267.011 60.1434 265.28 59.9233 263.821C59.7031 262.343 62.6052 255.359 62.6052 255.359L54.5593 257.168Z" fill="#E76A53"/>
<path d="M53.1594 264.6C53.1594 264.6 52.0386 266.117 51.7384 268.704C51.4381 271.272 52.1987 273.704 52.1987 273.704C52.1987 273.704 65.048 274.404 70.0717 273.49C75.0953 272.576 75.5557 271.72 75.4156 270.339C75.2955 268.957 68.4705 269.366 66.429 267.712C64.3876 266.059 61.5455 262.479 60.3246 263.063C59.1237 263.647 59.3439 265.864 57.7227 266C56.1015 266.137 53.8999 263.744 53.1594 264.6Z" fill="#09434C"/>
<path d="M14.1102 257.365L6.4045 262.832L6.24438 267.092L10.8278 268.434C10.8278 268.434 11.7484 266.859 12.7091 265.711C13.6899 264.563 20.9352 261.918 20.9352 261.918L14.1102 257.365Z" fill="#E76A53"/>
<path d="M7.54552 261.392C7.54552 261.392 5.62411 261.626 3.48255 263.162C1.34098 264.699 0 266.859 0 266.859C0 266.859 8.14596 276.527 12.2289 279.523C16.3119 282.518 17.2726 282.246 18.2333 281.234C19.194 280.203 14.2704 275.593 14.1503 273.006C14.0303 270.419 14.8108 265.964 13.5499 265.497C12.289 265.03 10.7679 266.703 9.54698 265.614C8.36612 264.544 8.68635 261.334 7.54552 261.392Z" fill="#09434C"/>
<path d="M31.9435 184.626C31.9435 184.626 37.6477 222.404 37.6477 227.092C37.6477 231.781 10.4878 256.603 10.4878 256.603C10.4878 256.603 11.4085 265.046 17.9332 265.901C19.5344 266.115 49.8967 239.718 51.658 235.769C53.6594 231.236 59.1635 199.197 59.1635 199.197C59.1635 199.197 71.4925 217.21 70.9521 220.926C70.1115 226.762 51.678 258.023 51.678 258.023C51.678 258.023 54.1998 263.431 63.1464 259.696C63.1464 259.696 87.7444 229.193 91.4071 225.653C95.0698 222.093 64.9477 174.083 64.9477 174.083L31.9435 184.626Z" fill="#0099A0"/>
<path d="M31.9429 184.631C34.9651 197.567 38.5477 219.219 38.968 226.883C39.9087 232.038 15.4907 252.659 10.467 256.608C19.5938 246.764 35.5455 230.696 36.2661 227.233C36.0659 225.677 36.9265 231.338 35.0652 215.484C34.6849 212.06 34.2446 208.656 33.8843 205.212C33.1438 198.384 32.4232 191.537 31.9429 184.631Z" fill="#007378"/>
<g opacity="0.5">
<path opacity="0.5" d="M47.734 186.619C47.5339 184.595 47.1336 182.358 46.5531 179.966L31.9624 184.634C31.9624 184.634 32.723 189.673 33.6837 196.306C36.6659 197.843 39.548 198.855 41.1892 198.543C44.0113 197.999 47.734 193.816 47.734 186.619Z" fill="#0D5965"/>
</g>
<path d="M67.361 176.698C67.2553 176.698 67.176 176.671 67.0703 176.671C67.1496 176.671 67.2553 176.671 67.361 176.698Z" fill="#0099A0"/>
<path d="M26.6604 115.418C26.7156 115.445 26.7708 115.445 26.8536 115.473C26.7708 115.445 26.7156 115.445 26.6604 115.418Z" fill="#0099A0"/>
<path d="M26.4585 115.381C26.5413 115.408 26.6241 115.408 26.707 115.436C26.6241 115.408 26.5413 115.408 26.4585 115.381Z" fill="#0099A0"/>
<path d="M63.538 176.522C63.4413 176.522 63.3446 176.522 63.2478 176.522C63.3446 176.546 63.4413 176.546 63.538 176.522Z" fill="#0099A0"/>
<path d="M63.2945 176.536C63.2074 176.536 63.0914 176.536 63.0044 176.565C63.0914 176.536 63.2074 176.536 63.2945 176.536Z" fill="#0099A0"/>
<path d="M27.2012 115.555C27.2564 115.583 27.3392 115.583 27.3944 115.61C27.3392 115.583 27.284 115.583 27.2012 115.555Z" fill="#0099A0"/>
<path d="M27.5605 115.652C27.7407 115.691 27.9008 115.75 28.0809 115.79C27.9008 115.731 27.7407 115.691 27.5605 115.652Z" fill="#0099A0"/>
<path d="M66.7958 176.645C66.713 176.645 66.6302 176.617 66.5474 176.617C66.6302 176.617 66.713 176.617 66.7958 176.645Z" fill="#0099A0"/>
<path d="M28.1023 115.788C28.1575 115.815 28.2127 115.815 28.2955 115.843C28.2127 115.815 28.1575 115.815 28.1023 115.788Z" fill="#0099A0"/>
<path d="M67.0825 176.655C66.9857 176.655 66.889 176.631 66.7922 176.631C66.9132 176.631 66.9857 176.655 67.0825 176.655Z" fill="#0099A0"/>
<path d="M66.5378 176.601C66.4411 176.601 66.3443 176.576 66.2476 176.576C66.3443 176.601 66.4411 176.601 66.5378 176.601Z" fill="#0099A0"/>
<path d="M66.0005 176.56C65.9037 176.56 65.807 176.56 65.7102 176.536C65.807 176.56 65.9037 176.56 66.0005 176.56Z" fill="#0099A0"/>
<path d="M65.7564 176.564C65.6694 176.564 65.5533 176.564 65.4663 176.564C65.5533 176.535 65.6403 176.535 65.7564 176.564Z" fill="#0099A0"/>
<path d="M27.3794 115.591C27.4622 115.619 27.545 115.619 27.6279 115.647C27.545 115.647 27.4622 115.619 27.3794 115.591Z" fill="#0099A0"/>
<path d="M66.3003 176.589C66.2133 176.589 66.0973 176.56 66.0103 176.56C66.0973 176.589 66.1843 176.589 66.3003 176.589Z" fill="#0099A0"/>
<path d="M26.8376 115.476C26.9577 115.495 27.0578 115.535 27.1779 115.554C27.0778 115.515 26.9577 115.495 26.8376 115.476Z" fill="#0099A0"/>
<path d="M60.498 176.793C60.4013 176.817 60.3045 176.817 60.2078 176.842C60.3045 176.817 60.4013 176.793 60.498 176.793Z" fill="#0099A0"/>
<path d="M60.253 176.835C60.1474 176.862 60.0681 176.862 59.9624 176.888C60.0417 176.862 60.1474 176.835 60.253 176.835Z" fill="#0099A0"/>
<path d="M24.3772 114.933C24.46 114.961 24.5428 114.961 24.6257 114.988C24.5428 114.961 24.46 114.961 24.3772 114.933Z" fill="#0099A0"/>
<path d="M61.0549 176.712C60.9581 176.712 60.8614 176.736 60.7646 176.76C60.8614 176.736 60.9581 176.736 61.0549 176.712Z" fill="#0099A0"/>
<path d="M24.5564 114.972C24.6765 114.992 24.8166 115.011 24.9367 115.051C24.8166 115.031 24.6965 114.992 24.5564 114.972Z" fill="#0099A0"/>
<path d="M60.8164 176.752C60.7294 176.752 60.6134 176.781 60.5264 176.781C60.6134 176.781 60.7004 176.752 60.8164 176.752Z" fill="#0099A0"/>
<path d="M59.3942 176.969C59.3114 176.997 59.2286 176.997 59.1458 177.024C59.2286 176.997 59.3114 176.969 59.3942 176.969Z" fill="#0099A0"/>
<path d="M59.9734 176.87C59.8864 176.899 59.7704 176.899 59.6833 176.928C59.7704 176.899 59.8864 176.899 59.9734 176.87Z" fill="#0099A0"/>
<path d="M23.9797 114.867C24.0626 114.895 24.1454 114.895 24.2282 114.922C24.1454 114.895 24.0626 114.867 23.9797 114.867Z" fill="#0099A0"/>
<path d="M59.6945 176.904C59.5978 176.928 59.501 176.928 59.4043 176.952C59.501 176.928 59.5978 176.928 59.6945 176.904Z" fill="#0099A0"/>
<path d="M24.1775 114.893C24.2603 114.92 24.3431 114.92 24.4259 114.948C24.3431 114.948 24.2603 114.92 24.1775 114.893Z" fill="#0099A0"/>
<path d="M26.2808 115.34C26.3636 115.368 26.4188 115.368 26.5016 115.395C26.4188 115.368 26.3636 115.34 26.2808 115.34Z" fill="#0099A0"/>
<path d="M62.4566 176.595C62.3696 176.595 62.2535 176.595 62.1665 176.624C62.2535 176.595 62.3696 176.595 62.4566 176.595Z" fill="#0099A0"/>
<path d="M61.3545 176.698C61.2675 176.698 61.1805 176.727 61.0645 176.727C61.1515 176.698 61.2675 176.698 61.3545 176.698Z" fill="#0099A0"/>
<path d="M25.8994 115.247C26.0195 115.267 26.1396 115.306 26.2597 115.326C26.1396 115.306 26.0195 115.287 25.8994 115.247Z" fill="#0099A0"/>
<path d="M62.736 176.56C62.6393 176.56 62.5425 176.584 62.4458 176.584C62.5425 176.584 62.6393 176.584 62.736 176.56Z" fill="#0099A0"/>
<path d="M62.976 176.56C62.8793 176.56 62.7825 176.56 62.6858 176.584C62.7825 176.56 62.8793 176.56 62.976 176.56Z" fill="#0099A0"/>
<path d="M62.1777 176.595C62.0809 176.595 61.9842 176.619 61.8875 176.619C61.9842 176.619 62.0809 176.619 62.1777 176.595Z" fill="#0099A0"/>
<path d="M61.6123 176.657C61.5155 176.657 61.4188 176.682 61.322 176.682C61.4188 176.682 61.5155 176.682 61.6123 176.657Z" fill="#0099A0"/>
<path d="M24.9377 115.042C25.1179 115.082 25.298 115.121 25.4982 115.161C25.318 115.121 25.1379 115.082 24.9377 115.042Z" fill="#0099A0"/>
<path d="M61.9138 176.631C61.8268 176.631 61.7108 176.66 61.6238 176.66C61.7108 176.631 61.7978 176.631 61.9138 176.631Z" fill="#0099A0"/>
<path d="M25.5195 115.164C25.6396 115.184 25.7597 115.223 25.8798 115.243C25.7597 115.223 25.6396 115.184 25.5195 115.164Z" fill="#0099A0"/>
<path d="M68.4001 176.855C68.3034 176.831 68.2066 176.831 68.1099 176.807C68.2308 176.831 68.3275 176.831 68.4001 176.855Z" fill="#0099A0"/>
<path d="M34.7852 117.984C34.8128 117.984 34.8128 118.012 34.8404 118.012C34.8128 118.012 34.8128 118.012 34.7852 117.984Z" fill="#0099A0"/>
<path d="M30.7417 116.561C30.9218 116.62 31.122 116.679 31.3021 116.738C31.122 116.679 30.9419 116.62 30.7417 116.561Z" fill="#0099A0"/>
<path d="M34.1655 117.754C34.1931 117.781 34.2483 117.781 34.276 117.809C34.2483 117.781 34.2207 117.781 34.1655 117.754Z" fill="#0099A0"/>
<path d="M33.6057 117.537C33.7175 117.581 33.807 117.603 33.8964 117.647C33.807 117.603 33.6952 117.581 33.6057 117.537Z" fill="#0099A0"/>
<path d="M33.9265 117.656C34.0233 117.703 34.12 117.727 34.2167 117.775C34.12 117.727 34.0233 117.703 33.9265 117.656Z" fill="#0099A0"/>
<path d="M30.5818 116.506C30.637 116.534 30.7198 116.562 30.775 116.562C30.7198 116.562 30.637 116.534 30.5818 116.506Z" fill="#0099A0"/>
<path d="M34.644 117.944C34.6993 117.971 34.7545 117.998 34.8097 118.025C34.7821 117.971 34.7269 117.971 34.644 117.944Z" fill="#0099A0"/>
<path d="M30.1216 116.371C30.1768 116.398 30.2596 116.398 30.3148 116.426C30.232 116.398 30.1768 116.371 30.1216 116.371Z" fill="#0099A0"/>
<path d="M67.83 176.772C67.6698 176.752 67.5097 176.732 67.3496 176.712C67.5097 176.712 67.6698 176.732 67.83 176.772Z" fill="#0099A0"/>
<path d="M34.344 117.826C34.3992 117.853 34.4544 117.88 34.5096 117.908C34.4544 117.853 34.3992 117.826 34.344 117.826Z" fill="#0099A0"/>
<path d="M34.5044 117.889C34.5596 117.917 34.6148 117.944 34.67 117.944C34.6148 117.917 34.5596 117.917 34.5044 117.889Z" fill="#0099A0"/>
<path d="M34.2644 117.793C34.292 117.793 34.3196 117.821 34.3472 117.821C34.3196 117.793 34.292 117.793 34.2644 117.793Z" fill="#0099A0"/>
<path d="M32.4229 117.105C32.4781 117.133 32.5057 117.133 32.5609 117.161C32.5333 117.161 32.4781 117.133 32.4229 117.105Z" fill="#0099A0"/>
<path d="M32.5642 117.174C32.6194 117.202 32.647 117.202 32.7022 117.229C32.647 117.202 32.5918 117.174 32.5642 117.174Z" fill="#0099A0"/>
<path d="M31.9019 116.932C32.022 116.971 32.1621 117.01 32.2822 117.069C32.1621 117.03 32.022 116.971 31.9019 116.932Z" fill="#0099A0"/>
<path d="M32.304 117.069C32.3592 117.097 32.4144 117.097 32.4696 117.124C32.4144 117.124 32.3592 117.097 32.304 117.069Z" fill="#0099A0"/>
<path d="M31.5022 116.794C31.6223 116.833 31.7624 116.873 31.8825 116.912C31.7424 116.873 31.6223 116.833 31.5022 116.794Z" fill="#0099A0"/>
<path d="M33.5039 117.496C33.5315 117.496 33.5591 117.524 33.6143 117.524C33.5867 117.524 33.5315 117.524 33.5039 117.496Z" fill="#0099A0"/>
<path d="M32.6853 117.207C32.8855 117.286 33.0656 117.345 33.2457 117.404C33.0656 117.345 32.8855 117.286 32.6853 117.207Z" fill="#0099A0"/>
<path d="M33.3853 117.456C33.4129 117.483 33.4681 117.483 33.4957 117.511C33.4405 117.483 33.4129 117.456 33.3853 117.456Z" fill="#0099A0"/>
<path d="M31.343 116.737C31.3982 116.765 31.4534 116.765 31.5087 116.792C31.4534 116.792 31.3982 116.765 31.343 116.737Z" fill="#0099A0"/>
<path d="M33.2832 117.413C33.3108 117.413 33.3384 117.441 33.3936 117.441C33.366 117.441 33.3384 117.441 33.2832 117.413Z" fill="#0099A0"/>
<path d="M30.2632 116.411C30.3633 116.451 30.4633 116.47 30.5634 116.51C30.4633 116.47 30.3633 116.451 30.2632 116.411Z" fill="#0099A0"/>
<path d="M28.6211 115.923C28.7039 115.951 28.7591 115.978 28.8419 115.978C28.7591 115.978 28.7039 115.951 28.6211 115.923Z" fill="#0099A0"/>
<path d="M68.7 176.928C68.613 176.899 68.4969 176.899 68.4099 176.87C68.5259 176.87 68.613 176.899 68.7 176.928Z" fill="#0099A0"/>
<path d="M68.9421 176.952C68.8454 176.928 68.7486 176.904 68.6519 176.904C68.7486 176.928 68.8454 176.952 68.9421 176.952Z" fill="#0099A0"/>
<path d="M28.7812 115.978C28.8365 116.005 28.9193 116.005 28.9745 116.033C28.9193 116.005 28.8641 115.978 28.7812 115.978Z" fill="#0099A0"/>
<path d="M69.4812 177.079C69.3844 177.055 69.2877 177.031 69.1909 177.008C69.2877 177.031 69.3844 177.055 69.4812 177.079Z" fill="#0099A0"/>
<path d="M69.2229 177.027C69.1359 176.998 69.0489 176.998 68.9329 176.969C69.0489 176.998 69.1359 176.998 69.2229 177.027Z" fill="#0099A0"/>
<path d="M68.1797 176.825C68.0927 176.796 67.9767 176.796 67.8896 176.767C67.9767 176.796 68.0637 176.796 68.1797 176.825Z" fill="#0099A0"/>
<path d="M28.4604 115.883C28.5157 115.91 28.5985 115.91 28.6537 115.938C28.5709 115.91 28.5157 115.91 28.4604 115.883Z" fill="#0099A0"/>
<path d="M28.2808 115.828C28.336 115.856 28.4188 115.856 28.474 115.883C28.4188 115.883 28.336 115.856 28.2808 115.828Z" fill="#0099A0"/>
<path d="M59.1342 177.008C59.0375 177.032 58.9407 177.032 58.844 177.056C58.9407 177.032 59.0375 177.032 59.1342 177.008Z" fill="#0099A0"/>
<path d="M35.0859 118.12C35.1687 118.147 35.224 118.174 35.3068 118.202C35.224 118.174 35.1687 118.147 35.0859 118.12Z" fill="#0099A0"/>
<path d="M69.7603 177.15C69.6732 177.122 69.5572 177.093 69.4702 177.064C69.5572 177.093 69.6442 177.122 69.7603 177.15Z" fill="#0099A0"/>
<path d="M35.2454 118.175C35.273 118.202 35.3006 118.202 35.3282 118.202C35.3006 118.202 35.273 118.175 35.2454 118.175Z" fill="#0099A0"/>
<path d="M29.4604 116.175C29.6806 116.234 29.9008 116.312 30.1009 116.371C29.8807 116.293 29.6806 116.234 29.4604 116.175Z" fill="#0099A0"/>
<path d="M35.3254 118.215C35.353 118.215 35.3807 118.243 35.4083 118.243C35.3807 118.243 35.353 118.215 35.3254 118.215Z" fill="#0099A0"/>
<path d="M34.906 118.039C34.9612 118.066 35.0164 118.093 35.0992 118.12C35.0164 118.093 34.9612 118.066 34.906 118.039Z" fill="#0099A0"/>
<path d="M29.3 116.113C29.3829 116.141 29.4381 116.168 29.5209 116.168C29.4381 116.168 29.3553 116.141 29.3 116.113Z" fill="#0099A0"/>
<path d="M70.0399 177.223C69.9342 177.197 69.8285 177.171 69.7493 177.145C69.8285 177.171 69.9342 177.197 70.0399 177.223Z" fill="#0099A0"/>
<path d="M28.9617 116.018C29.0617 116.058 29.1818 116.077 29.2819 116.117C29.1818 116.077 29.0818 116.058 28.9617 116.018Z" fill="#0099A0"/>
<path d="M35.3867 118.239C35.4143 118.239 35.4143 118.239 35.4143 118.267C35.4143 118.239 35.4143 118.239 35.3867 118.239Z" fill="#0099A0"/>
<path d="M21.2361 114.486C21.3562 114.506 21.4763 114.506 21.6164 114.526C21.4963 114.506 21.3762 114.506 21.2361 114.486Z" fill="#0099A0"/>
<path d="M52.0004 178.949C51.9451 178.977 51.8899 179.005 51.8347 179.005C51.8899 179.005 51.9451 178.977 52.0004 178.949Z" fill="#0099A0"/>
<path d="M51.8062 179.031C51.7191 179.059 51.6031 179.116 51.5161 179.145C51.6321 179.116 51.7191 179.088 51.8062 179.031Z" fill="#0099A0"/>
<path d="M50.8585 179.356C50.8308 179.356 50.8032 179.384 50.7756 179.384C50.8032 179.384 50.8308 179.384 50.8585 179.356Z" fill="#0099A0"/>
<path d="M52.3073 178.854C52.2245 178.881 52.1417 178.908 52.0588 178.936C52.1417 178.908 52.2245 178.881 52.3073 178.854Z" fill="#0099A0"/>
<path d="M19.8735 114.385C19.9936 114.385 20.1137 114.405 20.2338 114.405C20.1137 114.385 19.9936 114.385 19.8735 114.385Z" fill="#0099A0"/>
<path d="M51.2069 179.244C51.1793 179.271 51.124 179.271 51.0964 179.299C51.124 179.271 51.1516 179.244 51.2069 179.244Z" fill="#0099A0"/>
<path d="M19.2737 114.353C19.3938 114.353 19.5139 114.353 19.654 114.373C19.5339 114.373 19.4138 114.373 19.2737 114.353Z" fill="#0099A0"/>
<path d="M51.4366 179.141C51.3814 179.168 51.3538 179.168 51.2986 179.196C51.3538 179.196 51.409 179.168 51.4366 179.141Z" fill="#0099A0"/>
<path d="M52.5177 178.762C52.4625 178.79 52.4349 178.79 52.3796 178.817C52.4349 178.817 52.4625 178.79 52.5177 178.762Z" fill="#0099A0"/>
<path d="M53.8964 178.312C53.8136 178.339 53.7583 178.366 53.6755 178.393C53.7583 178.366 53.8136 178.339 53.8964 178.312Z" fill="#0099A0"/>
<path d="M20.6548 114.422C20.8349 114.441 21.0351 114.461 21.2152 114.481C21.0351 114.461 20.8349 114.441 20.6548 114.422Z" fill="#0099A0"/>
<path d="M52.7623 178.678C52.7071 178.706 52.6519 178.706 52.5967 178.733C52.6519 178.733 52.7071 178.706 52.7623 178.678Z" fill="#0099A0"/>
<path d="M54.4352 178.149C54.38 178.177 54.2972 178.177 54.2419 178.205C54.2972 178.177 54.38 178.149 54.4352 178.149Z" fill="#0099A0"/>
<path d="M54.2319 178.23C54.1449 178.259 54.0289 178.288 53.9419 178.316C54.0289 178.288 54.1159 178.259 54.2319 178.23Z" fill="#0099A0"/>
<path d="M53.6677 178.384C53.5848 178.411 53.502 178.438 53.4192 178.465C53.502 178.438 53.5848 178.411 53.6677 178.384Z" fill="#0099A0"/>
<path d="M20.2734 114.405C20.3935 114.405 20.5136 114.425 20.6337 114.425C20.5136 114.425 20.3935 114.405 20.2734 114.405Z" fill="#0099A0"/>
<path d="M53.076 178.583C53.0208 178.611 52.9932 178.611 52.938 178.638C52.9656 178.611 53.0208 178.583 53.076 178.583Z" fill="#0099A0"/>
<path d="M53.3058 178.502C53.2506 178.53 53.1953 178.53 53.1401 178.557C53.223 178.53 53.2782 178.502 53.3058 178.502Z" fill="#0099A0"/>
<path d="M48.0191 180.551C47.9915 180.551 47.9639 180.579 47.9363 180.579C47.9639 180.579 47.9915 180.579 48.0191 180.551Z" fill="#0099A0"/>
<path d="M47.8377 180.644C47.8101 180.644 47.7825 180.672 47.7549 180.672C47.7825 180.672 47.8101 180.644 47.8377 180.644Z" fill="#0099A0"/>
<path d="M48.5653 180.311C48.5377 180.338 48.4824 180.338 48.4548 180.366C48.4824 180.338 48.5377 180.338 48.5653 180.311Z" fill="#0099A0"/>
<path d="M48.3311 180.414C48.3035 180.414 48.2759 180.441 48.2759 180.441C48.3035 180.441 48.3035 180.414 48.3311 180.414Z" fill="#0099A0"/>
<path d="M17.5547 114.373C17.6748 114.373 17.7949 114.353 17.915 114.353C17.7949 114.373 17.6748 114.373 17.5547 114.373Z" fill="#0099A0"/>
<path d="M17.373 114.391C17.4559 114.391 17.5111 114.391 17.5939 114.391C17.5111 114.364 17.4559 114.364 17.373 114.391Z" fill="#0099A0"/>
<path d="M54.7701 178.054C54.6644 178.08 54.5852 178.106 54.4795 178.132C54.5588 178.106 54.6644 178.08 54.7701 178.054Z" fill="#0099A0"/>
<path d="M46.2547 181.363C44.3533 163.213 24.1785 126.621 17.1734 114.385C13.871 114.599 10.9488 115.669 9.30764 118.237C3.68353 127.03 10.5085 164.302 16.7331 175.235C19.1148 179.417 21.8969 182.569 24.4387 184.884C28.1014 188.23 36.6276 192.996 39.9301 192.393C42.6521 191.906 46.2547 188.035 46.2547 181.363Z" fill="#0099A0"/>
<path d="M17.1733 114.392C17.2562 114.392 17.339 114.392 17.4218 114.364C17.339 114.392 17.2562 114.392 17.1733 114.392Z" fill="#0099A0"/>
<path d="M49.826 179.79C49.7984 179.817 49.7432 179.817 49.7156 179.845C49.7432 179.817 49.7708 179.817 49.826 179.79Z" fill="#0099A0"/>
<path d="M50.1397 179.656C50.1121 179.656 50.0845 179.684 50.0569 179.684C50.0569 179.684 50.0845 179.684 50.1397 179.656Z" fill="#0099A0"/>
<path d="M50.4037 179.554C50.3485 179.581 50.2933 179.608 50.238 179.635C50.2933 179.608 50.3485 179.581 50.4037 179.554Z" fill="#0099A0"/>
<path d="M49.0863 180.102C49.0587 180.129 49.0034 180.129 48.9758 180.157C49.0034 180.129 49.0587 180.102 49.0863 180.102Z" fill="#0099A0"/>
<path d="M50.683 179.437C50.6278 179.465 50.5725 179.465 50.5173 179.492C50.5725 179.492 50.6278 179.465 50.683 179.437Z" fill="#0099A0"/>
<path d="M49.6087 179.863C49.5811 179.891 49.5535 179.891 49.4983 179.918C49.5535 179.891 49.5811 179.891 49.6087 179.863Z" fill="#0099A0"/>
<path d="M48.8567 180.173C48.8291 180.173 48.8015 180.2 48.7739 180.2C48.8291 180.2 48.8291 180.2 48.8567 180.173Z" fill="#0099A0"/>
<path d="M22.2173 114.592C22.3001 114.592 22.3829 114.619 22.4657 114.619C22.4105 114.619 22.3001 114.592 22.2173 114.592Z" fill="#0099A0"/>
<path d="M56.1097 177.661C56.0041 177.687 55.8984 177.713 55.8191 177.739C55.8984 177.713 56.0041 177.687 56.1097 177.661Z" fill="#0099A0"/>
<path d="M58.0134 177.214C57.9167 177.238 57.8199 177.261 57.7231 177.285C57.8199 177.261 57.9167 177.238 58.0134 177.214Z" fill="#0099A0"/>
<path d="M56.339 177.607C56.2562 177.635 56.201 177.635 56.1182 177.662C56.201 177.662 56.2562 177.635 56.339 177.607Z" fill="#0099A0"/>
<path d="M55.5509 177.824C55.4681 177.851 55.3853 177.878 55.3025 177.905C55.3853 177.878 55.4681 177.851 55.5509 177.824Z" fill="#0099A0"/>
<path d="M58.2924 177.159C58.2096 177.187 58.1268 177.187 58.0439 177.215C58.1268 177.215 58.2096 177.187 58.2924 177.159Z" fill="#0099A0"/>
<path d="M55.8024 177.764C55.7196 177.792 55.6644 177.792 55.5815 177.82C55.6644 177.792 55.7196 177.764 55.8024 177.764Z" fill="#0099A0"/>
<path d="M23.1985 114.729C23.3186 114.75 23.4587 114.77 23.5788 114.79C23.4587 114.77 23.3386 114.75 23.1985 114.729Z" fill="#0099A0"/>
<path d="M57.4694 177.336C57.3866 177.363 57.3038 177.363 57.2209 177.391C57.3038 177.391 57.3866 177.363 57.4694 177.336Z" fill="#0099A0"/>
<path d="M57.2325 177.39C57.1269 177.416 57.0476 177.442 56.9419 177.468C57.0212 177.442 57.1269 177.416 57.2325 177.39Z" fill="#0099A0"/>
<path d="M22.6167 114.661C22.7368 114.681 22.8769 114.701 22.997 114.721C22.8569 114.681 22.7368 114.661 22.6167 114.661Z" fill="#0099A0"/>
<path d="M22.415 114.622C22.4979 114.622 22.5807 114.649 22.6635 114.649C22.5807 114.649 22.4979 114.649 22.415 114.622Z" fill="#0099A0"/>
<path d="M57.772 177.281C57.685 177.31 57.569 177.339 57.4819 177.339C57.598 177.339 57.685 177.31 57.772 177.281Z" fill="#0099A0"/>
<path d="M23.0149 114.716C23.0977 114.716 23.1805 114.744 23.2634 114.744C23.1805 114.716 23.0977 114.716 23.0149 114.716Z" fill="#0099A0"/>
<path d="M56.9113 177.471C56.8285 177.499 56.7457 177.527 56.6628 177.527C56.7457 177.527 56.8285 177.499 56.9113 177.471Z" fill="#0099A0"/>
<path d="M56.6752 177.526C56.5695 177.552 56.4638 177.578 56.3845 177.604C56.4638 177.578 56.5695 177.552 56.6752 177.526Z" fill="#0099A0"/>
<path d="M21.6338 114.523C21.7539 114.543 21.894 114.543 22.0141 114.563C21.874 114.563 21.7539 114.543 21.6338 114.523Z" fill="#0099A0"/>
<path d="M55.007 177.971C54.9242 177.998 54.8413 178.025 54.7585 178.052C54.8137 178.025 54.8966 177.998 55.007 177.971Z" fill="#0099A0"/>
<path d="M58.5719 177.105C58.4662 177.131 58.3605 177.158 58.2812 177.158C58.3869 177.158 58.4926 177.131 58.5719 177.105Z" fill="#0099A0"/>
<path d="M23.5981 114.798C23.7182 114.818 23.8583 114.838 23.9784 114.858C23.8383 114.838 23.7182 114.818 23.5981 114.798Z" fill="#0099A0"/>
<path d="M55.2692 177.902C55.1864 177.929 55.1036 177.956 55.0208 177.984C55.1036 177.956 55.1864 177.929 55.2692 177.902Z" fill="#0099A0"/>
<path d="M22.0359 114.581C22.1187 114.581 22.2015 114.608 22.2567 114.608C22.1739 114.581 22.1187 114.581 22.0359 114.581Z" fill="#0099A0"/>
<path d="M58.8505 177.064C58.7677 177.092 58.6849 177.092 58.6021 177.12C58.6849 177.092 58.7677 177.064 58.8505 177.064Z" fill="#0099A0"/>
<path d="M31.8643 116.932C31.8919 116.932 31.8919 116.932 31.9195 116.959C31.8919 116.932 31.8919 116.932 31.8643 116.932Z" fill="#A5375C"/>
<path d="M31.4646 116.778C31.4922 116.778 31.4922 116.778 31.5198 116.805C31.4922 116.805 31.4646 116.805 31.4646 116.778Z" fill="#A5375C"/>
<path d="M31.3022 116.737C31.3299 116.737 31.3299 116.737 31.3575 116.765C31.3299 116.737 31.3022 116.737 31.3022 116.737Z" fill="#A5375C"/>
<path d="M30.7234 116.547H30.751C30.751 116.574 30.7234 116.547 30.7234 116.547Z" fill="#A5375C"/>
<path d="M22.0151 114.559H22.0427C22.0151 114.587 22.0151 114.559 22.0151 114.559Z" fill="#A5375C"/>
<path d="M28.2417 115.828C28.2693 115.828 28.2693 115.828 28.2969 115.856C28.2693 115.828 28.2417 115.828 28.2417 115.828Z" fill="#A5375C"/>
<path d="M26.8003 115.454C26.8279 115.454 26.8555 115.454 26.8831 115.481C26.8279 115.454 26.8279 115.454 26.8003 115.454Z" fill="#A5375C"/>
<path d="M22.5986 114.635C22.5986 114.635 22.6262 114.663 22.5986 114.635C22.6262 114.663 22.5986 114.635 22.5986 114.635Z" fill="#A5375C"/>
<path d="M56.9552 177.455C56.9275 177.455 56.8723 177.482 56.8447 177.482C56.8723 177.482 56.9275 177.455 56.9552 177.455Z" fill="#A5375C"/>
<path d="M56.1524 177.647C56.1248 177.647 56.0696 177.675 56.042 177.675C56.0696 177.675 56.1248 177.675 56.1524 177.647Z" fill="#A5375C"/>
<path d="M55.3358 177.878C55.2806 177.878 55.253 177.906 55.1978 177.906C55.253 177.906 55.2806 177.878 55.3358 177.878Z" fill="#A5375C"/>
<path d="M55.619 177.799C55.5638 177.799 55.5362 177.826 55.481 177.826C55.5086 177.826 55.5638 177.799 55.619 177.799Z" fill="#A5375C"/>
<path d="M56.6829 177.512C56.6553 177.512 56.6277 177.54 56.6001 177.54C56.6277 177.54 56.6553 177.54 56.6829 177.512Z" fill="#A5375C"/>
<path d="M56.3897 177.592C56.3621 177.592 56.3069 177.62 56.2793 177.62C56.3345 177.62 56.3621 177.592 56.3897 177.592Z" fill="#A5375C"/>
<path d="M55.8524 177.743C55.8248 177.743 55.7695 177.77 55.7419 177.77C55.7695 177.743 55.7972 177.743 55.8524 177.743Z" fill="#A5375C"/>
<path d="M54.276 178.19C54.2208 178.218 54.1655 178.218 54.1379 178.245C54.1655 178.218 54.2208 178.19 54.276 178.19Z" fill="#A5375C"/>
<path d="M53.9552 178.285C53.9 178.313 53.8724 178.313 53.8171 178.34C53.8724 178.313 53.9276 178.285 53.9552 178.285Z" fill="#A5375C"/>
<path d="M54.7645 178.04C54.7369 178.04 54.7092 178.067 54.6816 178.067C54.7369 178.04 54.7645 178.04 54.7645 178.04Z" fill="#A5375C"/>
<path d="M55.0572 177.959C55.002 177.959 54.9744 177.987 54.9192 177.987C54.9744 177.987 55.0296 177.959 55.0572 177.959Z" fill="#A5375C"/>
<path d="M54.5196 178.108C54.4644 178.108 54.4368 178.136 54.3816 178.136C54.4368 178.136 54.4644 178.136 54.5196 178.108Z" fill="#A5375C"/>
<path d="M59.4332 176.943C59.4056 176.943 59.378 176.942 59.3228 176.97C59.3504 176.942 59.4056 176.943 59.4332 176.943Z" fill="#A5375C"/>
<path d="M53.711 178.366C53.6834 178.366 53.6282 178.394 53.6006 178.394C53.6282 178.394 53.6834 178.366 53.711 178.366Z" fill="#A5375C"/>
<path d="M59.1663 176.983C59.1387 176.983 59.1111 176.983 59.0835 177.011C59.1111 177.011 59.1387 177.011 59.1663 176.983Z" fill="#A5375C"/>
<path d="M59.9959 176.848C59.9683 176.848 59.9407 176.848 59.8855 176.875C59.9131 176.875 59.9683 176.875 59.9959 176.848Z" fill="#A5375C"/>
<path d="M58.8663 177.042C58.8387 177.042 58.8111 177.042 58.7834 177.069C58.8111 177.069 58.8387 177.042 58.8663 177.042Z" fill="#A5375C"/>
<path d="M58.3082 177.159C58.2806 177.159 58.2529 177.159 58.2253 177.187C58.2529 177.159 58.2806 177.159 58.3082 177.159Z" fill="#A5375C"/>
<path d="M57.5128 177.317C57.4852 177.317 57.43 177.345 57.4023 177.345C57.43 177.345 57.4852 177.345 57.5128 177.317Z" fill="#A5375C"/>
<path d="M57.2461 177.39C57.2185 177.39 57.1909 177.39 57.1633 177.418C57.1909 177.39 57.2185 177.39 57.2461 177.39Z" fill="#A5375C"/>
<path d="M58.6356 177.105C58.608 177.105 58.5528 177.132 58.5251 177.132C58.5528 177.105 58.5804 177.105 58.6356 177.105Z" fill="#A5375C"/>
<path d="M58.0694 177.2C58.0418 177.2 57.9866 177.228 57.959 177.228C57.9866 177.228 58.0142 177.228 58.0694 177.2Z" fill="#A5375C"/>
<path d="M51.5621 179.106C51.5069 179.134 51.4517 179.134 51.3965 179.161C51.4517 179.161 51.5069 179.134 51.5621 179.106Z" fill="#A5375C"/>
<path d="M49.515 179.898C49.3549 179.957 49.2148 180.016 49.0547 180.095C49.2148 180.016 49.3549 179.957 49.515 179.898Z" fill="#A5375C"/>
<path d="M50.2843 179.614C50.2291 179.641 50.1739 179.668 50.1187 179.695C50.1739 179.641 50.2291 179.641 50.2843 179.614Z" fill="#A5375C"/>
<path d="M48.8268 180.211C48.7374 180.255 48.6479 180.299 48.5361 180.343C48.6256 180.277 48.715 180.233 48.8268 180.211Z" fill="#A5375C"/>
<path d="M53.4728 178.447C53.4176 178.475 53.3348 178.502 53.2795 178.502C53.3348 178.502 53.39 178.475 53.4728 178.447Z" fill="#A5375C"/>
<path d="M48.507 180.346C48.4517 180.373 48.3965 180.4 48.3137 180.428C48.3689 180.4 48.4517 180.373 48.507 180.346Z" fill="#A5375C"/>
<path d="M49.7623 179.829C49.7071 179.856 49.6519 179.883 49.5967 179.91C49.6243 179.856 49.6795 179.856 49.7623 179.829Z" fill="#A5375C"/>
<path d="M49.0226 180.138C48.9674 180.166 48.9122 180.193 48.8569 180.22C48.8845 180.166 48.9674 180.138 49.0226 180.138Z" fill="#A5375C"/>
<path d="M47.2556 180.895C46.9154 181.053 46.5951 181.21 46.2549 181.368C46.5951 181.21 46.9154 181.053 47.2556 180.895Z" fill="#A5375C"/>
<path d="M47.9894 180.586C47.9342 180.613 47.879 180.64 47.7961 180.667C47.879 180.64 47.9342 180.613 47.9894 180.586Z" fill="#A5375C"/>
<path d="M48.285 180.427C48.1813 180.468 48.0983 180.509 47.9946 180.55C48.0983 180.509 48.1813 180.468 48.285 180.427Z" fill="#A5375C"/>
<path d="M47.7343 180.655C47.5741 180.733 47.414 180.792 47.2739 180.871C47.434 180.792 47.5942 180.733 47.7343 180.655Z" fill="#A5375C"/>
<path d="M52.6642 178.719C52.609 178.746 52.5537 178.774 52.4985 178.774C52.5261 178.774 52.5814 178.746 52.6642 178.719Z" fill="#A5375C"/>
<path d="M52.0975 178.909C52.0423 178.936 51.9871 178.936 51.9595 178.964C52.0147 178.936 52.0423 178.936 52.0975 178.909Z" fill="#A5375C"/>
<path d="M50.5985 179.492C50.5157 179.519 50.4329 179.546 50.3777 179.573C50.4329 179.546 50.5157 179.519 50.5985 179.492Z" fill="#A5375C"/>
<path d="M53.204 178.542C53.1488 178.57 53.0935 178.57 53.0383 178.598C53.0935 178.57 53.1488 178.542 53.204 178.542Z" fill="#A5375C"/>
<path d="M53.0104 178.597C52.9047 178.623 52.8254 178.675 52.7197 178.701C52.8254 178.675 52.9047 178.649 53.0104 178.597Z" fill="#A5375C"/>
<path d="M52.4335 178.797C52.3783 178.824 52.2954 178.852 52.2402 178.852C52.2954 178.852 52.3783 178.824 52.4335 178.797Z" fill="#A5375C"/>
<path d="M51.1494 179.278C51.0526 179.326 50.9559 179.35 50.8591 179.397C50.9317 179.35 51.0284 179.302 51.1494 179.278Z" fill="#A5375C"/>
<path d="M50.8502 179.397C50.795 179.424 50.7122 179.451 50.657 179.478C50.7122 179.424 50.7674 179.397 50.8502 179.397Z" fill="#A5375C"/>
<path d="M51.8761 178.99C51.8209 179.018 51.7656 179.018 51.738 179.045C51.7656 179.045 51.8209 179.018 51.8761 178.99Z" fill="#A5375C"/>
<path d="M51.3719 179.18C51.3167 179.207 51.2339 179.234 51.1787 179.261C51.2339 179.234 51.2891 179.207 51.3719 179.18Z" fill="#A5375C"/>
<path d="M60.5267 176.767C60.4991 176.767 60.4715 176.767 60.4438 176.767C60.4715 176.794 60.4991 176.794 60.5267 176.767Z" fill="#A5375C"/>
<path d="M50.0683 179.691C49.9788 179.735 49.867 179.779 49.7776 179.801C49.8894 179.757 49.9788 179.713 50.0683 179.691Z" fill="#A5375C"/>
<path d="M69.7552 177.146C69.7276 177.146 69.7 177.119 69.6724 177.119C69.7 177.119 69.7276 177.146 69.7552 177.146Z" fill="#A5375C"/>
<path d="M35.0247 118.079C35.0523 118.079 35.0799 118.107 35.1075 118.107C35.0799 118.107 35.0523 118.107 35.0247 118.079Z" fill="#A5375C"/>
<path d="M34.8259 118C34.8535 118.028 34.9087 118.028 34.9364 118.055C34.9087 118.028 34.8535 118.028 34.8259 118Z" fill="#A5375C"/>
<path d="M68.4317 176.875C68.4041 176.875 68.3765 176.875 68.3489 176.848C68.3765 176.848 68.4041 176.848 68.4317 176.875Z" fill="#A5375C"/>
<path d="M69.4583 177.089H69.4307C69.4583 177.061 69.4583 177.089 69.4583 177.089Z" fill="#A5375C"/>
<path d="M68.9671 176.97C68.9395 176.97 68.9119 176.97 68.9119 176.943C68.9119 176.97 68.9395 176.97 68.9671 176.97Z" fill="#A5375C"/>
<path d="M69.2115 177.035C69.1839 177.035 69.1563 177.035 69.1287 177.008C69.1563 177.008 69.1839 177.008 69.2115 177.035Z" fill="#A5375C"/>
<path d="M34.6257 117.931C34.6257 117.931 34.6533 117.931 34.6533 117.959C34.6533 117.931 34.6533 117.931 34.6257 117.931Z" fill="#A5375C"/>
<path d="M33.2451 117.401C33.2727 117.401 33.3003 117.429 33.3003 117.429C33.3003 117.429 33.2727 117.429 33.2451 117.401Z" fill="#A5375C"/>
<path d="M32.6433 117.185C32.6709 117.185 32.6709 117.185 32.6985 117.212C32.6985 117.212 32.6709 117.212 32.6433 117.185Z" fill="#A5375C"/>
<path d="M32.5229 117.144H32.5506C32.5506 117.171 32.5506 117.144 32.5229 117.144Z" fill="#A5375C"/>
<path d="M33.4663 117.482C33.4939 117.482 33.5215 117.51 33.5215 117.51C33.4939 117.51 33.4939 117.51 33.4663 117.482Z" fill="#A5375C"/>
<path d="M34.4663 117.863C34.4939 117.863 34.4939 117.89 34.5215 117.89C34.5215 117.89 34.4939 117.863 34.4663 117.863Z" fill="#A5375C"/>
<path d="M34.3059 117.808C34.3335 117.808 34.3335 117.808 34.3611 117.836C34.3611 117.808 34.3335 117.808 34.3059 117.808Z" fill="#A5375C"/>
<path d="M33.8645 117.632C33.8921 117.632 33.9197 117.66 33.9473 117.66C33.9197 117.66 33.8921 117.632 33.8645 117.632Z" fill="#A5375C"/>
<path d="M61.3497 176.671C61.3221 176.671 61.2945 176.671 61.2668 176.671C61.2945 176.699 61.3221 176.671 61.3497 176.671Z" fill="#A5375C"/>
<path d="M67.084 176.684C67.0564 176.684 67.0564 176.684 67.0288 176.684C67.0564 176.656 67.0564 176.656 67.084 176.684Z" fill="#A5375C"/>
<path d="M66.0303 176.581C66.0027 176.581 65.9751 176.581 65.9475 176.581C65.9751 176.553 66.0027 176.553 66.0303 176.581Z" fill="#A5375C"/>
<path d="M46.2531 181.359C46.5733 181.203 46.9136 181.047 47.2538 180.892H47.2738C47.434 180.814 47.5941 180.755 47.7342 180.678C47.7542 180.678 47.7742 180.658 47.7942 180.658C47.8343 180.639 47.8743 180.619 47.9343 180.6C47.9543 180.6 47.9744 180.58 47.9944 180.58C48.0944 180.541 48.1745 180.503 48.2746 180.464C48.2946 180.464 48.3146 180.444 48.3146 180.444C48.3546 180.425 48.3947 180.405 48.4547 180.386C48.4747 180.366 48.5148 180.366 48.5348 180.347C48.6148 180.308 48.6949 180.269 48.795 180.23C48.815 180.23 48.835 180.211 48.855 180.211C48.895 180.191 48.9351 180.172 48.9751 180.152C48.9951 180.133 49.0351 180.133 49.0551 180.114C49.1953 180.055 49.3554 179.997 49.5155 179.919C49.5355 179.9 49.5555 179.9 49.5955 179.88C49.6356 179.861 49.6756 179.841 49.7156 179.822C49.7356 179.802 49.7757 179.802 49.7957 179.783C49.8757 179.744 49.9758 179.705 50.0559 179.686C50.0759 179.686 50.0959 179.666 50.1159 179.666C50.156 179.647 50.196 179.627 50.236 179.608C50.276 179.588 50.3161 179.569 50.3561 179.549C50.4161 179.53 50.4762 179.51 50.5162 179.491C50.5562 179.472 50.5963 179.452 50.6363 179.452C50.6763 179.433 50.7364 179.413 50.7764 179.394C50.7964 179.394 50.8164 179.374 50.8364 179.374C50.9165 179.335 50.9966 179.316 51.0766 179.277C51.0966 179.258 51.1367 179.258 51.1567 179.238C51.1967 179.219 51.2568 179.199 51.2968 179.18C51.3368 179.16 51.3568 179.16 51.3969 179.141C51.4369 179.121 51.4769 179.121 51.5169 179.102C51.577 179.082 51.657 179.044 51.7171 179.024C51.7571 179.005 51.7971 179.005 51.8172 178.985C51.8572 178.966 51.8972 178.946 51.9373 178.946C51.9773 178.927 52.0173 178.927 52.0373 178.907C52.0974 178.888 52.1574 178.869 52.2175 178.849C52.2575 178.83 52.3175 178.81 52.3576 178.81C52.3976 178.791 52.4176 178.791 52.4576 178.771C52.4977 178.752 52.5377 178.732 52.5777 178.732C52.6178 178.713 52.6578 178.713 52.6978 178.693C52.7779 178.674 52.8379 178.635 52.918 178.616C52.958 178.596 52.978 178.596 53.018 178.577C53.0581 178.557 53.0981 178.557 53.1381 178.538C53.1782 178.518 53.2182 178.518 53.2582 178.499C53.2982 178.479 53.3583 178.46 53.3983 178.46C53.4584 178.441 53.5184 178.421 53.5785 178.402C53.5985 178.402 53.6385 178.382 53.6585 178.382C53.7186 178.363 53.7586 178.343 53.8186 178.324C53.8587 178.304 53.8787 178.304 53.9187 178.285C53.9787 178.265 54.0588 178.246 54.1188 178.227C54.1589 178.207 54.1989 178.207 54.2189 178.188C54.2589 178.168 54.319 178.168 54.359 178.149C54.3991 178.149 54.4191 178.129 54.4591 178.129C54.5392 178.11 54.5992 178.09 54.6793 178.071C54.6993 178.071 54.7193 178.051 54.7393 178.051C54.7993 178.032 54.8594 178.013 54.9194 177.993C54.9595 177.993 54.9795 177.974 55.0195 177.974C55.0795 177.954 55.1396 177.935 55.1996 177.915C55.2397 177.915 55.2597 177.896 55.2997 177.896C55.3598 177.876 55.4198 177.857 55.4798 177.837C55.5199 177.837 55.5399 177.818 55.5799 177.818C55.64 177.799 55.68 177.799 55.74 177.779C55.76 177.779 55.8001 177.76 55.8201 177.76C55.9002 177.74 55.9802 177.721 56.0403 177.701C56.0603 177.701 56.1003 177.682 56.1203 177.682C56.1804 177.662 56.2204 177.662 56.2804 177.643C56.3004 177.643 56.3405 177.624 56.3605 177.624C56.4405 177.604 56.5206 177.585 56.5807 177.565C56.6007 177.565 56.6207 177.546 56.6407 177.546C56.7007 177.526 56.7608 177.507 56.8208 177.507C56.8408 177.507 56.8809 177.487 56.9009 177.487C56.9809 177.468 57.041 177.448 57.121 177.429C57.1411 177.429 57.1611 177.429 57.1811 177.41C57.2411 177.39 57.3012 177.39 57.3612 177.371C57.3812 177.371 57.4213 177.351 57.4413 177.351C57.5013 177.332 57.5814 177.312 57.6414 177.312C57.6614 177.312 57.6614 177.312 57.6815 177.312C57.7615 177.293 57.8416 177.273 57.9216 177.254C57.9416 177.254 57.9817 177.234 58.0017 177.234C58.0617 177.215 58.1218 177.215 58.1818 177.196C58.2018 177.196 58.2218 177.196 58.2419 177.176C58.3219 177.157 58.402 177.137 58.462 177.137C58.482 177.137 58.5221 177.118 58.5421 177.118C58.6021 177.098 58.6622 177.098 58.7222 177.079C58.7422 177.079 58.7622 177.079 58.7823 177.059C58.8623 177.04 58.9424 177.04 59.0224 177.02C59.0424 177.02 59.0625 177.02 59.0825 177.001C59.1425 176.982 59.2026 176.982 59.2626 176.962C59.2826 176.962 59.3026 176.962 59.3427 176.943C59.4227 176.923 59.5028 176.923 59.5828 176.904C59.6029 176.904 59.6029 176.904 59.6229 176.904C59.6829 176.884 59.763 176.884 59.823 176.865C59.843 176.865 59.863 176.865 59.9031 176.845C59.9831 176.826 60.0432 176.826 60.1232 176.806H60.1432C60.2233 176.787 60.3034 176.787 60.3834 176.768C60.4034 176.768 60.4235 176.768 60.4435 176.768C60.5035 176.768 60.5836 176.748 60.6436 176.748C60.6636 176.748 60.6636 176.748 60.6836 176.748C60.7637 176.729 60.8438 176.729 60.9238 176.709C60.9438 176.709 60.9639 176.709 60.9839 176.709C61.0439 176.709 61.104 176.69 61.184 176.69C61.204 176.69 61.224 176.69 61.2441 176.69C61.3241 176.69 61.4042 176.67 61.4842 176.67C61.5042 176.67 61.5243 176.67 61.5443 176.67C61.6043 176.67 61.6844 176.651 61.7444 176.651C61.7644 176.651 61.7844 176.651 61.8045 176.651C61.8845 176.651 61.9646 176.631 62.0446 176.631C62.0647 176.631 62.0647 176.631 62.0847 176.631C62.1447 176.631 62.2248 176.612 62.2848 176.612C62.3048 176.612 62.3248 176.612 62.3649 176.612C62.4449 176.612 62.525 176.592 62.605 176.592C62.6851 176.592 62.7652 176.592 62.8452 176.573C62.8652 176.573 62.9053 176.573 62.9253 176.573C62.9853 176.573 63.0654 176.573 63.1254 176.554C63.1454 176.554 63.1454 176.554 63.1655 176.554C63.2455 176.554 63.3256 176.554 63.4056 176.554C63.4256 176.554 63.4457 176.554 63.4657 176.554C63.5257 176.554 63.5858 176.554 63.6458 176.554C63.6658 176.554 63.6858 176.554 63.7059 176.554C63.7859 176.554 63.866 176.554 63.946 176.554C63.966 176.554 63.9861 176.554 64.0061 176.554C64.0661 176.554 64.1462 176.554 64.2062 176.554C64.2262 176.554 64.2463 176.554 64.2663 176.554C64.3463 176.554 64.4264 176.554 64.5064 176.554C64.5265 176.554 64.5265 176.554 64.5465 176.554C64.6265 176.554 64.6866 176.554 64.7666 176.554C64.7866 176.554 64.8067 176.554 64.8267 176.554C64.9067 176.554 64.9868 176.554 65.0668 176.554C65.1469 176.554 65.227 176.554 65.307 176.554C65.327 176.554 65.3471 176.554 65.3671 176.554C65.4271 176.554 65.5072 176.554 65.5672 176.554C65.5872 176.554 65.5872 176.554 65.6072 176.554C65.6873 176.554 65.7674 176.554 65.8474 176.573C65.8674 176.573 65.8874 176.573 65.9075 176.573C65.9675 176.573 66.0476 176.573 66.1076 176.592C66.1276 176.592 66.1476 176.592 66.1476 176.592C66.2277 176.592 66.3078 176.612 66.3878 176.612C66.4078 176.612 66.4278 176.612 66.4479 176.612C66.5079 176.612 66.5679 176.631 66.628 176.631C66.648 176.631 66.668 176.631 66.688 176.631C66.7681 176.631 66.8481 176.651 66.9282 176.651C66.9482 176.651 66.9482 176.651 66.9682 176.651C67.0483 176.651 67.1083 176.67 67.1884 176.67C67.2084 176.67 67.2284 176.67 67.2484 176.67C67.4086 176.69 67.5687 176.709 67.7288 176.729C67.7488 176.729 67.7688 176.729 67.7888 176.729C67.8489 176.748 67.9289 176.748 67.989 176.768C68.009 176.768 68.029 176.768 68.029 176.768C68.1091 176.787 68.1891 176.787 68.2692 176.806C68.2892 176.806 68.3092 176.806 68.3292 176.826C68.3893 176.845 68.4693 176.845 68.5294 176.865C68.5494 176.865 68.5694 176.865 68.5694 176.865C68.6495 176.884 68.7295 176.904 68.8096 176.904C68.8296 176.904 68.8496 176.904 68.8496 176.923C68.9097 176.943 68.9697 176.943 69.0498 176.962C69.0698 176.962 69.0898 176.962 69.1098 176.982C69.1899 177.001 69.2699 177.02 69.35 177.04H69.37C69.43 177.059 69.5101 177.079 69.5701 177.098C69.5902 177.098 69.6102 177.118 69.6302 177.118C69.7102 177.137 69.7903 177.157 69.8503 177.176C69.8503 177.176 41.1894 120.276 35.3051 118.233C35.3051 118.233 35.2851 118.233 35.2851 118.214C35.2651 118.214 35.2451 118.194 35.225 118.194H35.205C35.185 118.194 35.165 118.175 35.145 118.175C35.105 118.155 35.0449 118.136 34.9849 118.116C34.9649 118.116 34.9448 118.097 34.9248 118.097C34.8848 118.077 34.8448 118.058 34.7847 118.038C34.7647 118.019 34.7247 118.019 34.7047 118C34.6846 118 34.6846 117.98 34.6646 117.98C34.6246 117.961 34.5846 117.941 34.5445 117.922C34.5445 117.922 34.5245 117.922 34.5245 117.902C34.4845 117.883 34.4445 117.863 34.4044 117.863C34.3844 117.863 34.3844 117.863 34.3644 117.844C34.3244 117.824 34.2844 117.805 34.2443 117.786C34.2243 117.786 34.2243 117.786 34.2043 117.766C34.1843 117.766 34.1643 117.747 34.1443 117.747C34.1443 117.747 34.1443 117.747 34.1242 117.747C34.1042 117.727 34.0642 117.727 34.0442 117.708C33.9641 117.669 33.8841 117.649 33.804 117.61C33.784 117.61 33.764 117.591 33.744 117.591C33.6639 117.552 33.5638 117.533 33.4838 117.494H33.4638C33.4437 117.494 33.4237 117.474 33.3837 117.474C33.3637 117.474 33.3437 117.455 33.3437 117.455C33.3237 117.435 33.2836 117.435 33.2636 117.416C33.2636 117.416 33.2636 117.416 33.2436 117.416C33.2236 117.416 33.2036 117.396 33.1635 117.396C33.1435 117.396 33.1235 117.377 33.1235 117.377C32.9434 117.319 32.7632 117.241 32.5631 117.182C32.5431 117.182 32.5431 117.182 32.5231 117.163C32.483 117.144 32.463 117.144 32.423 117.124H32.403C32.3629 117.105 32.3429 117.105 32.3029 117.085C32.2629 117.066 32.2228 117.066 32.1828 117.046H32.1628C32.0427 117.007 31.9226 116.969 31.7825 116.91C31.7625 116.91 31.7625 116.91 31.7425 116.891C31.6224 116.852 31.5023 116.813 31.3622 116.774C31.3422 116.774 31.3422 116.774 31.3222 116.755C31.2822 116.735 31.2421 116.735 31.2021 116.716C31.1821 116.716 31.1821 116.716 31.1621 116.696C30.9819 116.638 30.8018 116.579 30.6017 116.521H30.5816C30.5416 116.502 30.4816 116.482 30.4415 116.482C30.4415 116.482 30.4415 116.482 30.4215 116.482C30.3215 116.443 30.2214 116.424 30.1213 116.385C30.1213 116.385 30.1213 116.385 30.1013 116.385C30.0613 116.365 30.0012 116.365 29.9612 116.346H29.9412C29.741 116.288 29.5209 116.21 29.3007 116.151C29.2407 116.132 29.2006 116.113 29.1406 116.113C29.0405 116.074 28.9204 116.054 28.8204 116.015C28.8003 116.015 28.8003 116.015 28.7803 116.015C28.7403 115.996 28.6803 115.996 28.6402 115.976C28.5802 115.957 28.5402 115.937 28.4801 115.937H28.4601C28.4201 115.918 28.36 115.918 28.32 115.899H28.3C28.2599 115.879 28.1999 115.879 28.1599 115.86C28.1399 115.86 28.1399 115.86 28.1198 115.84C28.0798 115.821 28.0398 115.821 27.9797 115.801H27.9597C27.7796 115.762 27.6195 115.704 27.4394 115.665C27.3793 115.646 27.3193 115.626 27.2592 115.626H27.2392C27.1992 115.607 27.1391 115.607 27.0991 115.587H27.0791C26.959 115.568 26.8589 115.529 26.7388 115.51C26.7188 115.51 26.6988 115.51 26.6788 115.49C26.6388 115.471 26.5987 115.471 26.5387 115.451H26.5187C26.4586 115.432 26.3986 115.432 26.3385 115.412H26.3185C26.2585 115.393 26.2185 115.393 26.1584 115.373H26.1384C26.0183 115.354 25.8982 115.315 25.7781 115.296H25.7581C25.638 115.276 25.5179 115.237 25.3979 115.218C25.3778 115.218 25.3778 115.218 25.3578 115.218C25.1777 115.179 24.9976 115.14 24.7974 115.101C24.6773 115.082 24.5372 115.043 24.4171 115.023H24.3971C24.3371 115.004 24.277 115.004 24.217 114.984C24.157 114.965 24.0969 114.965 24.0369 114.945H24.0168C23.9568 114.926 23.8968 114.926 23.8367 114.906C23.7166 114.887 23.5765 114.868 23.4564 114.848C23.3364 114.829 23.1962 114.809 23.0762 114.79C23.0161 114.79 22.9561 114.77 22.896 114.77H22.876C22.7559 114.751 22.6158 114.731 22.4957 114.712C22.4957 114.712 22.4957 114.712 22.4757 114.712C22.4157 114.712 22.3556 114.692 22.2956 114.692C22.2355 114.692 22.1755 114.673 22.1155 114.673H22.0954C22.0354 114.673 21.9754 114.654 21.9353 114.654H21.9153C21.7952 114.634 21.6551 114.615 21.535 114.615H21.515C21.3949 114.595 21.2748 114.595 21.1347 114.576H21.1147C20.9346 114.556 20.7344 114.537 20.5543 114.517H20.5343C20.4142 114.517 20.2941 114.498 20.174 114.498C20.154 114.498 20.154 114.498 20.134 114.498C20.0139 114.498 19.8938 114.478 19.7737 114.478C19.7537 114.478 19.7537 114.478 19.7337 114.478C19.6737 114.478 19.6336 114.478 19.5736 114.478H19.5536C19.4335 114.478 19.3134 114.459 19.1733 114.459H19.1533C19.0332 114.459 18.9131 114.459 18.773 114.459H18.753C18.693 114.459 18.6329 114.459 18.5729 114.459C18.5729 114.459 18.5729 114.459 18.5529 114.459C18.4928 114.459 18.4328 114.459 18.3727 114.459H18.3527C18.2927 114.459 18.2526 114.459 18.1926 114.459H18.1726C18.0525 114.459 17.9324 114.459 17.8123 114.459H17.7923C17.6722 114.459 17.5521 114.459 17.432 114.478H17.412C17.352 114.478 17.3119 114.478 17.2519 114.478H17.2319C17.1718 114.478 17.1118 114.479 17.0518 114.498C24.177 126.617 44.3517 163.209 46.2531 181.359Z" fill="#A5375C"/>
<g opacity="0.5">
<path opacity="0.5" d="M34.2046 146.894C38.6278 156.29 42.6508 165.978 44.7924 173.953C52.3779 174.128 61.945 173.759 68.0695 173.448C65.1873 167.826 63.1458 163.935 62.3453 162.418L34.2046 146.894Z" fill="#531C2E"/>
</g>
<g opacity="0.5">
<path opacity="0.5" d="M35.0638 173.11C37.1453 173.616 40.6679 173.849 44.7709 173.947C42.6293 165.99 38.6064 156.283 34.1831 146.887L7.24341 132.006C7.24341 132.064 7.24341 132.142 7.26342 132.2C7.98395 143.483 12.8675 154.124 20.9935 162.216C26.4775 167.683 31.9015 172.351 35.0638 173.11Z" fill="#0D5965"/>
</g>
<path d="M72.874 161.382C73.3143 161.421 81.12 164.28 86.4239 161.479C88.8257 160.215 91.6678 160.954 90.567 163.385C89.4662 165.817 84.4225 164.786 83.7219 165.467C83.0214 166.148 92.4283 171.147 95.0102 171.575C97.5721 172.003 93.369 174.143 92.3683 174.143C91.3676 174.143 92.1681 174.532 91.1674 175.505C90.1667 176.477 87.7249 176.244 86.544 176.477C82.6812 177.236 72.4137 170.35 70.8725 168.832C69.3314 167.373 72.874 161.382 72.874 161.382Z" fill="#FFA283"/>
<path d="M17.5534 114.362C17.5534 114.362 21.6364 118.816 23.9781 123.505C26.3398 128.232 39.4295 151.478 40.8705 151.478C42.3116 151.478 74.6354 161.711 74.6354 161.711C74.6354 161.711 72.3737 166.243 72.3737 171.32C72.3737 171.32 37.6281 165.854 35.0262 165.854C32.4243 165.854 29.4021 161.36 26.8002 158.832C24.1983 156.303 11.2087 144.806 7.46596 135.819C3.68317 126.831 5.70466 112.416 17.5534 114.362Z" fill="#0099A0"/>
<path d="M29.7436 101.997L33.9266 120.03L17.5547 114.369L20.757 102.055L29.7436 101.997Z" fill="#FFA283"/>
<path opacity="0.68" d="M29.742 101.997L20.7554 102.055L20.0149 104.915C22.5768 107.444 25.6791 109.487 28.1809 110.051C29.1816 110.284 30.3825 110.284 31.6234 110.148L29.742 101.997Z" fill="#FF7F4C"/>
<path d="M23.0562 84.662C23.0562 84.662 25.8582 84.6815 29.2807 86.8603C32.7032 89.039 35.8255 95.1084 35.8255 95.1084C35.8255 95.1084 37.3867 98.9601 37.5868 101.217C37.787 103.473 29.5609 107.15 25.458 106.625C21.375 106.119 16.0111 101.625 14.6501 97.5206C13.2891 93.4354 21.2349 84.4286 23.0562 84.662Z" fill="#FFA283"/>
<path opacity="0.68" d="M30.4833 87.7945C30.083 87.4443 29.6827 87.1136 29.2825 86.8607C25.8599 84.682 23.0579 84.6625 23.0579 84.6625C22.1972 84.5458 19.9556 86.5106 17.9941 89.0395L19.3952 88.9422C19.3952 88.9422 24.0986 90.2067 28.7621 88.5726C29.3825 88.3586 29.963 88.0863 30.4833 87.7945Z" fill="#FF7F4C"/>
<path d="M19.3932 88.9572C19.3932 88.9572 20.9744 92.3226 22.0152 96.9914C23.0559 101.68 22.5155 106.426 22.5155 106.426C19.093 108.138 13.589 107.963 8.90555 102.069C4.22211 96.1549 9.52601 91.3305 10.7069 90.4356C11.8877 89.5408 10.0464 89.2101 10.867 86.8757C11.7076 84.5413 13.1687 86.0198 14.7699 84.3857C16.371 82.7516 12.188 79.3668 15.1501 76.7211C18.1123 74.0755 21.9952 79.1917 21.9952 79.1917C21.9952 79.1917 23.6364 74.1144 26.6186 77.0129C29.6208 79.9114 29.7408 81.954 27.299 85.1055C24.8573 88.2374 19.3932 88.9572 19.3932 88.9572Z" fill="#09434C"/>
<path d="M22.036 94.858C22.036 94.858 18.3333 93.1072 18.3333 96.1614C18.3333 99.2155 19.5942 100.85 21.4355 100.091C23.2569 99.3127 22.036 94.858 22.036 94.858Z" fill="#FFA283"/>
<path d="M596.08 258.238L598.622 268.84L595.4 272.731L590.276 270.513C590.276 270.513 592.077 268.276 592.117 266.525C592.157 264.775 590.436 258.841 590.436 258.841L596.08 258.238Z" fill="#E76A53"/>
<path d="M654.704 131.908L659.367 122.026L664.371 120.859L667.013 125.664C667.013 125.664 664.171 126.364 663.05 127.726C661.909 129.088 659.547 134.787 659.547 134.787L654.704 131.908Z" fill="#E76A53"/>
<path d="M561.716 61.8014L564.058 80.3403L578.908 72.4034L570.923 58.4944L561.716 61.8014Z" fill="#FFA283"/>
<path opacity="0.68" d="M572.724 61.6458L570.923 58.4944L561.716 61.8014L563.017 72.0143C564.218 71.6836 565.298 71.2362 566.139 70.6721C568.581 69.038 571.063 65.4586 572.724 61.6458Z" fill="#FF7F4C"/>
<path d="M591.773 138.036L609.586 144.455C609.586 144.455 630.802 166.184 637.046 159.279C643.291 152.373 655.2 128.737 655.2 128.737L663.205 133.62C663.205 133.62 656.581 168.227 647.534 175.366C623.576 194.255 578.924 161.088 578.924 161.088L591.773 138.036Z" fill="#0099A0"/>
<path d="M562.515 38.8873C562.515 38.8873 562.055 38.7122 559.433 42.2138C557.552 44.7232 556.431 47.6996 555.25 50.5592C553.509 54.8 552.048 59.4298 553.369 63.9818C554.049 66.3746 563.936 67.0165 567.919 64.9739C571.902 62.9119 575.585 56.3173 575.345 51.6096C575.105 46.8825 564.297 37.9535 562.515 38.8873Z" fill="#FFA283"/>
<path d="M569.017 61.7811C569.618 63.0455 570.639 63.3957 573.741 63.4346C577.724 63.5124 581.667 60.575 582.667 55.2253C585.73 38.8652 569.778 34.8773 565.675 33.3016C564.134 32.718 562.933 33.2043 562.032 34.0408C560.571 35.3831 558.63 36.0445 556.648 35.7333C555.788 35.5971 553.486 35.5387 552.866 36.8226C551.084 40.4993 551.044 44.3121 557.749 44.3121C572.98 44.3316 567.837 59.3494 569.017 61.7811Z" fill="#09434C"/>
<path d="M588.913 138.039C590.874 138.098 602.243 142.338 603.704 149.478C605.145 156.617 597.319 260.905 597.319 260.905L589.994 261.878C589.994 261.878 568.458 158.854 572.001 150.82C575.503 142.805 588.913 138.039 588.913 138.039Z" fill="#0099A0"/>
<path d="M603.706 149.478C602.265 142.338 590.897 138.078 588.915 138.039C588.915 138.039 575.505 142.805 571.983 150.839C571.662 151.579 571.542 153.154 571.602 155.411C576.526 153.66 581.81 152.201 583.731 153.213C587.674 155.275 590.776 159.321 598.322 161.111C599.783 161.461 601.644 161.227 603.706 160.624C603.926 154.75 603.946 150.703 603.706 149.478Z" fill="#007378"/>
<path d="M599.202 267.225C599.202 267.225 600.623 268.937 601.164 271.933C601.704 274.929 601.003 277.808 601.003 277.808C601.003 277.808 586.032 279.539 580.068 278.839C574.124 278.139 573.523 277.166 573.563 275.532C573.603 273.898 581.629 273.898 583.891 271.816C586.153 269.735 589.215 265.358 590.676 265.942C592.137 266.545 592.017 269.151 593.938 269.21C595.88 269.249 598.281 266.292 599.202 267.225Z" fill="#09434C"/>
<path d="M657.903 122.945C657.903 122.945 657.843 120.746 659.324 118.062C660.785 115.377 663.147 113.51 663.147 113.51C663.147 113.51 676.076 121.058 680.339 125.162C684.602 129.267 684.462 130.376 683.401 131.64C682.341 132.905 675.996 128.119 672.894 128.43C669.791 128.742 664.608 130.376 663.827 129.033C663.046 127.691 664.788 125.687 663.307 124.501C661.806 123.334 658.043 124.248 657.903 122.945Z" fill="#09434C"/>
<path d="M559.194 88.8818L558.914 90.2046C555.471 106.273 560.975 127.068 567.4 142.242C569.421 147.027 569.361 148.525 571.983 150.84L583.752 144.537L559.194 88.8818Z" fill="#A5375C"/>
<g opacity="0.5">
<path opacity="0.5" d="M559.195 88.8818L558.915 90.2046C557.053 98.9196 557.814 109.016 559.935 118.859C562.797 117.05 566.12 114.754 569.422 112.031L559.195 88.8818Z" fill="#531C2E"/>
</g>
<path d="M577.343 69.0369C577.343 69.0369 587.611 81.0005 592.915 93.3921C598.219 105.784 616.312 146.402 616.312 146.402C616.312 146.402 599.299 157.354 588.692 154.202C578.084 151.051 560.811 117.961 556.228 102.496C551.645 87.0309 562.913 75.8065 564.934 74.7561C566.936 73.7056 577.343 69.0369 577.343 69.0369Z" fill="#0099A0"/>
<path d="M556.227 102.497C557.428 106.563 559.51 111.835 562.112 117.457C573.52 109.831 588.871 89.7553 582.006 77.9862C580.105 75.2433 554.006 95.0272 556.227 102.497Z" fill="#007378"/>
<path d="M567.217 53.5894C567.217 53.5894 567.517 49.4459 569.759 50.1656C572.001 50.866 572.861 55.3207 570.8 56.2545C568.738 57.1882 567.217 53.5894 567.217 53.5894Z" fill="#FFA283"/>
<path d="M532.751 84.3659C531.73 84.3465 529.088 80.5142 529.088 80.5142C529.088 80.5142 524.125 73.2776 519.661 72.0326C517.179 71.3518 510.595 71.1573 508.693 72.2661C510.054 74.0752 516.899 81.4674 520.842 83.3349C522.423 84.0741 526.827 86.2334 526.827 86.2334L532.751 84.3659Z" fill="#FFA283"/>
<path d="M582.168 92.3255C576.444 101.06 558.17 116.525 549.324 117.206C540.477 117.887 523.625 87.2288 523.625 87.2288L529.95 78.5332C529.95 78.5332 546.262 95.5547 550.525 94.4264C554.788 93.2982 563.914 73.417 575.783 74.6231C587.652 75.8098 584.249 89.1546 582.168 92.3255Z" fill="#0099A0"/>
</svg>
