<svg width="567" height="381" viewBox="0 0 567 381" fill="none" xmlns="http://www.w3.org/2000/svg">
<path d="M20.2019 115.92C21.1621 113.92 22.1222 111.921 23.0824 109.921L24.5912 110.721C23.6311 112.721 22.6709 114.72 21.7107 116.72L20.2019 115.92Z" fill="white"/>
<path d="M14.5781 129.785C15.4011 127.652 16.087 125.652 16.91 123.519L18.556 124.052C17.733 126.052 17.0471 128.185 16.2241 130.185L14.5781 129.785Z" fill="white"/>
<path d="M10.1887 143.917C10.7374 141.784 11.4232 139.651 12.1091 137.518L13.7551 138.051C13.2064 140.184 12.3834 142.317 11.8347 144.45L10.1887 143.917Z" fill="white"/>
<path d="M6.75952 158.449C7.17102 156.315 7.71969 154.049 8.13119 151.916L9.77719 152.316C9.36569 154.449 8.81702 156.582 8.40552 158.715L6.75952 158.449Z" fill="white"/>
<path d="M4.56494 173.114L5.38795 166.448L7.03397 166.714L6.21096 173.247L4.56494 173.114Z" fill="white"/>
<path d="M3.60474 187.912C3.7419 185.646 3.7419 183.513 3.87907 181.246L5.52505 181.379C5.38789 183.513 5.38789 185.779 5.25072 187.912H3.60474Z" fill="white"/>
<path d="M3.87907 202.71C3.7419 201.644 3.7419 200.444 3.60474 199.377V196.044H5.25075V199.377C5.25075 200.444 5.38792 201.51 5.52509 202.71H3.87907Z" fill="white"/>
<path d="M5.52511 217.509L4.56494 210.843L6.21094 210.709L7.17111 217.242L5.52511 217.509Z" fill="white"/>
<path d="M8.40557 232.04C8.13123 230.974 7.8569 229.907 7.58256 228.841L6.89673 225.508L8.54273 225.241L9.22857 228.441C9.50291 229.507 9.77724 230.574 10.0516 231.64L8.40557 232.04Z" fill="white"/>
<path d="M12.795 246.305L10.6003 239.906L12.2463 239.506L14.441 245.772L12.795 246.305Z" fill="white"/>
<path d="M18.2817 260.037L15.6755 253.905L17.3215 253.372L19.9277 259.371L18.2817 260.037Z" fill="white"/>
<path d="M25.2773 273.369C24.7286 272.436 24.1799 271.503 23.6313 270.436L22.1224 267.503L23.6313 266.703L25.1401 269.636C25.6888 270.569 26.2374 271.503 26.7861 272.436L25.2773 273.369Z" fill="white"/>
<path d="M33.2328 286.034C31.9983 284.168 30.6266 282.435 29.5293 280.435L31.0381 279.635C32.1355 281.502 33.5071 283.368 34.7416 285.101L33.2328 286.034Z" fill="white"/>
<path d="M42.1487 298.033L38.0337 292.7L39.2682 291.767L43.5204 296.966L42.1487 298.033Z" fill="white"/>
<path d="M52.0246 309.365L47.498 304.299L48.7326 303.232L53.2591 308.165L52.0246 309.365Z" fill="white"/>
<path d="M62.5866 319.897L57.7858 315.231L59.0203 314.165L63.8211 318.831L62.5866 319.897Z" fill="white"/>
<path d="M73.8343 329.896L68.7592 325.497L69.8565 324.297L74.9317 328.696L73.8343 329.896Z" fill="white"/>
<path d="M85.6306 339.229L80.2811 335.229L81.3785 333.896L86.728 338.029L85.6306 339.229Z" fill="white"/>
<path d="M97.9759 348.028L92.3521 344.295L93.3122 342.961L98.9361 346.694L97.9759 348.028Z" fill="white"/>
<path d="M113.476 337.895C112.515 340.028 111.555 342.162 110.732 344.161L109.223 343.495C110.046 341.362 111.007 339.229 111.967 337.095L113.476 337.895Z" fill="white"/>
<path d="M120.334 324.03C119.236 326.03 118.139 328.163 117.179 330.163L115.67 329.496C116.767 327.363 117.728 325.363 118.825 323.364L120.334 324.03Z" fill="white"/>
<path d="M128.152 310.832C126.918 312.831 125.683 314.698 124.586 316.698L123.077 315.898C124.312 313.898 125.409 311.898 126.644 309.898L128.152 310.832Z" fill="white"/>
<path d="M136.794 298.033C135.422 299.9 134.051 301.766 132.816 303.632L131.444 302.699C132.816 300.833 134.188 298.833 135.559 296.967L136.794 298.033Z" fill="white"/>
<path d="M146.533 286.034C145.024 287.768 143.515 289.501 142.006 291.367L140.635 290.301C142.143 288.434 143.652 286.701 145.161 284.968L146.533 286.034Z" fill="white"/>
<path d="M157.369 274.836C155.723 276.435 154.077 278.035 152.431 279.768L151.196 278.702C152.842 276.969 154.488 275.369 156.134 273.769L157.369 274.836Z" fill="white"/>
<path d="M169.165 264.837C167.382 266.303 165.462 267.636 163.679 269.236L162.581 268.036C164.364 266.57 166.148 265.103 168.068 263.637L169.165 264.837Z" fill="white"/>
<path d="M181.922 256.038C179.864 257.238 177.944 258.437 176.024 259.771L175.063 258.437C176.984 257.104 179.041 255.904 181.099 254.704L181.922 256.038Z" fill="white"/>
<path d="M195.775 248.839C193.581 249.772 191.523 250.838 189.466 251.905L188.643 250.438C190.837 249.372 192.895 248.305 195.09 247.372L195.775 248.839Z" fill="white"/>
<path d="M210.452 243.506L207.16 244.439L203.868 245.639L203.183 244.172L206.612 242.973L210.041 241.906L210.452 243.506Z" fill="white"/>
<path d="M225.678 239.906L222.249 240.573L218.82 241.239L218.408 239.64L221.975 238.973L225.404 238.306L225.678 239.906Z" fill="white"/>
<path d="M241.315 238.306L237.749 238.573L234.32 238.84L234.182 237.24L237.749 236.84L241.315 236.706V238.306Z" fill="white"/>
<path d="M257.089 238.573C254.757 238.306 252.426 238.306 250.094 238.173V236.573C252.426 236.707 254.895 236.707 257.226 236.973L257.089 238.573Z" fill="white"/>
<path d="M272.589 240.44C270.257 240.04 267.926 239.64 265.594 239.373L265.868 237.773C268.2 238.04 270.532 238.44 272.864 238.84L272.589 240.44Z" fill="white"/>
<path d="M287.952 243.906C285.62 243.239 283.425 242.839 281.093 242.173L281.505 240.573C283.837 241.106 286.168 241.639 288.363 242.306L287.952 243.906Z" fill="white"/>
<path d="M289.872 229.241C291.381 230.841 292.89 232.307 294.536 233.907L293.301 235.107C291.793 233.507 290.147 232.041 288.638 230.441L289.872 229.241Z" fill="white"/>
<path d="M280.271 218.309C281.642 220.042 283.014 221.642 284.386 223.375L283.151 224.441C281.779 222.708 280.271 221.108 278.899 219.375L280.271 218.309Z" fill="white"/>
<path d="M271.903 206.31C273.138 208.176 274.235 210.043 275.47 211.776L274.098 212.709C272.864 210.976 271.629 208.976 270.532 207.243L271.903 206.31Z" fill="white"/>
<path d="M265.319 193.511L266.554 196.444L267.926 199.377L266.417 200.044L265.045 197.111L263.673 194.045L265.319 193.511Z" fill="white"/>
<path d="M261.067 179.779C261.479 181.913 262.027 183.912 262.576 186.045L260.93 186.445C260.381 184.312 259.833 182.179 259.421 180.046L261.067 179.779Z" fill="white"/>
<path d="M259.97 165.514L259.833 168.714C259.833 169.781 259.97 170.847 259.97 171.914L258.324 172.047C258.324 170.98 258.05 169.914 258.187 168.714L258.324 165.381L259.97 165.514Z" fill="white"/>
<path d="M262.439 151.383C261.753 153.383 261.342 155.516 260.93 157.649L259.284 157.382C259.833 155.249 260.244 153.116 260.93 150.983L262.439 151.383Z" fill="white"/>
<path d="M268.2 138.317C266.965 140.184 266.142 142.184 265.182 144.05L263.673 143.384C264.634 141.384 265.456 139.384 266.691 137.518L268.2 138.317Z" fill="white"/>
<path d="M276.567 126.585C275.058 128.185 273.824 129.918 272.589 131.651L271.218 130.718C272.589 128.985 273.824 127.118 275.333 125.519L276.567 126.585Z" fill="white"/>
<path d="M279.173 108.854C279.585 111.121 279.859 113.387 280.133 115.653L278.487 115.787C278.213 113.52 277.939 111.254 277.527 109.121L279.173 108.854Z" fill="white"/>
<path d="M275.744 93.9222C276.43 96.1887 276.979 98.3218 277.527 100.588L275.881 100.988C275.333 98.7217 274.784 96.5886 274.235 94.4555L275.744 93.9222Z" fill="white"/>
<path d="M270.806 79.3905C271.629 81.5236 272.452 83.6567 273.275 85.7898L271.629 86.3231C270.943 84.19 270.12 82.0569 269.297 79.9238L270.806 79.3905Z" fill="white"/>
<path d="M264.222 65.5256C265.32 67.5254 266.417 69.5252 267.377 71.6583L265.868 72.3249C264.908 70.1918 263.811 68.192 262.713 66.1922L264.222 65.5256Z" fill="white"/>
<path d="M256.129 52.4601C257.501 54.3266 258.735 56.3264 259.97 58.1928L258.461 58.9927C257.227 57.1263 255.992 55.1265 254.62 53.3934L256.129 52.4601Z" fill="white"/>
<path d="M246.116 40.4616C247.762 42.0615 249.271 43.9279 250.78 45.6611L249.408 46.7276C247.899 44.9945 246.527 43.2613 244.881 41.6615L246.116 40.4616Z" fill="white"/>
<path d="M234.594 30.0624L237.337 32.1955C238.297 32.8621 239.12 33.7953 239.943 34.4619L238.846 35.6618C238.023 34.8619 237.2 34.062 236.24 33.3954L233.497 31.2623L234.594 30.0624Z" fill="white"/>
<path d="M221.7 21.2638C223.758 22.4637 225.815 23.5302 227.736 24.9967L226.776 26.3299C224.855 24.9967 222.935 23.9302 220.877 22.7303L221.7 21.2638Z" fill="white"/>
<path d="M207.572 14.4647L210.864 15.7979C211.961 16.1978 212.922 16.8644 214.019 17.2644L213.333 18.7309C212.236 18.1976 211.276 17.6643 210.178 17.2644L207.023 15.9312L207.572 14.4647Z" fill="white"/>
<path d="M192.758 9.53174C195.09 10.065 197.284 10.8649 199.479 11.5315L198.93 12.998C196.736 12.3314 194.541 11.5315 192.209 10.9982L192.758 9.53174Z" fill="white"/>
<path d="M177.395 6.19885L184.254 7.53204L183.979 9.13187L177.121 7.932L177.395 6.19885Z" fill="white"/>
<path d="M161.621 4.73209L165.187 4.86541C166.422 4.86541 167.519 5.13205 168.754 5.26537L168.617 6.8652C167.519 6.73188 166.285 6.59856 165.187 6.46524L161.621 6.33192V4.73209Z" fill="white"/>
<path d="M145.984 4.33218H152.979V5.93199L145.984 6.06531V4.33218Z" fill="white"/>
<path d="M130.347 5.26537C131.444 4.99873 132.679 4.99873 133.776 4.99873L137.342 4.73209L137.48 6.33192L134.05 6.59856C132.953 6.59856 131.719 6.73188 130.621 6.8652L130.347 5.26537Z" fill="white"/>
<path d="M114.71 7.39866C117.042 6.9987 119.374 6.59875 121.706 6.19879L121.98 7.79861C119.648 8.19856 117.453 8.59852 115.122 8.99847L114.71 7.39866Z" fill="white"/>
<path d="M99.4845 11.1313L102.776 10.1981L106.206 9.26489L106.617 10.8647L103.325 11.6646L100.033 12.7312L99.4845 11.1313Z" fill="white"/>
<path d="M84.8075 16.7309C86.865 15.6644 89.1968 14.8645 91.2544 14.0645L91.9402 15.531C89.7455 16.4643 87.5508 17.1309 85.4933 18.1974L84.8075 16.7309Z" fill="white"/>
<path d="M71.0908 24.3302C73.0112 22.997 75.0687 21.7971 77.1262 20.7306L77.9492 22.1971C75.8917 23.397 73.9713 24.4635 72.051 25.7967L71.0908 24.3302Z" fill="white"/>
<path d="M58.7458 33.9289L61.352 31.5292C62.175 30.7292 63.1352 30.0626 64.0954 29.3961L65.1927 30.7292C64.3697 31.3958 63.4095 32.0624 62.4494 32.8623L59.8432 35.1288L58.7458 33.9289Z" fill="white"/>
<path d="M48.3212 45.3942C49.6928 43.5278 51.2017 41.7946 52.7105 40.0615L53.945 41.128C52.4362 42.8612 50.9273 44.5943 49.5557 46.4608L48.3212 45.3942Z" fill="white"/>
<path d="M39.9541 58.3263C41.0514 56.3265 42.1488 54.3268 43.3833 52.327L44.8921 53.1269C43.6576 54.9933 42.5603 56.9931 41.4629 58.9929L39.9541 58.3263Z" fill="white"/>
<path d="M33.7815 72.4579L34.8788 69.2583L36.2505 66.0587L37.7593 66.5919L36.5248 69.7916L35.2903 72.9912L33.7815 72.4579Z" fill="white"/>
<path d="M29.6665 87.2562C30.078 84.9898 30.6267 82.7234 31.1753 80.5903L32.8214 80.9903C32.2727 83.1234 31.724 85.3898 31.3125 87.6562L29.6665 87.2562Z" fill="white"/>
<path d="M27.7462 102.455C27.8834 100.188 28.0205 97.9218 28.2949 95.6554L29.9409 95.7887C29.6666 98.0551 29.5294 100.322 29.3922 102.588L27.7462 102.455Z" fill="white"/>
<path d="M548.844 344.295L554.742 341.095L555.565 342.428L549.667 345.628L548.844 344.295Z" fill="white"/>
<path d="M535.264 350.961C537.321 350.027 539.379 349.094 541.436 348.028L542.259 349.494C540.202 350.561 538.144 351.494 536.087 352.427L535.264 350.961Z" fill="white"/>
<path d="M521.41 357.093L527.72 354.294L528.405 355.893L522.096 358.56L521.41 357.093Z" fill="white"/>
<path d="M507.282 362.426C509.339 361.626 511.534 360.96 513.591 360.026L514.277 361.493C512.22 362.426 510.025 363.093 507.83 363.893L507.282 362.426Z" fill="white"/>
<path d="M492.879 367.225C495.074 366.692 497.269 365.892 499.326 365.226L499.875 366.825C497.68 367.492 495.486 368.292 493.291 368.825L492.879 367.225Z" fill="white"/>
<path d="M478.203 370.958C480.397 370.558 482.592 369.892 484.787 369.359L485.198 370.958C483.004 371.492 480.809 372.025 478.477 372.558L478.203 370.958Z" fill="white"/>
<path d="M463.388 373.625C465.583 373.358 467.915 372.958 470.11 372.558L470.384 374.158C468.189 374.558 465.857 374.958 463.663 375.224L463.388 373.625Z" fill="white"/>
<path d="M448.3 374.825C450.632 374.825 452.827 374.558 455.021 374.425L455.159 376.024C452.827 376.158 450.632 376.424 448.3 376.424V374.825Z" fill="white"/>
<path d="M433.074 374.691C435.269 374.825 437.601 374.958 439.796 374.958V376.558C437.464 376.558 435.269 376.424 432.937 376.291L433.074 374.691Z" fill="white"/>
<path d="M418.123 372.692C420.318 373.225 422.65 373.492 424.845 373.758L424.57 375.358C422.376 374.958 420.044 374.691 417.849 374.158L418.123 372.692Z" fill="white"/>
<path d="M403.584 368.959L406.876 370.025C407.973 370.425 409.071 370.692 410.168 370.959L409.756 372.558C408.659 372.292 407.562 372.025 406.464 371.625L403.172 370.559L403.584 368.959Z" fill="white"/>
<path d="M389.73 363.093C391.787 364.026 393.708 365.092 395.902 365.892L395.216 367.359C393.159 366.559 391.101 365.492 389.044 364.426L389.73 363.093Z" fill="white"/>
<path d="M376.836 355.494C378.756 356.693 380.539 358.027 382.46 359.093L381.5 360.426C379.579 359.227 377.659 358.027 375.739 356.693L376.836 355.494Z" fill="white"/>
<path d="M365.177 346.161C366.823 347.628 368.469 349.094 370.252 350.561L369.155 351.894C367.372 350.561 365.726 348.961 363.942 347.494L365.177 346.161Z" fill="white"/>
<path d="M354.615 335.496C356.124 337.095 357.495 338.829 359.141 340.428L357.907 341.495C356.261 339.895 354.889 338.162 353.38 336.562L354.615 335.496Z" fill="white"/>
<path d="M345.562 323.763C346.796 325.63 348.168 327.363 349.54 329.096L348.168 330.029C346.796 328.296 345.425 326.43 344.19 324.563L345.562 323.763Z" fill="white"/>
<path d="M337.606 311.232C338.703 313.098 339.801 315.098 341.035 316.964L339.526 317.764C338.292 315.898 337.195 313.898 336.097 312.032L337.606 311.232Z" fill="white"/>
<path d="M330.748 298.033C331.708 300.033 332.668 302.033 333.629 304.033L332.12 304.699C331.16 302.699 330.062 300.7 329.239 298.7L330.748 298.033Z" fill="white"/>
<path d="M325.124 284.435C325.947 286.568 326.77 288.567 327.593 290.567L326.084 291.234C325.261 289.234 324.438 287.101 323.615 284.968L325.124 284.435Z" fill="white"/>
<path d="M320.323 270.436C321.009 272.569 321.558 274.702 322.244 276.702L320.598 277.235C319.912 275.102 319.226 272.969 318.54 270.836L320.323 270.436Z" fill="white"/>
<path d="M316.757 256.171C317.168 258.304 317.717 260.437 318.266 262.57L316.62 262.97C316.071 260.837 315.522 258.704 315.111 256.438L316.757 256.171Z" fill="white"/>
<path d="M374.367 206.577C373.544 208.71 372.858 210.843 372.31 212.976L370.664 212.576C371.349 210.443 372.035 208.176 372.858 206.043L374.367 206.577Z" fill="white"/>
<path d="M380.54 192.978C379.991 193.911 379.443 194.978 379.031 195.911C378.482 196.844 378.071 197.911 377.522 198.977L376.013 198.311C376.425 197.244 376.974 196.311 377.522 195.244C378.071 194.178 378.482 193.245 379.168 192.178L380.54 192.978Z" fill="white"/>
<path d="M388.632 180.313C387.261 182.179 386.026 184.046 384.792 185.912L383.42 184.979C384.654 183.113 386.026 181.246 387.398 179.38L388.632 180.313Z" fill="white"/>
<path d="M398.509 168.847C397 170.447 395.354 172.047 393.982 173.914L392.748 172.847C394.257 171.114 395.766 169.381 397.412 167.781L398.509 168.847Z" fill="white"/>
<path d="M409.756 158.582L404.544 162.981L403.31 161.781L408.659 157.382L409.756 158.582Z" fill="white"/>
<path d="M422.102 149.916C420.181 151.116 418.261 152.449 416.341 153.649L415.38 152.316C417.301 151.116 419.221 149.783 421.141 148.583L422.102 149.916Z" fill="white"/>
<path d="M435.544 142.584L429.508 145.783L428.685 144.317L434.858 141.117L435.544 142.584Z" fill="white"/>
<path d="M449.809 136.851L443.362 139.251L442.676 137.784L449.123 135.384L449.809 136.851Z" fill="white"/>
<path d="M464.486 132.451L461.057 133.251L457.765 134.318L457.353 132.718L460.645 131.651L463.937 130.852L464.486 132.451Z" fill="white"/>
<path d="M479.437 129.118L472.715 130.452L472.304 128.852L479.162 127.519L479.437 129.118Z" fill="white"/>
<path d="M494.663 126.985C492.331 127.119 490.136 127.518 487.805 127.785L487.53 126.185C489.862 125.919 492.057 125.519 494.389 125.385L494.663 126.985Z" fill="white"/>
<path d="M510.026 125.919C507.694 126.052 505.362 126.052 503.167 126.319L503.03 124.719C505.362 124.452 507.694 124.452 510.026 124.319V125.919Z" fill="white"/>
<path d="M525.525 125.652H518.53V123.919H525.525V125.652Z" fill="white"/>
<path d="M540.888 126.185L534.029 125.785V124.186L541.025 124.452L540.888 126.185Z" fill="white"/>
<path d="M34.0558 102.721C31.9983 103.654 29.9408 104.588 27.8833 105.654L27.0603 104.188C29.1178 103.121 31.1753 102.188 33.37 101.255L34.0558 102.721Z" fill="white"/>
<path d="M48.3212 97.1218C46.1265 97.9217 44.069 98.7216 41.8743 99.5215L41.1885 98.055C43.3832 97.2551 45.4407 96.4552 47.6353 95.6553L48.3212 97.1218Z" fill="white"/>
<path d="M62.8608 92.3222C60.6661 92.9888 58.4715 93.6554 56.2768 94.322L55.7281 92.7221C57.9228 92.0556 60.1175 91.2557 62.3121 90.7224L62.8608 92.3222Z" fill="white"/>
<path d="M77.8119 88.4565C75.6172 88.8564 73.2854 89.523 71.0907 90.0563L70.6792 88.4565C72.8739 87.9232 75.2057 87.2566 77.4004 86.8567L77.8119 88.4565Z" fill="white"/>
<path d="M92.9003 85.523C90.5685 85.923 88.3738 86.3229 86.1791 86.7229L85.9048 85.123C88.2366 84.7231 90.4313 84.1898 92.7631 83.9232L92.9003 85.523Z" fill="white"/>
<path d="M108.126 83.3904L101.268 84.1903L100.993 82.5905L107.852 81.7906L108.126 83.3904Z" fill="white"/>
<path d="M123.352 82.1901C121.02 82.3234 118.688 82.3234 116.493 82.59L116.356 80.9902C118.688 80.7236 121.02 80.7236 123.352 80.5902V82.1901Z" fill="white"/>
<path d="M138.714 81.9234C136.382 81.9234 134.05 81.9234 131.856 81.9234V80.3235C134.188 80.3235 136.519 80.1902 138.851 80.3235L138.714 81.9234Z" fill="white"/>
<path d="M154.214 82.4568C151.882 82.3235 149.688 82.1902 147.356 82.0569L147.493 80.457C149.825 80.5904 152.157 80.7237 154.488 80.857L154.214 82.4568Z" fill="white"/>
<path d="M169.44 83.9234L162.581 83.1235L162.718 81.5237L169.714 82.3236L169.44 83.9234Z" fill="white"/>
<path d="M184.665 86.3233L181.236 85.6567L177.807 85.1235L178.081 83.5237L181.51 84.0569L184.94 84.7235L184.665 86.3233Z" fill="white"/>
<path d="M199.616 89.523L192.895 87.9232L193.307 86.3233L200.028 87.9232L199.616 89.523Z" fill="white"/>
<path d="M214.43 93.5222L207.846 91.6557L208.395 90.0559L214.979 91.9224L214.43 93.5222Z" fill="white"/>
<path d="M229.107 98.3216L222.523 96.1885L223.072 94.5887L229.656 96.8551L229.107 98.3216Z" fill="white"/>
<path d="M243.235 104.054C241.178 103.121 238.983 102.321 236.926 101.521L237.612 100.055C239.806 100.855 241.864 101.655 244.058 102.721L243.235 104.054Z" fill="white"/>
<path d="M257.226 110.321L254.209 108.854C253.111 108.321 252.151 107.921 251.054 107.388L251.74 105.921C252.837 106.455 253.797 106.855 254.894 107.388L258.049 108.988L257.226 110.321Z" fill="white"/>
<path d="M270.806 117.387C268.749 116.32 266.828 115.12 264.771 114.187L265.594 112.72C267.651 113.654 269.709 114.854 271.629 116.053L270.806 117.387Z" fill="white"/>
<path d="M283.974 125.119C282.054 123.919 280.133 122.586 278.213 121.519L279.036 120.053C281.093 121.119 283.014 122.453 284.934 123.652L283.974 125.119Z" fill="white"/>
<path d="M296.593 133.651L291.107 129.651L292.067 128.318L297.691 132.318L296.593 133.651Z" fill="white"/>
<path d="M308.527 142.984L303.314 138.717L304.412 137.518L309.761 141.784L308.527 142.984Z" fill="white"/>
<path d="M319.912 153.249L317.443 150.849L314.837 148.583L316.071 147.383L318.54 149.65L321.009 152.049L319.912 153.249Z" fill="white"/>
<path d="M330.611 163.914L325.81 158.982L327.045 157.915L331.845 162.848L330.611 163.914Z" fill="white"/>
<path d="M340.624 175.247C339.252 173.513 337.606 171.78 336.097 170.181L337.332 169.114C338.841 170.847 340.349 172.447 341.858 174.313L340.624 175.247Z" fill="white"/>
<path d="M350.226 186.979L345.974 181.646L347.345 180.579L351.597 186.045L350.226 186.979Z" fill="white"/>
<path d="M359.141 199.111C357.769 197.244 356.535 195.378 355.163 193.645L356.535 192.711C357.907 194.578 359.141 196.444 360.513 198.311L359.141 199.111Z" fill="white"/>
<path d="M371.487 188.978C371.349 191.245 371.075 193.511 371.075 195.911H369.429C369.429 193.645 369.703 191.245 369.84 188.978H371.487Z" fill="white"/>
<path d="M373.407 173.647C372.858 175.913 372.721 178.18 372.447 180.446L370.801 180.313C371.075 178.046 371.349 175.647 371.761 173.38L373.407 173.647Z" fill="white"/>
<path d="M376.699 158.582C376.15 160.848 375.601 163.115 375.053 165.248L373.407 164.848C373.955 162.581 374.504 160.315 375.053 158.049L376.699 158.582Z" fill="white"/>
<path d="M381.774 144.05C380.814 146.183 380.128 148.316 379.305 150.45L377.659 149.916C378.482 147.783 379.305 145.517 380.265 143.384L381.774 144.05Z" fill="white"/>
<path d="M388.77 130.318C387.535 132.318 386.438 134.318 385.34 136.318L383.832 135.518C384.929 133.518 386.026 131.385 387.261 129.385L388.77 130.318Z" fill="white"/>
<path d="M397.685 117.653C396.313 119.52 394.667 121.253 393.433 123.119L392.061 122.186C393.296 120.186 394.942 118.453 396.313 116.587L397.685 117.653Z" fill="white"/>
<path d="M408.522 106.454C407.699 107.254 406.738 108.054 405.915 108.854L403.446 111.387L402.212 110.187L404.681 107.654C405.504 106.854 406.464 106.054 407.287 105.254L408.522 106.454Z" fill="white"/>
<path d="M421.004 96.9886L418.123 98.9884L415.243 100.988L414.146 99.655L417.026 97.5219C417.986 96.8553 418.946 96.1887 420.044 95.5221L421.004 96.9886Z" fill="white"/>
<path d="M434.721 89.523C433.623 89.923 432.526 90.4562 431.566 90.9895C430.468 91.5228 429.508 92.0561 428.411 92.5893L427.588 91.1228C428.685 90.5896 429.645 90.0563 430.743 89.523C431.84 88.9897 432.937 88.4565 434.035 88.0565L434.721 89.523Z" fill="white"/>
<path d="M449.534 84.1901C447.203 84.7233 445.008 85.5232 442.813 86.3232L442.265 84.7233C444.596 83.9234 446.791 83.2568 449.123 82.5902L449.534 84.1901Z" fill="white"/>
<path d="M447.478 201.51C445.283 201.51 443.088 201.644 440.894 201.777L440.756 200.177C442.951 199.911 445.283 199.911 447.478 199.911V201.51Z" fill="white"/>
<path d="M462.154 202.977C461.057 202.844 459.959 202.577 458.862 202.444L455.57 202.044L455.707 200.444L458.999 200.844C460.096 200.977 461.194 201.244 462.291 201.377L462.154 202.977Z" fill="white"/>
<path d="M476.282 206.977C474.225 206.31 472.167 205.51 469.972 204.843L470.521 203.244C472.716 203.777 474.773 204.577 476.831 205.377L476.282 206.977Z" fill="white"/>
<path d="M489.45 213.242L486.57 211.643L483.689 210.176L484.512 208.709L487.393 210.176L490.41 211.909L489.45 213.242Z" fill="white"/>
<path d="M501.521 221.641C499.738 220.308 498.092 218.975 496.309 217.642L497.269 216.309C499.052 217.509 500.835 218.975 502.618 220.308L501.521 221.641Z" fill="white"/>
<path d="M512.22 231.374L507.556 226.841L508.791 225.641L513.454 230.307L512.22 231.374Z" fill="white"/>
<path d="M521.684 242.573C520.313 240.839 519.078 239.106 517.707 237.506L519.078 236.44C520.45 238.173 521.822 239.906 523.193 241.639L521.684 242.573Z" fill="white"/>
<path d="M529.777 254.438L528.131 251.638C527.583 250.705 526.897 249.905 526.348 248.972L527.72 248.039C528.268 248.972 528.954 249.772 529.64 250.705L531.423 253.505L529.777 254.438Z" fill="white"/>
<path d="M536.91 267.103L533.893 261.37L535.401 260.57L538.556 266.437L536.91 267.103Z" fill="white"/>
<path d="M543.082 280.168C542.671 279.235 542.259 278.169 541.848 277.235L540.476 274.302L541.985 273.636L543.357 276.569C543.768 277.502 544.18 278.569 544.591 279.635L543.082 280.168Z" fill="white"/>
<path d="M548.432 293.633C547.746 291.634 546.923 289.501 546.237 287.501L547.883 286.968C548.706 288.967 549.392 291.1 550.078 293.1L548.432 293.633Z" fill="white"/>
<path d="M552.959 307.365L551.038 301.233L552.684 300.699L554.605 306.965L552.959 307.365Z" fill="white"/>
<path d="M556.936 321.364L555.153 315.098L556.799 314.698L558.582 320.964L556.936 321.364Z" fill="white"/>
<path d="M560.228 335.362L558.719 329.096L560.366 328.696L561.874 335.096L560.228 335.362Z" fill="white"/>
<path d="M314.288 257.104C316.561 257.104 318.403 255.314 318.403 253.105C318.403 250.896 316.561 249.105 314.288 249.105C312.015 249.105 310.173 250.896 310.173 253.105C310.173 255.314 312.015 257.104 314.288 257.104Z" fill="#5083A3"/>
<path d="M452.827 87.3896C455.1 87.3896 456.942 85.5989 456.942 83.39C456.942 81.1811 455.1 79.3905 452.827 79.3905C450.554 79.3905 448.712 81.1811 448.712 83.39C448.712 85.5989 450.554 87.3896 452.827 87.3896Z" fill="#5083A3"/>
<path d="M544.454 130.452C546.727 130.452 548.569 128.661 548.569 126.452C548.569 124.243 546.727 122.453 544.454 122.453C542.181 122.453 540.339 124.243 540.339 126.452C540.339 128.661 542.181 130.452 544.454 130.452Z" fill="#5083A3"/>
<path d="M557.896 344.828C560.169 344.828 562.011 343.037 562.011 340.828C562.011 338.619 560.169 336.829 557.896 336.829C555.624 336.829 553.781 338.619 553.781 340.828C553.781 343.037 555.624 344.828 557.896 344.828Z" fill="#5083A3"/>
<path d="M279.036 126.452C281.309 126.452 283.151 124.661 283.151 122.453C283.151 120.244 281.309 118.453 279.036 118.453C276.764 118.453 274.921 120.244 274.921 122.453C274.921 124.661 276.764 126.452 279.036 126.452Z" fill="#5083A3"/>
<path d="M369.567 220.042C371.839 220.042 373.682 218.251 373.682 216.042C373.682 213.834 371.839 212.043 369.567 212.043C367.294 212.043 365.452 213.834 365.452 216.042C365.452 218.251 367.294 220.042 369.567 220.042Z" fill="#5083A3"/>
<path d="M105.794 357.76C108.067 357.76 109.909 355.969 109.909 353.76C109.909 351.551 108.067 349.761 105.794 349.761C103.522 349.761 101.679 351.551 101.679 353.76C101.679 355.969 103.522 357.76 105.794 357.76Z" fill="#5083A3"/>
<path d="M26.1002 111.787C28.3729 111.787 30.2152 109.997 30.2152 107.788C30.2152 105.579 28.3729 103.788 26.1002 103.788C23.8276 103.788 21.9852 105.579 21.9852 107.788C21.9852 109.997 23.8276 111.787 26.1002 111.787Z" fill="#5083A3"/>
<path d="M153.803 9.79828C156.075 9.79828 157.918 8.00762 157.918 5.79872C157.918 3.58983 156.075 1.79916 153.803 1.79916C151.53 1.79916 149.688 3.58983 149.688 5.79872C149.688 8.00762 151.53 9.79828 153.803 9.79828Z" fill="#5083A3"/>
<path opacity="0.4" d="M305.3 336.234C378.367 336.234 437.6 278.664 437.6 207.646C437.6 136.629 378.367 79.0581 305.3 79.0581C232.233 79.0581 173 136.629 173 207.646C173 278.664 232.233 336.234 305.3 336.234Z" fill="url(#paint0_linear)"/>
<mask id="mask0" mask-type="alpha" maskUnits="userSpaceOnUse" x="173" y="79" width="266" height="258">
<path d="M305.8 336.234C378.867 336.234 438.1 278.664 438.1 207.646C438.1 136.629 378.867 79.0581 305.8 79.0581C232.733 79.0581 173.5 136.629 173.5 207.646C173.5 278.664 232.733 336.234 305.8 336.234Z" fill="white"/>
</mask>
<g mask="url(#mask0)">
<path d="M359.2 225.433L301.7 258.576L264.9 229.709L320.4 193.65L342.7 188.596L359.2 225.433Z" fill="#D1A16B"/>
<path d="M252.3 229.709L311.5 266.643L348.5 227.571L309.5 186.264H270.7L252.3 229.709Z" fill="#F5C289"/>
<path d="M323.2 261.784C323.2 265.477 320.1 268.49 316.3 268.49C312.5 268.49 309.4 265.477 309.4 261.784C309.4 258.09 312.5 255.077 316.3 255.077C320.1 255.077 323.2 258.09 323.2 261.784Z" fill="#F5C289"/>
<path d="M334.9 254.494C334.9 258.673 331.4 262.075 327.1 262.075C322.8 262.075 319.3 258.673 319.3 254.494C319.3 250.315 322.8 246.913 327.1 246.913C331.4 246.816 334.9 250.217 334.9 254.494Z" fill="#F5C289"/>
<path d="M351.8 233.5C351.8 237.679 348.3 241.081 344 241.081C339.7 241.081 336.2 237.679 336.2 233.5C336.2 229.321 339.7 225.919 344 225.919C348.3 225.919 351.8 229.321 351.8 233.5Z" fill="#F5C289"/>
<path d="M345 245.358C345 249.537 341.5 252.939 337.2 252.939C332.9 252.939 329.4 249.537 329.4 245.358C329.4 241.178 332.9 237.777 337.2 237.777C341.5 237.777 345 241.178 345 245.358Z" fill="#F5C289"/>
<path d="M257.062 177.442L236.559 227.779L251.529 233.539L272.032 183.202L257.062 177.442Z" fill="white"/>
<path d="M140.523 124.88L113.976 190.038L238.011 237.778L264.558 172.62L140.523 124.88Z" fill="#057BAA"/>
<path d="M339.9 184.417L311.8 178.682L291.9 188.693L280.8 209.104C280.8 209.104 290.6 216.88 296.5 209.104C302.4 201.329 302.8 199.774 302.8 199.774L310.4 198.316C310.4 198.316 317.2 212.603 333.8 212.603C345.9 212.603 350.1 205.022 350.1 205.022L339.9 184.417Z" fill="#D1A16B"/>
<path d="M257.6 237.193C257.6 237.193 262.7 229.418 265.9 230.487C269.1 231.556 273.5 236.027 272.9 238.846C272.3 241.762 269 246.524 266.7 246.135C264.4 245.649 256.2 240.206 257.6 237.193Z" fill="#D1A16B"/>
<path d="M267.8 245.066C267.8 245.066 279.1 233.403 281.8 232.722C284.6 231.945 292.5 234.375 289.7 241.178C288.2 244.775 281 253.23 277.6 253.716C274.1 254.202 265.5 249.731 267.8 245.066Z" fill="#D1A16B"/>
<path d="M280.8 250.315C280.8 250.315 280.7 250.509 280.6 250.801C280.3 251.773 280.4 254.202 284.7 257.118C290.4 261.006 301.7 250.606 302.7 246.038C303.7 241.47 297.7 234.472 291.7 239.915" fill="#D1A16B"/>
<path d="M291.7 256.341C291.7 256.341 291.6 256.535 291.4 256.827C291 257.799 290.5 260.131 294.2 263.728C299.1 268.587 312.1 260.423 314 256.146C315.9 251.87 311.3 243.9 304.4 248.079" fill="#D1A16B"/>
<path d="M353.691 176.228L338.723 181.991L359.237 232.323L374.206 226.559L353.691 176.228Z" fill="white"/>
<path d="M470.167 123.637L346.132 171.377L372.679 236.534L496.715 188.795L470.167 123.637Z" fill="#27C58B"/>
<path d="M281.3 208.229C281.3 208.229 284.3 210.465 286.8 209.493C289.2 208.521 292.4 201.426 291.9 200.843C291.4 200.26 286.7 198.899 286.7 198.899L281.3 208.229Z" fill="#E3AF74"/>
<path d="M260.5 236.902C260.5 236.902 264.1 242.831 266.6 241.664C269 240.401 271.9 237.679 269.7 235.444C267.5 233.208 266.5 232.528 265 233.111C263.5 233.694 260.5 236.902 260.5 236.902Z" fill="#E3AF74"/>
<path d="M278.1 238.651C278.1 238.651 281.7 244.58 284.2 243.414C286.6 242.15 289.5 239.429 287.3 237.193C285.1 234.958 284.1 234.278 282.6 234.861C281.1 235.444 278.1 238.651 278.1 238.651Z" fill="#E3AF74"/>
<path d="M290.6 244.386C290.6 244.386 294.2 250.315 296.7 249.148C299.1 247.885 302 245.163 299.8 242.928C297.6 240.692 296.6 240.012 295.1 240.595C293.6 241.178 290.6 244.386 290.6 244.386Z" fill="#E3AF74"/>
<path d="M302.3 253.619C302.3 253.619 305.9 259.548 308.4 258.382C310.8 257.118 313.7 254.397 311.5 252.161C309.3 249.926 308.3 249.246 306.8 249.829C305.3 250.412 302.3 253.619 302.3 253.619Z" fill="#E3AF74"/>
</g>
<defs>
<linearGradient id="paint0_linear" x1="211.706" y1="116.73" x2="393.53" y2="303.802" gradientUnits="userSpaceOnUse">
<stop stop-color="#057BAA"/>
<stop offset="1" stop-color="#27C58B"/>
</linearGradient>
</defs>
</svg>
