<svg width="531" height="475" viewBox="0 0 531 475" fill="none" xmlns="http://www.w3.org/2000/svg">
<g clip-path="url(#clip0)">
<g opacity="0.17">
<path opacity="0.17" d="M361.4 141.7L345.8 135C342.7 133.7 340.6 130.9 340.1 127.5C339.6 124.2 340.9 120.9 343.5 118.7L356.6 107.8C356.7 107.7 356.8 107.5 356.7 107.3L336.9 63.9002C336.8 63.7002 336.6 63.6002 336.4 63.7002L319.6 66.5002C316 67.1002 312.4 65.6002 310.3 62.7002C308.5 60.2002 308 57.1002 308.9 54.1002L314 37.9002C314.1 37.7002 314 37.5002 313.8 37.4002L273.7 11.6002C273.5 11.5002 273.3 11.5002 273.2 11.6002L260.5 23.0002C258.7 24.6002 256.5 25.5002 254.1 25.5002C249.7 25.5002 245.9 22.6002 244.8 18.4002L240.4 2.0002C240.4 1.8002 240.2 1.7002 240 1.7002H192.3C192.1 1.7002 191.9 1.8002 191.9 2.0002L187.5 18.4002C186.3 22.7002 182.6 25.5002 178.2 25.5002C175.8 25.5002 173.6 24.6002 171.8 23.0002L159 11.6002C158.9 11.5002 158.7 11.5002 158.5 11.6002L118.4 37.4002C118.2 37.5002 118.2 37.7002 118.2 37.9002L123.3 54.1002C124.2 57.1002 123.7 60.2002 121.9 62.7002C119.8 65.6002 116.1 67.1002 112.6 66.5002L95.8 63.7002C95.6 63.7002 95.4 63.8002 95.3 63.9002L75.5 107.3C75.4 107.5 75.5 107.7 75.6 107.8L88.7 118.7C91.3 120.9 92.6 124.1 92.1 127.5C91.6 130.8 89.5 133.6 86.4 135L70.8 141.7C70.6 141.8 70.5 142 70.6 142.1L77.4 189.3C77.4 189.5 77.6 189.6 77.8 189.7L94.7 191.8C98 192.2 100.9 194.3 102.3 197.4C103.7 200.5 103.4 204 101.5 206.8L92 220.9C91.9 221.1 91.9 221.3 92 221.4L123.3 257.5C123.4 257.6 123.6 257.7 123.8 257.6L139.1 250.2C140.4 249.6 141.8 249.2 143.3 249.2C145.9 249.2 148.4 250.3 150.2 252.1C152 253.9 153 256.4 152.9 259L152.5 276C152.5 276.2 152.6 276.4 152.8 276.4L198.6 289.8C198.8 289.9 199 289.8 199.1 289.6L208 275.1C209.8 272.2 212.8 270.5 216.2 270.5C219.6 270.5 222.6 272.2 224.4 275.1L233.3 289.6C233.4 289.7 233.5 289.8 233.7 289.8H233.8L279.6 276.4C279.8 276.3 279.9 276.2 279.9 276L279.5 259C279.4 256.4 280.4 253.9 282.2 252.1C284 250.2 286.5 249.2 289.1 249.2C290.5 249.2 291.9 249.5 293.3 250.2L308.6 257.6C308.8 257.7 309 257.6 309.1 257.5L340.4 221.4C340.5 221.3 340.5 221 340.4 220.9L330.9 206.8C329 204 328.7 200.5 330.1 197.4C331.5 194.3 334.3 192.3 337.7 191.8L354.6 189.7C354.8 189.7 354.9 189.5 355 189.3L361.8 142.1C361.7 141.9 361.6 141.8 361.4 141.7ZM216.1 214.6C178.1 214.6 147.3 183.8 147.3 145.8C147.3 107.8 178.1 77.0002 216.1 77.0002C254.1 77.0002 284.9 107.8 284.9 145.8C284.9 183.8 254.1 214.6 216.1 214.6Z" fill="black"/>
</g>
<path d="M353.8 140L338.2 133.3C335.1 132 333 129.2 332.5 125.8C332 122.5 333.3 119.2 335.9 117L349 106.1C349.1 106 349.2 105.8 349.1 105.6L329.3 62.2001C329.2 62.0001 329 61.9001 328.8 62.0001L312 64.8001C308.4 65.4001 304.8 63.9001 302.7 61.0001C300.9 58.5001 300.4 55.4001 301.3 52.4001L306.4 36.2001C306.5 36.0001 306.4 35.8001 306.2 35.7001L266.1 9.9001C265.9 9.8001 265.7 9.8001 265.6 9.9001L253 21.4001C251.2 23.0001 249 23.9001 246.6 23.9001C242.2 23.9001 238.4 21.0001 237.3 16.8001L232.9 0.400098C232.9 0.200098 232.7 0.100098 232.5 0.100098H184.8C184.6 0.100098 184.4 0.200098 184.4 0.400098L180 16.8001C178.8 21.1001 175.1 23.9001 170.7 23.9001C168.3 23.9001 166.1 23.0001 164.3 21.4001L151.5 9.9001C151.4 9.8001 151.2 9.8001 151 9.9001L110.9 35.7001C110.7 35.8001 110.7 36.0001 110.7 36.2001L115.8 52.4001C116.7 55.4001 116.2 58.5001 114.4 61.0001C112.3 63.9001 108.6 65.4001 105.1 64.8001L88.3 62.0001C88.1 62.0001 87.9 62.1001 87.8 62.2001L68 105.7C67.9 105.9 68 106.1 68.1 106.2L81.2 117C83.8 119.2 85.1 122.4 84.6 125.8C84.1 129.1 82 131.9 78.9 133.3L63.2 140C63 140.1 62.9 140.3 63 140.4L69.8 187.6C69.8 187.8 70 187.9 70.2 188L87.1 190.1C90.4 190.5 93.3 192.6 94.7 195.7C96.1 198.8 95.8 202.3 93.9 205.1L84.4 219.2C84.3 219.4 84.3 219.6 84.4 219.7L115.7 255.8C115.8 255.9 116 256 116.2 255.9L131.5 248.5C132.8 247.9 134.2 247.5 135.7 247.5C138.3 247.5 140.8 248.6 142.6 250.4C144.4 252.2 145.4 254.7 145.3 257.3L144.9 274.3C144.9 274.5 145 274.7 145.2 274.7L191 288.1C191.2 288.2 191.4 288.1 191.5 287.9L200.4 273.4C202.2 270.5 205.2 268.8 208.6 268.8C212 268.8 215 270.5 216.8 273.4L225.7 287.9C225.8 288 225.9 288.1 226.1 288.1H226.2L272 274.7C272.2 274.6 272.3 274.5 272.3 274.3L271.9 257.3C271.8 254.7 272.8 252.2 274.6 250.4C276.4 248.5 278.9 247.5 281.5 247.5C282.9 247.5 284.3 247.8 285.7 248.5L301 255.9C301.2 256 301.4 255.9 301.5 255.8L332.8 219.7C332.9 219.6 332.9 219.3 332.8 219.2L323.3 205.1C321.4 202.3 321.1 198.8 322.5 195.7C323.9 192.6 326.7 190.6 330.1 190.1L347 188C347.2 188 347.3 187.8 347.4 187.6L354.2 140.4C354.1 140.3 354 140.1 353.8 140ZM208.5 212.9C170.5 212.9 139.7 182.1 139.7 144.1C139.7 106.1 170.5 75.3001 208.5 75.3001C246.5 75.3001 277.3 106.1 277.3 144.1C277.3 182.1 246.5 212.9 208.5 212.9Z" fill="#CCCCCC"/>
<path d="M480 403L470.8 392.9C469 390.9 468.3 388.2 469.1 385.5C469.8 382.9 471.9 380.9 474.5 380.2L487.7 376.5C487.8 376.5 487.9 376.3 487.9 376.2L487.6 337.9C487.6 337.7 487.5 337.6 487.3 337.6L474.1 334.1C471.3 333.4 469.1 331.1 468.5 328.2C468 325.8 468.6 323.3 470.3 321.5L479.4 311.3C479.5 311.2 479.5 311 479.4 310.9L458.5 278.8C458.4 278.7 458.3 278.6 458.1 278.7L445.1 282.9C443.2 283.5 441.3 283.4 439.6 282.6C436.4 281.1 434.6 277.8 435.1 274.3L437.2 260.8C437.2 260.6 437.1 260.5 437 260.4L402 244.7C401.9 244.6 401.7 244.7 401.6 244.8L392.9 255.4C390.7 258.1 387 259 383.7 257.5C381.9 256.7 380.6 255.4 379.8 253.6L374.3 241.1C374.2 241 374.1 240.9 373.9 240.9L336 246.6C335.8 246.6 335.7 246.7 335.7 246.9L334.1 260.5C333.8 263 332.4 265.1 330.3 266.3C327.8 267.7 324.6 267.6 322.2 266L310.8 258.4C310.7 258.3 310.5 258.3 310.4 258.4L281.6 283.7C281.5 283.8 281.5 284 281.5 284.1L287.5 296.4C288.7 298.8 288.5 301.7 287.1 303.9C285.7 306.2 283.2 307.5 280.5 307.5L266.8 307.3C266.6 307.3 266.5 307.4 266.5 307.5L256 344.6C256 344.7 256 344.9 256.1 345L267.8 352.1C270.1 353.5 271.5 356 271.5 358.7C271.5 361.4 270.2 363.9 267.9 365.3L256.3 372.5C256.2 372.6 256.1 372.7 256.2 372.9L267.2 409.6C267.2 409.7 267.4 409.8 267.5 409.8L281.2 409.4C282.4 409.4 283.5 409.6 284.6 410.1C286.5 410.9 288 412.6 288.7 414.5C289.4 416.4 289.3 418.6 288.4 420.5L282.5 432.8C282.4 432.9 282.5 433.1 282.6 433.2L311.7 458.1C311.8 458.2 312 458.2 312.1 458.1L323.4 450.4C325.6 448.9 328.5 448.6 330.9 449.7C333.4 450.8 335.1 453.1 335.4 455.8L337.1 469.4C337.1 469.5 337.2 469.6 337.3 469.7H337.4L375.4 474.9C375.6 474.9 375.7 474.8 375.8 474.7L381.1 462.1C381.9 460.2 383.4 458.7 385.4 457.9C387.3 457.1 389.5 457.2 391.4 458C392.5 458.5 393.4 459.2 394.1 460.1L402.9 470.6C403 470.7 403.2 470.8 403.3 470.7L438.1 454.5C438.2 454.4 438.3 454.3 438.3 454.1L436 440.6C435.5 437.9 436.5 435.3 438.5 433.5C440.5 431.7 443.3 431.1 445.9 431.9L459 435.9C459.1 435.9 459.3 435.9 459.4 435.8L479.9 403.4C480.1 403.3 480.1 403.2 480 403ZM349.5 408.7C321.6 396.2 309.2 363.5 321.7 335.6C334.2 307.7 366.9 295.3 394.8 307.8C422.7 320.3 435.1 353 422.6 380.9C410 408.7 377.3 421.2 349.5 408.7Z" fill="#445A64"/>
<path d="M241.5 397L235.6 390.6C234.4 389.3 234 387.6 234.5 385.9C235 384.2 236.3 383 237.9 382.5L246.3 380.2C246.4 380.2 246.5 380.1 246.5 380L246.3 355.5C246.3 355.4 246.2 355.3 246.1 355.3L237.6 353.1C235.8 352.6 234.4 351.2 234 349.3C233.7 347.7 234.1 346.2 235.1 345L240.9 338.5C241 338.4 241 338.3 240.9 338.2L227.5 317.6C227.4 317.5 227.3 317.5 227.3 317.5L219 320.2C217.8 320.6 216.6 320.5 215.5 320C213.4 319.1 212.3 316.9 212.6 314.7L214 306.1C214 306 214 305.9 213.9 305.9L191.5 295.9C191.4 295.9 191.3 295.9 191.2 296L185.7 302.8C184.3 304.6 181.9 305.1 179.8 304.2C178.7 303.7 177.8 302.8 177.3 301.7L173.8 293.7C173.8 293.6 173.7 293.6 173.6 293.6L149.3 297.3C149.2 297.3 149.1 297.4 149.1 297.5L148.1 306.2C147.9 307.8 147 309.1 145.6 309.9C144 310.8 142 310.8 140.4 309.7L133.1 304.9C133 304.8 132.9 304.9 132.8 304.9L114.4 321.1C114.3 321.2 114.3 321.3 114.3 321.4L118.2 329.3C119 330.9 118.9 332.7 117.9 334.1C117 335.6 115.4 336.4 113.6 336.4L104.9 336.3C104.8 336.3 104.7 336.4 104.7 336.5L97.8999 360.1C97.8999 360.2 97.8999 360.3 97.9999 360.3L105.5 364.8C107 365.7 107.9 367.3 107.9 369C107.9 370.7 107 372.3 105.6 373.2L98.1999 377.8C98.0999 377.9 98.0999 378 98.0999 378L105.2 401.5C105.2 401.6 105.3 401.7 105.4 401.7L114.1 401.5C114.9 401.5 115.6 401.6 116.3 401.9C117.5 402.4 118.5 403.5 118.9 404.7C119.4 405.9 119.3 407.3 118.7 408.5L115 416.4C115 416.5 115 416.6 115.1 416.7L133.7 432.6C133.8 432.7 133.9 432.7 134 432.6L141.2 427.7C142.6 426.7 144.4 426.6 146 427.3C147.6 428 148.7 429.5 148.9 431.2L150 439.9C150 440 150.1 440 150.1 440.1C150.1 440.1 150.1 440.1 150.2 440.1L174.5 443.4C174.6 443.4 174.7 443.4 174.7 443.3L178.1 435.2C178.6 434 179.6 433 180.8 432.5C182 432 183.4 432 184.7 432.6C185.4 432.9 186 433.4 186.5 433.9L192.1 440.6C192.2 440.7 192.3 440.7 192.4 440.7L214.6 430.4C214.7 430.4 214.7 430.3 214.7 430.2L213.2 421.6C212.9 419.9 213.5 418.2 214.8 417C216.1 415.9 217.9 415.5 219.5 416L227.9 418.6C228 418.6 228.1 418.6 228.1 418.5L241.2 397.8C241.6 397.1 241.6 397 241.5 397ZM158 400.6C140.2 392.6 132.2 371.7 140.2 353.8C148.2 336 169.1 328 187 336C204.8 344 212.8 364.9 204.8 382.8C196.8 400.6 175.8 408.6 158 400.6Z" fill="#F7F7F7"/>
<path d="M80.6 428C80.4 427.3 79.5 427.2 79.2 427.8L71.2 444.3C71.2 444.3 71.2 444.3 71.1 444.2C65 439.1 58.8 434.4 53.1 428.8C47.2 422.9 41.8 416.5 37 409.6C27.6 396.2 20.4 381.3 15.4 365.8C3.29998 328.5 4.39998 288.1 13.5 250.3C14.1 247.7 10.2 246.6 9.39998 249.2C-1.50002 287.8 -4.00002 329.2 7.19998 368.1C11.9 384.5 19.2 400.3 28.6 414.6C37.8 428.6 49.8 442.9 64 452.2L51.4 460.6C50.8 461 51 461.9 51.7 462L88.8 467.1C89.3 467.2 89.8 466.7 89.6 466.2L80.6 428Z" fill="white"/>
<path d="M509.9 155.8C502.3 140.5 492.3 126.3 480.6 113.9C469 101.7 454.7 89.8999 439.1 83.1999L450 72.6999C450.5 72.1999 450.1 71.3999 449.4 71.3999L411.9 72.9999C411.4 72.9999 411 73.5999 411.2 74.0999L427.1 110C427.4 110.6 428.3 110.6 428.5 109.9L433.4 92.2999C433.4 92.2999 433.5 92.2999 433.5 92.3999C440.4 96.2999 447.4 99.7999 453.9 104.3C460.8 109 467.2 114.4 473.1 120.3C484.8 131.8 494.5 145.2 502.2 159.6C520.7 194.1 526.8 234.1 524.6 272.9C524.4 275.6 528.5 276 528.8 273.3C532.7 233.3 527.8 192.1 509.9 155.8Z" fill="white"/>
<path d="M66.0168 385.929L64.5778 398.799L68.8135 402.981L74.3798 399.668C74.3798 399.668 73.5924 397.252 73.2937 395.215C72.995 393.152 76.9321 383.404 76.9321 383.404L66.0168 385.929Z" fill="#E76A53"/>
<path d="M64.1176 396.301C64.1176 396.301 62.5971 398.419 62.1898 402.03C61.7825 405.615 62.8143 409.009 62.8143 409.009C62.8143 409.009 80.2461 409.986 87.0613 408.71C93.8766 407.434 94.5011 406.239 94.311 404.311C94.1481 402.383 84.8892 402.954 82.1196 400.646C79.3501 398.338 75.4944 393.342 73.8381 394.156C72.209 394.971 72.5077 398.066 70.3083 398.256C68.109 398.446 65.1222 395.107 64.1176 396.301Z" fill="#09434C"/>
<path d="M11.1423 386.203L0.688534 393.832L0.471313 399.779L6.68925 401.652C6.68925 401.652 7.93827 399.453 9.2416 397.851C10.5721 396.249 20.4013 392.556 20.4013 392.556L11.1423 386.203Z" fill="#E76A53"/>
<path d="M2.23649 391.818C2.23649 391.818 -0.370149 392.143 -3.27547 394.288C-6.18078 396.433 -8 399.447 -8 399.447C-8 399.447 3.05107 412.942 8.59018 417.124C14.1293 421.305 15.4326 420.925 16.7359 419.513C18.0392 418.074 11.3597 411.639 11.1968 408.028C11.0339 404.416 12.0928 398.198 10.3822 397.547C8.67163 396.895 6.60804 399.23 4.95174 397.71C3.34974 396.216 3.78418 391.736 2.23649 391.818Z" fill="#09434C"/>
<path d="M35.3355 284.678C35.3355 284.678 43.074 337.408 43.074 343.952C43.074 350.495 6.22803 385.142 6.22803 385.142C6.22803 385.142 7.47704 396.926 16.3288 398.121C18.501 398.42 59.6913 361.574 62.0807 356.062C64.796 349.735 72.2629 305.015 72.2629 305.015C72.2629 305.015 88.9888 330.158 88.2557 335.344C87.1153 343.49 62.1079 387.124 62.1079 387.124C62.1079 387.124 65.5291 394.673 77.6663 389.459C77.6663 389.459 111.037 346.884 116.006 341.942C120.974 336.973 80.11 269.961 80.11 269.961L35.3355 284.678Z" fill="#0099A0"/>
<path d="M35.3347 284.686C39.4347 302.742 44.295 332.963 44.8652 343.661C46.1414 350.856 13.0152 379.638 6.19995 385.15C18.5815 371.411 40.2221 348.983 41.1996 344.149C40.9281 341.977 42.0957 349.879 39.5705 327.749C39.0546 322.971 38.4572 318.219 37.9685 313.413C36.9638 303.882 35.9863 294.325 35.3347 284.686Z" fill="#007378"/>
<g opacity="0.5">
<path opacity="0.5" d="M56.7573 287.454C56.4858 284.63 55.9428 281.508 55.1553 278.168L35.3611 284.685C35.3611 284.685 36.3929 291.717 37.6962 300.976C41.7419 303.121 45.6519 304.533 47.8784 304.099C51.707 303.338 56.7573 297.501 56.7573 287.454Z" fill="#0D5965"/>
</g>
<path d="M83.3839 273.612C83.2405 273.612 83.133 273.576 82.9896 273.576C83.0972 273.576 83.2405 273.576 83.3839 273.612Z" fill="#0099A0"/>
<path d="M28.1683 188.077C28.2432 188.114 28.3181 188.114 28.4305 188.152C28.3181 188.114 28.2432 188.114 28.1683 188.077Z" fill="#0099A0"/>
<path d="M27.8943 188.024C28.0066 188.061 28.119 188.061 28.2314 188.099C28.119 188.061 28.0066 188.061 27.8943 188.024Z" fill="#0099A0"/>
<path d="M78.1976 273.358C78.0663 273.358 77.9351 273.358 77.8038 273.358C77.9351 273.391 78.0663 273.391 78.1976 273.358Z" fill="#0099A0"/>
<path d="M77.8671 273.386C77.7491 273.386 77.5917 273.386 77.4736 273.426C77.5917 273.386 77.7491 273.386 77.8671 273.386Z" fill="#0099A0"/>
<path d="M28.9019 188.269C28.9768 188.306 29.0891 188.306 29.164 188.343C29.0891 188.306 29.0142 188.306 28.9019 188.269Z" fill="#0099A0"/>
<path d="M29.3895 188.402C29.6339 188.456 29.8511 188.538 30.0955 188.592C29.8511 188.51 29.6339 188.456 29.3895 188.402Z" fill="#0099A0"/>
<path d="M82.6171 273.527C82.5047 273.527 82.3924 273.49 82.28 273.49C82.3924 273.49 82.5047 273.49 82.6171 273.527Z" fill="#0099A0"/>
<path d="M30.1244 188.592C30.1993 188.629 30.2742 188.629 30.3866 188.667C30.2742 188.629 30.1993 188.629 30.1244 188.592Z" fill="#0099A0"/>
<path d="M83.0061 273.55C82.8748 273.55 82.7436 273.518 82.6123 273.518C82.7764 273.518 82.8748 273.55 83.0061 273.55Z" fill="#0099A0"/>
<path d="M82.2672 273.465C82.1359 273.465 82.0047 273.432 81.8734 273.432C82.0047 273.465 82.1359 273.465 82.2672 273.465Z" fill="#0099A0"/>
<path d="M81.5382 273.419C81.4069 273.419 81.2757 273.419 81.1444 273.386C81.2757 273.419 81.4069 273.419 81.5382 273.419Z" fill="#0099A0"/>
<path d="M81.2071 273.423C81.0891 273.423 80.9317 273.423 80.8136 273.423C80.9317 273.383 81.0497 273.383 81.2071 273.423Z" fill="#0099A0"/>
<path d="M29.1437 188.31C29.256 188.348 29.3684 188.348 29.4807 188.385C29.3684 188.385 29.256 188.348 29.1437 188.31Z" fill="#0099A0"/>
<path d="M81.945 273.453C81.827 273.453 81.6696 273.414 81.5515 273.414C81.6696 273.453 81.7876 273.453 81.945 273.453Z" fill="#0099A0"/>
<path d="M28.4087 188.155C28.5716 188.182 28.7074 188.237 28.8703 188.264C28.7345 188.21 28.5716 188.182 28.4087 188.155Z" fill="#0099A0"/>
<path d="M74.0734 273.737C73.9422 273.77 73.8109 273.77 73.6797 273.803C73.8109 273.77 73.9422 273.737 74.0734 273.737Z" fill="#0099A0"/>
<path d="M73.7411 273.797C73.5977 273.833 73.4902 273.833 73.3468 273.869C73.4543 273.833 73.5977 273.797 73.7411 273.797Z" fill="#0099A0"/>
<path d="M25.0709 187.397C25.1833 187.434 25.2956 187.434 25.408 187.472C25.2956 187.434 25.1833 187.434 25.0709 187.397Z" fill="#0099A0"/>
<path d="M74.8289 273.622C74.6977 273.622 74.5664 273.654 74.4352 273.687C74.5664 273.654 74.6977 273.654 74.8289 273.622Z" fill="#0099A0"/>
<path d="M25.314 187.453C25.4769 187.48 25.6669 187.507 25.8299 187.561C25.6669 187.534 25.504 187.48 25.314 187.453Z" fill="#0099A0"/>
<path d="M74.5053 273.679C74.3873 273.679 74.2299 273.719 74.1118 273.719C74.2299 273.719 74.3479 273.679 74.5053 273.679Z" fill="#0099A0"/>
<path d="M72.576 273.984C72.4636 274.022 72.3512 274.022 72.2389 274.059C72.3512 274.022 72.4636 273.984 72.576 273.984Z" fill="#0099A0"/>
<path d="M73.3618 273.848C73.2437 273.887 73.0863 273.888 72.9683 273.927C73.0863 273.888 73.2437 273.887 73.3618 273.848Z" fill="#0099A0"/>
<path d="M24.5316 187.297C24.644 187.335 24.7563 187.335 24.8687 187.372C24.7563 187.335 24.644 187.297 24.5316 187.297Z" fill="#0099A0"/>
<path d="M72.9835 273.899C72.8522 273.932 72.721 273.932 72.5897 273.965C72.721 273.932 72.8522 273.932 72.9835 273.899Z" fill="#0099A0"/>
<path d="M24.7998 187.339C24.9122 187.376 25.0245 187.376 25.1369 187.414C25.0245 187.414 24.9122 187.376 24.7998 187.339Z" fill="#0099A0"/>
<path d="M27.6532 187.965C27.7656 188.003 27.8405 188.003 27.9528 188.04C27.8405 188.003 27.7656 187.965 27.6532 187.965Z" fill="#0099A0"/>
<path d="M76.7304 273.465C76.6124 273.465 76.455 273.465 76.3369 273.504C76.455 273.465 76.6124 273.465 76.7304 273.465Z" fill="#0099A0"/>
<path d="M75.2354 273.605C75.1174 273.605 74.9993 273.644 74.8419 273.644C74.96 273.605 75.1174 273.605 75.2354 273.605Z" fill="#0099A0"/>
<path d="M27.136 187.837C27.2989 187.864 27.4618 187.918 27.6247 187.946C27.4618 187.918 27.2989 187.891 27.136 187.837Z" fill="#0099A0"/>
<path d="M77.1096 273.414C76.9783 273.414 76.8471 273.446 76.7158 273.446C76.8471 273.446 76.9783 273.446 77.1096 273.414Z" fill="#0099A0"/>
<path d="M77.4353 273.414C77.304 273.414 77.1728 273.414 77.0415 273.446C77.1728 273.414 77.304 273.414 77.4353 273.414Z" fill="#0099A0"/>
<path d="M76.3521 273.465C76.2209 273.465 76.0896 273.498 75.9584 273.498C76.0896 273.498 76.2209 273.498 76.3521 273.465Z" fill="#0099A0"/>
<path d="M75.585 273.548C75.4538 273.548 75.3225 273.581 75.1913 273.581C75.3225 273.581 75.4538 273.581 75.585 273.548Z" fill="#0099A0"/>
<path d="M25.8313 187.544C26.0757 187.599 26.32 187.653 26.5916 187.707C26.3472 187.653 26.1028 187.599 25.8313 187.544Z" fill="#0099A0"/>
<path d="M75.9942 273.518C75.8762 273.518 75.7188 273.557 75.6007 273.557C75.7188 273.518 75.8368 273.518 75.9942 273.518Z" fill="#0099A0"/>
<path d="M26.6206 187.718C26.7835 187.745 26.9464 187.8 27.1094 187.827C26.9464 187.8 26.7835 187.745 26.6206 187.718Z" fill="#0099A0"/>
<path d="M84.7937 273.819C84.6624 273.786 84.5312 273.786 84.3999 273.753C84.564 273.786 84.6952 273.786 84.7937 273.819Z" fill="#0099A0"/>
<path d="M39.1906 191.654C39.2205 191.654 39.2205 191.684 39.2504 191.684C39.2205 191.684 39.2205 191.684 39.1906 191.654Z" fill="#0099A0"/>
<path d="M33.7052 189.671C33.9496 189.753 34.2211 189.834 34.4655 189.916C34.2211 189.834 33.9767 189.753 33.7052 189.671Z" fill="#0099A0"/>
<path d="M38.35 191.333C38.3874 191.371 38.4623 191.371 38.4998 191.408C38.4623 191.371 38.4249 191.371 38.35 191.333Z" fill="#0099A0"/>
<path d="M37.5906 191.028C37.7423 191.089 37.8636 191.119 37.985 191.18C37.8636 191.119 37.7119 191.089 37.5906 191.028Z" fill="#0099A0"/>
<path d="M38.0258 191.199C38.157 191.264 38.2883 191.297 38.4195 191.363C38.2883 191.297 38.157 191.264 38.0258 191.199Z" fill="#0099A0"/>
<path d="M33.4882 189.597C33.5631 189.635 33.6754 189.672 33.7503 189.672C33.6754 189.672 33.5631 189.635 33.4882 189.597Z" fill="#0099A0"/>
<path d="M38.9991 191.597C39.074 191.634 39.1489 191.672 39.2239 191.709C39.1864 191.634 39.1115 191.634 38.9991 191.597Z" fill="#0099A0"/>
<path d="M32.8638 189.407C32.9387 189.445 33.051 189.445 33.1259 189.482C33.0136 189.445 32.9387 189.407 32.8638 189.407Z" fill="#0099A0"/>
<path d="M84.0202 273.703C83.803 273.676 83.5858 273.649 83.3685 273.622C83.5858 273.622 83.803 273.649 84.0202 273.703Z" fill="#0099A0"/>
<path d="M38.592 191.439C38.6669 191.477 38.7418 191.514 38.8167 191.552C38.7418 191.477 38.6669 191.439 38.592 191.439Z" fill="#0099A0"/>
<path d="M38.8097 191.522C38.8846 191.56 38.9595 191.597 39.0344 191.597C38.9595 191.56 38.8846 191.56 38.8097 191.522Z" fill="#0099A0"/>
<path d="M38.4841 191.391C38.5141 191.391 38.544 191.421 38.574 191.421C38.544 191.391 38.5141 191.391 38.4841 191.391Z" fill="#0099A0"/>
<path d="M35.9858 190.432C36.0607 190.47 36.0982 190.47 36.1731 190.507C36.1356 190.507 36.0607 190.47 35.9858 190.432Z" fill="#0099A0"/>
<path d="M36.1776 190.521C36.2525 190.559 36.29 190.559 36.3649 190.596C36.29 190.559 36.2151 190.521 36.1776 190.521Z" fill="#0099A0"/>
<path d="M35.2791 190.187C35.442 190.241 35.632 190.295 35.795 190.377C35.632 190.322 35.442 190.241 35.2791 190.187Z" fill="#0099A0"/>
<path d="M35.8246 190.378C35.8995 190.416 35.9744 190.416 36.0493 190.453C35.9744 190.453 35.8995 190.416 35.8246 190.378Z" fill="#0099A0"/>
<path d="M34.7368 189.995C34.8997 190.049 35.0898 190.104 35.2527 190.158C35.0627 190.104 34.8997 190.049 34.7368 189.995Z" fill="#0099A0"/>
<path d="M37.4524 190.97C37.4898 190.97 37.5273 191.007 37.6022 191.007C37.5648 191.007 37.4898 191.007 37.4524 190.97Z" fill="#0099A0"/>
<path d="M36.3419 190.57C36.6134 190.679 36.8578 190.76 37.1022 190.842C36.8578 190.76 36.6134 190.679 36.3419 190.57Z" fill="#0099A0"/>
<path d="M37.2915 190.912C37.329 190.949 37.4039 190.949 37.4413 190.987C37.3664 190.949 37.329 190.912 37.2915 190.912Z" fill="#0099A0"/>
<path d="M34.5209 189.918C34.5958 189.955 34.6707 189.955 34.7456 189.993C34.6707 189.993 34.5958 189.955 34.5209 189.918Z" fill="#0099A0"/>
<path d="M37.153 190.852C37.1904 190.852 37.2279 190.889 37.3028 190.889C37.2653 190.889 37.2279 190.889 37.153 190.852Z" fill="#0099A0"/>
<path d="M33.0559 189.454C33.1917 189.508 33.3274 189.535 33.4632 189.589C33.3274 189.535 33.1917 189.508 33.0559 189.454Z" fill="#0099A0"/>
<path d="M30.8282 188.781C30.9406 188.819 31.0155 188.856 31.1279 188.856C31.0155 188.856 30.9406 188.819 30.8282 188.781Z" fill="#0099A0"/>
<path d="M85.2005 273.927C85.0825 273.888 84.9251 273.887 84.807 273.848C84.9644 273.848 85.0825 273.888 85.2005 273.927Z" fill="#0099A0"/>
<path d="M85.529 273.965C85.3978 273.932 85.2665 273.899 85.1353 273.899C85.2665 273.932 85.3978 273.965 85.529 273.965Z" fill="#0099A0"/>
<path d="M31.0455 188.855C31.1204 188.892 31.2328 188.892 31.3077 188.93C31.2328 188.892 31.1579 188.855 31.0455 188.855Z" fill="#0099A0"/>
<path d="M86.2602 274.138C86.129 274.106 85.9977 274.073 85.8665 274.04C85.9977 274.073 86.129 274.106 86.2602 274.138Z" fill="#0099A0"/>
<path d="M85.9099 274.063C85.7918 274.024 85.6738 274.024 85.5164 273.984C85.6738 274.024 85.7918 274.024 85.9099 274.063Z" fill="#0099A0"/>
<path d="M84.4946 273.786C84.3765 273.747 84.2191 273.747 84.1011 273.708C84.2191 273.747 84.3372 273.747 84.4946 273.786Z" fill="#0099A0"/>
<path d="M30.6104 188.724C30.6853 188.761 30.7976 188.761 30.8725 188.799C30.7602 188.761 30.6853 188.761 30.6104 188.724Z" fill="#0099A0"/>
<path d="M30.3666 188.649C30.4415 188.687 30.5538 188.687 30.6287 188.724C30.5538 188.724 30.4415 188.687 30.3666 188.649Z" fill="#0099A0"/>
<path d="M72.2233 274.04C72.0921 274.073 71.9608 274.073 71.8296 274.106C71.9608 274.073 72.0921 274.073 72.2233 274.04Z" fill="#0099A0"/>
<path d="M39.5986 191.844C39.711 191.882 39.7859 191.919 39.8982 191.957C39.7859 191.919 39.711 191.882 39.5986 191.844Z" fill="#0099A0"/>
<path d="M86.6389 274.234C86.5208 274.195 86.3634 274.156 86.2454 274.116C86.3634 274.156 86.4815 274.195 86.6389 274.234Z" fill="#0099A0"/>
<path d="M39.8149 191.918C39.8449 191.948 39.8748 191.948 39.9048 191.948C39.8748 191.948 39.8449 191.918 39.8149 191.918Z" fill="#0099A0"/>
<path d="M31.9669 189.125C32.2656 189.207 32.5643 189.316 32.8358 189.397C32.5371 189.288 32.2656 189.207 31.9669 189.125Z" fill="#0099A0"/>
<path d="M39.9236 191.976C39.9535 191.976 39.9835 192.006 40.0134 192.006C39.9835 192.006 39.9535 191.976 39.9236 191.976Z" fill="#0099A0"/>
<path d="M39.3546 191.728C39.4295 191.765 39.5044 191.803 39.6168 191.84C39.5044 191.803 39.4295 191.765 39.3546 191.728Z" fill="#0099A0"/>
<path d="M31.7493 189.044C31.8616 189.082 31.9365 189.119 32.0489 189.119C31.9365 189.119 31.8242 189.082 31.7493 189.044Z" fill="#0099A0"/>
<path d="M87.0183 274.339C86.8749 274.303 86.7316 274.267 86.624 274.231C86.7316 274.267 86.8749 274.303 87.0183 274.339Z" fill="#0099A0"/>
<path d="M31.2903 188.913C31.426 188.967 31.589 188.995 31.7247 189.049C31.589 188.995 31.4532 188.967 31.2903 188.913Z" fill="#0099A0"/>
<path d="M40.0067 192.015C40.0367 192.015 40.0367 192.015 40.0367 192.045C40.0367 192.015 40.0367 192.015 40.0067 192.015Z" fill="#0099A0"/>
<path d="M20.8094 186.771C20.9724 186.798 21.1353 186.798 21.3253 186.825C21.1624 186.798 20.9995 186.798 20.8094 186.771Z" fill="#0099A0"/>
<path d="M62.5453 276.754C62.4704 276.791 62.3955 276.829 62.3206 276.829C62.3955 276.829 62.4704 276.791 62.5453 276.754Z" fill="#0099A0"/>
<path d="M62.2818 276.857C62.1638 276.897 62.0064 276.975 61.8883 277.015C62.0457 276.975 62.1638 276.936 62.2818 276.857Z" fill="#0099A0"/>
<path d="M60.9736 277.322C60.9437 277.322 60.9137 277.352 60.8838 277.352C60.9137 277.352 60.9437 277.352 60.9736 277.322Z" fill="#0099A0"/>
<path d="M62.9617 276.623C62.8493 276.66 62.737 276.697 62.6246 276.735C62.737 276.697 62.8493 276.66 62.9617 276.623Z" fill="#0099A0"/>
<path d="M18.9609 186.633C19.1239 186.633 19.2868 186.66 19.4497 186.66C19.2868 186.633 19.1239 186.633 18.9609 186.633Z" fill="#0099A0"/>
<path d="M61.4688 277.16C61.4313 277.197 61.3564 277.197 61.319 277.235C61.3564 277.197 61.3939 277.16 61.4688 277.16Z" fill="#0099A0"/>
<path d="M18.1472 186.584C18.3101 186.584 18.473 186.584 18.6631 186.611C18.5002 186.611 18.3373 186.611 18.1472 186.584Z" fill="#0099A0"/>
<path d="M61.7805 277.019C61.7056 277.056 61.6682 277.056 61.5933 277.093C61.6682 277.093 61.7431 277.056 61.7805 277.019Z" fill="#0099A0"/>
<path d="M63.2471 276.481C63.1722 276.519 63.1347 276.519 63.0598 276.556C63.1347 276.556 63.1722 276.519 63.2471 276.481Z" fill="#0099A0"/>
<path d="M65.1175 275.864C65.0051 275.902 64.9302 275.939 64.8179 275.977C64.9302 275.939 65.0051 275.902 65.1175 275.864Z" fill="#0099A0"/>
<path d="M20.0209 186.686C20.2652 186.713 20.5368 186.74 20.7811 186.767C20.5368 186.74 20.2652 186.713 20.0209 186.686Z" fill="#0099A0"/>
<path d="M63.579 276.375C63.5041 276.412 63.4292 276.412 63.3542 276.45C63.4292 276.45 63.5041 276.412 63.579 276.375Z" fill="#0099A0"/>
<path d="M65.8485 275.633C65.7736 275.67 65.6612 275.67 65.5863 275.708C65.6612 275.67 65.7736 275.633 65.8485 275.633Z" fill="#0099A0"/>
<path d="M65.5727 275.748C65.4547 275.787 65.2973 275.827 65.1792 275.866C65.2973 275.827 65.4153 275.787 65.5727 275.748Z" fill="#0099A0"/>
<path d="M64.8072 275.958C64.6948 275.995 64.5824 276.033 64.4701 276.07C64.5824 276.033 64.6948 275.995 64.8072 275.958Z" fill="#0099A0"/>
<path d="M19.5035 186.654C19.6665 186.654 19.8294 186.681 19.9923 186.681C19.8294 186.681 19.6665 186.654 19.5035 186.654Z" fill="#0099A0"/>
<path d="M64.0045 276.244C63.9296 276.281 63.8922 276.281 63.8173 276.319C63.8547 276.281 63.9296 276.244 64.0045 276.244Z" fill="#0099A0"/>
<path d="M64.3163 276.127C64.2414 276.164 64.1665 276.164 64.0916 276.202C64.2039 276.164 64.2788 276.127 64.3163 276.127Z" fill="#0099A0"/>
<path d="M57.1217 278.987C57.0918 278.987 57.0618 279.017 57.0319 279.017C57.0618 279.017 57.0918 279.017 57.1217 278.987Z" fill="#0099A0"/>
<path d="M56.8756 279.116C56.8457 279.116 56.8157 279.146 56.7858 279.146C56.8157 279.146 56.8457 279.116 56.8756 279.116Z" fill="#0099A0"/>
<path d="M57.885 278.655C57.8476 278.692 57.7727 278.692 57.7352 278.73C57.7727 278.692 57.8476 278.692 57.885 278.655Z" fill="#0099A0"/>
<path d="M57.5525 278.795C57.5225 278.795 57.4926 278.825 57.4926 278.825C57.5225 278.825 57.5225 278.795 57.5525 278.795Z" fill="#0099A0"/>
<path d="M15.8153 186.611C15.9782 186.611 16.1411 186.584 16.3041 186.584C16.1411 186.611 15.9782 186.611 15.8153 186.611Z" fill="#0099A0"/>
<path d="M15.5687 186.644C15.6811 186.644 15.756 186.644 15.8683 186.644C15.756 186.606 15.6811 186.606 15.5687 186.644Z" fill="#0099A0"/>
<path d="M66.3029 275.501C66.1595 275.537 66.0519 275.573 65.9086 275.609C66.0161 275.573 66.1595 275.537 66.3029 275.501Z" fill="#0099A0"/>
<path d="M54.7504 280.119C52.1709 254.786 24.8012 203.712 15.2978 186.633C10.8177 186.931 6.85343 188.425 4.62693 192.009C-3.00292 204.282 6.25607 256.306 14.7005 271.566C17.9316 277.404 21.7058 281.802 25.1542 285.034C30.1231 289.704 41.69 296.356 46.1702 295.514C49.8629 294.836 54.7504 289.432 54.7504 280.119Z" fill="#0099A0"/>
<path d="M15.2979 186.634C15.4102 186.634 15.5226 186.634 15.6349 186.596C15.5226 186.634 15.4102 186.634 15.2979 186.634Z" fill="#0099A0"/>
<path d="M59.5954 277.921C59.5579 277.959 59.483 277.959 59.4456 277.996C59.483 277.959 59.5205 277.959 59.5954 277.921Z" fill="#0099A0"/>
<path d="M59.9985 277.735C59.9686 277.735 59.9386 277.765 59.9087 277.765C59.9087 277.765 59.9386 277.765 59.9985 277.735Z" fill="#0099A0"/>
<path d="M60.3791 277.594C60.3042 277.631 60.2293 277.669 60.1544 277.706C60.2293 277.669 60.3042 277.631 60.3791 277.594Z" fill="#0099A0"/>
<path d="M58.5919 278.359C58.5545 278.396 58.4796 278.396 58.4421 278.434C58.4796 278.396 58.5545 278.359 58.5919 278.359Z" fill="#0099A0"/>
<path d="M60.758 277.427C60.6831 277.464 60.6082 277.464 60.5333 277.502C60.6082 277.502 60.6831 277.464 60.758 277.427Z" fill="#0099A0"/>
<path d="M59.3007 278.028C59.2632 278.065 59.2258 278.065 59.1509 278.103C59.2258 278.065 59.2632 278.065 59.3007 278.028Z" fill="#0099A0"/>
<path d="M58.2579 278.463C58.228 278.463 58.198 278.493 58.1681 278.493C58.228 278.493 58.228 278.493 58.2579 278.463Z" fill="#0099A0"/>
<path d="M22.1406 186.914C22.253 186.914 22.3653 186.952 22.4777 186.952C22.4028 186.952 22.253 186.914 22.1406 186.914Z" fill="#0099A0"/>
<path d="M68.1201 274.949C67.9767 274.985 67.8334 275.02 67.7258 275.056C67.8334 275.02 67.9767 274.985 68.1201 274.949Z" fill="#0099A0"/>
<path d="M70.7027 274.321C70.5715 274.354 70.4402 274.387 70.309 274.42C70.4402 274.387 70.5715 274.354 70.7027 274.321Z" fill="#0099A0"/>
<path d="M68.4312 274.875C68.3189 274.912 68.2439 274.912 68.1316 274.949C68.2439 274.949 68.3189 274.912 68.4312 274.875Z" fill="#0099A0"/>
<path d="M67.3621 275.18C67.2497 275.218 67.1374 275.255 67.025 275.293C67.1374 275.255 67.2497 275.218 67.3621 275.18Z" fill="#0099A0"/>
<path d="M71.0812 274.248C70.9688 274.285 70.8565 274.286 70.7441 274.323C70.8565 274.323 70.9688 274.285 71.0812 274.248Z" fill="#0099A0"/>
<path d="M67.7032 275.101C67.5908 275.138 67.5159 275.138 67.4036 275.175C67.5159 275.138 67.5908 275.101 67.7032 275.101Z" fill="#0099A0"/>
<path d="M23.4717 187.106C23.6346 187.133 23.8247 187.16 23.9876 187.187C23.8247 187.16 23.6617 187.133 23.4717 187.106Z" fill="#0099A0"/>
<path d="M69.9647 274.496C69.8524 274.533 69.74 274.533 69.6277 274.571C69.74 274.571 69.8524 274.533 69.9647 274.496Z" fill="#0099A0"/>
<path d="M69.6434 274.569C69.5001 274.605 69.3925 274.641 69.2491 274.677C69.3567 274.641 69.5001 274.605 69.6434 274.569Z" fill="#0099A0"/>
<path d="M22.6826 187.016C22.8455 187.043 23.0356 187.07 23.1985 187.098C23.0084 187.043 22.8455 187.016 22.6826 187.016Z" fill="#0099A0"/>
<path d="M22.4089 186.96C22.5213 186.96 22.6336 186.997 22.746 186.997C22.6336 186.997 22.5213 186.997 22.4089 186.96Z" fill="#0099A0"/>
<path d="M70.3752 274.421C70.2571 274.461 70.0997 274.5 69.9817 274.5C70.1391 274.5 70.2571 274.461 70.3752 274.421Z" fill="#0099A0"/>
<path d="M23.2227 187.091C23.335 187.091 23.4474 187.129 23.5597 187.129C23.4474 187.091 23.335 187.091 23.2227 187.091Z" fill="#0099A0"/>
<path d="M69.2075 274.685C69.0952 274.723 68.9828 274.76 68.8705 274.76C68.9828 274.76 69.0952 274.723 69.2075 274.685Z" fill="#0099A0"/>
<path d="M68.8872 274.759C68.7438 274.795 68.6005 274.83 68.4929 274.866C68.6005 274.83 68.7438 274.795 68.8872 274.759Z" fill="#0099A0"/>
<path d="M21.349 186.825C21.5119 186.852 21.702 186.852 21.8649 186.879C21.6748 186.879 21.5119 186.852 21.349 186.825Z" fill="#0099A0"/>
<path d="M66.6242 275.383C66.5118 275.42 66.3995 275.458 66.2871 275.495C66.362 275.458 66.4744 275.42 66.6242 275.383Z" fill="#0099A0"/>
<path d="M71.4604 274.174C71.3171 274.21 71.1737 274.246 71.0662 274.246C71.2095 274.246 71.3529 274.21 71.4604 274.174Z" fill="#0099A0"/>
<path d="M24.0139 187.208C24.1768 187.235 24.3669 187.262 24.5298 187.289C24.3397 187.262 24.1768 187.235 24.0139 187.208Z" fill="#0099A0"/>
<path d="M66.9799 275.292C66.8675 275.33 66.7552 275.367 66.6428 275.405C66.7552 275.367 66.8675 275.33 66.9799 275.292Z" fill="#0099A0"/>
<path d="M21.8945 186.902C22.0069 186.902 22.1192 186.939 22.1941 186.939C22.0818 186.902 22.0069 186.902 21.8945 186.902Z" fill="#0099A0"/>
<path d="M71.8384 274.116C71.7261 274.154 71.6137 274.154 71.5013 274.191C71.6137 274.154 71.7261 274.116 71.8384 274.116Z" fill="#0099A0"/>
<path d="M35.228 190.187C35.258 190.187 35.258 190.187 35.2879 190.216C35.258 190.187 35.258 190.187 35.228 190.187Z" fill="#A5375C"/>
<path d="M34.6858 189.964C34.7157 189.964 34.7157 189.964 34.7457 189.994C34.7157 189.994 34.6858 189.994 34.6858 189.964Z" fill="#A5375C"/>
<path d="M34.4656 189.918C34.4955 189.918 34.4955 189.918 34.5255 189.948C34.4955 189.918 34.4656 189.918 34.4656 189.918Z" fill="#A5375C"/>
<path d="M33.6803 189.643H33.7102C33.7102 189.673 33.6803 189.643 33.6803 189.643Z" fill="#A5375C"/>
<path d="M21.8665 186.877H21.8964C21.8665 186.907 21.8665 186.877 21.8665 186.877Z" fill="#A5375C"/>
<path d="M30.3136 188.649C30.3435 188.649 30.3435 188.649 30.3735 188.679C30.3435 188.649 30.3136 188.649 30.3136 188.649Z" fill="#A5375C"/>
<path d="M28.3582 188.118C28.3881 188.118 28.4181 188.118 28.448 188.148C28.3881 188.118 28.3881 188.118 28.3582 188.118Z" fill="#A5375C"/>
<path d="M22.6581 186.976C22.6581 186.976 22.688 187.006 22.6581 186.976C22.688 187.006 22.6581 186.976 22.6581 186.976Z" fill="#A5375C"/>
<path d="M69.2671 274.666C69.2297 274.666 69.1548 274.703 69.1173 274.703C69.1548 274.703 69.2297 274.666 69.2671 274.666Z" fill="#A5375C"/>
<path d="M68.1781 274.933C68.1407 274.933 68.0658 274.97 68.0283 274.97C68.0658 274.97 68.1407 274.97 68.1781 274.933Z" fill="#A5375C"/>
<path d="M67.0702 275.253C66.9953 275.253 66.9578 275.291 66.8829 275.291C66.9578 275.291 66.9953 275.253 67.0702 275.253Z" fill="#A5375C"/>
<path d="M67.4543 275.139C67.3794 275.139 67.342 275.177 67.2671 275.177C67.3045 275.177 67.3794 275.139 67.4543 275.139Z" fill="#A5375C"/>
<path d="M68.8753 274.743C68.8453 274.743 68.8153 274.773 68.7854 274.773C68.8153 274.773 68.8453 274.773 68.8753 274.743Z" fill="#A5375C"/>
<path d="M68.5 274.858C68.4626 274.858 68.3877 274.895 68.3502 274.895C68.4251 274.895 68.4626 274.858 68.5 274.858Z" fill="#A5375C"/>
<path d="M67.771 275.064C67.7336 275.064 67.6587 275.101 67.6212 275.101C67.6587 275.064 67.6961 275.064 67.771 275.064Z" fill="#A5375C"/>
<path d="M65.6324 275.69C65.5575 275.728 65.4826 275.728 65.4452 275.765C65.4826 275.728 65.5575 275.69 65.6324 275.69Z" fill="#A5375C"/>
<path d="M65.1973 275.822C65.1224 275.859 65.0849 275.859 65.01 275.897C65.0849 275.859 65.1598 275.822 65.1973 275.822Z" fill="#A5375C"/>
<path d="M66.2726 275.484C66.2426 275.484 66.2127 275.514 66.1827 275.514C66.2426 275.484 66.2726 275.484 66.2726 275.484Z" fill="#A5375C"/>
<path d="M66.6923 275.369C66.6174 275.369 66.5799 275.407 66.505 275.407C66.5799 275.407 66.6548 275.369 66.6923 275.369Z" fill="#A5375C"/>
<path d="M65.9629 275.575C65.888 275.575 65.8505 275.612 65.7756 275.612C65.8505 275.612 65.888 275.612 65.9629 275.575Z" fill="#A5375C"/>
<path d="M72.6288 273.942C72.5914 273.942 72.5539 273.942 72.479 273.98C72.5165 273.942 72.5914 273.942 72.6288 273.942Z" fill="#A5375C"/>
<path d="M64.866 275.938C64.8286 275.938 64.7536 275.975 64.7162 275.975C64.7536 275.975 64.8286 275.938 64.866 275.938Z" fill="#A5375C"/>
<path d="M72.2443 274C72.2143 274 72.1844 274 72.1544 274.03C72.1844 274.03 72.2143 274.03 72.2443 274Z" fill="#A5375C"/>
<path d="M73.3922 273.811C73.3548 273.811 73.3173 273.811 73.2424 273.848C73.2799 273.848 73.3548 273.848 73.3922 273.811Z" fill="#A5375C"/>
<path d="M71.8373 274.091C71.8073 274.091 71.7774 274.091 71.7474 274.121C71.7774 274.121 71.8073 274.091 71.8373 274.091Z" fill="#A5375C"/>
<path d="M71.0801 274.248C71.0501 274.248 71.0202 274.248 70.9902 274.278C71.0202 274.248 71.0501 274.248 71.0801 274.248Z" fill="#A5375C"/>
<path d="M70.0236 274.475C69.9861 274.475 69.9112 274.512 69.8738 274.512C69.9112 274.512 69.9861 274.512 70.0236 274.475Z" fill="#A5375C"/>
<path d="M69.6393 274.569C69.6093 274.569 69.5794 274.569 69.5494 274.599C69.5794 274.569 69.6093 274.569 69.6393 274.569Z" fill="#A5375C"/>
<path d="M71.5468 274.174C71.5093 274.174 71.4344 274.211 71.397 274.211C71.4344 274.174 71.4719 274.174 71.5468 274.174Z" fill="#A5375C"/>
<path d="M70.7787 274.306C70.7413 274.306 70.6664 274.344 70.6289 274.344C70.6664 274.344 70.7038 274.344 70.7787 274.306Z" fill="#A5375C"/>
<path d="M61.9508 276.968C61.8759 277.005 61.801 277.005 61.7261 277.043C61.801 277.043 61.8759 277.005 61.9508 276.968Z" fill="#A5375C"/>
<path d="M59.1736 278.067C58.9564 278.149 58.7663 278.23 58.5491 278.339C58.7663 278.23 58.9564 278.149 59.1736 278.067Z" fill="#A5375C"/>
<path d="M60.2171 277.674C60.1422 277.711 60.0673 277.749 59.9924 277.786C60.0673 277.711 60.1422 277.711 60.2171 277.674Z" fill="#A5375C"/>
<path d="M58.24 278.505C58.1186 278.566 57.9973 278.627 57.8456 278.687C57.9669 278.596 58.0883 278.536 58.24 278.505Z" fill="#A5375C"/>
<path d="M64.5428 276.054C64.4679 276.091 64.3555 276.129 64.2806 276.129C64.3555 276.129 64.4304 276.091 64.5428 276.054Z" fill="#A5375C"/>
<path d="M57.806 278.695C57.7311 278.732 57.6562 278.77 57.5438 278.807C57.6187 278.77 57.7311 278.732 57.806 278.695Z" fill="#A5375C"/>
<path d="M59.509 277.978C59.4341 278.015 59.3592 278.052 59.2843 278.09C59.3218 278.015 59.3967 278.015 59.509 277.978Z" fill="#A5375C"/>
<path d="M58.5055 278.412C58.4306 278.449 58.3557 278.487 58.2808 278.524C58.3182 278.449 58.4306 278.412 58.5055 278.412Z" fill="#A5375C"/>
<path d="M56.1084 279.46C55.6468 279.678 55.2123 279.895 54.7507 280.112C55.2123 279.895 55.6468 279.678 56.1084 279.46Z" fill="#A5375C"/>
<path d="M57.1038 279.039C57.0289 279.076 56.954 279.113 56.8417 279.151C56.954 279.113 57.0289 279.076 57.1038 279.039Z" fill="#A5375C"/>
<path d="M57.5049 278.811C57.3642 278.867 57.2516 278.924 57.111 278.98C57.2516 278.924 57.3642 278.867 57.5049 278.811Z" fill="#A5375C"/>
<path d="M56.7578 279.128C56.5406 279.237 56.3234 279.318 56.1333 279.427C56.3505 279.318 56.5677 279.237 56.7578 279.128Z" fill="#A5375C"/>
<path d="M63.4458 276.433C63.3709 276.47 63.296 276.508 63.2211 276.508C63.2585 276.508 63.3334 276.47 63.4458 276.433Z" fill="#A5375C"/>
<path d="M62.677 276.696C62.6021 276.734 62.5272 276.734 62.4897 276.771C62.5646 276.734 62.6021 276.734 62.677 276.696Z" fill="#A5375C"/>
<path d="M60.6435 277.512C60.5311 277.549 60.4188 277.587 60.3439 277.624C60.4188 277.587 60.5311 277.549 60.6435 277.512Z" fill="#A5375C"/>
<path d="M64.1781 276.186C64.1032 276.223 64.0283 276.223 63.9534 276.26C64.0283 276.223 64.1032 276.186 64.1781 276.186Z" fill="#A5375C"/>
<path d="M63.9155 276.259C63.7722 276.295 63.6646 276.366 63.5212 276.402C63.6646 276.366 63.7722 276.33 63.9155 276.259Z" fill="#A5375C"/>
<path d="M63.1329 276.533C63.058 276.571 62.9456 276.608 62.8707 276.608C62.9456 276.608 63.058 276.571 63.1329 276.533Z" fill="#A5375C"/>
<path d="M61.3908 277.21C61.2596 277.276 61.1283 277.309 60.9971 277.375C61.0955 277.309 61.2268 277.243 61.3908 277.21Z" fill="#A5375C"/>
<path d="M60.9849 277.368C60.91 277.406 60.7977 277.443 60.7228 277.481C60.7977 277.406 60.8726 277.368 60.9849 277.368Z" fill="#A5375C"/>
<path d="M62.3766 276.8C62.3017 276.838 62.2268 276.838 62.1893 276.875C62.2268 276.875 62.3017 276.838 62.3766 276.8Z" fill="#A5375C"/>
<path d="M61.6927 277.075C61.6178 277.112 61.5054 277.15 61.4305 277.187C61.5054 277.15 61.5803 277.112 61.6927 277.075Z" fill="#A5375C"/>
<path d="M74.0898 273.708C74.0599 273.708 74.0299 273.708 74 273.708C74.0299 273.737 74.0599 273.737 74.0898 273.708Z" fill="#A5375C"/>
<path d="M59.9242 277.786C59.8028 277.846 59.6511 277.907 59.5298 277.937C59.6815 277.877 59.8028 277.816 59.9242 277.786Z" fill="#A5375C"/>
<path d="M86.6095 274.22C86.5795 274.22 86.5496 274.19 86.5197 274.19C86.5496 274.19 86.5795 274.22 86.6095 274.22Z" fill="#A5375C"/>
<path d="M39.5155 191.786C39.5455 191.786 39.5754 191.816 39.6054 191.816C39.5754 191.816 39.5455 191.816 39.5155 191.786Z" fill="#A5375C"/>
<path d="M39.246 191.672C39.2834 191.709 39.3583 191.709 39.3958 191.747C39.3583 191.709 39.2834 191.709 39.246 191.672Z" fill="#A5375C"/>
<path d="M84.814 273.84C84.784 273.84 84.7541 273.84 84.7241 273.811C84.7541 273.811 84.784 273.811 84.814 273.84Z" fill="#A5375C"/>
<path d="M86.2216 274.143H86.1917C86.2216 274.113 86.2216 274.143 86.2216 274.143Z" fill="#A5375C"/>
<path d="M85.5478 273.972C85.5179 273.972 85.4879 273.972 85.4879 273.942C85.4879 273.972 85.5179 273.972 85.5478 273.972Z" fill="#A5375C"/>
<path d="M85.8718 274.07C85.8419 274.07 85.8119 274.07 85.782 274.04C85.8119 274.04 85.8419 274.04 85.8718 274.07Z" fill="#A5375C"/>
<path d="M38.9744 191.583C38.9744 191.583 39.0043 191.583 39.0043 191.612C39.0043 191.583 39.0043 191.583 38.9744 191.583Z" fill="#A5375C"/>
<path d="M37.1013 190.838C37.1313 190.838 37.1612 190.868 37.1612 190.868C37.1612 190.868 37.1313 190.868 37.1013 190.838Z" fill="#A5375C"/>
<path d="M36.2849 190.533C36.3149 190.533 36.3149 190.533 36.3448 190.563C36.3448 190.563 36.3149 190.563 36.2849 190.533Z" fill="#A5375C"/>
<path d="M36.1216 190.487H36.1515C36.1515 190.517 36.1515 190.487 36.1216 190.487Z" fill="#A5375C"/>
<path d="M37.4014 190.954C37.4313 190.954 37.4613 190.984 37.4613 190.984C37.4313 190.984 37.4313 190.984 37.4014 190.954Z" fill="#A5375C"/>
<path d="M38.7581 191.481C38.788 191.481 38.788 191.511 38.818 191.511C38.818 191.511 38.788 191.481 38.7581 191.481Z" fill="#A5375C"/>
<path d="M38.5404 191.407C38.5704 191.407 38.5704 191.407 38.6003 191.437C38.6003 191.407 38.5704 191.407 38.5404 191.407Z" fill="#A5375C"/>
<path d="M37.9417 191.159C37.9716 191.159 38.0016 191.189 38.0315 191.189C38.0016 191.189 37.9716 191.159 37.9417 191.159Z" fill="#A5375C"/>
<path d="M75.2063 273.576C75.1764 273.576 75.1464 273.576 75.1165 273.576C75.1464 273.606 75.1764 273.576 75.2063 273.576Z" fill="#A5375C"/>
<path d="M82.9933 273.577C82.9633 273.577 82.9633 273.577 82.9333 273.577C82.9633 273.547 82.9633 273.547 82.9933 273.577Z" fill="#A5375C"/>
<path d="M81.5563 273.436C81.5263 273.436 81.4964 273.436 81.4664 273.436C81.4964 273.406 81.5263 273.406 81.5563 273.436Z" fill="#A5375C"/>
<path d="M54.7484 280.118C55.1828 279.901 55.6444 279.683 56.106 279.466H56.1331C56.3504 279.358 56.5676 279.276 56.7576 279.168C56.7848 279.168 56.812 279.14 56.8391 279.14C56.8934 279.113 56.9477 279.086 57.0292 279.059C57.0563 279.059 57.0835 279.032 57.1106 279.032C57.2464 278.977 57.355 278.923 57.4908 278.869C57.5179 278.869 57.5451 278.842 57.5451 278.842C57.5994 278.815 57.6537 278.787 57.7351 278.76C57.7623 278.733 57.8166 278.733 57.8437 278.706C57.9524 278.652 58.061 278.597 58.1967 278.543C58.2239 278.543 58.251 278.516 58.2782 278.516C58.3325 278.489 58.3868 278.462 58.4411 278.434C58.4682 278.407 58.5226 278.407 58.5497 278.38C58.7398 278.299 58.957 278.217 59.1742 278.109C59.2014 278.081 59.2285 278.081 59.2828 278.054C59.3371 278.027 59.3914 278 59.4457 277.973C59.4729 277.946 59.5272 277.946 59.5543 277.918C59.663 277.864 59.7987 277.81 59.9073 277.783C59.9345 277.783 59.9616 277.756 59.9888 277.756C60.0431 277.728 60.0974 277.701 60.1517 277.674C60.206 277.647 60.2603 277.62 60.3146 277.593C60.3961 277.565 60.4775 277.538 60.5318 277.511C60.5861 277.484 60.6404 277.457 60.6947 277.457C60.7491 277.43 60.8305 277.403 60.8848 277.375C60.912 277.375 60.9391 277.348 60.9663 277.348C61.0749 277.294 61.1835 277.267 61.2921 277.213C61.3193 277.185 61.3736 277.185 61.4007 277.158C61.455 277.131 61.5365 277.104 61.5908 277.077C61.6451 277.05 61.6722 277.05 61.7265 277.022C61.7808 276.995 61.8352 276.995 61.8895 276.968C61.9709 276.941 62.0795 276.887 62.161 276.86C62.2153 276.832 62.2696 276.832 62.2967 276.805C62.351 276.778 62.4054 276.751 62.4597 276.751C62.514 276.724 62.5683 276.724 62.5954 276.697C62.6769 276.669 62.7583 276.642 62.8398 276.615C62.8941 276.588 62.9756 276.561 63.0299 276.561C63.0842 276.534 63.1113 276.534 63.1656 276.507C63.2199 276.479 63.2742 276.452 63.3285 276.452C63.3828 276.425 63.4371 276.425 63.4914 276.398C63.6001 276.371 63.6815 276.316 63.7901 276.289C63.8444 276.262 63.8716 276.262 63.9259 276.235C63.9802 276.208 64.0345 276.208 64.0888 276.181C64.1431 276.154 64.1974 276.154 64.2517 276.126C64.306 276.099 64.3875 276.072 64.4418 276.072C64.5232 276.045 64.6047 276.018 64.6862 275.991C64.7133 275.991 64.7676 275.964 64.7948 275.964C64.8762 275.936 64.9305 275.909 65.012 275.882C65.0663 275.855 65.0934 275.855 65.1478 275.828C65.2292 275.801 65.3378 275.773 65.4193 275.746C65.4736 275.719 65.5279 275.719 65.555 275.692C65.6093 275.665 65.6908 275.665 65.7451 275.638C65.7994 275.638 65.8266 275.611 65.8809 275.611C65.9895 275.583 66.0709 275.556 66.1795 275.529C66.2067 275.529 66.2338 275.502 66.261 275.502C66.3425 275.475 66.4239 275.448 66.5054 275.42C66.5597 275.42 66.5868 275.393 66.6411 275.393C66.7226 275.366 66.804 275.339 66.8855 275.312C66.9398 275.312 66.967 275.285 67.0213 275.285C67.1027 275.258 67.1842 275.23 67.2656 275.203C67.32 275.203 67.3471 275.176 67.4014 275.176C67.4829 275.149 67.5372 275.149 67.6186 275.122C67.6458 275.122 67.7001 275.095 67.7272 275.095C67.8358 275.067 67.9445 275.04 68.0259 275.013C68.0531 275.013 68.1074 274.986 68.1345 274.986C68.216 274.959 68.2703 274.959 68.3517 274.932C68.3789 274.932 68.4332 274.905 68.4604 274.905C68.569 274.877 68.6776 274.85 68.759 274.823C68.7862 274.823 68.8133 274.796 68.8405 274.796C68.9219 274.769 69.0034 274.742 69.0849 274.742C69.112 274.742 69.1663 274.714 69.1935 274.714C69.3021 274.687 69.3835 274.66 69.4921 274.633C69.5193 274.633 69.5465 274.633 69.5736 274.606C69.6551 274.579 69.7365 274.579 69.818 274.552C69.8451 274.552 69.8994 274.524 69.9266 274.524C70.008 274.497 70.1166 274.47 70.1981 274.47C70.2253 274.47 70.2253 274.47 70.2524 274.47C70.361 274.443 70.4696 274.416 70.5782 274.389C70.6054 274.389 70.6597 274.362 70.6868 274.362C70.7683 274.334 70.8498 274.334 70.9312 274.307C70.9584 274.307 70.9855 274.307 71.0127 274.28C71.1213 274.253 71.2299 274.226 71.3114 274.226C71.3385 274.226 71.3928 274.199 71.42 274.199C71.5014 274.171 71.5829 274.171 71.6643 274.144C71.6915 274.144 71.7186 274.144 71.7458 274.117C71.8544 274.09 71.963 274.09 72.0716 274.063C72.0988 274.063 72.1259 274.063 72.1531 274.036C72.2345 274.009 72.316 274.009 72.3975 273.981C72.4246 273.981 72.4518 273.981 72.5061 273.954C72.6147 273.927 72.7233 273.927 72.8319 273.9C72.8591 273.9 72.859 273.9 72.8862 273.9C72.9677 273.873 73.0763 273.873 73.1577 273.846C73.1849 273.846 73.212 273.846 73.2663 273.818C73.3749 273.791 73.4564 273.791 73.565 273.764H73.5922C73.7008 273.737 73.8094 273.737 73.918 273.71C73.9451 273.71 73.9723 273.71 73.9995 273.71C74.0809 273.71 74.1895 273.683 74.271 273.683C74.2981 273.683 74.2981 273.683 74.3253 273.683C74.4339 273.656 74.5425 273.656 74.6511 273.628C74.6783 273.628 74.7054 273.628 74.7326 273.628C74.814 273.628 74.8955 273.601 75.0041 273.601C75.0312 273.601 75.0584 273.601 75.0855 273.601C75.1942 273.601 75.3028 273.574 75.4114 273.574C75.4385 273.574 75.4657 273.574 75.4928 273.574C75.5743 273.574 75.6829 273.547 75.7644 273.547C75.7915 273.547 75.8187 273.547 75.8458 273.547C75.9544 273.547 76.063 273.52 76.1716 273.52C76.1988 273.52 76.1988 273.52 76.226 273.52C76.3074 273.52 76.416 273.493 76.4975 273.493C76.5246 273.493 76.5518 273.493 76.6061 273.493C76.7147 273.493 76.8233 273.465 76.9319 273.465C77.0405 273.465 77.1491 273.465 77.2577 273.438C77.2849 273.438 77.3392 273.438 77.3664 273.438C77.4478 273.438 77.5564 273.438 77.6379 273.411C77.665 273.411 77.665 273.411 77.6922 273.411C77.8008 273.411 77.9094 273.411 78.018 273.411C78.0452 273.411 78.0723 273.411 78.0995 273.411C78.1809 273.411 78.2624 273.411 78.3438 273.411C78.371 273.411 78.3981 273.411 78.4253 273.411C78.5339 273.411 78.6425 273.411 78.7511 273.411C78.7783 273.411 78.8054 273.411 78.8326 273.411C78.914 273.411 79.0227 273.411 79.1041 273.411C79.1313 273.411 79.1584 273.411 79.1856 273.411C79.2942 273.411 79.4028 273.411 79.5114 273.411C79.5386 273.411 79.5386 273.411 79.5657 273.411C79.6743 273.411 79.7558 273.411 79.8644 273.411C79.8915 273.411 79.9187 273.411 79.9458 273.411C80.0544 273.411 80.1631 273.411 80.2717 273.411C80.3803 273.411 80.4889 273.411 80.5975 273.411C80.6246 273.411 80.6518 273.411 80.679 273.411C80.7604 273.411 80.869 273.411 80.9505 273.411C80.9776 273.411 80.9776 273.411 81.0048 273.411C81.1134 273.411 81.222 273.411 81.3306 273.438C81.3578 273.438 81.3849 273.438 81.4121 273.438C81.4935 273.438 81.6021 273.438 81.6836 273.465C81.7107 273.465 81.7379 273.465 81.7379 273.465C81.8465 273.465 81.9551 273.493 82.0637 273.493C82.0909 273.493 82.118 273.493 82.1452 273.493C82.2266 273.493 82.3081 273.52 82.3896 273.52C82.4167 273.52 82.4439 273.52 82.471 273.52C82.5796 273.52 82.6882 273.547 82.7968 273.547C82.824 273.547 82.824 273.547 82.8512 273.547C82.9598 273.547 83.0412 273.574 83.1498 273.574C83.177 273.574 83.2041 273.574 83.2313 273.574C83.4485 273.601 83.6657 273.628 83.8829 273.656C83.9101 273.656 83.9372 273.656 83.9644 273.656C84.0459 273.683 84.1545 273.683 84.2359 273.71C84.2631 273.71 84.2902 273.71 84.2902 273.71C84.3988 273.737 84.5075 273.737 84.6161 273.764C84.6432 273.764 84.6704 273.764 84.6975 273.791C84.779 273.818 84.8876 273.818 84.969 273.846C84.9962 273.846 85.0234 273.846 85.0234 273.846C85.132 273.873 85.2406 273.9 85.3492 273.9C85.3763 273.9 85.4035 273.9 85.4035 273.927C85.4849 273.954 85.5664 273.954 85.675 273.981C85.7022 273.981 85.7293 273.981 85.7565 274.009C85.8651 274.036 85.9737 274.063 86.0823 274.09H86.1095C86.1909 274.117 86.2995 274.144 86.381 274.171C86.4081 274.171 86.4353 274.199 86.4624 274.199C86.571 274.226 86.6796 274.253 86.7611 274.28C86.7611 274.28 47.8788 194.859 39.896 192.008C39.896 192.008 39.8688 192.008 39.8688 191.981C39.8417 191.981 39.8145 191.954 39.7874 191.954H39.7602C39.7331 191.954 39.7059 191.926 39.6788 191.926C39.6244 191.899 39.543 191.872 39.4615 191.845C39.4344 191.845 39.4072 191.818 39.3801 191.818C39.3258 191.791 39.2715 191.763 39.19 191.736C39.1629 191.709 39.1085 191.709 39.0814 191.682C39.0542 191.682 39.0542 191.655 39.0271 191.655C38.9728 191.628 38.9185 191.601 38.8642 191.573C38.8642 191.573 38.837 191.573 38.837 191.546C38.7827 191.519 38.7284 191.492 38.6741 191.492C38.647 191.492 38.647 191.492 38.6198 191.465C38.5655 191.438 38.5112 191.41 38.4569 191.383C38.4297 191.383 38.4297 191.383 38.4026 191.356C38.3754 191.356 38.3483 191.329 38.3211 191.329C38.3211 191.329 38.3211 191.329 38.294 191.329C38.2668 191.302 38.2125 191.302 38.1854 191.275C38.0768 191.22 37.9681 191.193 37.8595 191.139C37.8324 191.139 37.8052 191.112 37.7781 191.112C37.6695 191.057 37.5337 191.03 37.4251 190.976H37.3979C37.3708 190.976 37.3436 190.949 37.2893 190.949C37.2622 190.949 37.235 190.922 37.235 190.922C37.2079 190.895 37.1536 190.895 37.1264 190.867C37.1264 190.867 37.1264 190.867 37.0993 190.867C37.0721 190.867 37.045 190.84 36.9907 190.84C36.9635 190.84 36.9364 190.813 36.9364 190.813C36.692 190.732 36.4476 190.623 36.1761 190.542C36.1489 190.542 36.1489 190.542 36.1218 190.514C36.0675 190.487 36.0403 190.487 35.986 190.46H35.9589C35.9046 190.433 35.8774 190.433 35.8231 190.406C35.7688 190.379 35.7145 190.379 35.6602 190.352H35.633C35.4701 190.297 35.3072 190.243 35.1171 190.161C35.09 190.161 35.09 190.161 35.0628 190.134C34.8999 190.08 34.737 190.026 34.5469 189.971C34.5198 189.971 34.5198 189.971 34.4926 189.944C34.4383 189.917 34.384 189.917 34.3297 189.89C34.3026 189.89 34.3026 189.89 34.2754 189.863C34.031 189.781 33.7867 189.7 33.5151 189.618H33.488C33.4337 189.591 33.3522 189.564 33.2979 189.564C33.2979 189.564 33.2979 189.564 33.2708 189.564C33.135 189.51 32.9992 189.483 32.8635 189.428C32.8635 189.428 32.8635 189.428 32.8363 189.428C32.782 189.401 32.7006 189.401 32.6463 189.374H32.6191C32.3476 189.293 32.0489 189.184 31.7502 189.103C31.6688 189.075 31.6145 189.048 31.533 189.048C31.3973 188.994 31.2343 188.967 31.0986 188.912C31.0714 188.912 31.0714 188.912 31.0443 188.912C30.99 188.885 30.9085 188.885 30.8542 188.858C30.7727 188.831 30.7184 188.804 30.637 188.804H30.6098C30.5555 188.777 30.4741 188.777 30.4198 188.75H30.3926C30.3383 188.722 30.2569 188.722 30.2025 188.695C30.1754 188.695 30.1754 188.695 30.1482 188.668C30.0939 188.641 30.0396 188.641 29.9582 188.614H29.931C29.6866 188.559 29.4694 188.478 29.2251 188.424C29.1436 188.397 29.0621 188.369 28.9807 188.369H28.9535C28.8992 188.342 28.8178 188.342 28.7635 188.315H28.7363C28.5734 188.288 28.4376 188.234 28.2747 188.206C28.2476 188.206 28.2204 188.206 28.1933 188.179C28.139 188.152 28.0847 188.152 28.0032 188.125H27.976C27.8946 188.098 27.8131 188.098 27.7317 188.071H27.7045C27.6231 188.044 27.5688 188.044 27.4873 188.016H27.4601C27.2972 187.989 27.1343 187.935 26.9714 187.908H26.9443C26.7813 187.881 26.6184 187.826 26.4555 187.799C26.4284 187.799 26.4284 187.799 26.4012 187.799C26.1568 187.745 25.9125 187.691 25.6409 187.636C25.478 187.609 25.288 187.555 25.125 187.528H25.0979C25.0164 187.501 24.935 187.501 24.8535 187.473C24.7721 187.446 24.6906 187.446 24.6091 187.419H24.582C24.5005 187.392 24.4191 187.392 24.3376 187.365C24.1747 187.338 23.9846 187.31 23.8217 187.283C23.6588 187.256 23.4687 187.229 23.3058 187.202C23.2244 187.202 23.1429 187.175 23.0615 187.175H23.0343C22.8714 187.148 22.6813 187.12 22.5184 187.093C22.5184 187.093 22.5184 187.093 22.4913 187.093C22.4098 187.093 22.3283 187.066 22.2469 187.066C22.1654 187.066 22.084 187.039 22.0025 187.039H21.9754C21.8939 187.039 21.8124 187.012 21.7581 187.012H21.731C21.5681 186.985 21.378 186.957 21.2151 186.957H21.1879C21.025 186.93 20.8621 186.93 20.672 186.903H20.6449C20.4005 186.876 20.129 186.849 19.8846 186.822H19.8575C19.6945 186.822 19.5316 186.795 19.3687 186.795C19.3416 186.795 19.3416 186.795 19.3144 186.795C19.1515 186.795 18.9886 186.767 18.8257 186.767C18.7985 186.767 18.7985 186.767 18.7714 186.767C18.6899 186.767 18.6356 186.767 18.5541 186.767H18.527C18.3641 186.767 18.2012 186.74 18.0111 186.74H17.9839C17.821 186.74 17.6581 186.74 17.468 186.74H17.4409C17.3594 186.74 17.278 186.74 17.1965 186.74C17.1965 186.74 17.1965 186.74 17.1694 186.74C17.0879 186.74 17.0065 186.74 16.925 186.74H16.8978C16.8164 186.74 16.7621 186.74 16.6806 186.74H16.6535C16.4906 186.74 16.3276 186.74 16.1647 186.74H16.1376C15.9747 186.74 15.8117 186.74 15.6488 186.767H15.6217C15.5402 186.767 15.4859 186.767 15.4045 186.767H15.3773C15.2958 186.767 15.2144 186.767 15.1329 186.795C24.7992 203.711 52.1689 254.785 54.7484 280.118Z" fill="#A5375C"/>
<g opacity="0.5">
<path opacity="0.5" d="M38.403 232.01C44.4037 245.124 49.8613 258.646 52.7666 269.779C63.0574 270.023 76.0363 269.507 84.345 269.073C80.4351 261.226 77.6655 255.795 76.5794 253.678L38.403 232.01Z" fill="#531C2E"/>
</g>
<g opacity="0.5">
<path opacity="0.5" d="M39.5686 268.594C42.3924 269.3 47.1713 269.626 52.7375 269.762C49.8322 258.657 44.3746 245.107 38.3739 231.993L1.82666 211.221C1.82666 211.303 1.82666 211.411 1.85381 211.493C2.8313 227.241 9.4565 242.094 20.4804 253.389C27.9202 261.019 35.2785 267.535 39.5686 268.594Z" fill="#0D5965"/>
</g>
<path d="M90.863 252.228C91.4604 252.282 102.05 256.274 109.245 252.364C112.504 250.599 116.359 251.631 114.866 255.025C113.372 258.419 106.53 256.98 105.58 257.93C104.629 258.88 117.391 265.859 120.894 266.456C124.369 267.053 118.667 270.04 117.31 270.04C115.952 270.04 117.038 270.583 115.68 271.941C114.323 273.298 111.01 272.973 109.408 273.298C104.168 274.357 90.2385 264.745 88.1478 262.627C86.057 260.591 90.863 252.228 90.863 252.228Z" fill="#FFA283"/>
<path d="M15.8134 186.593C15.8134 186.593 21.3525 192.811 24.5294 199.355C27.7334 205.953 45.4911 238.4 47.4461 238.4C49.4011 238.4 93.2525 252.682 93.2525 252.682C93.2525 252.682 90.1842 259.009 90.1842 266.096C90.1842 266.096 43.0474 258.466 39.5176 258.466C35.9877 258.466 31.8877 252.194 28.3579 248.664C24.828 245.134 7.20604 229.087 2.12852 216.542C-3.00331 203.998 -0.260907 183.878 15.8134 186.593Z" fill="#0099A0"/>
<path d="M32.3511 169.334L38.026 194.504L15.8153 186.603L20.1597 169.415L32.3511 169.334Z" fill="#FFA283"/>
<path opacity="0.68" d="M32.3489 169.334L20.1575 169.415L19.1528 173.407C22.6283 176.937 26.837 179.788 30.231 180.575C31.5887 180.901 33.2178 180.901 34.9013 180.711L32.3489 169.334Z" fill="#FF7F4C"/>
<path d="M23.2786 145.141C23.2786 145.141 27.08 145.168 31.723 148.209C36.3661 151.25 40.6018 159.722 40.6018 159.722C40.6018 159.722 42.7197 165.098 42.9913 168.248C43.2628 171.397 32.1032 176.529 26.5369 175.796C20.9978 175.09 13.721 168.818 11.8746 163.089C10.0283 157.387 20.8078 144.815 23.2786 145.141Z" fill="#FFA283"/>
<path opacity="0.68" d="M33.3547 149.513C32.8116 149.024 32.2686 148.563 31.7255 148.21C27.0824 145.169 23.2811 145.142 23.2811 145.142C22.1135 144.979 19.0724 147.721 16.4115 151.251L18.3122 151.115C18.3122 151.115 24.693 152.88 31.0196 150.599C31.8613 150.301 32.6487 149.92 33.3547 149.513Z" fill="#FF7F4C"/>
<path d="M18.3095 151.139C18.3095 151.139 20.4545 155.836 21.8665 162.353C23.2784 168.897 22.5453 175.522 22.5453 175.522C17.9022 177.912 10.4353 177.667 4.08157 169.44C-2.27212 161.185 4.9233 154.452 6.5253 153.203C8.1273 151.954 5.62927 151.492 6.74252 148.234C7.88293 144.975 9.86506 147.039 12.0373 144.758C14.2095 142.477 8.53459 137.753 12.5532 134.06C16.5717 130.367 21.8393 137.508 21.8393 137.508C21.8393 137.508 24.0658 130.422 28.1116 134.467C32.1844 138.513 32.3474 141.364 29.0347 145.763C25.7221 150.134 18.3095 151.139 18.3095 151.139Z" fill="#09434C"/>
<path d="M21.8947 159.381C21.8947 159.381 16.8715 156.937 16.8715 161.2C16.8715 165.463 18.5821 167.744 21.0801 166.685C23.551 165.599 21.8947 159.381 21.8947 159.381Z" fill="#FFA283"/>
</g>
<defs>
<clipPath id="clip0">
<rect width="530.1" height="474.8" fill="white"/>
</clipPath>
</defs>
</svg>
