<svg width="69" height="71" viewBox="0 0 69 71" fill="none" xmlns="http://www.w3.org/2000/svg">
<g opacity="0.2">
<path d="M48.1139 36.5262C43.1293 42.6315 37.7292 49.2631 34.1985 52.9473C34.0946 52.9473 34.0946 52.842 33.9908 52.7368C32.2254 51.1578 30.0446 49.0526 27.76 46.6315L24.0215 50.421C28.6946 55.3684 33.0561 59.0526 33.9908 59.7894C34.0946 59.8947 34.1985 59.8947 34.1985 59.8947C34.1985 59.8947 46.3485 46.421 51.9562 40.3157L48.1139 36.5262Z" fill="#4EB594"/>
<path d="M33.9912 10.842L18.5181 16.9473C18.5181 16.9473 19.8681 27.3684 23.295 34.3157C26.3066 40.421 33.2643 47.3684 33.9912 47.7894C34.7181 47.3684 41.9874 39.9999 44.999 33.8947C48.4259 26.9473 49.4644 16.9473 49.4644 16.9473L33.9912 10.842Z" fill="#3D88C8"/>
<path d="M58.8105 10.6316L33.9911 6.10352e-05L9.17177 10.6316C9.17177 10.6316 7.40638 25.2632 15.1949 38.8422C16.7526 41.4737 18.6218 44.1053 20.6987 46.5264L24.4372 42.7369C22.6718 40.6316 21.0103 38.3158 19.7641 36.1053C15.2987 28.5264 14.3641 19.8948 14.2603 15.0527C16.441 13.7895 32.1219 7.36848 33.9911 6.63164C35.7565 7.36848 51.5412 13.7895 53.722 15.0527C53.6181 18.9474 52.995 25.2632 50.5027 31.579L54.5527 35.6843C60.3682 23.0527 58.8105 10.6316 58.8105 10.6316Z" fill="#3D88C8"/>
<path d="M51.9565 40.421L48.1142 36.5262C43.1296 42.6315 37.7295 49.2631 34.1987 52.9473C34.0949 52.9473 34.1987 59.9999 34.1987 59.9999C34.1987 59.9999 46.245 46.5262 51.9565 40.421Z" fill="#029E81"/>
<path d="M50.5025 31.579L54.5525 35.6842C60.3679 23.0526 58.8102 10.6316 58.8102 10.6316L33.9909 0V6.63158C35.7563 7.36842 51.541 13.7895 53.7218 15.0526C53.6179 18.9474 52.9948 25.2632 50.5025 31.579Z" fill="#057BAA"/>
<path d="M49.4641 16.9473C49.4641 16.9473 48.4256 26.9473 44.9987 33.8947C41.9872 39.9999 34.7179 47.3684 33.991 47.7894V10.842L49.4641 16.9473Z" fill="#057BAA"/>
</g>
<path fill-rule="evenodd" clip-rule="evenodd" d="M51.647 12.7383L51.6524 12.7449H51.647V37.1807H42.3326V40.6737H34.9571V37.1807H33.0183V47.6594H25.6348V37.1807H23.7039V47.6594H16.3193V36.0165H16.7181V12.7305H50.9643L51.2348 12.2402L51.6405 12.7305H51.647V12.7383ZM46.4779 46.4951L44.3938 37.1807H51.6005L53.6846 46.4951H46.4779Z" fill="#F7C22E"/>
<g filter="url(#filter0_di)">
<path fill-rule="evenodd" clip-rule="evenodd" d="M23.3013 36.6765H25.6299V47.1553H32.6157V36.6765H34.9443V40.1695H41.9301V36.6765H51.2444V12.2263H16.3156V35.5123V36.6765V47.1553H23.3013V36.6765ZM46.3428 45.991L44.2587 36.6766H51.1979L53.282 45.991H46.3428Z" fill="#FCCB45"/>
</g>
<g filter="url(#filter1_di)">
<path fill-rule="evenodd" clip-rule="evenodd" d="M20.7744 17.651C20.7744 17.036 21.273 16.5374 21.8881 16.5374H46.1173C46.7324 16.5374 47.231 17.036 47.231 17.651C47.231 18.2661 46.7324 18.7647 46.1173 18.7647H21.8881C21.273 18.7647 20.7744 18.2661 20.7744 17.651ZM20.7745 23.2195C20.7745 22.6044 21.2731 22.1058 21.8881 22.1058H46.1173C46.7324 22.1058 47.231 22.6044 47.231 23.2195C47.231 23.8346 46.7324 24.3332 46.1173 24.3332H21.8881C21.2731 24.3332 20.7745 23.8346 20.7745 23.2195ZM21.8881 27.6742C21.2731 27.6742 20.7745 28.1728 20.7745 28.7879C20.7745 29.4029 21.2731 29.9016 21.8881 29.9016H35.6911C36.3062 29.9016 36.8048 29.4029 36.8048 28.7879C36.8048 28.1728 36.3062 27.6742 35.6911 27.6742H21.8881Z" fill="black"/>
</g>
<defs>
<filter id="filter0_di" x="0.835473" y="4.98743" width="67.9266" height="65.8891" filterUnits="userSpaceOnUse" color-interpolation-filters="sRGB">
<feFlood flood-opacity="0" result="BackgroundImageFix"/>
<feColorMatrix in="SourceAlpha" type="matrix" values="0 0 0 0 0 0 0 0 0 0 0 0 0 0 0 0 0 0 127 0"/>
<feOffset dy="8.24119"/>
<feGaussianBlur stdDeviation="7.74004"/>
<feColorMatrix type="matrix" values="0 0 0 0 0.674861 0 0 0 0 0.504297 0 0 0 0 0.0418056 0 0 0 0.69 0"/>
<feBlend mode="normal" in2="BackgroundImageFix" result="effect1_dropShadow"/>
<feBlend mode="normal" in="SourceGraphic" in2="effect1_dropShadow" result="shape"/>
<feColorMatrix in="SourceAlpha" type="matrix" values="0 0 0 0 0 0 0 0 0 0 0 0 0 0 0 0 0 0 127 0" result="hardAlpha"/>
<feOffset dx="3.34102" dy="-4.4547"/>
<feGaussianBlur stdDeviation="4.4547"/>
<feComposite in2="hardAlpha" operator="arithmetic" k2="-1" k3="1"/>
<feColorMatrix type="matrix" values="0 0 0 0 0.92549 0 0 0 0 0.678431 0 0 0 0 0 0 0 0 1 0"/>
<feBlend mode="normal" in2="shape" result="effect2_innerShadow"/>
</filter>
<filter id="filter1_di" x="19.6607" y="16.5374" width="28.684" height="16.7052" filterUnits="userSpaceOnUse" color-interpolation-filters="sRGB">
<feFlood flood-opacity="0" result="BackgroundImageFix"/>
<feColorMatrix in="SourceAlpha" type="matrix" values="0 0 0 0 0 0 0 0 0 0 0 0 0 0 0 0 0 0 127 0"/>
<feOffset dy="2.22735"/>
<feGaussianBlur stdDeviation="0.556837"/>
<feColorMatrix type="matrix" values="0 0 0 0 0.0914062 0 0 0 0 0.0794896 0 0 0 0 0.0169271 0 0 0 0.25 0"/>
<feBlend mode="normal" in2="BackgroundImageFix" result="effect1_dropShadow"/>
<feBlend mode="normal" in="SourceGraphic" in2="effect1_dropShadow" result="shape"/>
<feColorMatrix in="SourceAlpha" type="matrix" values="0 0 0 0 0 0 0 0 0 0 0 0 0 0 0 0 0 0 127 0" result="hardAlpha"/>
<feOffset dy="1.11367"/>
<feGaussianBlur stdDeviation="0.556837"/>
<feComposite in2="hardAlpha" operator="arithmetic" k2="-1" k3="1"/>
<feColorMatrix type="matrix" values="0 0 0 0 1 0 0 0 0 1 0 0 0 0 1 0 0 0 0.25 0"/>
<feBlend mode="normal" in2="shape" result="effect2_innerShadow"/>
</filter>
</defs>
</svg>
