<svg width="16" height="16" viewBox="0 0 16 16" fill="none" xmlns="http://www.w3.org/2000/svg">
<path d="M8 16C12.4183 16 16 12.4183 16 8C16 3.58172 12.4183 0 8 0C3.58172 0 0 3.58172 0 8C0 12.4183 3.58172 16 8 16Z" fill="#868686"/>
<path fill-rule="evenodd" clip-rule="evenodd" d="M5.85229 4.31779C5.42857 3.89407 4.74158 3.89407 4.31786 4.31779C3.89414 4.74151 3.89414 5.4285 4.31786 5.85222L6.61965 8.15401L4.31779 10.4559C3.89407 10.8796 3.89407 11.5666 4.31779 11.9903C4.74151 12.414 5.4285 12.414 5.85222 11.9903L8.15408 9.68844L10.4556 11.9899C10.8793 12.4137 11.5663 12.4137 11.99 11.9899C12.4137 11.5662 12.4137 10.8792 11.99 10.4555L9.68851 8.15401L11.9899 5.85258C12.4137 5.42886 12.4137 4.74187 11.9899 4.31815C11.5662 3.89443 10.8792 3.89443 10.4555 4.31815L8.15408 6.61958L5.85229 4.31779Z" fill="white"/>
</svg>
