<svg width="17" height="16" viewBox="0 0 17 16" fill="none" xmlns="http://www.w3.org/2000/svg">
<path d="M16.1967 8C16.1967 12.4183 12.615 16 8.19675 16C3.77847 16 0.196747 12.4183 0.196747 8C0.196747 3.58172 3.77847 0 8.19675 0C12.615 0 16.1967 3.58172 16.1967 8Z" fill="#A8C0D5"/>
<path d="M7.55273 9.80325H8.35913L8.38153 9.24325C8.39273 8.78405 8.88553 8.39205 9.36713 7.91045C9.88233 7.39525 10.3751 6.79045 10.3751 5.89445C10.3751 4.58405 9.37833 3.80005 8.16873 3.80005C7.29513 3.80005 6.52233 4.18085 6.01833 4.84165L6.70153 5.48005C7.02633 4.98725 7.57513 4.70725 8.10153 4.70725C8.79593 4.70725 9.35593 5.15525 9.35593 5.93925C9.35593 6.58885 8.96393 7.05925 8.56073 7.50725C8.06793 8.03365 7.54153 8.50405 7.55273 9.19845V9.80325ZM7.97833 12.2C8.34793 12.2 8.63913 11.9088 8.63913 11.5392C8.63913 11.1696 8.34793 10.8784 7.97833 10.8784C7.60873 10.8784 7.30633 11.1696 7.30633 11.5392C7.30633 11.9088 7.60873 12.2 7.97833 12.2Z" fill="white"/>
</svg>
