<svg width="28" height="28" viewBox="0 0 28 28" fill="none" xmlns="http://www.w3.org/2000/svg">
<path d="M14 28C21.732 28 28 21.732 28 14C28 6.26801 21.732 0 14 0C6.26801 0 0 6.26801 0 14C0 21.732 6.26801 28 14 28Z" fill="white"/>
<path d="M15.5692 15.8693H14.1692L11.3692 22.0693H9.3692L12.3692 15.4693C10.9692 14.7693 9.9692 13.4693 9.9692 10.9693C9.9692 7.56926 12.1692 5.86926 14.6692 5.86926H17.2692V22.0693H15.5692V15.8693ZM15.5692 14.4693V7.36926H14.6692C13.2692 7.36926 11.8692 8.26926 11.8692 10.9693C11.8692 13.5693 13.0692 14.3693 14.6692 14.3693H15.5692V14.4693Z" fill="#FF3333"/>
</svg>
