<?xml version="1.0" encoding="utf-8"?>
<!-- Generator: Adobe Illustrator 23.0.0, SVG Export Plug-In . SVG Version: 6.00 Build 0)  -->
<svg version="1.1" id="Слой_1" xmlns="http://www.w3.org/2000/svg" xmlns:xlink="http://www.w3.org/1999/xlink" x="0px" y="0px"
	 viewBox="0 0 549 425" style="enable-background:new 0 0 549 425;" xml:space="preserve">
<style type="text/css">
	.st0{fill:#E6E6E6;}
	.st1{fill:#434A59;}
	.st2{fill:#FFFFFF;}
	.st3{opacity:0.2;}
	.st4{fill:#CCCCCC;}
	.st5{opacity:0.3;}
	.st6{opacity:0.4;fill:#EBF4FF;}
	.st7{fill:#5C95E9;}
	.st8{fill:#8FD9EB;}
	.st9{fill:#BFEBF5;}
	.st10{fill:#FF4A4A;}
	.st11{opacity:0.3;fill:#EBF4FF;}
	.st12{fill:#E53333;}
	.st13{fill:#4F5A7C;}
</style>
<g>
	<g id="Робот_2">
		<g>
			<path class="st0" d="M405,410.6H37.9c-4.5,0-8.1,2.5-8.1,7s3.6,7,8.1,7H405c4.5,0,8.1-2.5,8.1-7S409.5,410.6,405,410.6z"/>
			<g>
				<g>
					<path class="st1" d="M438.5,304.4c0.4,0,0.8,0,1.1-0.1c5.5-0.7,9.4-5.8,8.7-11.3c-7.5-58-36.5-87.3-59.5-101.6
						c-25-15.6-48.4-17.3-49.3-17.4c-5.6-0.4-10.3,3.8-10.7,9.4c-0.4,5.5,3.8,10.3,9.3,10.7c3.2,0.2,78,6.8,90.2,101.5
						C429,300.8,433.4,304.5,438.5,304.4z"/>
					<path class="st2" d="M443.8,293.2c-7.5-58-36.5-87.3-59.5-101.6c-21.5-13.4-41.6-16.5-47.6-17.2c0.9-0.2,1.8-0.3,2.7-0.2
						c1,0.1,24.3,1.7,49.3,17.4c23,14.4,52,43.6,59.5,101.6c0.7,5.5-3.2,10.5-8.7,11.3c-0.4,0.1-0.8,0.1-1.1,0.1
						c-0.8,0-1.5-0.1-2.3-0.3C441.1,303,444.5,298.3,443.8,293.2z"/>
					<g>
						<polygon class="st2" points="450,278.1 452.9,294.1 426.8,296.4 423.6,282.3 						"/>
						<path class="st3" d="M451.7,287.7l0.9,5c-3.5-1.2-7.2-1.9-11.1-1.8c-5.4,0.1-10.6,1.5-15,4l-1-4.5c4.8-2.4,10.2-3.9,16-4
							C445,286.3,448.4,286.8,451.7,287.7z"/>
						<path class="st2" d="M454,337.8c4.3-3.5,7-8.9,6.9-14.8c-0.2-10.4-8.8-18.7-19.2-18.6c-10.4,0.2-18.7,8.8-18.6,19.2
							c0.1,5.2,2.3,10,5.8,13.3l-7.3,14.4c-8.5-6.2-14.1-16.1-14.3-27.4c-0.3-19.1,15-34.9,34.1-35.2c19.1-0.3,34.9,15,35.2,34.1
							c0.2,12.4-6.2,23.4-16,29.7L454,337.8z"/>
						<path class="st2" d="M474.4,322.7c0.2,11.7-5.5,22.1-14.3,28.5l0.5,1.1c9.8-6.3,16.2-17.3,16-29.7
							c-0.3-19.1-16.1-34.4-35.2-34.1c-0.4,0-0.7,0.1-1.1,0.1C458.9,289,474.1,304,474.4,322.7z M420.1,350c0.5,0.4,1,0.8,1.6,1.2
							l7.3-14.4c-3.5-3.4-5.8-8.1-5.8-13.3c-0.2-10,7.6-18.3,17.4-19.1c-0.4,0-0.7,0-1.1,0c-10.4,0.2-18.7,8.8-18.6,19.2
							c0.1,5.2,2.3,10,5.8,13.3L420.1,350z"/>
					</g>
				</g>
				<g>
					<path class="st0" d="M220.7,408.5l-0.2,0c-11.1-2.8-17.8-13.9-15-25l26.4-106.2l40.2,10l-26.4,106.2
						C242.9,404.5,231.7,411.2,220.7,408.5z"/>
					<path class="st4" d="M253.1,283.7l-2.2-0.5l-31.1,125.1c0,0,0.6,0.2,1,0.3l0,0c0.4,0.1,1.2,0.3,1.2,0.2L253.1,283.7z"/>
					<path class="st4" d="M222.2,402.5c-11-2.7-17.9-14.1-15.1-25.3l-1.5,6c-2.8,11.2,4.1,22.6,15.1,25.3c11,2.7,22.4-4.1,25.2-15.3
						l1.5-6C244.5,398.4,233.1,405.2,222.2,402.5z"/>
					
						<rect x="222.8" y="313" transform="matrix(0.9704 0.2415 -0.2415 0.9704 83.5914 -49.4301)" class="st4" width="41.4" height="6.7"/>
				</g>
				<g>
					<g>
						<path class="st2" d="M139.9,367.5c-0.5,16.3-11.7,29.2-25,28.8c-13.3-0.4-23.6-14-23.1-30.4c0.5-16.3,11.7-29.2,25-28.8
							C130.1,337.6,140.4,351.1,139.9,367.5z"/>
						<path class="st5" d="M117.1,337.1c-4.3-0.1-9,1.3-12,3.3l-1.8,51.8c2.7,2.1,7.5,3.9,11.8,4.1c13.3,0.4,24.5-12.4,25-28.8
							C140.7,351.2,130.3,337.6,117.1,337.1z"/>
					</g>
					<g>
						<path class="st2" d="M159.8,368.1c0.5-16.3,11.7-29.2,25-28.8c13.3,0.4,23.6,14,23.1,30.4c-0.5,16.3-11.7,29.2-25,28.8
							C169.6,398.1,159.3,384.5,159.8,368.1z"/>
						<path class="st5" d="M182.6,398.5c4.3,0.1,9-1.3,12-3.3l1.8-51.8c-2.7-2.1-7.5-3.9-11.8-4.1c-13.3-0.4-24.5,12.4-25,28.8
							C159,384.5,169.4,398.1,182.6,398.5z"/>
					</g>
					<path class="st1" d="M183.7,416.3L113,414c-3.9-0.1-6.9-3.4-6.8-7.2l2.7-80.7c0.1-3.9,3.4-6.9,7.2-6.8l70.7,2.3
						c3.9,0.1,6.9,3.4,6.8,7.2l-2.7,80.7C190.8,413.4,187.5,416.5,183.7,416.3z"/>
					<g>
						
							<rect x="148.9" y="288.3" transform="matrix(3.300570e-02 -0.9995 0.9995 3.300570e-02 -184.2869 470.7568)" class="st6" width="4.5" height="84.7"/>
						
							<rect x="148.4" y="303.1" transform="matrix(3.302211e-02 -0.9995 0.9995 3.302211e-02 -199.6349 484.6458)" class="st6" width="4.5" height="84.7"/>
						
							<rect x="147.9" y="318" transform="matrix(3.300568e-02 -0.9995 0.9995 3.300568e-02 -214.9779 498.5469)" class="st6" width="4.5" height="84.7"/>
						
							<rect x="147.4" y="332.9" transform="matrix(3.300568e-02 -0.9995 0.9995 3.300568e-02 -230.3213 512.4435)" class="st6" width="4.5" height="84.7"/>
						
							<rect x="146.9" y="347.8" transform="matrix(3.302212e-02 -0.9995 0.9995 3.302212e-02 -245.669 526.3316)" class="st6" width="4.5" height="84.7"/>
						
							<rect x="146.4" y="362.6" transform="matrix(3.300568e-02 -0.9995 0.9995 3.300568e-02 -261.012 540.2335)" class="st6" width="4.5" height="84.7"/>
					</g>
					<path class="st5" d="M188.2,416.5l-15.1-0.5l3.1-94.7l15.1,0.5c1.4,0,2.5,1.2,2.4,2.6l-3,89.7
						C190.7,415.4,189.6,416.5,188.2,416.5z"/>
				</g>
				<g>
					<g>
						
							<rect x="192.9" y="143.1" transform="matrix(0.9837 0.18 -0.18 0.9837 33.517 -34.637)" class="st7" width="29.5" height="48.5"/>
						
							<rect x="327.4" y="165.1" transform="matrix(-0.9962 -8.697704e-02 8.697704e-02 -0.9962 666.5175 407.6835)" class="st7" width="29.5" height="48.5"/>
						<path class="st3" d="M202.9,177.2l0.1-0.3c4.5-12.5,13.4-22.1,24.3-27.8l0.5-2.6l-7.2-1.3c-10.7,6.6-19.3,16.7-23.9,29.3
							l-6.6,14.4l6.8,1.2L202.9,177.2z"/>
						<path class="st3" d="M330.7,167.2c8.6,8.3,14.3,19.7,15.3,32.6l2.3,14.3l6.9,0.6l-2.5-15.6c-1.1-13.5-6.7-25.5-15.3-34.7
							l-6.4-0.6L330.7,167.2z"/>
						<path class="st0" d="M277.7,323.2l-68.6-17.1c-31-7.7-48.6-40.6-37.8-70.7l27-59.4c9.4-26.1,37-40.8,63.9-34.1l45.5,11.3
							c26.9,6.7,44.3,32.6,40.4,60.1l-3.9,65.1C339.7,310.1,308.8,331,277.7,323.2z"/>
						<path class="st4" d="M258.2,149l45.5,11.3c26.9,6.7,44.8,31,40.8,58.4l-3.7,64.3c-1.8,12.4-7.6,22.8-15.9,30.8
							c10.8-8.3,18.7-20.8,20.8-35.5l4-65.2c3.9-27.4-13.5-53.5-40.4-60.1l-45.5-11.3c-18.6-4.6-38,2.6-51,15.2
							C225.4,147.2,241.7,144.9,258.2,149z"/>
						<g>
							<path class="st4" d="M298.1,324.2c0.8-0.1,1.5-0.2,2.3-0.3l24.3-164.3c-0.7-0.4-1.3-0.8-2-1.2L298.1,324.2z"/>
							<path class="st4" d="M191.2,296.6c0.6,0.5,1.2,0.9,1.9,1.3L247,140.2c-0.8,0.1-1.6,0.1-2.4,0.2L191.2,296.6z"/>
						</g>
						<path class="st4" d="M280,316.9l-69-17.2c-28.2-7-45.2-34.8-40.3-62.2c-9.5,29.6,8.1,61.1,38.7,68.7l69,17.2
							c30.6,7.6,60.9-11.9,66.4-42.6C336.2,307.3,308.2,323.9,280,316.9z"/>
					</g>
					<g>
						<path class="st3" d="M265.6,306.7l-37.1-9.2c-9.8-2.4-18.2-9-23-17.9c-4.8-8.9-5.5-19.5-2.1-29.1l0.2-0.4l14.6-32
							c6.3-17.1,24.5-26.8,42.3-22.3l24.6,6.1c17.8,4.4,29.4,21.5,26.9,39.7l-2.1,35.2c-1.5,10.2-7.1,19.2-15.5,24.9
							C285.9,307.3,275.4,309.2,265.6,306.7z"/>
						<path class="st8" d="M267.2,300.2l-37.1-9.2c-16.8-4.2-26.3-22-20.4-38.2l14.6-32.1c5.1-14.1,20-22.1,34.5-18.5l24.6,6.1
							c14.5,3.6,24,17.7,21.9,32.5l-2.1,35.2C300.7,293.1,284,304.4,267.2,300.2z"/>
						<polygon class="st9" points="268.9,206.4 212.1,276.5 225.1,289.2 289,211.4 						"/>
						<polygon class="st9" points="295.4,216.7 230.8,292 239,294.1 299.6,220.2 						"/>
						<polygon class="st9" points="303.7,228 246.8,295.1 265.7,299.9 307.3,245.4 						"/>
						<path class="st7" d="M266.1,304.6l-37.1-9.2c-9.2-2.3-17.1-8.4-21.6-16.8c-4.5-8.4-5.2-18.3-2-27.3l0.1-0.3l14.6-31.9
							c5.9-16.2,23-25.3,39.7-21.1l24.6,6.1c16.8,4.2,27.6,20.2,25.2,37.3l-2.2,35.4c-1.3,9.4-6.6,17.9-14.5,23.2
							C285.2,305.1,275.4,306.8,266.1,304.6z M213.8,254.4c-2.3,6.5-1.7,13.8,1.5,19.9c3.3,6.2,9.1,10.7,15.8,12.4l37.1,9.2
							c6.8,1.7,14,0.4,19.8-3.5c5.7-3.9,9.6-10,10.7-16.8l2.2-35.4c1.8-12.6-6.2-24.4-18.5-27.5l-24.6-6.1
							c-12.4-3.1-24.9,3.6-29.3,15.6l-0.1,0.3L213.8,254.4z"/>
					</g>
				</g>
				<g>
					<path class="st2" d="M297.8,172.2c-2.4,9.6-12.1,15.4-21.6,13c-9.6-2.4-15.4-12.1-13-21.6c2.4-9.6,12.1-15.4,21.6-13
						C294.3,153,300.1,162.7,297.8,172.2z"/>
					<path class="st1" d="M278.3,176.6l-0.1,0c-6.7-1.7-10.8-8.5-9.1-15.2l9.5-38c1.7-6.7,8.5-10.8,15.2-9.1l0.1,0
						c6.7,1.7,10.8,8.5,9.1,15.2l-9.5,38C291.8,174.2,285,178.3,278.3,176.6z"/>
					<path class="st5" d="M300.4,126.8c-1.1,4.4-6.1,6.9-11.1,5.6c-5.1-1.3-8.3-5.8-7.2-10.2c1.1-4.4,6.1-6.9,11.1-5.6
						C298.3,117.9,301.5,122.4,300.4,126.8z"/>
					<path class="st2" d="M288.5,124.8c-0.5,0-0.9-0.2-1.2-0.7c-1.5-2.5-3.4-5.5-3.5-8.9c-0.1-1.7,0.3-3.4,0.6-5
						c0.1-0.7,0.3-1.4,0.4-2.1c0.3-1.7,0.3-3.9-1-5.3c-0.4-0.4-0.9-0.8-1.5-1.2c-1.3-0.9-2.9-2.1-3-4.2c0-0.8,0.6-1.4,1.3-1.5
						c0.7-0.1,1.4,0.6,1.5,1.3c0,0.7,0.7,1.2,1.9,2.1c0.6,0.5,1.3,1,1.9,1.6c1.6,1.7,2.2,4.4,1.7,7.7c-0.1,0.7-0.3,1.5-0.4,2.2
						c-0.3,1.5-0.6,2.9-0.5,4.3c0.1,2.7,1.7,5.3,3.1,7.6c0.4,0.7,0.2,1.5-0.5,1.9C288.9,124.7,288.7,124.8,288.5,124.8z"/>
					<path class="st7" d="M292.7,123.8c-0.6,0-1.1-0.4-1.3-0.9c-1.6-4.5-1.2-9.6,1.2-13.8l0.3-0.5c0.3-0.5,0.5-0.9,0.7-1.4
						c0.2-0.4,0.2-0.9,0.3-1.5c0.1-1.3-0.1-2.7-0.5-4l-0.2-0.6c-0.3-0.8-0.6-1.6-0.7-2.6c-0.1-1.5,0.7-3.3,2.4-3.8
						c0.7-0.2,1.5,0.3,1.7,1c0.2,0.7-0.3,1.5-1,1.7c-0.2,0-0.4,0.5-0.4,0.9c0,0.5,0.3,1.1,0.5,1.7l0.3,0.7c0.6,1.6,0.8,3.4,0.7,5.1
						c-0.1,0.9-0.2,1.6-0.5,2.3c-0.3,0.7-0.6,1.3-1,1.9l-0.3,0.5c-2,3.4-2.3,7.7-1,11.5c0.3,0.7-0.1,1.5-0.8,1.8
						C293,123.8,292.9,123.8,292.7,123.8z"/>
					<path class="st10" d="M297.6,125.9c-0.1,0-0.1,0-0.2,0c-0.8-0.1-1.3-0.8-1.2-1.6c0.6-4.3,4.2-7.8,8.4-8.4
						c0.5-0.1,1.1-0.1,1.6-0.1c0.5,0,1.1,0,1.6-0.1c2-0.3,3.7-1.8,4.4-3.6c0.3-0.7,1.1-1.1,1.8-0.8c0.7,0.3,1.1,1.1,0.8,1.8
						c-1.1,2.7-3.6,4.8-6.5,5.3c-0.7,0.1-1.3,0.2-2,0.2c-0.5,0-0.9,0-1.4,0.1c-3,0.4-5.6,3-6.1,6
						C298.9,125.4,298.3,125.9,297.6,125.9z"/>
				</g>
				<g>
					<path class="st1" d="M193.6,242.2c0,0.4,0,0.8-0.1,1.1c-0.7,5.5-4.9,9.3-9.5,8.5c-47.4-8.4-70.8-37.8-82-61
						c-12.2-25.3-13.1-48.6-13.1-49.6c-0.2-5.6,3.4-10.3,8-10.5c4.5-0.3,8.4,4,8.5,9.5c0.1,3.2,3.7,78,81.2,91.7
						C190.9,232.7,193.8,237.1,193.6,242.2z"/>
					<path class="st2" d="M184.2,247.4c-47.4-8.4-70.8-37.8-82-61c-10.5-21.6-12.6-41.9-13-47.8c-0.2,0.9-0.3,1.8-0.3,2.7
						c0,1,0.8,24.3,13.1,49.6c11.2,23.2,34.6,52.6,82,61c4.5,0.8,8.7-3,9.5-8.5c0-0.4,0.1-0.8,0.1-1.1c0-0.8,0-1.5-0.2-2.3
						C192.4,244.8,188.5,248.1,184.2,247.4z"/>
				</g>
				<g>
					<g>
						<polygon class="st2" points="171.6,253.4 187.7,251.5 182.4,225.9 168,226.9 						"/>
						<path class="st3" d="M181.2,252.3l5-0.6c-2.2-3-3.9-6.4-4.9-10.1c-1.5-5.2-1.6-10.6-0.5-15.5l-4.6,0.3
							c-1,5.3-0.8,10.9,0.8,16.4C178,246.2,179.4,249.4,181.2,252.3z"/>
						<path class="st2" d="M229.8,240.1c-2.2,5.1-6.5,9.2-12.2,10.9c-10,2.8-20.5-3-23.3-13c-2.8-10,3-20.5,13-23.3
							c5.1-1.4,10.2-0.6,14.4,1.8l11.7-11.1c-8.4-6.4-19.5-8.9-30.4-5.8c-18.4,5.2-29.1,24.4-23.9,42.7
							c5.2,18.4,24.4,29.1,42.7,23.9c12-3.4,20.7-12.7,23.9-23.9L229.8,240.1z"/>
						<path class="st11" d="M178.9,241.1c0.1,0.4,0.1,0.7,0.2,1.1c5.2,18.4,24.4,29.1,42.7,23.9c12-3.4,20.7-12.7,23.9-23.9
							l-1.2-0.2c-3.6,10.3-12,18.7-23.2,21.9C203.3,269.1,184.5,258.8,178.9,241.1z M221.2,214.3c-4.2-2.4-9.4-3.2-14.4-1.8
							c-10,2.8-15.9,13.3-13,23.3c0.1,0.4,0.2,0.7,0.4,1.1c-2.1-9.7,3.6-19.5,13.3-22.2c5.1-1.4,10.2-0.6,14.4,1.8l11.7-11.1
							c-0.5-0.4-1.1-0.8-1.6-1.2L221.2,214.3z"/>
					</g>
				</g>
				<g>
					<g>
						<path class="st2" d="M335.4,364.5c11.4,11.7,12.9,28.7,3.4,38c-9.5,9.3-26.5,7.3-37.9-4.4c-11.4-11.7-12.9-28.7-3.4-38
							C307,350.8,324,352.8,335.4,364.5z"/>
						<path class="st5" d="M297.7,359.9c-3.1,3-5.3,7.4-5.9,10.9l36.1,37.2c3.4-0.5,8-2.7,11.1-5.7c9.5-9.3,8-26.3-3.4-38
							C324.2,352.6,307.2,350.6,297.7,359.9z"/>
					</g>
					<g>
						<path class="st2" d="M349.7,350.6c-11.4-11.7-12.9-28.7-3.4-38c9.5-9.3,26.5-7.3,37.9,4.4c11.4,11.7,12.9,28.7,3.4,38
							C378,364.3,361.1,362.3,349.7,350.6z"/>
						<path class="st5" d="M387.4,355.2c3.1-3,5.3-7.4,5.9-10.9l-36.1-37.2c-3.4,0.5-8,2.7-11.1,5.7c-9.5,9.3-8,26.3,3.4,38
							C360.9,362.5,377.8,364.5,387.4,355.2z"/>
					</g>
					<path class="st1" d="M400.9,366.8l-50.7,49.3c-2.8,2.7-7.2,2.6-9.9-0.1L284,358.1c-2.7-2.8-2.6-7.2,0.1-9.9l50.7-49.3
						c2.8-2.7,7.2-2.6,9.9,0.1l56.3,57.9C403.8,359.7,403.7,364.1,400.9,366.8z"/>
					<g>
						
							<rect x="274.3" y="328.6" transform="matrix(0.7167 -0.6974 0.6974 0.7167 -141.0303 314.5456)" class="st6" width="84.7" height="4.5"/>
						
							<rect x="284.6" y="339.3" transform="matrix(0.7167 -0.6974 0.6974 0.7167 -145.5291 324.815)" class="st6" width="84.7" height="4.5"/>
						
							<rect x="295" y="349.9" transform="matrix(0.7167 -0.6974 0.6974 0.7167 -150.0273 335.0672)" class="st6" width="84.7" height="4.5"/>
						
							<rect x="305.4" y="360.6" transform="matrix(0.7167 -0.6974 0.6974 0.7167 -154.5261 345.3289)" class="st6" width="84.7" height="4.5"/>
						
							<rect x="315.8" y="371.3" transform="matrix(0.7167 -0.6974 0.6974 0.7167 -159.0249 355.5929)" class="st6" width="84.7" height="4.5"/>
						
							<rect x="326.2" y="382" transform="matrix(0.7167 -0.6974 0.6974 0.7167 -163.5236 365.8547)" class="st6" width="84.7" height="4.5"/>
					</g>
					<path class="st5" d="M357.9,408.7l-7.6,7.4c-2.8,2.7-7.2,2.6-9.9-0.1L284,358.1c-2.7-2.8-2.6-7.2,0.1-9.9l7.6-7.4L357.9,408.7z
						"/>
				</g>
			</g>
			<g>
				<path class="st7" d="M204.4,135.7c-2.1,0.4-4.1-0.9-4.5-2.9l-1.9-8.9c-10.1-47.7-57.1-78.3-104.7-68.2
					C45.5,65.7,14.9,112.7,25,160.4l1.9,8.9c0.4,2.1-0.9,4.1-2.9,4.5c-2.1,0.4-4.1-0.9-4.5-2.9l-1.9-8.9
					C6.6,110.2,39.9,59.1,91.7,48.2s102.8,22.3,113.7,74.1l1.9,8.9C207.7,133.2,206.4,135.2,204.4,135.7z"/>
				<path class="st7" d="M24.7,205.2l-4.2-19.7c-0.4-2.1,0.9-4.1,2.9-4.5c2.1-0.4,4.1,0.9,4.5,2.9l4.2,19.7c0.5,2.4,2.9,3.9,5.2,3.4
					l9.4-2c2.1-0.4,4.1,0.9,4.5,2.9c0.4,2.1-0.9,4.1-2.9,4.5l-9.4,2C32.4,215.8,26,211.7,24.7,205.2z"/>
				<path class="st7" d="M209.2,178.4l-9.4,2c-2.1,0.4-4.1-0.9-4.5-2.9c-0.4-2.1,0.9-4.1,2.9-4.5l9.4-2c2.4-0.5,3.9-2.9,3.4-5.2
					l-4.2-19.7c-0.4-2.1,0.9-4.1,2.9-4.5c2.1-0.4,4.1,0.9,4.5,2.9l4.2,19.7C219.9,170.6,215.7,177,209.2,178.4z"/>
				<path class="st0" d="M196.3,166.6c0.1-3-0.1-6.1-0.8-9.1l-13.3-62.9c-4.3-20.4-24.3-33.4-44.7-29.1L56.7,82.5
					c-20.4,4.3-33.4,24.3-29.1,44.7l13.3,62.9c4.3,20.4,24.3,33.4,44.7,29.1l80.7-17.1c9.3-2,17.1-7.2,22.4-14.3"/>
				<path class="st4" d="M72.7,198.3l4.6,21.7c-17.2-0.2-32.6-12.3-36.4-29.9l-4.6-21.7C53.6,168.6,69,180.8,72.7,198.3z"/>
				<path class="st4" d="M190.9,135.8l4.6,21.7c0.6,3.1,0.9,6.1,0.8,9.1l-7.5,21.3c-3.7,4.9-8.6,9-14.4,11.7l-4.6-21.7
					C166,160.3,175.2,143,190.9,135.8z"/>
				<path class="st2" d="M106,122.4c3.7,17.4-7.5,34.5-24.9,38.2c-17.4,3.7-34.5-7.5-38.2-24.9c-3.7-17.4,7.5-34.5,24.9-38.2
					C85.3,93.9,102.4,105,106,122.4z"/>
				<path class="st2" d="M167,117.5c2.8,13.1-5.6,26-18.8,28.8s-26-5.6-28.8-18.8c-2.8-13.1,5.6-26,18.8-28.8S164.2,104.3,167,117.5
					z"/>
				<path class="st1" d="M64.4,205.2c1.2,5.7-2.5,11.4-8.2,12.6l-3.5,0.7c-5.7,1.2-11.4-2.5-12.6-8.2c-1.2-5.7,2.5-11.4,8.2-12.6
					l3.5-0.7C57.6,195.8,63.2,199.5,64.4,205.2z"/>
				<path class="st10" d="M91.1,191.9l10.3-2.2l2.6,12.3l-10.3,2.2L91.1,191.9z"/>
				<path class="st10" d="M108.9,188.1l10.3-2.2l2.6,12.3l-10.3,2.2L108.9,188.1z"/>
				<path class="st10" d="M127.6,184.1l10.3-2.2l2.6,12.3l-10.3,2.2L127.6,184.1z"/>
				<path class="st10" d="M145.3,180.4l10.3-2.2l2.6,12.3l-10.3,2.2L145.3,180.4z"/>
				<path class="st12" d="M30.4,140.2l7.7,36.5c1.2,5.6-1.6,11.1-6.4,13.7c-1,0.5-2.1,0.9-3.2,1.2l-4.8,1
					c-6.8,1.4-13.4-2.9-14.8-9.7l-7.7-36.5c-1.4-6.8,2.9-13.4,9.7-14.8l4.8-1c1.1-0.2,2.3-0.3,3.4-0.2
					C24.4,130.6,29.2,134.6,30.4,140.2z"/>
				<path class="st10" d="M30.4,140.2l7.7,36.5c1.2,5.6-1.6,11.1-6.4,13.7c-5.5-0.4-10.2-4.3-11.4-9.9l-7.7-36.5
					c-1.2-5.6,1.6-11.1,6.4-13.7C24.4,130.6,29.2,134.6,30.4,140.2z"/>
				<path class="st12" d="M214.1,101.4l7.7,36.5c1.2,5.6-1.6,11.1-6.4,13.7c-1,0.5-2.1,0.9-3.2,1.2l-4.8,1
					c-6.8,1.4-13.4-2.9-14.8-9.7l-7.7-36.5c-1.4-6.8,2.9-13.4,9.7-14.8l4.8-1c1.1-0.2,2.3-0.3,3.4-0.2
					C208.2,91.8,213,95.8,214.1,101.4z"/>
				<path class="st10" d="M214.1,101.4l7.7,36.5c1.2,5.6-1.6,11.1-6.4,13.7c-5.5-0.4-10.2-4.3-11.4-9.9l-7.7-36.5
					c-1.2-5.6,1.6-11.1,6.4-13.7C208.2,91.8,213,95.8,214.1,101.4z"/>
				<path class="st1" d="M190.4,167.6l3.5-0.7c5.7-1.2,11.4,2.5,12.6,8.2c1.2,5.7-2.5,11.4-8.2,12.6l-3.5,0.7
					c-5.7,1.2-11.4-2.5-12.6-8.2C180.9,174.5,184.6,168.8,190.4,167.6z"/>
				<g>
					
						<rect x="127.5" y="117.9" transform="matrix(0.8771 0.4802 -0.4802 0.8771 76.5691 -53.7419)" class="st1" width="31.7" height="9.7"/>
					
						<rect x="127.5" y="117.9" transform="matrix(0.4802 -0.8771 0.8771 0.4802 -33.1995 189.5243)" class="st1" width="31.7" height="9.7"/>
				</g>
				<g>
					
						<rect x="66.5" y="131.4" transform="matrix(0.8771 0.4802 -0.4802 0.8771 75.5429 -22.8152)" class="st1" width="31.7" height="9.7"/>
					
						<rect x="66.5" y="131.4" transform="matrix(0.4802 -0.8771 0.8771 0.4802 -76.6869 143.0521)" class="st1" width="31.7" height="9.7"/>
				</g>
			</g>
		</g>
		<g>
			<g>
				<path class="st13" d="M320.9,28.7V0.2h9.5v28.5H320.9z M358.9,57.2v-19h-28.5v-9.5h28.5V0.2h9.5v57H358.9z M330.4,66.7v-9.5
					h28.5v9.5H330.4z"/>
				<path class="st13" d="M377.9,66.7V0.2h57v66.5h-9.5v-57h-38v57H377.9z"/>
				<path class="st13" d="M444.4,57.2V9.7h9.5v47.5H444.4z M453.9,9.7V0.2h38v9.5H453.9z M453.9,66.7v-9.5h38v9.5H453.9z"/>
				<path class="st13" d="M501.4,66.7v-9.5h9.5v9.5H501.4z"/>
				<path class="st13" d="M520.4,66.7v-9.5h9.5v9.5H520.4z"/>
				<path class="st13" d="M539.4,66.7v-9.5h9.5v9.5H539.4z"/>
			</g>
		</g>
	</g>
</g>
</svg>
