<svg id="Слой_1" data-name="Слой 1" xmlns="http://www.w3.org/2000/svg" viewBox="0 0 62.2 57.77"><defs><style>.cls-1{fill:#fbbd04;}.cls-2{fill:#438edc;}.cls-3{fill:#34a952;}.cls-4{fill:#fff;}.cls-5{fill:#e1ebf0;}.cls-6{fill:#b2d0d6;}</style></defs><title>ads_blue</title><rect class="cls-1" x="14.02" y="4.27" width="19.19" height="57.12" rx="8.38" transform="translate(19.58 -13.64) rotate(30)"/><rect class="cls-2" x="33.09" y="4.13" width="19.19" height="57.12" rx="8.38" transform="translate(-10.63 19.49) rotate(-30)"/><circle class="cls-3" cx="14.26" cy="42.88" r="9.73"/><path class="cls-4" d="M25,51.5A12.5,12.5,0,0,1,12.5,64h0a12.5,12.5,0,0,1,0-25h0A12.63,12.63,0,0,1,25,51.5Z" transform="translate(0 -6.23)"/><path class="cls-5" d="M25,51.5A12.5,12.5,0,0,1,12.5,64V39A12.63,12.63,0,0,1,25,51.5Z" transform="translate(0 -6.23)"/><path class="cls-6" d="M18,49.3h-.3V47.8a5.12,5.12,0,0,0-5-5.2h-.3a5.19,5.19,0,0,0-5,5.2v1.5H7c-.5,0-.9.5-.9,1.2v7.7c0,.6.4,1.2.9,1.2H18c.5,0,.9-.5.9-1.2V50.5a1,1,0,0,0-.9-1.2Zm-4.4,5v2.3a.47.47,0,0,1-.5.5H12a.47.47,0,0,1-.5-.5V54.3a1.28,1.28,0,0,1-.4-1,1.42,1.42,0,0,1,1.3-1.4h.3A1.42,1.42,0,0,1,14,53.3a1.78,1.78,0,0,1-.4,1Zm2-5H9.5V47.8a3.1,3.1,0,0,1,3-3.1,3,3,0,0,1,3,3.1v1.5Z" transform="translate(0 -6.23)"/></svg>