<?xml version="1.0" encoding="utf-8"?>
<!-- Generator: Adobe Illustrator 23.0.1, SVG Export Plug-In . SVG Version: 6.00 Build 0)  -->
<svg version="1.1" id="Слой_1" xmlns="http://www.w3.org/2000/svg" xmlns:xlink="http://www.w3.org/1999/xlink" x="0px" y="0px"
	 viewBox="0 0 76.9 64.1" style="enable-background:new 0 0 76.9 64.1;" xml:space="preserve">
<style type="text/css">
	.st0{fill:#FBCB18;}
	.st1{fill:#ECF0F1;}
	.st2{fill:#BDC3C7;}
	.st3{fill:#E84C4F;}
	.st4{fill:#F4CC20;}
	.st5{fill:#5C95E9;}
	.st6{fill:#57B36E;}
	.st7{fill:#00BD9C;}
	.st8{fill:#2B3E51;}
	.st9{fill:#E94B35;}
	.st10{fill:#365558;}
	.st11{fill:#9BAAAB;}
	.st12{fill:#687F82;}
	.st13{fill:#4F8BD3;}
	.st14{fill:#E6EAEA;}
	.st15{fill:#CDD4D5;}
	.st16{fill:#FFFFFF;}
	.st17{fill:#E1EBF0;}
	.st18{fill:#B2D0D6;}
</style>
<title>shield</title>
<desc>Created with Sketch.</desc>
<g>
	<g>
		<g>
			<path class="st0" d="M70.9,30.1c0,16.6-13.8,30.5-30.8,30.5S9.3,46.7,9.3,30.1S23.1,0,40.1,0S70.9,13.5,70.9,30.1z"/>
			<path class="st1" d="M50.6,15.5V8.9c-0.3-0.1-0.7-0.2-0.9-0.2H26.5c-0.5,0-0.9,0.4-0.9,0.9v39.9c0,0.5,0.4,0.9,0.9,0.9h30
				c0.5,0,0.9-0.4,0.9-0.9V16.4c0-0.3-0.1-0.6-0.2-0.9H50.6z"/>
			<path class="st2" d="M57.3,15.5c-0.1-0.3-0.3-0.5-0.4-0.7l-5.5-5.5C51.2,9.1,51,9,50.7,8.9v6.6H57.3z"/>
			<rect x="30.8" y="19.4" class="st3" width="4.5" height="10.2"/>
			<rect x="36.5" y="21.5" class="st4" width="4.5" height="8"/>
			<rect x="42.1" y="23.5" class="st5" width="4.5" height="6"/>
			<rect x="47.8" y="16.1" class="st6" width="4.5" height="13.5"/>
			<rect x="30.8" y="31.1" class="st2" width="21.5" height="1.4"/>
			<path class="st4" d="M47.3,37.9c0,0.5-0.4,0.9-0.9,0.9s-0.9-0.4-0.9-0.9s0.4-0.9,0.9-0.9C46.9,36.9,47.3,37.4,47.3,37.9
				L47.3,37.9z"/>
			<path class="st7" d="M47.3,40.2c0,0.5-0.4,0.9-0.9,0.9s-0.9-0.4-0.9-0.9s0.4-0.9,0.9-0.9C46.9,39.3,47.3,39.7,47.3,40.2
				L47.3,40.2z"/>
			<path class="st8" d="M47.3,42.6c0,0.5-0.4,0.9-0.9,0.9s-0.9-0.4-0.9-0.9s0.4-0.9,0.9-0.9C46.9,41.7,47.3,42.1,47.3,42.6
				L47.3,42.6z"/>
			<path class="st9" d="M47.3,45c0,0.5-0.4,0.9-0.9,0.9s-0.9-0.4-0.9-0.9s0.4-0.9,0.9-0.9C46.9,44,47.3,44.4,47.3,45L47.3,45z"/>
			<path class="st2" d="M54,38.1h-5.3c-0.2,0-0.3-0.1-0.3-0.3s0.1-0.3,0.3-0.3H54c0.2,0,0.3,0.1,0.3,0.3
				C54.3,37.9,54.1,38.1,54,38.1L54,38.1z"/>
			<path class="st2" d="M53,40.4h-4.4c-0.2,0-0.3-0.1-0.3-0.3s0.1-0.3,0.3-0.3H53c0.2,0,0.3,0.1,0.3,0.3
				C53.3,40.3,53.2,40.4,53,40.4L53,40.4z"/>
			<path class="st2" d="M53,42.8h-4.4c-0.2,0-0.3-0.1-0.3-0.3s0.1-0.3,0.3-0.3H53c0.2,0,0.3,0.1,0.3,0.3S53.2,42.8,53,42.8L53,42.8z
				"/>
			<path class="st2" d="M53.6,45.1h-5.2c-0.2,0-0.3-0.1-0.3-0.3s0.1-0.3,0.3-0.3h5.2c0.2,0,0.3,0.1,0.3,0.3
				C53.9,45,53.8,45.1,53.6,45.1L53.6,45.1z"/>
			<rect x="27.5" y="10.2" class="st2" width="8.2" height="2"/>
			<path class="st2" d="M46.4,10.4h-9.6c-0.2,0-0.3-0.1-0.3-0.3s0.1-0.3,0.3-0.3h9.6c0.2,0,0.3,0.1,0.3,0.3
				C46.7,10.3,46.6,10.4,46.4,10.4L46.4,10.4z"/>
			<path class="st2" d="M44.4,11.5h-7.6c-0.2,0-0.3-0.1-0.3-0.3s0.1-0.3,0.3-0.3h7.6c0.2,0,0.3,0.1,0.3,0.3
				C44.7,11.3,44.6,11.5,44.4,11.5L44.4,11.5z"/>
			<path class="st2" d="M47.3,12.4H36.8c-0.2,0-0.3-0.1-0.3-0.3s0.1-0.3,0.3-0.3h10.5c0.2,0,0.3,0.1,0.3,0.3
				C47.6,12.3,47.5,12.4,47.3,12.4L47.3,12.4z"/>
			<rect x="27.5" y="13.8" class="st8" width="20.3" height="1.4"/>
		</g>
		<circle class="st1" cx="35.1" cy="40.1" r="11.7"/>
		<g>
			<path class="st3" d="M35.9,39.3H46c-0.4-5.4-4.7-9.7-10.1-10.1V39.3z"/>
			<path class="st4" d="M43.1,47.5c1.6-1.8,2.7-4.1,2.9-6.6h-9.5L43.1,47.5z"/>
			<path class="st5" d="M34.4,39.8V29.3c-5.7,0.4-10.1,5.1-10.1,10.8c0,2.7,1,5.2,2.7,7.1L34.4,39.8z"/>
			<path class="st6" d="M34.9,41.4L28,48.3c1.9,1.7,4.4,2.7,7.1,2.7c2.6,0,5-0.9,6.9-2.5L34.9,41.4z"/>
		</g>
		<g>
			<path class="st10" d="M68.2,59.6c-0.1,0-0.3-0.1-0.4-0.2l-4.7-4.7c-0.2-0.2-0.2-0.5,0-0.7s0.5-0.2,0.7,0l4.7,4.7
				c0.2,0.2,0.2,0.5,0,0.7C68.5,59.5,68.4,59.6,68.2,59.6z"/>
			<path class="st5" d="M64.4,35.1c-2.7-2.7-6.2-4.2-10-4.2s-7.4,1.5-10,4.2c-5.5,5.5-5.5,14.5,0,20.1c2.7,2.7,6.2,4.2,10,4.2
				s7.4-1.5,10-4.2c2.7-2.7,4.2-6.2,4.2-10S67.1,37.8,64.4,35.1z"/>
			<path class="st11" d="M73.1,60.8l-3.9-3.9c-0.2-0.2-0.5-0.2-0.7,0L66,59.2c-0.2,0.2-0.2,0.5,0,0.7l3.9,3.9
				c0.1,0.1,0.2,0.2,0.4,0.2s0.3-0.1,0.4-0.2l2.4-2.4C73.3,61.3,73.3,61,73.1,60.8z"/>
			<path class="st12" d="M67.2,58.1L66,59.2c-0.2,0.2-0.2,0.5,0,0.7l3.9,3.9c0.1,0.1,0.2,0.2,0.4,0.2c0.1,0,0.3-0.1,0.4-0.2l1.2-1.2
				L67.2,58.1z"/>
			<path class="st13" d="M44.3,35.2c-5.5,5.5-5.5,14.5,0,20c2.7,2.7,6.2,4.2,10,4.2s7.3-1.5,10-4.1L44.3,35.2z"/>
			<path class="st14" d="M61.5,38c-4-4-10.4-4-14.4,0c-1.9,1.9-3,4.5-3,7.2s1.1,5.3,3,7.2c2,2,4.6,3,7.2,3c2.6,0,5.2-1,7.2-3
				C65.5,48.4,65.5,41.9,61.5,38z"/>
			<path class="st15" d="M47.1,38c-1.9,1.9-2.9,4.5-2.9,7.2s1.1,5.3,3,7.2c2,2,4.6,3,7.2,3c2.6,0,5.2-1,7.2-2.9L47.1,38z"/>
			<g>
				<path class="st16" d="M65.9,45.7c-0.3,0-0.5-0.2-0.5-0.5c0-1.5-0.3-2.9-0.8-4.3c-0.1-0.3,0-0.6,0.3-0.7c0.3-0.1,0.6,0,0.7,0.3
					c0.6,1.5,0.9,3,0.9,4.7C66.4,45.5,66.2,45.7,65.9,45.7z"/>
				<path class="st16" d="M63.8,39c-0.2,0-0.3-0.1-0.4-0.2c-0.4-0.5-0.8-1-1.2-1.4c-2.1-2.1-4.9-3.2-7.8-3.2c-0.3,0-0.5-0.2-0.5-0.5
					s0.2-0.5,0.5-0.5c3.2,0,6.3,1.3,8.6,3.5c0.5,0.5,0.9,1,1.3,1.6c0.2,0.2,0.1,0.6-0.1,0.7C64,39,63.9,39,63.8,39z"/>
			</g>
			<path class="st5" d="M50.4,41h-2.5c-0.3,0-0.5,0.2-0.5,0.5v7c0,0.3,0.2,0.5,0.5,0.5h2.5c0.3,0,0.5-0.2,0.5-0.5v-7
				C50.9,41.3,50.7,41,50.4,41z"/>
			<path class="st3" d="M55.4,41.9h-2.5c-0.3,0-0.5,0.2-0.5,0.5v6.1c0,0.3,0.2,0.5,0.5,0.5h2.5c0.3,0,0.5-0.2,0.5-0.5v-6.1
				C55.9,42.1,55.7,41.9,55.4,41.9z"/>
			<path class="st0" d="M60.4,39.3h-2.5c-0.3,0-0.5,0.2-0.5,0.5v8.7c0,0.3,0.2,0.5,0.5,0.5h2.5c0.3,0,0.5-0.2,0.5-0.5v-8.7
				C60.9,39.6,60.7,39.3,60.4,39.3z"/>
			<path class="st10" d="M61.5,49H46.7c-0.3,0-0.5-0.2-0.5-0.5s0.2-0.5,0.5-0.5h14.8c0.3,0,0.5,0.2,0.5,0.5S61.8,49,61.5,49z"/>
		</g>
	</g>
	<g>
		<path class="st16" d="M27,49c0,6.4-5.2,11.7-11.7,11.7l0,0C8.9,60.7,3.6,55.5,3.6,49s5.3-11.7,11.7-11.7l0,0
			C21.8,37.4,27,42.6,27,49L27,49z"/>
		<path class="st17" d="M27,49c0,6.4-5.2,11.7-11.7,11.7V37.3C21.8,37.4,27,42.6,27,49L27,49z"/>
		<path class="st18" d="M20.5,46.9h-0.3v-1.4c0-2.6-2.1-4.9-4.7-4.9c-0.1,0-0.2,0-0.3,0c-2.6,0-4.7,2.3-4.7,4.9v1.4h-0.3
			c-0.5,0-0.9,0.5-0.9,1.1v7.2c0,0.6,0.4,1.1,0.9,1.1h10.3c0.5,0,0.9-0.5,0.9-1.1V48C21.4,47.4,21,46.9,20.5,46.9L20.5,46.9z
			 M16.3,51.6v2.2c0,0.2-0.2,0.5-0.5,0.5h-1c-0.2,0-0.5-0.2-0.5-0.5v-2.2C14.1,51.4,14,51,14,50.7c0-0.7,0.5-1.3,1.2-1.3
			c0.1,0,0.2,0,0.3,0c0.7,0,1.2,0.6,1.2,1.3C16.7,51,16.5,51.4,16.3,51.6L16.3,51.6z M18.2,46.9h-5.7v-1.4c0-1.6,1.3-2.9,2.9-2.9
			s2.9,1.3,2.9,2.9v1.4H18.2z"/>
	</g>
</g>
</svg>
