<?xml version="1.0" encoding="utf-8"?>
<!-- Generator: Adobe Illustrator 23.0.1, SVG Export Plug-In . SVG Version: 6.00 Build 0)  -->
<svg version="1.1" id="Слой_1" xmlns="http://www.w3.org/2000/svg" xmlns:xlink="http://www.w3.org/1999/xlink" x="0px" y="0px"
	 viewBox="0 0 73.5 64.1" enable-background="new 0 0 73.5 64.1" xml:space="preserve">
<title>shield</title>
<desc>Created with Sketch.</desc>
<g>
	<g>
		<path fill="#AEAEAE" d="M9.8,14.3V7.1H73c0.3,0,0.6,0.2,0.6,0.6v6.6C73.6,14.3,9.8,14.3,9.8,14.3z"/>
		<path fill="#CCCCCC" d="M69.2,7.1v7.1h4.3V7.7c0-0.3-0.2-0.6-0.6-0.6H69.2z"/>
		<path fill="#616161" d="M9.8,62V14.3h63.7V62c0,0.3-0.2,0.6-0.6,0.6H10.3C10,62.6,9.8,62.3,9.8,62z"/>
		<path fill="#AEAEAE" d="M69.2,14.3v48.3h3.7c0.3,0,0.6-0.2,0.6-0.6V14.3H69.2z"/>
		<path fill="#556B79" d="M2.9,7.1V0.6C2.9,0.3,3.2,0,3.5,0h62.6c0.3,0,0.6,0.2,0.6,0.6v6.6L2.9,7.1L2.9,7.1z"/>
		<path fill="#556B79" d="M62.4,0v7.1h4.3V0.6c0-0.3-0.2-0.6-0.6-0.6H62.4z"/>
		<path fill="#FBCB18" d="M2.9,54.9V7.1h63.7v47.8c0,0.3-0.2,0.6-0.6,0.6H3.5C3.2,55.5,2.9,55.2,2.9,54.9z"/>
		<path fill="#556B79" d="M62.4,7.1v48.3h3.7c0.3,0,0.6-0.2,0.6-0.6V7.1H62.4z"/>
		<path fill="#556B79" d="M2.9,7.1V0.6C2.9,0.3,3.2,0,3.5,0h15.3v7.1H2.9z"/>
		<path fill="#FFFFFF" d="M19.9,47.9V45c0-1.6,1.3-2.8,2.8-2.8h22.7c1.6,0,2.8,1.3,2.8,2.8v2.8c0,1.6-1.3,2.8-2.8,2.8H22.7
			C21.2,50.7,19.9,49.4,19.9,47.9z"/>
		<g>
			<circle fill="#FFBD2A" cx="7.1" cy="3.6" r="1.1"/>
			<circle fill="#FFBD2A" cx="15" cy="3.6" r="1.1"/>
			<circle fill="#FFBD2A" cx="11" cy="3.6" r="1.1"/>
		</g>
		<g>
			<path fill="#FFFFFF" d="M20.6,15.8c-0.1-0.4-0.5-0.7-1-0.7l0,0c-0.4,0-0.8,0.3-1,0.7c0,0-1.7,4.7-3.3,9.3
				c-3.4,9.5-3.4,9.6-3.4,9.8c0,0.6,0.5,1,1,1l0,0c0.5,0,0.9-0.4,1-0.8c0.1-0.4,0.9-2.6,2-5.7h7.3l2.1,5.8c0.2,0.4,0.5,0.7,1,0.7
				c0.1,0,0.2,0,0.3-0.1c0.5-0.2,0.8-0.8,0.6-1.3L20.6,15.8z M16.7,27.4c0.9-2.6,2-5.5,2.9-8.2l2.9,8.2
				C22.5,27.4,16.7,27.4,16.7,27.4z"/>
			<path fill="#FFFFFF" d="M30,15.1h-0.4c-0.6,0-1,0.5-1,1v18.7c0,0.6,0.5,1,1,1H30c5.7,0,10.4-4.7,10.4-10.4S35.7,15.1,30,15.1z
				 M30.7,33.8V17.2c4.3,0.3,7.7,3.9,7.7,8.3S34.9,33.5,30.7,33.8z"/>
			<path fill="#FFFFFF" d="M49.7,24.1h-2.2c-1.7,0-3.2-1.4-3.2-3.2v-0.6c0-1.7,1.4-3.2,3.2-3.2h1.3c1.7,0,3.2,1.4,3.2,3.2
				c0,0.6,0.5,1,1,1c0.6,0,1-0.5,1-1c0-2.9-2.3-5.2-5.2-5.2h-1.3c-2.9,0-5.2,2.3-5.2,5.2v0.6c0,2.9,2.3,5.2,5.2,5.2h2.2
				c1.2,0,2.3,1,2.3,2.3v2.2c0,1.7-1.4,3.2-3.2,3.2h-1.3c-1.7,0-3.2-1.4-3.2-3.2V30c0-0.6-0.5-1-1-1c-0.6,0-1,0.5-1,1v0.7
				c0,2.9,2.3,5.2,5.2,5.2h1.3c2.9,0,5.2-2.3,5.2-5.2v-2.2C54,26,52.1,24.1,49.7,24.1z"/>
		</g>
	</g>
</g>
</svg>
