<?xml version="1.0" encoding="utf-8"?>
<!-- Generator: Adobe Illustrator 17.0.0, SVG Export Plug-In . SVG Version: 6.00 Build 0)  -->
<!DOCTYPE svg PUBLIC "-//W3C//DTD SVG 1.1//EN" "http://www.w3.org/Graphics/SVG/1.1/DTD/svg11.dtd">
<svg version="1.1" id="Слой_1" xmlns="http://www.w3.org/2000/svg" xmlns:xlink="http://www.w3.org/1999/xlink" x="0px" y="0px"
	 width="612px" height="792px" viewBox="0 0 612 792" enable-background="new 0 0 612 792" xml:space="preserve">
<title>shield</title>
<desc>Created with Sketch.</desc>
<g>
	<g>
		<g>
			<g>
				<g>
					<defs>
						<rect id="SVGID_1_" x="16.63" y="41.772" width="595.37" height="696.261"/>
					</defs>
					<clipPath id="SVGID_2_">
						<use xlink:href="#SVGID_1_"  overflow="visible"/>
					</clipPath>
					<path clip-path="url(#SVGID_2_)" fill="#57B36E" d="M578.739,506.315c-18.848,51-46.565,95.348-84.261,130.826
						c-42.13,41.022-97.565,74.283-164.087,97.565c-2.217,1.109-4.435,1.109-6.652,2.217c-3.326,1.109-6.652,1.109-8.87,1.109
						h-1.109c-3.326,0-6.652,0-9.978-1.109c-2.217,0-4.435-1.109-6.652-2.217c-66.522-23.283-121.957-56.543-164.087-97.565
						c-37.696-35.478-65.413-79.826-84.261-130.826c-34.37-92.022-32.152-194.022-29.935-274.957v-1.109
						c0-6.652,0-13.304,1.109-22.174c-1.109-37.696,29.935-69.848,68.739-72.065c79.826-4.435,141.913-31.043,195.13-82.043l0,0
						c8.87-7.761,19.957-12.196,31.043-12.196c11.087,0,21.065,4.435,29.935,12.196l0,0c53.217,52.109,115.304,77.609,195.13,82.043
						c38.804,2.217,68.739,34.37,69.848,72.065c0,7.761,0,14.413,1.109,22.174l0,0C610.891,312.293,613.109,414.293,578.739,506.315
						L578.739,506.315z"/>
				</g>
				<g>
					<defs>
						<rect id="SVGID_3_" x="16.63" y="41.772" width="595.37" height="696.261"/>
					</defs>
					<clipPath id="SVGID_4_">
						<use xlink:href="#SVGID_3_"  overflow="visible"/>
					</clipPath>
					<path clip-path="url(#SVGID_4_)" fill="#57B36E" d="M578.739,506.315c-18.848,51-46.565,95.348-84.261,130.826
						c-42.13,41.022-97.565,74.283-164.087,97.565c-2.217,1.109-4.435,1.109-6.652,2.217c-3.326,1.109-6.652,1.109-8.87,1.109
						V41.772c11.087,0,21.065,4.435,29.935,12.196l0,0c53.217,52.109,115.304,77.609,195.13,82.043
						c38.804,2.217,68.739,34.37,69.848,72.065c0,7.761,0,14.413,1.109,22.174l0,0C610.891,312.293,613.109,414.293,578.739,506.315
						L578.739,506.315z"/>
				</g>
			</g>
			<path fill="#FFFFFF" d="M487.826,389.902c0,95.348-77.609,172.956-172.957,172.956h-1.109
				c-95.348,0-172.957-77.609-172.957-172.956s77.609-172.957,172.957-172.957h1.109
				C410.217,216.946,487.826,294.554,487.826,389.902L487.826,389.902z"/>
			<path fill="#E1EBF0" d="M487.826,389.902c0,95.348-77.609,172.956-172.957,172.956V215.837
				C410.217,216.946,487.826,294.554,487.826,389.902L487.826,389.902z"/>
		</g>
	</g>
	<g>
		<g>
			<path fill="#848484" d="M421.304,384.359c-2.217,0-4.435-2.217-4.435-4.435v-11.087c0-56.543-46.565-103.109-103.109-103.109
				s-103.109,46.565-103.109,103.109v11.087c0,2.217-2.217,4.435-4.435,4.435c-2.217,0-4.435-2.217-4.435-4.435v-11.087
				c0-62.087,49.891-111.978,111.978-111.978s111.978,49.891,111.978,111.978v11.087
				C425.739,383.25,423.522,384.359,421.304,384.359z"/>
			<path fill="#848484" d="M416.87,434.25h-11.087c-2.217,0-4.435-2.217-4.435-4.435c0-2.217,2.217-4.435,4.435-4.435h11.087
				c3.326,0,5.543-2.217,5.543-5.543v-23.283c0-2.217,2.217-4.435,4.435-4.435s4.435,2.217,4.435,4.435v23.283
				C430.174,428.707,424.63,434.25,416.87,434.25z"/>
			<path fill="#CBCBCB" d="M282.717,437.576h60.978v52.109h-60.978V437.576z"/>
			<path fill="#E5E5E5" d="M404.674,417.62c1.109-3.326,1.109-6.652,1.109-11.087v-75.391c0-24.391-19.957-44.348-44.348-44.348
				h-95.348c-24.391,0-44.348,19.957-44.348,44.348v75.391c0,24.391,19.957,44.348,44.348,44.348h96.457
				c11.087,0,21.065-4.435,28.826-11.087"/>
			<path fill="#CBCBCB" d="M256.109,424.272v26.609c-19.956-4.435-34.37-22.174-34.37-43.239v-25.5
				C241.696,386.576,256.109,403.207,256.109,424.272z"/>
			<path fill="#CBCBCB" d="M405.783,382.141v25.5c0,3.326,0,7.761-1.109,11.087l-13.304,22.174
				c-5.543,4.435-12.196,7.761-18.848,9.978v-25.5C371.413,403.207,385.826,386.576,405.783,382.141z"/>
			<path fill="#FFFFFF" d="M301.565,354.424c0,15.522-12.196,28.826-28.826,28.826c-15.522,0-28.826-12.196-28.826-28.826
				c0-15.522,12.196-28.826,28.826-28.826C288.261,326.707,301.565,338.902,301.565,354.424z"/>
			<path fill="#FFFFFF" d="M383.609,354.424c0,15.522-12.196,28.826-28.826,28.826c-16.63,0-28.826-12.196-28.826-28.826
				c0-15.522,12.196-28.826,28.826-28.826C371.413,325.598,383.609,338.902,383.609,354.424z"/>
			<path fill="#444444" d="M272.739,365.511c-5.543,0-11.087-4.435-11.087-11.087c0-6.652,4.435-11.087,11.087-11.087
				c5.543,0,11.087,4.435,11.087,11.087C283.826,361.076,278.283,365.511,272.739,365.511z"/>
			<path fill="#444444" d="M354.783,365.511c-5.543,0-11.087-4.435-11.087-11.087c0-6.652,4.435-11.087,11.087-11.087
				c6.652,0,11.087,4.435,11.087,11.087C365.87,361.076,360.326,365.511,354.783,365.511z"/>
			<path fill="#444444" d="M245.022,430.924c0,6.652-5.543,12.196-12.196,12.196h-4.435c-6.652,0-12.196-5.543-12.196-12.196
				s5.543-12.196,12.196-12.196h4.435C239.478,417.62,245.022,423.163,245.022,430.924z"/>
			<g>
				<path fill="#7B7B7B" d="M297.13,405.424h12.196v46.565H297.13V405.424z"/>
				<path fill="#7B7B7B" d="M318.196,405.424h12.196v46.565h-12.196V405.424z"/>
				<path fill="#7B7B7B" d="M339.261,406.533v45.457h12.196v-28.826C351.457,414.293,347.022,407.641,339.261,406.533z"/>
				<path fill="#7B7B7B" d="M288.261,406.533c-6.652,2.217-12.196,8.87-12.196,16.63v28.826h12.196V406.533z"/>
			</g>
			<path fill="#686868" d="M221.739,347.772v43.239c0,6.652-4.435,12.196-11.087,14.413c-1.109,0-2.217,0-4.435,0h-5.543
				c-7.761,0-14.413-6.652-14.413-14.413v-43.239c0-7.761,6.652-14.413,14.413-14.413h5.543c1.109,0,2.217,0,4.435,0
				C217.304,335.576,221.739,341.12,221.739,347.772z"/>
			<path fill="#7B7B7B" d="M221.739,347.772v43.239c0,6.652-4.435,12.196-11.087,14.413c-6.652-2.217-11.087-7.761-11.087-14.413
				v-43.239c0-6.652,4.435-12.196,11.087-14.413C217.304,335.576,221.739,341.12,221.739,347.772z"/>
			<path fill="#686868" d="M441.261,347.772v43.239c0,6.652-4.435,12.196-11.087,14.413c-1.109,0-2.217,0-4.435,0h-5.543
				c-7.761,0-14.413-6.652-14.413-14.413v-43.239c0-7.761,6.652-14.413,14.413-14.413h5.543c1.109,0,2.217,0,4.435,0
				C436.826,335.576,441.261,341.12,441.261,347.772z"/>
			<path fill="#7B7B7B" d="M441.261,347.772v43.239c0,6.652-4.435,12.196-11.087,14.413c-6.652-2.217-11.087-7.761-11.087-14.413
				v-43.239c0-6.652,4.435-12.196,11.087-14.413C436.826,335.576,441.261,341.12,441.261,347.772z"/>
			<path fill="#444444" d="M398.022,417.62h4.435c6.652,0,12.196,5.543,12.196,12.196s-5.543,12.196-12.196,12.196h-4.435
				c-6.652,0-12.196-5.543-12.196-12.196C385.826,423.163,391.37,417.62,398.022,417.62z"/>
			<path fill="#848484" d="M199.565,420.946v-23.283c0-2.217,2.217-4.435,4.435-4.435c2.217,0,4.435,2.217,4.435,4.435v23.283
				c0,3.326,2.217,5.543,5.543,5.543h11.087c2.217,0,4.435,2.217,4.435,4.435s-2.217,4.435-4.435,4.435h-11.087
				C206.217,435.359,199.565,428.707,199.565,420.946z"/>
			<path fill="#CBCBCB" d="M402.456,504.098L402.456,504.098l-177.391,1.109v-1.109c0-15.522,12.196-28.826,28.826-28.826h120.848
				C389.152,475.272,402.456,488.576,402.456,504.098z"/>
			<path fill="#E5E5E5" d="M402.456,504.098L402.456,504.098l-144.13,1.109v-1.109c0-15.522,12.196-28.826,28.826-28.826h87.587
				C389.152,475.272,402.456,488.576,402.456,504.098z"/>
		</g>
	</g>
	<path fill="#E84C4F" d="M312.652,225.815c-88.696,0-160.761,72.065-160.761,160.761s72.065,160.761,160.761,160.761
		s160.761-72.065,160.761-160.761S401.348,225.815,312.652,225.815L312.652,225.815z M312.652,528.489
		c-77.609,0-141.913-63.196-141.913-141.913c0-34.37,13.304-67.63,35.478-93.13l199.565,199.565
		C379.174,515.185,347.022,528.489,312.652,528.489L312.652,528.489z M419.087,479.706L219.522,280.141
		c25.5-22.174,57.652-35.478,93.13-35.478c77.609,0,141.913,63.196,141.913,141.913
		C454.565,420.946,441.261,454.207,419.087,479.706L419.087,479.706z"/>
</g>
</svg>
