<?xml version="1.0" encoding="utf-8"?>
<!-- Generator: Adobe Illustrator 23.0.1, SVG Export Plug-In . SVG Version: 6.00 Build 0)  -->
<svg version="1.1" id="Слой_1" xmlns="http://www.w3.org/2000/svg" xmlns:xlink="http://www.w3.org/1999/xlink" x="0px" y="0px"
	 viewBox="0 0 230.1 57.2" style="enable-background:new 0 0 230.1 57.2;" xml:space="preserve">
<style type="text/css">
	.st0{fill:#3D88C8;}
	.st1{fill:#6F6F6E;}
	.st2{fill:#4EB594;}
	.st3{fill:#029E81;}
	.st4{fill:#057BAA;}
</style>
<g>
	<g>
		<g>
			<g>
				<path class="st0" d="M66.8,7.6c2.3,0,3.8,1.3,4.4,3c0.7,1.8,0.5,3.9-1.3,5.2c2.1,0.9,2.8,2.8,2.8,4.5c0,2.7-1.8,5.5-5.3,5.5
					h-8.3V7.6H66.8z M61.8,14.9h4.9c2.9,0,2.9-4.8,0.1-4.8h-5V14.9z M61.8,23.3h5.6c1.8,0,2.7-1.5,2.7-2.9c0-1.4-0.9-2.9-2.7-2.9
					h-5.6V23.3z"/>
				<path class="st0" d="M77.9,10.3c1.6-1.7,3.9-2.7,6.4-2.7c2.5,0,4.8,1,6.4,2.7c1.6,1.7,2.6,3.9,2.6,6.4s-1,4.8-2.6,6.4
					c-1.7,1.7-3.9,2.7-6.4,2.7c-2.5,0-4.8-1-6.4-2.7c-1.6-1.7-2.6-3.9-2.6-6.4S76.3,12,77.9,10.3z M89,12.1
					c-1.2-1.2-2.8-1.9-4.6-1.9c-1.8,0-3.4,0.7-4.6,1.9c-1.2,1.2-1.9,2.8-1.9,4.6s0.7,3.4,1.9,4.6c1.2,1.2,2.8,1.9,4.6,1.9
					c1.8,0,3.4-0.7,4.6-1.9c1.2-1.2,1.9-2.8,1.9-4.6C90.8,14.9,90.1,13.3,89,12.1z"/>
				<path class="st0" d="M101.4,25.9V10.1h-5.5V7.6h13.7v2.5H104v15.8H101.4z"/>
				<g>
					<path class="st1" d="M61.9,50.3h-2.6V32h10.9v2.6h-8.3v5.5h7.3v2.5h-7.3V50.3z"/>
					<path class="st1" d="M83.5,45.7h-7.4l-1.8,4.6h-2.8L78.8,32h1.9l7.3,18.3h-2.8L83.5,45.7z M77.1,43.2h5.5L79.8,36L77.1,43.2z"
						/>
					<path class="st1" d="M109.2,50.3h-2.8l-1.9-1.7c-4,2.6-9.3,2.1-12.1-1c-1.6-1.7-2.7-3.9-2.7-6.4c0-2.5,1-4.8,2.7-6.4
						c1.6-1.7,3.9-2.7,6.4-2.7c2.5,0,4.8,1,6.4,2.7c1.6,1.7,2.7,3.9,2.7,6.4c0,2.1-0.7,4-1.9,5.6l3.1,3V50.3z M98,42.4h3.1l3,2.8
						c0.8-1.1,1.2-2.5,1.2-4c0-1.8-0.8-3.4-1.9-4.6c-1.2-1.2-2.8-1.9-4.6-1.9c-1.8,0-3.4,0.7-4.6,1.9c-1.1,1.2-1.9,2.8-1.9,4.6
						c0,1.8,0.8,3.5,1.9,4.6c2.2,2.2,5.5,2.6,8.2,1l-4.5-4V42.4z M98,42.8v-0.4V42.8z"/>
					<path class="st1" d="M116,50.3V34.5h-5.5V32h13.7v2.5h-5.5v15.8H116z"/>
					<path class="st1" d="M129,34.7c1.6-1.7,3.9-2.7,6.4-2.7c2.5,0,4.8,1,6.4,2.7c1.6,1.7,2.6,3.9,2.6,6.4c0,2.5-1,4.8-2.6,6.4
						c-1.7,1.7-3.9,2.7-6.4,2.7c-2.5,0-4.8-1-6.4-2.7c-1.6-1.7-2.6-3.9-2.6-6.4C126.4,38.7,127.4,36.4,129,34.7z M140,36.6
						c-1.2-1.2-2.8-1.9-4.6-1.9c-1.8,0-3.4,0.7-4.6,1.9c-1.2,1.2-1.9,2.8-1.9,4.6s0.7,3.4,1.9,4.6c1.2,1.2,2.8,1.9,4.6,1.9
						c1.8,0,3.4-0.7,4.6-1.9c1.2-1.2,1.9-2.8,1.9-4.6S141.2,37.7,140,36.6z"/>
					<path class="st1" d="M151.1,41h3.1c2.2,0,3.3-1.6,3.3-3.2c0-1.6-1.1-3.2-3.3-3.2h-4.1v15.6h-2.6V32h6.7c4,0,6,2.9,6,5.8
						c0,2.6-1.6,5-4.7,5.6l5.8,6.9h-3.4l-6.7-8V41z"/>
				</g>
			</g>
		</g>
	</g>
	<g>
		<g>
			<path class="st2" d="M37.7,34.8c-4.8,5.8-10,12.1-13.4,15.6c-0.1,0-0.1-0.1-0.2-0.2c-1.7-1.5-3.8-3.5-6-5.8l-3.6,3.6
				c4.5,4.7,8.7,8.2,9.6,8.9c0.1,0.1,0.2,0.1,0.2,0.1s11.7-12.8,17.1-18.6L37.7,34.8z"/>
			<path class="st0" d="M24.1,10.4L9.2,16.2c0,0,1.3,9.9,4.6,16.5c2.9,5.8,9.6,12.4,10.3,12.8c0.7-0.4,7.7-7.4,10.6-13.2
				c3.3-6.6,4.3-16.1,4.3-16.1L24.1,10.4z"/>
			<path class="st0" d="M48,10.2L24.1,0.1L0.2,10.2c0,0-1.7,13.9,5.8,26.8c1.5,2.5,3.3,5,5.3,7.3l3.6-3.6c-1.7-2-3.3-4.2-4.5-6.3
				C6.1,27.2,5.2,19,5.1,14.4c2.1-1.2,17.2-7.3,19-8c1.7,0.7,16.9,6.8,19,8c-0.1,3.7-0.7,9.7-3.1,15.7l3.9,3.9
				C49.5,22,48,10.2,48,10.2z"/>
			<path class="st3" d="M41.4,38.5l-3.7-3.7c-4.8,5.8-10,12.1-13.4,15.6c-0.1,0,0,6.7,0,6.7S35.9,44.3,41.4,38.5z"/>
			<path class="st4" d="M40,30.1l3.9,3.9C49.5,22,48,10.2,48,10.2L24.1,0.1v6.3c1.7,0.7,16.9,6.8,19,8C43,18.1,42.4,24.1,40,30.1z"
				/>
			<path class="st4" d="M39,16.2c0,0-1,9.5-4.3,16.1c-2.9,5.8-9.9,12.8-10.6,13.2V10.4L39,16.2z"/>
		</g>
	</g>
</g>
</svg>
