<?xml version="1.0" encoding="utf-8"?>
<!-- Generator: Adobe Illustrator 23.0.0, SVG Export Plug-In . SVG Version: 6.00 Build 0)  -->
<svg version="1.1" id="Слой_1" xmlns="http://www.w3.org/2000/svg" xmlns:xlink="http://www.w3.org/1999/xlink" x="0px" y="0px"
	 viewBox="0 0 76.9 64.1" style="enable-background:new 0 0 76.9 64.1;" xml:space="preserve">
<style type="text/css">
	.st0{fill:#4C4C4C;}
	.st1{fill:#383838;}
	.st2{fill:#808080;}
	.st3{fill:#616161;}
	.st4{fill:#CCCCCC;}
	.st5{fill:#AEAEAE;}
	.st6{fill:#FFFFFF;}
	.st7{fill:#E1EBF0;}
	.st8{fill:#B2D0D6;}
	.st9{fill:#5C95E9;}
	.st10{fill:#F0F0F0;}
	.st11{fill:#E84C4F;}
	.st12{fill:#9FC5E6;}
	.st13{fill:#5897D1;}
	.st14{fill:#BC353C;}
	.st15{clip-path:url(#SVGID_2_);}
	.st16{fill:#ECF0F1;}
	.st17{fill:#D1D4D2;}
	.st18{clip-path:url(#SVGID_4_);}
</style>
<title>shield</title>
<desc>Created with Sketch.</desc>
<g>
	<g>
		<path class="st0" d="M74.8,0H47.9H4C2.9,0,1.9,0.9,1.9,2.1v38.4l36.8,5.3l38.1-5.3V2.1C76.9,0.9,76,0,74.8,0z"/>
		<path class="st1" d="M74.8,0H47.9L19.1,47.5h13.6H46h28.7c1.2,0,2.1-0.9,2.1-2.1v-5V2.1C76.9,0.9,76,0,74.8,0z"/>
		<polygon class="st2" points="46.1,46.5 47.7,59.5 31.2,59.5 32.7,46.5 		"/>
		<polygon class="st3" points="47.1,55.1 46.1,46.5 32.7,46.5 31.7,55.1 		"/>
		<path class="st4" d="M23.4,40.5H1.9v5c0,1.2,0.9,2.1,2.1,2.1h15.1h13.6H46h28.7c1.2,0,2.1-0.9,2.1-2.1v-5H23.4z"/>
		<path class="st5" d="M23.4,40.5l-4.3,7.1h55.7c1.2,0,2.1-0.9,2.1-2.1v-5H23.4L23.4,40.5z"/>
		<path class="st4" d="M53.5,60.3H25.3c-0.6,0-1.1-0.5-1.1-1.1s0.5-1.1,1.1-1.1h28.2c0.6,0,1.1,0.5,1.1,1.1S54.1,60.3,53.5,60.3z"/>
	</g>
	<g>
		<path class="st6" d="M25.6,51.2c0,7-5.7,12.8-12.7,12.8l0,0C5.7,64,0,58.3,0,51.2s5.7-12.8,12.8-12.8l0,0
			C19.9,38.4,25.6,44.2,25.6,51.2L25.6,51.2z"/>
		<path class="st7" d="M25.6,51.2c0,7-5.7,12.8-12.7,12.8V38.4C19.9,38.4,25.6,44.2,25.6,51.2L25.6,51.2z"/>
		<path class="st8" d="M18.5,48.9h-0.3v-1.6c0-2.9-2.3-5.3-5.2-5.4c-0.1,0-0.2,0-0.3,0c-2.9,0.1-5.2,2.5-5.2,5.4v1.6H7.2
			c-0.5,0-0.9,0.5-0.9,1.2v7.8c0,0.7,0.4,1.2,0.9,1.2h11.3c0.5,0,0.9-0.5,0.9-1.2v-7.8C19.4,49.5,19,48.9,18.5,48.9L18.5,48.9z
			 M13.9,54v2.4c0,0.3-0.2,0.5-0.5,0.5h-1.1c-0.3,0-0.5-0.2-0.5-0.5V54c-0.3-0.3-0.4-0.6-0.4-1c0-0.8,0.6-1.4,1.3-1.4
			c0.1,0,0.2,0,0.3,0c0.7,0,1.3,0.7,1.3,1.4C14.3,53.4,14.1,53.8,13.9,54L13.9,54z M15.9,48.9H9.7v-1.6c0-1.7,1.4-3.1,3.1-3.1
			s3.1,1.4,3.1,3.1V48.9z"/>
	</g>
</g>
<circle class="st9" cx="38.5" cy="20.3" r="18.9"/>
<circle class="st10" cx="38.5" cy="20.3" r="16.1"/>
<path class="st11" d="M38.5,32.5c-6.8,0-12.2-5.5-12.2-12.3S31.8,8,38.5,8s12.2,5.5,12.2,12.3C50.7,27,45.2,32.5,38.5,32.5z"/>
<path class="st10" d="M38.5,28.7c-4.7,0-8.4-3.8-8.4-8.4s3.8-8.4,8.4-8.4s8.4,3.8,8.4,8.4l0,0C46.9,24.9,43.1,28.7,38.5,28.7z"/>
<path class="st11" d="M38.5,24.8c-2.5,0-4.5-2.1-4.5-4.5s2.1-4.5,4.5-4.5s4.5,2.1,4.5,4.5C43,22.8,41,24.8,38.5,24.8z"/>
<path class="st12" d="M54,6.2L39.2,21.1c-0.4,0.4-1,0.4-1.5,0l0,0l0,0c-0.4-0.4-0.4-1,0-1.5l0,0L52.6,4.7L54,6.2z"/>
<path class="st13" d="M54,6.2L39.2,21.1c-0.4,0.4-1,0.4-1.5,0l0,0l0,0L53.3,5.5L54,6.2z"/>
<polygon class="st11" points="45.5,7.1 51.2,1.3 52.6,4.7 46.8,10.5 "/>
<polygon class="st14" points="46.8,5.7 47.7,4.9 49,8.3 48.1,9.2 "/>
<polygon class="st14" points="48.9,3.6 49.8,2.8 51.1,6.2 50.2,7.1 "/>
<polygon class="st11" points="54,6.2 48.3,11.9 51.7,13.3 57.4,7.6 "/>
<polygon class="st14" points="52.6,7.7 51.7,8.6 55.1,9.9 56,9.1 "/>
<polygon class="st14" points="50.5,9.8 49.6,10.7 53,12 53.9,11.2 "/>
<circle class="st6" cx="48.8" cy="28.9" r="10.3"/>
<path class="st9" d="M43,32.5l-0.4,0.2c-0.3,0.1-0.7,0-0.8-0.3l-0.6-1.3c-0.1-0.3,0-0.7,0.3-0.8c0,0,0,0,0,0l0.4-0.2L43,32.5z"/>
<g>
	<g>
		<defs>
			
				<rect id="SVGID_1_" x="41.1" y="22.2" transform="matrix(0.9058 -0.4237 0.4237 0.9058 -7.8349 23.5507)" width="15.8" height="14.5"/>
		</defs>
		<clipPath id="SVGID_2_">
			<use xlink:href="#SVGID_1_"  style="overflow:visible;"/>
		</clipPath>
		<g class="st15">
			<path class="st11" d="M47.2,31.8L44,33.1c-0.3,0.1-0.8,0-0.9-0.4L41.8,30c-0.1-0.3,0-0.7,0.3-0.8l3.2-1.7L47.2,31.8L47.2,31.8z"
				/>
			<path class="st16" d="M54,32.4l-5.8-0.1c-0.4,0-0.8-0.3-1-0.6l-1.9-4.1c-0.2-0.3-0.1-0.8,0.1-1.1l3.5-4.7c0.3-0.5,1-0.6,1.5-0.2
				c0.1,0.1,0.3,0.3,0.3,0.4l4.1,8.9c0.3,0.6,0,1.2-0.5,1.5C54.3,32.4,54.1,32.4,54,32.4"/>
		</g>
	</g>
</g>
<path class="st11" d="M52.6,25.1l-0.3,0.1l1.1,2.4l0.3-0.1c0.5-0.3,0.7-0.9,0.5-1.4L54,25.6C53.7,25.1,53.1,24.9,52.6,25.1
	L52.6,25.1"/>
<path class="st17" d="M55.6,27.2c-0.1,0-0.3,0-0.3-0.1c0,0,0-0.1,0-0.2c0.1-0.5,0-1-0.2-1.5s-0.6-0.8-1-1.1
	c-0.1-0.1-0.2-0.2-0.1-0.3c0.1-0.1,0.2-0.2,0.3-0.1l0,0c0.5,0.3,1,0.7,1.3,1.3c0.3,0.6,0.3,1.2,0.2,1.8
	C55.7,27.1,55.7,27.2,55.6,27.2"/>
<path class="st14" d="M44.3,32.9l0.4,0.9l0.7-0.3c0.1,0,0.3,0,0.3,0.1c0,0.1,0,0.3-0.1,0.3l-0.7,0.3l0.2,0.5l0.7-0.3
	c0.1,0,0.3,0,0.3,0.1c0,0.1,0,0.3-0.1,0.3l-0.7,0.3l0.2,0.5l0.7-0.3c0.1,0,0.3,0,0.3,0.2c0,0.1,0,0.3-0.1,0.3l-0.7,0.3l0.2,0.5
	l0.7-0.3c0.1-0.1,0.3,0,0.3,0.1c0.1,0.1,0,0.3-0.1,0.3h0l-0.7,0.3l0.1,0.1c0.2,0.4,0.8,0.7,1.3,0.4c0.4-0.2,0.6-0.7,0.4-1.2l-2-4.3
	L44.3,32.9z"/>
<path class="st11" d="M47.1,36.4c0-0.1-0.2-0.2-0.3-0.1l-0.7,0.3l0.2,0.5l0.7-0.3C47.1,36.7,47.2,36.6,47.1,36.4"/>
<path class="st11" d="M46.7,35.5c0-0.1-0.2-0.2-0.3-0.1l0,0l-0.7,0.3l0.2,0.5l0.7-0.3C46.7,35.8,46.7,35.6,46.7,35.5"/>
<path class="st11" d="M46.2,34.5c0-0.1-0.2-0.2-0.3-0.1l-0.7,0.3l0.2,0.5l0.7-0.3C46.2,34.8,46.3,34.7,46.2,34.5L46.2,34.5"/>
<g>
	<g>
		<defs>
			
				<rect id="SVGID_3_" x="41.1" y="22.2" transform="matrix(0.9058 -0.4237 0.4237 0.9058 -7.8349 23.5507)" width="15.8" height="14.5"/>
		</defs>
		<clipPath id="SVGID_4_">
			<use xlink:href="#SVGID_3_"  style="overflow:visible;"/>
		</clipPath>
		<g class="st18">
			<path class="st11" d="M45.7,33.6c0-0.1-0.2-0.2-0.3-0.1l0,0l-0.7,0.3l0.2,0.5l0.7-0.3C45.7,33.9,45.8,33.7,45.7,33.6L45.7,33.6"
				/>
			<path class="st9" d="M48.9,21.8l-0.3,0.4l4.8,10.2h0.6c0.6,0,1.1-0.5,1.1-1.1c0-0.2,0-0.3-0.1-0.5l-4.2-8.9
				c-0.3-0.6-0.9-0.8-1.4-0.5C49.2,21.5,49,21.6,48.9,21.8"/>
		</g>
	</g>
</g>
<path class="st6" d="M47.5,25.6c-0.1-0.1-0.3-0.1-0.4,0l-0.8,1c-0.2,0.3-0.3,0.7-0.1,1.1l0.3,0.5c0,0.1,0.2,0.2,0.3,0.1
	c0.1,0,0.2-0.2,0.1-0.3l-0.2-0.5c-0.1-0.2,0-0.4,0-0.5l0.8-1C47.7,25.9,47.7,25.7,47.5,25.6"/>
<path class="st6" d="M46.9,28.7c-0.1,0-0.2,0.2-0.1,0.3l0,0l0.2,0.5c0,0.1,0.2,0.2,0.3,0.1l0,0c0.1-0.1,0.2-0.2,0.1-0.3l-0.2-0.5
	C47.2,28.7,47.1,28.6,46.9,28.7L46.9,28.7"/>
</svg>
