<?xml version="1.0" encoding="utf-8"?>
<!-- Generator: Adobe Illustrator 23.0.1, SVG Export Plug-In . SVG Version: 6.00 Build 0)  -->
<svg version="1.1" id="Слой_1" xmlns="http://www.w3.org/2000/svg" xmlns:xlink="http://www.w3.org/1999/xlink" x="0px" y="0px"
	 viewBox="0 0 66.5 64.1" style="enable-background:new 0 0 66.5 64.1;" xml:space="preserve">
<style type="text/css">
	.st0{fill:#FBCB18;}
	.st1{fill:#DCB115;}
	.st2{fill:#434A54;}
	.st3{fill:#2B271C;}
	.st4{fill:#EEC73E;}
	.st5{fill:#FFFFFF;}
	.st6{fill:#E1EBF0;}
	.st7{fill:#B2D0D6;}
</style>
<title>shield</title>
<desc>Created with Sketch.</desc>
<g>
	<g>
		<path class="st0" d="M45.6,37.8c-0.6,0-1.4,0-2.3,0c0,1.4,0,2.9,0,4.3c-2.9,0-5.5,0-8.2,0c0-1.4,0-2.7,0-4.3c-1.1,0-2,0-2.9,0
			c0,4.9,0,9.7,0,14.6c-2.7,0-5.3,0-8.2,0c0-4.9,0-9.7,0-14.6c-1.1,0-2,0-2.9,0c0,4.9,0,9.7,0,14.6c-3,0-5.9,0-8.8,0
			c0-14.3,0-28.6,0-42.8c14.2,0,28.2,0,42.3,0c0,9.4,0,18.7,0,28.2C51.3,37.8,48.5,37.8,45.6,37.8z M42.7,17.1L42.7,17.1L42.7,17.1
			c-0.5-0.3-0.6-0.5-0.9-0.5c-5.9,0-11.7,0-17.7,0c-0.3,0-0.5,0.2-0.6,0.3c0,1.2,0,2.6,0,3.8c2.9,0,5.9,0.2,8.8,0.2
			c3.5,0,7,0,10.7,0C42.7,19.6,42.7,18.3,42.7,17.1z M23.2,25c0,1.2,0,2.4,0,3.7c0.2,0.2,0.3,0.3,0.6,0.3c3.2,0,6.5,0,9.9,0
			c3,0,6.1,0,9.4,0c-0.2-1.5-0.3-2.7-0.5-4c0,0,0-0.2-0.2-0.2c-0.2,0-0.3-0.3-0.6-0.3c-6.1,0-12,0-18.1,0C23.5,24.7,23.3,25,23.2,25
			z"/>
		<path class="st1" d="M45.6,37.8c2.9,0,5.9,0,8.8,0c1.2,3.8,2.4,7.8,3.8,11.7c-3,0-5.9,0-9,0C47.8,45.6,46.6,41.6,45.6,37.8z"/>
		<path class="st2" d="M23.2,28.8c0-1.2,0-2.4,0-3.7c6.4,0,12.8,0,19.2,0c0,0,0,0.2,0.2,0.2c0,1.2,0,2.3,0,3.5
			C36,28.8,29.6,28.8,23.2,28.8z"/>
		<path class="st3" d="M23.3,20.6c0-1.2,0-2.6,0-3.8c6.4,0,12.8,0,19,0l0,0c0,0,0,0.2,0,0.3c0,1.1,0,2,0,3c0,0.2,0,0.3-0.2,0.3
			C36,20.6,29.7,20.6,23.3,20.6z M23.5,20.2c6.2,0,12.3,0,18.6,0c0-0.9,0-2,0-2.9c-6.2,0-12.3,0-18.6,0
			C23.5,18.3,23.5,19.2,23.5,20.2z"/>
		<path class="st2" d="M23.2,28.8c6.4,0,12.8,0,19.3,0c0-1.2,0-2.4,0-3.5c0.2,1.2,0.3,2.4,0.5,4c-3.4,0-6.4,0-9.4,0
			c-3.2,0-6.5,0-9.9,0C23.5,29.1,23.3,28.8,23.2,28.8z"/>
		<path class="st4" d="M42.4,17c-6.4,0-12.8,0-19,0c0.3-0.2,0.5-0.3,0.6-0.3c5.9,0,11.7,0,17.7,0C41.9,16.7,42.1,16.8,42.4,17z"/>
		<path class="st4" d="M23.3,20.6c6.4,0,12.8,0,19,0c0-0.2,0-0.3,0.2-0.3c0-1.1,0-2,0-3c0,0,0,0,0.2,0c0,1.2,0.2,2.3,0.3,3.7
			c-3.7,0-7.2,0-10.7,0C29.1,20.8,26.2,20.8,23.3,20.6z"/>
		<path class="st4" d="M42.4,25c-6.4,0-12.8,0-19.2,0c0.2-0.2,0.3-0.3,0.6-0.3c6.1,0,12,0,18.1,0C42.1,24.7,42.2,25,42.4,25z"/>
		<path class="st1" d="M42.7,17.1C42.5,17.1,42.5,17.1,42.7,17.1C42.5,17.1,42.5,17.1,42.7,17.1C42.5,17.1,42.5,17.1,42.7,17.1z"/>
		<path class="st2" d="M23.5,20.2c0-0.9,0-2,0-2.9c6.2,0,12.3,0,18.6,0c0,0.9,0,2,0,2.9C36,20.2,29.7,20.2,23.5,20.2z"/>
		<path class="st1" d="M42.5,20.3c0,0.2,0,0.3-0.2,0.3C42.4,20.5,42.5,20.3,42.5,20.3z"/>
	</g>
	<g>
		<path class="st5" d="M25,51.5C25,58.4,19.4,64,12.5,64l0,0C5.6,64,0,58.4,0,51.5S5.6,39,12.5,39l0,0C19.4,39.1,25,44.7,25,51.5
			L25,51.5z"/>
		<path class="st6" d="M25,51.5C25,58.4,19.4,64,12.5,64V39C19.4,39.1,25,44.7,25,51.5L25,51.5z"/>
		<path class="st7" d="M18,49.3h-0.3v-1.5c0-2.8-2.2-5.2-5-5.2c-0.1,0-0.2,0-0.3,0c-2.8,0.1-5,2.4-5,5.2v1.5H7
			c-0.5,0-0.9,0.5-0.9,1.2v7.7c0,0.6,0.4,1.2,0.9,1.2h11c0.5,0,0.9-0.5,0.9-1.2v-7.7C19,49.8,18.5,49.3,18,49.3L18,49.3z M13.6,54.3
			v2.3c0,0.3-0.2,0.5-0.5,0.5H12c-0.3,0-0.5-0.2-0.5-0.5v-2.3c-0.3-0.3-0.4-0.6-0.4-1c0-0.7,0.6-1.4,1.3-1.4c0.1,0,0.2,0,0.3,0
			c0.7,0,1.3,0.7,1.3,1.4C14,53.7,13.8,54,13.6,54.3L13.6,54.3z M15.6,49.3H9.5v-1.5c0-1.7,1.4-3.1,3-3.1c1.7,0,3,1.4,3,3.1v1.5
			H15.6z"/>
	</g>
</g>
</svg>
