<?xml version="1.0" encoding="utf-8"?>
<!-- Generator: Adobe Illustrator 23.0.1, SVG Export Plug-In . SVG Version: 6.00 Build 0)  -->
<svg version="1.1" id="Слой_1" xmlns="http://www.w3.org/2000/svg" xmlns:xlink="http://www.w3.org/1999/xlink" x="0px" y="0px"
	 viewBox="0 0 78.9 78.5" style="enable-background:new 0 0 78.9 78.5;" xml:space="preserve">
<style type="text/css">
	.st0{fill:#6695E2;}
	.st1{fill:#FFFFFF;}
</style>
<g>
	<g>
		<ellipse class="st0" cx="39.9" cy="39.8" rx="36.9" ry="36.7"/>
		<ellipse class="st1" cx="39.9" cy="39.8" rx="33" ry="32.9"/>
		<ellipse class="st0" cx="39.9" cy="39.8" rx="26.3" ry="26.2"/>
	</g>
	<g>
		<path class="st1" d="M37,37.3h2.3c1.2,0,2.1-0.3,2.8-0.9c0.7-0.6,1-1.4,1-2.6c0-1.1-0.3-1.9-0.8-2.5c-0.6-0.6-1.4-0.9-2.6-0.9
			c-1,0-1.8,0.3-2.5,0.9c-0.7,0.6-1,1.3-1,2.3h-3.8c0-1.2,0.3-2.2,0.9-3.2c0.6-1,1.5-1.7,2.6-2.2c1.1-0.5,2.3-0.8,3.7-0.8
			c2.3,0,4,0.6,5.3,1.7c1.3,1.1,1.9,2.7,1.9,4.7c0,1-0.3,2-1,2.9s-1.5,1.6-2.5,2c1.2,0.4,2.2,1.1,2.8,2c0.6,0.9,1,2,1,3.3
			c0,2-0.7,3.6-2.1,4.8c-1.4,1.2-3.2,1.8-5.5,1.8c-2.2,0-4-0.6-5.3-1.7c-1.4-1.2-2.1-2.7-2.1-4.6h3.8c0,1,0.3,1.8,1,2.4
			s1.6,0.9,2.7,0.9c1.2,0,2.1-0.3,2.8-0.9c0.7-0.6,1-1.5,1-2.7c0-1.2-0.4-2.1-1.1-2.7c-0.7-0.6-1.7-1-3.1-1H37V37.3z"/>
	</g>
</g>
</svg>
