<?xml version="1.0" encoding="utf-8"?>
<!-- Generator: Adobe Illustrator 23.0.0, SVG Export Plug-In . SVG Version: 6.00 Build 0)  -->
<svg version="1.1" id="Слой_1" xmlns="http://www.w3.org/2000/svg" xmlns:xlink="http://www.w3.org/1999/xlink" x="0px" y="0px"
	 viewBox="0 0 78.9 78.5" style="enable-background:new 0 0 78.9 78.5;" xml:space="preserve">
<style type="text/css">
	.st0{fill:#6695E2;}
	.st1{fill:#FFFFFF;}
	.st2{clip-path:url(#SVGID_2_);fill:#FFFFFF;}
</style>
<g>
	<g>
		<ellipse class="st0" cx="39.5" cy="39.4" rx="38.6" ry="38.4"/>
		<ellipse class="st1" cx="39.5" cy="39.4" rx="34.5" ry="34.3"/>
		<ellipse class="st0" cx="39.5" cy="39.4" rx="26.5" ry="26.4"/>
	</g>
	<g>
		<g>
			<g>
				<defs>
					<rect id="SVGID_1_" x="21.3" y="21" width="36.4" height="36.5"/>
				</defs>
				<clipPath id="SVGID_2_">
					<use xlink:href="#SVGID_1_"  style="overflow:visible;"/>
				</clipPath>
				<path class="st2" d="M39.5,32.6c-3.6,0-6.6,3-6.6,6.6s3,6.6,6.6,6.6s6.6-3,6.6-6.6C46.2,35.6,43.2,32.6,39.5,32.6L39.5,32.6z
					 M54.3,37.6c-0.8-6.9-6.3-12.4-13.1-13.1V21h-3.3v3.5c-6.9,0.7-12.4,6.1-13.1,13.1h-3.5v3.3h3.5c0.8,6.9,6.3,12.4,13.1,13.1v3.5
					h3.3V54c6.9-0.8,12.4-6.3,13.1-13.1h3.5v-3.3C57.8,37.6,54.3,37.6,54.3,37.6z M39.5,50.8c-6.5,0-11.6-5.1-11.6-11.6
					S33,27.6,39.5,27.6s11.6,5.1,11.6,11.6S46,50.8,39.5,50.8L39.5,50.8z"/>
			</g>
		</g>
	</g>
</g>
</svg>
