<?xml version="1.0" encoding="utf-8"?>
<!-- Generator: Adobe Illustrator 23.0.0, SVG Export Plug-In . SVG Version: 6.00 Build 0)  -->
<svg version="1.1" id="Слой_1" xmlns="http://www.w3.org/2000/svg" xmlns:xlink="http://www.w3.org/1999/xlink" x="0px" y="0px"
	 viewBox="0 0 78.9 78.5" style="enable-background:new 0 0 78.9 78.5;" xml:space="preserve">
<style type="text/css">
	.st0{fill:#6695E2;}
	.st1{fill:#FFFFFF;}
	.st2{clip-path:url(#SVGID_2_);fill:#FFFFFF;}
	.st3{clip-path:url(#SVGID_4_);fill:#FFFFFF;}
</style>
<g>
	<g>
		<ellipse class="st0" cx="39.6" cy="39.4" rx="38.6" ry="38.4"/>
		<ellipse class="st1" cx="39.6" cy="39.4" rx="34.5" ry="34.3"/>
		<ellipse class="st0" cx="39.6" cy="39.4" rx="26.5" ry="26.4"/>
	</g>
	<g>
		<path class="st1" d="M25.9,46.3v5.1c0,0.3,0.3,0.6,0.6,0.6h4c0.3,0,0.6-0.3,0.6-0.6v-9l-2.9,2.9C27.5,45.9,26.7,46.2,25.9,46.3
			L25.9,46.3z"/>
		<path class="st1" d="M32.9,42.3v9.1c0,0.3,0.3,0.6,0.6,0.6h4c0.3,0,0.6-0.3,0.6-0.6v-5.3c-0.9,0-1.7-0.4-2.4-1L32.9,42.3z"/>
		<path class="st1" d="M40,45.5v5.9c0,0.3,0.3,0.6,0.6,0.6h4c0.3,0,0.6-0.3,0.6-0.6V40.5L40.6,45C40.4,45.2,40.2,45.4,40,45.5
			L40,45.5z"/>
		<g>
			<g>
				<defs>
					<rect id="SVGID_1_" x="23.7" y="25.1" width="31.6" height="27"/>
				</defs>
				<clipPath id="SVGID_2_">
					<use xlink:href="#SVGID_1_"  style="overflow:visible;"/>
				</clipPath>
				<path class="st2" d="M51.8,33.8l-4.7,4.7v12.9c0,0.3,0.3,0.6,0.6,0.6h4c0.3,0,0.6-0.3,0.6-0.6V34.2C52.1,34.1,52,34,51.8,33.8
					L51.8,33.8z"/>
			</g>
			<g>
				<defs>
					<rect id="SVGID_3_" x="23.7" y="25.1" width="31.6" height="27"/>
				</defs>
				<clipPath id="SVGID_4_">
					<use xlink:href="#SVGID_3_"  style="overflow:visible;"/>
				</clipPath>
				<path class="st3" d="M55,25.5c-0.2-0.2-0.5-0.3-0.8-0.3h-0.1c-1.8,0.1-3.7,0.2-5.5,0.3c-0.2,0-0.6,0-0.8,0.3
					c-0.1,0.1-0.1,0.2-0.2,0.3c-0.3,0.6,0.1,1,0.3,1.2l0.5,0.5c0.3,0.3,0.6,0.6,1,1L38.1,39.7l-5-5c-0.3-0.3-0.7-0.5-1.1-0.5
					s-0.8,0.2-1.1,0.5l-6.7,6.7c-0.6,0.6-0.6,1.6,0,2.3l0.3,0.3c0.3,0.3,0.7,0.5,1.1,0.5s0.8-0.2,1.1-0.5l5.2-5.2l5,5
					c0.3,0.3,0.7,0.5,1.1,0.5c0.4,0,0.8-0.2,1.1-0.5l12.6-12.6l1.4,1.4c0.2,0.2,0.4,0.4,0.8,0.4c0.1,0,0.3,0,0.5-0.1
					c0.1-0.1,0.2-0.1,0.3-0.2c0.3-0.4,0.3-0.7,0.3-1c0.1-1.2,0.1-2.4,0.2-3.6l0.1-1.8C55.3,26,55.2,25.7,55,25.5L55,25.5z"/>
			</g>
		</g>
	</g>
</g>
</svg>
