<?xml version="1.0" encoding="utf-8"?>
<!-- Generator: Adobe Illustrator 23.0.0, SVG Export Plug-In . SVG Version: 6.00 Build 0)  -->
<svg version="1.1" id="Слой_1" xmlns="http://www.w3.org/2000/svg" xmlns:xlink="http://www.w3.org/1999/xlink" x="0px" y="0px"
	 viewBox="0 0 78.9 78.5" style="enable-background:new 0 0 78.9 78.5;" xml:space="preserve">
<style type="text/css">
	.st0{fill:#6695E2;}
	.st1{fill:#FFFFFF;}
	.st2{clip-path:url(#SVGID_2_);fill:#FFFFFF;}
	.st3{clip-path:url(#SVGID_4_);fill:#FFFFFF;}
	.st4{clip-path:url(#SVGID_6_);fill:#FFFFFF;}
</style>
<g>
	<g>
		<ellipse class="st0" cx="39.5" cy="39.4" rx="38.6" ry="38.4"/>
		<ellipse class="st1" cx="39.5" cy="39.4" rx="34.5" ry="34.3"/>
		<ellipse class="st0" cx="39.5" cy="39.4" rx="26.5" ry="26.4"/>
	</g>
	<g>
		<path class="st1" d="M52.7,36.9L39.9,24.1c-0.8-0.8-2-0.7-2.7,0c-0.7,0.8-0.7,2,0,2.7L50,39.6c0.7,0.7,2,0.7,2.7,0
			C53.4,38.9,53.4,37.7,52.7,36.9L52.7,36.9z"/>
		<g>
			<g>
				<defs>
					<rect id="SVGID_1_" x="24.7" y="23.3" width="29" height="32.9"/>
				</defs>
				<clipPath id="SVGID_2_">
					<use xlink:href="#SVGID_1_"  style="overflow:visible;"/>
				</clipPath>
				<path class="st2" d="M36.2,28.6l-0.1,0.5c-0.7,3.4-2.3,6.6-4.6,9.2l7,7c2.6-2.2,5.8-3.9,9.2-4.6l0.5-0.1L36.2,28.6z"/>
			</g>
			<g>
				<defs>
					<rect id="SVGID_3_" x="24.7" y="23.3" width="29" height="32.9"/>
				</defs>
				<clipPath id="SVGID_4_">
					<use xlink:href="#SVGID_3_"  style="overflow:visible;"/>
				</clipPath>
				<path class="st3" d="M30.3,39.8l-4.8,4.8c-1.1,1.1-1.1,3,0,4.1l2.7,2.7c1.1,1.1,3,1.1,4.1,0l4.8-4.8L30.3,39.8z M31,47.2
					c-0.4,0.4-1,0.4-1.4,0s-0.4-1,0-1.4l1.4-1.4c0.4-0.4,1-0.4,1.4,0s0.4,1,0,1.4L31,47.2z"/>
			</g>
			<g>
				<defs>
					<rect id="SVGID_5_" x="24.7" y="23.3" width="29" height="32.9"/>
				</defs>
				<clipPath id="SVGID_6_">
					<use xlink:href="#SVGID_5_"  style="overflow:visible;"/>
				</clipPath>
				<path class="st4" d="M41.1,51.8l1.3-1.3c1.1-1.1,1.1-3,0-4.1l-1-1c-0.5,0.4-1,0.8-1.5,1.2l1.2,1.2c0.4,0.4,0.4,1,0,1.4l-1.3,1.3
					l-2-1.9L35,51.3l4.4,4.2c0.7,0.7,2,0.8,2.7,0c0.8-0.8,0.8-2,0-2.7L41.1,51.8z"/>
			</g>
		</g>
		<path class="st1" d="M45,23.3c-0.5,0-1,0.4-1,1v1.9c0,0.5,0.4,1,1,1s1-0.4,1-1v-1.9C45.9,23.7,45.5,23.3,45,23.3L45,23.3z"/>
		<path class="st1" d="M52.7,31h-1.9c-0.5,0-1,0.4-1,1c0,0.5,0.4,1,1,1h1.9c0.5,0,1-0.4,1-1C53.6,31.4,53.2,31,52.7,31L52.7,31z"/>
		<path class="st1" d="M51.4,25.5c-0.4-0.4-1-0.4-1.4,0l-1.9,1.9c-0.4,0.4-0.4,1,0,1.4s1,0.4,1.4,0l1.9-1.9
			C51.8,26.5,51.8,25.9,51.4,25.5L51.4,25.5z"/>
	</g>
</g>
</svg>
