<?xml version="1.0" encoding="utf-8"?>
<!-- Generator: Adobe Illustrator 23.0.1, SVG Export Plug-In . SVG Version: 6.00 Build 0)  -->
<svg version="1.1" id="Слой_1" xmlns="http://www.w3.org/2000/svg" xmlns:xlink="http://www.w3.org/1999/xlink" x="0px" y="0px"
	 viewBox="0 0 78.9 78.5" style="enable-background:new 0 0 78.9 78.5;" xml:space="preserve">
<style type="text/css">
	.st0{fill:#6695E2;}
	.st1{fill:#FFFFFF;}
</style>
<g>
	<g>
		<ellipse class="st0" cx="39.9" cy="39.8" rx="36.9" ry="36.7"/>
		<ellipse class="st1" cx="39.9" cy="39.8" rx="33" ry="32.9"/>
		<ellipse class="st0" cx="39.9" cy="39.8" rx="26.3" ry="26.2"/>
	</g>
	<g>
		<path class="st1" d="M47.8,50.4H32.6v-2.6l7.5-8.2c1.1-1.2,1.9-2.2,2.3-3c0.5-0.8,0.7-1.6,0.7-2.4c0-1.1-0.3-1.9-0.9-2.6
			c-0.6-0.7-1.4-1-2.4-1c-1.2,0-2.2,0.4-2.8,1.1c-0.7,0.7-1,1.8-1,3.1h-3.8c0-1.4,0.3-2.6,0.9-3.7c0.6-1.1,1.5-2,2.7-2.6
			c1.2-0.6,2.5-0.9,4-0.9c2.2,0,3.9,0.6,5.2,1.7c1.3,1.1,1.9,2.6,1.9,4.6c0,1.1-0.3,2.3-1,3.6c-0.6,1.2-1.7,2.6-3.1,4.2l-5.5,5.9
			h10.5V50.4z"/>
	</g>
</g>
</svg>
