<?xml version="1.0" encoding="utf-8"?>
<!-- Generator: Adobe Illustrator 23.0.1, SVG Export Plug-In . SVG Version: 6.00 Build 0)  -->
<svg version="1.1" id="Слой_1" xmlns="http://www.w3.org/2000/svg" xmlns:xlink="http://www.w3.org/1999/xlink" x="0px" y="0px"
	 viewBox="0 0 78.9 78.5" style="enable-background:new 0 0 78.9 78.5;" xml:space="preserve">
<style type="text/css">
	.st0{fill:#FF4949;}
	.st1{fill:#FFFFFF;}
</style>
<g>
	<g>
		<path class="st0" d="M39.5,1C18.2,1,0.9,18.2,0.9,39.4c0,21.2,17.3,38.4,38.6,38.4s38.6-17.2,38.6-38.4C78.1,18.2,60.8,1,39.5,1z
			 M39.5,73.7C20.4,73.7,5,58.3,5,39.4C5,20.5,20.4,5.1,39.5,5.1S74,20.5,74,39.4C74,58.3,58.6,73.7,39.5,73.7z"/>
		<ellipse class="st0" cx="39.5" cy="39.4" rx="26.5" ry="26.4"/>
		<g>
			<path class="st1" d="M31.3,32.2c-0.9-1.5-1.7-3-2.6-4.4c-1.9-0.2-2.7-0.8-2.8-1.9c-0.1-1,0.3-1.9,1.2-2.3
				c0.9-0.4,1.9-0.2,2.6,0.5c0.7,0.8,0.7,1.7-0.1,3.1c1,1.7,2,3.4,2.9,5.1c4.7,0,9.2,0,13.8,0c1-1.7,2-3.4,2.9-5
				c-0.7-1.5-0.7-2.6,0.1-3.3c0.7-0.6,1.7-0.7,2.5-0.3c0.9,0.4,1.3,1.4,1.1,2.5c-0.2,1-1,1.5-2.8,1.6c-0.8,1.4-1.7,2.9-2.6,4.5
				c0.5,0.1,0.8,0.1,1.1,0.1c2.5,0.1,4.6,2.6,4.5,4.9c-0.1,4.4,0,8.8,0,13.2c0,2.6-2.1,4.8-4.7,4.9c-1,0-2,0-3.1,0
				c-4.9,0-9.7,0-14.6,0c-2.5,0-4.5-1.6-5-4c-0.1-0.5-0.1-1.1-0.1-1.6c0-3.9,0-7.9,0-11.8c0-1,0.1-2,0.6-2.9c0.8-1.5,2-2.4,3.7-2.6
				C30.4,32.4,30.8,32.3,31.3,32.2z M32.8,49.7c1.2,0,2.3,0,3.4,0s2.2,0,3.3,0c1.1,0,2.3,0,3.4,0c1.1,0,2.2,0.1,3.3-0.1
				c0-0.9,0-1.5,0-2.3c-4.5,0-8.9,0-13.4,0C32.8,48.1,32.8,48.8,32.8,49.7z M36.3,40.7c0-1.4-1.1-2.5-2.6-2.5c-1.2,0-2.2,1-2.3,2.4
				c0,1.3,1.2,2.6,2.4,2.6C35,43.1,36.3,41.9,36.3,40.7z M47.5,40.5c0-1.3-1-2.2-2.5-2.3c-1.2,0-2.3,1.1-2.4,2.3
				c0,1.3,1.1,2.4,2.4,2.4C46.4,43,47.4,41.9,47.5,40.5z"/>
			<path class="st1" d="M54.3,38.2c1.7-0.1,3.3,1.4,3.4,3.2c0.1,1.8-1.3,3.3-3.4,3.4C54.3,42.6,54.3,40.5,54.3,38.2z"/>
			<path class="st1" d="M24.6,38c0,2.3,0,4.5,0,6.8c-1.9,0-3.2-1.1-3.3-2.6C21.1,39.9,22.3,38.5,24.6,38z"/>
		</g>
	</g>
</g>
</svg>
