<?xml version="1.0" encoding="utf-8"?>
<!-- Generator: Adobe Illustrator 23.0.0, SVG Export Plug-In . SVG Version: 6.00 Build 0)  -->
<svg version="1.1" id="Слой_1" xmlns="http://www.w3.org/2000/svg" xmlns:xlink="http://www.w3.org/1999/xlink" x="0px" y="0px"
	 viewBox="0 0 350.8 354.9" style="enable-background:new 0 0 350.8 354.9;" xml:space="preserve">
<style type="text/css">
	.st0{fill:#FBCB18;}
</style>
<path class="st0" d="M323.6,273.1c1.6-2.5,3.2-5,4.7-7.6c15.7-26.9,23.5-56.2,23.5-88.1c0-31.8-7.8-61.2-23.5-88.1
	c-15.7-26.9-37-48.2-63.8-63.8C237.6,9.9,208.2,2,176.4,2c-31.8,0-61.2,7.8-88.1,23.5c-26.9,15.7-48.2,37-63.8,63.8
	C8.8,116.3,1,145.6,1,177.4c0,31.8,7.8,61.2,23.5,88.1c15.7,26.9,37,48.1,63.8,63.8c26.9,15.7,56.2,23.5,88.1,23.5
	c23.8,0,46.3-4.4,67.3-13.2c7.1-3,14-6.4,20.8-10.3c9.2-5.3,78.4,22.5,78.4,22.5S314.2,287.6,323.6,273.1z M190.6,289.1
	c-4.4,4.3-10.3,6.4-17.6,6.4c-7.3,0-13.1-2.1-17.6-6.4c-4.4-4.3-6.6-9.7-6.6-16.2c0-6.7,2.3-12.1,6.8-16.5
	c4.5-4.3,10.3-6.5,17.4-6.5c7.1,0,12.9,2.2,17.4,6.5c4.5,4.3,6.8,9.8,6.8,16.5C197.3,279.5,195.1,284.9,190.6,289.1z M237,155.9
	c-3.8,7.5-10.4,15.9-19.9,25.1l-12.1,11.5c-7.6,7.3-11.9,15.8-13,25.6l-0.6,9.1h-38.3c0-14,1.7-25.1,5.1-33.4
	c3.4-8.3,9.6-16.4,18.6-24.5c9-8,15-14.6,18-19.6s4.5-10.4,4.5-15.9c0-16.9-7.8-25.3-23.3-25.3c-7.4,0-13.3,2.3-17.7,6.8
	c-4.4,4.5-6.7,10.8-6.9,18.8h-43.3c0.2-19,6.4-33.9,18.5-44.7c12.1-10.8,28.6-16.2,49.5-16.2c21.1,0,37.5,5.1,49.2,15.3
	c11.7,10.2,17.5,24.7,17.5,43.3C242.7,140.3,240.8,148.3,237,155.9z"/>
</svg>
