<?xml version="1.0" encoding="utf-8"?>
<!-- Generator: Adobe Illustrator 23.0.1, SVG Export Plug-In . SVG Version: 6.00 Build 0)  -->
<svg version="1.1" id="Слой_1" xmlns="http://www.w3.org/2000/svg" xmlns:xlink="http://www.w3.org/1999/xlink" x="0px" y="0px"
	 viewBox="0 0 350.8 350.7" style="enable-background:new 0 0 350.8 350.7;" xml:space="preserve">
<style type="text/css">
	.st0{fill:#CCCBCB;}
</style>
<g>
	<path class="st0" d="M202.8,160.3c-6.3-0.2-12.2,5.7-12.5,12.2c-0.2,6.6,5.5,12.5,12.5,12.7c7.5,0,13.1-5.5,13.2-13.1
		C216.2,165.3,210.7,160.4,202.8,160.3z"/>
	<path class="st0" d="M157.5,173.1c0-7.5-5.5-13.2-13.4-13.2c-6.4-0.2-11.6,5.4-11.8,12.3c-0.2,6.8,6.3,13.8,12.3,13.6
		C151.1,185.7,157.5,179.4,157.5,173.1z"/>
	<path class="st0" d="M139.4,220.4c6.3,0,12,0,17.7,0c5.7,0,11.5,0,17.2,0c5.9,0,12,0.2,17.9,0c5.5-0.2,11.3,0.5,17-0.5
		c0-4.5,0-8.1,0-12c-23.4,0-46.5,0-69.8,0C139.4,212,139.4,215.6,139.4,220.4z"/>
	<path class="st0" d="M322.6,271.1c1.6-2.5,3.2-5,4.7-7.6c15.7-26.9,23.5-56.2,23.5-88c0-31.8-7.8-61.2-23.5-88.1
		s-37-48.2-63.8-63.8C236.6,7.9,207.2,0,175.4,0c-31.8,0-61.2,7.8-88.1,23.5c-26.9,15.7-48.2,37-63.8,63.8
		C7.8,114.3,0,143.6,0,175.4s7.8,61.2,23.5,88c15.7,26.9,37,48.1,63.8,63.8c26.9,15.7,56.2,23.5,88.1,23.5
		c23.8,0,46.3-4.4,67.3-13.2c7.1-3,14-6.4,20.8-10.3c9.2-5.3,78.4,22.5,78.4,22.5S313.2,285.6,322.6,271.1z M96.8,194.4
		c-9.8-0.2-16.6-5.7-17.4-13.8c-0.9-11.6,5-19.1,17.4-21.5C96.8,171.4,96.8,182.8,96.8,194.4z M245.7,224.5
		c0,13.8-10.9,24.9-24.7,25.4c-5.4,0.2-10.6,0-15.9,0c-25.4,0-50.8,0-76.2,0c-13.2,0-23.6-8.2-26.1-20.9c-0.5-2.9-0.7-5.7-0.7-8.6
		c0-20.6,0-41.2,0-61.7c0-5.4,0.7-10.6,3.2-15.4c4.1-7.7,10.6-12.3,19.3-13.4c2.1,0,4.3-0.4,7-0.9c-4.7-8.1-9.1-15.7-13.4-23.1
		c-9.7-1.1-14-3.9-14.9-9.8c-0.7-5.2,1.6-10,6.1-12.2c4.5-2.1,10-1.1,13.4,2.7c3.8,4.1,3.8,9.1-0.4,16.1c5,8.8,10.2,17.7,15.4,26.7
		c24.3,0,48.1,0,72.1,0c5.2-8.9,10.2-17.7,15.2-26.3c-3.8-7.7-3.6-13.6,0.5-17.4c3.4-3,8.9-3.8,13.1-1.6c4.5,2.3,6.6,7.5,5.5,13.1
		c-1.1,5.4-5.2,7.9-14.5,8.6c-4.3,7.5-8.8,15.2-13.4,23.4c2.5,0.4,4.1,0.5,5.9,0.7c12.9,0.5,23.8,13.4,23.6,25.8
		C245.6,178.5,245.9,201.6,245.7,224.5z M251.5,194.6c0-11.5,0-22.7,0-34.5c9.1-0.4,17.4,7.5,17.9,16.8
		C269.9,186.4,262.4,194.1,251.5,194.6z"/>
</g>
</svg>
