<?xml version="1.0" encoding="utf-8"?>
<!-- Generator: Adobe Illustrator 23.0.1, SVG Export Plug-In . SVG Version: 6.00 Build 0)  -->
<svg version="1.1" id="Слой_1" xmlns="http://www.w3.org/2000/svg" xmlns:xlink="http://www.w3.org/1999/xlink" x="0px" y="0px"
	 viewBox="0 0 350.8 354.9" style="enable-background:new 0 0 350.8 354.9;" xml:space="preserve">
<style type="text/css">
	.st0{fill:#5C95E9;}
</style>
<path class="st0" d="M322.6,271.9c1.6-2.5,3.2-5,4.7-7.6c15.7-26.9,23.5-56.2,23.5-88.1c0-31.8-7.8-61.2-23.5-88.1
	c-15.7-26.9-37-48.2-63.8-63.8C236.6,8.6,207.2,0.8,175.4,0.8c-31.8,0-61.2,7.8-88.1,23.5C60.5,40,39.2,61.3,23.5,88.1
	C7.8,115,0,144.4,0,176.2s7.8,61.2,23.5,88.1c15.7,26.9,37,48.1,63.8,63.8c26.9,15.7,56.2,23.5,88.1,23.5c23.8,0,46.3-4.4,67.3-13.2
	c7.1-3,14-6.4,20.8-10.3c9.2-5.3,78.4,22.5,78.4,22.5S313.2,286.4,322.6,271.9z M176.1,288.5c0,0-0.2-0.2-0.7-0.5
	c-3.4-2.7-19.6-16.1-36.7-34l13.8-13.8c8.3,8.7,16.5,16.4,22.9,22.1c0.2,0.2,0.4,0.4,0.7,0.6c13-13.4,33-37.7,51.4-60l14.2,14.2
	C220.8,239.4,176.1,288.5,176.1,288.5z M135.7,195.1c-12.7-25.5-17.5-63.3-17.5-63.3l57.2-22.6l57.2,22.6c0,0-3.7,36.3-16.4,61.8
	c-11.1,22.2-38.1,49-40.8,50.6C172.7,242.6,146.8,217.3,135.7,195.1z M251.3,199.9L236.4,185c9.3-23,11.6-46.2,11.9-60.3
	c-8.1-4.5-66.2-27.9-72.9-30.6v0c-6.7,2.7-64.8,26.1-72.9,30.6c0.4,17.6,3.9,49.2,20.1,77.1c4.7,8.1,10.8,16.3,17.2,24.1L126,239.8
	c-7.6-9-14.7-18.5-20.3-28.2C77,162.1,83.5,108.7,83.5,108.7l91.9-38.8v0l91.9,38.8C267.3,108.7,272.8,154,251.3,199.9z"/>
</svg>
