<?xml version="1.0" encoding="utf-8"?>
<!-- Generator: Adobe Illustrator 23.0.0, SVG Export Plug-In . SVG Version: 6.00 Build 0)  -->
<svg version="1.1" id="Слой_1" xmlns="http://www.w3.org/2000/svg" xmlns:xlink="http://www.w3.org/1999/xlink" x="0px" y="0px"
	 viewBox="0 0 350.8 354.9" style="enable-background:new 0 0 350.8 354.9;" xml:space="preserve">
<style type="text/css">
	.st0{fill:#73C9F2;}
</style>
<g>
	<path class="st0" d="M327.3,91.4c-15.7-26.9-37-48.2-63.8-63.8C236.6,11.9,207.2,4,175.4,4c-31.8,0-61.2,7.8-88.1,23.5
		c-26.9,15.7-48.2,37-63.8,63.8C7.8,118.3,0,147.6,0,179.5c0,31.8,7.8,61.2,23.5,88.1c15.7,26.9,37,48.1,63.8,63.8
		c26.9,15.7,56.2,23.5,88.1,23.5c23.8,0,46.3-4.4,67.3-13.2c7.1-3,14-6.4,20.8-10.3c9.2-5.3,78.4,22.5,78.4,22.5
		s-28.7-64.2-19.3-78.7c1.6-2.5,3.2-5,4.7-7.6c15.7-26.9,23.5-56.2,23.5-88.1C350.8,147.6,343,118.3,327.3,91.4L327.3,91.4z
		 M146.2,47.9c0-2.1,0.7-3.9,2.1-5.3c1.4-1.4,3.1-2.1,5.3-2.1h43.9c2.1,0,3.9,0.7,5.3,2.1c1.4,1.4,2.1,3.1,2.1,5.3v36.5
		c0,2.1-0.7,3.9-2.1,5.3c-1.4,1.4-3.1,2.1-5.3,2.1h-43.9c-2.1,0-3.9-0.7-5.3-2.1c-1.4-1.4-2.1-3.1-2.1-5.3V47.9z M233.9,289.1
		c0,2.1-0.7,3.9-2.1,5.3c-1.4,1.4-3.1,2.1-5.3,2.1H124.3c-2.1,0-3.9-0.7-5.3-2.1c-1.4-1.4-2.1-3.1-2.1-5.3v-36.5
		c0-2.1,0.7-3.9,2.1-5.3c1.4-1.4,3.1-2.1,5.3-2.1h21.9v-73.1h-21.9c-2.1,0-3.9-0.7-5.3-2.1c-1.4-1.4-2.1-3.1-2.1-5.3v-36.5
		c0-2.1,0.7-3.9,2.1-5.3c1.4-1.4,3.1-2.1,5.3-2.1h73.1c2.1,0,3.9,0.7,5.3,2.1c1.4,1.4,2.1,3.1,2.1,5.3v116.9h21.9
		c2.1,0,3.9,0.7,5.3,2.1c1.4,1.4,2.1,3.1,2.1,5.3L233.9,289.1L233.9,289.1z M233.9,289.1"/>
</g>
</svg>
