<?xml version="1.0" encoding="utf-8"?>
<!-- Generator: Adobe Illustrator 23.0.1, SVG Export Plug-In . SVG Version: 6.00 Build 0)  -->
<svg version="1.1" id="Слой_1" xmlns="http://www.w3.org/2000/svg" xmlns:xlink="http://www.w3.org/1999/xlink" x="0px" y="0px"
	 viewBox="0 0 23 23" style="enable-background:new 0 0 23 23;" xml:space="preserve">
<style type="text/css">
	.st0{fill:#6695E2;}
</style>
<path class="st0" d="M3.7,7.3v14.1c0,0.8,0.6,1.4,1.4,1.4h12.7c0.8,0,1.4-0.6,1.4-1.4V7.3H3.7z M8,20H6.6v-9.9H8V20z M10.8,20H9.4
	v-9.9h1.4V20z M13.6,20h-1.4v-9.9h1.4V20z M16.4,20H15v-9.9h1.4V20z"/>
<path class="st0" d="M19.6,3H15V1.3c0-0.6-0.5-1.1-1.1-1.1H9C8.4,0.2,8,0.7,8,1.3V3H3.4C2.8,3,2.3,3.5,2.3,4.1v1.8h18.4V4.1
	C20.7,3.5,20.2,3,19.6,3z M13.6,3H9.4V1.6h4.2V3z"/>
</svg>
