<?xml version="1.0" encoding="utf-8"?>
<!-- Generator: Adobe Illustrator 23.0.0, SVG Export Plug-In . SVG Version: 6.00 Build 0)  -->
<svg version="1.1" id="Слой_1" xmlns="http://www.w3.org/2000/svg" xmlns:xlink="http://www.w3.org/1999/xlink" x="0px" y="0px"
	 viewBox="0 0 150 155" style="enable-background:new 0 0 150 155;" xml:space="preserve">
<style type="text/css">
	.st0{fill:#3E82F1;}
</style>
<g>
	<path class="st0" d="M25.9,152c-8.6,0-17.2,0-25.7,0c0-0.5-0.1-0.9-0.1-1.4c0-49.1,0-98.2,0-147.3c0-0.5,0-0.9,0.1-1.4
		C50.1,2,100,2,150,2c0,50,0,100,0,150c-8.3,0-16.7,0-25,0c0-0.1,0-0.3,0-0.4c0-22.7,0-45.3,0-68c0-0.3,0-0.6,0-1
		c-9.8,0-19.6,0-29.3,0c-6.7,9.4-13.4,18.7-20.1,28.2c-6.8-9.5-13.5-18.9-20.1-28.2c-9.8,0-19.6,0-29.4,0
		C25.9,105.8,25.9,128.9,25.9,152z M103.2,45.7c0-15.1-12.4-27.5-27.6-27.5c-15.3,0-27.8,12.3-27.8,27.4c0,15.2,12.4,27.5,27.7,27.5
		C90.7,73.1,103.2,60.8,103.2,45.7z"/>
	<path class="st0" d="M0.2,2c0,0.5-0.1,0.9-0.1,1.4c0,49.1,0,98.2,0,147.3c0,0.5,0,0.9,0.1,1.4C0.1,152,0,152,0,151.9
		c0-0.2,0-0.5,0-0.7c0-49.5,0-99,0-148.5C0,2.5,0.1,2.2,0.2,2z"/>
</g>
</svg>
