<?xml version="1.0" encoding="utf-8"?>
<!-- Generator: Adobe Illustrator 23.0.0, SVG Export Plug-In . SVG Version: 6.00 Build 0)  -->
<svg version="1.1" id="Слой_1" xmlns="http://www.w3.org/2000/svg" xmlns:xlink="http://www.w3.org/1999/xlink" x="0px" y="0px"
	 viewBox="0 0 150 155" style="enable-background:new 0 0 150 155;" xml:space="preserve">
<style type="text/css">
	.st0{fill:#F68634;}
</style>
<g>
	<g>
		<path class="st0" d="M76,61.5c6.9,0,12.3-5.4,12.2-12.3C88.1,42.7,82.5,37.1,76,37c-6.4,0-12.1,5.6-12.2,12.1
			C63.7,56.1,69,61.5,76,61.5z"/>
		<path class="st0" d="M142,2H8c-4.4,0-8,3.6-8,8v134c0,4.4,3.6,8,8,8h134c4.4,0,8-3.6,8-8V10C150,5.6,146.4,2,142,2z M76.4,20
			c16.2,0.2,28.9,13.3,28.8,29.6C105.1,65.9,92,78.8,75.8,78.8c-16.4-0.1-29.1-13.3-29-29.9C46.9,32.8,60.2,19.8,76.4,20z
			 M101.6,116.8c1.1,1,2.2,2.1,3.1,3.3c3,3.9,2.6,8.5-0.8,11.7c-3.2,2.9-7.9,3-11.3-0.2c-4.3-3.9-8.5-8-12.4-12.3
			c-3.2-3.6-5.4-3.2-8.4,0.1c-3.5,4-7.4,7.6-11.3,11.3c-4.1,4-8.9,4.3-12.4,0.9c-3.7-3.6-3.7-8.5,0.4-12.8c4.8-5,9.9-9.8,15.5-15.2
			c-5.5-2.4-10.1-4.3-14.4-6.5c-6.1-3.2-7.9-7.8-5.4-12.5c2.5-4.7,7.5-5.6,13.4-2.5c12.4,6.6,24.8,6.5,37.2-0.1
			c5.6-3,10.6-2.1,13.1,2.3c2.6,4.6,0.9,9.5-5,12.6c-4.5,2.4-9.3,4.3-15.2,6.9C92.6,108.4,97.1,112.6,101.6,116.8z"/>
	</g>
</g>
</svg>
