<?xml version="1.0" encoding="utf-8"?>
<!-- Generator: Adobe Illustrator 23.0.0, SVG Export Plug-In . SVG Version: 6.00 Build 0)  -->
<svg version="1.1" id="Слой_1" xmlns="http://www.w3.org/2000/svg" xmlns:xlink="http://www.w3.org/1999/xlink" x="0px" y="0px"
	 viewBox="0 0 150 155" style="enable-background:new 0 0 150 155;" xml:space="preserve">
<style type="text/css">
	.st0{fill:#4C719D;}
</style>
<path class="st0" d="M142,2H8c-4.4,0-8,3.6-8,8v134c0,4.4,3.6,8,8,8h134c4.4,0,8-3.6,8-8V10C150,5.6,146.4,2,142,2z M126.1,111.8
	l-15.5,0.2c0,0-3.3,0.7-7.7-2.3c-5.8-4-11.3-14.3-15.5-13c-4.3,1.4-4.2,10.7-4.2,10.7s0,2-1,3c-1.1,1.2-3.2,1.4-3.2,1.4h-6.9
	c0,0-15.3,0.9-28.8-13.1C28.7,83.4,15.7,53,15.7,53s-0.7-2,0.1-3c0.9-1.1,3.4-1.2,3.4-1.2l16.6-0.1c0,0,1.6,0.3,2.7,1.1
	c0.9,0.7,1.4,1.9,1.4,1.9s2.7,6.8,6.2,12.9C53,76.7,56.2,79.3,58.6,78C62,76.2,61,61.1,61,61.1s0.1-5.5-1.7-7.9
	c-1.4-1.9-4-2.4-5.1-2.6c-0.9-0.1,0.6-2.3,2.6-3.3c3-1.5,8.2-1.5,14.5-1.5c4.8,0.1,6.2,0.4,8.1,0.8c5.7,1.4,3.8,6.7,3.8,19.5
	c0,4.1-0.7,9.8,2.2,11.8c1.3,0.8,4.4,0.1,12.1-13.1c3.7-6.3,6.4-13.6,6.4-13.6s0.6-1.3,1.5-1.9c1-0.6,2.3-0.4,2.3-0.4l17.4-0.1
	c0,0,5.2-0.6,6.1,1.7c0.9,2.5-2,8.3-9.1,17.8c-11.7,15.6-13,14.1-3.3,23.2c9.3,8.6,11.2,12.8,11.5,13.3
	C134.2,111.3,126.1,111.8,126.1,111.8z"/>
</svg>
