<?xml version="1.0" encoding="utf-8"?>
<!-- Generator: Adobe Illustrator 23.0.0, SVG Export Plug-In . SVG Version: 6.00 Build 0)  -->
<svg version="1.1" id="Слой_1" xmlns="http://www.w3.org/2000/svg" xmlns:xlink="http://www.w3.org/1999/xlink" x="0px" y="0px"
	 viewBox="0 0 150 155" style="enable-background:new 0 0 150 155;" xml:space="preserve">
<style type="text/css">
	.st0{fill:#3C5A99;}
</style>
<g>
	<g>
		<path class="st0" d="M126.4,72c-0.4,0-0.7,0-1.1,0c-6.8,0-13.6,0-20.5,0c-0.6,0-0.9-0.1-0.9-0.9c0.1-5.2,0-10.4,0.1-15.6
			c0-1.2,0.3-2.4,0.7-3.6c1-2.9,3.2-4.4,6-4.9c1.8-0.3,3.6-0.4,5.5-0.5c3.4-0.1,6.7,0,10.1,0c0.7,0,0.9-0.2,0.9-0.9
			c0-6.2,0-12.4,0-18.7c0-0.7-0.2-0.9-0.9-1c-6-0.6-12.1-0.9-18.2-0.7c-6.1,0.1-11.7,1.7-16.7,5.2c-5.4,3.9-8.5,9.2-10,15.6
			c-0.8,3.2-1,6.5-1,9.8c0,5,0,10.1,0,15.1c0,0.7-0.2,1-1,1c-5.8,0-11.6,0-17.4,0c-0.3,0-0.7,0-1.1,0c0,0.3,0,0.6,0,0.9
			c0,7,0,14.1,0,21.1c0,0.7,0.3,0.9,0.9,0.9c5.9,0,11.8,0,17.7,0c0.7,0,1,0.2,1,1c0,18.7,0,37.4,0,56.1c0,0.7-0.2,1-1,1
			c-23.6,0-47.1,0-70.7,0c-4.1,0-7.3-2.6-8.2-6.6c-0.2-0.7-0.2-1.4-0.2-2.2c0-44.2,0-88.4,0-132.6c0-5.1,3.4-8,6.6-8.5
			c0.7-0.1,1.4-0.2,2.2-0.2c44.2,0,88.4,0,132.5,0c4.3,0,7.4,2.3,8.4,6.2c0.1,0.6,0.2,1.2,0.2,1.8c0,0.3,0,0.6,0,0.9
			c0,44.2,0,88.3,0,132.5c0,2.7-0.8,4.9-2.8,6.7c-1.5,1.3-3.2,2-5.2,2c-12.5,0-25,0-37.5,0c-0.8,0-0.8-0.4-0.8-1c0-11,0-22,0-33
			c0-7.6,0-15.2,0-22.9c0-1.1,0-1.1,1.2-1.1c5.8,0,11.6,0,17.3,0c0.7,0,1.1-0.2,1.1-0.9c0.4-3,0.7-6,1.1-8.9
			c0.4-3.5,0.9-6.9,1.3-10.4C126.2,73.8,126.3,72.9,126.4,72z"/>
	</g>
</g>
</svg>
