<?xml version="1.0" encoding="utf-8"?>
<!-- Generator: Adobe Illustrator 23.0.0, SVG Export Plug-In . SVG Version: 6.00 Build 0)  -->
<svg version="1.1" id="Слой_1" xmlns="http://www.w3.org/2000/svg" xmlns:xlink="http://www.w3.org/1999/xlink" x="0px" y="0px"
	 viewBox="0 0 751 155" style="enable-background:new 0 0 751 155;" xml:space="preserve">
<style type="text/css">
	.st0{fill:#3E82F1;}
	.st1{clip-path:url(#SVGID_2_);fill:#3E82F1;}
	.st2{clip-path:url(#SVGID_4_);fill:#32A753;}
	.st3{clip-path:url(#SVGID_6_);fill:#F9BB00;}
	.st4{clip-path:url(#SVGID_8_);fill:#E74133;}
	.st5{fill:#3C5A99;}
	.st6{fill:#F68634;}
	.st7{fill:#4C719D;}
</style>
<g>
	<path class="st0" d="M25.9,152c-8.6,0-17.2,0-25.7,0c0-0.5-0.1-0.9-0.1-1.4c0-49.1,0-98.2,0-147.3c0-0.5,0-0.9,0.1-1.4
		C50.1,2,100,2,150,2c0,50,0,100,0,150c-8.3,0-16.7,0-25,0c0-0.1,0-0.3,0-0.4c0-22.7,0-45.3,0-68c0-0.3,0-0.6,0-1
		c-9.8,0-19.6,0-29.3,0c-6.7,9.4-13.4,18.7-20.1,28.2c-6.8-9.5-13.5-18.9-20.1-28.2c-9.8,0-19.6,0-29.4,0
		C25.9,105.8,25.9,128.9,25.9,152z M103.2,45.7c0-15.1-12.4-27.5-27.6-27.5c-15.3,0-27.8,12.3-27.8,27.4c0,15.2,12.4,27.5,27.7,27.5
		C90.7,73.1,103.2,60.8,103.2,45.7z"/>
	<path class="st0" d="M0.2,2c0,0.5-0.1,0.9-0.1,1.4c0,49.1,0,98.2,0,147.3c0,0.5,0,0.9,0.1,1.4C0.1,152,0,152,0,151.9
		c0-0.2,0-0.5,0-0.7c0-49.5,0-99,0-148.5C0,2.5,0.1,2.2,0.2,2z"/>
</g>
<g>
	<g>
		<defs>
			<path id="SVGID_1_" d="M299.5,80.4c0-5.4-0.5-10.6-1.4-15.7h-72.1v29.6h41.2c-1.8,9.6-7.2,17.7-15.3,23.1v19.2h24.7
				C291.2,123.3,299.5,103.7,299.5,80.4L299.5,80.4L299.5,80.4z M299.5,80.4"/>
		</defs>
		<clipPath id="SVGID_2_">
			<use xlink:href="#SVGID_1_"  style="overflow:visible;"/>
		</clipPath>
		<rect id="XMLID_10_" x="183.5" y="22.2" class="st1" width="158.5" height="156.9"/>
	</g>
	<g>
		<defs>
			<path id="SVGID_3_" d="M226.1,155.2c20.7,0,38-6.9,50.6-18.5L252,117.4c-6.9,4.6-15.6,7.3-25.9,7.3c-19.9,0-36.8-13.5-42.8-31.6
				h-25.6V113C170.3,138,196.1,155.2,226.1,155.2L226.1,155.2L226.1,155.2z M226.1,155.2"/>
		</defs>
		<clipPath id="SVGID_4_">
			<use xlink:href="#SVGID_3_"  style="overflow:visible;"/>
		</clipPath>
		<rect id="XMLID_7_" x="115.1" y="50.7" class="st2" width="204.1" height="147"/>
	</g>
	<g>
		<defs>
			<path id="SVGID_5_" d="M183.2,93.2c-1.5-4.6-2.4-9.5-2.4-14.5c0-5,0.9-9.9,2.4-14.5V44.3h-25.6c-5.2,10.3-8.1,22-8.1,34.4
				s3,24,8.1,34.4L183.2,93.2L183.2,93.2L183.2,93.2z M183.2,93.2"/>
		</defs>
		<clipPath id="SVGID_6_">
			<use xlink:href="#SVGID_5_"  style="overflow:visible;"/>
		</clipPath>
		<rect id="XMLID_4_" x="107" y="1.8" class="st3" width="118.7" height="153.8"/>
	</g>
	<g>
		<defs>
			<path id="SVGID_7_" d="M226.1,32.5c11.2,0,21.3,3.9,29.3,11.4l22-22C264,9.7,246.7,2.1,226.1,2.1c-29.9,0-55.8,17.2-68.4,42.2
				l25.6,19.8C189.2,46,206.1,32.5,226.1,32.5L226.1,32.5L226.1,32.5z M226.1,32.5"/>
		</defs>
		<use xlink:href="#SVGID_7_"  style="overflow:visible;fill-rule:evenodd;clip-rule:evenodd;fill:#FF4A4A;"/>
		<clipPath id="SVGID_8_">
			<use xlink:href="#SVGID_7_"  style="overflow:visible;"/>
		</clipPath>
		<rect id="XMLID_1_" x="115.1" y="-40.4" class="st4" width="204.6" height="147"/>
	</g>
</g>
<g>
	<g>
		<path class="st5" d="M426.4,71c-0.4,0-0.7,0-1.1,0c-6.8,0-13.6,0-20.5,0c-0.6,0-0.9-0.1-0.9-0.9c0.1-5.2,0-10.4,0.1-15.6
			c0-1.2,0.3-2.4,0.7-3.6c1-2.9,3.2-4.4,6-4.9c1.8-0.3,3.6-0.4,5.5-0.5c3.4-0.1,6.7,0,10.1,0c0.7,0,0.9-0.2,0.9-0.9
			c0-6.2,0-12.4,0-18.7c0-0.7-0.2-0.9-0.9-1c-6-0.6-12.1-0.9-18.2-0.7c-6.1,0.1-11.7,1.7-16.7,5.2c-5.4,3.9-8.5,9.2-10,15.6
			c-0.8,3.2-1,6.5-1,9.8c0,5,0,10.1,0,15.1c0,0.7-0.2,1-1,1c-5.8,0-11.6,0-17.4,0c-0.3,0-0.7,0-1.1,0c0,0.3,0,0.6,0,0.9
			c0,7,0,14.1,0,21.1c0,0.7,0.3,0.9,0.9,0.9c5.9,0,11.8,0,17.7,0c0.7,0,1,0.2,1,1c0,18.7,0,37.4,0,56.1c0,0.7-0.2,1-1,1
			c-23.6,0-47.1,0-70.7,0c-4.1,0-7.3-2.6-8.2-6.6c-0.2-0.7-0.2-1.4-0.2-2.2c0-44.2,0-88.4,0-132.6c0-5.1,3.4-8,6.6-8.5
			c0.7-0.1,1.4-0.2,2.2-0.2c44.2,0,88.4,0,132.5,0c4.3,0,7.4,2.3,8.4,6.2c0.1,0.6,0.2,1.2,0.2,1.8c0,0.3,0,0.6,0,0.9
			c0,44.2,0,88.3,0,132.5c0,2.7-0.8,4.9-2.8,6.7c-1.5,1.3-3.2,2-5.2,2c-12.5,0-25,0-37.5,0c-0.8,0-0.8-0.4-0.8-1c0-11,0-22,0-33
			c0-7.6,0-15.2,0-22.9c0-1.1,0-1.1,1.2-1.1c5.8,0,11.6,0,17.3,0c0.7,0,1.1-0.2,1.1-0.9c0.4-3,0.7-6,1.1-8.9
			c0.4-3.5,0.9-6.9,1.3-10.4C426.2,72.8,426.3,71.9,426.4,71z"/>
	</g>
</g>
<g>
	<g>
		<path class="st6" d="M527,61.5c6.9,0,12.3-5.4,12.2-12.3c-0.1-6.5-5.7-12.1-12.1-12.2c-6.4,0-12.1,5.6-12.2,12.1
			C514.7,56.1,520,61.5,527,61.5z"/>
		<path class="st6" d="M593,2H459c-4.4,0-8,3.6-8,8v134c0,4.4,3.6,8,8,8h134c4.4,0,8-3.6,8-8V10C601,5.6,597.4,2,593,2z M527.4,20
			c16.2,0.2,28.9,13.3,28.8,29.6c-0.1,16.2-13.2,29.2-29.4,29.1c-16.4-0.1-29.1-13.3-29-29.9C497.9,32.8,511.2,19.8,527.4,20z
			 M552.6,116.8c1.1,1,2.2,2.1,3.1,3.3c3,3.9,2.6,8.5-0.8,11.7c-3.2,2.9-7.9,3-11.3-0.2c-4.3-3.9-8.5-8-12.4-12.3
			c-3.2-3.6-5.4-3.2-8.4,0.1c-3.5,4-7.4,7.6-11.3,11.3c-4.1,4-8.9,4.3-12.4,0.9c-3.7-3.6-3.7-8.5,0.4-12.8c4.8-5,9.9-9.8,15.5-15.2
			c-5.5-2.4-10.1-4.3-14.4-6.5c-6.1-3.2-7.9-7.8-5.4-12.5c2.5-4.7,7.5-5.6,13.4-2.5c12.4,6.6,24.8,6.5,37.2-0.1
			c5.6-3,10.6-2.1,13.1,2.3c2.6,4.6,0.9,9.5-5,12.6c-4.5,2.4-9.3,4.3-15.2,6.9C543.6,108.4,548.1,112.6,552.6,116.8z"/>
	</g>
</g>
<path class="st7" d="M743,2H609c-4.4,0-8,3.6-8,8v134c0,4.4,3.6,8,8,8h134c4.4,0,8-3.6,8-8V10C751,5.6,747.4,2,743,2z M727.1,111.8
	l-15.5,0.2c0,0-3.3,0.7-7.7-2.3c-5.8-4-11.3-14.3-15.5-13c-4.3,1.4-4.2,10.7-4.2,10.7s0,2-1,3c-1.1,1.2-3.2,1.4-3.2,1.4h-6.9
	c0,0-15.3,0.9-28.8-13.1C629.7,83.4,616.7,53,616.7,53s-0.7-2,0.1-3c0.9-1.1,3.4-1.2,3.4-1.2l16.6-0.1c0,0,1.6,0.3,2.7,1.1
	c0.9,0.7,1.4,1.9,1.4,1.9s2.7,6.8,6.2,12.9c6.9,12,10.1,14.6,12.5,13.3c3.4-1.9,2.4-16.9,2.4-16.9s0.1-5.5-1.7-7.9
	c-1.4-1.9-4-2.4-5.1-2.6c-0.9-0.1,0.6-2.3,2.6-3.3c3-1.5,8.2-1.5,14.5-1.5c4.8,0.1,6.2,0.4,8.1,0.8c5.7,1.4,3.8,6.7,3.8,19.5
	c0,4.1-0.7,9.8,2.2,11.8c1.3,0.8,4.4,0.1,12.1-13.1c3.7-6.3,6.4-13.6,6.4-13.6s0.6-1.3,1.5-1.9c1-0.6,2.3-0.4,2.3-0.4l17.4-0.1
	c0,0,5.2-0.6,6.1,1.7c0.9,2.5-2,8.3-9.1,17.8c-11.7,15.6-13,14.1-3.3,23.2c9.3,8.6,11.2,12.8,11.5,13.3
	C735.2,111.3,727.1,111.8,727.1,111.8z"/>
</svg>
