<?xml version="1.0" encoding="utf-8"?>
<!-- Generator: Adobe Illustrator 23.0.0, SVG Export Plug-In . SVG Version: 6.00 Build 0)  -->
<svg version="1.1" id="Слой_1" xmlns="http://www.w3.org/2000/svg" xmlns:xlink="http://www.w3.org/1999/xlink" x="0px" y="0px"
	 viewBox="0 0 150 155" style="enable-background:new 0 0 150 155;" xml:space="preserve">
<style type="text/css">
	.st0{clip-path:url(#SVGID_2_);fill:#3E82F1;}
	.st1{clip-path:url(#SVGID_4_);fill:#32A753;}
	.st2{clip-path:url(#SVGID_6_);fill:#F9BB00;}
	.st3{clip-path:url(#SVGID_8_);fill:#E74133;}
</style>
<g>
	<g>
		<defs>
			<path id="SVGID_1_" d="M149.5,79.4c0-5.4-0.5-10.6-1.4-15.7H76.1v29.6h41.2c-1.8,9.6-7.2,17.7-15.3,23.1v19.2h24.7
				C141.2,122.3,149.5,102.7,149.5,79.4L149.5,79.4L149.5,79.4z M149.5,79.4"/>
		</defs>
		<clipPath id="SVGID_2_">
			<use xlink:href="#SVGID_1_"  style="overflow:visible;"/>
		</clipPath>
		<rect id="XMLID_10_" x="33.5" y="21.2" class="st0" width="158.5" height="156.9"/>
	</g>
	<g>
		<defs>
			<path id="SVGID_3_" d="M76.1,154.2c20.7,0,38-6.9,50.6-18.5L102,116.4c-6.9,4.6-15.6,7.3-25.9,7.3c-19.9,0-36.8-13.5-42.8-31.6
				H7.7V112C20.3,137,46.1,154.2,76.1,154.2L76.1,154.2L76.1,154.2z M76.1,154.2"/>
		</defs>
		<clipPath id="SVGID_4_">
			<use xlink:href="#SVGID_3_"  style="overflow:visible;"/>
		</clipPath>
		<rect id="XMLID_7_" x="-34.9" y="49.7" class="st1" width="204.1" height="147"/>
	</g>
	<g>
		<defs>
			<path id="SVGID_5_" d="M33.2,92.2c-1.5-4.6-2.4-9.5-2.4-14.5c0-5,0.9-9.9,2.4-14.5V43.3H7.7c-5.2,10.3-8.1,22-8.1,34.4
				s3,24,8.1,34.4L33.2,92.2L33.2,92.2L33.2,92.2z M33.2,92.2"/>
		</defs>
		<clipPath id="SVGID_6_">
			<use xlink:href="#SVGID_5_"  style="overflow:visible;"/>
		</clipPath>
		<rect id="XMLID_4_" x="-43" y="0.8" class="st2" width="118.7" height="153.8"/>
	</g>
	<g>
		<defs>
			<path id="SVGID_7_" d="M76.1,31.5c11.2,0,21.3,3.9,29.3,11.4l22-22C114,8.7,96.7,1.1,76.1,1.1c-29.9,0-55.8,17.2-68.4,42.2
				l25.6,19.8C39.2,45,56.1,31.5,76.1,31.5L76.1,31.5L76.1,31.5z M76.1,31.5"/>
		</defs>
		<use xlink:href="#SVGID_7_"  style="overflow:visible;fill-rule:evenodd;clip-rule:evenodd;fill:#FF4A4A;"/>
		<clipPath id="SVGID_8_">
			<use xlink:href="#SVGID_7_"  style="overflow:visible;"/>
		</clipPath>
		<rect id="XMLID_1_" x="-34.9" y="-41.4" class="st3" width="204.6" height="147"/>
	</g>
</g>
</svg>
