<?xml version="1.0" encoding="utf-8"?>
<!-- Generator: Adobe Illustrator 23.0.1, SVG Export Plug-In . SVG Version: 6.00 Build 0)  -->
<svg version="1.1" id="Слой_1" xmlns="http://www.w3.org/2000/svg" xmlns:xlink="http://www.w3.org/1999/xlink" x="0px" y="0px"
	 viewBox="0 0 76.9 64.1" style="enable-background:new 0 0 76.9 64.1;" xml:space="preserve">
<style type="text/css">
	.st0{fill:#FBCB18;}
	.st1{fill:#FDCA38;}
	.st2{fill:#F6A536;}
	.st3{fill:#F3962C;}
	.st4{fill:#FDDB42;}
	.st5{fill:#DCB115;}
	.st6{fill:#434A54;}
	.st7{fill:#2B271C;}
	.st8{fill:#EEC73E;}
	.st9{clip-path:url(#SVGID_2_);fill:#3E82F1;}
	.st10{clip-path:url(#SVGID_4_);fill:#32A753;}
	.st11{clip-path:url(#SVGID_6_);fill:#F9BB00;}
	.st12{clip-path:url(#SVGID_8_);fill:#FF4A4A;}
	.st13{fill:#FF4A4A;}
	.st14{fill:#FBBD04;}
	.st15{fill:#438EDC;}
	.st16{fill:#34A952;}
</style>
<title>shield</title>
<desc>Created with Sketch.</desc>
<g>
	<g>
		<path class="st0" d="M43.4,3.6c-6.9,0-12.6,5.6-12.6,12.6s5.7,12.6,12.6,12.6S56,23.1,56,16.2S50.3,3.6,43.4,3.6z"/>
		<path class="st1" d="M55.9,16.1c0,6.9-5.6,12.6-12.6,12.6V3.6C50.3,3.6,55.9,9.2,55.9,16.1z"/>
		<path class="st2" d="M43.4,6.5c-5.3,0-9.7,4.3-9.7,9.5s4.4,9.7,9.7,9.7s9.5-4.4,9.5-9.7S48.7,6.5,43.4,6.5z"/>
		<path class="st3" d="M53,16.1c0,5.3-4.3,9.7-9.5,9.7V6.5C48.7,6.5,53,10.8,53,16.1z"/>
		<path class="st4" d="M44.8,15.4h-0.7v-2.9h0.7c0.4,0,0.7,0.3,0.7,0.7c0,1,1.5,1,1.5,0c0-1.2-1-2.2-2.2-2.2h-0.7v-0.7
			c0-0.5-0.3-0.7-0.7-0.7s-0.7,0.2-0.7,0.7V11h-0.8c-1.2,0-2.2,1-2.2,2.2v1.5c0,1.2,1,2.2,2.2,2.2h0.8V20h-0.8
			c-0.4,0-0.7-0.3-0.7-0.7c0-1-1.5-1-1.5,0c0,1.2,1,2.2,2.2,2.2h0.8v0.7c0,0.5,0.3,0.7,0.7,0.7c0.3,0,0.7-0.2,0.7-0.7v-0.7h0.7
			c1.2,0,2.2-1,2.2-2.2v-1.6C47,16.4,46.1,15.4,44.8,15.4z M42.6,15.4h-0.8c-0.4,0-0.7-0.3-0.7-0.7v-1.5c0-0.4,0.3-0.7,0.7-0.7h0.8
			V15.4z M45.6,19.1c0,0.4-0.3,0.7-0.7,0.7h-0.7v-3h0.7c0.4,0,0.7,0.3,0.7,0.7C45.6,17.5,45.6,19.1,45.6,19.1z"/>
		<path class="st1" d="M44.8,15.4h-0.7v-2.9h0.7c0.4,0,0.7,0.3,0.7,0.7c0,1,1.5,1,1.5,0c0-1.2-1-2.2-2.2-2.2h-0.7v-0.7
			c0-0.5-0.3-0.7-0.7-0.7V23c0.3,0,0.7-0.2,0.7-0.7v-0.7h0.7c1.2,0,2.2-1,2.2-2.2v-1.6C47,16.4,46.1,15.4,44.8,15.4z M45.6,19.1
			c0,0.4-0.3,0.7-0.7,0.7h-0.7v-3h0.7c0.4,0,0.7,0.3,0.7,0.7C45.6,17.5,45.6,19.1,45.6,19.1z"/>
	</g>
	<g>
		<path class="st0" d="M62,53.5c-0.4,0-0.9,0-1.5,0c0,0.9,0,1.9,0,2.8c-1.9,0-3.6,0-5.4,0c0-0.9,0-1.8,0-2.8c-0.7,0-1.3,0-1.9,0
			c0,3.2,0,6.4,0,9.6c-1.8,0-3.5,0-5.4,0c0-3.2,0-6.4,0-9.6c-0.7,0-1.3,0-1.9,0c0,3.2,0,6.4,0,9.6c-2,0-3.9,0-5.8,0
			c0-9.4,0-18.8,0-28.1c9.3,0,18.5,0,27.8,0c0,6.2,0,12.3,0,18.5C65.8,53.5,63.9,53.5,62,53.5z M60.1,39.9L60.1,39.9L60.1,39.9
			c-0.3-0.2-0.4-0.3-0.6-0.3c-3.9,0-7.7,0-11.6,0c-0.2,0-0.3,0.1-0.4,0.2c0,0.8,0,1.7,0,2.5c1.9,0,3.9,0.1,5.8,0.1c2.3,0,4.6,0,7,0
			C60.1,41.5,60.1,40.7,60.1,39.9z M47.3,45.1c0,0.8,0,1.6,0,2.4c0.1,0.1,0.2,0.2,0.4,0.2c2.1,0,4.3,0,6.5,0c2,0,4,0,6.2,0
			c-0.1-1-0.2-1.8-0.3-2.6c0,0,0-0.1-0.1-0.1s-0.2-0.2-0.4-0.2c-4,0-7.9,0-11.9,0C47.5,44.9,47.4,45.1,47.3,45.1z"/>
		<path class="st5" d="M62,53.5c1.9,0,3.9,0,5.8,0c0.8,2.5,1.6,5.1,2.5,7.7c-2,0-3.9,0-5.9,0C63.5,58.6,62.7,56,62,53.5z"/>
		<path class="st6" d="M47.3,47.6c0-0.8,0-1.6,0-2.4c4.2,0,8.4,0,12.6,0c0,0,0,0.1,0.1,0.1c0,0.8,0,1.5,0,2.3
			C55.7,47.6,51.5,47.6,47.3,47.6z"/>
		<path class="st7" d="M47.4,42.2c0-0.8,0-1.7,0-2.5c4.2,0,8.4,0,12.5,0l0,0c0,0,0,0.1,0,0.2c0,0.7,0,1.3,0,2c0,0.1,0,0.2-0.1,0.2
			C55.7,42.2,51.6,42.2,47.4,42.2z M47.5,41.9c4.1,0,8.1,0,12.2,0c0-0.6,0-1.3,0-1.9c-4.1,0-8.1,0-12.2,0
			C47.5,40.7,47.5,41.3,47.5,41.9z"/>
		<path class="st6" d="M47.3,47.6c4.2,0,8.4,0,12.7,0c0-0.8,0-1.6,0-2.3c0.1,0.8,0.2,1.6,0.3,2.6c-2.2,0-4.2,0-6.2,0
			c-2.1,0-4.3,0-6.5,0C47.5,47.8,47.4,47.6,47.3,47.6z"/>
		<path class="st8" d="M59.9,39.8c-4.2,0-8.4,0-12.5,0c0.2-0.1,0.3-0.2,0.4-0.2c3.9,0,7.7,0,11.6,0C59.6,39.6,59.7,39.7,59.9,39.8z"
			/>
		<path class="st8" d="M47.4,42.2c4.2,0,8.4,0,12.5,0c0-0.1,0-0.2,0.1-0.2c0-0.7,0-1.3,0-2c0,0,0,0,0.1,0c0,0.8,0.1,1.5,0.2,2.4
			c-2.4,0-4.7,0-7,0C51.2,42.3,49.3,42.3,47.4,42.2z"/>
		<path class="st8" d="M59.9,45.1c-4.2,0-8.4,0-12.6,0c0.1-0.1,0.2-0.2,0.4-0.2c4,0,7.9,0,11.9,0C59.7,44.9,59.8,45.1,59.9,45.1z"/>
		<path class="st5" d="M60.1,39.9C60,39.9,60,39.9,60.1,39.9C60,39.9,60,39.9,60.1,39.9C60,39.9,60,39.9,60.1,39.9z"/>
		<path class="st6" d="M47.5,41.9c0-0.6,0-1.3,0-1.9c4.1,0,8.1,0,12.2,0c0,0.6,0,1.3,0,1.9C55.7,41.9,51.6,41.9,47.5,41.9z"/>
		<path class="st5" d="M60,42c0,0.1,0,0.2-0.1,0.2C59.9,42.1,60,42,60,42z"/>
	</g>
	<g>
		<g>
			<g>
				<g>
					<g>
						<g>
							<g>
								<g>
									<g>
										<defs>
											<path id="SVGID_1_" d="M27.4,16.4c0-0.8-0.1-1.7-0.2-2.4H16.3v4.5h6.2c-0.2,1.5-1.1,2.6-2.3,3.5v2.9h3.7
												C26.2,23,27.4,20,27.4,16.4L27.4,16.4L27.4,16.4z"/>
										</defs>
										<clipPath id="SVGID_2_">
											<use xlink:href="#SVGID_1_"  style="overflow:visible;"/>
										</clipPath>
										<rect id="XMLID_10_" x="10" y="7.7" class="st9" width="24" height="23.8"/>
									</g>
								</g>
							</g>
						</g>
					</g>
				</g>
			</g>
		</g>
		<g>
			<g>
				<g>
					<g>
						<g>
							<g>
								<g>
									<g>
										<defs>
											<path id="SVGID_3_" d="M16.3,27.8c3.1,0,5.7-1,7.7-2.8l-3.7-2.9c-1,0.7-2.3,1.2-3.9,1.2c-3.1,0-5.5-2-6.5-4.8H6v3.1
												C7.9,25.2,11.8,27.8,16.3,27.8L16.3,27.8L16.3,27.8z"/>
										</defs>
										<clipPath id="SVGID_4_">
											<use xlink:href="#SVGID_3_"  style="overflow:visible;"/>
										</clipPath>
										<rect id="XMLID_7_" x="-0.5" y="12" class="st10" width="30.9" height="22.3"/>
									</g>
								</g>
							</g>
						</g>
					</g>
				</g>
			</g>
		</g>
		<g>
			<g>
				<g>
					<g>
						<g>
							<g>
								<g>
									<g>
										<defs>
											<path id="SVGID_5_" d="M9.9,18.4c-0.2-0.7-0.4-1.5-0.4-2.2c0-0.7,0.2-1.5,0.4-2.2v-3H6c-0.7,1.6-1.2,3.3-1.2,5.1
												s0.4,3.6,1.2,5.1L9.9,18.4L9.9,18.4L9.9,18.4z"/>
										</defs>
										<clipPath id="SVGID_6_">
											<use xlink:href="#SVGID_5_"  style="overflow:visible;"/>
										</clipPath>
										<rect id="XMLID_4_" x="-1.7" y="4.5" class="st11" width="18" height="23.3"/>
									</g>
								</g>
							</g>
						</g>
					</g>
				</g>
			</g>
		</g>
		<g>
			<g>
				<g>
					<g>
						<g>
							<g>
								<g>
									<g>
										<defs>
											<path id="SVGID_7_" d="M16.3,9.2c1.7,0,3.2,0.6,4.4,1.7L24,7.7c-2-1.9-4.6-3.1-7.8-3.1c-4.6,0-8.4,2.6-10.3,6.4l3.8,3
												C10.7,11.3,13.4,9.2,16.3,9.2L16.3,9.2L16.3,9.2z"/>
										</defs>
										<clipPath id="SVGID_8_">
											<use xlink:href="#SVGID_7_"  style="overflow:visible;"/>
										</clipPath>
										<rect id="XMLID_1_" x="-0.5" y="-1.8" class="st12" width="31" height="22.3"/>
									</g>
								</g>
							</g>
						</g>
					</g>
				</g>
			</g>
		</g>
	</g>
	<path id="яндекс_1_" class="st13" d="M70.9,3.6h-3.8c-3.8,0-6.9,2.9-6.9,8.4c0,3.3,1.6,5.8,4.2,7l-5.1,9.3
		c-0.2,0.3,0,0.6,0.2,0.6h2.4c0.2,0,0.3-0.1,0.4-0.2l4.7-9.1h1.6v9.1c0,0.2,0.2,0.2,0.2,0.2h2c0.2,0,0.2-0.2,0.2-0.2V3.9
		C71.2,3.7,71.1,3.6,70.9,3.6z M68.7,17.3h-1.4c-2.2,0-4.3-1.6-4.3-5.6c0-4.2,2-6,4.1-6h1.7L68.7,17.3L68.7,17.3z"/>
</g>
<g>
	<path class="st14" d="M23.6,35.9l1.1,0.6c2.1,1.2,2.9,4,1.6,6.1L15.5,61.3c-1.2,2.1-4,2.9-6.1,1.6l-1.1-0.6c-2.1-1.2-2.9-4-1.6-6.1
		l10.8-18.6C18.7,35.4,21.4,34.7,23.6,35.9z"/>
	<path class="st15" d="M18.5,36.5l1.1-0.6c2.1-1.2,4.9-0.5,6.1,1.6l10.8,18.6c1.2,2.1,0.5,4.9-1.6,6.1l-1.1,0.6
		c-2.1,1.2-4.9,0.5-6.1-1.6L16.9,42.6C15.6,40.5,16.4,37.7,18.5,36.5z"/>
	<circle class="st16" cx="11.5" cy="58.1" r="5.2"/>
</g>
</svg>
