<?xml version="1.0" encoding="utf-8"?>
<!-- Generator: Adobe Illustrator 23.0.1, SVG Export Plug-In . SVG Version: 6.00 Build 0)  -->
<svg version="1.1" id="Слой_1" xmlns="http://www.w3.org/2000/svg" xmlns:xlink="http://www.w3.org/1999/xlink" x="0px" y="0px"
	 viewBox="0 0 316 146" style="enable-background:new 0 0 316 146;" xml:space="preserve">
<style type="text/css">
	.st0{fill:#EBEFF0;}
	.st1{fill:#656D78;}
	.st2{fill:#E84C4F;}
	.st3{fill:#FBCB18;}
	.st4{fill:#55B36E;}
	.st5{fill:#FFFFFF;}
	.st6{clip-path:url(#SVGID_2_);fill:#556B79;}
	.st7{fill:#556B79;}
	.st8{clip-path:url(#SVGID_4_);fill:#556B79;}
	.st9{fill:#A0CBFD;}
	.st10{fill:#FCCC1B;}
</style>
<g>
	<g>
		<g>
			<g>
				<rect x="40.1" y="41.9" class="st0" width="226.1" height="102.2"/>
				<rect x="40.1" y="1" class="st1" width="226.1" height="40.8"/>
				<path class="st2" d="M69.3,21.5c0,4.8-3.9,8.8-8.8,8.8s-8.8-3.9-8.8-8.8s3.9-8.8,8.8-8.8S69.3,16.6,69.3,21.5L69.3,21.5z"/>
				<path class="st3" d="M95.5,21.5c0,4.8-3.9,8.8-8.8,8.8c-4.8,0-8.8-3.9-8.8-8.8s3.9-8.8,8.8-8.8C91.7,12.7,95.5,16.6,95.5,21.5
					L95.5,21.5z"/>
				<path class="st4" d="M121.9,21.5c0,4.8-3.9,8.8-8.8,8.8s-8.8-3.9-8.8-8.8s3.9-8.8,8.8-8.8S121.9,16.6,121.9,21.5L121.9,21.5z"/>
			</g>
			<g>
				<path class="st5" d="M204.3,24.7l2.2-9.6h3.1L205.8,29h-2.6l-3-9.6l-3,9.6h-2.6l-3.8-13.9h3.1l2.3,9.5l2.9-9.5h2.4L204.3,24.7z"
					/>
				<path class="st5" d="M223.9,24.7l2.2-9.6h3.1L225.4,29h-2.6l-3-9.6l-3,9.6h-2.6l-3.8-14h3.1l2.3,9.5l2.9-9.5h2.4L223.9,24.7z"/>
				<path class="st5" d="M243.4,24.7l2.2-9.6h3.1L244.9,29h-2.6l-3-9.6l-3,9.6h-2.6L230,15.1h3.1l2.3,9.5l2.9-9.5h2.4L243.4,24.7z"
					/>
			</g>
		</g>
		<g>
			<g>
				<g>
					<g>
						<g>
							<defs>
								
									<rect id="SVGID_1_" x="23.6" y="56.9" transform="matrix(0.9199 -0.3921 0.3921 0.9199 -25.3312 21.1322)" width="30.9" height="31.5"/>
							</defs>
							<clipPath id="SVGID_2_">
								<use xlink:href="#SVGID_1_"  style="overflow:visible;"/>
							</clipPath>
							<path class="st6" d="M55.7,73.8c-0.1,0-0.2-0.1-0.3-0.1l-7.4-1c-0.6-0.1-1,0.4-1,1c0,0.6,0.4,1.2,1,1.2l4.7,0.6
								c-3.2,2-7.1,2.8-7.2,2.8C34.9,80.6,24.1,74.7,21.5,65c-0.2-0.6-0.7-1-1.3-0.9c-0.1,0-0.1,0-0.1,0.1c-0.4,0.2-0.7,0.7-0.5,1.3
								c3,10.9,14.9,17.7,26.5,15c0.2,0,4-0.8,7.4-2.8l-1.2,3.9c-0.2,0.6,0.1,1.2,0.6,1.5c0.5,0.3,1.1,0,1.3-0.6l2.3-7.3l0,0
								c0-0.1,0-0.2,0-0.4l0,0c0-0.1,0-0.2-0.1-0.3l0,0v-0.1c0-0.1-0.1-0.2-0.2-0.2c0,0,0-0.1-0.1-0.1C55.9,74,55.8,73.9,55.7,73.8
								L55.7,73.8L55.7,73.8L55.7,73.8z"/>
						</g>
					</g>
				</g>
			</g>
			<g>
				<path class="st7" d="M10.2,51l0.1,0.3c0.2,0.6,0.3,1.1,0.5,1.3c0.1,0.3,0.3,0.9,0.6,1.6c0.5,1.5,1,2.6,1.4,3.3
					c0.4,0.7,0.7,1.2,0.9,1.4c0.4,0.3,0.6,0.6,0.8,0.8c0.1,0.2,0.2,0.3,0.2,0.5s-0.1,0.4-0.2,0.6c-0.1,0.2-0.3,0.2-0.5,0.2
					c-0.3,0-0.7-0.3-1.2-0.9c-0.5-0.6-0.9-1.3-1.2-2c-0.4-0.9-0.6-1.4-0.7-1.4c-0.2,0-0.7,0.1-1.3,0.2c-0.7,0.1-1.3,0.3-2,0.5
					c-0.4,0.1-0.7,0.2-0.9,0.2c-0.1,0-0.2,0-0.3,0s-0.1,0-0.2,0c-0.2,0-0.5,0.5-1,1.4s-0.9,1.4-1.2,1.4c-0.1,0-0.3-0.1-0.5-0.2
					c-0.1-0.3-0.2-0.4-0.2-0.6c0-0.2,0.2-0.6,0.7-1.3c0.8-1.2,1.4-2,1.8-2.6c0.4-0.6,0.9-1.5,1.5-2.6c1.1-2,1.8-3.1,2.2-3.1
					c0.2,0,0.4,0,0.5,0.1c0.1,0.1,0.2,0.1,0.2,0.2s0,0.2,0,0.3C10.3,50.8,10.3,50.9,10.2,51z M10.7,55.7c0-0.1-0.3-0.8-0.8-2.1
					c-0.4-1.1-0.6-1.7-0.7-1.7c-0.2,0.5-0.6,1.2-1.2,2.3s-1,1.8-1.2,2.2c0.1-0.1,0.3-0.1,0.8-0.2c0.3,0,0.6-0.1,0.9-0.1
					C9.6,55.8,10.3,55.7,10.7,55.7z"/>
				<path class="st7" d="M20.3,56c0-0.1,0.1-0.6,0.2-1.6c0.1-0.8,0.3-1.2,0.8-1.2c0.4,0,0.5,0.2,0.5,0.5c0,0.1,0,0.3-0.1,0.5
					c-0.3,1.4-0.5,2.5-0.5,3.5s0.2,1.7,0.5,2c0.2,0.2,0.3,0.3,0.3,0.4s-0.1,0.2-0.3,0.3c-0.2,0.1-0.3,0.1-0.5,0.1c-0.7,0-1-1-1-3.1
					c0-0.1-0.1-0.2-0.2-0.2c-0.4,0-0.9,0-1.5,0.1c-0.6,0-1,0.1-1.3,0.2c-0.3,0.1-0.4,0.1-0.5,0.2c-0.1,0.1-0.1,0.2-0.2,0.5
					c0,0.3-0.1,0.6-0.1,0.8v0.8c0,0.5-0.2,0.7-0.6,0.7s-0.5-0.2-0.5-0.7c0-0.3,0-0.7,0.1-1.2c0.1-0.9,0.3-2.3,0.4-4.3
					c0-0.3,0-0.4,0.1-0.5c0.1-0.1,0.1-0.2,0.2-0.2c0.1-0.1,0.3-0.1,0.4-0.1c0.3,0,0.5,0.1,0.5,0.4c0,0,0,0.4-0.2,1
					c-0.1,0.6-0.2,1.1-0.2,1.4c0,0.2,0.1,0.4,0.2,0.4c0.3,0,0.9-0.1,1.8-0.2C19.8,56.2,20.3,56.1,20.3,56z"/>
				<path class="st7" d="M27.7,57.8c-0.6,0.8-1.2,1.4-1.8,1.8c-0.6,0.4-1.1,0.6-1.6,0.6c-0.3,0-0.6-0.1-0.9-0.4
					c-0.3-0.3-0.4-0.6-0.4-1.1c0-1.1,0.5-2.4,1.5-3.6c1-1.3,2-2,3-2c0.4,0,0.6,0.2,0.8,0.6c0.1,0.1,0.1,0.2,0.3,0.2
					c0.3,0,0.5,0.1,0.5,0.4c0,0.1,0,0.3-0.1,0.6c-0.2,1.3-0.4,2.2-0.4,2.7c0,1.1,0.2,1.7,0.6,1.9c0.2,0.1,0.3,0.2,0.3,0.4
					c0,0.1-0.1,0.3-0.3,0.4c-0.2,0.1-0.4,0.2-0.5,0.2c-0.3,0-0.6-0.2-0.8-0.7S27.7,58.6,27.7,57.8z M27.3,54.2c-0.6,0-1.2,0.5-2,1.6
					c-0.8,1.1-1.1,2-1.1,2.7c0,0.5,0.2,0.8,0.5,0.8c0.5,0,1.1-0.5,2-1.4c0.8-1,1.3-1.9,1.3-2.7C27.9,54.5,27.7,54.2,27.3,54.2z"/>
				<path class="st7" d="M34.7,54.9c-0.1,0-0.2,0.1-0.3,0.3c-0.9,1.8-1.6,3-2,3.6c0,0.1-0.1,0.1-0.1,0.2c-0.5,1-0.9,1.5-1.2,1.5
					c-0.3,0-0.5-0.2-0.5-0.5c0-0.3,0.2-0.7,0.6-1.2c0.4-0.5,0.9-1.3,1.6-2.5c0.7-1.2,1.2-2.2,1.6-3.1c0.1-0.2,0.2-0.2,0.4-0.2
					c0.1,0,0.2,0,0.3,0.1c0.1,0.1,0.3,0.1,0.3,0.2c0,0.1,0.2,0.5,0.3,1.2c0.5,2.7,1.1,4.1,1.7,4.6c0.1,0.1,0.2,0.2,0.2,0.2
					s0,0.1,0,0.2s0,0.3-0.1,0.4c-0.1,0.1-0.2,0.2-0.3,0.2c-0.1,0-0.3,0-0.5,0c-0.1,0-0.3-0.2-0.6-0.7c-0.3-0.4-0.7-1.7-1.2-3.6
					C34.9,55.5,34.8,55.1,34.7,54.9z"/>
				<path class="st7" d="M43.5,57.3c-0.6,0.9-1.1,1.7-1.7,2.2c-0.6,0.5-1.1,0.8-1.6,0.8c-0.3,0-0.6-0.2-0.9-0.5
					c-0.3-0.3-0.4-0.8-0.4-1.5c0-0.6,0.1-1.4,0.4-2.5c0.2-0.9,0.3-1.6,0.3-2c0.1-0.3,0.3-0.4,0.6-0.4c0.2,0,0.3,0.1,0.4,0.2
					c0.1,0.1,0.2,0.3,0.2,0.4c0,0.3-0.1,0.7-0.3,1.3c-0.4,1.1-0.6,2-0.6,2.8c0,0.7,0.2,1.1,0.5,1.1c0.4,0,1-0.4,1.6-1.1
					c0.6-0.7,1.2-1.7,1.7-3c0.2-0.5,0.3-0.8,0.4-1c0.1-0.2,0.3-0.2,0.5-0.2c0.3,0,0.4,0.2,0.4,0.6c0,0,0,0.2-0.1,0.5
					c-0.3,1-0.4,1.9-0.4,2.7c0,1,0.2,1.7,0.5,2c0.2,0.2,0.3,0.3,0.3,0.4c0,0.1-0.1,0.2-0.3,0.3c-0.2,0.1-0.3,0.1-0.5,0.1
					c-0.3,0-0.5-0.2-0.7-0.7c-0.2-0.5-0.3-1.1-0.3-2v-0.2C43.5,57.5,43.5,57.4,43.5,57.3z"/>
				<path class="st7" d="M50.1,56.2c0.6,0.1,1,0.3,1.3,0.6c0.3,0.3,0.5,0.7,0.5,1.2c0,0.7-0.3,1.3-0.9,1.8c-0.6,0.5-1.4,0.7-2.5,0.7
					c-0.6,0-1.1-0.1-1.6-0.4c-0.4-0.3-0.7-0.5-0.7-0.9c0-0.3,0.2-0.4,0.5-0.4c0,0,0.1,0,0.2,0.1c0.5,0.4,1,0.6,1.7,0.6
					c0.6,0,1.1-0.2,1.5-0.5c0.4-0.3,0.6-0.7,0.6-1.2c0-0.3-0.1-0.6-0.4-0.8c-0.2-0.2-0.5-0.3-0.8-0.3c-0.2,0-0.7,0.1-1.3,0.3
					c-0.1,0-0.2,0.1-0.4,0.1c-0.3,0-0.4-0.2-0.4-0.5c0-0.1,0.1-0.2,0.2-0.3c0.1-0.1,0.4-0.2,0.8-0.3c1.2-0.3,1.9-0.8,1.9-1.5
					c0-0.2-0.1-0.4-0.2-0.5c-0.1-0.1-0.4-0.2-0.6-0.2c-0.5,0-0.9,0.2-1.4,0.6c-0.3,0.2-0.5,0.4-0.7,0.4c-0.3,0-0.4-0.1-0.4-0.4
					c0-0.3,0.3-0.7,0.9-1c0.6-0.3,1.2-0.5,1.8-0.5s1,0.1,1.3,0.4c0.3,0.3,0.5,0.6,0.5,0.9C51.5,55.2,51.1,55.8,50.1,56.2z"/>
			</g>
		</g>
		<g>
			<g>
				<g>
					<g>
						<g>
							<defs>
								
									<rect id="SVGID_3_" x="249.1" y="109.7" transform="matrix(0.3921 -0.9199 0.9199 0.3921 45.9421 319.7065)" width="31.5" height="30.9"/>
							</defs>
							<clipPath id="SVGID_4_">
								<use xlink:href="#SVGID_3_"  style="overflow:visible;"/>
							</clipPath>
							<path class="st8" d="M248.4,126.3L248.4,126.3L248.4,126.3c-0.1,0.1-0.2,0.1-0.3,0.2l-0.1,0.1c-0.1,0.1-0.1,0.2-0.2,0.2v0.1
								l0,0c0,0.1-0.1,0.2-0.1,0.3l0,0c0,0.1,0,0.2,0,0.4l0,0l2.3,7.3c0.2,0.6,0.7,0.8,1.3,0.6c0.5-0.3,0.8-0.9,0.6-1.5l-1.2-3.9
								c3.4,2,7.2,2.8,7.4,2.8c11.6,2.7,23.6-4,26.5-15c0.2-0.5-0.1-1.1-0.5-1.3c0,0-0.1,0-0.1-0.1c-0.5-0.1-1.1,0.3-1.3,0.9
								c-2.7,9.7-13.4,15.7-24.1,13.2c-0.1,0-3.9-0.8-7.2-2.8l4.7-0.6c0.6-0.1,1-0.6,1-1.2c0-0.6-0.5-1-1-1l-7.4,1
								C248.6,126.2,248.5,126.2,248.4,126.3L248.4,126.3z"/>
						</g>
					</g>
				</g>
			</g>
			<g>
				<path class="st7" d="M262.7,103.8c0.1,0,0.3,0.1,0.6,0.1c0.7,0.1,1.3,0.3,1.9,0.6c0.6,0.3,1,0.6,1.1,1.1
					c0.2,0.5,0.3,0.9,0.3,1.2c0,0.4-0.1,0.9-0.4,1.4c-0.3,0.6-0.9,1.2-1.8,1.9c-0.9,0.7-1.8,1.2-2.6,1.5c-0.1,0.1-0.2,0.3-0.2,0.7
					c0,0.2,0,0.4,0.1,0.5c0.1,0.2,0.1,0.3,0.1,0.4s-0.1,0.3-0.2,0.5c-0.2,0.2-0.3,0.3-0.4,0.3c-0.2,0-0.4-0.1-0.5-0.2
					c-0.1-0.1-0.2-0.4-0.2-0.8v-0.2c0-0.4-0.1-0.6-0.3-0.6c0,0-0.2,0-0.6,0c-0.3,0-0.5,0-0.6,0c-0.9,0-1.6-0.2-2.1-0.7
					c-0.5-0.5-0.7-1.2-0.7-2.1c0-0.7,0.2-1.4,0.6-2.1c0.4-0.8,1-1.4,1.6-1.9c0.6-0.5,1.5-1,2.6-1.4c0.2-0.1,0.3-0.1,0.3-0.2
					c0-0.1,0.1-0.2,0.1-0.3c0-0.1,0-0.4,0-0.9c0-0.4,0.1-0.7,0.2-0.8c0.1-0.1,0.3-0.2,0.4-0.2h0.2c0.2,0,0.3,0.2,0.3,0.7
					c0,0.1,0,0.4-0.1,0.8C262.6,103.5,262.6,103.8,262.7,103.8z M261,105.2c-0.3,0-0.7,0.2-1.3,0.6c-0.6,0.4-1.2,1-1.6,1.8
					c-0.4,0.8-0.6,1.5-0.6,2c0,0.5,0.2,0.9,0.6,1.2s0.9,0.5,1.5,0.5c0.1,0,0.3,0,0.5-0.1c0.2,0,0.4-0.1,0.4-0.1c0.1,0,0.1,0,0.1-0.1
					c0,0,0-0.2,0.1-0.6c0-0.4,0.1-0.8,0.1-1.3l0.1-1.3c0-0.5,0.1-1.1,0.3-1.9c0-0.3,0.1-0.5,0.1-0.5s0-0.1-0.1-0.1
					C261.1,105.3,261,105.2,261,105.2z M261.7,110.6c0.4-0.1,1.1-0.5,2.2-1.2c1.1-0.7,1.6-1.7,1.6-2.8c0-0.6-0.3-1.1-1-1.4
					c-0.7-0.3-1.3-0.5-1.8-0.5c-0.1,0-0.2,0.1-0.3,0.2c-0.1,0.1-0.2,1-0.5,2.5c-0.3,1.5-0.3,2.5-0.3,2.9
					C261.6,110.4,261.6,110.6,261.7,110.6z"/>
				<path class="st7" d="M272.3,109.8c-0.6,0.9-1.1,1.7-1.7,2.2s-1.1,0.8-1.6,0.8c-0.3,0-0.6-0.2-0.9-0.5s-0.4-0.8-0.4-1.5
					c0-0.6,0.1-1.4,0.4-2.5c0.2-0.9,0.3-1.6,0.3-2c0.1-0.3,0.3-0.4,0.6-0.4c0.2,0,0.3,0.1,0.4,0.2c0.1,0.1,0.2,0.3,0.2,0.4
					c0,0.3-0.1,0.7-0.3,1.3c-0.4,1.1-0.6,2-0.6,2.8c0,0.7,0.2,1.1,0.5,1.1c0.4,0,1-0.4,1.6-1.1c0.6-0.7,1.2-1.7,1.7-3
					c0.2-0.5,0.3-0.8,0.4-1c0.1-0.2,0.3-0.2,0.5-0.2c0.3,0,0.4,0.2,0.4,0.6c0,0,0,0.2-0.1,0.5c-0.3,1-0.4,1.9-0.4,2.7
					c0,1,0.2,1.7,0.5,2c0.2,0.2,0.3,0.3,0.3,0.4c0,0.1-0.1,0.2-0.3,0.3c-0.2,0.1-0.3,0.1-0.5,0.1c-0.3,0-0.5-0.2-0.7-0.7
					s-0.3-1.1-0.3-2v-0.2C272.3,109.9,272.3,109.9,272.3,109.8z"/>
				<path class="st7" d="M279.4,107.3c-0.1,0-0.2,0.1-0.3,0.3c-0.9,1.8-1.6,3-2,3.6c0,0.1-0.1,0.1-0.1,0.2c-0.5,1-0.9,1.5-1.2,1.5
					c-0.3,0-0.5-0.2-0.5-0.5c0-0.3,0.2-0.7,0.6-1.2c0.4-0.5,0.9-1.3,1.6-2.5c0.7-1.2,1.2-2.2,1.6-3.1c0.1-0.2,0.2-0.2,0.4-0.2
					c0.1,0,0.2,0,0.3,0.1c0.1,0.1,0.3,0.1,0.3,0.2s0.2,0.5,0.3,1.2c0.5,2.7,1.1,4.1,1.7,4.6c0.1,0.1,0.2,0.2,0.2,0.2s0,0.1,0,0.2
					c0,0.1,0,0.3-0.1,0.4c-0.1,0.1-0.2,0.2-0.3,0.2c-0.1,0-0.3,0-0.5,0c-0.1,0-0.3-0.2-0.6-0.7c-0.3-0.4-0.7-1.7-1.2-3.6
					C279.6,107.9,279.5,107.5,279.4,107.3z"/>
				<path class="st7" d="M285.2,105.3c0.1,0,0.1-0.1,0.2-0.1c0.1,0,0.2,0.1,0.3,0.4c0,0.2-0.1,0.4-0.2,0.7c-0.3,0.8-0.4,1.4-0.4,1.7
					c0,0.1,0,0.1,0.1,0.1c1-1,1.9-1.4,2.8-1.4c0.5,0,1,0.2,1.3,0.6c0.4,0.4,0.5,0.8,0.5,1.1c0,1-0.5,2-1.5,2.9
					c-1,0.9-2.1,1.4-3.1,1.4c-0.5,0-0.8-0.2-1.1-0.6c-0.3-0.4-0.4-0.9-0.4-1.7c0-0.8,0.1-1.6,0.3-2.6c0.2-0.9,0.4-1.6,0.5-1.9
					c0-0.1,0.1-0.3,0.1-0.4C284.6,105.6,284.8,105.4,285.2,105.3z M284.9,109.3c-0.1,0.5-0.1,1-0.1,1.4c0,0.7,0.3,1,0.8,1
					c0.6,0,1.2-0.3,2-1c0.7-0.7,1.1-1.4,1.1-2c0-0.3-0.1-0.5-0.2-0.7c-0.1-0.2-0.3-0.3-0.6-0.3s-0.7,0.1-1,0.3
					c-0.3,0.2-0.7,0.4-1.1,0.8c-0.2,0.1-0.3,0.3-0.4,0.3C285.2,109.2,285.1,109.3,284.9,109.3z"/>
				<path class="st7" d="M295.8,107.5c-0.4,0-1.3,1.2-2.6,3.5c-0.4,0.8-0.7,1.2-0.8,1.3c-0.1,0.1-0.2,0.1-0.4,0.2
					c-0.2,0.1-0.4,0.1-0.5,0.1c-0.3,0-0.4-0.6-0.4-1.7c0-0.6,0.1-1.8,0.4-3.5c0.1-0.7,0.2-1.2,0.2-1.5c0-0.3,0.1-0.4,0.4-0.4
					c0.5,0,0.7,0.3,0.7,1c0,0.3-0.1,1-0.2,1.9c-0.2,1.1-0.3,1.7-0.3,2c0.3-0.3,0.7-0.8,1.2-1.7c0.7-1.2,1.3-2,1.6-2.3
					c0.3-0.3,0.7-0.5,1.1-0.5c0.3,0,0.5,0.2,0.7,0.6s0.3,1.3,0.3,2.7c0,0.4,0,0.6,0.1,0.8c0.1,0.2,0.1,0.3,0.1,0.3
					c0.2,0,0.6-0.7,1.3-2.1c0.4-0.7,0.7-1.3,1.1-1.7c0.3-0.4,0.7-0.6,1.2-0.6c0.4,0,0.6,0.2,0.8,0.5c0.2,0.4,0.3,0.9,0.3,1.6
					c0.1,0.7,0.2,1.4,0.3,2c0.1,0.6,0.4,1,0.8,1.2c0.2,0.1,0.4,0.3,0.4,0.4c0,0.2-0.1,0.3-0.3,0.5c-0.2,0.2-0.4,0.2-0.6,0.2
					c-0.3,0-0.7-0.2-0.9-0.6c-0.3-0.4-0.5-1.3-0.6-2.8c-0.1-0.6-0.1-1-0.2-1.2c-0.1-0.2-0.1-0.4-0.3-0.4c-0.2,0-0.4,0.2-0.6,0.5
					c-0.3,0.3-0.7,1.1-1.2,2.1c-0.4,0.8-0.8,1.4-1,1.7s-0.4,0.4-0.6,0.4c-0.2,0-0.4-0.1-0.5-0.2c-0.1-0.1-0.2-0.3-0.3-0.5
					c-0.1-0.2-0.1-0.7-0.1-1.6C296.1,108.5,296,107.7,295.8,107.5z"/>
				<path class="st7" d="M305.8,111.9c-0.2,0.8-0.4,1.9-0.6,3.3l-0.2,1.2c0,0.2-0.1,0.3-0.2,0.5c-0.1,0.2-0.3,0.3-0.4,0.3
					c-0.1,0-0.3-0.1-0.5-0.2s-0.3-0.2-0.3-0.3c0-0.2,0.1-0.6,0.2-1c0.8-3.2,1.2-5.9,1.2-8.4v-0.5c0-0.5,0.1-0.8,0.2-1
					c0.1-0.2,0.4-0.3,0.6-0.3c0.1,0,0.2,0.1,0.3,0.2c0.1,0.2,0.1,0.4,0.1,0.7c0,0.4,0,0.9-0.1,1.5c-0.1,0.8-0.2,1.2-0.2,1.3
					c0.6-1.1,1.3-2,2.1-2.6c0.7-0.6,1.4-1,2-1c0.4,0,0.8,0.2,1.1,0.5c0.3,0.3,0.5,0.7,0.5,1.2c0,1.4-0.5,2.7-1.6,3.8
					c-1.1,1.2-2.1,1.7-3.2,1.7c-0.3,0-0.5-0.1-0.6-0.2C306.1,112.5,305.9,112.2,305.8,111.9z M309.7,106.7c-0.6,0-1.4,0.6-2.3,1.7
					c-0.9,1.1-1.4,2-1.4,2.7c0,0.2,0.1,0.3,0.3,0.5c0.2,0.1,0.4,0.2,0.7,0.2c0.6,0,1.3-0.5,2.1-1.4c0.8-0.9,1.2-1.8,1.2-2.7
					c0-0.3-0.1-0.6-0.2-0.7C310.1,106.8,309.9,106.7,309.7,106.7z"/>
			</g>
		</g>
	</g>
	<g>
		<g>
			<rect x="58.1" y="46.4" class="st9" width="59.7" height="13.8"/>
			<rect x="166.1" y="46.4" class="st9" width="79.8" height="13.8"/>
			<rect x="122.2" y="46.4" class="st9" width="39" height="13.8"/>
			<g>
				<rect x="58.4" y="65.1" class="st9" width="128.2" height="35"/>
			</g>
			<g>
				<rect x="192.2" y="64.8" class="st10" width="53.2" height="34.4"/>
			</g>
			<g>
				<rect x="58.4" y="105" class="st1" width="128.2" height="1.4"/>
			</g>
			<g>
				<rect x="58.4" y="108.6" class="st1" width="128.2" height="1.4"/>
			</g>
			<g>
				<rect x="58.4" y="112.3" class="st1" width="128.2" height="1.4"/>
			</g>
			<g>
				<rect x="58.4" y="115.9" class="st1" width="128.2" height="1.4"/>
			</g>
			<g>
				<rect x="58.4" y="119.5" class="st1" width="128.2" height="1.4"/>
			</g>
			<g>
				<rect x="58.4" y="123.2" class="st1" width="128.2" height="1.4"/>
			</g>
			<g>
				<rect x="58.4" y="126.8" class="st1" width="128.2" height="1.4"/>
			</g>
			<g>
				<rect x="58.4" y="130.4" class="st1" width="128.2" height="1.4"/>
			</g>
			<g>
				<rect x="58.4" y="134.1" class="st1" width="128.2" height="1.4"/>
			</g>
			<g>
				<rect x="58.4" y="137.7" class="st1" width="128.2" height="1.4"/>
			</g>
			<g>
				<rect x="192.2" y="104.7" class="st10" width="53.2" height="34.4"/>
			</g>
		</g>
	</g>
</g>
</svg>
