<?xml version="1.0" encoding="utf-8"?>
<!-- Generator: Adobe Illustrator 23.0.1, SVG Export Plug-In . SVG Version: 6.00 Build 0)  -->
<svg version="1.1" id="Слой_1" xmlns="http://www.w3.org/2000/svg" xmlns:xlink="http://www.w3.org/1999/xlink" x="0px" y="0px"
	 viewBox="0 0 316 146" style="enable-background:new 0 0 316 146;" xml:space="preserve">
<style type="text/css">
	.st0{fill:#EBEFF0;}
	.st1{fill:#AFB6BB;}
	.st2{fill:#656D78;}
	.st3{fill:#28384C;}
	.st4{fill:#FBCB18;}
	.st5{fill:#FFFFFF;}
	.st6{fill:#E84C4F;}
	.st7{fill:#5C95E9;}
	.st8{fill:#57B36E;}
</style>
<g>
	<path class="st0" d="M191.6,145.3h-67.1c-2.9,0-5.2-2.3-5.2-5.2l0,0c0-2.9,2.3-5.2,5.2-5.2h67.1c2.9,0,5.2,2.3,5.2,5.2l0,0
		C196.7,143,194.4,145.3,191.6,145.3z"/>
	<path class="st1" d="M170.9,114.3v-5.2h-25.8v5.2c0,11.4-4.1,20.7-15.5,20.7h56.8C175,135,170.9,125.7,170.9,114.3z"/>
	<path class="st0" d="M225.1,114.3H90.9c-4.3,0-7.7-3.5-7.7-7.7V91.1h149.7v15.5C232.9,110.8,229.4,114.3,225.1,114.3z"/>
	<path class="st1" d="M165.7,106.6h-15.5c-1.4,0-2.6-1.2-2.6-2.6c0-1.4,1.2-2.6,2.6-2.6h15.5c1.4,0,2.6,1.2,2.6,2.6
		C168.3,105.4,167.2,106.6,165.7,106.6z"/>
	<path class="st2" d="M212.2,0.7H103.8H90.9c-4.3,0-7.7,3.5-7.7,7.7v85.2h20.7h38.7h31h38.7h20.7V8.5c0-4.3-3.5-7.7-7.7-7.7
		L212.2,0.7L212.2,0.7z"/>
	<rect x="152.8" y="11" class="st3" width="69.7" height="82.6"/>
	<rect x="93.5" y="11" class="st4" width="64.5" height="82.6"/>
	<g>
		<path class="st5" d="M121.9,85.9c-0.4,0-0.8-0.1-1.2-0.3c-1.3-0.6-1.8-2.2-1.2-3.5l7.7-15.5c0.6-1.3,2.2-1.8,3.5-1.2
			c1.3,0.6,1.8,2.2,1.2,3.5l-7.7,15.5C123.7,85.4,122.8,85.9,121.9,85.9z"/>
		<path class="st5" d="M103.8,78.2c-0.7,0-1.3-0.3-1.8-0.8c-1-1-1-2.6,0-3.7l7.7-7.7c1-1,2.6-1,3.7,0c1,1,1,2.6,0,3.7l-7.7,7.7
			C105.1,77.9,104.4,78.2,103.8,78.2z"/>
		<path class="st5" d="M111.5,85.9c-0.7,0-1.3-0.3-1.8-0.8l-7.7-7.7c-1-1-1-2.6,0-3.7c1-1,2.6-1,3.7,0l7.7,7.7c1,1,1,2.6,0,3.7
			C112.9,85.7,112.2,85.9,111.5,85.9z"/>
		<path class="st5" d="M147.7,78.2c-0.7,0-1.3-0.3-1.8-0.8l-7.7-7.7c-1-1-1-2.6,0-3.7c1-1,2.6-1,3.7,0l7.7,7.7c1,1,1,2.6,0,3.7
			C149,77.9,148.3,78.2,147.7,78.2z"/>
		<path class="st5" d="M139.9,85.9c-0.7,0-1.3-0.3-1.8-0.8c-1-1-1-2.6,0-3.7l7.7-7.7c1-1,2.6-1,3.7,0c1,1,1,2.6,0,3.7l-7.7,7.7
			C141.3,85.7,140.6,85.9,139.9,85.9z"/>
		<path class="st5" d="M127,42c-1.4,0-2.6-1.2-2.6-2.6V21.4c0-1.4,1.2-2.6,2.6-2.6s2.6,1.2,2.6,2.6v18.1C129.6,40.9,128.4,42,127,42
			z"/>
		<path class="st5" d="M127,57.5c-1.4,0-2.6-1.2-2.6-2.6v-5.2c0-1.4,1.2-2.6,2.6-2.6s2.6,1.2,2.6,2.6v5.2
			C129.6,56.4,128.4,57.5,127,57.5z"/>
	</g>
	<path class="st6" d="M194.1,24h-25.8c-1.4,0-2.6-1.2-2.6-2.6s1.2-2.6,2.6-2.6h25.8c1.4,0,2.6,1.2,2.6,2.6
		C196.7,22.8,195.6,24,194.1,24z"/>
	<path class="st7" d="M212.2,24h-7.7c-1.4,0-2.6-1.2-2.6-2.6s1.2-2.6,2.6-2.6h7.7c1.4,0,2.6,1.2,2.6,2.6
		C214.8,22.8,213.6,24,212.2,24z"/>
	<path class="st7" d="M212.2,34.3h-25.8c-1.4,0-2.6-1.2-2.6-2.6c0-1.4,1.2-2.6,2.6-2.6h25.8c1.4,0,2.6,1.2,2.6,2.6
		S213.6,34.3,212.2,34.3z"/>
	<path class="st7" d="M176.1,34.3h-7.7c-1.4,0-2.6-1.2-2.6-2.6c0-1.4,1.2-2.6,2.6-2.6h7.7c1.4,0,2.6,1.2,2.6,2.6
		S177.5,34.3,176.1,34.3z"/>
	<path class="st8" d="M194.1,44.6h-25.8c-1.4,0-2.6-1.2-2.6-2.6c0-1.4,1.2-2.6,2.6-2.6h25.8c1.4,0,2.6,1.2,2.6,2.6
		C196.7,43.4,195.6,44.6,194.1,44.6z"/>
	<path class="st6" d="M212.2,44.6h-7.7c-1.4,0-2.6-1.2-2.6-2.6c0-1.4,1.2-2.6,2.6-2.6h7.7c1.4,0,2.6,1.2,2.6,2.6
		C214.8,43.4,213.6,44.6,212.2,44.6z"/>
	<path class="st6" d="M212.2,54.9h-25.8c-1.4,0-2.6-1.2-2.6-2.6c0-1.4,1.2-2.6,2.6-2.6h25.8c1.4,0,2.6,1.2,2.6,2.6
		C214.8,53.8,213.6,54.9,212.2,54.9z"/>
	<path class="st4" d="M176.1,54.9h-7.7c-1.4,0-2.6-1.2-2.6-2.6c0-1.4,1.2-2.6,2.6-2.6h7.7c1.4,0,2.6,1.2,2.6,2.6
		C178.7,53.8,177.5,54.9,176.1,54.9z"/>
	<path class="st8" d="M212.2,85.9h-25.8c-1.4,0-2.6-1.2-2.6-2.6c0-1.4,1.2-2.6,2.6-2.6h25.8c1.4,0,2.6,1.2,2.6,2.6
		C214.8,84.8,213.6,85.9,212.2,85.9z"/>
	<path class="st6" d="M176.1,85.9h-7.7c-1.4,0-2.6-1.2-2.6-2.6c0-1.4,1.2-2.6,2.6-2.6h7.7c1.4,0,2.6,1.2,2.6,2.6
		C178.7,84.8,177.5,85.9,176.1,85.9z"/>
	<path class="st8" d="M194.1,65.3h-25.8c-1.4,0-2.6-1.2-2.6-2.6s1.2-2.6,2.6-2.6h25.8c1.4,0,2.6,1.2,2.6,2.6
		C196.7,64.1,195.6,65.3,194.1,65.3z"/>
	<path class="st4" d="M212.2,65.3h-7.7c-1.4,0-2.6-1.2-2.6-2.6s1.2-2.6,2.6-2.6h7.7c1.4,0,2.6,1.2,2.6,2.6
		C214.8,64.1,213.6,65.3,212.2,65.3z"/>
	<path class="st4" d="M212.2,75.6h-25.8c-1.4,0-2.6-1.2-2.6-2.6s1.2-2.6,2.6-2.6h25.8c1.4,0,2.6,1.2,2.6,2.6
		C214.8,74.4,213.6,75.6,212.2,75.6z"/>
	<path class="st6" d="M176.1,75.6h-7.7c-1.4,0-2.6-1.2-2.6-2.6s1.2-2.6,2.6-2.6h7.7c1.4,0,2.6,1.2,2.6,2.6
		C178.7,74.4,177.5,75.6,176.1,75.6z"/>
</g>
</svg>
