<?xml version="1.0" encoding="utf-8"?>
<!-- Generator: Adobe Illustrator 23.0.1, SVG Export Plug-In . SVG Version: 6.00 Build 0)  -->
<svg version="1.1" id="Слой_1" xmlns="http://www.w3.org/2000/svg" xmlns:xlink="http://www.w3.org/1999/xlink" x="0px" y="0px"
	 viewBox="0 0 316 146" style="enable-background:new 0 0 316 146;" xml:space="preserve">
<style type="text/css">
	.st0{fill:#EBEFF0;}
	.st1{fill:#656D78;}
	.st2{fill:#E84C4F;}
	.st3{fill:#FBCB18;}
	.st4{fill:#55B36E;}
	.st5{fill:#FFFFFF;}
	.st6{fill:#5C95E9;}
	.st7{fill:#5088C9;}
	.st8{clip-path:url(#SVGID_2_);fill:#556B79;}
	.st9{fill:#556B79;}
	.st10{clip-path:url(#SVGID_4_);fill:#556B79;}
	.st11{fill:#A7F4C8;}
	.st12{fill:#29CF85;}
	.st13{fill:#00AE5E;}
</style>
<g>
	<g>
		<g>
			<rect x="38.2" y="41" class="st0" width="229.3" height="103.6"/>
			<rect x="38.2" y="-0.4" class="st1" width="229.3" height="41.4"/>
			<path class="st2" d="M67.8,20.3c0,4.9-4,8.9-8.9,8.9s-8.9-4-8.9-8.9s4-8.9,8.9-8.9S67.8,15.4,67.8,20.3L67.8,20.3z"/>
			<path class="st3" d="M94.4,20.3c0,4.9-4,8.9-8.9,8.9s-8.9-4-8.9-8.9s4-8.9,8.9-8.9C90.5,11.4,94.4,15.4,94.4,20.3L94.4,20.3z"/>
			<path class="st4" d="M121.1,20.3c0,4.9-4,8.9-8.9,8.9s-8.9-4-8.9-8.9s4-8.9,8.9-8.9S121.1,15.4,121.1,20.3L121.1,20.3z"/>
		</g>
		<g>
			<path class="st5" d="M204.7,23.6l2.2-9.7h3.1L206.2,28h-2.6l-3-9.7l-3,9.7H195l-3.9-14.1h3.1l2.3,9.6l2.9-9.6h2.4L204.7,23.6z"/>
			<path class="st5" d="M224.6,23.6l2.2-9.7h3.1L226.1,28h-2.6l-3-9.7l-3,9.7h-2.6L211,13.8h3.1l2.3,9.6l2.9-9.6h2.4L224.6,23.6z"/>
			<path class="st5" d="M244.4,23.6l2.2-9.7h3.1L245.9,28h-2.6l-3-9.7l-3,9.7h-2.6l-3.9-14.1h3.1l2.3,9.6l2.9-9.6h2.4L244.4,23.6z"
				/>
		</g>
		<g>
			<path class="st1" d="M171.8,90.5c3.8,0,6.9-3.1,6.9-6.9s-3.1-6.9-6.9-6.9c-3.8,0-6.9,3.1-6.9,6.9C165,87.4,168,90.5,171.8,90.5
				L171.8,90.5z M171.8,79.5c2.3,0,4.1,1.8,4.1,4.1c0,2.3-1.8,4.1-4.1,4.1s-4.1-1.8-4.1-4.1S169.6,79.5,171.8,79.5L171.8,79.5z"/>
			<path class="st1" d="M171.8,93.2c-1.9,0-3.7,0.5-5.3,1.3c-0.7,0.4-0.9,1.2-0.6,1.9c0.4,0.7,1.2,0.9,1.9,0.6c1.2-0.7,2.6-1,4-1
				c4.3,0,7.8,3.1,8.5,7.2h-8.5c-0.8,0-1.4,0.6-1.4,1.4s0.6,1.4,1.4,1.4h10c0.8,0,1.4-0.6,1.4-1.4C183.2,98.3,178.1,93.2,171.8,93.2
				L171.8,93.2z"/>
			<path class="st1" d="M134.5,103.2h-8.6c0.7-4.1,4.2-7.2,8.5-7.2c1.4,0,2.8,0.4,4,1c0.7,0.4,1.5,0.1,1.9-0.6s0.1-1.5-0.6-1.9
				c-1.6-0.9-3.5-1.3-5.3-1.3c-6.2,0-11.3,5.1-11.3,11.3c0,0.8,0.6,1.4,1.4,1.4h10.1c0.8,0,1.4-0.6,1.4-1.4
				C135.9,103.8,135.3,103.2,134.5,103.2L134.5,103.2z"/>
			<path class="st1" d="M134.4,90.5c3.8,0,6.9-3.1,6.9-6.9s-3.1-6.9-6.9-6.9c-3.8,0-6.9,3.1-6.9,6.9
				C127.5,87.4,130.6,90.5,134.4,90.5L134.4,90.5z M134.4,79.5c2.3,0,4.1,1.8,4.1,4.1c0,2.3-1.8,4.1-4.1,4.1s-4.1-1.8-4.1-4.1
				C130.3,81.3,132.1,79.5,134.4,79.5L134.4,79.5z"/>
			<path class="st1" d="M153.1,91c4.9,0,8.8-4,8.8-8.8c0-4.9-4-8.8-8.8-8.8c-4.9,0-8.8,4-8.8,8.8S148.2,91,153.1,91L153.1,91z
				 M153.1,76c3.4,0,6.1,2.7,6.1,6.1s-2.7,6.1-6.1,6.1c-3.4,0-6.1-2.7-6.1-6.1C147,78.8,149.8,76,153.1,76L153.1,76z"/>
			<path class="st1" d="M153.1,93.7c-8.2,0-14.9,6.7-14.9,14.9c0,0.8,0.6,1.4,1.4,1.4h27.1c0.8,0,1.4-0.6,1.4-1.4
				C168,100.4,161.3,93.7,153.1,93.7L153.1,93.7z M141,107.3c0.7-6.1,5.8-10.8,12.1-10.8c6.2,0,11.4,4.7,12.1,10.8H141z"/>
			<path class="st1" d="M194.8,90.3h-3.3c-0.7-20.1-16.9-36.2-36.9-36.9V50c0-0.8-0.6-1.4-1.4-1.4c-0.8,0-1.4,0.6-1.4,1.4v3.3
				c-20.1,0.7-36.2,16.9-36.9,36.9h-3.3c-0.8,0-1.4,0.6-1.4,1.4s0.6,1.4,1.4,1.4h3.3c0.7,20.1,16.9,36.2,36.9,36.9v3.3
				c0,0.8,0.6,1.4,1.4,1.4c0.8,0,1.4-0.6,1.4-1.4V130c20.1-0.7,36.2-16.9,36.9-36.9h3.3c0.8,0,1.4-0.6,1.4-1.4
				C196.1,90.9,195.5,90.3,194.8,90.3L194.8,90.3z M154.5,127.2v-3.3c0-0.8-0.6-1.4-1.4-1.4c-0.8,0-1.4,0.6-1.4,1.4v3.3
				c-18.5-0.7-33.5-15.7-34.2-34.2h3.3c0.8,0,1.4-0.6,1.4-1.4s-0.6-1.4-1.4-1.4h-3.3c0.7-18.5,15.7-33.5,34.2-34.2v3.3
				c0,0.8,0.6,1.4,1.4,1.4c0.8,0,1.4-0.6,1.4-1.4V56c18.5,0.7,33.5,15.7,34.2,34.2h-3.3c-0.8,0-1.4,0.6-1.4,1.4s0.6,1.4,1.4,1.4h3.3
				C188,111.6,173,126.5,154.5,127.2L154.5,127.2z"/>
		</g>
		<g>
			<g>
				<path class="st4" d="M87.1,68.4c-2.6,3.1-5.4,6.5-7.2,8.4c0,0-0.1-0.1-0.1-0.1c-0.9-0.8-2-1.9-3.2-3.1l-1.9,1.9
					c2.4,2.5,4.7,4.4,5.2,4.8c0.1,0,0.1,0.1,0.1,0.1s6.3-6.9,9.2-10L87.1,68.4z"/>
				<path class="st6" d="M79.8,55.3l-8,3.2c0,0,0.7,5.3,2.5,8.9c1.6,3.1,5.2,6.7,5.6,6.9c0.4-0.2,4.2-4,5.7-7.1
					c1.8-3.6,2.3-8.7,2.3-8.7L79.8,55.3z"/>
				<path class="st6" d="M92.7,55.2l-12.9-5.5l-12.9,5.5c0,0-0.9,7.5,3.1,14.5c0.8,1.4,1.8,2.7,2.9,4l1.9-1.9
					c-0.9-1.1-1.8-2.2-2.4-3.4c-2.3-3.9-2.8-8.4-2.8-10.8c1.1-0.6,9.3-3.9,10.2-4.3c0.9,0.4,9.1,3.7,10.2,4.3c0,2-0.4,5.2-1.7,8.5
					l2.1,2.1C93.5,61.6,92.7,55.2,92.7,55.2z"/>
				<path class="st4" d="M89.1,70.4l-2-2c-2.6,3.1-5.4,6.5-7.2,8.4c0,0,0,3.6,0,3.6S86.2,73.6,89.1,70.4z"/>
				<path class="st7" d="M88.4,65.9l2.1,2.1c3-6.4,2.3-12.8,2.3-12.8l-12.9-5.5v3.4c0.9,0.4,9.1,3.7,10.2,4.3
					C90,59.4,89.7,62.7,88.4,65.9z"/>
				<path class="st7" d="M87.8,58.4c0,0-0.5,5.1-2.3,8.7c-1.6,3.1-5.4,6.9-5.7,7.1v-19L87.8,58.4z"/>
			</g>
		</g>
		<g>
			<g>
				<path class="st4" d="M235.2,125.2c-2.6,3.1-5.4,6.5-7.2,8.4c0,0-0.1-0.1-0.1-0.1c-0.9-0.8-2-1.9-3.2-3.1l-1.9,1.9
					c2.4,2.5,4.7,4.4,5.2,4.8c0.1,0,0.1,0.1,0.1,0.1s6.3-6.9,9.2-10L235.2,125.2z"/>
				<path class="st6" d="M227.9,112.1l-8,3.2c0,0,0.7,5.3,2.5,8.9c1.6,3.1,5.2,6.7,5.6,6.9c0.4-0.2,4.2-4,5.7-7.1
					c1.8-3.6,2.3-8.7,2.3-8.7L227.9,112.1z"/>
				<path class="st6" d="M240.8,112l-12.9-5.5L215,112c0,0-0.9,7.5,3.1,14.5c0.8,1.4,1.8,2.7,2.9,4l1.9-1.9
					c-0.9-1.1-1.8-2.2-2.4-3.4c-2.3-3.9-2.8-8.4-2.8-10.8c1.1-0.6,9.3-3.9,10.2-4.3c0.9,0.4,9.1,3.7,10.2,4.3c0,2-0.4,5.2-1.7,8.5
					l2.1,2.1C241.6,118.4,240.8,112,240.8,112z"/>
				<path class="st4" d="M237.2,127.2l-2-2c-2.6,3.1-5.4,6.5-7.2,8.4c0,0,0,3.6,0,3.6S234.3,130.4,237.2,127.2z"/>
				<path class="st7" d="M236.5,122.7l2.1,2.1c3-6.4,2.3-12.8,2.3-12.8l-12.9-5.5v3.4c0.9,0.4,9.1,3.7,10.2,4.3
					C238.1,116.2,237.8,119.5,236.5,122.7z"/>
				<path class="st7" d="M235.9,115.2c0,0-0.5,5.1-2.3,8.7c-1.6,3.1-5.4,6.9-5.7,7.1v-19L235.9,115.2z"/>
			</g>
		</g>
	</g>
	<g>
		<g>
			<g>
				<g>
					<g>
						<defs>
							
								<rect id="SVGID_1_" x="21.5" y="56.2" transform="matrix(0.9199 -0.3921 0.3921 0.9199 -25.3148 20.3425)" width="31.3" height="31.9"/>
						</defs>
						<clipPath id="SVGID_2_">
							<use xlink:href="#SVGID_1_"  style="overflow:visible;"/>
						</clipPath>
						<path class="st8" d="M54,73.4c-0.1,0-0.2-0.1-0.3-0.1l-7.5-1c-0.6-0.1-1,0.4-1,1s0.4,1.2,1,1.2l4.8,0.6
							c-3.2,2-7.2,2.8-7.3,2.8C32.9,80.3,22,74.3,19.3,64.5c-0.2-0.6-0.7-1-1.3-0.9c-0.1,0-0.1,0-0.1,0.1c-0.4,0.2-0.7,0.7-0.5,1.3
							c3,11.1,15.1,17.9,26.9,15.2c0.2,0,4.1-0.8,7.5-2.8l-1.2,4c-0.2,0.6,0.1,1.2,0.6,1.5s1.1,0,1.3-0.6l2.3-7.4l0,0
							c0-0.1,0-0.2,0-0.4l0,0c0-0.1,0-0.2-0.1-0.3l0,0v-0.1c0-0.1-0.1-0.2-0.2-0.2c0,0,0-0.1-0.1-0.1C54.2,73.6,54.1,73.5,54,73.4
							L54,73.4L54,73.4L54,73.4z"/>
					</g>
				</g>
			</g>
		</g>
		<g>
			<path class="st9" d="M7.9,50.3L8,50.6c0.2,0.6,0.3,1.1,0.5,1.3c0.1,0.3,0.3,0.9,0.6,1.6c0.5,1.5,1,2.6,1.4,3.3s0.7,1.2,0.9,1.4
				c0.4,0.3,0.6,0.6,0.8,0.8c0.1,0.2,0.2,0.3,0.2,0.5s-0.1,0.4-0.2,0.6c-0.1,0.2-0.3,0.2-0.5,0.2c-0.3,0-0.7-0.3-1.2-0.9
				c-0.5-0.6-0.9-1.3-1.2-2C8.9,56.5,8.7,56,8.6,56c-0.2,0-0.7,0.1-1.3,0.2c-0.7,0.1-1.3,0.3-2,0.5c-0.4,0.1-0.7,0.2-0.9,0.2
				c-0.1,0-0.2,0-0.3,0c-0.1,0-0.1,0-0.2,0c-0.2,0-0.5,0.5-1,1.4S2,59.7,1.7,59.7c-0.1,0-0.3-0.1-0.5-0.2C1.1,59.2,1,59.1,1,58.9
				c0-0.2,0.2-0.6,0.7-1.3c0.8-1.2,1.4-2,1.8-2.6s0.9-1.5,1.5-2.6c1.1-2,1.8-3.1,2.2-3.1c0.2,0,0.4,0,0.5,0.1s0.2,0.1,0.2,0.2
				c0,0.1,0,0.2,0,0.3C8,50.1,8,50.2,7.9,50.3z M8.4,55c0-0.1-0.3-0.8-0.8-2.1c-0.4-1.1-0.6-1.7-0.7-1.7c-0.2,0.5-0.6,1.2-1.2,2.3
				s-1,1.8-1.2,2.2c0.1-0.1,0.3-0.1,0.8-0.2c0.3,0,0.6-0.1,0.9-0.1C7.3,55.1,8,55,8.4,55z"/>
			<path class="st9" d="M18.1,55.3c0-0.1,0.1-0.6,0.2-1.6c0.1-0.8,0.3-1.2,0.8-1.2c0.4,0,0.5,0.2,0.5,0.5c0,0.1,0,0.3-0.1,0.5
				C19.2,54.9,19,56,19,57s0.2,1.7,0.5,2c0.2,0.2,0.3,0.3,0.3,0.4c0,0.1-0.1,0.2-0.3,0.3c-0.2,0.1-0.3,0.1-0.5,0.1c-0.7,0-1-1-1-3.1
				c0-0.1-0.1-0.2-0.2-0.2c-0.4,0-0.9,0-1.5,0.1c-0.6,0-1,0.1-1.3,0.2c-0.3,0.1-0.4,0.1-0.5,0.2s-0.1,0.2-0.2,0.5
				c0,0.3-0.1,0.6-0.1,0.8v0.8c0,0.5-0.2,0.7-0.6,0.7c-0.4,0-0.5-0.2-0.5-0.7c0-0.3,0-0.7,0.1-1.2c0.1-0.9,0.3-2.3,0.4-4.4
				c0-0.3,0-0.4,0.1-0.5s0.1-0.2,0.2-0.2c0.1-0.1,0.3-0.1,0.4-0.1c0.3,0,0.5,0.1,0.5,0.4c0,0,0,0.4-0.2,1c-0.1,0.6-0.2,1.1-0.2,1.4
				c0,0.2,0.1,0.4,0.2,0.4c0.3,0,0.9-0.1,1.8-0.2C17.6,55.5,18.1,55.4,18.1,55.3z"/>
			<path class="st9" d="M25.6,57.2C25,58,24.4,58.6,23.8,59s-1.1,0.6-1.6,0.6c-0.3,0-0.6-0.1-0.9-0.4s-0.4-0.6-0.4-1.1
				c0-1.1,0.5-2.4,1.5-3.7s2-2,3-2c0.4,0,0.6,0.2,0.8,0.6c0.1,0.1,0.1,0.2,0.3,0.2c0.3,0,0.5,0.1,0.5,0.4c0,0.1,0,0.3-0.1,0.6
				c-0.2,1.3-0.4,2.2-0.4,2.7c0,1.1,0.2,1.7,0.6,1.9c0.2,0.1,0.3,0.2,0.3,0.4c0,0.1-0.1,0.3-0.3,0.4c-0.2,0.1-0.4,0.2-0.5,0.2
				c-0.3,0-0.6-0.2-0.8-0.7S25.6,58,25.6,57.2z M25.2,53.5c-0.6,0-1.2,0.5-2,1.6s-1.1,2-1.1,2.7c0,0.5,0.2,0.8,0.5,0.8
				c0.5,0,1.1-0.5,2-1.4c0.8-1,1.3-1.9,1.3-2.7C25.8,53.8,25.6,53.5,25.2,53.5z"/>
			<path class="st9" d="M32.7,54.2c-0.1,0-0.2,0.1-0.3,0.3c-0.9,1.8-1.6,3-2,3.7c0,0.1-0.1,0.1-0.1,0.2c-0.5,1-0.9,1.5-1.2,1.5
				c-0.3,0-0.5-0.2-0.5-0.5s0.2-0.7,0.6-1.2s0.9-1.3,1.6-2.5s1.2-2.2,1.6-3.1c0.1-0.2,0.2-0.2,0.4-0.2c0.1,0,0.2,0,0.3,0.1
				s0.3,0.1,0.3,0.2s0.2,0.5,0.3,1.2c0.5,2.7,1.1,4.2,1.7,4.7c0.1,0.1,0.2,0.2,0.2,0.2s0,0.1,0,0.2c0,0.1,0,0.3-0.1,0.4
				s-0.2,0.2-0.3,0.2s-0.3,0-0.5,0c-0.1,0-0.3-0.2-0.6-0.7c-0.3-0.4-0.7-1.7-1.2-3.7C32.9,54.8,32.8,54.4,32.7,54.2z"/>
			<path class="st9" d="M41.6,56.7c-0.6,0.9-1.1,1.7-1.7,2.2c-0.6,0.5-1.1,0.8-1.6,0.8c-0.3,0-0.6-0.2-0.9-0.5
				c-0.3-0.3-0.4-0.8-0.4-1.5c0-0.6,0.1-1.4,0.4-2.5c0.2-0.9,0.3-1.6,0.3-2c0.1-0.3,0.3-0.4,0.6-0.4c0.2,0,0.3,0.1,0.4,0.2
				c0.1,0.1,0.2,0.3,0.2,0.4c0,0.3-0.1,0.7-0.3,1.3c-0.4,1.1-0.6,2-0.6,2.8c0,0.7,0.2,1.1,0.5,1.1c0.4,0,1-0.4,1.6-1.1
				s1.2-1.7,1.7-3c0.2-0.5,0.3-0.8,0.4-1s0.3-0.2,0.5-0.2c0.3,0,0.4,0.2,0.4,0.6c0,0,0,0.2-0.1,0.5c-0.3,1-0.4,1.9-0.4,2.7
				c0,1,0.2,1.7,0.5,2c0.2,0.2,0.3,0.3,0.3,0.4c0,0.1-0.1,0.2-0.3,0.3s-0.3,0.1-0.5,0.1c-0.3,0-0.5-0.2-0.7-0.7s-0.3-1.1-0.3-2V57
				C41.6,56.9,41.6,56.8,41.6,56.7z"/>
			<path class="st9" d="M48.3,55.5c0.6,0.1,1,0.3,1.3,0.6s0.5,0.7,0.5,1.2c0,0.7-0.3,1.3-0.9,1.8c-0.6,0.5-1.4,0.7-2.5,0.7
				c-0.6,0-1.1-0.1-1.6-0.4c-0.4-0.3-0.7-0.5-0.7-0.9c0-0.3,0.2-0.4,0.5-0.4c0,0,0.1,0,0.2,0.1c0.5,0.4,1,0.6,1.7,0.6
				c0.6,0,1.1-0.2,1.5-0.5s0.6-0.7,0.6-1.2c0-0.3-0.1-0.6-0.4-0.8C48.3,56.1,48,56,47.7,56c-0.2,0-0.7,0.1-1.3,0.3
				c-0.1,0-0.2,0.1-0.4,0.1c-0.3,0-0.4-0.2-0.4-0.5c0-0.1,0.1-0.2,0.2-0.3c0.1-0.1,0.4-0.2,0.8-0.3c1.2-0.3,1.9-0.8,1.9-1.5
				c0-0.2-0.1-0.4-0.2-0.5s-0.4-0.2-0.6-0.2c-0.5,0-0.9,0.2-1.4,0.6c-0.3,0.2-0.5,0.4-0.7,0.4c-0.3,0-0.4-0.1-0.4-0.4
				c0-0.3,0.3-0.7,0.9-1s1.2-0.5,1.8-0.5s1,0.1,1.3,0.4c0.3,0.3,0.5,0.6,0.5,0.9C49.8,54.5,49.3,55.1,48.3,55.5z"/>
		</g>
	</g>
	<g>
		<g>
			<g>
				<g>
					<g>
						<defs>
							
								<rect id="SVGID_3_" x="250.2" y="109.7" transform="matrix(0.3921 -0.9199 0.9199 0.3921 46.4265 321.0505)" width="31.9" height="31.3"/>
						</defs>
						<clipPath id="SVGID_4_">
							<use xlink:href="#SVGID_3_"  style="overflow:visible;"/>
						</clipPath>
						<path class="st10" d="M249.4,126.6L249.4,126.6L249.4,126.6c-0.1,0.1-0.2,0.1-0.3,0.2l-0.1,0.1c-0.1,0.1-0.1,0.2-0.2,0.2v0.1
							l0,0c0,0.1-0.1,0.2-0.1,0.3l0,0c0,0.1,0,0.2,0,0.4l0,0l2.3,7.4c0.2,0.6,0.7,0.8,1.3,0.6c0.5-0.3,0.8-0.9,0.6-1.5l-1.2-4
							c3.4,2,7.3,2.8,7.5,2.8c11.8,2.7,23.9-4.1,26.9-15.2c0.2-0.5-0.1-1.1-0.5-1.3c0,0-0.1,0-0.1-0.1c-0.5-0.1-1.1,0.3-1.3,0.9
							c-2.7,9.8-13.6,15.9-24.4,13.4c-0.1,0-4-0.8-7.3-2.8l4.8-0.6c0.6-0.1,1-0.6,1-1.2s-0.5-1-1-1l-7.5,1
							C249.6,126.5,249.5,126.5,249.4,126.6L249.4,126.6z"/>
					</g>
				</g>
			</g>
		</g>
		<g>
			<path class="st9" d="M263.9,103.8c0.1,0,0.3,0.1,0.6,0.1c0.7,0.1,1.3,0.3,1.9,0.6c0.6,0.3,1,0.6,1.1,1.1c0.2,0.5,0.3,0.9,0.3,1.2
				c0,0.4-0.1,0.9-0.4,1.4c-0.3,0.6-0.9,1.2-1.8,1.9c-0.9,0.7-1.8,1.2-2.6,1.5c-0.1,0.1-0.2,0.3-0.2,0.7c0,0.2,0,0.4,0.1,0.5
				c0.1,0.2,0.1,0.3,0.1,0.4s-0.1,0.3-0.2,0.5c-0.2,0.2-0.3,0.3-0.4,0.3c-0.2,0-0.4-0.1-0.5-0.2s-0.2-0.4-0.2-0.8v-0.2
				c0-0.4-0.1-0.6-0.3-0.6c0,0-0.2,0-0.6,0c-0.3,0-0.5,0-0.6,0c-0.9,0-1.6-0.2-2.1-0.7s-0.7-1.2-0.7-2.1c0-0.7,0.2-1.4,0.6-2.1
				c0.4-0.8,1-1.4,1.6-1.9s1.5-1,2.6-1.4c0.2-0.1,0.3-0.1,0.3-0.2s0.1-0.2,0.1-0.3c0-0.1,0-0.4,0-0.9c0-0.4,0.1-0.7,0.2-0.8
				s0.3-0.2,0.4-0.2h0.2c0.2,0,0.3,0.2,0.3,0.7c0,0.1,0,0.4-0.1,0.8C263.8,103.5,263.8,103.8,263.9,103.8z M262.2,105.2
				c-0.3,0-0.7,0.2-1.3,0.6c-0.6,0.4-1.2,1-1.6,1.8s-0.6,1.5-0.6,2s0.2,0.9,0.6,1.2s0.9,0.5,1.5,0.5c0.1,0,0.3,0,0.5-0.1
				c0.2,0,0.4-0.1,0.4-0.1c0.1,0,0.1,0,0.1-0.1c0,0,0-0.2,0.1-0.6c0-0.4,0.1-0.8,0.1-1.3l0.1-1.3c0-0.5,0.1-1.1,0.3-1.9
				c0-0.3,0.1-0.5,0.1-0.5s0-0.1-0.1-0.1S262.2,105.2,262.2,105.2z M262.9,110.7c0.4-0.1,1.1-0.5,2.2-1.2s1.6-1.7,1.6-2.8
				c0-0.6-0.3-1.1-1-1.4s-1.3-0.5-1.8-0.5c-0.1,0-0.2,0.1-0.3,0.2c-0.1,0.1-0.2,1-0.5,2.5s-0.3,2.5-0.3,2.9
				C262.8,110.5,262.8,110.7,262.9,110.7z"/>
			<path class="st9" d="M273.7,109.9c-0.6,0.9-1.1,1.7-1.7,2.2s-1.1,0.8-1.6,0.8c-0.3,0-0.6-0.2-0.9-0.5s-0.4-0.8-0.4-1.5
				c0-0.6,0.1-1.4,0.4-2.5c0.2-0.9,0.3-1.6,0.3-2c0.1-0.3,0.3-0.4,0.6-0.4c0.2,0,0.3,0.1,0.4,0.2s0.2,0.3,0.2,0.4
				c0,0.3-0.1,0.7-0.3,1.3c-0.4,1.1-0.6,2-0.6,2.8c0,0.7,0.2,1.1,0.5,1.1c0.4,0,1-0.4,1.6-1.1s1.2-1.7,1.7-3c0.2-0.5,0.3-0.8,0.4-1
				s0.3-0.2,0.5-0.2c0.3,0,0.4,0.2,0.4,0.6c0,0,0,0.2-0.1,0.5c-0.3,1-0.4,1.9-0.4,2.7c0,1,0.2,1.7,0.5,2c0.2,0.2,0.3,0.3,0.3,0.4
				s-0.1,0.2-0.3,0.3c-0.2,0.1-0.3,0.1-0.5,0.1c-0.3,0-0.5-0.2-0.7-0.7s-0.3-1.1-0.3-2v-0.2C273.7,110,273.7,110,273.7,109.9z"/>
			<path class="st9" d="M280.9,107.4c-0.1,0-0.2,0.1-0.3,0.3c-0.9,1.8-1.6,3-2,3.7c0,0.1-0.1,0.1-0.1,0.2c-0.5,1-0.9,1.5-1.2,1.5
				c-0.3,0-0.5-0.2-0.5-0.5s0.2-0.7,0.6-1.2s0.9-1.3,1.6-2.5s1.2-2.2,1.6-3.1c0.1-0.2,0.2-0.2,0.4-0.2c0.1,0,0.2,0,0.3,0.1
				s0.3,0.1,0.3,0.2s0.2,0.5,0.3,1.2c0.5,2.7,1.1,4.2,1.7,4.7c0.1,0.1,0.2,0.2,0.2,0.2s0,0.1,0,0.2s0,0.3-0.1,0.4s-0.2,0.2-0.3,0.2
				c-0.1,0-0.3,0-0.5,0c-0.1,0-0.3-0.2-0.6-0.7c-0.3-0.4-0.7-1.7-1.2-3.7C281.1,108,281,107.6,280.9,107.4z"/>
			<path class="st9" d="M286.7,105.3c0.1,0,0.1-0.1,0.2-0.1s0.2,0.1,0.3,0.4c0,0.2-0.1,0.4-0.2,0.7c-0.3,0.8-0.4,1.4-0.4,1.7
				c0,0.1,0,0.1,0.1,0.1c1-1,1.9-1.4,2.8-1.4c0.5,0,1,0.2,1.3,0.6c0.4,0.4,0.5,0.8,0.5,1.1c0,1-0.5,2-1.5,2.9s-2.1,1.4-3.1,1.4
				c-0.5,0-0.8-0.2-1.1-0.6s-0.4-0.9-0.4-1.7c0-0.8,0.1-1.6,0.3-2.6c0.2-0.9,0.4-1.6,0.5-1.9c0-0.1,0.1-0.3,0.1-0.4
				C286.1,105.6,286.3,105.4,286.7,105.3z M286.4,109.4c-0.1,0.5-0.1,1-0.1,1.4c0,0.7,0.3,1,0.8,1c0.6,0,1.2-0.3,2-1
				c0.7-0.7,1.1-1.4,1.1-2c0-0.3-0.1-0.5-0.2-0.7s-0.3-0.3-0.6-0.3c-0.3,0-0.7,0.1-1,0.3c-0.3,0.2-0.7,0.4-1.1,0.8
				c-0.2,0.1-0.3,0.3-0.4,0.3C286.7,109.3,286.6,109.4,286.4,109.4z"/>
			<path class="st9" d="M297.5,107.6c-0.4,0-1.3,1.2-2.6,3.6c-0.4,0.8-0.7,1.2-0.8,1.3c-0.1,0.1-0.2,0.1-0.4,0.2
				c-0.2,0.1-0.4,0.1-0.5,0.1c-0.3,0-0.4-0.6-0.4-1.7c0-0.6,0.1-1.8,0.4-3.5c0.1-0.7,0.2-1.2,0.2-1.5s0.1-0.4,0.4-0.4
				c0.5,0,0.7,0.3,0.7,1c0,0.3-0.1,1-0.2,1.9c-0.2,1.1-0.3,1.7-0.3,2c0.3-0.3,0.7-0.8,1.2-1.7c0.7-1.2,1.3-2,1.6-2.3
				c0.3-0.3,0.7-0.5,1.1-0.5c0.3,0,0.5,0.2,0.7,0.6s0.3,1.3,0.3,2.7c0,0.4,0,0.6,0.1,0.8c0.1,0.2,0.1,0.3,0.1,0.3
				c0.2,0,0.6-0.7,1.3-2.1c0.4-0.7,0.7-1.3,1.1-1.7c0.3-0.4,0.7-0.6,1.2-0.6c0.4,0,0.6,0.2,0.8,0.5c0.2,0.4,0.3,0.9,0.3,1.6
				c0.1,0.7,0.2,1.4,0.3,2c0.1,0.6,0.4,1,0.8,1.2c0.2,0.1,0.4,0.3,0.4,0.4c0,0.2-0.1,0.3-0.3,0.5c-0.2,0.2-0.4,0.2-0.6,0.2
				c-0.3,0-0.7-0.2-0.9-0.6c-0.3-0.4-0.5-1.3-0.6-2.8c-0.1-0.6-0.1-1-0.2-1.2s-0.1-0.4-0.3-0.4c-0.2,0-0.4,0.2-0.6,0.5
				c-0.3,0.3-0.7,1.1-1.2,2.1c-0.4,0.8-0.8,1.4-1,1.7c-0.2,0.3-0.4,0.4-0.6,0.4s-0.4-0.1-0.5-0.2s-0.2-0.3-0.3-0.5s-0.1-0.7-0.1-1.6
				C297.8,108.6,297.7,107.8,297.5,107.6z"/>
			<path class="st9" d="M307.6,112c-0.2,0.8-0.4,1.9-0.6,3.3l-0.2,1.2c0,0.2-0.1,0.3-0.2,0.5s-0.3,0.3-0.4,0.3s-0.3-0.1-0.5-0.2
				s-0.3-0.2-0.3-0.3c0-0.2,0.1-0.6,0.2-1c0.8-3.2,1.2-6,1.2-8.5v-0.5c0-0.5,0.1-0.8,0.2-1s0.4-0.3,0.6-0.3c0.1,0,0.2,0.1,0.3,0.2
				c0.1,0.2,0.1,0.4,0.1,0.7c0,0.4,0,0.9-0.1,1.5c-0.1,0.8-0.2,1.2-0.2,1.3c0.6-1.1,1.3-2,2.1-2.6c0.7-0.6,1.4-1,2-1
				c0.4,0,0.8,0.2,1.1,0.5c0.3,0.3,0.5,0.7,0.5,1.2c0,1.4-0.5,2.7-1.6,3.9c-1.1,1.2-2.1,1.7-3.2,1.7c-0.3,0-0.5-0.1-0.6-0.2
				S307.7,112.3,307.6,112z M311.6,106.7c-0.6,0-1.4,0.6-2.3,1.7s-1.4,2-1.4,2.7c0,0.2,0.1,0.3,0.3,0.5c0.2,0.1,0.4,0.2,0.7,0.2
				c0.6,0,1.3-0.5,2.1-1.4s1.2-1.8,1.2-2.7c0-0.3-0.1-0.6-0.2-0.7C312,106.8,311.8,106.7,311.6,106.7z"/>
		</g>
	</g>
	<g>
		<path class="st11" d="M81.9,120.5h-7.2c0,0,2.3,2.8,2.3,8c0,5.3-2.3,8-2.3,8h7.2c0,0,2.3-2.7,2.3-8
			C84.3,123.3,81.9,120.5,81.9,120.5z"/>
		<path class="st12" d="M74.8,120.5h-6.7c0,0,2.3,2.8,2.3,8c0,5.3-2.3,8-2.3,8h6.7c0,0,2.3-2.7,2.3-8
			C77.1,123.3,74.8,120.5,74.8,120.5z"/>
		<g>
			<path class="st13" d="M62.6,129c0-0.6-0.5-1-1-1c-0.6,0-1,0.5-1,1c0,0.6,0.5,1,1,1S62.6,129.6,62.6,129z"/>
			<path class="st13" d="M57.1,131.3v0.4c0,0,1.2,0.8,2.8,0.8c1.3,0,2.8-0.8,2.8-0.8v-0.4c0,0-1.4,0.8-2.8,0.8
				C58.4,132.1,57.1,131.3,57.1,131.3z"/>
			<path class="st13" d="M59.2,134.3h-2.8c-0.3,0-0.6-0.2-0.6-0.5v1.9h3.5v-1.4H59.2z"/>
			<ellipse class="st13" cx="58.1" cy="129" rx="1" ry="1"/>
			<path class="st13" d="M68.1,120.5H55.8v0.6c0.1-0.1,0.3-0.1,0.5-0.1h0.1c0.6,0,1,0.5,1,1c0,0.4-0.2,0.8-0.6,0.9l0.9,2.9h4.8
				l0.9-2.8c-0.4-0.2-0.7-0.6-0.7-1c0-0.6,0.5-1,1-1h0.1c0.6,0,1,0.5,1,1c0,0.6-0.5,1-1,1h-0.1h-0.1l-0.9,2.8h0.8
				c0.3,0,0.6,0.3,0.6,0.6v7.2c0,0.3-0.3,0.6-0.6,0.6h-2.8v1.4H64c0.3,0,0.6,0.3,0.6,0.6v0.1h3.6c0,0,2.3-2.7,2.3-8
				C70.4,123.3,68.1,120.5,68.1,120.5z"/>
			<path class="st13" d="M56.3,123L56.3,123c-0.2,0-0.4,0-0.5-0.1v3.5c0.1-0.3,0.3-0.5,0.6-0.5h0.9L56.3,123
				C56.4,123,56.4,123,56.3,123z"/>
		</g>
	</g>
</g>
</svg>
