<?xml version="1.0" encoding="utf-8"?>
<!-- Generator: Adobe Illustrator 23.0.0, SVG Export Plug-In . SVG Version: 6.00 Build 0)  -->
<svg version="1.1" id="Слой_1" xmlns="http://www.w3.org/2000/svg" xmlns:xlink="http://www.w3.org/1999/xlink" x="0px" y="0px"
	 viewBox="0 0 316 158" style="enable-background:new 0 0 316 158;" xml:space="preserve">
<style type="text/css">
	.st0{fill:#EBEFF0;}
	.st1{fill:#5C95E9;}
	.st2{fill:#CCCBCB;}
	.st3{fill:#E6E5E5;}
	.st4{fill:#FFFFFF;}
	.st5{fill:#42444C;}
	.st6{fill:#E84C4F;}
	.st7{fill:#E43334;}
</style>
<g>
	<g>
		<path class="st0" d="M166.4,1c-49.8,0-90,31.7-90,70.7c0,18.6,9.1,35.3,23.9,48C99.6,132,97.1,148.5,88,157
			c17.2,0,34.8-11.3,45.3-19.5c10.2,3.2,21.4,5,33.1,5c49.7,0,89.9-31.7,89.9-70.8S216.1,1,166.4,1L166.4,1z"/>
	</g>
	<g>
		<g>
			<path class="st1" d="M217,82.3c-1.2,0-2-0.9-2-2v-4.8c0-25.7-21-46.7-46.7-46.7s-46.7,21-46.7,46.7v4.8c0,1.2-0.9,2-2,2
				c-1.2,0-2-0.9-2-2v-4.8c0-27.9,22.7-50.7,50.7-50.7S219,47.5,219,75.4v4.8C219,81.4,218.1,82.3,217,82.3z"/>
			<path class="st1" d="M116.5,98.6V88.1c0-1.2,0.9-2,2-2c1.2,0,2,0.9,2,2v10.6c0,1.3,1.1,2.3,2.3,2.3h5.1c1.2,0,2,0.9,2,2
				c0,1.2-0.9,2-2,2h-5.1C119.3,105,116.5,102.1,116.5,98.6z"/>
			<path class="st1" d="M214.8,104.9h-5.1c-1.2,0-2-0.9-2-2s0.9-2,2-2h5.1c1.3,0,2.3-1.1,2.3-2.3V88c0-1.2,0.9-2,2-2s2,0.9,2,2v10.6
				C221.2,102,218.3,104.9,214.8,104.9z"/>
			<path class="st2" d="M154.3,106.2h27.5v23.6h-27.5V106.2z"/>
			<path class="st3" d="M209.4,97.4c0.4-1.5,0.6-3.2,0.6-4.8v-34c0-11-9-19.9-19.9-19.9h-43.6c-11,0-19.9,9-19.9,19.9v34
				c0,11,9,19.9,19.9,19.9h43.6c5,0,9.6-1.8,13.1-4.9"/>
			<path class="st2" d="M142,100.3V112c-8.9-2-15.5-9.9-15.5-19.5V80.8C135.4,82.9,142,90.8,142,100.3z"/>
			<path class="st2" d="M210,80.8v11.7c0,1.6-0.2,3.3-0.6,4.8l-6.3,10.2c-2.4,2.1-5.4,3.8-8.8,4.4v-11.7
				C194.5,90.8,201.2,82.9,210,80.8z"/>
			<path class="st4" d="M162.5,68.8c0,7.1-5.8,12.8-12.8,12.8c-7.1,0-12.8-5.8-12.8-12.8c0-7.1,5.8-12.8,12.8-12.8
				C156.8,56,162.5,61.7,162.5,68.8z"/>
			<path class="st4" d="M199.7,68.8c0,7.1-5.8,12.8-12.8,12.8c-7.1,0-12.8-5.8-12.8-12.8c0-7.1,5.8-12.8,12.8-12.8
				C193.9,56,199.7,61.7,199.7,68.8z"/>
			<path class="st5" d="M149.7,73.6c-2.7,0-4.8-2.1-4.8-4.8s2.1-4.8,4.8-4.8s4.8,2.1,4.8,4.8S152.3,73.6,149.7,73.6z"/>
			<path class="st5" d="M186.8,73.6c-2.7,0-4.8-2.1-4.8-4.8s2.1-4.8,4.8-4.8s4.8,2.1,4.8,4.8S189.5,73.6,186.8,73.6z"/>
			<path class="st5" d="M137,103c0,3.1-2.5,5.6-5.6,5.6h-1.8c-3.1,0-5.6-2.5-5.6-5.6s2.5-5.6,5.6-5.6h1.8
				C134.5,97.4,137,99.9,137,103z"/>
			<g>
				<path class="st6" d="M160.7,91.7h5.6v20.9h-5.6V91.7z"/>
				<path class="st6" d="M170.3,91.7h5.6v20.9h-5.6V91.7z"/>
				<path class="st6" d="M179.9,91.9v20.6h5.7V99.3C185.6,95.9,183.2,92.9,179.9,91.9z"/>
				<path class="st6" d="M156.7,91.9c-3.3,0.9-5.7,3.9-5.7,7.4v13.2h5.7V91.9z"/>
			</g>
			<path class="st7" d="M126.5,65.6v19.7c0,3-2,5.6-4.8,6.4c-0.6,0.2-1.2,0.3-1.8,0.3h-2.6c-3.7,0-6.6-3-6.6-6.6V65.6
				c0-3.7,3-6.6,6.6-6.6h2.6c0.6,0,1.3,0.1,1.8,0.3C124.5,60,126.5,62.6,126.5,65.6z"/>
			<path class="st6" d="M126.5,65.6v19.7c0,3-2,5.6-4.8,6.4c-2.8-0.8-4.8-3.4-4.8-6.4V65.6c0-3,2-5.6,4.8-6.4
				C124.5,60,126.5,62.6,126.5,65.6z"/>
			<path class="st7" d="M225.8,65.6v19.7c0,3-2,5.6-4.8,6.4c-0.6,0.2-1.2,0.3-1.8,0.3h-2.6c-3.7,0-6.6-3-6.6-6.6V65.6
				c0-3.7,3-6.6,6.6-6.6h2.6c0.6,0,1.3,0.1,1.8,0.3C223.8,60,225.8,62.6,225.8,65.6z"/>
			<path class="st6" d="M225.8,65.6v19.7c0,3-2,5.6-4.8,6.4c-2.8-0.8-4.8-3.4-4.8-6.4V65.6c0-3,2-5.6,4.8-6.4
				C223.8,60,225.8,62.6,225.8,65.6z"/>
			<path class="st5" d="M206.3,97.3h1.8c3.1,0,5.6,2.5,5.6,5.6s-2.5,5.6-5.6,5.6h-1.8c-3.1,0-5.6-2.5-5.6-5.6S203.2,97.3,206.3,97.3
				z"/>
			<path class="st2" d="M208.2,136.2v0.4h-80.3v-0.4c0-7.1,5.8-12.8,12.8-12.8h54.6C202.4,123.4,208.2,129.1,208.2,136.2z"/>
			<path class="st3" d="M208.2,136.2v0.4h-65.4v-0.4c0-7.1,5.8-12.8,12.8-12.8h39.8C202.4,123.4,208.2,129.1,208.2,136.2z"/>
		</g>
	</g>
</g>
</svg>
