<?xml version="1.0" encoding="utf-8"?>
<!-- Generator: Adobe Illustrator 23.0.0, SVG Export Plug-In . SVG Version: 6.00 Build 0)  -->
<svg version="1.1" id="Слой_1" xmlns="http://www.w3.org/2000/svg" xmlns:xlink="http://www.w3.org/1999/xlink" x="0px" y="0px"
	 viewBox="0 0 316 158" style="enable-background:new 0 0 316 158;" xml:space="preserve">
<style type="text/css">
	.st0{fill:#FBCB18;}
	.st1{fill:#57B36E;}
	.st2{fill:#E84C4F;}
	.st3{fill:#FFFFFF;}
	.st4{fill:none;stroke:#AFB8D1;stroke-width:3;stroke-miterlimit:10;}
	.st5{fill:#FFD681;}
	.st6{fill:#FAC16F;}
	.st7{fill:#5C95E9;}
	.st8{fill:#D7DDEB;}
	.st9{fill:#C7CEE0;}
	.st10{fill:#AEB8D1;}
	.st11{fill:#543C2A;}
	.st12{fill:#FACB9B;}
	.st13{fill:#F8BB84;}
	.st14{fill:#3A2519;}
	.st15{fill:#694C38;}
	.st16{fill:#F2925F;}
	.st17{fill:#F4A88C;}
	.st18{fill:#F4A75F;}
	.st19{fill:#F18945;}
	.st20{clip-path:url(#SVGID_2_);fill:#F18945;}
	.st21{clip-path:url(#SVGID_4_);fill:#694C38;}
</style>
<g>
	<g>
		<path class="st0" d="M220,67.5c0-12.7-3.5-24.5-9.6-34.6l-57.6,34.6l-33,58.5c9.8,5.5,21,8.7,33,8.7
			C189.9,134.7,220,104.7,220,67.5z"/>
		<g>
			<path class="st1" d="M79.2,67.5c0,25.1,13.8,47,34.2,58.5l33-58.5l-43.7-51C88.3,28.8,79.2,47.1,79.2,67.5z"/>
			<path class="st2" d="M152.8,0.3c-16.7,0-32,6.1-43.7,16.2l43.7,51l57.6-34.6C198.7,13.4,177.3,0.3,152.8,0.3z"/>
		</g>
	</g>
	<g>
		<path class="st3" d="M149.7,21.1h-6.9v4.3h3.6c1.5,0,2.7,0.4,3.5,1.2c0.8,0.8,1.3,1.8,1.3,3.1c0,1.3-0.4,2.3-1.3,3.1
			s-2,1.2-3.5,1.2h-5.5V19.6h8.8L149.7,21.1L149.7,21.1z M142.7,27v5.4h3.5c0.9,0,1.7-0.3,2.2-0.8s0.8-1.2,0.8-2s-0.3-1.4-0.8-1.9
			s-1.2-0.7-2.1-0.7C146.3,27,142.7,27,142.7,27z"/>
		<path class="st3" d="M152.9,28.5c0-1,0.2-2,0.6-2.8c0.4-0.8,1-1.5,1.7-1.9c0.7-0.5,1.6-0.7,2.5-0.7c1.5,0,2.6,0.5,3.5,1.5
			s1.3,2.3,1.3,4v0.1c0,1-0.2,2-0.6,2.8c-0.4,0.8-1,1.5-1.7,1.9c-0.7,0.5-1.6,0.7-2.5,0.7c-1.4,0-2.6-0.5-3.5-1.5s-1.3-2.3-1.3-4
			V28.5z M154.7,28.7c0,1.2,0.3,2.1,0.8,2.9c0.5,0.7,1.3,1.1,2.2,1.1s1.7-0.4,2.2-1.1s0.8-1.7,0.8-3.1c0-1.2-0.3-2.1-0.8-2.8
			c-0.6-0.7-1.3-1.1-2.2-1.1s-1.6,0.4-2.2,1.1C155,26.3,154.7,27.4,154.7,28.7z"/>
		<path class="st3" d="M172.5,24.7H169v9.2h-1.8v-9.2h-3.5v-1.5h8.9L172.5,24.7L172.5,24.7z"/>
		<path class="st3" d="M176.3,26.9h2.8c1.2,0,2.2,0.3,2.9,0.9s1.1,1.5,1.1,2.5c0,1.1-0.4,1.9-1.1,2.6c-0.7,0.6-1.7,1-2.9,1h-4.5
			V23.3h1.8v3.6H176.3z M176.3,28.4v4h2.7c0.7,0,1.2-0.2,1.6-0.5c0.4-0.4,0.6-0.8,0.6-1.4s-0.2-1.1-0.5-1.5
			c-0.4-0.4-0.9-0.6-1.5-0.6C179.2,28.4,176.3,28.4,176.3,28.4z M186.8,33.9H185V23.3h1.8V33.9z"/>
	</g>
	<g>
		<path class="st3" d="M88.9,68.5h-1.1v4.1h-1.2v-9.1h1.2v4h0.9l3.2-4h1.5L90,67.9l3.7,4.7h-1.5L88.9,68.5z"/>
		<path class="st3" d="M100.2,65.8v6.8H99v-5.8h-2.3l-0.1,2.5c-0.1,1.2-0.3,2-0.6,2.5c-0.3,0.5-0.8,0.8-1.5,0.8H94v-1h0.3
			c0.4,0,0.6-0.3,0.8-0.7s0.3-1.1,0.3-2.2l0.1-2.9C95.5,65.8,100.2,65.8,100.2,65.8z"/>
		<path class="st3" d="M106.4,65.8h1.2v6.8h-1.2v-4.9l-3.1,4.9h-1.2v-6.8h1.2v5L106.4,65.8z"/>
		<path class="st3" d="M112.3,72.7c-0.9,0-1.7-0.3-2.2-0.9s-0.9-1.4-0.9-2.4v-0.2c0-0.7,0.1-1.3,0.4-1.8s0.6-0.9,1.1-1.2
			s1-0.4,1.5-0.4c0.9,0,1.6,0.3,2.1,0.9s0.7,1.4,0.7,2.5v0.5h-4.6c0,0.7,0.2,1.2,0.6,1.6s0.8,0.6,1.4,0.6c0.4,0,0.8-0.1,1-0.3
			c0.3-0.2,0.5-0.4,0.7-0.7l0.7,0.6C114.3,72.3,113.4,72.7,112.3,72.7z M112.1,66.6c-0.5,0-0.9,0.2-1.2,0.5
			c-0.3,0.3-0.5,0.8-0.6,1.4h3.4v-0.1c0-0.6-0.2-1-0.5-1.4C113,66.8,112.6,66.6,112.1,66.6z"/>
		<path class="st3" d="M121.8,72.6h-1.2v-2.9h-3.1v2.9h-1.2v-6.8h1.2v2.9h3.1v-2.9h1.2V72.6z"/>
		<path class="st3" d="M128.7,66.7h-2.3v5.8h-1.2v-5.8H123v-0.9h5.7V66.7z"/>
		<path class="st3" d="M131.1,68.1h1.8c0.8,0,1.4,0.2,1.8,0.6c0.4,0.4,0.7,0.9,0.7,1.6s-0.2,1.2-0.7,1.6s-1.1,0.6-1.9,0.6h-2.9v-6.8
			h1.2L131.1,68.1L131.1,68.1z M131.1,69.1v2.6h1.7c0.4,0,0.8-0.1,1-0.3s0.4-0.5,0.4-0.9s-0.1-0.7-0.3-0.9c-0.2-0.2-0.6-0.4-1-0.4
			L131.1,69.1L131.1,69.1z M137.8,72.6h-1.2v-6.8h1.2V72.6z"/>
	</g>
	<g>
		<path class="st3" d="M160,83h-1.1v-4h-4.3v4h-1.1v-8.6h1.1v3.7h4.3v-3.7h1.1V83z"/>
		<path class="st3" d="M164.4,83.1c-0.9,0-1.6-0.3-2.1-0.8c-0.5-0.6-0.8-1.3-0.8-2.3v-0.2c0-0.6,0.1-1.2,0.4-1.7
			c0.2-0.5,0.6-0.9,1-1.2c0.4-0.3,0.9-0.4,1.4-0.4c0.8,0,1.5,0.3,1.9,0.8c0.5,0.5,0.7,1.3,0.7,2.3v0.5h-4.3c0,0.6,0.2,1.1,0.5,1.5
			c0.4,0.4,0.8,0.6,1.3,0.6c0.4,0,0.7-0.1,1-0.2s0.5-0.4,0.7-0.6l0.7,0.5C166.3,82.7,165.5,83.1,164.4,83.1z M164.3,77.4
			c-0.4,0-0.8,0.2-1.1,0.5s-0.5,0.8-0.6,1.3h3.2v-0.1c0-0.6-0.2-1-0.4-1.3C165.1,77.5,164.8,77.4,164.3,77.4z"/>
		<path class="st3" d="M168.3,76.6h1.1v5.5h2.9v-5.5h1.1v5.5h0.8l-0.1,2.8h-1V83h-4.8V76.6z"/>
		<path class="st3" d="M177.9,83.1c-0.9,0-1.6-0.3-2.1-0.8c-0.5-0.6-0.8-1.3-0.8-2.3v-0.2c0-0.6,0.1-1.2,0.4-1.7
			c0.2-0.5,0.6-0.9,1-1.2c0.4-0.3,0.9-0.4,1.4-0.4c0.8,0,1.5,0.3,1.9,0.8c0.5,0.5,0.7,1.3,0.7,2.3v0.5h-4.3c0,0.6,0.2,1.1,0.5,1.5
			c0.4,0.4,0.8,0.6,1.3,0.6c0.4,0,0.7-0.1,1-0.2s0.5-0.4,0.7-0.6l0.7,0.5C179.8,82.7,179,83.1,177.9,83.1z M177.8,77.4
			c-0.4,0-0.8,0.2-1.1,0.5s-0.5,0.8-0.6,1.3h3.2v-0.1c0-0.6-0.2-1-0.4-1.3C178.6,77.5,178.3,77.4,177.8,77.4z"/>
		<path class="st3" d="M186.9,76.6V83h-1.1v-5.5h-2.2l-0.1,2.4c-0.1,1.1-0.3,1.9-0.5,2.3s-0.8,0.7-1.4,0.7h-0.4v-1h0.3
			c0.4,0,0.6-0.2,0.8-0.6s0.3-1,0.3-2l0.1-2.7C182.7,76.6,186.9,76.6,186.9,76.6z"/>
		<path class="st3" d="M191.3,83.1c-0.9,0-1.6-0.3-2.1-0.8c-0.5-0.6-0.8-1.3-0.8-2.3v-0.2c0-0.6,0.1-1.2,0.4-1.7
			c0.2-0.5,0.6-0.9,1-1.2c0.4-0.3,0.9-0.4,1.4-0.4c0.8,0,1.5,0.3,1.9,0.8c0.5,0.5,0.7,1.3,0.7,2.3v0.5h-4.3c0,0.6,0.2,1.1,0.5,1.5
			c0.4,0.4,0.8,0.6,1.3,0.6c0.4,0,0.7-0.1,1-0.2s0.5-0.4,0.7-0.6l0.7,0.5C193.1,82.7,192.3,83.1,191.3,83.1z M191.1,77.4
			c-0.4,0-0.8,0.2-1.1,0.5s-0.5,0.8-0.6,1.3h3.2v-0.1c0-0.6-0.2-1-0.4-1.3S191.6,77.4,191.1,77.4z"/>
		<path class="st3" d="M195.1,83v-6.4h2.5c0.8,0,1.5,0.1,1.9,0.4c0.5,0.3,0.7,0.7,0.7,1.3c0,0.3-0.1,0.6-0.3,0.8
			c-0.2,0.2-0.4,0.4-0.8,0.5c0.4,0.1,0.7,0.3,0.9,0.5c0.2,0.3,0.3,0.6,0.3,0.9c0,0.6-0.2,1-0.6,1.3c-0.4,0.3-1,0.5-1.8,0.5h-2.8
			L195.1,83L195.1,83z M196.2,79.3h1.4c1,0,1.5-0.3,1.5-0.9s-0.5-0.9-1.4-0.9h-1.5V79.3z M196.2,80.2v1.9h1.8c0.5,0,0.8-0.1,1-0.3
			s0.3-0.4,0.3-0.7c0-0.6-0.5-1-1.4-1L196.2,80.2L196.2,80.2z"/>
		<path class="st3" d="M201.6,79.7c0-0.6,0.1-1.2,0.4-1.7c0.2-0.5,0.6-0.9,1-1.2c0.4-0.3,0.9-0.4,1.5-0.4c0.9,0,1.6,0.3,2.1,0.9
			s0.8,1.4,0.8,2.4v0.1c0,0.6-0.1,1.2-0.4,1.7c-0.2,0.5-0.6,0.9-1,1.1c-0.4,0.3-0.9,0.4-1.5,0.4c-0.9,0-1.6-0.3-2.1-0.9
			C201.9,81.6,201.6,80.8,201.6,79.7L201.6,79.7z M202.7,79.8c0,0.7,0.2,1.3,0.5,1.7s0.8,0.6,1.3,0.6c0.6,0,1-0.2,1.3-0.6
			s0.5-1,0.5-1.8c0-0.7-0.2-1.3-0.5-1.7c-0.3-0.4-0.8-0.6-1.3-0.6s-1,0.2-1.3,0.6S202.7,79.1,202.7,79.8z"/>
		<path class="st3" d="M212.9,76.6h1.1V83h-1.1v-4.6L210,83h-1.1v-6.4h1.1v4.6L212.9,76.6z M213.2,74.3c0,0.5-0.2,0.9-0.5,1.1
			s-0.7,0.4-1.3,0.4c-0.5,0-1-0.1-1.3-0.4s-0.5-0.7-0.5-1.1h0.9c0,0.3,0.1,0.5,0.2,0.6c0.1,0.2,0.4,0.2,0.7,0.2s0.5-0.1,0.6-0.2
			c0.2-0.2,0.2-0.4,0.2-0.6H213.2z"/>
		<path class="st3" d="M168.6,91.9h-2.1v5.5h-1.1v-5.5h-2.1V91h5.3L168.6,91.9L168.6,91.9z"/>
		<path class="st3" d="M175,94.3c0,1-0.2,1.7-0.7,2.3c-0.4,0.6-1,0.9-1.8,0.9s-1.4-0.2-1.8-0.7v3.1h-1.1V91h1l0.1,0.7
			c0.4-0.5,1.1-0.8,1.8-0.8c0.8,0,1.4,0.3,1.8,0.9C174.8,92.4,175,93.2,175,94.3L175,94.3z M173.9,94.2c0-0.7-0.2-1.3-0.5-1.7
			c-0.3-0.4-0.7-0.6-1.3-0.6c-0.7,0-1.2,0.3-1.5,0.9v3c0.3,0.6,0.8,0.9,1.5,0.9c0.5,0,0.9-0.2,1.2-0.6S173.9,95,173.9,94.2z"/>
		<path class="st3" d="M180.3,97.4c-0.1-0.1-0.1-0.3-0.2-0.7c-0.5,0.5-1.1,0.8-1.8,0.8c-0.6,0-1.1-0.2-1.5-0.5
			c-0.4-0.4-0.6-0.8-0.6-1.3c0-0.7,0.3-1.2,0.8-1.5c0.5-0.4,1.2-0.5,2.1-0.5h1.1V93c0-0.4-0.1-0.7-0.3-0.9c-0.2-0.2-0.6-0.3-1-0.3
			s-0.7,0.1-1,0.3c-0.3,0.2-0.4,0.4-0.4,0.7h-1.1c0-0.3,0.1-0.6,0.3-0.9s0.5-0.5,0.9-0.7s0.8-0.3,1.3-0.3c0.7,0,1.3,0.2,1.7,0.5
			c0.4,0.4,0.6,0.9,0.6,1.5v2.9c0,0.6,0.1,1,0.2,1.4v0.1h-1.1V97.4z M178.5,96.6c0.3,0,0.7-0.1,1-0.3s0.5-0.4,0.7-0.7v-1.3h-0.9
			c-1.3,0-2,0.4-2,1.2c0,0.3,0.1,0.6,0.3,0.8S178.1,96.6,178.5,96.6z"/>
		<path class="st3" d="M182.7,94.3c0-1.1,0.2-1.9,0.6-2.5s1-0.9,1.7-0.9c0.3,0,0.6,0.1,0.9,0.2v-2.7h1.1v2.8c0.3-0.1,0.6-0.2,1-0.2
			c0.7,0,1.3,0.3,1.7,0.9s0.6,1.5,0.6,2.6c0,0.9-0.2,1.7-0.6,2.2c-0.4,0.6-1,0.8-1.7,0.8c-0.4,0-0.7-0.1-1-0.2v2.5h-1.1v-2.5
			c-0.3,0.1-0.6,0.2-0.9,0.2c-0.7,0-1.3-0.3-1.7-0.8C182.9,96.1,182.7,95.4,182.7,94.3L182.7,94.3z M183.8,94.5
			c0,0.7,0.1,1.3,0.4,1.6c0.3,0.4,0.6,0.6,1.1,0.6c0.2,0,0.4,0,0.6-0.1V92c-0.2-0.1-0.4-0.1-0.6-0.1c-0.5,0-0.8,0.2-1.1,0.6
			S183.8,93.6,183.8,94.5z M189.1,94.3c0-0.8-0.1-1.4-0.4-1.9c-0.3-0.4-0.7-0.7-1.1-0.7c-0.2,0-0.5,0-0.6,0.1v4.6
			c0.2,0.1,0.4,0.1,0.7,0.1c0.5,0,0.9-0.2,1.1-0.6C189,95.7,189.1,95.1,189.1,94.3z"/>
		<path class="st3" d="M195.8,91h1.1v6.4h-1.1v-4.6l-2.9,4.6h-1.1V91h1.1v4.6L195.8,91z"/>
		<path class="st3" d="M200.6,94.7h-0.8v2.7h-1.1V91h1.1v2.7h0.7l2.1-2.7h1.3l-2.5,3.1l2.7,3.3h-1.4L200.6,94.7z"/>
	</g>
	<line class="st4" x1="61.1" y1="139.9" x2="207.6" y2="139.9"/>
	<g>
		<g>
			<path class="st5" d="M99.6,156.9c-1.3,0-2.4-1.1-2.4-2.4V122c0-1.3,1.1-2.4,2.4-2.4h7.1c1.3,0,2.4,1.1,2.4,2.4v32.5
				c0,1.3-1.1,2.4-2.4,2.4H99.6z"/>
			<path class="st3" d="M106.7,120.6c0.8,0,1.4,0.6,1.4,1.4v32.5c0,0.8-0.6,1.4-1.4,1.4h-7.1c-0.8,0-1.4-0.6-1.4-1.4V122
				c0-0.8,0.6-1.4,1.4-1.4H106.7 M106.7,118.6h-7.1c-1.9,0-3.4,1.5-3.4,3.4v32.5c0,1.9,1.5,3.4,3.4,3.4h7.1c1.9,0,3.4-1.5,3.4-3.4
				V122C110.1,120.1,108.6,118.6,106.7,118.6L106.7,118.6z"/>
		</g>
		<g>
			<path class="st6" d="M99.6,156.9c-1.3,0-2.4-1.1-2.4-2.4v-24c0-1.3,1.1-2.4,2.4-2.4h7.1c1.3,0,2.4,1.1,2.4,2.4v24
				c0,1.3-1.1,2.4-2.4,2.4H99.6z"/>
			<path class="st3" d="M106.7,129.1c0.8,0,1.4,0.6,1.4,1.4v24c0,0.8-0.6,1.4-1.4,1.4h-7.1c-0.8,0-1.4-0.6-1.4-1.4v-24
				c0-0.8,0.6-1.4,1.4-1.4H106.7 M106.7,127.1h-7.1c-1.9,0-3.4,1.5-3.4,3.4v24c0,1.9,1.5,3.4,3.4,3.4h7.1c1.9,0,3.4-1.5,3.4-3.4v-24
				C110.1,128.6,108.6,127.1,106.7,127.1L106.7,127.1z"/>
		</g>
		<g>
			<path class="st1" d="M113.8,156.9c-1.3,0-2.4-1.1-2.4-2.4V96.6c0-1.3,1.1-2.4,2.4-2.4h7.1c1.3,0,2.4,1.1,2.4,2.4v57.9
				c0,1.3-1.1,2.4-2.4,2.4H113.8z"/>
			<path class="st3" d="M120.8,95.2c0.8,0,1.4,0.6,1.4,1.4v57.9c0,0.8-0.6,1.4-1.4,1.4h-7.1c-0.8,0-1.4-0.6-1.4-1.4V96.6
				c0-0.8,0.6-1.4,1.4-1.4H120.8 M120.8,93.2h-7.1c-1.9,0-3.4,1.5-3.4,3.4v57.9c0,1.9,1.5,3.4,3.4,3.4h7.1c1.9,0,3.4-1.5,3.4-3.4
				V96.6C124.2,94.7,122.7,93.2,120.8,93.2L120.8,93.2z"/>
		</g>
		<g>
			<path class="st1" d="M113.8,156.9c-1.3,0-2.4-1.1-2.4-2.4v-41c0-1.3,1.1-2.4,2.4-2.4h7.1c1.3,0,2.4,1.1,2.4,2.4v41
				c0,1.3-1.1,2.4-2.4,2.4H113.8z"/>
			<path class="st3" d="M120.8,112.1c0.8,0,1.4,0.6,1.4,1.4v41c0,0.8-0.6,1.4-1.4,1.4h-7.1c-0.8,0-1.4-0.6-1.4-1.4v-41
				c0-0.8,0.6-1.4,1.4-1.4H120.8 M120.8,110.1h-7.1c-1.9,0-3.4,1.5-3.4,3.4v41c0,1.9,1.5,3.4,3.4,3.4h7.1c1.9,0,3.4-1.5,3.4-3.4v-41
				C124.2,111.7,122.7,110.1,120.8,110.1L120.8,110.1z"/>
		</g>
		<g>
			<path class="st7" d="M71.4,156.9c-1.3,0-2.4-1.1-2.4-2.4v-24c0-1.3,1.1-2.4,2.4-2.4h7.1c1.3,0,2.4,1.1,2.4,2.4v24
				c0,1.3-1.1,2.4-2.4,2.4H71.4z"/>
			<path class="st3" d="M78.5,129.1c0.8,0,1.4,0.6,1.4,1.4v24c0,0.8-0.6,1.4-1.4,1.4h-7.1c-0.8,0-1.4-0.6-1.4-1.4v-24
				c0-0.8,0.6-1.4,1.4-1.4H78.5 M78.5,127.1h-7.1c-1.9,0-3.4,1.5-3.4,3.4v24c0,1.9,1.5,3.4,3.4,3.4h7.1c1.9,0,3.4-1.5,3.4-3.4v-24
				C81.9,128.6,80.3,127.1,78.5,127.1L78.5,127.1z"/>
		</g>
		<g>
			<path class="st7" d="M127.9,156.9c-1.3,0-2.4-1.1-2.4-2.4V88.1c0-1.3,1.1-2.4,2.4-2.4h7.1c1.3,0,2.4,1.1,2.4,2.4v66.4
				c0,1.3-1.1,2.4-2.4,2.4H127.9z"/>
			<path class="st3" d="M134.9,86.7c0.8,0,1.4,0.6,1.4,1.4v66.4c0,0.8-0.6,1.4-1.4,1.4h-7.1c-0.8,0-1.4-0.6-1.4-1.4V88.1
				c0-0.8,0.6-1.4,1.4-1.4H134.9 M134.9,84.7h-7.1c-1.9,0-3.4,1.5-3.4,3.4v66.4c0,1.9,1.5,3.4,3.4,3.4h7.1c1.9,0,3.4-1.5,3.4-3.4
				V88.1C138.3,86.2,136.8,84.7,134.9,84.7L134.9,84.7z"/>
		</g>
		<g>
			<path class="st7" d="M127.9,156.9c-1.3,0-2.4-1.1-2.4-2.4v-49.4c0-1.3,1.1-2.4,2.4-2.4h7.1c1.3,0,2.4,1.1,2.4,2.4v49.4
				c0,1.3-1.1,2.4-2.4,2.4H127.9z"/>
			<path class="st3" d="M134.9,103.7c0.8,0,1.4,0.6,1.4,1.4v49.4c0,0.8-0.6,1.4-1.4,1.4h-7.1c-0.8,0-1.4-0.6-1.4-1.4v-49.4
				c0-0.8,0.6-1.4,1.4-1.4H134.9 M134.9,101.7h-7.1c-1.9,0-3.4,1.5-3.4,3.4v49.4c0,1.9,1.5,3.4,3.4,3.4h7.1c1.9,0,3.4-1.5,3.4-3.4
				v-49.4C138.3,103.2,136.8,101.7,134.9,101.7L134.9,101.7z"/>
		</g>
		<g>
			<path class="st2" d="M85.5,156.9c-1.3,0-2.4-1.1-2.4-2.4v-41c0-1.3,1.1-2.4,2.4-2.4h7.1c1.3,0,2.4,1.1,2.4,2.4v41
				c0,1.3-1.1,2.4-2.4,2.4H85.5z"/>
			<path class="st3" d="M92.6,112.1c0.8,0,1.4,0.6,1.4,1.4v41c0,0.8-0.6,1.4-1.4,1.4h-7.1c-0.8,0-1.4-0.6-1.4-1.4v-41
				c0-0.8,0.6-1.4,1.4-1.4H92.6 M92.6,110.1h-7.1c-1.9,0-3.4,1.5-3.4,3.4v41c0,1.9,1.5,3.4,3.4,3.4h7.1c1.9,0,3.4-1.5,3.4-3.4v-41
				C96,111.7,94.5,110.1,92.6,110.1L92.6,110.1z"/>
		</g>
		<g>
			<path class="st2" d="M85.5,156.9c-1.3,0-2.4-1.1-2.4-2.4V122c0-1.3,1.1-2.4,2.4-2.4h7.1c1.3,0,2.4,1.1,2.4,2.4v32.5
				c0,1.3-1.1,2.4-2.4,2.4H85.5z"/>
			<path class="st3" d="M92.6,120.6c0.8,0,1.4,0.6,1.4,1.4v32.5c0,0.8-0.6,1.4-1.4,1.4h-7.1c-0.8,0-1.4-0.6-1.4-1.4V122
				c0-0.8,0.6-1.4,1.4-1.4H92.6 M92.6,118.6h-7.1c-1.9,0-3.4,1.5-3.4,3.4v32.5c0,1.9,1.5,3.4,3.4,3.4h7.1c1.9,0,3.4-1.5,3.4-3.4V122
				C96,120.1,94.5,118.6,92.6,118.6L92.6,118.6z"/>
		</g>
		<g>
			<path class="st7" d="M71.4,156.9c-1.3,0-2.4-1.1-2.4-2.4V139c0-1.3,1.1-2.4,2.4-2.4h7.1c1.3,0,2.4,1.1,2.4,2.4v15.5
				c0,1.3-1.1,2.4-2.4,2.4H71.4z"/>
			<path class="st3" d="M78.5,137.5c0.8,0,1.4,0.6,1.4,1.4v15.5c0,0.8-0.6,1.4-1.4,1.4h-7.1c-0.8,0-1.4-0.6-1.4-1.4V139
				c0-0.8,0.6-1.4,1.4-1.4h7.1 M78.5,135.5h-7.1c-1.9,0-3.4,1.5-3.4,3.4v15.5c0,1.9,1.5,3.4,3.4,3.4h7.1c1.9,0,3.4-1.5,3.4-3.4V139
				C81.9,137.1,80.3,135.5,78.5,135.5L78.5,135.5z"/>
		</g>
		<g>
			<g>
				<path class="st8" d="M60.8,149.8c-1.3,0-2.4-1.1-2.4-2.4s1.1-2.4,2.4-2.4h3.8v4.8L60.8,149.8L60.8,149.8z"/>
				<path class="st3" d="M63.6,146v2.8h-2.8c-0.8,0-1.4-0.6-1.4-1.4c0-0.8,0.6-1.4,1.4-1.4L63.6,146 M65.6,144h-2h-2.8
					c-1.9,0-3.4,1.5-3.4,3.4s1.5,3.4,3.4,3.4h2.8h2v-2V146V144L65.6,144z"/>
			</g>
			<g>
				<path class="st8" d="M60.8,141.4c-1.3,0-2.4-1.1-2.4-2.4s1.1-2.4,2.4-2.4h3.8v4.8L60.8,141.4L60.8,141.4z"/>
				<path class="st3" d="M63.6,137.5v2.8h-2.8c-0.8,0-1.4-0.6-1.4-1.4s0.6-1.4,1.4-1.4L63.6,137.5 M65.6,135.5h-2h-2.8
					c-1.9,0-3.4,1.5-3.4,3.4s1.5,3.4,3.4,3.4h2.8h2v-2v-2.8V135.5L65.6,135.5z"/>
			</g>
			<g>
				<path class="st8" d="M60.8,132.9c-1.3,0-2.4-1.1-2.4-2.4s1.1-2.4,2.4-2.4h3.8v4.8L60.8,132.9L60.8,132.9z"/>
				<path class="st3" d="M63.6,129.1v2.8h-2.8c-0.8,0-1.4-0.6-1.4-1.4c0-0.8,0.6-1.4,1.4-1.4L63.6,129.1 M65.6,127.1h-2h-2.8
					c-1.9,0-3.4,1.5-3.4,3.4s1.5,3.4,3.4,3.4h2.8h2v-2v-2.8V127.1L65.6,127.1z"/>
			</g>
			<g>
				<path class="st8" d="M60.8,124.4c-1.3,0-2.4-1.1-2.4-2.4s1.1-2.4,2.4-2.4h3.8v4.8H60.8z"/>
				<path class="st3" d="M63.6,120.6v2.8h-2.8c-0.8,0-1.4-0.6-1.4-1.4s0.6-1.4,1.4-1.4H63.6 M65.6,118.6h-2h-2.8
					c-1.9,0-3.4,1.5-3.4,3.4s1.5,3.4,3.4,3.4h2.8h2v-2v-2.8V118.6L65.6,118.6z"/>
			</g>
			<g>
				<path class="st8" d="M60.8,116c-1.3,0-2.4-1.1-2.4-2.4s1.1-2.4,2.4-2.4h3.8v4.8H60.8z"/>
				<path class="st3" d="M63.6,112.1v2.8h-2.8c-0.8,0-1.4-0.6-1.4-1.4s0.6-1.4,1.4-1.4H63.6 M65.6,110.1h-2h-2.8
					c-1.9,0-3.4,1.5-3.4,3.4s1.5,3.4,3.4,3.4h2.8h2v-2v-2.8V110.1L65.6,110.1z"/>
			</g>
			<g>
				<path class="st8" d="M60.8,107.5c-1.3,0-2.4-1.1-2.4-2.4s1.1-2.4,2.4-2.4h3.8v4.8H60.8z"/>
				<path class="st3" d="M63.6,103.7v2.8h-2.8c-0.8,0-1.4-0.6-1.4-1.4s0.6-1.4,1.4-1.4H63.6 M65.6,101.7h-2h-2.8
					c-1.9,0-3.4,1.5-3.4,3.4s1.5,3.4,3.4,3.4h2.8h2v-2v-2.8V101.7L65.6,101.7z"/>
			</g>
			<g>
				<path class="st8" d="M60.8,99c-1.3,0-2.4-1.1-2.4-2.4s1.1-2.4,2.4-2.4h3.8V99H60.8z"/>
				<path class="st3" d="M63.6,95.2V98h-2.8c-0.8,0-1.4-0.6-1.4-1.4s0.6-1.4,1.4-1.4H63.6 M65.6,93.2h-2h-2.8
					c-1.9,0-3.4,1.5-3.4,3.4s1.5,3.4,3.4,3.4h2.8h2v-2v-2.8V93.2L65.6,93.2z"/>
			</g>
			<g>
				<path class="st8" d="M60.8,90.5c-1.3,0-2.4-1.1-2.4-2.4s1.1-2.4,2.4-2.4h3.8v4.8H60.8z"/>
				<path class="st3" d="M63.6,86.7v2.8h-2.8c-0.8,0-1.4-0.6-1.4-1.4s0.6-1.4,1.4-1.4H63.6 M65.6,84.7h-2h-2.8
					c-1.9,0-3.4,1.5-3.4,3.4s1.5,3.4,3.4,3.4h2.8h2v-2v-2.8V84.7L65.6,84.7z"/>
			</g>
		</g>
		<g>
			<path class="st9" d="M63.6,156.9c-1.3,0-2.4-1.1-2.4-2.4V79.7c0-1.3,1.1-2.4,2.4-2.4s2.4,1.1,2.4,2.4v74.8
				C66,155.8,65,156.9,63.6,156.9z"/>
			<path class="st3" d="M63.6,78.2c0.8,0,1.4,0.6,1.4,1.4v74.8c0,0.8-0.6,1.4-1.4,1.4s-1.4-0.6-1.4-1.4V79.7
				C62.2,78.9,62.8,78.2,63.6,78.2 M63.6,76.2c-1.9,0-3.4,1.5-3.4,3.4v74.8c0,1.9,1.5,3.4,3.4,3.4s3.4-1.5,3.4-3.4V79.7
				C67,77.8,65.5,76.2,63.6,76.2L63.6,76.2z"/>
		</g>
		<g>
			<path class="st10" d="M60.8,158.3c-1.3,0-2.4-1.1-2.4-2.4s1.1-2.4,2.4-2.4h79.1c1.3,0,2.4,1.1,2.4,2.4s-1.1,2.4-2.4,2.4H60.8z"/>
			<path class="st3" d="M139.9,154.5c0.8,0,1.4,0.6,1.4,1.4c0,0.8-0.6,1.4-1.4,1.4H60.8c-0.8,0-1.4-0.6-1.4-1.4
				c0-0.8,0.6-1.4,1.4-1.4H139.9 M139.9,152.5H60.8c-1.9,0-3.4,1.5-3.4,3.4s1.5,3.4,3.4,3.4h79.1c1.9,0,3.4-1.5,3.4-3.4
				S141.8,152.5,139.9,152.5L139.9,152.5z"/>
		</g>
	</g>
	<g>
		<path class="st11" d="M232.6,113.8V155h18.9c0,0,3.6-18.6,3.5-29.9C255,113.9,232.6,113.8,232.6,113.8L232.6,113.8z"/>
		<path class="st11" d="M232.6,113.8V155h-18.9c0,0-3.6-18.6-3.5-29.9C210.3,113.9,232.6,113.8,232.6,113.8L232.6,113.8z"/>
		<rect x="228" y="141.2" class="st12" width="9.2" height="10.3"/>
		<path class="st13" d="M228,142.4c0,0,3.9,2.5,9.2,1.9v-3.1H228V142.4z"/>
		<path class="st13" d="M219.2,125.2c0,2.8-2,5.1-4.5,5.1s-4.5-2.3-4.5-5.1c0-2.8,2-5.1,4.5-5.1C217.2,120,219.2,122.3,219.2,125.2
			L219.2,125.2z"/>
		<path class="st13" d="M255.1,125.2c0,2.8-2,5.1-4.5,5.1s-4.5-2.3-4.5-5.1c0-2.8,2-5.1,4.5-5.1C253.1,120,255.1,122.3,255.1,125.2
			L255.1,125.2z"/>
		<path class="st12" d="M250.6,115.4c0-7.6-5.5-13.1-17.9-13.1s-17.9,5.5-17.9,13.1s-1.3,27.5,17.9,27.5
			C251.8,142.9,250.6,122.9,250.6,115.4L250.6,115.4z"/>
		<path class="st14" d="M225.9,123.9c0,1.2-0.9,2.1-1.9,2.1c-1.1,0-1.9-1-1.9-2.1s0.9-2.1,1.9-2.1S225.9,122.8,225.9,123.9
			L225.9,123.9z"/>
		<path class="st3" d="M223.7,123c0,0.3-0.3,0.6-0.6,0.6s-0.6-0.3-0.6-0.6c0-0.3,0.3-0.6,0.6-0.6S223.7,122.7,223.7,123L223.7,123z"
			/>
		<path class="st15" d="M220.8,119.4c0.9,0.4,2.4-1.2,5.8,0.2c0.6,0.2,1-2.1-2.6-2.1C220.8,117.4,220.3,119.1,220.8,119.4
			L220.8,119.4z"/>
		<path class="st14" d="M243.5,123.9c0,1.2-0.9,2.1-1.9,2.1c-1.1,0-1.9-1-1.9-2.1s0.9-2.1,1.9-2.1
			C242.7,121.8,243.5,122.8,243.5,123.9L243.5,123.9z"/>
		<path class="st3" d="M241.3,123c0,0.3-0.3,0.6-0.6,0.6s-0.6-0.3-0.6-0.6c0-0.3,0.3-0.6,0.6-0.6C241.1,122.4,241.3,122.7,241.3,123
			L241.3,123z"/>
		<path class="st15" d="M244.5,119.4c-0.9,0.4-2.4-1.2-5.8,0.2c-0.6,0.2-1-2.1,2.6-2.1C244.5,117.4,245,119.1,244.5,119.4
			L244.5,119.4z"/>
		<path class="st13" d="M232.6,131.4c-1.9,0-3.1-1.4-3.1-0.7s0.6,2,3.1,2s3.1-1.3,3.1-2C235.7,130,234.6,131.4,232.6,131.4
			L232.6,131.4z"/>
		<path class="st13" d="M234.2,138.9c-0.6,0.2-1.2-0.1-1.1,0.1c0.1,0.2,0.4,0.6,1.2,0.3s0.8-0.8,0.7-1
			C235,138,234.9,138.6,234.2,138.9L234.2,138.9z"/>
		<path class="st16" d="M235.5,136.4c-2.8,1.1-5,0.6-4.9,0.9c0.1,0.3,1.4,1.1,5.1-0.3c3.7-1.5,4.1-2.9,4-3.2
			C239.6,133.5,238.3,135.3,235.5,136.4L235.5,136.4z"/>
		<path class="st17" d="M224.1,133.1c0,1.5-1.2,2.6-2.6,2.6c-1.5,0-2.6-1.2-2.6-2.6c0-1.5,1.2-2.6,2.6-2.6
			C222.9,130.4,224.1,131.6,224.1,133.1L224.1,133.1z"/>
		<path class="st17" d="M246.8,130.7c0,1.5-1.2,2.6-2.6,2.6c-1.5,0-2.6-1.2-2.6-2.6c0-1.5,1.2-2.6,2.6-2.6
			C245.6,128.1,246.8,129.3,246.8,130.7L246.8,130.7z"/>
		<path class="st18" d="M232.6,145.4V157h-20.2C212.4,152.3,222,145.4,232.6,145.4L232.6,145.4z"/>
		<path class="st18" d="M232.6,145.4V157h20.2C252.9,152.3,243.3,145.4,232.6,145.4L232.6,145.4z"/>
		<path class="st19" d="M228.8,145.7c-0.1,0-0.1,0-0.2,0c-1.2,0.2-2.5,0.5-3.6,0.8l7.7,10.5v-5.8l-3.5-5.6
			C229.1,145.6,228.9,145.6,228.8,145.7L228.8,145.7z"/>
		<g>
			<g>
				<g>
					<defs>
						<rect id="SVGID_1_" x="210.1" y="93" width="45.5" height="64.3"/>
					</defs>
					<clipPath id="SVGID_2_">
						<use xlink:href="#SVGID_1_"  style="overflow:visible;"/>
					</clipPath>
					<path class="st20" d="M236.5,145.7c0.1,0,0.1,0,0.2,0c1.2,0.2,2.5,0.5,3.6,0.8l-7.7,10.5v-5.8l3.5-5.6
						C236.2,145.6,236.4,145.6,236.5,145.7L236.5,145.7z"/>
				</g>
			</g>
			<g>
				<g>
					<defs>
						<rect id="SVGID_3_" x="210.1" y="93" width="45.5" height="64.3"/>
					</defs>
					<clipPath id="SVGID_4_">
						<use xlink:href="#SVGID_3_"  style="overflow:visible;"/>
					</clipPath>
					<path class="st21" d="M232.6,93c-20.9,0-23.3,14.8-22.4,32.2c0.9,17.4,15.6,26,15.6,26s-16.6-23.7-2.8-44.5
						c0,0-2.6,4.4-2.4,8.2c0,0-0.4,2.1,7.4-1.8c7.7-3.8,7.7-4.1,7.7-4.1c4.9-3.7,6.5-2.2,6.5-2.2c13.8,20.8-2.8,44.5-2.8,44.5
						s14.8-8.6,15.6-26C256,107.8,253.5,93,232.6,93L232.6,93z"/>
				</g>
			</g>
		</g>
		<path class="st12" d="M228,145.8l4.6,7.7l4.6-7.7C237.3,145.8,232.5,144,228,145.8L228,145.8z"/>
	</g>
</g>
</svg>
