<?xml version="1.0" encoding="utf-8"?>
<!-- Generator: Adobe Illustrator 23.0.0, SVG Export Plug-In . SVG Version: 6.00 Build 0)  -->
<svg version="1.1" id="Слой_1" xmlns="http://www.w3.org/2000/svg" xmlns:xlink="http://www.w3.org/1999/xlink" x="0px" y="0px"
	 viewBox="0 0 316 160.5" style="enable-background:new 0 0 316 160.5;" xml:space="preserve">
<style type="text/css">
	.st0{fill:#26A5D2;}
	.st1{fill:#CCCBCB;}
	.st2{fill:#E6E5E5;}
	.st3{fill:#FFFFFF;}
	.st4{fill:#42444C;}
	.st5{fill:#E84C4F;}
	.st6{fill:#E43334;}
	.st7{fill:#656D78;}
	.st8{fill:#CBD0D8;}
	.st9{fill:#434A54;}
	.st10{fill:#5C95E9;}
	.st11{fill:#E5E8EC;}
	.st12{clip-path:url(#SVGID_2_);fill:#57B36E;}
	.st13{clip-path:url(#SVGID_4_);fill:#57B36E;}
	.st14{fill:#E1EBF0;}
	.st15{fill:#B2D0D6;}
	.st16{fill:#6FA3A8;}
	.st17{fill:#FBCB18;}
	.st18{fill:#FDCA38;}
	.st19{fill:#F6A536;}
	.st20{fill:#F3962C;}
	.st21{fill:#FDDB42;}
	.st22{fill:#DCB115;}
	.st23{fill:#2B271C;}
	.st24{fill:#EEC73E;}
	.st25{fill:#57B36E;}
</style>
<g>
	<g>
		<g>
			<path class="st0" d="M131.5,120.3c-0.5,0-1-0.4-1-1V117c0-12.7-10.3-23-23-23s-23,10.3-23,23v2.4c0,0.5-0.4,1-1,1
				c-0.5,0-1-0.4-1-1V117c0-13.8,11.2-25,25-25s25,11.2,25,25v2.4C132.5,119.9,132.1,120.3,131.5,120.3z"/>
			<path class="st0" d="M130.5,131.5H128c-0.5,0-1-0.4-1-1c0-0.5,0.4-1,1-1h2.5c0.6,0,1.2-0.5,1.2-1.2v-5.2c0-0.5,0.4-1,1-1
				c0.5,0,1,0.4,1,1v5.2C133.6,130.1,132.2,131.5,130.5,131.5z"/>
			<path class="st0" d="M82,128.4v-5.2c0-0.5,0.4-1,1-1c0.5,0,1,0.4,1,1v5.2c0,0.6,0.5,1.2,1.2,1.2h2.5c0.5,0,1,0.4,1,1
				c0,0.5-0.4,1-1,1h-2.5C83.4,131.5,82,130.1,82,128.4z"/>
			<path class="st1" d="M100.6,132.1h13.6v11.6h-13.6V132.1z"/>
			<path class="st2" d="M127.8,127.8c0.2-0.8,0.3-1.6,0.3-2.4v-16.7c0-5.4-4.4-9.8-9.8-9.8H96.8c-5.4,0-9.8,4.4-9.8,9.8v16.7
				c0,5.4,4.4,9.8,9.8,9.8h21.5c2.5,0,4.7-0.9,6.5-2.4"/>
			<path class="st1" d="M94.6,129.2v5.8c-4.4-1-7.7-4.9-7.7-9.6v-5.8C91.3,120.6,94.6,124.5,94.6,129.2z"/>
			<path class="st1" d="M128.1,119.6v5.8c0,0.8-0.1,1.6-0.3,2.4l-3.1,5c-1.2,1.1-2.7,1.8-4.3,2.2v-5.8
				C120.4,124.5,123.7,120.6,128.1,119.6z"/>
			<path class="st3" d="M104.7,113.7c0,3.5-2.8,6.3-6.3,6.3s-6.3-2.8-6.3-6.3s2.8-6.3,6.3-6.3C101.9,107.3,104.7,110.2,104.7,113.7z
				"/>
			<path class="st3" d="M123,113.7c0,3.5-2.8,6.3-6.3,6.3s-6.3-2.8-6.3-6.3s2.8-6.3,6.3-6.3S123,110.2,123,113.7z"/>
			<path class="st4" d="M98.4,116.1c-1.3,0-2.4-1.1-2.4-2.4s1.1-2.4,2.4-2.4s2.4,1.1,2.4,2.4C100.7,115,99.7,116.1,98.4,116.1z"/>
			<path class="st4" d="M116.7,116.1c-1.3,0-2.4-1.1-2.4-2.4s1.1-2.4,2.4-2.4s2.4,1.1,2.4,2.4C119,115,118,116.1,116.7,116.1z"/>
			<path class="st4" d="M92.1,130.5c0,1.5-1.2,2.8-2.8,2.8h-0.9c-1.5,0-2.8-1.2-2.8-2.8c0-1.5,1.2-2.8,2.8-2.8h0.9
				C90.9,127.7,92.1,129,92.1,130.5z"/>
			<g>
				<path class="st5" d="M103.8,125h2.8v10.3h-2.8V125z"/>
				<path class="st5" d="M108.5,125h2.8v10.3h-2.8V125z"/>
				<path class="st5" d="M113.2,125.1v10.2h2.8v-6.5C116,127,114.8,125.5,113.2,125.1z"/>
				<path class="st5" d="M101.8,125.1c-1.6,0.4-2.8,1.9-2.8,3.6v6.5h2.8V125.1z"/>
			</g>
			<path class="st6" d="M86.9,112.1v9.7c0,1.5-1,2.8-2.4,3.1c-0.3,0.1-0.6,0.1-0.9,0.1h-1.3c-1.8,0-3.3-1.5-3.3-3.3V112
				c0-1.8,1.5-3.3,3.3-3.3h1.3c0.3,0,0.6,0,0.9,0.1C85.9,109.4,86.9,110.6,86.9,112.1z"/>
			<path class="st5" d="M86.9,112.1v9.7c0,1.5-1,2.8-2.4,3.1c-1.4-0.4-2.4-1.6-2.4-3.1v-9.7c0-1.5,1-2.8,2.4-3.1
				C85.9,109.4,86.9,110.6,86.9,112.1z"/>
			<path class="st6" d="M135.9,112.1v9.7c0,1.5-1,2.8-2.4,3.1c-0.3,0.1-0.6,0.1-0.9,0.1h-1.3c-1.8,0-3.3-1.5-3.3-3.3V112
				c0-1.8,1.5-3.3,3.3-3.3h1.3c0.3,0,0.6,0,0.9,0.1C134.9,109.4,135.9,110.6,135.9,112.1z"/>
			<path class="st5" d="M135.9,112.1v9.7c0,1.5-1,2.8-2.4,3.1c-1.4-0.4-2.4-1.6-2.4-3.1v-9.7c0-1.5,1-2.8,2.4-3.1
				C134.9,109.4,135.9,110.6,135.9,112.1z"/>
			<path class="st4" d="M126.2,127.7h0.9c1.5,0,2.8,1.2,2.8,2.8c0,1.5-1.2,2.8-2.8,2.8h-0.9c-1.5,0-2.8-1.2-2.8-2.8
				C123.5,128.9,124.7,127.7,126.2,127.7z"/>
			<path class="st1" d="M127.2,146.9v0.2H87.6v-0.2c0-3.5,2.8-6.3,6.3-6.3h26.9C124.4,140.6,127.2,143.4,127.2,146.9z"/>
			<path class="st2" d="M127.2,146.9v0.2H95v-0.2c0-3.5,2.8-6.3,6.3-6.3h19.6C124.4,140.6,127.2,143.4,127.2,146.9z"/>
		</g>
		<path class="st5" d="M107.5,83.7c-20.6,0-37.5,16.8-37.5,37.5s16.8,37.5,37.5,37.5s37.5-16.8,37.5-37.5S128.2,83.7,107.5,83.7
			L107.5,83.7z M107.5,154.3c-18.2,0-33.1-14.9-33.1-33.1c0-8.1,3-15.7,8.3-21.7l46.4,46.4C123.2,151.2,115.6,154.3,107.5,154.3
			L107.5,154.3z M132.3,142.8L85.9,96.4c6-5.3,13.6-8.3,21.7-8.3c18.2,0,33.1,14.9,33.1,33.1C140.6,129.2,137.6,136.8,132.3,142.8
			L132.3,142.8z"/>
		<path class="st6" d="M145,121.2c0,20.7-16.8,37.5-37.5,37.5v-4.4c8.1,0,15.7-3,21.7-8.3l-21.7-21.7V118l24.8,24.8
			c5.3-6,8.3-13.6,8.3-21.7c0-18.2-14.9-33.1-33.1-33.1v-4.4C128.2,83.7,145,100.5,145,121.2L145,121.2z"/>
	</g>
	<g>
		<polygon class="st7" points="202.8,71.5 202.8,57.1 193.3,57.1 193.3,71.5 169.3,71.5 169.3,77.9 193.3,77.9 202.8,77.9 
			226.7,77.9 226.7,71.5 		"/>
		<polygon class="st8" points="206,71.5 202.8,71.5 202.8,57.1 193.3,57.1 193.3,71.5 190.1,71.5 190.1,77.9 193.3,77.9 202.8,77.9 
			206,77.9 		"/>
		<polygon class="st9" points="232,39.2 164,39.2 164,14 177.6,4.9 218.4,4.9 232,14 		"/>
		<rect x="164" y="14" class="st7" width="68" height="27.2"/>
		<path class="st10" d="M223,25.3c0,2.5-2,4.5-4.5,4.5s-4.5-2-4.5-4.5s2-4.5,4.5-4.5C220.9,20.8,223,22.8,223,25.3z"/>
		<g>
			<path class="st9" d="M175.4,29.8c-0.6,0-1.2-0.2-1.6-0.7c-0.9-0.9-0.9-2.3,0-3.2l4.5-4.5c0.9-0.9,2.3-0.9,3.2,0s0.9,2.3,0,3.2
				l-4.5,4.5C176.5,29.6,175.9,29.8,175.4,29.8z"/>
			<path class="st9" d="M184.4,29.8c-0.6,0-1.2-0.2-1.6-0.7c-0.9-0.9-0.9-2.3,0-3.2l4.5-4.5c0.9-0.9,2.3-0.9,3.2,0s0.9,2.3,0,3.2
				l-4.5,4.5C185.6,29.6,185,29.8,184.4,29.8z"/>
			<path class="st9" d="M193.5,29.8c-0.6,0-1.2-0.2-1.6-0.7c-0.9-0.9-0.9-2.3,0-3.2l4.5-4.5c0.9-0.9,2.3-0.9,3.2,0s0.9,2.3,0,3.2
				l-4.5,4.5C194.7,29.6,194.1,29.8,193.5,29.8z"/>
		</g>
		<rect x="164" y="36.6" class="st7" width="68" height="27.2"/>
		<rect x="164" y="36.9" class="st9" width="68" height="4.5"/>
		<path class="st10" d="M223,52.5c0,2.5-2,4.5-4.5,4.5s-4.5-2-4.5-4.5s2-4.5,4.5-4.5C220.9,48,223,50,223,52.5z"/>
		<g>
			<path class="st9" d="M175.4,57.1c-0.6,0-1.2-0.2-1.6-0.7c-0.9-0.9-0.9-2.3,0-3.2l4.5-4.5c0.9-0.9,2.3-0.9,3.2,0s0.9,2.3,0,3.2
				l-4.5,4.5C176.5,56.8,175.9,57.1,175.4,57.1z"/>
			<path class="st9" d="M184.4,57.1c-0.6,0-1.2-0.2-1.6-0.7c-0.9-0.9-0.9-2.3,0-3.2l4.5-4.5c0.9-0.9,2.3-0.9,3.2,0s0.9,2.3,0,3.2
				l-4.5,4.5C185.6,56.8,185,57.1,184.4,57.1z"/>
			<path class="st9" d="M193.5,57.1c-0.6,0-1.2-0.2-1.6-0.7c-0.9-0.9-0.9-2.3,0-3.2l4.5-4.5c0.9-0.9,2.3-0.9,3.2,0s0.9,2.3,0,3.2
				l-4.5,4.5C194.7,56.8,194.1,57.1,193.5,57.1z"/>
		</g>
		<g>
			<rect x="190.1" y="71.4" class="st11" width="15.9" height="3.2"/>
			<rect x="196.4" y="65.1" class="st11" width="3.2" height="6.3"/>
		</g>
		<g>
			<g>
				<g>
					<g>
						<defs>
							<rect id="SVGID_1_" x="179.7" y="16.5" width="36.9" height="43.1"/>
						</defs>
						<clipPath id="SVGID_2_">
							<use xlink:href="#SVGID_1_"  style="overflow:visible;"/>
						</clipPath>
						<path class="st12" d="M214.6,45.3c-1.2,3.1-2.9,5.9-5.2,8.1c-2.6,2.6-6,4.6-10.2,6c-0.1,0-0.3,0.1-0.4,0.1
							c-0.2,0-0.4,0.1-0.6,0.1l0,0c-0.2,0-0.4,0-0.6-0.1c-0.1,0-0.3-0.1-0.4-0.1c-4.1-1.4-7.6-3.5-10.2-6c-2.3-2.2-4-5-5.2-8.1
							c-2.1-5.7-2-12-1.9-17v-0.1c0-0.4,0-0.9,0-1.3c0-2.4,1.9-4.3,4.3-4.5c5-0.3,8.8-1.9,12.1-5.1l0,0c0.5-0.5,1.2-0.7,1.9-0.7
							s1.3,0.3,1.8,0.7l0,0c3.3,3.2,7.1,4.8,12.1,5.1c2.4,0.1,4.3,2.1,4.3,4.5c0,0.5,0,0.9,0,1.3l0,0
							C216.5,33.3,216.7,39.6,214.6,45.3L214.6,45.3z"/>
					</g>
				</g>
				<g>
					<g>
						<defs>
							<rect id="SVGID_3_" x="179.7" y="16.5" width="36.9" height="43.1"/>
						</defs>
						<clipPath id="SVGID_4_">
							<use xlink:href="#SVGID_3_"  style="overflow:visible;"/>
						</clipPath>
						<path class="st13" d="M214.6,45.3c-1.2,3.1-2.9,5.9-5.2,8.1c-2.6,2.6-6,4.6-10.2,6c-0.1,0-0.3,0.1-0.4,0.1
							c-0.2,0-0.4,0.1-0.6,0.1V16.5c0.7,0,1.3,0.3,1.8,0.7l0,0c3.3,3.2,7.1,4.8,12.1,5.1c2.4,0.1,4.3,2.1,4.3,4.5c0,0.5,0,0.9,0,1.3
							l0,0C216.5,33.3,216.7,39.6,214.6,45.3L214.6,45.3z"/>
					</g>
				</g>
			</g>
			<path class="st3" d="M208.9,38.1c0,5.9-4.8,10.7-10.7,10.7l0,0c-5.9,0-10.7-4.8-10.7-10.7s4.8-10.7,10.7-10.7l0,0
				C204.1,27.4,208.9,32.2,208.9,38.1L208.9,38.1z"/>
			<path class="st14" d="M208.9,38.1c0,5.9-4.8,10.7-10.7,10.7V27.3C204.1,27.4,208.9,32.2,208.9,38.1L208.9,38.1z"/>
			<path class="st15" d="M203,36.5l-4.8,4.8l-1,1c-0.2,0.2-0.6,0.4-0.9,0.4c-0.3,0-0.6-0.1-0.9-0.4l-2.2-2.2c-0.5-0.5-0.5-1.3,0-1.8
				s1.3-0.5,1.8,0l1.4,1.4l5-5c0.5-0.5,1.3-0.5,1.8,0C203.5,35.2,203.5,36,203,36.5L203,36.5z"/>
			<path class="st16" d="M203,36.5l-4.8,4.8v-3.6l3-3c0.5-0.5,1.3-0.5,1.8,0S203.5,36,203,36.5L203,36.5z"/>
		</g>
	</g>
	<g>
		<path class="st17" d="M107.7,1.8c-21,0-38.4,17.1-38.4,38.1s17.4,38.4,38.4,38.4s38.1-17.4,38.1-38.4S128.7,1.8,107.7,1.8z"/>
		<path class="st18" d="M145.8,39.9c0,21-17.1,38.4-38.1,38.4V1.8C128.7,1.8,145.8,18.9,145.8,39.9z"/>
		<path class="st19" d="M107.7,10.8c-16.1,0-29.4,13.1-29.4,29.1s13.4,29.4,29.4,29.4s29.1-13.4,29.1-29.4S123.7,10.8,107.7,10.8z"
			/>
		<path class="st20" d="M136.8,39.9c0,16.1-13.1,29.4-29.1,29.4V10.8C123.7,10.8,136.8,23.9,136.8,39.9z"/>
		<path class="st21" d="M112.1,37.7h-2.2v-9h2.2c1.3,0,2.2,1,2.2,2.2c0,3,4.5,3,4.5,0c0-3.7-3-6.7-6.7-6.7h-2.2V22
			c0-1.5-1.1-2.2-2.2-2.2s-2.2,0.8-2.2,2.2v2.2H103c-3.7,0-6.7,3-6.7,6.7v4.5c0,3.7,3,6.7,6.7,6.7h2.5v9.3H103c-1.3,0-2.2-1-2.2-2.2
			c0-3-4.5-3-4.5,0c0,3.7,3,6.7,6.7,6.7h2.5v2.2c0,1.5,1.1,2.2,2.2,2.2s2.2-0.8,2.2-2.2v-2.2h2.2c3.7,0,6.7-3,6.7-6.7v-4.8
			C118.9,40.7,115.9,37.7,112.1,37.7z M105.4,37.7h-2.5c-1.3,0-2.2-1-2.2-2.2V31c0-1.3,1-2.2,2.2-2.2h2.5V37.7z M114.4,49.2
			c0,1.3-1,2.2-2.2,2.2H110v-9.3h2.2c1.3,0,2.2,1,2.2,2.2C114.4,44.3,114.4,49.2,114.4,49.2z"/>
		<path class="st18" d="M112.1,37.7h-2.2v-9h2.2c1.3,0,2.2,1,2.2,2.2c0,3,4.5,3,4.5,0c0-3.7-3-6.7-6.7-6.7h-2.2V22
			c0-1.5-1.1-2.2-2.2-2.2v40.7c1.1,0,2.2-0.8,2.2-2.2v-2.2h2.2c3.7,0,6.7-3,6.7-6.7v-4.8C118.9,40.7,115.9,37.7,112.1,37.7z
			 M114.4,49.2c0,1.3-1,2.2-2.2,2.2H110v-9.3h2.2c1.3,0,2.2,1,2.2,2.2C114.4,44.3,114.4,49.2,114.4,49.2z"/>
	</g>
	<g>
		<path class="st17" d="M217.4,132.6c-1.1,0-2.2,0-3.6,0c0,2.3,0,4.6,0,7c-4.6,0-8.9,0-13.4,0c0-2.3,0-4.5,0-6.9c-1.7,0-3.1,0-4.8,0
			c0,8,0,15.9,0,23.8c-4.5,0-8.8,0-13.3,0c0-8,0-15.8,0-23.8c-1.7,0-3.1,0-4.8,0c0,7.9,0,15.8,0,23.8c-4.9,0-9.6,0-14.4,0
			c0-23.3,0-46.5,0-69.8c23,0,45.8,0,68.9,0c0,15.4,0,30.6,0,45.9C227,132.6,222.2,132.6,217.4,132.6z M212.7,99.1
			c-0.1-0.1-0.2-0.2-0.3-0.3v-0.1c-0.4-0.2-0.8-0.5-1.2-0.5c-9.6,0-19.2,0-28.8,0c-0.4,0-0.7,0.3-1.1,0.5c0,2,0,4.1,0,6.1
			c4.8,0.1,9.6,0.2,14.5,0.2c5.7,0,11.4,0,17.4,0C212.9,102.9,212.8,101,212.7,99.1z M181,112c0,2,0,4,0,6c0.3,0.2,0.6,0.6,0.9,0.6
			c5.3,0,10.6,0,16,0c5,0,10,0,15.4,0c-0.3-2.6-0.5-4.5-0.7-6.5c-0.1-0.1-0.1-0.2-0.2-0.3c-0.3-0.1-0.6-0.4-0.9-0.4
			c-9.8,0-19.7,0-29.5,0C181.6,111.5,181.3,111.8,181,112z"/>
		<path class="st22" d="M217.4,132.6c4.8,0,9.7,0,14.5-0.1c2,6.3,4,12.7,6.1,19.1c-5,0-9.7,0-14.6,0
			C221.3,145.4,219.3,139,217.4,132.6z"/>
		<path class="st9" d="M181,118c0-2,0-4,0-6c10.4,0,20.9-0.1,31.3-0.1c0.1,0.1,0.1,0.2,0.2,0.3c0,1.9,0,3.8,0,5.8
			C201.8,118,191.4,118,181,118z"/>
		<path class="st23" d="M181.2,104.8c0-2,0-4.1,0-6.1c10.4,0,20.8,0,31.1,0v0.1c0,0.1,0.1,0.2,0.1,0.4c0,1.7,0,3.3,0,5
			c-0.1,0.2-0.1,0.4-0.2,0.6C202,104.7,191.6,104.8,181.2,104.8z M181.6,104c10.2,0,20.2,0,30.3,0c0-1.6,0-3.2,0-4.8
			c-10.2,0-20.2,0-30.3,0C181.6,100.9,181.6,102.4,181.6,104z"/>
		<path class="st9" d="M181,118c10.4,0,20.9,0,31.5,0c0-2,0-3.9,0-5.8c0.2,1.9,0.4,3.9,0.7,6.5c-5.4,0-10.4,0-15.4,0
			c-5.3,0-10.6,0-16,0C181.6,118.6,181.3,118.2,181,118z"/>
		<path class="st24" d="M212.3,98.7c-10.4,0-20.8,0-31.1,0c0.4-0.2,0.7-0.5,1.1-0.5c9.6,0,19.2,0,28.8,0
			C211.5,98.2,211.9,98.5,212.3,98.7z"/>
		<path class="st24" d="M181.2,104.8c10.4,0,20.8,0,31.1-0.1c0.1-0.2,0.1-0.4,0.2-0.6c0-1.7,0-3.3,0-5c0.1,0,0.1,0,0.2-0.1
			c0.1,1.9,0.2,3.8,0.4,6c-6,0-11.7,0-17.4,0C190.8,105,186,104.9,181.2,104.8z"/>
		<path class="st24" d="M212.3,111.9c-10.4,0-20.9,0.1-31.3,0.1c0.3-0.2,0.6-0.5,1-0.5c9.8,0,19.7,0,29.5,0
			C211.7,111.5,212,111.8,212.3,111.9z"/>
		<path class="st22" d="M212.7,99.1c-0.1,0-0.1,0-0.2,0.1c0-0.1-0.1-0.2-0.1-0.4C212.5,98.9,212.6,99,212.7,99.1z"/>
		<path class="st9" d="M181.6,104c0-1.6,0-3.1,0-4.8c10.1,0,20.1,0,30.3,0c0,1.6,0,3.1,0,4.8C201.8,104,191.8,104,181.6,104z"/>
		<path class="st22" d="M212.5,104.1c-0.1,0.2-0.1,0.4-0.2,0.6C212.4,104.5,212.5,104.3,212.5,104.1z"/>
	</g>
	<path class="st25" d="M147.2,62.7c0,8.4-6.8,15.2-15.2,15.2s-15.3-6.8-15.3-15.2s6.8-15.3,15.3-15.3
		C140.3,47.4,147.2,54.3,147.2,62.7L147.2,62.7z"/>
	<path class="st3" d="M140.3,55.3c-0.6-0.4-1.4-0.3-1.8,0.3l-7.1,10.2l-5-4.1c-0.5-0.4-1.3-0.4-1.8,0.2c-0.4,0.5-0.4,1.3,0.2,1.8
		l6.1,5c0.2,0.2,0.5,0.3,0.8,0.3c0.1,0,0.1,0,0.2,0c0.3,0,0.7-0.2,0.9-0.5l7.9-11.3C141,56.5,140.8,55.7,140.3,55.3L140.3,55.3z"/>
	<path class="st25" d="M147.2,144.7c0,8.4-6.8,15.2-15.2,15.2s-15.3-6.8-15.3-15.2s6.8-15.3,15.3-15.3
		C140.3,129.4,147.2,136.2,147.2,144.7L147.2,144.7z"/>
	<path class="st3" d="M140.3,137.3c-0.6-0.4-1.4-0.3-1.8,0.3l-7.1,10.2l-5-4.1c-0.5-0.4-1.3-0.4-1.8,0.2c-0.4,0.5-0.4,1.3,0.2,1.8
		l6.1,5c0.2,0.2,0.5,0.3,0.8,0.3c0.1,0,0.1,0,0.2,0c0.3,0,0.7-0.2,0.9-0.5l7.9-11.3C141,138.5,140.8,137.7,140.3,137.3L140.3,137.3z
		"/>
	<path class="st25" d="M236.4,144.7c0,8.4-6.8,15.2-15.2,15.2s-15.3-6.8-15.3-15.2s6.8-15.3,15.3-15.3
		C229.5,129.4,236.4,136.3,236.4,144.7L236.4,144.7z"/>
	<path class="st3" d="M229.5,137.3c-0.6-0.4-1.4-0.3-1.8,0.3l-7.1,10.2l-5-4.1c-0.5-0.4-1.3-0.4-1.8,0.2c-0.4,0.5-0.4,1.3,0.2,1.8
		l6.1,5c0.2,0.2,0.5,0.3,0.8,0.3c0.1,0,0.1,0,0.2,0c0.3,0,0.7-0.2,0.9-0.5l7.9-11.3C230.2,138.5,230,137.7,229.5,137.3L229.5,137.3z
		"/>
</g>
</svg>
