<?xml version="1.0" encoding="utf-8"?>
<!-- Generator: Adobe Illustrator 23.0.1, SVG Export Plug-In . SVG Version: 6.00 Build 0)  -->
<svg version="1.1" id="Слой_1" xmlns="http://www.w3.org/2000/svg" xmlns:xlink="http://www.w3.org/1999/xlink" x="0px" y="0px"
	 viewBox="0 0 316 158" style="enable-background:new 0 0 316 158;" xml:space="preserve">
<style type="text/css">
	.st0{fill:#57B36E;}
	.st1{fill:#E84C4F;}
	.st2{fill:#FFFFFF;}
	.st3{fill:none;stroke:#AFB8D1;stroke-width:3;stroke-miterlimit:10;}
	.st4{fill:#FFD681;}
	.st5{fill:#FAC16F;}
	.st6{fill:#5C95E9;}
	.st7{fill:#D7DDEB;}
	.st8{fill:#C7CEE0;}
	.st9{fill:#AEB8D1;}
	.st10{fill:#543C2A;}
	.st11{fill:#FACB9B;}
	.st12{fill:#F8BB84;}
	.st13{fill:#3A2519;}
	.st14{fill:#694C38;}
	.st15{fill:#F2925F;}
	.st16{fill:#F4A88C;}
	.st17{fill:#F4A75F;}
	.st18{fill:#F18945;}
	.st19{clip-path:url(#SVGID_2_);fill:#F18945;}
	.st20{clip-path:url(#SVGID_4_);fill:#694C38;}
</style>
<g>
	<g>
		<path class="st0" d="M220.3,66.7c0-12.5-3.4-24-9.4-33.9l-56.5,33.9L122,124c9.6,5.4,20.6,8.5,32.4,8.5
			C190.8,132.6,220.3,103.1,220.3,66.7z"/>
		<g>
			<path class="st1" d="M88.8,66.7c0,24.6,13.5,46.1,33.5,57.4l32.4-57.4l-42.8-50C97.7,28.7,88.8,46.7,88.8,66.7z"/>
			<path class="st1" d="M154.4,0.8c-16.4,0-31.4,6-42.8,15.9l42.8,50l56.5-33.9C199.4,13.6,178.4,0.8,154.4,0.8z"/>
		</g>
	</g>
	<g>
		<path class="st2" d="M120.1,38.1h-6.8v4.2h3.5c1.5,0,2.6,0.4,3.4,1.2c0.8,0.8,1.3,1.8,1.3,3c0,1.3-0.4,2.3-1.3,3
			c-0.9,0.8-2,1.2-3.4,1.2h-5.4V36.7h8.6L120.1,38.1L120.1,38.1z M113.2,43.9v5.3h3.4c0.9,0,1.7-0.3,2.2-0.8c0.5-0.5,0.8-1.2,0.8-2
			c0-0.8-0.3-1.4-0.8-1.9c-0.5-0.5-1.2-0.7-2.1-0.7C116.7,43.9,113.2,43.9,113.2,43.9z"/>
		<path class="st2" d="M123.2,45.4c0-1,0.2-2,0.6-2.7c0.4-0.8,1-1.5,1.7-1.9c0.7-0.5,1.6-0.7,2.5-0.7c1.5,0,2.5,0.5,3.4,1.5
			c0.9,1,1.3,2.3,1.3,3.9v0.1c0,1-0.2,2-0.6,2.7c-0.4,0.8-1,1.5-1.7,1.9c-0.7,0.5-1.6,0.7-2.5,0.7c-1.4,0-2.5-0.5-3.4-1.5
			C123.6,48.4,123.2,47.1,123.2,45.4L123.2,45.4z M125,45.6c0,1.2,0.3,2.1,0.8,2.8c0.5,0.7,1.3,1.1,2.2,1.1c0.9,0,1.7-0.4,2.2-1.1
			c0.5-0.7,0.8-1.7,0.8-3c0-1.2-0.3-2.1-0.8-2.7c-0.6-0.7-1.3-1.1-2.2-1.1c-0.9,0-1.6,0.4-2.2,1.1C125.2,43.2,125,44.3,125,45.6z"/>
		<path class="st2" d="M142.4,41.7H139v9h-1.8v-9h-3.4v-1.5h8.7L142.4,41.7L142.4,41.7z"/>
		<path class="st2" d="M146.1,43.8h2.7c1.2,0,2.2,0.3,2.8,0.9c0.7,0.6,1.1,1.5,1.1,2.5c0,1.1-0.4,1.9-1.1,2.5c-0.7,0.6-1.7,1-2.8,1
			h-4.4V40.3h1.8L146.1,43.8L146.1,43.8z M146.1,45.3v3.9h2.6c0.7,0,1.2-0.2,1.6-0.5c0.4-0.4,0.6-0.8,0.6-1.4c0-0.6-0.2-1.1-0.5-1.5
			c-0.4-0.4-0.9-0.6-1.5-0.6C149,45.3,146.1,45.3,146.1,45.3z M156.4,50.7h-1.8V40.3h1.8V50.7z"/>
	</g>
	<g>
		<path class="st2" d="M158.3,87.2h-1.1v4H156v-8.9h1.2v3.9h0.9l3.1-3.9h1.5l-3.3,4.3l3.6,4.6h-1.5L158.3,87.2z"/>
		<path class="st2" d="M169.4,84.6v6.7h-1.2v-5.7h-2.3l-0.1,2.5c-0.1,1.2-0.3,2-0.6,2.5c-0.3,0.5-0.8,0.8-1.5,0.8h-0.5v-1h0.3
			c0.4,0,0.6-0.3,0.8-0.7c0.2-0.4,0.3-1.1,0.3-2.2l0.1-2.8C164.8,84.6,169.4,84.6,169.4,84.6z"/>
		<path class="st2" d="M175.4,84.6h1.2v6.7h-1.2v-4.8l-3,4.8h-1.2v-6.7h1.2v4.9L175.4,84.6z"/>
		<path class="st2" d="M181.2,91.3c-0.9,0-1.7-0.3-2.2-0.9c-0.5-0.6-0.9-1.4-0.9-2.4v-0.2c0-0.7,0.1-1.3,0.4-1.8
			c0.3-0.5,0.6-0.9,1.1-1.2s1-0.4,1.5-0.4c0.9,0,1.6,0.3,2.1,0.9c0.5,0.6,0.7,1.4,0.7,2.5v0.5h-4.5c0,0.7,0.2,1.2,0.6,1.6
			c0.4,0.4,0.8,0.6,1.4,0.6c0.4,0,0.8-0.1,1-0.3c0.3-0.2,0.5-0.4,0.7-0.7l0.7,0.6C183.2,90.9,182.3,91.3,181.2,91.3z M181,85.3
			c-0.5,0-0.9,0.2-1.2,0.5s-0.5,0.8-0.6,1.4h3.3v-0.1c0-0.6-0.2-1-0.5-1.4C181.9,85.5,181.5,85.3,181,85.3z"/>
		<path class="st2" d="M190.5,91.2h-1.2v-2.8h-3v2.8h-1.2v-6.7h1.2v2.8h3v-2.8h1.2V91.2z"/>
		<path class="st2" d="M197.3,85.4h-2.3v5.7h-1.2v-5.7h-2.2v-0.9h5.6V85.4z"/>
		<path class="st2" d="M199.7,86.8h1.8c0.8,0,1.4,0.2,1.8,0.6c0.4,0.4,0.7,0.9,0.7,1.6s-0.2,1.2-0.7,1.6c-0.5,0.4-1.1,0.6-1.9,0.6
			h-2.8v-6.7h1.2L199.7,86.8L199.7,86.8z M199.7,87.8v2.5h1.7c0.4,0,0.8-0.1,1-0.3s0.4-0.5,0.4-0.9s-0.1-0.7-0.3-0.9
			c-0.2-0.2-0.6-0.4-1-0.4L199.7,87.8L199.7,87.8z M206.2,91.2h-1.2v-6.7h1.2V91.2z"/>
	</g>
	<line class="st3" x1="64.5" y1="137.7" x2="208.1" y2="137.7"/>
	<g>
		<g>
			<path class="st4" d="M102.2,154.3c-1.3,0-2.4-1.1-2.4-2.4v-31.9c0-1.3,1.1-2.4,2.4-2.4h7c1.3,0,2.4,1.1,2.4,2.4V152
				c0,1.3-1.1,2.4-2.4,2.4H102.2z"/>
			<path class="st2" d="M109.2,118.7c0.8,0,1.4,0.6,1.4,1.4V152c0,0.8-0.6,1.4-1.4,1.4h-7c-0.8,0-1.4-0.6-1.4-1.4v-31.9
				c0-0.8,0.6-1.4,1.4-1.4H109.2 M109.2,116.8h-7c-1.9,0-3.3,1.5-3.3,3.3V152c0,1.9,1.5,3.3,3.3,3.3h7c1.9,0,3.3-1.5,3.3-3.3v-31.9
				C112.5,118.2,111.1,116.8,109.2,116.8L109.2,116.8z"/>
		</g>
		<g>
			<path class="st5" d="M102.2,154.3c-1.3,0-2.4-1.1-2.4-2.4v-23.5c0-1.3,1.1-2.4,2.4-2.4h7c1.3,0,2.4,1.1,2.4,2.4V152
				c0,1.3-1.1,2.4-2.4,2.4H102.2z"/>
			<path class="st2" d="M109.2,127.1c0.8,0,1.4,0.6,1.4,1.4V152c0,0.8-0.6,1.4-1.4,1.4h-7c-0.8,0-1.4-0.6-1.4-1.4v-23.5
				c0-0.8,0.6-1.4,1.4-1.4H109.2 M109.2,125.1h-7c-1.9,0-3.3,1.5-3.3,3.3V152c0,1.9,1.5,3.3,3.3,3.3h7c1.9,0,3.3-1.5,3.3-3.3v-23.5
				C112.5,126.6,111.1,125.1,109.2,125.1L109.2,125.1z"/>
		</g>
		<g>
			<path class="st0" d="M116.2,154.3c-1.3,0-2.4-1.1-2.4-2.4V95.2c0-1.3,1.1-2.4,2.4-2.4h7c1.3,0,2.4,1.1,2.4,2.4V152
				c0,1.3-1.1,2.4-2.4,2.4H116.2z"/>
			<path class="st2" d="M123,93.8c0.8,0,1.4,0.6,1.4,1.4V152c0,0.8-0.6,1.4-1.4,1.4h-7c-0.8,0-1.4-0.6-1.4-1.4V95.2
				c0-0.8,0.6-1.4,1.4-1.4H123 M123,91.9h-7c-1.9,0-3.3,1.5-3.3,3.3V152c0,1.9,1.5,3.3,3.3,3.3h7c1.9,0,3.3-1.5,3.3-3.3V95.2
				C126.4,93.3,124.9,91.9,123,91.9L123,91.9z"/>
		</g>
		<g>
			<path class="st0" d="M116.2,154.3c-1.3,0-2.4-1.1-2.4-2.4v-40.2c0-1.3,1.1-2.4,2.4-2.4h7c1.3,0,2.4,1.1,2.4,2.4V152
				c0,1.3-1.1,2.4-2.4,2.4H116.2z"/>
			<path class="st2" d="M123,110.4c0.8,0,1.4,0.6,1.4,1.4V152c0,0.8-0.6,1.4-1.4,1.4h-7c-0.8,0-1.4-0.6-1.4-1.4v-40.2
				c0-0.8,0.6-1.4,1.4-1.4H123 M123,108.4h-7c-1.9,0-3.3,1.5-3.3,3.3V152c0,1.9,1.5,3.3,3.3,3.3h7c1.9,0,3.3-1.5,3.3-3.3v-40.2
				C126.4,110,124.9,108.4,123,108.4L123,108.4z"/>
		</g>
		<g>
			<path class="st6" d="M74.6,154.3c-1.3,0-2.4-1.1-2.4-2.4v-23.5c0-1.3,1.1-2.4,2.4-2.4h7c1.3,0,2.4,1.1,2.4,2.4V152
				c0,1.3-1.1,2.4-2.4,2.4H74.6z"/>
			<path class="st2" d="M81.5,127.1c0.8,0,1.4,0.6,1.4,1.4V152c0,0.8-0.6,1.4-1.4,1.4h-7c-0.8,0-1.4-0.6-1.4-1.4v-23.5
				c0-0.8,0.6-1.4,1.4-1.4H81.5 M81.5,125.1h-7c-1.9,0-3.3,1.5-3.3,3.3V152c0,1.9,1.5,3.3,3.3,3.3h7c1.9,0,3.3-1.5,3.3-3.3v-23.5
				C84.9,126.6,83.3,125.1,81.5,125.1L81.5,125.1z"/>
		</g>
		<g>
			<path class="st6" d="M130,154.3c-1.3,0-2.4-1.1-2.4-2.4V86.9c0-1.3,1.1-2.4,2.4-2.4h7c1.3,0,2.4,1.1,2.4,2.4V152
				c0,1.3-1.1,2.4-2.4,2.4H130z"/>
			<path class="st2" d="M136.9,85.5c0.8,0,1.4,0.6,1.4,1.4V152c0,0.8-0.6,1.4-1.4,1.4h-7c-0.8,0-1.4-0.6-1.4-1.4V86.9
				c0-0.8,0.6-1.4,1.4-1.4H136.9 M136.9,83.5h-7c-1.9,0-3.3,1.5-3.3,3.3V152c0,1.9,1.5,3.3,3.3,3.3h7c1.9,0,3.3-1.5,3.3-3.3V86.9
				C140.2,85,138.7,83.5,136.9,83.5L136.9,83.5z"/>
		</g>
		<g>
			<path class="st6" d="M130,154.3c-1.3,0-2.4-1.1-2.4-2.4v-48.4c0-1.3,1.1-2.4,2.4-2.4h7c1.3,0,2.4,1.1,2.4,2.4V152
				c0,1.3-1.1,2.4-2.4,2.4H130z"/>
			<path class="st2" d="M136.9,102.2c0.8,0,1.4,0.6,1.4,1.4V152c0,0.8-0.6,1.4-1.4,1.4h-7c-0.8,0-1.4-0.6-1.4-1.4v-48.4
				c0-0.8,0.6-1.4,1.4-1.4H136.9 M136.9,100.2h-7c-1.9,0-3.3,1.5-3.3,3.3V152c0,1.9,1.5,3.3,3.3,3.3h7c1.9,0,3.3-1.5,3.3-3.3v-48.4
				C140.2,101.7,138.7,100.2,136.9,100.2L136.9,100.2z"/>
		</g>
		<g>
			<path class="st1" d="M88.4,154.3c-1.3,0-2.4-1.1-2.4-2.4v-40.2c0-1.3,1.1-2.4,2.4-2.4h7c1.3,0,2.4,1.1,2.4,2.4V152
				c0,1.3-1.1,2.4-2.4,2.4H88.4z"/>
			<path class="st2" d="M95.4,110.4c0.8,0,1.4,0.6,1.4,1.4V152c0,0.8-0.6,1.4-1.4,1.4h-7c-0.8,0-1.4-0.6-1.4-1.4v-40.2
				c0-0.8,0.6-1.4,1.4-1.4H95.4 M95.4,108.4h-7c-1.9,0-3.3,1.5-3.3,3.3V152c0,1.9,1.5,3.3,3.3,3.3h7c1.9,0,3.3-1.5,3.3-3.3v-40.2
				C98.7,110,97.2,108.4,95.4,108.4L95.4,108.4z"/>
		</g>
		<g>
			<path class="st1" d="M88.4,154.3c-1.3,0-2.4-1.1-2.4-2.4v-31.9c0-1.3,1.1-2.4,2.4-2.4h7c1.3,0,2.4,1.1,2.4,2.4V152
				c0,1.3-1.1,2.4-2.4,2.4H88.4z"/>
			<path class="st2" d="M95.4,118.7c0.8,0,1.4,0.6,1.4,1.4V152c0,0.8-0.6,1.4-1.4,1.4h-7c-0.8,0-1.4-0.6-1.4-1.4v-31.9
				c0-0.8,0.6-1.4,1.4-1.4H95.4 M95.4,116.8h-7c-1.9,0-3.3,1.5-3.3,3.3V152c0,1.9,1.5,3.3,3.3,3.3h7c1.9,0,3.3-1.5,3.3-3.3v-31.9
				C98.7,118.2,97.2,116.8,95.4,116.8L95.4,116.8z"/>
		</g>
		<g>
			<path class="st6" d="M74.6,154.3c-1.3,0-2.4-1.1-2.4-2.4v-15.2c0-1.3,1.1-2.4,2.4-2.4h7c1.3,0,2.4,1.1,2.4,2.4V152
				c0,1.3-1.1,2.4-2.4,2.4H74.6z"/>
			<path class="st2" d="M81.5,135.3c0.8,0,1.4,0.6,1.4,1.4v15.2c0,0.8-0.6,1.4-1.4,1.4h-7c-0.8,0-1.4-0.6-1.4-1.4v-15.1
				c0-0.8,0.6-1.4,1.4-1.4L81.5,135.3 M81.5,133.3h-7c-1.9,0-3.3,1.5-3.3,3.3v15.2c0,1.9,1.5,3.3,3.3,3.3h7c1.9,0,3.3-1.5,3.3-3.3
				v-15.1C84.9,134.9,83.3,133.3,81.5,133.3L81.5,133.3z"/>
		</g>
		<g>
			<g>
				<path class="st7" d="M64.2,147.4c-1.3,0-2.4-1.1-2.4-2.4s1.1-2.4,2.4-2.4h3.7v4.7L64.2,147.4L64.2,147.4z"/>
				<path class="st2" d="M66.9,143.6v2.7h-2.7c-0.8,0-1.4-0.6-1.4-1.4c0-0.8,0.6-1.4,1.4-1.4L66.9,143.6 M68.9,141.7h-2h-2.7
					c-1.9,0-3.3,1.5-3.3,3.3s1.5,3.3,3.3,3.3h2.7h2v-2v-2.7V141.7L68.9,141.7z"/>
			</g>
			<g>
				<path class="st7" d="M64.2,139.1c-1.3,0-2.4-1.1-2.4-2.4s1.1-2.4,2.4-2.4h3.7v4.7L64.2,139.1L64.2,139.1z"/>
				<path class="st2" d="M66.9,135.3v2.7h-2.7c-0.8,0-1.4-0.6-1.4-1.4c0-0.8,0.6-1.4,1.4-1.4L66.9,135.3 M68.9,133.3h-2h-2.7
					c-1.9,0-3.3,1.5-3.3,3.3c0,1.9,1.5,3.3,3.3,3.3h2.7h2v-2v-2.7V133.3L68.9,133.3z"/>
			</g>
			<g>
				<path class="st7" d="M64.2,130.8c-1.3,0-2.4-1.1-2.4-2.4c0-1.3,1.1-2.4,2.4-2.4h3.7v4.7L64.2,130.8L64.2,130.8z"/>
				<path class="st2" d="M66.9,127.1v2.7h-2.7c-0.8,0-1.4-0.6-1.4-1.4c0-0.8,0.6-1.4,1.4-1.4L66.9,127.1 M68.9,125.1h-2h-2.7
					c-1.9,0-3.3,1.5-3.3,3.3c0,1.9,1.5,3.3,3.3,3.3h2.7h2v-2v-2.7V125.1L68.9,125.1z"/>
			</g>
			<g>
				<path class="st7" d="M64.2,122.5c-1.3,0-2.4-1.1-2.4-2.4s1.1-2.4,2.4-2.4h3.7v4.7H64.2z"/>
				<path class="st2" d="M66.9,118.7v2.7h-2.7c-0.8,0-1.4-0.6-1.4-1.4s0.6-1.4,1.4-1.4H66.9 M68.9,116.8h-2h-2.7
					c-1.9,0-3.3,1.5-3.3,3.3s1.5,3.3,3.3,3.3h2.7h2v-2v-2.7V116.8L68.9,116.8z"/>
			</g>
			<g>
				<path class="st7" d="M64.2,114.2c-1.3,0-2.4-1.1-2.4-2.4s1.1-2.4,2.4-2.4h3.7v4.7H64.2z"/>
				<path class="st2" d="M66.9,110.4v2.7h-2.7c-0.8,0-1.4-0.6-1.4-1.4s0.6-1.4,1.4-1.4H66.9 M68.9,108.4h-2h-2.7
					c-1.9,0-3.3,1.5-3.3,3.3s1.5,3.3,3.3,3.3h2.7h2v-2v-2.7V108.4L68.9,108.4z"/>
			</g>
			<g>
				<path class="st7" d="M64.2,105.9c-1.3,0-2.4-1.1-2.4-2.4s1.1-2.4,2.4-2.4h3.7v4.7H64.2z"/>
				<path class="st2" d="M66.9,102.2v2.7h-2.7c-0.8,0-1.4-0.6-1.4-1.4s0.6-1.4,1.4-1.4H66.9 M68.9,100.2h-2h-2.7
					c-1.9,0-3.3,1.5-3.3,3.3s1.5,3.3,3.3,3.3h2.7h2v-2v-2.7V100.2L68.9,100.2z"/>
			</g>
			<g>
				<path class="st7" d="M64.2,97.5c-1.3,0-2.4-1.1-2.4-2.4s1.1-2.4,2.4-2.4h3.7v4.7H64.2z"/>
				<path class="st2" d="M66.9,93.8v2.7h-2.7c-0.8,0-1.4-0.6-1.4-1.4s0.6-1.4,1.4-1.4H66.9 M68.9,91.9h-2h-2.7
					c-1.9,0-3.3,1.5-3.3,3.3s1.5,3.3,3.3,3.3h2.7h2v-2v-2.7V91.9L68.9,91.9z"/>
			</g>
			<g>
				<path class="st7" d="M64.2,89.2c-1.3,0-2.4-1.1-2.4-2.4s1.1-2.4,2.4-2.4h3.7v4.7H64.2z"/>
				<path class="st2" d="M66.9,85.5v2.7h-2.7c-0.8,0-1.4-0.6-1.4-1.4s0.6-1.4,1.4-1.4H66.9 M68.9,83.5h-2h-2.7
					c-1.9,0-3.3,1.5-3.3,3.3s1.5,3.3,3.3,3.3h2.7h2v-2v-2.7V83.5L68.9,83.5z"/>
			</g>
		</g>
		<g>
			<path class="st8" d="M66.9,154.3c-1.3,0-2.4-1.1-2.4-2.4V78.6c0-1.3,1.1-2.4,2.4-2.4c1.3,0,2.4,1.1,2.4,2.4V152
				C69.3,153.2,68.3,154.3,66.9,154.3z"/>
			<path class="st2" d="M66.9,77.2c0.8,0,1.4,0.6,1.4,1.4v73.3c0,0.8-0.6,1.4-1.4,1.4c-0.8,0-1.4-0.6-1.4-1.4V78.6
				C65.6,77.8,66.2,77.2,66.9,77.2 M66.9,75.2c-1.9,0-3.3,1.5-3.3,3.3v73.3c0,1.9,1.5,3.3,3.3,3.3c1.9,0,3.3-1.5,3.3-3.3V78.6
				C70.3,76.8,68.8,75.2,66.9,75.2L66.9,75.2z"/>
		</g>
		<g>
			<path class="st9" d="M64.2,155.7c-1.3,0-2.4-1.1-2.4-2.4c0-1.3,1.1-2.4,2.4-2.4h77.6c1.3,0,2.4,1.1,2.4,2.4
				c0,1.3-1.1,2.4-2.4,2.4H64.2z"/>
			<path class="st2" d="M141.8,152c0.8,0,1.4,0.6,1.4,1.4s-0.6,1.4-1.4,1.4H64.2c-0.8,0-1.4-0.6-1.4-1.4c0-0.8,0.6-1.4,1.4-1.4
				H141.8 M141.8,150H64.2c-1.9,0-3.3,1.5-3.3,3.3c0,1.9,1.5,3.3,3.3,3.3h77.6c1.9,0,3.3-1.5,3.3-3.3
				C145.1,151.5,143.6,150,141.8,150L141.8,150z"/>
		</g>
	</g>
	<g>
		<path class="st10" d="M232.6,112.1v40.4h18.5c0,0,3.5-18.2,3.4-29.3C254.6,112.2,232.6,112.1,232.6,112.1L232.6,112.1z"/>
		<path class="st10" d="M232.6,112.1v40.4h-18.5c0,0-3.5-18.2-3.4-29.3C210.8,112.2,232.6,112.1,232.6,112.1L232.6,112.1z"/>
		<rect x="228.1" y="138.9" class="st11" width="9" height="10.1"/>
		<path class="st12" d="M228.1,140.1c0,0,3.8,2.5,9,1.9v-3h-9V140.1z"/>
		<path class="st12" d="M219.5,123.2c0,2.7-2,5-4.4,5c-2.5,0-4.4-2.3-4.4-5c0-2.7,2-5,4.4-5C217.5,118.1,219.5,120.4,219.5,123.2
			L219.5,123.2z"/>
		<path class="st12" d="M254.7,123.2c0,2.7-2,5-4.4,5s-4.4-2.3-4.4-5c0-2.7,2-5,4.4-5C252.8,118.1,254.7,120.4,254.7,123.2
			L254.7,123.2z"/>
		<path class="st11" d="M250.3,113.6c0-7.5-5.4-12.8-17.6-12.8s-17.6,5.4-17.6,12.8s-1.3,27,17.6,27
			C251.5,140.6,250.3,121,250.3,113.6L250.3,113.6z"/>
		<path class="st13" d="M226.1,122c0,1.2-0.9,2.1-1.9,2.1c-1.1,0-1.9-1-1.9-2.1s0.9-2.1,1.9-2.1C225.2,119.9,226.1,120.9,226.1,122
			L226.1,122z"/>
		<path class="st2" d="M223.9,121.1c0,0.3-0.3,0.6-0.6,0.6c-0.3,0-0.6-0.3-0.6-0.6c0-0.3,0.3-0.6,0.6-0.6
			C223.6,120.5,223.9,120.8,223.9,121.1L223.9,121.1z"/>
		<path class="st14" d="M221.1,117.6c0.9,0.4,2.4-1.2,5.7,0.2c0.6,0.2,1-2.1-2.5-2.1C221.1,115.6,220.6,117.3,221.1,117.6
			L221.1,117.6z"/>
		<path class="st13" d="M243.3,122c0,1.2-0.9,2.1-1.9,2.1c-1.1,0-1.9-1-1.9-2.1s0.9-2.1,1.9-2.1C242.6,119.9,243.3,120.9,243.3,122
			L243.3,122z"/>
		<path class="st2" d="M241.2,121.1c0,0.3-0.3,0.6-0.6,0.6c-0.3,0-0.6-0.3-0.6-0.6c0-0.3,0.3-0.6,0.6-0.6
			C241,120.5,241.2,120.8,241.2,121.1L241.2,121.1z"/>
		<path class="st14" d="M244.3,117.6c-0.9,0.4-2.4-1.2-5.7,0.2c-0.6,0.2-1-2.1,2.5-2.1C244.3,115.6,244.8,117.3,244.3,117.6
			L244.3,117.6z"/>
		<path class="st12" d="M232.6,129.3c-1.9,0-3-1.4-3-0.7c0,0.7,0.6,2,3,2c2.5,0,3-1.3,3-2C235.7,127.9,234.6,129.3,232.6,129.3
			L232.6,129.3z"/>
		<path class="st12" d="M234.2,136.7c-0.6,0.2-1.2-0.1-1.1,0.1c0.1,0.2,0.4,0.6,1.2,0.3c0.8-0.3,0.8-0.8,0.7-1
			C235,135.8,234.9,136.4,234.2,136.7L234.2,136.7z"/>
		<path class="st15" d="M235.5,134.2c-2.7,1.1-4.9,0.6-4.8,0.9c0.1,0.3,1.4,1.1,5-0.3c3.6-1.5,4-2.8,3.9-3.1
			C239.5,131.4,238.2,133.1,235.5,134.2L235.5,134.2z"/>
		<path class="st16" d="M224.3,131c0,1.5-1.2,2.5-2.5,2.5c-1.5,0-2.5-1.2-2.5-2.5c0-1.5,1.2-2.5,2.5-2.5
			C223.1,128.3,224.3,129.5,224.3,131L224.3,131z"/>
		<path class="st16" d="M246.6,128.6c0,1.5-1.2,2.5-2.5,2.5c-1.5,0-2.5-1.2-2.5-2.5c0-1.5,1.2-2.5,2.5-2.5
			C245.4,126.1,246.6,127.3,246.6,128.6L246.6,128.6z"/>
		<path class="st17" d="M232.6,143v11.4h-19.8C212.8,149.8,222.3,143,232.6,143L232.6,143z"/>
		<path class="st17" d="M232.6,143v11.4h19.8C252.6,149.8,243.1,143,232.6,143L232.6,143z"/>
		<path class="st18" d="M228.9,143.3c-0.1,0-0.1,0-0.2,0c-1.2,0.2-2.5,0.5-3.5,0.8l7.6,10.3v-5.7l-3.4-5.5
			C229.2,143.2,229,143.2,228.9,143.3L228.9,143.3z"/>
		<g>
			<g>
				<g>
					<g>
						<defs>
							<rect id="SVGID_1_" x="210.6" y="91.7" width="44.6" height="63"/>
						</defs>
						<clipPath id="SVGID_2_">
							<use xlink:href="#SVGID_1_"  style="overflow:visible;"/>
						</clipPath>
						<path class="st19" d="M236.5,143.3c0.1,0,0.1,0,0.2,0c1.2,0.2,2.5,0.5,3.5,0.8l-7.6,10.3v-5.7l3.4-5.5
							C236.2,143.2,236.4,143.2,236.5,143.3L236.5,143.3z"/>
					</g>
				</g>
			</g>
			<g>
				<g>
					<g>
						<defs>
							<rect id="SVGID_3_" x="210.6" y="91.7" width="44.6" height="63"/>
						</defs>
						<clipPath id="SVGID_4_">
							<use xlink:href="#SVGID_3_"  style="overflow:visible;"/>
						</clipPath>
						<path class="st20" d="M232.6,91.7c-20.5,0-22.8,14.5-22,31.6c0.9,17.1,15.3,25.5,15.3,25.5s-16.3-23.2-2.7-43.6
							c0,0-2.5,4.3-2.4,8c0,0-0.4,2.1,7.3-1.8c7.6-3.7,7.6-4,7.6-4c4.8-3.6,6.4-2.2,6.4-2.2c13.5,20.4-2.7,43.6-2.7,43.6
							s14.5-8.4,15.3-25.5C255.6,106.2,253.1,91.7,232.6,91.7L232.6,91.7z"/>
					</g>
				</g>
			</g>
		</g>
		<path class="st11" d="M228.1,143.4l4.5,7.6l4.5-7.6C237.3,143.4,232.6,141.7,228.1,143.4L228.1,143.4z"/>
	</g>
</g>
</svg>
