<?xml version="1.0" encoding="utf-8"?>
<!-- Generator: Adobe Illustrator 23.0.0, SVG Export Plug-In . SVG Version: 6.00 Build 0)  -->
<svg version="1.1" id="Слой_1" xmlns="http://www.w3.org/2000/svg" xmlns:xlink="http://www.w3.org/1999/xlink" x="0px" y="0px"
	 viewBox="0 0 66.5 64.1" style="enable-background:new 0 0 66.5 64.1;" xml:space="preserve">
<style type="text/css">
	.st0{fill:#5C95E9;}
	.st1{fill:#FBCB18;}
	.st2{fill:#CCCCCC;}
	.st3{fill:#57B36E;}
	.st4{fill:#E84C4F;}
	.st5{fill:#E43334;}
	.st6{fill:#7B7B7B;}
	.st7{fill:#FFFFFF;}
	.st8{fill:#E1EBF0;}
	.st9{fill:#B2D0D6;}
</style>
<title>shield</title>
<desc>Created with Sketch.</desc>
<g>
	<g>
		<g>
			<path class="st0" d="M25.3,62.2h18.4l-1.5-11.5H26.8L25.3,62.2z"/>
			<path class="st1" d="M27.2,47h6.4l-5.4-8.5L27.2,47z"/>
			<path class="st2" d="M45.6,47h14.9l-4.7-11.3H44.2L45.6,47z"/>
			<path class="st3" d="M8.6,47h14.8l1.4-11.3H13.3L8.6,47z"/>
			<path class="st1" d="M35.4,47h6.4l-1.1-8.4L35.4,47z"/>
			<path class="st2" d="M62.1,50.8h-16l1.5,11.5h19.2L62.1,50.8z"/>
			<path class="st4" d="M22.2,7.2C24.7,2.9,29.3,0,34.5,0c7.9,0,14.3,6.4,14.3,14.3c0,2-0.4,3.9-1.1,5.6c-0.7,1.7-1.8,3.3-3.1,4.5
				c-1.1,1.2-2.1,2.4-2.9,3.6c-5.7,8.1-7.1,17.4-7.1,17.4s-1.6-10-8-18.4c-0.7-0.9-1.4-1.8-2.2-2.6l0,0c-0.9-0.9-1.6-1.8-2.3-2.9
				c-1.2-2.1-2-4.6-2-7.2C20.3,11.7,21,9.3,22.2,7.2z"/>
			<path class="st5" d="M34.5,6.7c4.2,0,7.6,3.4,7.6,7.6s-3.4,7.6-7.6,7.6s-7.6-3.4-7.6-7.6S30.3,6.7,34.5,6.7z"/>
		</g>
		<path class="st6" d="M51.5,38.7c-4.6,0-8.4-3.8-8.4-8.4s3.8-8.4,8.4-8.4c2.2,0,4.3,0.9,5.9,2.5l-1.9,1.9c-1.1-1.1-2.5-1.7-4-1.7
			c-3.1,0-5.6,2.5-5.6,5.6s2.5,5.6,5.6,5.6c2.6,0,4.9-1.8,5.5-4.3h-5.5v-2.8h8.4v1.4C59.9,35,56.1,38.7,51.5,38.7z"/>
	</g>
	<g>
		<path class="st7" d="M25,51.5C25,58.4,19.4,64,12.5,64l0,0C5.6,64,0,58.4,0,51.5S5.6,39,12.5,39l0,0C19.4,39.1,25,44.7,25,51.5
			L25,51.5z"/>
		<path class="st8" d="M25,51.5C25,58.4,19.4,64,12.5,64V39C19.4,39.1,25,44.7,25,51.5L25,51.5z"/>
		<path class="st9" d="M18,49.3h-0.3v-1.5c0-2.8-2.2-5.2-5-5.2c-0.1,0-0.2,0-0.3,0c-2.8,0.1-5,2.4-5,5.2v1.5H7
			c-0.5,0-0.9,0.5-0.9,1.2v7.7c0,0.6,0.4,1.2,0.9,1.2h11c0.5,0,0.9-0.5,0.9-1.2v-7.7C19,49.8,18.5,49.3,18,49.3L18,49.3z M13.6,54.3
			v2.3c0,0.3-0.2,0.5-0.5,0.5H12c-0.3,0-0.5-0.2-0.5-0.5v-2.3c-0.3-0.3-0.4-0.6-0.4-1c0-0.7,0.6-1.4,1.3-1.4c0.1,0,0.2,0,0.3,0
			c0.7,0,1.3,0.7,1.3,1.4C14,53.7,13.8,54,13.6,54.3L13.6,54.3z M15.6,49.3H9.5v-1.5c0-1.7,1.4-3.1,3-3.1c1.7,0,3,1.4,3,3.1v1.5
			H15.6z"/>
	</g>
</g>
</svg>
