<?xml version="1.0" encoding="utf-8"?>
<!-- Generator: Adobe Illustrator 23.0.0, SVG Export Plug-In . SVG Version: 6.00 Build 0)  -->
<svg version="1.1" id="Слой_1" xmlns="http://www.w3.org/2000/svg" xmlns:xlink="http://www.w3.org/1999/xlink" x="0px" y="0px"
	 viewBox="0 0 85.8 64.1" style="enable-background:new 0 0 85.8 64.1;" xml:space="preserve">
<style type="text/css">
	.st0{fill:#EBEFF0;}
	.st1{fill:#556B79;}
	.st2{fill:#E84C4F;}
	.st3{fill:#FBCB18;}
	.st4{fill:#57B36E;}
	.st5{fill:#415F6F;}
	.st6{fill:#5C95E9;}
	.st7{fill:#638090;}
	.st8{fill:#424A60;}
	.st9{fill:#FFFFFF;}
	.st10{fill:#E1EBF0;}
	.st11{fill:#B2D0D6;}
</style>
<title>shield</title>
<desc>Created with Sketch.</desc>
<g>
	<g>
		<rect x="4.7" y="13.5" class="st0" width="74.3" height="33.6"/>
		<rect x="4.7" class="st1" width="74.3" height="13.4"/>
		<path class="st2" d="M14.3,6.8c0,1.6-1.3,2.9-2.9,2.9S8.5,8.4,8.5,6.8s1.3-2.9,2.9-2.9C13,3.9,14.3,5.2,14.3,6.8L14.3,6.8z"/>
		<path class="st3" d="M23,6.8c0,1.6-1.3,2.9-2.9,2.9s-2.9-1.3-2.9-2.9s1.3-2.9,2.9-2.9C21.7,3.9,23,5.2,23,6.8L23,6.8z"/>
		<path class="st4" d="M31.6,6.8c0,1.6-1.3,2.9-2.9,2.9s-2.9-1.3-2.9-2.9s1.3-2.9,2.9-2.9C30.3,3.9,31.6,5.2,31.6,6.8L31.6,6.8z"/>
	</g>
	<g>
		<rect x="11.5" y="27.6" class="st0" width="74.3" height="33.6"/>
		<rect x="11.5" y="14.2" class="st1" width="74.3" height="13.4"/>
		<path class="st2" d="M21,20.9c0,1.6-1.3,2.9-2.9,2.9s-2.9-1.3-2.9-2.9s1.3-2.9,2.9-2.9C19.8,18,21,19.3,21,20.9L21,20.9z"/>
		<path class="st3" d="M29.7,20.9c0,1.6-1.3,2.9-2.9,2.9s-2.9-1.3-2.9-2.9s1.3-2.9,2.9-2.9C28.4,18,29.7,19.3,29.7,20.9L29.7,20.9z"
			/>
		<path class="st4" d="M38.3,20.9c0,1.6-1.3,2.9-2.9,2.9c-1.6,0-2.9-1.3-2.9-2.9s1.3-2.9,2.9-2.9S38.3,19.3,38.3,20.9L38.3,20.9z"/>
	</g>
	<g>
		<path class="st5" d="M78.6,53.9l1.3-0.7c-0.1-0.5-0.2-0.9-0.4-1.4H78l-0.8-1.4l0.8-1.3c-0.3-0.4-0.6-0.7-1-1l-1.3,0.7L74.3,48
			v-1.5h-0.1c-0.4-0.1-0.9-0.3-1.3-0.4l-0.8,1.3h-1.6l-0.7-1.3c-0.5,0.1-0.9,0.2-1.4,0.4V48L67,48.8L65.7,48c-0.4,0.3-0.7,0.6-1,1
			l0.7,1.3l-0.8,1.4H63c-0.2,0.5-0.3,0.9-0.4,1.4l1.3,0.8v1.6l-1.3,0.7c0.1,0.5,0.2,0.9,0.4,1.4h1.5l0.8,1.4l-0.8,1.3
			c0.3,0.4,0.6,0.7,1,1l1.3-0.7l1.4,0.8v1.5h0.1c0.4,0.1,0.9,0.3,1.3,0.4l0.8-1.3H72l0.7,1.3c0.5-0.1,0.9-0.2,1.4-0.4v-1.5l1.4-0.8
			l1.3,0.8c0.4-0.3,0.7-0.6,1-1l-0.7-1.3l0.8-1.4h1.5c0.2-0.5,0.3-0.9,0.4-1.4l-1.3-0.8L78.6,53.9L78.6,53.9z M71.3,59.5
			c-2.7,0-4.9-2.2-4.9-4.8s2.2-4.9,4.9-4.9c2.7,0,4.9,2.2,4.9,4.8S74,59.5,71.3,59.5L71.3,59.5z"/>
		<path class="st6" d="M63.7,45.8c0-0.5,0-1.1-0.1-1.6L62,43.8l-0.6-1.7l1.1-1.2c-0.3-0.5-0.6-0.9-0.9-1.3L60.1,40l-1.4-1.2l0.3-1.6
			c-0.5-0.3-0.9-0.5-1.4-0.7l-1.1,1.2l-1.8-0.4l-0.5-1.6c-0.5,0-1.1,0-1.6,0.1l-0.3,1.6L50.6,38l-1.3-1c-0.5,0.3-0.9,0.6-1.3,0.9
			l0.5,1.6l-1.2,1.4l-1.6-0.3c-0.3,0.5-0.5,0.9-0.7,1.4l1.2,1.1l-0.4,1.8l-1.6,0.5c0,0.5,0,1.1,0.1,1.6l1.6,0.3l0.6,1.7l-1.1,1.2
			c0.3,0.5,0.6,0.9,0.9,1.3L48,51l1.4,1.2L49,53.8c0.5,0.3,0.9,0.5,1.4,0.7l1.1-1.2l1.8,0.4l0.5,1.6c0.5,0,1.1,0,1.6-0.1l0.3-1.6
			l1.7-0.6l1.2,1.1c0.5-0.3,0.9-0.6,1.3-0.9l-0.5-1.6l1.2-1.4l1.6,0.3c0.3-0.5,0.5-0.9,0.7-1.4L61.8,48l0.4-1.8L63.7,45.8z M54,50.9
			c-3,0-5.4-2.4-5.4-5.4s2.4-5.4,5.4-5.4s5.4,2.4,5.4,5.4S57,50.9,54,50.9L54,50.9z"/>
		<path class="st7" d="M76.6,37.6l1.2-0.5c0-0.4-0.1-0.8-0.2-1.3l-1.3-0.2l-0.5-1.3l0.8-1c-0.2-0.4-0.5-0.7-0.8-1l-1.2,0.5l-1-0.8
			l0.2-1.3l-0.1-0.1c-0.4-0.2-0.7-0.3-1.1-0.4l-0.8,1L70.4,31l-0.5-1.2c-0.4,0-0.8,0.1-1.3,0.1l-0.2,1.3l-1.3,0.6l-1-0.8
			c-0.4,0.2-0.7,0.5-1,0.8l0.5,1.2l-0.9,1.1l-1.3-0.2c-0.2,0.4-0.4,0.8-0.5,1.2l1,0.8l-0.2,1.4l-1.2,0.5c0,0.4,0.1,0.8,0.2,1.3
			l1.3,0.2l0.5,1.3l-0.8,1c0.2,0.4,0.5,0.7,0.8,1l1.2-0.5l1.1,0.9l-0.2,1.3l0.1,0.1c0.4,0.2,0.7,0.3,1.1,0.4l0.8-1L70,44l0.5,1.2
			c0.4,0,0.8-0.1,1.3-0.2l0.2-1.3l1.3-0.5l1,0.8c0.4-0.2,0.7-0.5,1-0.8L74.8,42l0.9-1.1l1.3,0.2c0.2-0.4,0.4-0.8,0.5-1.2l-1-0.8
			L76.6,37.6z M70.2,41.7c-2.4,0-4.3-1.9-4.3-4.3c0-2.4,1.9-4.3,4.3-4.3s4.3,1.9,4.3,4.3S72.6,41.7,70.2,41.7L70.2,41.7z"/>
	</g>
	<g>
		<path class="st1" d="M37,35.9H24.8c-0.2,0-0.3-0.2-0.3-0.3c0-0.2,0.2-0.3,0.3-0.3H37c0.2,0,0.3,0.2,0.3,0.3
			C37.3,35.8,37.2,35.9,37,35.9L37,35.9z"/>
		<path class="st1" d="M20.7,35.9h-1.4c-0.2,0-0.3-0.2-0.3-0.3c0-0.2,0.2-0.3,0.3-0.3h1.4c0.2,0,0.3,0.2,0.3,0.3
			C21,35.8,20.9,35.9,20.7,35.9L20.7,35.9z"/>
		<path class="st1" d="M37,42.4h-6.8c-0.2,0-0.3-0.2-0.3-0.3c0-0.2,0.2-0.3,0.3-0.3H37c0.2,0,0.3,0.2,0.3,0.3
			C37.3,42.3,37.2,42.4,37,42.4L37,42.4z"/>
		<path class="st1" d="M26.1,42.4h-6.8c-0.2,0-0.3-0.2-0.3-0.3c0-0.2,0.2-0.3,0.3-0.3h6.8c0.2,0,0.3,0.2,0.3,0.3
			C26.5,42.3,26.3,42.4,26.1,42.4L26.1,42.4z"/>
		<path class="st1" d="M31.6,48.9H19.3c-0.2,0-0.3-0.2-0.3-0.3c0-0.2,0.2-0.3,0.3-0.3h12.2c0.2,0,0.3,0.2,0.3,0.3
			C31.9,48.7,31.7,48.9,31.6,48.9L31.6,48.9z"/>
		<path class="st1" d="M37,48.9h-1.4c-0.2,0-0.3-0.2-0.3-0.3c0-0.2,0.2-0.3,0.3-0.3H37c0.2,0,0.3,0.2,0.3,0.3S37.2,48.9,37,48.9
			L37,48.9z"/>
		<rect x="20.7" y="33.9" class="st8" width="4.1" height="3.4"/>
		<rect x="26.1" y="40.4" class="st8" width="4.1" height="3.4"/>
		<rect x="31.6" y="46.8" class="st8" width="4.1" height="3.4"/>
		<rect x="20.7" y="33.2" class="st1" width="4.1" height="3.4"/>
		<rect x="26.1" y="39.7" class="st1" width="4.1" height="3.4"/>
		<rect x="31.6" y="46.1" class="st1" width="4.1" height="3.4"/>
	</g>
	<g>
		<path class="st9" d="M25.7,51.2C25.7,58.3,20,64,12.9,64l0,0C5.8,64,0,58.3,0,51.2s5.8-12.9,12.9-12.9l0,0
			C20,38.4,25.7,44.1,25.7,51.2L25.7,51.2z"/>
		<path class="st10" d="M25.7,51.2C25.7,58.3,20,64,12.9,64V38.3C20,38.4,25.7,44.1,25.7,51.2L25.7,51.2z"/>
		<path class="st11" d="M18.6,48.9h-0.3v-1.6c0-2.9-2.3-5.3-5.2-5.4c-0.1,0-0.2,0-0.3,0c-2.9,0.1-5.2,2.5-5.2,5.4v1.6H7.2
			c-0.5,0-0.9,0.5-0.9,1.2V58c0,0.7,0.4,1.2,0.9,1.2h11.4c0.5,0,0.9-0.5,0.9-1.2v-7.9C19.5,49.4,19.1,48.9,18.6,48.9L18.6,48.9z
			 M13.9,54v2.4c0,0.3-0.2,0.5-0.5,0.5h-1.1c-0.3,0-0.5-0.2-0.5-0.5V54c-0.3-0.3-0.4-0.6-0.4-1c0-0.8,0.6-1.4,1.3-1.4
			c0.1,0,0.2,0,0.3,0c0.7,0,1.3,0.7,1.3,1.4C14.4,53.4,14.2,53.8,13.9,54L13.9,54z M16,48.9H9.8v-1.6c0-1.7,1.4-3.2,3.1-3.2
			s3.1,1.4,3.1,3.2V48.9z"/>
	</g>
</g>
</svg>
