<?xml version="1.0" encoding="utf-8"?>
<!-- Generator: Adobe Illustrator 23.0.1, SVG Export Plug-In . SVG Version: 6.00 Build 0)  -->
<svg version="1.1" id="Слой_4" xmlns="http://www.w3.org/2000/svg" xmlns:xlink="http://www.w3.org/1999/xlink" x="0px" y="0px"
	 viewBox="0 0 892 629" style="enable-background:new 0 0 892 629;" xml:space="preserve">
<style type="text/css">
	.st0{fill:none;stroke:#66BAFF;stroke-miterlimit:10;stroke-dasharray:3;}
	.st1{opacity:0.6;fill:none;stroke:#7ACFED;stroke-width:2;stroke-miterlimit:10;enable-background:new    ;}
	.st2{fill:#E2F3FB;}
	.st3{fill:#C6EDFC;}
	.st4{fill:#E1F4FB;}
	.st5{fill:#C5EDF9;}
	.st6{fill:#C4EEFA;}
	.st7{fill:none;stroke:#AAE3FE;stroke-width:0.75;stroke-miterlimit:10;}
	.st8{fill:#FDCC9B;}
	.st9{fill:#FCBC85;}
	.st10{fill:#3B2519;}
	.st11{fill:#FFFFFF;}
	.st12{fill:#86461B;}
	.st13{fill:#F7945E;}
	.st14{fill:#D58E64;}
	.st15{fill:#BF805A;}
	.st16{fill:#744A25;}
	.st17{fill:#573514;}
	.st18{fill:#E4EAF6;}
	.st19{fill:#E6AF78;}
	.st20{fill:#707487;}
	.st21{fill:#D29B6E;}
	.st22{fill:#F0C087;}
	.st23{fill:#5B5D6E;}
	.st24{fill:#515262;}
	.st25{fill:#785550;}
	.st26{fill:#694B4B;}
	.st27{fill:#5A4146;}
	.st28{fill:#EFF2FA;}
	.st29{fill:#FFFFFF;stroke:#FFFFFF;stroke-miterlimit:10;}
	.st30{fill:#FF4A4A;}
	.st31{fill:#5C95E9;}
	.st32{fill:#CCCCCC;}
	.st33{fill:#E6E6E6;}
	.st34{fill:#42444C;}
	.st35{fill:#E53333;}
	.st36{fill:none;stroke:#66BAFF;stroke-miterlimit:10;}
	.st37{fill:none;stroke:#66BAFF;stroke-miterlimit:10;stroke-dasharray:3.0613,3.0613;}
	.st38{fill:none;stroke:#66BAFF;stroke-miterlimit:10;stroke-dasharray:2.9431,2.9431;}
	.st39{fill:none;stroke:#66BAFF;stroke-miterlimit:10;stroke-dasharray:3.0342,3.0342;}
	.st40{fill:none;stroke:#66BAFF;stroke-miterlimit:10;stroke-dasharray:3.0543,3.0543;}
	.st41{display:none;fill:#F9F9F9;stroke:#0071BC;stroke-miterlimit:10;}
	.st42{fill:#FCCC1B;}
	.st43{fill:#DDB214;}
	.st44{fill:#2B271C;}
	.st45{fill:#EFC83F;}
	.st46{fill:#242120;}
	.st47{fill:#EEFEFE;stroke:#0071BC;stroke-miterlimit:10;}
	.st48{fill:#A1E1FD;stroke:#0071BC;stroke-miterlimit:10;}
	.st49{fill:#E0F4FB;stroke:#0071BC;stroke-miterlimit:10;}
	.st50{fill:#A2DFFE;stroke:#0071BC;stroke-miterlimit:10;}
	.st51{fill:#0071BC;}
	.st52{fill:#A3DFFB;stroke:#0071BC;stroke-width:0.75;stroke-miterlimit:10;}
	.st53{fill:#01B1D9;}
	.st54{fill:#273239;}
	.st55{fill:#3CB77B;}
	.st56{fill:#58B681;}
	.st57{fill:#E54C2C;}
	.st58{fill:#E54B2B;}
	.st59{fill:#34AD71;}
	.st60{fill:#7BC298;}
	.st61{fill:#3EB77D;}
	.st62{fill:#61B886;}
	.st63{fill:#3CB77C;}
	.st64{fill:#3DB77C;}
	.st65{fill:#E65132;}
	.st66{fill:#6FBD8F;}
	.st67{fill:#E1492B;}
	.st68{fill:#74C093;}
	.st69{fill:#6ABB8C;}
	.st70{fill:#64B988;}
	.st71{fill:#4AB27A;}
	.st72{fill:#DC442C;}
	.st73{fill:#6EBD8F;}
	.st74{fill:#3EAF75;}
	.st75{fill:#79C297;}
	.st76{fill:#E44E2C;}
	.st77{fill:#E65B34;}
	.st78{fill:#E76941;}
	.st79{fill:#E8754E;}
	.st80{fill:#EA8460;}
	.st81{fill:#FCFDFD;}
	.st82{fill:#00AAFF;}
	.st83{fill:#97CF26;}
	.st84{fill:#A169F7;}
	.st85{clip-path:url(#SVGID_2_);fill:#3E82F1;}
	.st86{clip-path:url(#SVGID_4_);fill:#32A753;}
	.st87{clip-path:url(#SVGID_6_);fill:#F9BB00;}
	.st88{clip-path:url(#SVGID_8_);fill:#FF4A4A;}
	.st89{fill-rule:evenodd;clip-rule:evenodd;fill:#455C80;}
	.st90{fill:#414F90;}
	.st91{fill:#4BA1D6;}
	.st92{fill:url(#SVGID_9_);}
	.st93{fill:url(#SVGID_10_);}
	.st94{fill:url(#SVGID_11_);}
	.st95{fill:url(#SVGID_12_);}
	.st96{fill:url(#SVGID_13_);}
	.st97{fill:url(#SVGID_14_);}
	.st98{fill:url(#SVGID_15_);}
	.st99{fill:#01DBFF;}
	.st100{fill:#0A1522;}
	.st101{fill:#528213;}
	.st102{fill:#7CC422;}
	.st103{fill:#B3D752;}
	.st104{fill:#4F5A7C;}
	.st105{fill:#3D88C8;}
	.st106{fill:#6F6F6E;}
	.st107{fill:#4EB594;}
	.st108{fill:#029E81;}
	.st109{fill:#057BAA;}
</style>
<g id="Слой_1">
	<line class="st0" x1="257" y1="434" x2="392" y2="370"/>
	<line class="st0" x1="639" y1="434" x2="504" y2="370"/>
	<line class="st0" x1="444.5" y1="368.5" x2="444.5" y2="427.5"/>
	<g>
		<g>
			<line class="st1" x1="44" y1="5" x2="189" y2="359"/>
			<line class="st1" x1="846" y1="3" x2="701" y2="357"/>
			<line class="st1" x1="44" y1="569" x2="189" y2="359"/>
			<line class="st1" x1="701" y1="357" x2="847" y2="570"/>
			<g>
				<path class="st2" d="M269.3,304.2h7.4v2.5h-7.4V304.2z"/>
				<path class="st3" d="M286.1,306.7h-6.9v1.2c0,0.7-0.6,1.2-1.2,1.2h-9.8c-0.7,0-1.2-0.6-1.2-1.2v-1.2h-6.9c-1.6,0-3-1-3.5-2.5
					l-4.4-13.3v26.9c0,2,1.7,3.7,3.7,3.7h34.6c2,0,3.7-1.7,3.7-3.7v-26.9l-4.4,13.3C289.1,305.7,287.7,306.7,286.1,306.7z"/>
				<path class="st2" d="M277.9,284.5h-9.8c-2,0-3.7,1.7-3.7,3.7v1.2h-10.3l4.6,13.9c0.2,0.5,0.6,0.8,1.2,0.8h6.9V303
					c0-0.7,0.6-1.2,1.2-1.2h9.8c0.7,0,1.2,0.6,1.2,1.2v1.2h6.9c0.5,0,1-0.3,1.2-0.8l4.6-13.9h-10.3v-1.2
					C281.6,286.2,280,284.5,277.9,284.5z M266.8,289.5v-1.2c0-0.7,0.6-1.2,1.2-1.2h9.8c0.7,0,1.2,0.6,1.2,1.2v1.2H266.8z"/>
				<g>
					<g>
						<g>
							<path class="st4" d="M681.9,285.1h-29.7v-29.7c0-1.2-1-2.2-2.2-2.2c-18.8,0-34,15.3-34,34s15.3,34,34,34s34-15.3,34-34
								C684.1,286.1,683.1,285.1,681.9,285.1z M650.1,316.9c-16.4,0-29.7-13.3-29.7-29.7c0-15.6,12.2-28.5,27.5-29.6v29.6
								c0,1.2,1,2.2,2.2,2.2h29.6C678.6,304.8,665.7,316.9,650.1,316.9z"/>
							<path class="st4" d="M692.3,278.9c0-8.3-3.1-16.2-8.5-22.4c-6.5-7.3-15.7-11.5-25.5-11.5c-1.2,0-2.2,1-2.2,2.2v31.9
								c0,1.2,1,2.2,2.2,2.2h31.9l0,0c1.2,0,2.2-1,2.2-2.2C692.3,279,692.3,279,692.3,278.9z M660.4,276.9v-27.5
								c7.7,0.6,14.9,4.1,20.1,10c4.3,4.9,6.9,11,7.4,17.5H660.4L660.4,276.9z"/>
						</g>
					</g>
				</g>
				<g>
					<g>
						<g id="Layer_1_8_">
							<g>
								<path class="st5" d="M200.2,191.4h-16c-1.2,0-2.1,1-2.1,2.1s1,2.1,2.1,2.1h16c1.2,0,2.1-1,2.1-2.1
									C202.3,192.3,201.4,191.4,200.2,191.4z"/>
								<path class="st5" d="M202.3,201.5c0-1.2-1-2.1-2.1-2.1h-16c-1.2,0-2.1,1-2.1,2.1c0,1.2,1,2.1,2.1,2.1h16
									C201.4,203.7,202.3,202.7,202.3,201.5z"/>
								<path class="st5" d="M192.2,211.7c1.2,0,2.1-1,2.1-2.1c0-1.2-1-2.1-2.1-2.1h-8c-1.2,0-2.1,1-2.1,2.1c0,1.2,1,2.1,2.1,2.1
									H192.2z"/>
								<path class="st5" d="M208.3,218.9l-2.2,1.5v5.3h-27.8v-38.5h27.8v8.4l4.3-7.4V185c0-1.2-1-2.1-2.1-2.1h-32
									c-1.2,0-2.1,1-2.1,2.1v42.7c0,1.2,1,2.1,2.1,2.1h32c1.2,0,2.1-1,2.1-2.1v-11.8l-1,1.8C209.1,218.3,208.7,218.7,208.3,218.9z
									"/>
								<path class="st5" d="M220.9,192.9c0-0.2-0.5-1.9-3.2-3.5s-4.4-1.1-4.6-1c-0.3,0.1-0.5,0.3-0.6,0.5L199.1,212
									c-0.1,0.1-0.1,0.3-0.1,0.5l-0.5,8.3c0,0.4,0.2,0.8,0.5,1c0.4,0.2,0.8,0.2,1.1,0l7-4.6c0.1-0.1,0.3-0.2,0.3-0.4l13.4-23.1
									C221,193.4,221,193.2,220.9,192.9z M202.9,218.1c-0.4-0.3-0.8-0.6-1.2-0.8c-0.4-0.3-0.9-0.5-1.3-0.6l0.1-2.5
									c0.6,0.1,1.4,0.3,2.4,0.9c1,0.6,1.7,1.2,2,1.7L202.9,218.1z"/>
								<path class="st5" d="M188.9,221.5c0.1,0.4,0.6,0.6,0.9,0.7c0.3,0.1,0.7-0.1,1-0.3c1.6-0.8,3.8,0.1,5.6,0.1c1,0,1-1.6,0-1.6
									c-2,0-3.7-0.5-5.7-0.2c0-0.1,0-0.3-0.2-0.5c-0.4-0.6-0.9-0.8-1.3-0.8c0-0.1-0.1-0.2-0.1-0.2c-0.1-0.2-0.3-0.3-0.5-0.4
									c0.6-1,0.9-2,0.6-2.9c-0.1-0.3-0.4-0.4-0.7-0.4c-1.1,0-2,1.1-2.7,1.8c-1.7,1.7-3.2,3.6-4.7,5.5c-0.6,0.8,0.8,1.6,1.4,0.8
									c1.3-1.7,2.7-3.3,4.2-4.9c-0.4,0.6-0.7,1.2-1.1,1.7c-0.6,0.9,0.8,1.6,1.4,0.8c0.1-0.2,0.3-0.4,0.5-0.5
									c0,0.1-0.1,0.2-0.1,0.3l0,0c0,0.1-0.1,0.1-0.1,0.2c-0.4,0.9,1,1.3,1.5,0.6c0.1-0.2,0.2-0.4,0.3-0.6
									C188.9,221.2,188.9,221.4,188.9,221.5z"/>
							</g>
						</g>
					</g>
				</g>
				<g>
					<g>
						<g>
							<path class="st6" d="M700.8,189.2v5.8c0,0.4,0.3,0.7,0.7,0.7h4.5c0.4,0,0.7-0.3,0.7-0.7v-10.3l-3.3,3.3
								C702.7,188.7,701.8,189.1,700.8,189.2z"/>
							<path class="st6" d="M708.9,184.7V195c0,0.4,0.3,0.7,0.7,0.7h4.5c0.4,0,0.7-0.3,0.7-0.7v-6.1c-1,0-2-0.4-2.7-1.2L708.9,184.7
								z"/>
							<path class="st6" d="M716.9,188.3v6.7c0,0.4,0.3,0.7,0.7,0.7h4.5c0.4,0,0.7-0.3,0.7-0.7v-12.4l-5.2,5.2
								C717.4,188,717.2,188.1,716.9,188.3z"/>
							<path class="st6" d="M730.4,175l-5.4,5.4V195c0,0.4,0.3,0.7,0.7,0.7h4.5c0.4,0,0.7-0.3,0.7-0.7v-19.6
								C730.7,175.2,730.6,175.1,730.4,175L730.4,175z"/>
							<path class="st6" d="M734.1,165.4c-0.2-0.2-0.5-0.3-1-0.3H733c-2.1,0.1-4.2,0.2-6.3,0.3c-0.3,0-0.7,0-1,0.3
								c-0.1,0.1-0.2,0.2-0.2,0.3c-0.3,0.7,0.1,1.1,0.3,1.3l0.5,0.5c0.4,0.4,0.7,0.7,1.1,1.1l-12.7,12.7l-5.7-5.7
								c-0.3-0.3-0.8-0.5-1.3-0.5s-0.9,0.2-1.3,0.5l-7.6,7.6c-0.7,0.7-0.7,1.9,0,2.6l0.3,0.3c0.3,0.3,0.8,0.5,1.3,0.5
								s0.9-0.2,1.3-0.5l6-6l5.7,5.7c0.3,0.3,0.8,0.5,1.3,0.5s0.9-0.2,1.3-0.5l14.3-14.3l1.6,1.6c0.2,0.2,0.5,0.5,0.9,0.5
								c0.2,0,0.3,0,0.5-0.1c0.1-0.1,0.2-0.1,0.3-0.2c0.3-0.3,0.4-0.7,0.4-1c0.1-1.4,0.1-2.7,0.2-4.1l0.1-2
								C734.4,166,734.3,165.7,734.1,165.4z"/>
						</g>
					</g>
				</g>
				<g>
					<line class="st7" x1="673" y1="222" x2="698.6" y2="222"/>
					<line class="st7" x1="681.1" y1="228" x2="721.6" y2="228"/>
					<line class="st7" x1="664.7" y1="215" x2="731" y2="215"/>
					<line class="st7" x1="710.8" y1="222" x2="731" y2="222"/>
				</g>
				<g>
					<line class="st7" x1="552" y1="339" x2="577.6" y2="339"/>
					<line class="st7" x1="560.1" y1="345" x2="600.6" y2="345"/>
					<line class="st7" x1="543.7" y1="332" x2="610" y2="332"/>
					<line class="st7" x1="589.8" y1="339" x2="610" y2="339"/>
				</g>
				<g>
					<line class="st7" x1="311" y1="343" x2="336.6" y2="343"/>
					<line class="st7" x1="319.1" y1="349" x2="359.6" y2="349"/>
					<line class="st7" x1="302.7" y1="336" x2="369" y2="336"/>
					<line class="st7" x1="348.8" y1="343" x2="369" y2="343"/>
				</g>
				<g>
					<line class="st7" x1="209" y1="268" x2="234.6" y2="268"/>
					<line class="st7" x1="217.1" y1="274" x2="257.6" y2="274"/>
					<line class="st7" x1="200.7" y1="261" x2="267" y2="261"/>
					<line class="st7" x1="246.8" y1="268" x2="267" y2="268"/>
				</g>
			</g>
			<g>
				<g>
					<rect x="230.4" y="537.7" class="st8" width="17.9" height="20.1"/>
					<path class="st9" d="M230.4,540c0,0,7.5,4.8,17.9,3.7v-6.1h-17.9V540z"/>
					<ellipse class="st9" cx="204.5" cy="506.5" rx="8.8" ry="10"/>
					<ellipse class="st9" cx="274.2" cy="506.5" rx="8.8" ry="10"/>
					<path class="st8" d="M274.1,487.4c0-14.7-10.8-25.5-34.8-25.5s-34.8,10.8-34.8,25.5s-2.5,53.5,34.8,53.5
						S274.1,502.1,274.1,487.4z"/>
					<g>
						<g>
							<ellipse class="st10" cx="222.4" cy="504.1" rx="3.8" ry="4.1"/>
							<circle class="st11" cx="220.7" cy="502.3" r="1.1"/>
						</g>
						<path class="st12" d="M216.4,493.9c1.8,0.9,4.6-3,11.2,0.4c1.2,0.6,1.9-5.3-5.1-5.3C216.4,489,215.3,493.3,216.4,493.9z"/>
						<g>
							<ellipse class="st10" cx="256.7" cy="504.1" rx="3.8" ry="4.1"/>
							<circle class="st11" cx="255.1" cy="502.3" r="1.1"/>
						</g>
						<path class="st12" d="M262.3,493.9c-1.8,0.9-4.6-3-11.2,0.4c-1.2,0.6-1.9-5.3,5.1-5.3C262.3,489,263.4,493.3,262.3,493.9z"/>
					</g>
					<path class="st9" d="M239.3,518.6c-3.7,0-6-2.8-6-1.4c0,1.3,1.1,3.9,6,3.9s6-2.6,6-3.9S243,518.6,239.3,518.6z"/>
					<path class="st9" d="M239.3,531c-1.3,0-2.1-1-2.1-0.5s0.4,1.3,2.1,1.3s2.1-0.9,2.1-1.3C241.4,530,240.6,531,239.3,531z"/>
					<path class="st13" d="M239.3,527.6c-5.9,0-9.5-2.4-9.5-1.8c0,0.6,1.7,3,9.5,3c7.7,0,9.5-2.4,9.5-3S245.2,527.6,239.3,527.6z"/>
				</g>
				<path class="st14" d="M239.3,545.7c-20.6,0-43.6,13.5-43.6,22.6h43.6h43.6C282.9,559.2,260,545.7,239.3,545.7z"/>
				<path class="st15" d="M239.3,545.7c-4.4,0-8.9,0.6-13.2,1.7c0,0,4.8,6.2,13.2,6.2c7.8,0,13-5.3,13.7-6.1
					C248.5,546.4,243.9,545.7,239.3,545.7z"/>
				<path class="st8" d="M230.4,546.5c0,0,2.6,3.3,9,3.3s9-3.3,9-3.3S239,543.1,230.4,546.5z"/>
				<path class="st12" d="M248.3,536c-4,0-3.8-2.8-9-2.8s-5,2.8-9,2.8c-9,0-19.2-9.4-17.8-7.3c1.9,2.8,8.1,12.8,26.8,12.8
					s24.9-10,26.8-12.8C267.5,526.6,257.3,536,248.3,536z"/>
				<path class="st12" d="M277.5,481.3c-1.4-21.5-7.2-33-37.9-33s-36.5,11.5-37.9,33s1.8,28.9,4,28.9c2.1,0,1-24.7,3.9-30
					c5.3-9.6,15-2.5,30-2.5s24.6-7.1,30,2.5c2.9,5.3,1.8,30,3.9,30C275.7,510.2,278.9,502.8,277.5,481.3z"/>
				<path class="st16" d="M220.2,549.1c-13.6,4.6-24.5,12.9-24.5,19.2h24.5V549.1L220.2,549.1L220.2,549.1z"/>
				<path class="st17" d="M221.5,568.3v-20.6c0,0-3.5,1.3-4.7,2l-3.6,18.7L221.5,568.3L221.5,568.3z"/>
				<path class="st16" d="M258.4,549.1c13.6,4.6,24.5,12.9,24.5,19.2h-24.5V549.1L258.4,549.1L258.4,549.1z"/>
				<path class="st17" d="M257.1,568.3v-20.6c0,0,3.5,1.3,4.7,2l3.6,18.7L257.1,568.3L257.1,568.3z"/>
			</g>
			<g>
				<polygon class="st18" points="665.1,520.2 665.1,500.5 661,500.5 661,520.2 640.7,534.1 643.1,537.5 663,523.8 683,537.5 
					685.4,534.1 				"/>
				<polygon class="st19" points="671.7,486.3 671.7,479.6 654.4,479.6 654.4,486.3 663,494 				"/>
				<path class="st20" d="M685,489.4l-11.9-2.8c-0.2,0-0.3-0.1-0.5-0.2L663,492l-9.2-5.9c-0.2,0.2-0.5,0.4-0.9,0.5l-11.9,2.8
					c-1.7,0.4-3,2-3,3.7v7.5c0,1.1,0.9,1.9,1.9,1.9h46c1.1,0,1.9-0.9,1.9-1.9v-7.5C688,491.4,686.7,489.8,685,489.4z"/>
				<path class="st21" d="M654.4,479.6v7.1c10.9,3.9,17.2-5.9,17.2-5.9v-1.2H654.4z"/>
				<path class="st22" d="M650.6,457.5l0.8,18.4c0.1,1.7,0.9,3.3,2.3,4.3l4,3c1,0.7,2.2,1.1,3.4,1.1h3.8c1.2,0,2.5-0.4,3.4-1.1l4-3
					c1.4-1,2.2-2.6,2.3-4.3l0.8-18.4H650.6z"/>
				<path class="st19" d="M660.2,461.4c3.8,0,9.6-1,10.9-3.8h-20.5l0.8,18.4c0.1,1.7,0.9,3.3,2.3,4.3l4,3c1,0.7,2.2,1.1,3.4,1.1h1.9
					c-1.9,0-5.7-3.8-5.7-8.6c0-2.3,0-8.6,0-11.5C657.3,463.3,658.2,461.4,660.2,461.4z"/>
				<g>
					<path class="st23" d="M680.9,496.4l6.2-5.6c0.5,0.7,0.8,1.5,0.8,2.4v7.5c0,1.1-0.9,1.9-1.9,1.9h-6.7v-2.7
						C679.3,498.6,679.9,497.3,680.9,496.4z"/>
					<path class="st23" d="M645.2,496.4l-6.2-5.6c-0.5,0.7-0.8,1.5-0.8,2.4v7.5c0,1.1,0.9,1.9,1.9,1.9h6.7v-2.7
						C646.7,498.6,646.2,497.3,645.2,496.4z"/>
					<polygon class="st23" points="665.4,502.6 660.6,502.6 661.2,494 664.8,494 					"/>
				</g>
				<path class="st24" d="M665.4,492h-4.8v0.6c0,1.3,1,2.3,2.3,2.3h0.1c1.3,0,2.3-1,2.3-2.3L665.4,492L665.4,492z"/>
				<g>
					<path class="st23" d="M654.3,484.2l8.8,7.9c0,0-2.5,1.2-5.5,3.7c-0.6,0.5-1.6,0.3-1.9-0.4l-4.1-9.1l1.3-2
						C653.2,483.9,653.8,483.8,654.3,484.2z"/>
					<path class="st23" d="M671.8,484.2L663,492c0,0,2.5,1.2,5.5,3.7c0.6,0.5,1.6,0.3,1.9-0.4l4.1-9.1l-1.3-2
						C672.9,483.9,672.2,483.8,671.8,484.2z"/>
				</g>
				<path class="st25" d="M668.8,451.2l0.9,6.3c4.1,0.8,4.7,7.3,4.8,9.1c0,0.3,0.1,0.7,0.3,0.9l1.6,2.4c0,0-0.5-4,1.9-6.7
					C678.3,463.3,679.1,447.4,668.8,451.2z"/>
				<path class="st22" d="M677.4,469.6l-1.1,4.3c-0.1,0.5-0.6,0.9-1.1,0.9l0,0c-0.6,0-1.1-0.4-1.1-1l-0.6-4.4
					c-0.1-1.2,0.8-2.2,2-2.2l0,0C676.7,467.1,677.7,468.3,677.4,469.6z"/>
				<path class="st26" d="M651.5,449.5l1.4,1c-6.4,4.7-5.2,12.8-5.2,12.8c1.9,1.9,1.9,6.7,1.9,6.7l1.9-1.9c0,0-0.7-5.5,2.9-7.7
					c3.4-2,6.3-1,9.3-1c8,0,10.3-3,9.9-6.7c-0.2-1.9-3.1-5.9-10.5-5.7C660,447.1,654.4,448,651.5,449.5z"/>
				<path class="st27" d="M650.9,458.6c0,0-1-4,2-8.2c-6.4,4.7-5.2,12.8-5.2,12.8c1.9,1.9,1.9,6.7,1.9,6.7l1.9-1.9
					c0,0-0.7-5.5,2.9-7.7c3.4-2,6.3-1,9.3-1c1.3,0,2.4-0.1,3.5-0.2C661,459.4,657.3,454.7,650.9,458.6z"/>
				<path class="st19" d="M648.7,469.6l1.1,4.3c0.1,0.5,0.6,0.9,1.1,0.9l0,0c0.6,0,1.1-0.4,1.1-1l0.6-4.4c0.1-1.2-0.8-2.2-2-2.2l0,0
					C649.4,467.1,648.4,468.3,648.7,469.6z"/>
				<path class="st23" d="M674.5,500.7h-4.8c-1.1,0-1.9,0.9-1.9,1.9l0,0h8.6l0,0C676.5,501.5,675.6,500.7,674.5,500.7z"/>
				<polygon class="st19" points="640.5,550.7 640.5,543.9 623.3,543.9 623.3,550.7 631.9,558.3 				"/>
				<path class="st28" d="M653.9,553.8L642,551c-0.2,0-0.3-0.1-0.5-0.2l-9.6,5.6l-9.2-5.9c-0.2,0.2-0.5,0.4-0.9,0.5l-11.9,2.8
					c-1.7,0.4-3,2-3,3.7v7.5c0,1.1,0.9,1.9,1.9,1.9h46c1.1,0,1.9-0.9,1.9-1.9v-7.5C656.8,555.7,655.6,554.2,653.9,553.8z"/>
				<path class="st21" d="M623.3,543.9v7.1c10.9,3.9,17.2-5.9,17.2-5.9v-1.2L623.3,543.9L623.3,543.9z"/>
				<path class="st22" d="M619.4,521.9l0.8,18.4c0.1,1.7,0.9,3.3,2.3,4.3l4,3c1,0.7,2.2,1.1,3.4,1.1h3.8c1.2,0,2.5-0.4,3.4-1.1l4-3
					c1.4-1,2.2-2.6,2.3-4.3l0.8-18.4H619.4L619.4,521.9z"/>
				<path class="st19" d="M629,525.7c3.8,0,9.6-1,10.9-3.8h-20.5l0.8,18.4c0.1,1.7,0.9,3.3,2.3,4.3l4,3c1,0.7,2.2,1.1,3.4,1.1h1.9
					c-1.9,0-5.7-3.8-5.7-8.6c0-2.3,0-8.6,0-11.5C626.1,527.7,627.1,525.7,629,525.7z"/>
				<g>
					<path class="st18" d="M649.8,560.7l6.2-5.6c0.5,0.7,0.8,1.5,0.8,2.4v7.5c0,1.1-0.9,1.9-1.9,1.9h-6.7v-2.7
						C648.2,562.9,648.8,561.6,649.8,560.7z"/>
					<path class="st18" d="M614,560.7l-6.2-5.6c-0.5,0.7-0.8,1.5-0.8,2.4v7.5c0,1.1,0.9,1.9,1.9,1.9h6.7v-2.7
						C615.6,562.9,615,561.6,614,560.7z"/>
				</g>
				<polygon class="st23" points="634.3,566.9 629.5,566.9 630.1,558.3 633.7,558.3 				"/>
				<path class="st24" d="M634.3,556.4h-4.8v0.6c0,1.3,1,2.3,2.3,2.3h0.1c1.3,0,2.3-1,2.3-2.3L634.3,556.4L634.3,556.4z"/>
				<g>
					<path class="st18" d="M623.1,548.5l8.8,7.9c0,0-2.5,1.2-5.5,3.7c-0.6,0.5-1.6,0.3-1.9-0.4l-4.1-9.1l1.3-2
						C622,548.2,622.7,548.1,623.1,548.5z"/>
					<path class="st18" d="M640.7,548.5l-8.8,7.9c0,0,2.5,1.2,5.5,3.7c0.6,0.5,1.6,0.3,1.9-0.4l4.1-9.1l-1.3-2
						C641.8,548.2,641.1,548.1,640.7,548.5z"/>
				</g>
				<path class="st25" d="M637.7,515.6l0.9,6.3c4.1,0.8,4.7,7.3,4.8,9.1c0,0.3,0.1,0.7,0.3,0.9l1.6,2.4c0,0-0.5-4,1.9-6.7
					C647.2,527.7,648,511.7,637.7,515.6z"/>
				<path class="st22" d="M646.2,534l-1.1,4.3c-0.1,0.5-0.6,0.9-1.1,0.9l0,0c-0.6,0-1.1-0.4-1.1-1l-0.6-4.4c-0.1-1.2,0.8-2.2,2-2.2
					l0,0C645.6,531.5,646.5,532.7,646.2,534z"/>
				<path class="st26" d="M620.4,513.8l1.4,1c-6.4,4.7-5.2,12.8-5.2,12.8c1.9,1.9,1.9,6.7,1.9,6.7l1.9-1.9c0,0-0.7-5.5,2.9-7.7
					c3.4-2,6.3-1,9.3-1c8,0,10.3-3,9.9-6.7c-0.2-1.9-3.1-5.9-10.5-5.7C628.9,511.4,623.3,512.3,620.4,513.8z"/>
				<path class="st27" d="M619.8,523c0,0-1-4,2-8.2c-6.4,4.7-5.2,12.8-5.2,12.8c1.9,1.9,1.9,6.7,1.9,6.7l1.9-1.9
					c0,0-0.7-5.5,2.9-7.7c3.4-2,6.3-1,9.3-1c1.3,0,2.4-0.1,3.5-0.2C629.8,523.8,626.2,519.1,619.8,523z"/>
				<path class="st19" d="M617.6,534l1.1,4.3c0.1,0.5,0.6,0.9,1.1,0.9l0,0c0.6,0,1.1-0.4,1.1-1l0.6-4.4c0.1-1.2-0.8-2.2-2-2.2l0,0
					C618.2,531.5,617.3,532.7,617.6,534z"/>
				<path class="st18" d="M643.4,565h-4.8c-1.1,0-1.9,0.9-1.9,1.9l0,0h8.6l0,0C645.3,565.9,644.5,565,643.4,565z"/>
				<path class="st26" d="M696.3,512c-19.3,0-17.2,23.5-17.1,40.5c0,0.6,0.3,1.2,0.9,1.6c2.1,1.3,8,4.3,16.2,4.3s14.1-3,16.2-4.3
					c0.6-0.3,0.9-0.9,0.9-1.6C713.4,535.6,715.6,512,696.3,512z"/>
				<path class="st27" d="M695,512.1c-18,1-15.9,23.8-15.9,40.5c0,0.6,0.3,1.2,0.9,1.6c2.1,1.3,8,4.3,16.2,4.3l4.9-34.2"/>
				<path class="st26" d="M696.3,512c-11,0-11.8,13.3-11.8,13.3c6.3-1.1,10.2,1.6,16.6-1.1l-4.9,34.2c8.2,0,14.1-3,16.2-4.3
					c0.6-0.3,0.9-0.9,0.9-1.6C713.4,535.6,715.6,512,696.3,512z"/>
				<path class="st25" d="M713.4,552.6c0.1-14.6,1.7-34-10.2-39.2c-0.2,1.1-0.6,4.1,0.4,6c2.4,4.9,4.9,4.9,7.3,8.5
					c2.4,13.4-4.7,27.7-7,29.6l0,0c4.2-1,7.2-2.6,8.6-3.4C713,553.8,713.4,553.2,713.4,552.6z"/>
				<path class="st19" d="M714.8,556.3l-10.9-4.5c-0.9-0.4-1.5-1.3-1.5-2.3v-3h-12.2v3c0,1-0.6,1.9-1.5,2.3l-10.9,4.5
					c-1.4,0.6-2.3,1.9-2.3,3.4v4.9c0,1.3,1.1,2.4,2.4,2.4h36.6c1.3,0,2.4-1.1,2.4-2.4v-4.9C717,558.2,716.1,556.9,714.8,556.3z"/>
				<path class="st28" d="M714.8,556.3l-10.5-4.4l-8,3.4l-8-3.4l-10.5,4.4c-1.4,0.6-2.3,1.9-2.3,3.4v4.9c0,1.3,1.1,2.4,2.4,2.4h36.6
					c1.3,0,2.4-1.1,2.4-2.4v-4.9C717,558.2,716.1,556.9,714.8,556.3z"/>
				<path class="st21" d="M702.4,546.5h-12.2v3c0,1-0.6,1.9-1.5,2.3l-1.7,0.7C700,555.8,702.4,546.5,702.4,546.5z"/>
				<g>
					<path class="st18" d="M681.4,561l-4.9-3.9c-0.7,0.7-1.1,1.6-1.1,2.6v4.9c0,1.3,1.1,2.4,2.4,2.4h4.9v-3.1
						C682.8,562.8,682.3,561.7,681.4,561z"/>
					<path class="st18" d="M717,564.6v-4.9c0-1-0.4-1.9-1-2.5l-4.9,3.9c-0.9,0.7-1.4,1.7-1.4,2.9v3.1h4.9
						C715.9,567,717,565.9,717,564.6z"/>
					<path class="st18" d="M696.4,564.6H696c-0.6,0-1-0.5-1-1v-8.2h2.4v8.2C697.5,564.1,697,564.6,696.4,564.6z"/>
					<path class="st18" d="M696.3,555.3l-7-5.2c-0.4-0.3-1.1-0.2-1.4,0.2l-1.4,2.1l4.3,6c0.3,0.5,1,0.5,1.4,0.2L696.3,555.3z"/>
					<path class="st18" d="M696.3,555.3l7-5.2c0.4-0.3,1.1-0.2,1.4,0.2l1.4,2.1l-4.3,6c-0.3,0.5-1,0.5-1.4,0.2L696.3,555.3z"/>
				</g>
				<path class="st22" d="M702.4,523c-6.1,6.1-18.1,1.2-18.1,11l0.8,7.2c0.1,1.6,1.1,3,2.5,3.8l7,3.9c1.1,0.6,2.5,0.6,3.6,0l7-3.9
					c1.4-0.8,2.3-2.2,2.5-3.8l0.9-8.5c0.1-0.6,0.1-1.2,0.1-1.8C708,527.7,703.6,525.5,702.4,523z"/>
				<path class="st19" d="M684.3,534l0.8,7.2c0.1,1.6,1.1,3,2.5,3.8l7,3.9c0.8,0.4,1.6,0.5,2.5,0.4l0,0c0,0-3.5-1.1-5.6-6.7
					c-0.6-1.7-1.5-10.9-0.8-12c1.5-2.2,9.9-2.4,12.4-6.5c-0.1-0.2-0.2-0.3-0.3-0.5l0,0c-0.1-0.2-0.2-0.3-0.3-0.5
					C696.3,529.1,684.3,524.3,684.3,534z"/>
				<path class="st18" d="M705.2,564.6H702c-1.1,0-2.1,0.9-2.1,2.1v0.4h7.3v-0.4C707.2,565.5,706.3,564.6,705.2,564.6z"/>
				<g>
					<path class="st29" d="M663.4,504.6c-8.5,0-15.3,6.9-15.3,15.3s6.9,15.3,15.3,15.3c8.5,0,15.3-6.9,15.3-15.3
						S671.8,504.6,663.4,504.6z"/>
					<path class="st30" d="M663.4,504.2c-8.7,0-15.7,7-15.7,15.7s7,15.7,15.7,15.7s15.7-7,15.7-15.7S672,504.2,663.4,504.2z
						 M672,524.5l-4,4l-4.7-4.7l-4.7,4.7l-4-4l4.7-4.7l-4.7-4.7l4-4l4.7,4.7l4.7-4.7l4,4l-4.7,4.7L672,524.5z"/>
				</g>
			</g>
			<g>
				<path class="st31" d="M500.1,509.2c-1.2,0-2.2-1-2.2-2.2v-5.2c0-27.6-22.5-50.1-50.1-50.1s-50.1,22.5-50.1,50.1v5.2
					c0,1.2-1,2.2-2.2,2.2s-2.2-1-2.2-2.2v-5.2c0-30,24.4-54.4,54.4-54.4s54.4,24.4,54.4,54.4v5.2
					C502.2,508.3,501.3,509.2,500.1,509.2z"/>
				<path class="st31" d="M392.2,526.7v-11.4c0-1.2,1-2.2,2.2-2.2s2.2,1,2.2,2.2v11.4c0,1.4,1.1,2.5,2.5,2.5h5.5
					c1.2,0,2.2,1,2.2,2.2s-1,2.2-2.2,2.2h-5.5C395.3,533.6,392.2,530.5,392.2,526.7z"/>
				<path class="st31" d="M497.8,533.5h-5.5c-1.2,0-2.2-1-2.2-2.2s1-2.2,2.2-2.2h5.5c1.4,0,2.5-1.1,2.5-2.5v-11.4
					c0-1.2,1-2.2,2.2-2.2s2.2,1,2.2,2.2v11.4C504.6,530.4,501.5,533.5,497.8,533.5z"/>
				<path class="st32" d="M432.8,534.8h29.5v25.4h-29.5V534.8z"/>
				<path class="st33" d="M492,525.5c0.4-1.7,0.6-3.4,0.6-5.2v-36.5c0-11.8-9.6-21.4-21.4-21.4h-46.8c-11.8,0-21.4,9.6-21.4,21.4
					v36.5c0,11.8,9.6,21.4,21.4,21.4h46.8c5.4,0,10.3-2,14.1-5.3"/>
				<path class="st32" d="M419.7,528.6v12.6c-9.5-2.2-16.7-10.7-16.7-20.9v-12.6C412.6,509.9,419.7,518.4,419.7,528.6z"/>
				<path class="st32" d="M492.6,507.7v12.6c0,1.8-0.2,3.5-0.6,5.2l-6.7,10.9c-2.6,2.3-5.8,4-9.4,4.8v-12.6
					C475.9,518.4,483,509.9,492.6,507.7z"/>
				<path class="st11" d="M441.7,494.8c0,7.6-6.2,13.8-13.8,13.8c-7.6,0-13.8-6.2-13.8-13.8c0-7.6,6.2-13.8,13.8-13.8
					S441.7,487.2,441.7,494.8z"/>
				<path class="st11" d="M481.5,494.8c0,7.6-6.2,13.8-13.8,13.8s-13.8-6.2-13.8-13.8c0-7.6,6.2-13.8,13.8-13.8
					S481.5,487.2,481.5,494.8z"/>
				<path class="st34" d="M427.9,499.9c-2.8,0-5.2-2.3-5.2-5.2s2.3-5.2,5.2-5.2c2.8,0,5.2,2.3,5.2,5.2S430.7,499.9,427.9,499.9z"/>
				<path class="st34" d="M467.7,499.9c-2.8,0-5.2-2.3-5.2-5.2s2.3-5.2,5.2-5.2s5.2,2.3,5.2,5.2S470.6,499.9,467.7,499.9z"/>
				<path class="st34" d="M414.3,531.4c0,3.3-2.7,6-6,6h-2c-3.3,0-6-2.7-6-6s2.7-6,6-6h2C411.6,525.4,414.3,528.1,414.3,531.4z"/>
				<g>
					<path class="st30" d="M439.7,519.3h6v22.4h-6V519.3z"/>
					<path class="st30" d="M450,519.3h6v22.4h-6V519.3z"/>
					<path class="st30" d="M460.3,519.6v22.1h6.1v-14.2C466.3,523.7,463.7,520.5,460.3,519.6z"/>
					<path class="st30" d="M435.3,519.6c-3.5,0.9-6.1,4.1-6.1,7.9v14.2h6.1V519.6z"/>
				</g>
				<path class="st35" d="M403,491.3v21.1c0,3.2-2.2,6-5.2,6.8c-0.6,0.2-1.3,0.3-1.9,0.3h-2.8c-3.9,0-7.1-3.2-7.1-7.1v-21.1
					c0-3.9,3.2-7.1,7.1-7.1h2.8c0.7,0,1.3,0.1,1.9,0.3C400.8,485.4,403,488.1,403,491.3z"/>
				<path class="st30" d="M403,491.3v21.1c0,3.2-2.2,6-5.2,6.8c-3-0.8-5.2-3.6-5.2-6.8v-21.1c0-3.3,2.2-6,5.2-6.8
					C400.8,485.4,403,488.1,403,491.3z"/>
				<path class="st35" d="M509.5,491.3v21.1c0,3.2-2.2,6-5.2,6.8c-0.6,0.2-1.3,0.3-1.9,0.3h-2.8c-3.9,0-7.1-3.2-7.1-7.1v-21.1
					c0-3.9,3.2-7.1,7.1-7.1h2.8c0.7,0,1.3,0.1,1.9,0.3C507.3,485.4,509.5,488.1,509.5,491.3z"/>
				<path class="st30" d="M509.5,491.3v21.1c0,3.2-2.2,6-5.2,6.8c-3-0.8-5.2-3.6-5.2-6.8v-21.1c0-3.3,2.2-6,5.2-6.8
					C507.3,485.4,509.5,488.1,509.5,491.3z"/>
				<path class="st34" d="M488.6,525.3h2c3.3,0,6,2.7,6,6s-2.7,6-6,6h-2c-3.3,0-6-2.7-6-6C482.5,528,485.2,525.3,488.6,525.3z"/>
				<path class="st32" d="M490.6,567.1v0.4h-86.1v-0.4c0-7.6,6.2-13.8,13.8-13.8h58.6C484.5,553.3,490.6,559.5,490.6,567.1z"/>
				<path class="st33" d="M490.6,567.1v0.4h-70.2v-0.4c0-7.6,6.2-13.8,13.8-13.8h42.7C484.5,553.3,490.6,559.5,490.6,567.1z"/>
			</g>
			<path class="st0" d="M321,81c0,0-0.7,64,0.5,96.5c1,26,35.5,20.5,35.5,20.5"/>
			<g>
				<g>
					<path class="st36" d="M568.8,81c0,0,0,0.5,0,1.5"/>
					<path class="st37" d="M568.8,85.6c0.1,15.2,0.5,64.7-0.5,91.9c-0.8,21-21.6,21.5-29.5,20.8"/>
					<path class="st36" d="M537.3,198.2c-0.9-0.1-1.5-0.2-1.5-0.2"/>
				</g>
			</g>
			<g>
				<g>
					<path class="st36" d="M280,147c0,0.5,0,1-0.1,1.5"/>
					<path class="st38" d="M279.8,151.4c-0.6,17.7-0.5,19.8,0.7,49.1c0.7,18.8,19,20.7,29.1,21c0.7,0,14.7,0,21,0"/>
					<path class="st36" d="M332,221.5c0.9,0,1.5,0,1.5,0"/>
				</g>
			</g>
			<g>
				<g>
					<path class="st36" d="M239,78c0,0,0,0.5,0,1.5"/>
					<path class="st39" d="M239,82.5c-0.1,21.3-0.6,111.4,0.5,140c0.7,18.8,19,20.7,29.1,21c0.8,0,48.3,0,60.9,0"/>
					<path class="st36" d="M331,243.5c1,0,1.5,0,1.5,0"/>
				</g>
			</g>
			<g>
				<g>
					<path class="st36" d="M651.3,78c0,0,0,0.5,0,1.5"/>
					<path class="st39" d="M651.3,82.5c0.1,21.3,0.6,111.4-0.5,140c-0.7,18.8-19,20.7-29.1,21c-0.8,0-48.3,0-60.9,0"/>
					<path class="st36" d="M559.3,243.5c-1,0-1.5,0-1.5,0"/>
				</g>
			</g>
			<g>
				<g>
					<path class="st36" d="M608.8,145c0,0,0,0.5,0,1.5"/>
					<path class="st40" d="M608.9,149.5c0.2,8.2,0.3,27-0.6,51c-0.7,18.6-17,21.1-26.2,21c-2.8,0-14,0-19.5,0"/>
					<path class="st36" d="M561,221.5c-0.9,0-1.5,0-1.5,0"/>
				</g>
			</g>
			<g>
				<ellipse class="st41" cx="279.9" cy="108.5" rx="33.5" ry="33.7"/>
				<ellipse class="st41" cx="362.7" cy="109" rx="33.5" ry="33.7"/>
				<ellipse class="st41" cx="445.4" cy="108.1" rx="33.5" ry="33.7"/>
				<ellipse class="st41" cx="528.2" cy="108.1" rx="33.5" ry="33.7"/>
				<ellipse class="st41" cx="610.1" cy="108.1" rx="33.5" ry="33.7"/>
				<ellipse class="st41" cx="694.1" cy="108.1" rx="33.5" ry="33.7"/>
				<ellipse class="st41" cx="321.3" cy="38.5" rx="33.5" ry="33.7"/>
				<ellipse class="st41" cx="238.5" cy="38.9" rx="33.5" ry="33.7"/>
				<ellipse class="st41" cx="154.5" cy="38.9" rx="33.5" ry="33.7"/>
				<ellipse class="st41" cx="195.5" cy="108.9" rx="33.5" ry="33.7"/>
				<ellipse class="st41" cx="404" cy="38.9" rx="33.5" ry="33.7"/>
				<ellipse class="st41" cx="486.8" cy="38" rx="33.5" ry="33.7"/>
				<ellipse class="st41" cx="569.6" cy="38" rx="33.5" ry="33.7"/>
				<ellipse class="st41" cx="651.5" cy="38" rx="33.5" ry="33.7"/>
				<ellipse class="st41" cx="733.5" cy="38" rx="33.5" ry="33.7"/>
			</g>
			<line class="st0" x1="404" y1="82" x2="404" y2="163"/>
			<line class="st0" x1="485.5" y1="82.9" x2="485.5" y2="163"/>
			<line class="st0" x1="362" y1="147" x2="362" y2="164"/>
			<line class="st0" x1="445.5" y1="147" x2="445.5" y2="163"/>
			<line class="st0" x1="528.5" y1="147.9" x2="528.5" y2="163"/>
			<path id="яндекс_1_" class="st30" d="M368.9,90.3h-5.7c-5.6,0-10.4,4.3-10.4,12.6c0,5,2.3,8.7,6.4,10.5l-7.7,13.9
				c-0.3,0.5,0,0.8,0.4,0.8h3.6c0.3,0,0.5-0.1,0.6-0.4l7-13.6h2.5v13.6c0,0.2,0.2,0.4,0.3,0.4h3.1c0.3,0,0.4-0.2,0.4-0.4V90.8
				C369.4,90.5,369.2,90.3,368.9,90.3z M365.6,110.8h-2.1c-3.3,0-6.5-2.4-6.5-8.4c0-6.3,3-8.9,6.1-8.9h2.6v17.3H365.6z"/>
			<g>
				<path class="st42" d="M454.8,113.9c-0.6,0-1.2,0-1.9,0c0,1.2,0,2.4,0,3.7c-2.4,0-4.7,0-7.2,0c0-1.2,0-2.4,0-3.7
					c-0.9,0-1.7,0-2.6,0c0,4.3,0,8.5,0,12.7c-2.4,0-4.7,0-7.1,0c0-4.2,0-8.4,0-12.7c-0.9,0-1.7,0-2.6,0c0,4.2,0,8.4,0,12.7
					c-2.6,0-5.1,0-7.7,0c0-12.4,0-24.8,0-37.2c12.2,0,24.4,0,36.8,0c0,8.2,0,16.3,0,24.5C459.9,113.9,457.4,113.9,454.8,113.9z
					 M452.3,96c-0.1-0.1-0.1-0.1-0.2-0.2l0,0c-0.2-0.1-0.4-0.3-0.7-0.3c-5.1,0-10.2,0-15.4,0c-0.2,0-0.4,0.2-0.6,0.2
					c0,1.1,0,2.2,0,3.3c2.6,0,5.1,0.1,7.7,0.1c3,0,6.1,0,9.3,0C452.4,98,452.4,97,452.3,96z M435.4,102.9c0,1.1,0,2.1,0,3.2
					c0.2,0.1,0.3,0.3,0.5,0.3c2.8,0,5.7,0,8.5,0c2.7,0,5.3,0,8.2,0c-0.2-1.4-0.3-2.4-0.4-3.4c0-0.1-0.1-0.1-0.1-0.2
					c-0.2-0.1-0.3-0.2-0.5-0.2c-5.2,0-10.5,0-15.7,0C435.7,102.6,435.6,102.8,435.4,102.9z"/>
				<path class="st43" d="M454.8,113.9c2.6,0,5.1,0,7.7,0c1.1,3.4,2.1,6.7,3.2,10.2c-2.7,0-5.2,0-7.8,0
					C456.9,120.7,455.8,117.3,454.8,113.9z"/>
				<path class="st44" d="M435.4,106.1c0-1.1,0-2.1,0-3.2c5.6,0,11.1,0,16.7-0.1c0,0.1,0.1,0.1,0.1,0.2c0,1,0,2,0,3.1
					C446.5,106.1,440.9,106.1,435.4,106.1z"/>
				<path class="st44" d="M435.5,99c0-1.1,0-2.2,0-3.3c5.5,0,11.1,0,16.6,0l0,0c0,0.1,0,0.1,0.1,0.2c0,0.9,0,1.8,0,2.7
					c0,0.1-0.1,0.2-0.1,0.3C446.6,99,441,99,435.5,99z M435.7,98.6c5.4,0,10.8,0,16.2,0c0-0.9,0-1.7,0-2.5c-5.4,0-10.8,0-16.2,0
					C435.7,97,435.7,97.7,435.7,98.6z"/>
				<path class="st45" d="M435.4,106.1c5.6,0,11.1,0,16.8,0c0-1,0-2.1,0-3.1c0.1,1,0.2,2.1,0.4,3.4c-2.9,0-5.5,0-8.2,0
					c-2.8,0-5.7,0-8.5,0C435.7,106.4,435.5,106.2,435.4,106.1z"/>
				<path class="st45" d="M452.1,95.8c-5.5,0-11.1,0-16.6,0c0.2-0.1,0.4-0.2,0.6-0.2c5.1,0,10.2,0,15.4,0
					C451.7,95.5,451.9,95.7,452.1,95.8z"/>
				<path class="st45" d="M435.5,99c5.5,0,11.1,0,16.6,0c0-0.1,0.1-0.2,0.1-0.3c0-0.9,0-1.8,0-2.7h0.1c0.1,1,0.1,2,0.2,3.2
					c-3.2,0-6.2,0-9.3,0C440.6,99.1,438.1,99.1,435.5,99z"/>
				<path class="st45" d="M452.1,102.8c-5.6,0-11.1,0-16.7,0.1c0.2-0.1,0.3-0.2,0.5-0.2c5.2,0,10.5,0,15.7,0
					C451.8,102.6,451.9,102.8,452.1,102.8z"/>
				<path class="st43" d="M452.3,96h-0.1c0-0.1,0-0.1-0.1-0.2C452.2,95.9,452.3,95.9,452.3,96z"/>
				<path class="st46" d="M435.7,98.6c0-0.9,0-1.7,0-2.5c5.4,0,10.7,0,16.2,0c0,0.8,0,1.7,0,2.5C446.5,98.6,441.1,98.6,435.7,98.6z"
					/>
				<path class="st43" d="M452.2,98.7c0,0.1-0.1,0.2-0.1,0.3C452.1,98.9,452.2,98.8,452.2,98.7z"/>
			</g>
			<g>
				<path class="st47" d="M551,324.6H342.6c-2.2,0-4-1.8-4-4V174.1c0-2.2,1.8-4,4-4H551c2.2,0,4,1.8,4,4v146.5
					C555,322.8,553.2,324.6,551,324.6z"/>
				<path class="st48" d="M545.8,316.9h-198c-2.2,0-4-1.8-4-4v-135c0-2.2,1.8-4,4-4h198.1c2.2,0,4,1.8,4,4v135
					C549.8,315.1,548,316.9,545.8,316.9z"/>
				<path class="st49" d="M540.7,306.6H352.8c-1.1,0-2-0.9-2-2V182.4c0-1.1,0.9-2,2-2h187.9c1.1,0,2,0.9,2,2v122.2
					C542.7,305.7,541.8,306.6,540.7,306.6z"/>
				<path class="st50" d="M392.7,360.7v-9c0-3.5,2.9-6.4,6.4-6.4h95.3c3.5,0,6.4,2.9,6.4,6.4v9H392.7z"/>
				<rect x="318" y="359.4" class="st51" width="255" height="2.6"/>
				<polygon class="st52" points="480.9,324.6 412.7,324.6 402.4,345.2 491.2,345.2 				"/>
			</g>
			<g>
				<path class="st53" d="M505.5,99.7c0-0.7,0.3-1.2,0.5-1.8c0.8-1.8,1.8-3.5,3.3-4.9c1.8-1.7,3.9-2.8,6.3-3.5
					c1.5-0.4,3-0.4,4.5-0.3c1,0.1,2.1,0.4,3.1,0.7c4.6,1.8,7.6,5,8.7,9.9c0.1,0.5,0.1,0.9,0.2,1.5c1.3-1.2,2.7-1.7,4.4-0.7
					c0.3-0.1,0.5-0.4,0.6-0.6c1-1.1,2.9-1.1,4.2,0.1c0.4,0.3,0.7,0.7,0.9,1.2c1.3,2.8,3.1,5.3,4.7,7.9c0.7,1.2,1.5,2.4,1.8,3.8
					c0,0.1,0.1,0.2,0.1,0.3c-0.1,0.7,0.3,1.1,0.8,1.6s1,1,1.4,1.4c0.7,0.7,0.7,0.9,0,1.6c-0.1,0.1-0.2,0.2-0.3,0.3
					c-0.3,0.1-0.5,0.4-0.7,0.6c-2.3,2.3-4.7,4.7-7,7c-1,1-1.3,0.9-2.1,0c-0.4-0.4-0.8-0.8-1.3-1.3c-0.5,0.5-1.2,0.3-1.6,0.7
					c-0.1,0.1-0.3,0-0.4-0.1c-0.1-0.2-0.2-0.1-0.4-0.2c-0.8,0-1.5-0.3-2.2-0.6c-0.7-0.2-1.4-0.4-2.1-0.4c-2.3,0-4.5,0-6.8,0
					c-1.9,0-3.2-1.3-3.2-3.2c0-0.2,0-0.4,0-0.6c0.4-1.6,1.7-2.4,3.1-2.9c0.3-0.1,0.6-0.1,0.9-0.3c0.5,0.1,1.1,0,1.4-0.2
					c-0.9-0.9-1.7-1.8-2.6-2.7c-0.1,0.1-0.3,0.1-0.5,0.2c-2.8,1.6-5.7,2.1-8.9,1.6c-3.9-0.7-6.9-2.7-9.1-6c-1.7-2.6-2.3-5.4-2-8.4
					C505.4,100.9,505.5,100.3,505.5,99.7z M521.3,112.7c0.5,0.1,1-0.1,1.4-0.4c-1.1-1.1-2.1-2.2-3.1-3.2c-0.3-0.3-0.5-0.3-0.9-0.3
					c-0.8,0-1.5-0.1-2.2-0.5c-2.8-1.2-4.4-3.9-3.9-7.3c0-0.2,0.1-0.3-0.1-0.5c0.4-1.2,1.1-2.3,2.1-3.2c2.5-2.3,6.2-2.3,8.8,0
					c2.1,1.9,2.7,4.2,2,6.9c0.5,0.4,0.9,1,1.5,1.4c0.5-1,1.4-1.4,2.2-2c0.6-0.1,0.6-0.1,0.7-0.8c0.1-2.4-0.5-4.6-1.8-6.5
					c-1.9-2.8-4.6-4.4-7.9-4.8c-2.9-0.3-5.6,0.5-7.8,2.4c-0.7,0.6-1.4,1.2-1.8,2c-0.4,0.5-0.8,1-1.1,1.6c-1,2.3-1.4,4.7-0.8,7.3
					c0.9,3.3,2.8,5.7,5.8,7.1c1.1,0.5,2.2,0.8,3.4,1C519,113.1,520.2,113,521.3,112.7z M526.1,120.6c0.3-0.1,0.4-0.2,0.6-0.2
					c0.9-0.1,2.3,0.1,2.6,1.2c0.3,0.9,0.8,1,1.6,1c0.4,0,0.9,0,1.3,0c0.8,0,1.6,0,2.3,0.2c1,0.3,2,0.5,3,0.7c0.6,0.1,1.2,0,1.7-0.4
					c0.6-0.4,0.7-0.4,1.3,0.1c0.5,0.5,0.9,1,1.5,1.4c0.3-0.1,0.4-0.3,0.6-0.5c1.4-1.4,2.7-2.7,4.1-4.1c0.8-0.8,1.6-1.5,2.3-2.3
					c0.6-0.6,0.6-0.7,0-1.3c-0.2-0.3-0.5-0.5-0.8-0.8c-0.5-0.5-1.2-1-0.9-1.9c0,0-0.1-0.1-0.1-0.2c-0.1-1.1-0.7-2-1.3-3
					c-1.4-2.4-3-4.8-4.3-7.3c-0.4-0.7-0.8-1.5-1.4-2.1c-0.9-1-1.6-0.8-2.3,0.1c-0.1,0.2-0.3,0.4-0.4,0.6c-0.7,1.1-0.7,1.1-1.6,0.2
					c-1-0.9-2.4-0.6-2.9,0.7c-0.2,0.6-0.1,1.1,0.2,1.6s0.2,0.7-0.1,1s-0.6,0.2-1,0c-0.2-0.1-0.3-0.2-0.5-0.3
					c-0.8-0.4-1.8-0.2-2.4,0.4c-0.6,0.6-0.7,1.4-0.2,2.2c0.1,0.2,0.3,0.5,0.5,0.6c0.3,0.3,0.1,0.6,0,0.9c-0.2,0.3-0.5,0.4-0.9,0.2
					c-0.2-0.1-0.4-0.3-0.6-0.5c-2.1-2-4.1-4.1-6.2-6.1c-0.1-0.1-0.3-0.3-0.4-0.4c-0.8-0.7-1.7-0.5-2.3,0c-0.8,0.6-0.8,1.6-0.3,2.3
					c0.7,1.1,2,1.3,3.1,0.7c0.2-0.1,0.3-0.4,0.6-0.3c0.4,0.3,0.4,0.5,0.1,0.9c-0.2,0.2-0.4,0.3-0.7,0.4c-0.6,0.2-0.7,0.8-0.2,1.3
					c0.1,0.1,0.2,0.2,0.3,0.3c0.9,0.9,1.8,1.7,2.8,2.6c2.5,2.4,4.9,4.9,7.4,7.3c0.2,0.2,0.3,0.3,0.5,0.5c0.2,0.3,0.2,0.6,0,0.9
					s-0.6,0.3-0.9,0.1c-0.2-0.1-0.3-0.3-0.5-0.4c-0.6-0.5-1.2-0.8-2-0.7c-0.7,0.1-1.4,0.2-2.1,0.4c-0.7,0.2-1.3,0.5-1.9,0.9
					c-0.5,0.5-0.9,1.1-0.7,1.8c0.2,0.7,0.7,1,1.3,1.1c0.7,0.2,1.4,0.1,2,0.1c0.2,0,0.5-0.1,0.5-0.5c0-0.3-0.1-0.6-0.4-0.7
					c-0.5-0.2-0.9-0.1-1.4-0.1C526.2,121.3,526.1,121.2,526.1,120.6z"/>
				<path class="st54" d="M505.5,99.7c0.1,0.6-0.1,1.1-0.1,1.7c-0.2,3,0.4,5.9,2,8.4c2.2,3.3,5.2,5.4,9.1,6c3.1,0.5,6.1,0,8.9-1.6
					c0.2-0.1,0.4-0.2,0.5-0.2c0.9,0.9,1.7,1.8,2.6,2.7c-0.3,0.2-0.9,0.2-1.4,0.2c-0.6-0.6-1.2-1.2-1.8-1.8c-1.1,0.6-2.1,1.1-3.3,1.5
					c-7.6,2.4-15.7-2.4-17.2-10.2c-0.4-2.1-0.3-4.2,0.3-6.3C505.2,99.9,505.2,99.7,505.5,99.7z"/>
				<path class="st54" d="M523.1,120.2c0,0.2,0,0.4,0,0.6c0,1.9,1.3,3.2,3.2,3.2c2.3,0,4.5,0,6.8,0c0.7,0,1.4,0.1,2.1,0.4
					c0.7,0.3,1.4,0.5,2.2,0.6c0.1,0,0.3,0,0.4,0.2c0.1,0.2,0.3,0.2,0.4,0.1c0.4-0.5,1.1-0.2,1.6-0.7c0.5,0.5,0.9,0.9,1.3,1.3
					c0.8,0.9,1.2,1,2.1,0c2.3-2.4,4.7-4.7,7-7c0.2-0.2,0.4-0.5,0.7-0.6c0.1,0.5-0.3,0.7-0.5,1c-2.5,2.5-5,5-7.5,7.5
					c-0.3,0.3-0.6,0.6-0.9,0.9c-0.5,0.4-0.8,0.4-1.2,0c-0.3-0.3-0.6-0.5-0.8-0.8s-0.5-0.5-0.7-0.8c-1,0.4-2,0.5-3.1,0.3
					c-0.6-0.1-1.2-0.4-1.8-0.6s-1.2-0.3-1.8-0.3c-2.3,0-4.6,0-6.8,0c-0.7,0-1.4-0.2-2-0.6C522.2,123.6,522,121.8,523.1,120.2z"/>
				<path class="st54" d="M529.2,103.6c0.1-4.7-3.1-9.4-8.2-10.6c-3.6-0.9-6.9,0-9.7,2.4c-0.2,0.2-0.4,0.5-0.8,0.5
					c0.4-0.9,1.1-1.5,1.8-2c2.3-1.9,4.9-2.7,7.8-2.4c3.4,0.3,6,2,7.9,4.8c1.3,2,1.9,4.2,1.8,6.5
					C529.8,103.5,529.8,103.5,529.2,103.6z"/>
				<path class="st54" d="M521.3,112.7c-0.8-0.7-1.5-1.5-2.3-2.2c-0.3-0.3-0.6-0.4-1-0.4c-4.4-0.1-7.7-4.8-5.6-9.4l0.1-0.1
					c0.2,0.1,0.1,0.3,0.1,0.5c-0.5,3.4,1,6.1,3.9,7.3c0.7,0.3,1.5,0.5,2.2,0.5c0.3,0,0.6,0.1,0.9,0.3c1,1.1,2.1,2.1,3.1,3.2
					C522.3,112.6,521.8,112.8,521.3,112.7z"/>
			</g>
			<g>
				<path class="st55" d="M593.4,117.4c0,2.4,0,4.9,0,7.3c-0.2,0-0.4,0-0.6,0c-0.2,0-0.4,0-0.6,0c0-2,0-4,0-5.9
					c-0.4,1-0.8,2.1-1.3,3.2c-0.3,0.8-0.7,1.7-1,2.5c0,0.1-0.1,0.2-0.2,0.2c-0.7,0-0.7,0-0.9-0.6c-0.6-1.6-1.3-3.1-1.9-4.7
					c-0.1-0.2-0.2-0.5-0.2-0.7c0,2,0,3.9,0,5.9c-0.4,0-0.7,0-1.1,0c0-0.1,0-0.2,0-0.2c0-2.3,0-4.5,0-6.8c0-0.2,0.1-0.3,0.3-0.3
					c0.4,0,0.9,0,1.3,0c0.1,0,0.2,0,0.2,0.2c0.7,1.8,1.4,3.6,2.1,5.5l0,0c0.1-0.3,0.2-0.6,0.4-0.9c0.6-1.5,1.2-3,1.8-4.5
					c0.1-0.2,0.2-0.2,0.3-0.2C592.5,117.4,592.9,117.4,593.4,117.4z"/>
				<path class="st56" d="M613.1,101.6c0.6,0.6,1,1.4,1.1,2.3c0.2,1.8-0.6,3.3-2.2,4.1c-2.4,1.3-5.5-0.2-6-2.8
					c0.3-0.2,0.6-0.3,0.9-0.5l0.1-0.1c0.1,0,0.3,0,0.4,0v0.2c0,0,0,0.1,0.1,0.1c0,0.1,0.1,0.2,0.1,0.3c-0.1,0.4,0.1,0.8,0.2,1.2
					c0.1,0.2,0.2,0.2,0.4,0.1c0.1-0.2,0.3-0.3,0.3-0.5s0.1-0.3,0.3-0.4c0,0.2,0,0.4-0.1,0.6c0.2-0.1,0.3-0.4,0.3-0.7
					c-0.1,0-0.2,0.1-0.2,0.1c0-0.1,0-0.2,0-0.2c-0.1-0.2,0-0.4,0.1-0.5c0.1-0.2,0.3-0.4,0.4-0.6c-0.2-0.1-0.4-0.1-0.4-0.2
					c-0.1-0.3-0.3-0.5-0.2-0.8l0,0c0,0.1,0.1,0.1,0.1,0.2c0.1,0.2,0.1,0.4,0.2,0.7c0.2-0.2,0.4-0.3,0.6-0.5
					c-0.2-0.1-0.5-0.1-0.4-0.4c0.1,0.1,0.2,0.2,0.4,0.2c0.4,0,0.6,0.3,0.6,0.7c0,0.1,0.1,0.2,0.1,0.4c0-0.1,0.1-0.1,0.1-0.1
					c0.1-0.2,0.2-0.3,0.3-0.5l0.2-0.1c0.1,0.1,0.2,0.3,0.3,0.4c0.2,0.1,0.3,0.1,0.4,0.2c0-0.1,0-0.2-0.1-0.3
					c-0.1-0.2-0.1-0.2,0.1-0.3c0.2-0.1,0.3-0.3,0.4-0.5c0-0.1-0.1-0.3-0.2-0.4c0-0.1,0-0.1-0.1-0.2c0,0,0,0,0.1,0
					c0.1,0.1,0.2,0.2,0.3,0.3c0-0.1,0-0.2-0.1-0.3c0.3-0.2,0.3-0.3,0-0.5c-0.1,0-0.1-0.1-0.2-0.2c0.2,0,0.4-0.1,0.5-0.1l0.1,0.1
					c0.1,0,0.2-0.1,0.2-0.1c0-0.1-0.1-0.1-0.1-0.2C612.9,101.7,613,101.7,613.1,101.6z M613.6,105.5
					C613.6,105.6,613.6,105.6,613.6,105.5C613.6,105.6,613.6,105.6,613.6,105.5c-0.1-0.3-0.4-0.5-0.8-0.5
					C613,105.4,613.3,105.5,613.6,105.5z M612.8,105.5c-0.1,0-0.2,0-0.2,0.1c-0.2,0.1-0.3,0.3-0.5,0.4s-0.2,0.3-0.2,0.5
					c0.1,0.3,0.1,0.3,0.4,0.2c0.3-0.1,0.5,0,0.7,0.2c0.1,0.1,0.2,0.1,0.3,0.1s0.1-0.1,0.1-0.1c0.1-0.3,0.2-0.5,0-0.8
					c-0.1-0.1-0.1-0.2-0.2-0.4c-0.1,0.3-0.1,0.3-0.4,0.2C612.7,105.6,612.7,105.6,612.8,105.5z M612.1,104.7
					c-0.1,0.1-0.2,0.1-0.3,0.2l-0.1,0.1c0,0.1,0,0.1,0.1,0.1s0.2,0,0.3,0C612.2,105,612.2,104.8,612.1,104.7z M611.5,105.3
					c0.1-0.2-0.1-0.4-0.3-0.5C611.3,104.9,611.4,105.1,611.5,105.3z"/>
				<path class="st57" d="M629.4,124.7c0-2.4,0-4.8,0-7.2c0,0,0,0,0.1,0c1,0,2.1,0,3.1,0.1s1.8,0.5,2.4,1.3c0.5,0.7,0.6,1.5,0.6,2.3
					c0,2-1.4,3.4-3.4,3.6C631.3,124.7,630.3,124.7,629.4,124.7z M630.6,123.7c0.4,0,0.8,0,1.2,0c1.1,0,2-0.6,2.3-1.6
					c0.3-0.8,0.3-1.5,0-2.3c-0.2-0.6-0.6-1-1.2-1.2c-0.7-0.3-1.5-0.2-2.3-0.2C630.6,120.2,630.6,121.9,630.6,123.7z"/>
				<path class="st58" d="M624.6,118.9c-0.6-0.4-1.3-0.6-2-0.6c-1.5,0-2.6,1.1-2.6,2.6c0,0.6,0,1.2,0.3,1.7c0.4,0.8,1.2,1.2,2.1,1.1
					c0.4,0,0.7-0.1,1.1-0.2c0.1,0,0.1-0.1,0.1-0.2c0-0.5,0-1.1,0-1.6c-0.5,0-1,0-1.5,0c0-0.4,0-0.7,0-1c0.9,0,1.8,0,2.7,0
					c0,0.5,0,1,0,1.5c0,0.6,0,1.2,0,1.8c0,0.1,0,0.2-0.1,0.2c-1.3,0.6-2.7,0.8-4.1,0.2c-1.1-0.5-1.7-1.4-1.9-2.5s-0.1-2.2,0.7-3.2
					c0.8-1.1,1.9-1.5,3.3-1.5c0.6,0,1.2,0.1,1.7,0.3c0.1,0,0.2,0.1,0.2,0.3C624.5,118.2,624.6,118.5,624.6,118.9z"/>
				<path class="st59" d="M627.6,103.4c0.6,0.5,1.2,1,1.9,1.5c-0.5,0.4-0.9,0.7-1.3,1c-3.4,2.5-7,4.4-11.1,5.6
					c-2.7,0.8-5.4,1.2-8.3,1.1c-0.2,0-0.4,0-0.7,0c-0.2,0-0.4,0-0.6-0.1c7.4,0.1,13.6-2.8,19.1-7.6c-0.2-0.2-0.4-0.3-0.6-0.5
					l0.1-0.1c0.3-0.2,0.7-0.4,1-0.6C627.4,103.6,627.5,103.5,627.6,103.4z"/>
				<path class="st60" d="M612.3,93.5c0-2.6,0-5.1,0-7.7c1.2,0.3,2.3,0.5,3.5,0.8c-0.1,0.3-0.1,0.5-0.2,0.7
					c-0.6,2.1-1.2,4.1-1.8,6.2c0,0.1,0,0.2-0.2,0.2C613.2,93.6,612.7,93.5,612.3,93.5z"/>
				<path class="st61" d="M609.1,124.7c-0.5,0-1,0-1.4,0c-0.1,0-0.2-0.1-0.3-0.2c-0.6-0.7-1.2-1.4-1.7-2.1l-0.1-0.1
					c0,0.8,0,1.7,0,2.5c-0.4,0-0.8,0-1.2,0c0-2.6,0-5.1,0-7.7c0.4,0,0.8,0,1.2,0c0,1.6,0,3.2,0,4.8l0,0c0.2-0.3,0.4-0.5,0.6-0.8
					c0.4-0.5,0.8-1,1.2-1.4c0.1-0.1,0.2-0.1,0.3-0.1c0.4,0,0.8,0,1.3,0c-0.7,0.9-1.4,1.7-2.2,2.5
					C607.5,122.9,608.3,123.8,609.1,124.7z"/>
				<path class="st62" d="M622,96.1c0.6-0.5,1.2-1.1,1.8-1.6c1.2-1.1,2.4-2.1,3.7-3.2c0.1-0.1,0.2-0.1,0.3,0c0.8,0.5,1.7,1,2.5,1.5
					c0,0,0,0,0.1,0.1c-0.7,0.4-1.5,0.8-2.2,1.2c-1.6,0.9-3.2,1.8-4.8,2.7c-0.2,0.1-0.3,0.1-0.5,0C622.6,96.5,622.3,96.3,622,96.1z"
					/>
				<path class="st63" d="M613.7,123.4c0,0.3,0,0.5,0,0.7s-0.1,0.3-0.2,0.4c-0.8,0.3-1.6,0.4-2.5,0.2c-0.6-0.1-1.1-0.5-1.3-1.1
					c-0.5-1-0.5-2,0-2.9c0.5-1.1,1.8-1.6,3-1.2c0.9,0.3,1.3,1,1.4,1.8c0.1,0.4,0,0.7,0.1,1.1c-1.2,0-2.4,0-3.5,0
					c-0.1,0.6,0.3,1.2,0.8,1.4c0.7,0.3,1.4,0.2,2-0.2C613.4,123.6,613.5,123.5,613.7,123.4z M612.9,121.6c0.1-0.7-0.3-1.2-0.9-1.3
					c-0.8-0.1-1.4,0.5-1.4,1.3C611.3,121.6,612.1,121.6,612.9,121.6z"/>
				<path class="st64" d="M595.2,120.9c0-0.3,0-0.6,0-0.9c0-0.1,0.1-0.1,0.1-0.2c0.8-0.4,1.7-0.6,2.6-0.3c0.7,0.2,1,0.7,1.1,1.4
					c0,0.2,0,0.4,0,0.6c0,1,0,2,0,2.9c0,0.1,0,0.2,0,0.3c-0.4,0-0.8,0-1.2,0c0-0.2,0-0.5,0-0.8c-0.1,0.2-0.3,0.3-0.4,0.4
					c-0.6,0.5-1.6,0.6-2.2,0.2c-0.5-0.3-0.7-0.9-0.6-1.5c0-0.6,0.3-1.1,0.9-1.3c0.5-0.2,1-0.2,1.5-0.3c0.3-0.1,0.5-0.1,0.8-0.1
					c0.1-0.6-0.3-1.1-0.9-1.1c-0.6,0-1.1,0.2-1.6,0.5C595.3,120.8,595.3,120.8,595.2,120.9z M597.9,122.2c-0.1,0-0.2,0-0.3,0
					c-0.4,0.1-0.9,0.1-1.3,0.3c-0.3,0.1-0.5,0.4-0.4,0.7c0,0.3,0.2,0.6,0.5,0.7c0.5,0.2,1,0,1.4-0.4
					C597.9,123.1,597.9,122.6,597.9,122.2z"/>
				<path class="st55" d="M615.5,119.5c0-0.4,0-0.7,0-1.1c0-0.1,0.1-0.2,0.1-0.2c0.3-0.1,0.7-0.2,1.1-0.3c0,0.5,0,1,0,1.5
					c0.4,0,0.8,0,1.2,0c0,0.3,0,0.6,0,1c-0.4,0-0.8,0-1.2,0c0,0.2,0,0.3,0,0.5c0,0.7,0,1.3,0,2c0,0.1,0,0.2,0,0.2
					c0.1,0.6,0.5,0.9,1.1,0.6c0,0,0.1,0,0.1-0.1c0,0.3,0,0.6,0,0.8c0,0.1-0.1,0.1-0.1,0.2c-0.5,0.2-1.1,0.2-1.6,0s-0.7-0.6-0.7-1.1
					c0-1,0-1.9,0-2.9c0-0.1,0-0.2,0-0.3c-0.3,0-0.6,0-0.9,0c0-0.3,0-0.6,0-1C614.9,119.5,615.2,119.5,615.5,119.5z"/>
				<path class="st65" d="M627.6,124.7c-0.4,0-0.8,0-1.2,0c0-2.4,0-4.8,0-7.3c0.4,0,0.8,0,1.2,0
					C627.6,119.8,627.6,122.3,627.6,124.7z"/>
				<path class="st66" d="M623,89.8c-0.3,0.3-0.5,0.6-0.8,1c-0.5,0.6-1.1,1.2-1.6,1.9c-0.6,0.7-1.2,1.4-1.8,2.1c0,0-0.1,0.1-0.2,0.1
					c-0.5-0.2-1-0.4-1.5-0.6c0.4-0.7,0.8-1.4,1.2-2.1h0.1c0.9-0.5,1.7-1,2.6-1.5c0.6-0.3,1.2-0.7,1.7-1
					C622.9,89.6,623,89.6,623,89.8z"/>
				<path class="st67" d="M593.9,99.7c0.8-0.6,1.6-1.1,2.5-1.5c0.8-0.4,1.6-0.7,2.4-1.1c0.1,0,0.1,0,0.2,0c-2.1,1.3-4,2.9-5.5,5
					c0.3,0.3,0.7,0.6,1,0.9c-0.1,0.2-0.2,0.3-0.2,0.5c-0.1,0.5-0.2,1-0.4,1.5c-0.5-0.4-1-0.7-1.5-1.1c0-0.1,0.1-0.1,0.1-0.2
					c0.2-0.5,0.3-1,0.4-1.5c0.3-0.8,0.7-1.5,1-2.3C594,99.9,593.9,99.8,593.9,99.7z"/>
				<path class="st55" d="M601.7,124.7c-0.4,0-0.8,0-1.2,0c0-1.7,0-3.5,0-5.2c0.4,0,0.8,0,1.2,0c0,0.3,0,0.6,0,0.9
					c0.2-0.2,0.3-0.5,0.5-0.7c0.3-0.3,0.7-0.4,1.2-0.3c0.1,0,0.2,0.1,0.2,0.2c0,0.3,0,0.6,0,0.9c-0.2,0-0.5-0.1-0.7-0.1
					c-0.6,0-1,0.5-1.1,1.2c0,0.3,0,0.7,0,1C601.7,123.4,601.7,124,601.7,124.7z"/>
				<path class="st68" d="M623,89.8c0-0.2-0.1-0.2-0.2-0.1c-0.6,0.3-1.2,0.7-1.7,1c-0.9,0.5-1.7,1-2.6,1.5h-0.1
					c0.3-0.6,0.7-1.3,1-1.9c0.4-0.7,0.8-1.4,1.1-2.1c0-0.1,0.1-0.1,0.1-0.2c1,0.4,1.9,0.8,2.9,1.2C623.4,89.4,623.2,89.6,623,89.8z"
					/>
				<path class="st56" d="M621.5,101.2c-0.4-0.2-0.9-0.5-1.3-0.7c-0.8-0.4-1.6-0.7-2.3-1.1c0,0-0.1,0-0.1-0.1
					c0.1-0.1,0.1-0.1,0.2-0.2c0.4-0.2,0.7-0.4,1.1-0.6l0.1-0.1c1.4,0.5,2.7,1.1,3.9,1.8l-0.1,0.1C622.4,100.7,621.9,101,621.5,101.2
					z"/>
				<path class="st69" d="M607.1,104.6C607.1,104.6,607.1,104.7,607.1,104.6c-0.4,0.3-0.7,0.4-1,0.6c-0.4-1.7,0.5-3.7,2.1-4.5
					c0.8-0.4,1.7-0.6,2.5-0.4h0.1l-0.1,0.1c-0.5,0.3-1.1,0.6-1.6,0.9c-0.1,0-0.1,0.1-0.1,0.2h-0.1c-0.1,0-0.2,0-0.3,0
					c-0.2,0.1-0.4,0.2-0.6,0.3v0.1l0,0l-0.1,0.1c-0.1,0.2-0.1,0.4-0.4,0.4c0,0-0.1,0.1-0.1,0.2c0.1,0,0.2,0,0.2,0
					c0.1,0,0.1-0.1,0.2-0.1c0.3-0.2,0.3-0.2,0.5,0.1c0-0.1,0-0.1,0-0.2l0,0c0,0.1,0.1,0.2,0.1,0.2c0-0.1,0.1-0.1,0.2-0.2
					c0,0.1,0,0.2,0.1,0.3c0.1,0,0.2,0,0.2,0s0,0,0,0.1c-0.1,0.1-0.2,0.2-0.3,0.1c-0.3,0-0.6,0.1-0.8-0.2c0,0,0,0-0.1,0
					c-0.4-0.1-0.7,0-0.9,0.4c-0.1,0.2-0.2,0.3-0.3,0.5C606.4,104.3,606.6,104.6,607.1,104.6z"/>
				<path class="st70" d="M619.1,98.5L619.1,98.5c-0.5,0.3-0.8,0.5-1.2,0.7c-0.1,0-0.1,0.1-0.2,0.2c-0.5-0.2-0.9-0.4-1.4-0.5
					c-0.9-0.3-1.8-0.5-2.7-0.8l0.1-0.1c0.2-0.1,0.5-0.3,0.7-0.4c0.1-0.1,0.2-0.2,0.4-0.3C616.3,97.5,617.7,97.9,619.1,98.5z"/>
				<path class="st71" d="M621.5,101.2c0.5-0.3,0.9-0.5,1.4-0.8c0.1,0,0.1-0.1,0.1-0.1c0.9,0.5,1.7,1,2.6,1.6
					c-0.3,0.2-0.5,0.3-0.8,0.5c-0.2,0.2-0.5,0.3-0.7,0.5c-0.5-0.3-1-0.7-1.5-1C622.2,101.6,621.8,101.4,621.5,101.2z"/>
				<path class="st72" d="M593.9,99.7c0,0.1,0,0.2,0,0.2c-0.3,0.8-0.7,1.5-1,2.3c-0.2,0.5-0.3,1-0.4,1.5c0,0.1-0.1,0.1-0.1,0.2
					c-0.6-0.5-1.1-0.9-1.7-1.4c0.3-0.2,0.5-0.5,0.7-0.7c0.7-0.6,1.5-1.3,2.3-1.9C593.8,99.8,593.9,99.8,593.9,99.7z"/>
				<path class="st73" d="M614.8,97.3c-0.1,0.1-0.2,0.2-0.4,0.3c-0.2,0.1-0.5,0.3-0.7,0.4l-0.1,0.1c-1.7-0.3-3.3-0.5-5-0.5
					c0-0.1,0.1-0.1,0.1-0.2c0.1-0.1,0.2-0.1,0.4-0.2s0.3-0.2,0.4-0.3C611.2,96.8,613,96.9,614.8,97.3
					C614.7,97.2,614.8,97.3,614.8,97.3z"/>
				<path class="st74" d="M624.1,102.9c0.2-0.2,0.5-0.3,0.7-0.5c0.3-0.2,0.5-0.3,0.8-0.5c0.7,0.5,1.4,1,2.1,1.5
					c-0.1,0.1-0.2,0.2-0.4,0.3c-0.3,0.2-0.7,0.4-1,0.6c-0.1,0-0.1,0.1-0.1,0.1C625.4,103.8,624.7,103.3,624.1,102.9z"/>
				<path class="st75" d="M609.5,96.9c-0.1,0.1-0.3,0.2-0.4,0.3c-0.1,0.1-0.2,0.1-0.4,0.2c-0.1,0-0.1,0.1-0.1,0.2
					c-0.3,0-0.5,0.1-0.8,0.1c-2.1,0.1-4.2,0.7-6.1,1.4c-0.5,0.2-1,0.4-1.5,0.6c-0.1,0-0.1,0-0.2,0.1c0,0,0,0,0-0.1
					c0.8-0.4,1.7-0.8,2.5-1.2c1.6-0.7,3.3-1.2,5.1-1.4C608.2,97,608.9,97,609.5,96.9z"/>
				<path class="st76" d="M593.9,105c0.1-0.5,0.2-1,0.4-1.5c0-0.2,0.1-0.3,0.2-0.5c0.5,0.5,1,0.9,1.5,1.4c-0.1,0.6-0.2,1.1-0.3,1.7
					C595.1,105.7,594.5,105.4,593.9,105z"/>
				<path class="st70" d="M608.9,101.6c0-0.1,0.1-0.2,0.1-0.2c0.5-0.3,1.1-0.6,1.6-0.9c0.1,0,0.1-0.1,0.1-0.1
					c0.9,0.1,1.7,0.6,2.3,1.2c-0.1,0.1-0.2,0.2-0.3,0.2c-0.3-0.1-0.7-0.2-1-0.2c-0.4-0.1-0.8-0.1-1.2-0.2c0,0,0,0-0.1,0
					c-0.2,0.1-0.4,0.1-0.6,0.2c-0.2,0-0.4,0.1-0.5,0C609.2,101.7,609,101.6,608.9,101.6z"/>
				<path class="st77" d="M595.7,106.1c0.1-0.6,0.2-1.1,0.3-1.7c0.6,0.4,1.2,0.9,1.8,1.3c0,0.3-0.1,0.7-0.1,1c0,0.1,0,0.2-0.1,0.3
					C597,106.7,596.3,106.4,595.7,106.1z"/>
				<path class="st78" d="M597.6,107.1c0-0.1,0.1-0.2,0.1-0.3c0-0.3,0.1-0.7,0.1-1c0.8,0.5,1.5,0.9,2.3,1.4c0,0.1,0,0.1,0,0.2
					c0,0.2,0,0.4,0,0.7C599.2,107.7,598.4,107.4,597.6,107.1z"/>
				<path class="st79" d="M600,108c0-0.2,0-0.4,0-0.7c0-0.1,0-0.1,0-0.2c0.8,0.4,1.5,0.7,2.3,1.1c0,0.1,0,0.2,0,0.2
					c0,0.1,0,0.2,0,0.2C601.5,108.4,600.8,108.2,600,108z"/>
				<path class="st80" d="M602.3,108.7c0-0.1,0-0.2,0-0.2c0-0.1,0-0.2,0-0.2c0.6,0.2,1.2,0.4,1.8,0.6c0.7,0.2,1.5,0.4,2.2,0.5
					c0.1,0,0.2,0,0.3,0.1c0,0,0,0,0,0.1c-0.1,0-0.2,0-0.3,0c-1.3-0.1-2.6-0.3-3.9-0.6C602.4,108.7,602.4,108.7,602.3,108.7z"/>
				<path class="st81" d="M608.9,101.6c0.1,0,0.3,0.1,0.4,0.1c0.2,0,0.4,0,0.5,0c0.2,0,0.4-0.1,0.6-0.2c0,0,0,0,0.1,0
					c0.4,0.1,0.8,0.1,1.2,0.2c0.3,0.1,0.7,0.1,1,0.2c0,0.1,0.1,0.1,0.1,0.2c-0.1,0-0.1,0.1-0.2,0.1l-0.1-0.1c-0.2,0-0.3,0.1-0.5,0.1
					c0.1,0.1,0.1,0.1,0.2,0.2c0.3,0.2,0.3,0.3,0,0.5c0,0.1,0,0.2,0.1,0.3c-0.1-0.1-0.2-0.2-0.3-0.3c0,0,0,0-0.1,0
					c0,0.1,0,0.1,0.1,0.2s0.2,0.3,0.2,0.4c-0.1,0.2-0.2,0.4-0.4,0.5s-0.2,0.2-0.1,0.3c0,0.1,0,0.2,0.1,0.3c-0.2-0.1-0.3-0.1-0.4-0.2
					c-0.1-0.1-0.2-0.3-0.3-0.4c0,0-0.1,0-0.2,0.1c-0.1,0.2-0.2,0.3-0.3,0.5c0,0,0,0.1-0.1,0.1c0-0.2-0.1-0.3-0.1-0.4
					c-0.1-0.3-0.2-0.6-0.6-0.7c-0.1,0-0.2-0.1-0.4-0.2c-0.1,0.3,0.2,0.3,0.4,0.4c-0.2,0.2-0.4,0.3-0.6,0.5c-0.1-0.3-0.2-0.5-0.2-0.7
					c0-0.1-0.1-0.1-0.1-0.2l0,0l0,0c-0.1,0.3,0.1,0.6,0.2,0.8c0,0.1,0.2,0.1,0.4,0.2c-0.1,0.2-0.2,0.4-0.4,0.6
					c-0.1,0.2-0.2,0.3-0.1,0.5c0,0.1,0,0.1,0,0.2l0,0c-0.1,0.1-0.2,0.2-0.3,0.4c-0.1,0.2-0.2,0.4-0.3,0.5s-0.3,0.1-0.4-0.1
					c-0.1-0.4-0.3-0.8-0.2-1.2c0-0.1,0-0.2-0.1-0.3l-0.1-0.1c0-0.1,0-0.2,0-0.2c-0.1,0-0.2,0-0.4,0c-0.5,0-0.7-0.3-0.5-0.7
					c0.1-0.2,0.2-0.4,0.3-0.5c0.2-0.4,0.5-0.4,0.9-0.4h0.1c0.2,0.3,0.5,0.1,0.8,0.2c0.1,0,0.2-0.1,0.3-0.1c0,0,0,0,0-0.1
					c-0.1,0-0.2,0-0.2,0c0-0.1,0-0.1-0.1-0.3c-0.1,0.1-0.1,0.2-0.2,0.2c0-0.1-0.1-0.2-0.1-0.2l-0.1-0.1l0,0l0.1,0.1c0,0,0,0.1,0,0.2
					c-0.2-0.3-0.2-0.3-0.5-0.1c-0.1,0-0.1,0.1-0.2,0.1c-0.1,0-0.1,0-0.2,0c0-0.1,0.1-0.2,0.1-0.2c0.3,0,0.3-0.2,0.4-0.4
					c0-0.1,0.1-0.1,0.1-0.1v0.1h0.1c0.2,0,0.4,0,0.6-0.1c-0.1-0.1-0.2-0.1-0.2-0.1l0,0C608.5,101.8,608.6,101.7,608.9,101.6
					C608.8,101.6,608.9,101.6,608.9,101.6z M608.6,102.1L608.6,102.1C608.6,102,608.6,102,608.6,102.1
					C608.6,102,608.6,102,608.6,102.1C608.6,102,608.6,102.1,608.6,102.1z"/>
				<path class="st81" d="M612.8,105.5c0,0.1,0,0.2,0,0.2c0.3,0.2,0.3,0.2,0.4-0.2c0.1,0.2,0.1,0.3,0.2,0.4c0.2,0.3,0.1,0.5,0,0.8
					c0,0.1-0.1,0.1-0.1,0.1c-0.1,0-0.2,0-0.3-0.1c-0.2-0.2-0.4-0.3-0.7-0.2c-0.3,0.1-0.3,0.1-0.4-0.2c0-0.2,0-0.4,0.2-0.5
					s0.3-0.3,0.5-0.4C612.6,105.5,612.7,105.5,612.8,105.5z"/>
				<path class="st81" d="M613.6,105.5c-0.3-0.1-0.6-0.2-0.8-0.5C613.1,105.1,613.5,105.3,613.6,105.5L613.6,105.5z"/>
				<path class="st81" d="M612.1,104.7c0.1,0.1,0.1,0.3,0,0.4c0,0-0.2,0-0.3,0l-0.1-0.1l0.1-0.1C611.9,104.8,612,104.7,612.1,104.7z
					"/>
				<path class="st81" d="M608.8,105.7c0.1,0,0.1-0.1,0.2-0.1c0,0.3-0.1,0.6-0.3,0.7C608.7,106.1,608.7,105.9,608.8,105.7
					L608.8,105.7z"/>
				<path class="st81" d="M611.5,105.3c-0.1-0.2-0.2-0.3-0.3-0.5C611.4,104.8,611.6,105.1,611.5,105.3z"/>
				<path class="st81" d="M613.6,105.5C613.6,105.6,613.6,105.6,613.6,105.5C613.6,105.6,613.6,105.6,613.6,105.5L613.6,105.5z"/>
				<path class="st70" d="M607.9,102.2L607.9,102.2L607.9,102.2V102c0.2-0.1,0.4-0.2,0.6-0.3c0.1,0,0.2,0,0.3,0
					c-0.2,0.1-0.3,0.2-0.5,0.3c0,0,0,0-0.1,0h0.1c0.1,0,0.1,0.1,0.2,0.1C608.4,102.2,608.2,102.2,607.9,102.2L607.9,102.2z"/>
				<path class="st81" d="M607.9,102C607.9,102,607.9,102.1,607.9,102C607.9,102.1,607.9,102,607.9,102z"/>
				<path class="st69" d="M608.2,102.7L608.2,102.7L608.2,102.7C608.2,102.6,608.2,102.6,608.2,102.7L608.2,102.7z"/>
				<path class="st69" d="M608.3,102L608.3,102L608.3,102L608.3,102z"/>
				<path class="st69" d="M607.9,102.2L607.9,102.2L607.9,102.2z"/>
				<path class="st69" d="M608.6,102.1C608.6,102.1,608.6,102,608.6,102.1C608.6,102,608.6,102,608.6,102.1
					C608.6,102,608.6,102,608.6,102.1L608.6,102.1z"/>
				<path class="st56" d="M608.7,103.3L608.7,103.3L608.7,103.3L608.7,103.3z"/>
			</g>
			<g>
				<path class="st82" d="M236.6,29.9c0,4.3-3.5,7.8-7.8,7.8s-7.8-3.5-7.8-7.8s3.5-7.8,7.8-7.8C233.1,22.1,236.6,25.6,236.6,29.9"/>
				<path class="st83" d="M256.1,47.7c0,5.2-4.2,9.5-9.5,9.5c-5.2,0-9.5-4.2-9.5-9.5c0-5.2,4.2-9.5,9.5-9.5
					C251.8,38.2,256.1,42.5,256.1,47.7"/>
				<path class="st30" d="M252.7,29.9c0,3.4-2.7,6.1-6.1,6.1c-3.4,0-6.1-2.7-6.1-6.1s2.7-6.1,6.1-6.1S252.7,26.6,252.7,29.9"/>
				<path class="st84" d="M233.3,47.7c0,2.4-2,4.4-4.4,4.4s-4.4-2-4.4-4.4s2-4.4,4.4-4.4S233.3,45.3,233.3,47.7"/>
			</g>
			<g>
				<g>
					<g>
						<g>
							<g>
								<g>
									<g>
										<defs>
											<path id="SVGID_1_" d="M339,39.4c0-1.3-0.1-2.6-0.3-3.8h-17.3v7.1h9.9c-0.4,2.3-1.7,4.2-3.7,5.5v4.6h5.9
												C337,49.7,339,45,339,39.4L339,39.4L339,39.4z"/>
										</defs>
										<clipPath id="SVGID_2_">
											<use xlink:href="#SVGID_1_"  style="overflow:visible;"/>
										</clipPath>
										<rect id="XMLID_10_" x="311.2" y="25.5" class="st85" width="38" height="37.7"/>
									</g>
								</g>
							</g>
						</g>
					</g>
				</g>
				<g>
					<g>
						<g>
							<g>
								<g>
									<g>
										<defs>
											<path id="SVGID_3_" d="M321.4,57.4c5,0,9.1-1.6,12.2-4.4l-5.9-4.6c-1.6,1.1-3.7,1.8-6.2,1.8c-4.8,0-8.8-3.2-10.3-7.6H305
												v4.8C308,53.3,314.2,57.4,321.4,57.4L321.4,57.4L321.4,57.4z"/>
										</defs>
										<clipPath id="SVGID_4_">
											<use xlink:href="#SVGID_3_"  style="overflow:visible;"/>
										</clipPath>
										<rect id="XMLID_7_" x="294.7" y="32.3" class="st86" width="49" height="35.3"/>
									</g>
								</g>
							</g>
						</g>
					</g>
				</g>
				<g>
					<g>
						<g>
							<g>
								<g>
									<g>
										<defs>
											<path id="SVGID_5_" d="M311.1,42.5c-0.4-1.1-0.6-2.3-0.6-3.5s0.2-2.4,0.6-3.5v-4.8H305c-1.2,2.5-2,5.3-2,8.2
												s0.7,5.8,2,8.2L311.1,42.5L311.1,42.5L311.1,42.5z"/>
										</defs>
										<clipPath id="SVGID_6_">
											<use xlink:href="#SVGID_5_"  style="overflow:visible;"/>
										</clipPath>
										<rect id="XMLID_4_" x="292.8" y="20.5" class="st87" width="28.5" height="36.9"/>
									</g>
								</g>
							</g>
						</g>
					</g>
				</g>
				<g>
					<g>
						<g>
							<g>
								<g>
									<g>
										<defs>
											<path id="SVGID_7_" d="M321.4,27.9c2.7,0,5.1,0.9,7,2.7l5.3-5.3c-3.2-3-7.3-4.8-12.3-4.8c-7.2,0-13.4,4.1-16.4,10.1
												l6.1,4.8C312.5,31.2,316.6,27.9,321.4,27.9L321.4,27.9L321.4,27.9z"/>
										</defs>
										<clipPath id="SVGID_8_">
											<use xlink:href="#SVGID_7_"  style="overflow:visible;"/>
										</clipPath>
										<rect id="XMLID_1_" x="294.7" y="10.4" class="st88" width="49.1" height="35.3"/>
									</g>
								</g>
							</g>
						</g>
					</g>
				</g>
			</g>
			<path id="vk_x5F_alt_3_" class="st89" d="M403.1,50.9h2.2c0,0,0.7-0.1,1-0.4c0.3-0.3,0.3-1,0.3-1s0-2.9,1.3-3.4
				c1.3-0.4,3.1,2.8,4.9,4.1c1.4,0.9,2.4,0.7,2.4,0.7l4.9-0.1c0,0,2.6-0.2,1.3-2.2c-0.1-0.2-0.7-1.5-3.6-4.2c-3.1-2.8-2.6-2.4,1-7.3
				c2.2-3,3.1-4.8,2.9-5.6c-0.3-0.7-1.9-0.5-1.9-0.5h-5.5c0,0-0.4-0.1-0.7,0.1c-0.3,0.2-0.5,0.6-0.5,0.6s-0.9,2.3-2,4.3
				c-2.4,4.2-3.4,4.4-3.8,4.1c-0.9-0.6-0.7-2.4-0.7-3.7c0-4,0.6-5.7-1.2-6.1c-0.6-0.1-1-0.2-2.6-0.3c-2,0-3.6,0-4.6,0.5
				c-0.6,0.3-1.1,1-0.8,1c0.4,0,1.2,0.2,1.6,0.8c0.6,0.8,0.5,2.5,0.5,2.5s0.3,4.7-0.8,5.3c-0.7,0.4-1.8-0.4-3.9-4.2
				c-1.1-1.9-2-4.1-2-4.1s-0.2-0.4-0.5-0.6c-0.4-0.3-0.8-0.3-0.8-0.3h-5.2c0,0-0.8,0-1.1,0.4c-0.3,0.3,0,0.9,0,0.9s4.1,9.6,8.7,14.4
				C398.3,51.2,403.1,50.9,403.1,50.9L403.1,50.9L403.1,50.9z"/>
			<path id="facebook_3_" class="st90" d="M281.1,126.8v-16h5.4l0.8-6.2h-6.2v-4c0-1.8,0.5-3,3.1-3h3.3V92c-0.6-0.1-2.5-0.2-4.8-0.2
				c-4.8,0-8,2.9-8,8.2v4.6h-5.4v6.2h5.4v16C274.7,126.8,281.1,126.8,281.1,126.8z"/>
			<path id="twitter_3_" class="st91" d="M586.2,29c-1.2,0.5-2.4,0.9-3.7,1c1.3-0.8,2.4-2.1,2.9-3.6c-1.3,0.7-2.6,1.3-4.1,1.6
				c-1.2-1.3-2.9-2.1-4.7-2.1c-3.6,0-6.5,2.9-6.5,6.5c0,0.5,0.1,1,0.2,1.5c-5.4-0.3-10.2-2.9-13.4-6.8c-0.6,1-0.9,2.1-0.9,3.3
				c0,2.3,1.1,4.2,2.9,5.4c-1.1,0-2.1-0.3-2.9-0.8v0.1c0,3.1,2.2,5.8,5.2,6.4c-0.5,0.1-1.1,0.2-1.7,0.2c-0.4,0-0.8,0-1.2-0.1
				c0.8,2.6,3.2,4.5,6.1,4.5c-2.2,1.7-5,2.8-8.1,2.8c-0.5,0-1,0-1.6-0.1c2.9,1.8,6.3,2.9,10,2.9c12,0,18.5-9.9,18.5-18.5
				c0-0.3,0-0.6,0-0.8C584.2,31.5,585.3,30.3,586.2,29z"/>
			<path id="youtube_x5F_alt_3_" class="st30" d="M504.9,29.9c-0.4-1.9-2-3.3-3.9-3.5c-4.5-0.5-9-0.5-13.5-0.5s-9,0-13.5,0.5
				c-1.9,0.2-3.5,1.6-3.9,3.5c-0.6,2.7-0.6,5.7-0.6,8.5c0,2.8,0,5.8,0.6,8.5c0.4,1.9,2,3.3,3.9,3.5c4.5,0.5,9,0.5,13.5,0.5
				s9,0,13.5-0.5c1.9-0.2,3.5-1.6,3.9-3.5c0.6-2.7,0.6-5.7,0.6-8.5C505.5,35.6,505.5,32.6,504.9,29.9z M483.7,43.3v-10l9.5,5
				L483.7,43.3z"/>
			<g id="instagram_3_">
				
					<linearGradient id="SVGID_9_" gradientUnits="userSpaceOnUse" x1="662.6547" y1="-13.7543" x2="641.2946" y2="23.2423" gradientTransform="matrix(1 0 0 -1 0 42)">
					<stop  offset="0" style="stop-color:#52509E"/>
					<stop  offset="0.3892" style="stop-color:#BD3F60"/>
					<stop  offset="0.8634" style="stop-color:#E6283C"/>
					<stop  offset="1" style="stop-color:#F5B159"/>
				</linearGradient>
				<path class="st92" d="M652,22.1c4.9,0,5.5,0,7.5,0.1c1.8,0.1,2.8,0.4,3.4,0.6c0.9,0.3,1.5,0.7,2.1,1.4c0.6,0.6,1,1.3,1.4,2.1
					c0.3,0.7,0.6,1.6,0.6,3.4c0.1,2,0.1,2.5,0.1,7.5c0,4.9,0,5.5-0.1,7.5c-0.1,1.8-0.4,2.8-0.6,3.4c-0.3,0.9-0.7,1.5-1.4,2.1
					c-0.6,0.6-1.3,1-2.1,1.4c-0.7,0.3-1.6,0.6-3.4,0.6c-2,0.1-2.5,0.1-7.5,0.1c-4.9,0-5.5,0-7.5-0.1c-1.8-0.1-2.8-0.4-3.4-0.6
					c-0.9-0.3-1.5-0.7-2.1-1.4c-0.6-0.6-1-1.3-1.4-2.1c-0.3-0.7-0.6-1.6-0.6-3.4c-0.1-2-0.1-2.5-0.1-7.5c0-4.9,0-5.5,0.1-7.5
					c0.1-1.8,0.4-2.8,0.6-3.4c0.3-0.9,0.7-1.5,1.4-2.1c0.6-0.6,1.3-1,2.1-1.4c0.7-0.3,1.6-0.6,3.4-0.6C646.4,22.1,647,22.1,652,22.1
					 M652,18.8c-5,0-5.7,0-7.6,0.1c-2,0.1-3.3,0.4-4.5,0.9s-2.2,1.1-3.3,2.1c-1,1-1.7,2.1-2.1,3.3c-0.5,1.2-0.8,2.5-0.9,4.5
					c-0.1,2-0.1,2.6-0.1,7.6s0,5.7,0.1,7.6c0.1,2,0.4,3.3,0.9,4.5s1.1,2.2,2.1,3.3c1,1,2.1,1.7,3.3,2.1c1.2,0.5,2.5,0.8,4.5,0.9
					c2,0.1,2.6,0.1,7.6,0.1s5.7,0,7.6-0.1c2-0.1,3.3-0.4,4.5-0.9s2.2-1.1,3.3-2.1c1-1,1.7-2.1,2.1-3.3c0.5-1.2,0.8-2.5,0.9-4.5
					c0.1-2,0.1-2.6,0.1-7.6s0-5.7-0.1-7.6c-0.1-2-0.4-3.3-0.9-4.5s-1.1-2.2-2.1-3.3c-1-1-2.1-1.7-3.3-2.1c-1.2-0.5-2.5-0.8-4.5-0.9
					S657,18.8,652,18.8L652,18.8z"/>
				
					<linearGradient id="SVGID_10_" gradientUnits="userSpaceOnUse" x1="656.7412" y1="-3.512" x2="647.2396" y2="12.9452" gradientTransform="matrix(1 0 0 -1 0 42)">
					<stop  offset="0" style="stop-color:#52509E"/>
					<stop  offset="0.3892" style="stop-color:#BD3F60"/>
					<stop  offset="0.8634" style="stop-color:#E6283C"/>
					<stop  offset="1" style="stop-color:#F5B159"/>
				</linearGradient>
				<path class="st93" d="M652,27.8c-5.2,0-9.5,4.3-9.5,9.5s4.3,9.5,9.5,9.5s9.5-4.3,9.5-9.5S657.2,27.8,652,27.8z M652,43.4
					c-3.4,0-6.2-2.8-6.2-6.2s2.8-6.2,6.2-6.2s6.2,2.8,6.2,6.2C658.1,40.7,655.4,43.4,652,43.4z"/>
				
					<linearGradient id="SVGID_11_" gradientUnits="userSpaceOnUse" x1="662.9233" y1="12.6544" x2="660.7029" y2="16.5002" gradientTransform="matrix(1 0 0 -1 0 42)">
					<stop  offset="0" style="stop-color:#52509E"/>
					<stop  offset="0.3892" style="stop-color:#BD3F60"/>
					<stop  offset="0.8634" style="stop-color:#E6283C"/>
					<stop  offset="1" style="stop-color:#F5B159"/>
				</linearGradient>
				<circle class="st94" cx="661.8" cy="27.4" r="2.2"/>
			</g>
			<g>
				
					<linearGradient id="SVGID_12_" gradientUnits="userSpaceOnUse" x1="-452.5092" y1="-199.0003" x2="-421.5351" y2="-199.0003" gradientTransform="matrix(1.5174 0 0 -1.5174 817.1374 -262.763)">
					<stop  offset="0" style="stop-color:#0067D0"/>
					<stop  offset="1" style="stop-color:#008FDD"/>
				</linearGradient>
				<circle class="st95" cx="154" cy="39.2" r="23.5"/>
				
					<linearGradient id="SVGID_13_" gradientUnits="userSpaceOnUse" x1="-1846.6576" y1="356.7873" x2="-1846.2151" y2="356.7873" gradientTransform="matrix(106.2187 0 0 106.2187 196280.0625 -37867.2305)">
					<stop  offset="0" style="stop-color:#0067D0"/>
					<stop  offset="1" style="stop-color:#008FDD"/>
				</linearGradient>
				<path class="st96" d="M154,15.7c-13,0-23.5,10.5-23.5,23.5c0,0.8,0.1,1.6,0.1,2.3l0,0c1.4-0.9,2.8-1.9,4.2-3.2
					c5.4-5.4,7.9-7.9,13.1-7.9c3,0,5,0.8,7.3,2.5l0,0c1.7,1.3,3.5,3.1,5.8,5.4c6.3,6.2,14.5,6.5,15.8,6.5h0.1l0,0l0,0l0,0l0,0l0,0
					l0,0l0,0c0.5-1.8,0.7-3.8,0.7-5.7C177.5,26.2,167,15.7,154,15.7"/>
				
					<linearGradient id="SVGID_14_" gradientUnits="userSpaceOnUse" x1="-450.5066" y1="-209.7914" x2="-440.8287" y2="-190.7975" gradientTransform="matrix(1.5174 0 0 -1.5174 817.1374 -262.763)">
					<stop  offset="0" style="stop-color:#0D67CB"/>
					<stop  offset="8.200000e-03" style="stop-color:#1067CA"/>
					<stop  offset="0.4005" style="stop-color:#8F679A"/>
					<stop  offset="0.6686" style="stop-color:#DF677B"/>
					<stop  offset="0.7906" style="stop-color:#FF676F"/>
					<stop  offset="0.862" style="stop-color:#FF676A"/>
				</linearGradient>
				<path class="st97" d="M155.1,33c-3.6,0.7-6.1,3.2-10.6,7.7c-4.3,4.3-9.5,5.8-12.7,6.2c-0.6-1.7-1-3.5-1.2-5.3
					c1.4-0.8,2.8-1.9,4.2-3.2c5.4-5.4,7.9-7.9,13.1-7.9C150.8,30.4,152.9,31.2,155.1,33z"/>
				
					<linearGradient id="SVGID_15_" gradientUnits="userSpaceOnUse" x1="-441.8763" y1="-213.8797" x2="-433.0414" y2="-196.5396" gradientTransform="matrix(1.5174 0 0 -1.5174 817.1374 -262.763)">
					<stop  offset="0" style="stop-color:#166ECD"/>
					<stop  offset="0.2068" style="stop-color:#4F75BA"/>
					<stop  offset="0.2376" style="stop-color:#5B78B7"/>
					<stop  offset="0.4205" style="stop-color:#9F87A6"/>
					<stop  offset="0.5529" style="stop-color:#CA909B"/>
					<stop  offset="0.6204" style="stop-color:#DA9497"/>
					<stop  offset="0.6733" style="stop-color:#E0A099"/>
					<stop  offset="0.9042" style="stop-color:#FFCCA1"/>
					<stop  offset="0.9508" style="stop-color:#FFD3A1"/>
				</linearGradient>
				<path class="st98" d="M176.9,44.9c-2.6,10.2-11.8,17.8-22.8,17.8c-10.3,0-19-6.6-22.2-15.8c3.3-0.5,8.5-2,12.7-6.2
					c4.5-4.5,7-7,10.6-7.7c1.7,1.3,3.5,3.1,5.8,5.4C167.5,44.8,175.9,44.9,176.9,44.9z"/>
				<path class="st99" d="M170.8,40.6c-5.4-5.4-7.9-7.9-13.1-7.9c-0.9,0-1.7,0.1-2.5,0.3c1.7,1.3,3.5,3.1,5.8,5.4
					c6.4,6.4,14.8,6.5,15.8,6.5l0,0C174.8,43.9,172.7,42.6,170.8,40.6z"/>
			</g>
			<g>
				<g>
					<g>
						<path class="st100" d="M184.1,114.7c-1.6,2-2.9,3.7-4.3,5.3c-8-8.9-4.3-21.1,1.5-26.8c7.7-7.6,20-8,28.2-1
							c8.4,7.2,9.7,19.6,3.1,28.3c-6.4,8.5-17.9,10.8-27.1,5c1.5-1.6,2.9-3.1,4.7-5c0.9,2,1.6,3.5,2.9,6.4
							c2.7-7.9,5.1-14.8,7.8-22.7c-7.8,2.6-14.6,4.9-22.6,7.6C180.8,113,182.3,113.7,184.1,114.7z"/>
						<path class="st100" d="M185.6,125.3c-2,2-3.7,3.6-5.6,5.5c-1.9-2.1-3.4-3.7-5.2-5.7c1.4-1.5,3-3.2,4.9-5.2
							C181.6,121.5,183.2,123.1,185.6,125.3z"/>
					</g>
				</g>
			</g>
			<g>
				<path class="st101" d="M726.8,42.2c-1.4,3.3-2.8,6.6-4.2,9.9c-0.6,1.3-1.1,2.6-1.6,3.9c-0.1,0.2-0.1,0.3-0.4,0.3
					c-2.6,0-5.1,0-7.7,0v-0.1c0.6-1.2,1-2.4,1.5-3.6c1.5-3.8,3-7.5,4.6-11.3l0.1-0.1c0.1,0,0.1,0,0.2-0.1c0.1,0,0.1-0.1,0.1-0.2l0,0
					c0.2,0,0.4-0.2,0.6-0.3c0,0,0.1,0,0.1-0.1h0.1c0,0,0.1,0,0.1-0.1h0.1c0,0,0.1,0,0.1-0.1h0.1h0.1h0.1c0.4-0.1,0.8-0.2,1.2-0.2
					C723.9,39.9,725.4,40.9,726.8,42.2z"/>
				<path class="st102" d="M719.3,41.1c0,0.1-0.1,0.1-0.2,0.1c0-0.1,0-0.2,0.1-0.3c1.6-4.1,3.1-8.3,4.9-12.4c1.4-3.1,3-6.2,4.9-9
					c0.7-1,1.4-1.8,2.4-2.6c1.3-1,2.4-1,3.6,0.1c1.1,0.9,2,2.1,2.8,3.3c2.3,3.6,4.1,7.4,5.8,11.4c0,0.1-0.1,0.1-0.2,0.2
					c-1.2,0.8-2.3,1.7-3.5,2.5c-0.9,0.7-1.9,1.4-2.8,2c-0.8-1.6-1.5-3.2-2.2-4.8c-0.5-1.2-1.1-2.4-1.7-3.7
					c-1.7,3.8-3.3,7.5-4.9,11.3c-0.4,0.1-0.8,0-1.2-0.1c-1.5-0.2-2.9-0.3-4.4,0c-1.3,0.2-2.4,0.8-3.2,1.8l0,0
					C719.3,40.9,719.2,41,719.3,41.1z"/>
				<path class="st103" d="M719.4,40.9c0.8-1,1.9-1.6,3.2-1.8c1.5-0.3,2.9-0.2,4.4,0c0.4,0,0.8,0.1,1.2,0.1c0.1,0.1,0.1,0.1,0.2,0.1
					c0.9,0.2,1.9,0.4,2.8,0.6c0.5,0.1,0.8,0,1.2-0.2c1-0.7,2-1.4,2.9-2.1c0.5-0.4,1.1-0.7,1.6-1.2c1-0.6,1.9-1.3,2.8-2
					c1.2-0.8,2.4-1.7,3.5-2.5c0.1-0.1,0.2-0.1,0.2-0.2c0.3-0.1,0.6-0.3,0.8-0.5c2.2-1.5,4.3-3.1,6.5-4.6c0.3-0.2,0.4-0.2,0.7,0.1
					c1.1,1.1,2.1,2.2,3.2,3.3c0.1,0.1,0.1,0.1,0.1,0.2s-0.1,0.2-0.2,0.2c-2.1,1.5-4.3,2.9-6.4,4.4c-2.4,1.6-4.8,3.3-7.2,4.9
					c-3,2-5.9,4-8.9,6c-0.3,0.2-0.5,0.2-0.7,0c-1.5-1.2-3.1-2.5-4.6-3.7c-1.2-0.9-2.3-1.8-3.9-2c-0.9-0.1-1.7,0-2.4,0.5h-0.1h-0.1
					h-0.1c0,0-0.1,0-0.1,0.1h-0.1c0,0-0.1,0-0.1,0.1h-0.1c0,0-0.1,0-0.1,0.1C719.8,40.7,719.6,40.9,719.4,40.9z"/>
				<path class="st102" d="M720.6,40.3c0.7-0.5,1.5-0.6,2.4-0.5c1.5,0.2,2.7,1,3.9,2c1.5,1.2,3.1,2.5,4.6,3.7c0.2,0.2,0.5,0.2,0.7,0
					c2.9-2,5.9-4,8.9-6c2.4-1.6,4.8-3.3,7.2-4.9c2.1-1.5,4.3-2.9,6.4-4.4c0.1-0.1,0.2-0.1,0.2-0.2c0.2,0.3,0,0.4-0.2,0.6
					c-2.9,2-5.8,3.9-8.7,5.9c-0.3,0.2-0.3,0.4-0.2,0.7c2.4,6.2,4.9,12.4,7.3,18.7c0,0.1,0.1,0.2,0.1,0.4c-0.1,0-0.3,0-0.4,0
					c-2.2,0-4.5,0-6.7,0c-0.3,0-0.4-0.1-0.5-0.3c-1.7-3.9-3.4-7.9-5.2-11.8c-0.4-0.9-0.8-1.7-1.1-2.6c-0.1-0.3-0.2-0.4-0.5-0.2
					c-2.2,1.5-4.4,3-6.6,4.5c-0.3,0.2-0.5,0.2-0.8,0c-1.4-1.2-2.8-2.3-4.3-3.4c-0.1-0.1-0.2-0.2-0.4-0.2c-1.4-1.3-3-2.2-5-2.1
					C721.4,40.1,721,40.3,720.6,40.3z"/>
				<path class="st103" d="M719.3,41.1c-0.1-0.1,0-0.1,0.1-0.2C719.4,41,719.4,41,719.3,41.1z"/>
				<path class="st102" d="M720.3,40.5L720.3,40.5L720.3,40.5z"/>
				<path class="st102" d="M720,40.7C720,40.6,720,40.6,720,40.7C720,40.6,720,40.6,720,40.7z"/>
				<path class="st102" d="M720.1,40.6C720.1,40.6,720.2,40.5,720.1,40.6C720.2,40.5,720.1,40.6,720.1,40.6z"/>
				<path class="st102" d="M720.4,40.4C720.5,40.4,720.5,40.4,720.4,40.4C720.5,40.4,720.5,40.4,720.4,40.4z"/>
			</g>
			<g>
				<g>
					<path class="st104" d="M683.2,96.9c0.5,0.4,1.1,0.8,1.7,1.2c-0.3,0.7-0.6,1.5-0.8,2.2h2.4c0.1-0.4,0.3-0.8,0.4-1.2
						c1.1,0.5,2.3,0.9,3.4,1.2h9.3c1.2-0.3,2.4-0.7,3.5-1.2c0.2,0.4,0.3,0.8,0.4,1.2h2.3c-0.2-0.8-0.5-1.5-0.8-2.2
						c0.6-0.4,1.1-0.7,1.7-1.2c1,1,2,2.2,2.7,3.4h3.3c-3.2-6.6-10-11.2-17.8-11.2s-14.6,4.6-17.8,11.2h3.3
						C681.3,99.1,682.2,97.9,683.2,96.9z M705.1,95.4c-0.3,0.2-0.6,0.4-0.9,0.6c-0.4-0.7-0.8-1.4-1.3-2
						C703.6,94.4,704.4,94.9,705.1,95.4z M702.2,97.1c-1,0.5-2,0.8-3.1,1.1c-0.3-2.1-0.7-4.2-1.3-5.8
						C699.5,93.3,701,94.9,702.2,97.1z M694.8,92.1c0.1,0,0.1,0,0.2,0c0.1,0,0.2,0,0.2,0c0.5,0.9,1.2,3.1,1.7,6.5
						c-0.6,0.1-1.3,0.1-1.9,0.1c-0.6,0-1.3,0-1.9-0.1C693.6,95.2,694.2,93,694.8,92.1z M692.2,92.4c-0.6,1.6-1,3.6-1.3,5.8
						c-1-0.3-2.1-0.6-3-1.1C689.1,95,690.6,93.3,692.2,92.4z M687.2,94c-0.5,0.6-0.9,1.3-1.3,2c-0.3-0.2-0.6-0.4-0.9-0.6
						C685.6,94.9,686.4,94.4,687.2,94z"/>
					<path class="st104" d="M706.8,121.1c-0.5-0.4-1.1-0.8-1.7-1.2c0.3-0.7,0.6-1.5,0.8-2.2h-2.3c-0.1,0.4-0.3,0.8-0.4,1.2
						c-1.1-0.5-2.3-0.9-3.5-1.2h-9.3c-1.2,0.3-2.3,0.7-3.4,1.2c-0.2-0.4-0.3-0.8-0.4-1.2h-2.4c0.2,0.8,0.5,1.5,0.8,2.2
						c-0.6,0.4-1.1,0.7-1.7,1.2c-1-1-1.9-2.2-2.7-3.4h-3.3c3.2,6.6,10,11.2,17.8,11.2s14.6-4.6,17.8-11.2h-3.3
						C708.7,118.9,707.8,120.1,706.8,121.1z M684.9,122.6c0.3-0.2,0.6-0.4,0.9-0.6c0.4,0.7,0.8,1.4,1.3,2
						C686.4,123.6,685.6,123.1,684.9,122.6z M687.9,120.9c1-0.4,2-0.8,3-1.1c0.3,2.1,0.7,4.2,1.3,5.8
						C690.6,124.7,689.1,123,687.9,120.9z M695.2,125.9c-0.1,0-0.1,0-0.2,0c-0.1,0-0.2,0-0.2,0c-0.5-0.9-1.2-3.1-1.7-6.5
						c0.6-0.1,1.3-0.1,1.9-0.1c0.6,0,1.3,0,1.9,0.1C696.4,122.8,695.8,125,695.2,125.9z M697.8,125.6c0.6-1.6,1-3.7,1.3-5.8
						c1.1,0.3,2.1,0.6,3.1,1.1C701,123.1,699.5,124.7,697.8,125.6z M702.8,124c0.5-0.6,0.9-1.3,1.3-2c0.3,0.2,0.6,0.4,0.9,0.6
						C704.4,123.1,703.6,123.6,702.8,124z"/>
					<path class="st104" d="M681.1,112.9l0.8-2.8c0.2-0.7,0.4-1.5,0.5-2.5l0,0c0.2,1,0.3,1.7,0.5,2.5l0.7,2.8h2.3l2.4-7.9H686
						l-0.7,3.1c-0.2,0.9-0.3,1.8-0.5,2.7l0,0c-0.2-0.9-0.4-1.8-0.6-2.7l-0.8-3.1h-1.9l-0.8,3.2c-0.2,0.8-0.4,1.7-0.6,2.6l0,0
						c-0.1-0.9-0.3-1.8-0.5-2.6L679,105h-2.5l2.3,7.9H681.1L681.1,112.9z"/>
					<path class="st104" d="M697.9,108.2c-0.2,0.9-0.3,1.8-0.4,2.7l0,0c-0.2-0.9-0.4-1.8-0.6-2.7l-0.8-3.1h-1.9l-0.8,3.2
						c-0.2,0.8-0.4,1.7-0.6,2.6l0,0c-0.1-0.9-0.3-1.8-0.5-2.6l-0.6-3.2H689l2.3,7.9h2.3l0.8-2.8c0.2-0.7,0.4-1.5,0.5-2.5l0,0
						c0.2,1,0.3,1.7,0.5,2.5l0.7,2.8h2.3l2.4-7.9h-2.4L697.9,108.2z"/>
					<path class="st104" d="M710.4,108.2c-0.2,0.9-0.3,1.8-0.5,2.7l0,0c-0.2-0.9-0.4-1.8-0.6-2.7l-0.8-3.1h-1.9l-0.8,3.2
						c-0.2,0.8-0.4,1.7-0.6,2.6l0,0c-0.1-0.9-0.3-1.8-0.5-2.6l-0.6-3.2h-2.5l2.3,7.9h2.3l0.8-2.8c0.2-0.7,0.4-1.5,0.5-2.5l0,0
						c0.2,1,0.3,1.7,0.5,2.5l0.7,2.8h2.3l2.4-7.9H711L710.4,108.2z"/>
				</g>
			</g>
		</g>
	</g>
</g>
<g>
	<g>
		<path class="st104" d="M183.9,577.9h3.5v14.2h6.8v-14.2h3.5v14.2h2.3l-0.2,6.9h-3.3v-4h-12.7L183.9,577.9L183.9,577.9z"/>
		<path class="st104" d="M212.6,587.6h-6.8v4.6h7.9v2.8h-11.4v-17.1h11.4v2.8h-7.9v4.1h6.8V587.6z"/>
		<path class="st104" d="M229.7,577.9V595h-3.5v-14.2h-4.5l-0.3,6c-0.1,2-0.4,3.6-0.8,4.8s-1,2-1.7,2.6s-1.8,0.8-3.1,0.8h-0.9v-2.8
			l0.6-0.1c0.9-0.1,1.5-0.6,1.9-1.5s0.6-2.5,0.7-4.8l0.3-7.8L229.7,577.9L229.7,577.9z"/>
		<path class="st104" d="M243,587.6h-6.8v4.6h7.9v2.8h-11.4v-17.1h11.4v2.8h-7.9v4.1h6.8V587.6z"/>
		<path class="st104" d="M246.3,595v-17.1h6c2.1,0,3.6,0.4,4.7,1.2c1.1,0.8,1.6,2,1.6,3.5c0,0.8-0.2,1.6-0.6,2.2s-1,1.1-1.8,1.4
			c0.9,0.2,1.6,0.7,2.1,1.3s0.8,1.5,0.8,2.4c0,1.6-0.5,2.9-1.6,3.7s-2.5,1.3-4.5,1.3L246.3,595L246.3,595z M249.8,585.1h2.6
			c1.8,0,2.7-0.7,2.7-2.1c0-0.8-0.2-1.3-0.7-1.7s-1.2-0.5-2.1-0.5h-2.5V585.1z M249.8,587.6v4.6h3c0.8,0,1.5-0.2,1.9-0.6
			s0.7-0.9,0.7-1.6c0-1.6-0.8-2.4-2.4-2.4H249.8z"/>
		<path class="st104" d="M275.6,586.9c0,1.7-0.3,3.2-0.9,4.4s-1.4,2.2-2.5,2.9s-2.4,1-3.8,1s-2.7-0.3-3.8-1s-2-1.7-2.6-2.9
			s-0.9-2.7-0.9-4.4v-0.8c0-1.7,0.3-3.2,0.9-4.4s1.5-2.3,2.6-2.9s2.4-1,3.8-1s2.7,0.3,3.8,1s2,1.7,2.6,2.9s0.9,2.8,0.9,4.4v0.8
			H275.6z M272,586.1c0-1.8-0.3-3.1-1-4.1s-1.6-1.4-2.7-1.4c-1.2,0-2.1,0.5-2.7,1.4s-1,2.3-1,4v0.8c0,1.7,0.3,3.1,1,4.1
			s1.6,1.4,2.8,1.4c1.2,0,2.1-0.5,2.7-1.4s1-2.3,1-4L272,586.1L272,586.1z"/>
		<path class="st104" d="M288.4,577.9h3.5V595h-3.5v-11.3l-6.8,11.3H278v-17.1h3.5v11.4L288.4,577.9z M289.1,573.5
			c0,1-0.4,1.9-1.1,2.5s-1.7,1-2.9,1s-2.2-0.3-2.9-0.9c-0.7-0.6-1.1-1.5-1.1-2.5h2.4c0,0.5,0.1,0.9,0.4,1.1s0.7,0.4,1.2,0.4
			s0.9-0.1,1.2-0.4s0.4-0.7,0.4-1.1L289.1,573.5L289.1,573.5z"/>
		<path class="st104" d="M204.2,609.6H199v14.2h-3.5v-14.2h-5.2v-2.8h13.9V609.6z"/>
		<path class="st104" d="M209.7,617.8v6h-3.5v-17.1h6.7c1.3,0,2.4,0.2,3.4,0.7s1.7,1.1,2.2,2s0.8,1.8,0.8,2.9c0,1.7-0.6,3-1.7,4
			s-2.7,1.4-4.8,1.4L209.7,617.8L209.7,617.8z M209.7,614.9h3.1c0.9,0,1.6-0.2,2.1-0.7s0.7-1.1,0.7-1.9c0-0.8-0.2-1.5-0.7-2
			s-1.2-0.8-2-0.8h-3.2L209.7,614.9L209.7,614.9z"/>
		<path class="st104" d="M229.3,620.3h-6.2l-1.2,3.5h-3.7l6.4-17.1h3.3l6.4,17.1h-3.7L229.3,620.3z M224.1,617.4h4.3l-2.1-6.4
			L224.1,617.4z"/>
		<path class="st104" d="M245.8,608.3h0.2c1.3,0,2.5,0.3,3.6,0.9s1.9,1.4,2.5,2.5s0.9,2.3,0.9,3.7c0,2-0.7,3.7-2,5s-3.1,1.9-5.3,1.9
			v2.2h-3.4v-2.2h-0.2c-1.4,0-2.6-0.3-3.7-0.9s-1.9-1.4-2.5-2.5s-0.9-2.3-0.9-3.6c0-1.4,0.3-2.6,0.9-3.7s1.4-1.9,2.5-2.5
			s2.3-0.9,3.6-0.9h0.3V606h3.4L245.8,608.3L245.8,608.3z M242.2,611.2c-1.2,0-2.1,0.4-2.7,1.1s-1,1.8-1,3.1s0.3,2.2,1,2.9
			s1.6,1.1,2.8,1.1h0.2v-8.2L242.2,611.2L242.2,611.2z M245.8,611.2v8.2h0.2c1.1,0,2.1-0.4,2.7-1.1s1-1.7,1-3s-0.3-2.3-1-3.1
			S247.1,611.1,245.8,611.2L245.8,611.2L245.8,611.2z"/>
		<path class="st104" d="M265.6,606.7h3.5v17.1h-3.5v-11.3l-6.8,11.3h-3.5v-17.1h3.5v11.4L265.6,606.7z"/>
		<path class="st104" d="M277.8,616.8h-2v7h-3.5v-17.1h3.5v6.8h1.6l4.2-6.8h4.3l-5.3,8.1l5.8,9h-4.2L277.8,616.8z"/>
	</g>
	<g>
		<path class="st104" d="M608.4,596.5h-3.5v-7.3H598v7.3h-3.5v-17.1h3.5v6.9h6.9v-6.9h3.5V596.5z"/>
		<path class="st104" d="M621.7,589.1H615v4.6h7.9v2.8h-11.4v-17.1h11.4v2.8H615v4.1h6.8L621.7,589.1L621.7,589.1z"/>
		<path class="st104" d="M624.8,579.4h3.5v14.2h6.8v-14.2h3.5v14.2h2.3l-0.2,6.9h-3.3v-4.1h-12.7v-17L624.8,579.4L624.8,579.4z"/>
		<path class="st104" d="M653.5,589.1h-6.8v4.6h7.9v2.8h-11.4v-17.1h11.4v2.8h-7.9v4.1h6.8V589.1z"/>
		<path class="st104" d="M670.6,579.4v17.1H667v-14.2h-4.5l-0.3,6c-0.1,2-0.4,3.6-0.8,4.8s-1,2-1.7,2.6s-1.8,0.8-3.1,0.8h-0.9v-2.8
			l0.6-0.1c0.9-0.1,1.5-0.6,1.9-1.5s0.6-2.5,0.7-4.8l0.3-7.8L670.6,579.4L670.6,579.4z"/>
		<path class="st104" d="M683.9,589.1h-6.8v4.6h7.9v2.8h-11.4v-17.1H685v2.8h-7.9v4.1h6.8L683.9,589.1L683.9,589.1z"/>
		<path class="st104" d="M687.1,596.5v-17.1h6c2.1,0,3.6,0.4,4.7,1.2s1.6,2,1.6,3.5c0,0.8-0.2,1.6-0.6,2.2s-1,1.1-1.8,1.4
			c0.9,0.2,1.6,0.7,2.1,1.3s0.8,1.5,0.8,2.4c0,1.6-0.5,2.9-1.6,3.7s-2.5,1.3-4.5,1.3L687.1,596.5L687.1,596.5z M690.7,586.6h2.6
			c1.8,0,2.7-0.7,2.7-2.1c0-0.8-0.2-1.3-0.7-1.7s-1.2-0.5-2.1-0.5h-2.5V586.6z M690.7,589.1v4.6h3c0.8,0,1.5-0.2,1.9-0.6
			s0.7-0.9,0.7-1.6c0-1.6-0.8-2.4-2.4-2.4H690.7z"/>
		<path class="st104" d="M716.5,588.4c0,1.7-0.3,3.2-0.9,4.4s-1.4,2.2-2.5,2.9s-2.4,1-3.8,1c-1.4,0-2.7-0.3-3.8-1s-2-1.7-2.6-2.9
			s-0.9-2.7-0.9-4.4v-0.8c0-1.7,0.3-3.2,0.9-4.4s1.5-2.3,2.6-2.9s2.4-1,3.8-1s2.7,0.3,3.8,1s2,1.7,2.6,2.9s0.9,2.8,0.9,4.4
			L716.5,588.4L716.5,588.4z M712.9,587.6c0-1.8-0.3-3.1-1-4.1s-1.6-1.4-2.7-1.4c-1.2,0-2.1,0.5-2.7,1.4s-1,2.3-1,4v0.8
			c0,1.7,0.3,3.1,1,4.1s1.6,1.4,2.8,1.4s2.1-0.5,2.7-1.4s1-2.3,1-4L712.9,587.6L712.9,587.6z"/>
		<path class="st104" d="M729.3,579.4h3.5v17.1h-3.5v-11.3l-6.8,11.3H719v-17.1h3.5v11.4L729.3,579.4z M729.9,575
			c0,1-0.4,1.9-1.1,2.5c-0.7,0.6-1.7,1-2.9,1s-2.2-0.3-2.9-0.9c-0.7-0.6-1.1-1.5-1.1-2.5h2.4c0,0.5,0.1,0.9,0.4,1.1s0.7,0.4,1.2,0.4
			s0.9-0.1,1.2-0.4s0.4-0.7,0.4-1.1L729.9,575L729.9,575z"/>
		<path class="st104" d="M629.8,611.1h-5.2v14.2h-3.5v-14.2h-5.2v-2.8h13.9V611.1z"/>
		<path class="st104" d="M635.3,619.3v6h-3.5v-17.1h6.7c1.3,0,2.4,0.2,3.4,0.7s1.7,1.1,2.2,2s0.8,1.8,0.8,2.9c0,1.7-0.6,3-1.7,4
			s-2.7,1.4-4.8,1.4L635.3,619.3L635.3,619.3z M635.3,616.4h3.1c0.9,0,1.6-0.2,2.1-0.7s0.7-1.1,0.7-1.9c0-0.8-0.2-1.5-0.7-2
			s-1.2-0.8-2-0.8h-3.2L635.3,616.4L635.3,616.4z"/>
		<path class="st104" d="M655,621.8h-6.2l-1.2,3.5h-3.7l6.4-17.1h3.3l6.4,17.1h-3.7L655,621.8z M649.7,618.9h4.3l-2.1-6.4
			L649.7,618.9z"/>
		<path class="st104" d="M671.5,609.8h0.2c1.3,0,2.5,0.3,3.6,0.9s1.9,1.4,2.5,2.5s0.9,2.3,0.9,3.7c0,2-0.7,3.7-2,5s-3.1,1.9-5.3,1.9
			v2.2H668v-2.2h-0.2c-1.4,0-2.6-0.3-3.7-0.9s-1.9-1.4-2.5-2.5s-0.9-2.3-0.9-3.6c0-1.4,0.3-2.6,0.9-3.7s1.4-1.9,2.5-2.5
			s2.3-0.9,3.6-0.9h0.3v-2.2h3.4v2.3H671.5z M667.9,612.7c-1.2,0-2.1,0.4-2.7,1.1s-1,1.8-1,3.1s0.3,2.2,1,2.9s1.6,1.1,2.8,1.1h0.2
			v-8.2L667.9,612.7L667.9,612.7z M671.5,612.7v8.2h0.2c1.1,0,2.1-0.4,2.7-1.1s1-1.7,1-3s-0.3-2.3-1-3.1s-1.6-1.1-2.8-1.1
			L671.5,612.7L671.5,612.7z"/>
		<path class="st104" d="M691.3,608.2h3.5v17.1h-3.5V614l-6.8,11.3H681v-17.1h3.5v11.4L691.3,608.2z"/>
		<path class="st104" d="M703.4,618.3h-2v7h-3.5v-17.1h3.5v6.8h1.6l4.2-6.8h4.3l-5.3,8.1l5.8,9h-4.2L703.4,618.3z"/>
	</g>
	<g>
		<path class="st104" d="M425.4,580.8h-7.6v3.3h2.7c2,0,3.6,0.5,4.8,1.5s1.8,2.3,1.8,3.9c0,1.7-0.6,3-1.8,4s-2.7,1.5-4.7,1.5h-6.4
			v-17.1h11.2V580.8z M417.7,586.9v5.3h2.8c0.9,0,1.6-0.2,2.2-0.7s0.8-1.2,0.8-2s-0.3-1.4-0.8-1.8s-1.2-0.7-2.1-0.7L417.7,586.9
			L417.7,586.9z"/>
		<path class="st104" d="M443.3,586.9c0,1.7-0.3,3.2-0.9,4.4s-1.4,2.2-2.5,2.9s-2.4,1-3.8,1s-2.7-0.3-3.8-1s-2-1.7-2.6-2.9
			s-0.9-2.7-0.9-4.4v-0.8c0-1.7,0.3-3.2,0.9-4.4s1.5-2.3,2.6-2.9s2.4-1,3.8-1s2.7,0.3,3.8,1s2,1.7,2.6,2.9s0.9,2.8,0.9,4.4v0.8
			H443.3z M439.7,586.1c0-1.8-0.3-3.1-1-4.1s-1.6-1.4-2.7-1.4c-1.2,0-2.1,0.5-2.7,1.4s-1,2.3-1,4v0.8c0,1.7,0.3,3.1,1,4.1
			s1.6,1.4,2.8,1.4c1.2,0,2.1-0.5,2.7-1.4s1-2.3,1-4L439.7,586.1L439.7,586.1z"/>
		<path class="st104" d="M458,580.8h-5.2V595h-3.5v-14.2h-5.2V578H458V580.8z"/>
		<path class="st104" d="M463.6,584.1h2.7c2,0,3.6,0.5,4.8,1.5s1.8,2.3,1.8,3.9c0,1.7-0.6,3-1.8,4s-2.7,1.5-4.7,1.5H460v-17.1h3.5
			v6.2L463.6,584.1L463.6,584.1z M463.6,586.9v5.3h2.8c0.9,0,1.6-0.2,2.2-0.7s0.8-1.2,0.8-2s-0.3-1.4-0.8-1.8s-1.2-0.7-2.1-0.7
			L463.6,586.9L463.6,586.9z M477.8,595h-3.5v-17.1h3.5V595z"/>
	</g>
</g>
<g>
	<g>
		<g>
			<g>
				<path class="st105" d="M433.8,223.6c2.3,0,3.8,1.3,4.4,3c0.7,1.8,0.5,3.9-1.3,5.2c2.1,0.9,2.8,2.8,2.8,4.5
					c0,2.7-1.8,5.5-5.3,5.5h-8.3v-18.3H433.8z M428.8,230.9h4.9c2.9,0,2.9-4.8,0.1-4.8h-5V230.9z M428.8,239.3h5.6
					c1.8,0,2.7-1.5,2.7-2.9s-0.9-2.9-2.7-2.9h-5.6V239.3z"/>
				<path class="st105" d="M444.9,226.3c1.6-1.7,3.9-2.7,6.4-2.7c2.5,0,4.8,1,6.4,2.7c1.6,1.7,2.6,3.9,2.6,6.4c0,2.5-1,4.8-2.6,6.4
					c-1.7,1.7-3.9,2.7-6.4,2.7c-2.5,0-4.8-1-6.4-2.7c-1.6-1.7-2.6-3.9-2.6-6.4C442.3,230.2,443.3,228,444.9,226.3z M456,228.1
					c-1.2-1.2-2.8-1.9-4.6-1.9c-1.8,0-3.4,0.7-4.6,1.9c-1.2,1.2-1.9,2.8-1.9,4.6c0,1.8,0.7,3.4,1.9,4.6c1.2,1.2,2.8,1.9,4.6,1.9
					c1.8,0,3.4-0.7,4.6-1.9c1.2-1.2,1.9-2.8,1.9-4.6C457.8,230.9,457.1,229.3,456,228.1z"/>
				<path class="st105" d="M468.4,241.9v-15.8h-5.5v-2.5h13.7v2.5H471v15.8H468.4z"/>
				<g>
					<path class="st106" d="M428.9,266.3h-2.6V248h10.9v2.6h-8.3v5.5h7.3v2.5h-7.3V266.3z"/>
					<path class="st106" d="M450.5,261.7h-7.4l-1.8,4.6h-2.8l7.3-18.3h1.9l7.3,18.3h-2.8L450.5,261.7z M444.1,259.2h5.5l-2.7-7.2
						L444.1,259.2z"/>
					<path class="st106" d="M476.2,266.3h-2.8l-1.9-1.7c-4,2.6-9.3,2.1-12.1-1c-1.6-1.7-2.7-3.9-2.7-6.4s1-4.8,2.7-6.4
						c1.6-1.7,3.9-2.7,6.4-2.7c2.5,0,4.8,1,6.4,2.7c1.6,1.7,2.7,3.9,2.7,6.4c0,2.1-0.7,4-1.9,5.6l3.1,3V266.3z M465,258.4h3.1l3,2.8
						c0.8-1.1,1.2-2.5,1.2-4c0-1.8-0.8-3.4-1.9-4.6c-1.2-1.2-2.8-1.9-4.6-1.9c-1.8,0-3.4,0.7-4.6,1.9c-1.1,1.2-1.9,2.8-1.9,4.6
						c0,1.8,0.8,3.5,1.9,4.6c2.2,2.2,5.5,2.6,8.2,1l-4.5-4V258.4z M465,258.8v-0.4V258.8z"/>
					<path class="st106" d="M483,266.3v-15.8h-5.5V248h13.7v2.5h-5.5v15.8H483z"/>
					<path class="st106" d="M496,250.7c1.6-1.7,3.9-2.7,6.4-2.7c2.5,0,4.8,1,6.4,2.7c1.6,1.7,2.6,3.9,2.6,6.4c0,2.5-1,4.8-2.6,6.4
						c-1.7,1.7-3.9,2.7-6.4,2.7c-2.5,0-4.8-1-6.4-2.7c-1.6-1.7-2.6-3.9-2.6-6.4C493.4,254.7,494.4,252.4,496,250.7z M507,252.6
						c-1.2-1.2-2.8-1.9-4.6-1.9c-1.8,0-3.4,0.7-4.6,1.9c-1.2,1.2-1.9,2.8-1.9,4.6c0,1.8,0.7,3.4,1.9,4.6c1.2,1.2,2.8,1.9,4.6,1.9
						c1.8,0,3.4-0.7,4.6-1.9c1.2-1.2,1.9-2.8,1.9-4.6C508.9,255.3,508.2,253.7,507,252.6z"/>
					<path class="st106" d="M518.1,257h3.1c2.2,0,3.3-1.6,3.3-3.2c0-1.6-1.1-3.2-3.3-3.2h-4.1v15.6h-2.6V248h6.7c4,0,6,2.9,6,5.8
						c0,2.6-1.6,5-4.7,5.6l5.8,6.9h-3.4l-6.7-8V257z"/>
				</g>
			</g>
		</g>
	</g>
	<g>
		<g>
			<path class="st107" d="M404.7,250.8c-4.8,5.8-10,12.1-13.4,15.6c-0.1,0-0.1-0.1-0.2-0.2c-1.7-1.5-3.8-3.5-6-5.8l-3.6,3.6
				c4.5,4.7,8.7,8.2,9.6,8.9c0.1,0.1,0.2,0.1,0.2,0.1s11.7-12.8,17.1-18.6L404.7,250.8z"/>
			<path class="st105" d="M391.1,226.4l-14.9,5.9c0,0,1.3,9.9,4.6,16.5c2.9,5.8,9.6,12.4,10.3,12.8c0.7-0.4,7.7-7.4,10.6-13.2
				c3.3-6.6,4.3-16.1,4.3-16.1L391.1,226.4z"/>
			<path class="st105" d="M415,226.2l-23.9-10.1l-23.9,10.1c0,0-1.7,13.9,5.8,26.8c1.5,2.5,3.3,5,5.3,7.3l3.6-3.6
				c-1.7-2-3.3-4.2-4.5-6.3c-4.2-7.3-5.1-15.5-5.2-20.1c2.1-1.2,17.2-7.3,19-8c1.7,0.7,16.9,6.8,19,8c-0.1,3.7-0.7,9.7-3.1,15.7
				l3.9,3.9C416.5,238,415,226.2,415,226.2z"/>
			<path class="st108" d="M408.4,254.5l-3.7-3.7c-4.8,5.8-10,12.1-13.4,15.6c-0.1,0,0,6.7,0,6.7S402.9,260.3,408.4,254.5z"/>
			<path class="st109" d="M407,246.1l3.9,3.9c5.6-11.9,4.2-23.8,4.2-23.8l-23.9-10.1v6.3c1.7,0.7,16.9,6.8,19,8
				C410,234.1,409.4,240.1,407,246.1z"/>
			<path class="st109" d="M406,232.2c0,0-1,9.5-4.3,16.1c-2.9,5.8-9.9,12.8-10.6,13.2v-35.2L406,232.2z"/>
		</g>
	</g>
</g>
</svg>
