<?xml version="1.0" encoding="utf-8"?>
<!-- Generator: Adobe Illustrator 23.0.1, SVG Export Plug-In . SVG Version: 6.00 Build 0)  -->
<svg version="1.1" id="Слой_4" xmlns="http://www.w3.org/2000/svg" xmlns:xlink="http://www.w3.org/1999/xlink" x="0px" y="0px"
	 viewBox="0 0 892 629" style="enable-background:new 0 0 892 629;" xml:space="preserve">
<style type="text/css">
	.st0{fill:#EFEFEF;}
	.st1{fill:#333333;}
	.st2{fill:#9E9A9B;}
	.st3{fill:#D2D2D2;}
	.st4{fill:#7E7E7E;}
	.st5{fill:#00A861;}
	.st6{fill:#57B36E;}
	.st7{opacity:0.3;fill:#57B36E;enable-background:new    ;}
	.st8{fill:#FFFFFF;}
	.st9{fill:#E7F3F7;}
	.st10{fill:none;stroke:#FFFFFF;stroke-width:3;stroke-miterlimit:10;stroke-dasharray:5.0404,5.0404;}
	.st11{fill:#FDCC9B;}
	.st12{fill:#FCBC85;}
	.st13{fill:#3B2519;}
	.st14{fill:#86461B;}
	.st15{fill:#F7945E;}
	.st16{fill:#D58E64;}
	.st17{fill:#BF805A;}
	.st18{fill:#744A25;}
	.st19{fill:#573514;}
	.st20{clip-path:url(#SVGID_2_);fill:#57B36E;}
	.st21{clip-path:url(#SVGID_4_);fill:#00A861;}
	.st22{fill:#E1EBF0;}
	.st23{fill:#B3D1D7;}
	.st24{fill:#6EA3A8;}
	.st25{fill:#4F5A7C;}
	.st26{fill:#FF4A4A;}
	.st27{fill:#FF6666;}
	.st28{opacity:0.3;fill:#FF6666;enable-background:new    ;}
	.st29{fill:none;stroke:#FFFFFF;stroke-width:3;stroke-miterlimit:10;}
	.st30{fill:none;stroke:#FFFFFF;stroke-width:3;stroke-miterlimit:10;stroke-dasharray:5.0409,5.0409;}
	.st31{fill:#5C95E9;}
	.st32{fill:#20A5D3;}
	.st33{fill:#CCCCCC;}
	.st34{fill:#E6E6E6;}
	.st35{fill:#42444C;}
	.st36{fill:#E53333;}
	.st37{fill:#DBF4FB;}
	.st38{fill:#C6EDFC;}
	.st39{fill:#FCCC1B;}
	.st40{fill:#DDB214;}
	.st41{fill:#2B271C;}
	.st42{fill:#EFC83F;}
	.st43{fill:#242120;}
	.st44{fill:#01B1D9;}
	.st45{fill:#273239;}
	.st46{fill:#3CB77B;}
	.st47{fill:#58B681;}
	.st48{fill:#E54C2C;}
	.st49{fill:#E54B2B;}
	.st50{fill:#34AD71;}
	.st51{fill:#7BC298;}
	.st52{fill:#3EB77D;}
	.st53{fill:#61B886;}
	.st54{fill:#3CB77C;}
	.st55{fill:#3DB77C;}
	.st56{fill:#E65132;}
	.st57{fill:#6FBD8F;}
	.st58{fill:#E1492B;}
	.st59{fill:#74C093;}
	.st60{fill:#6ABB8C;}
	.st61{fill:#64B988;}
	.st62{fill:#4AB27A;}
	.st63{fill:#DC442C;}
	.st64{fill:#6EBD8F;}
	.st65{fill:#3EAF75;}
	.st66{fill:#79C297;}
	.st67{fill:#E44E2C;}
	.st68{fill:#E65B34;}
	.st69{fill:#E76941;}
	.st70{fill:#E8754E;}
	.st71{fill:#EA8460;}
	.st72{fill:#FCFDFD;}
	.st73{fill:#00AAFF;}
	.st74{fill:#97CF26;}
	.st75{fill:#FF6163;}
	.st76{fill:#A169F7;}
	.st77{clip-path:url(#SVGID_6_);fill:#3E82F1;}
	.st78{clip-path:url(#SVGID_8_);fill:#32A753;}
	.st79{clip-path:url(#SVGID_10_);fill:#F9BB00;}
	.st80{clip-path:url(#SVGID_12_);fill:#E74133;}
	.st81{fill-rule:evenodd;clip-rule:evenodd;fill:#455C80;}
	.st82{fill:#414F90;}
	.st83{fill:#4BA1D6;}
	.st84{fill:url(#SVGID_13_);}
	.st85{fill:url(#SVGID_14_);}
	.st86{fill:url(#SVGID_15_);}
	.st87{fill:url(#SVGID_16_);}
	.st88{fill:url(#SVGID_17_);}
	.st89{fill:url(#SVGID_18_);}
	.st90{fill:url(#SVGID_19_);}
	.st91{fill:#01DBFF;}
	.st92{fill:#0A1522;}
	.st93{fill:#528213;}
	.st94{fill:#7CC422;}
	.st95{fill:#B3D752;}
	.st96{fill:#66BAFF;}
	.st97{fill:none;stroke:#66BAFF;stroke-width:2;stroke-miterlimit:10;stroke-dasharray:2.9431,2.9431;}
	.st98{fill:#3D88C8;}
	.st99{fill:#6F6F6E;}
	.st100{fill:#4EB594;}
	.st101{fill:#029E81;}
	.st102{fill:#057BAA;}
	.st103{fill:none;stroke:#66BAFF;stroke-miterlimit:10;stroke-dasharray:3.0342,3.0342;}
</style>
<g>
	<g>
		<g id="_x34__2_">
			<g>
				<g>
					<g>
						<g>
							<rect x="99.4" y="423.2" class="st0" width="221.4" height="137.3"/>
							<path class="st1" d="M318.2,416.4h-218c-3.6,0-6.6,3-6.6,6.6v144.9c0,3.6,3,6.6,6.6,6.6h218c3.6,0,6.6-3,6.6-6.6V423
								C324.8,419.4,321.8,416.4,318.2,416.4z M317,556.7H101.9V426.2H317V556.7z"/>
							<path class="st2" d="M56.5,567.8v7.6c0,2.6,2.1,4.6,4.6,4.6h294.3c2.6,0,4.6-2.1,4.6-4.6v-7.6H56.5z"/>
							<rect x="56.9" y="567.8" class="st3" width="302.9" height="8.8"/>
							<path class="st4" d="M184.5,567.8c0.7,2.2,2.8,3.7,5.2,3.7H228c2.4,0,4.4-1.6,5.2-3.7H184.5z"/>
						</g>
					</g>
				</g>
			</g>
			<g>
				<g>
					<rect x="108.7" y="432.5" class="st5" width="99.3" height="36.1"/>
					<rect x="108.7" y="432.5" class="st6" width="49.8" height="36.1"/>
				</g>
				<g>
					<g>
						<rect x="214.4" y="432.5" class="st4" width="94.2" height="4.7"/>
						<rect x="214.4" y="440.5" class="st4" width="94.2" height="4.7"/>
						<rect x="108.5" y="478.8" class="st4" width="94.2" height="4.7"/>
						<rect x="108.5" y="486.7" class="st4" width="94.2" height="4.7"/>
						<rect x="214.4" y="478.8" class="st4" width="94.2" height="4.7"/>
						<rect x="214.4" y="486.7" class="st4" width="94.2" height="4.7"/>
						<rect x="214.4" y="448.4" class="st4" width="94.2" height="4.7"/>
						<rect x="214.4" y="456.3" class="st4" width="94.2" height="4.7"/>
						<rect x="214.4" y="464" class="st4" width="94.2" height="4.7"/>
					</g>
					<rect x="108.7" y="501.4" class="st4" width="199.9" height="4.7"/>
					<rect x="108.7" y="509.3" class="st4" width="199.9" height="4.7"/>
					<rect x="108.7" y="517.2" class="st4" width="199.9" height="4.7"/>
					<rect x="108.7" y="524.9" class="st4" width="199.9" height="4.7"/>
					<rect x="108.7" y="532.6" class="st4" width="199.9" height="4.7"/>
					<rect x="108.7" y="540.5" class="st4" width="199.9" height="4.7"/>
					<rect x="108.7" y="548.2" class="st4" width="199.9" height="4.7"/>
				</g>
				<rect x="101.4" y="426.2" class="st7" width="215.5" height="130.5"/>
				<g>
					<path class="st8" d="M132,454.7c-0.2-0.1-0.3-0.2-0.4-0.3c-0.1-0.1-0.2-0.3-0.3-0.4c-0.1-0.2-0.1-0.3-0.1-0.5v-1h-2.1H129h-0.1
						h-0.1c-0.3,0-0.6-0.2-0.8-0.4c-0.2-0.2-0.3-0.5-0.3-0.8c0-0.2,0-0.4,0.1-0.6l1.7-4.6c0.1-0.2,0.3-0.4,0.5-0.6
						c0.2-0.1,0.5-0.2,0.7-0.2c0.4,0,0.7,0.1,0.9,0.4c0.1,0.1,0.2,0.2,0.3,0.4c0.1,0.1,0.1,0.3,0.1,0.5s0,0.3-0.1,0.5l-1.3,2.9h0.5
						c0-0.2,0.1-0.3,0.1-0.5c0.1-0.1,0.2-0.3,0.3-0.4c0.3-0.2,0.5-0.3,0.9-0.3c0.2,0,0.3,0,0.5,0.1s0.3,0.1,0.4,0.3
						c0.1,0.1,0.2,0.2,0.3,0.4c0.1,0.1,0.1,0.3,0.1,0.5c0.3,0,0.6,0.2,0.8,0.4c0.1,0.1,0.2,0.3,0.2,0.4c0.1,0.1,0.1,0.3,0.1,0.5
						s0,0.3-0.1,0.5c-0.1,0.1-0.1,0.3-0.2,0.4c-0.2,0.3-0.5,0.4-0.8,0.4v1c0,0.2,0,0.3-0.1,0.5s-0.2,0.3-0.3,0.4s-0.3,0.2-0.4,0.3
						c-0.2,0.1-0.3,0.1-0.5,0.1C132.3,454.8,132.2,454.7,132,454.7z"/>
					<path class="st8" d="M137.9,454.6c-0.4-0.2-0.8-0.4-1.2-0.8c-0.4-0.3-0.6-0.8-0.8-1.2c-0.2-0.5-0.3-1-0.3-1.6v-1.9
						c0-0.6,0.1-1.1,0.3-1.6s0.5-0.9,0.8-1.2c0.3-0.3,0.7-0.6,1.2-0.8c0.4-0.2,0.9-0.3,1.4-0.3s0.9,0.1,1.4,0.3
						c0.4,0.2,0.8,0.4,1.2,0.8c0.3,0.3,0.6,0.8,0.8,1.2c0.2,0.5,0.3,1,0.3,1.6h-2.6c0-0.5-0.1-0.8-0.4-1c-0.2-0.1-0.4-0.2-0.7-0.2
						s-0.5,0.1-0.7,0.2c-0.3,0.2-0.4,0.6-0.4,1v2c0,0.5,0.1,0.8,0.4,1c0.2,0.1,0.4,0.2,0.7,0.2s0.5-0.1,0.7-0.2
						c0.3-0.2,0.4-0.5,0.4-1v-1.9h2.6v1.9c0,0.6-0.1,1.1-0.3,1.6s-0.5,0.9-0.8,1.2c-0.3,0.3-0.7,0.6-1.2,0.8
						c-0.4,0.2-0.9,0.3-1.4,0.3C138.8,454.8,138.4,454.7,137.9,454.6z"/>
					<path class="st8" d="M146.2,454.6c-0.4-0.2-0.8-0.4-1.2-0.8c-0.4-0.3-0.6-0.8-0.8-1.2c-0.2-0.5-0.3-1-0.3-1.6v-1.9
						c0-0.6,0.1-1.1,0.3-1.6s0.5-0.9,0.8-1.2c0.3-0.3,0.7-0.6,1.2-0.8c0.4-0.2,0.9-0.3,1.4-0.3s0.9,0.1,1.4,0.3
						c0.4,0.2,0.8,0.4,1.2,0.8c0.3,0.3,0.6,0.8,0.8,1.2c0.2,0.5,0.3,1,0.3,1.6h-2.6c0-0.5-0.1-0.8-0.4-1c-0.2-0.1-0.4-0.2-0.7-0.2
						s-0.5,0.1-0.7,0.2c-0.3,0.2-0.4,0.6-0.4,1v2c0,0.5,0.1,0.8,0.4,1c0.2,0.1,0.4,0.2,0.7,0.2s0.5-0.1,0.7-0.2
						c0.3-0.2,0.4-0.5,0.4-1v-1.9h2.6v1.9c0,0.6-0.1,1.1-0.3,1.6s-0.5,0.9-0.8,1.2c-0.3,0.3-0.7,0.6-1.2,0.8
						c-0.4,0.2-0.9,0.3-1.4,0.3C147.1,454.8,146.7,454.7,146.2,454.6z"/>
					<path class="st8" d="M156.4,454.7c-0.2-0.1-0.3-0.2-0.4-0.3c-0.1-0.1-0.2-0.2-0.3-0.4c-0.1-0.1-0.1-0.3-0.1-0.5s0-0.3,0.1-0.5
						s0.2-0.3,0.3-0.4l1.3-1.3l-1.4-1.4c-0.1-0.1-0.2-0.2-0.3-0.4c-0.1-0.1-0.1-0.3-0.1-0.5s0-0.3,0.1-0.5s0.2-0.3,0.3-0.4
						s0.3-0.2,0.4-0.3c0.2-0.1,0.3-0.1,0.5-0.1s0.3,0,0.5,0.1s0.3,0.2,0.4,0.3l1.4,1.4l1.4-1.4c0.1-0.1,0.3-0.2,0.4-0.3
						c0.2-0.1,0.3-0.1,0.5-0.1s0.3,0,0.5,0.1s0.3,0.2,0.4,0.3c0.1,0.1,0.2,0.3,0.3,0.4c0.1,0.2,0.1,0.3,0.1,0.5
						c0,0.3-0.1,0.6-0.3,0.8l-1.4,1.5l1.2,1.2c0.3,0.3,0.4,0.6,0.4,0.9c0,0.2,0,0.3-0.1,0.5s-0.2,0.3-0.3,0.4s-0.3,0.2-0.4,0.3
						c-0.2,0.1-0.3,0.1-0.5,0.1c-0.4,0-0.7-0.1-0.9-0.4l-1.2-1.2l-1.2,1.2c-0.2,0.2-0.5,0.4-0.9,0.4
						C156.7,454.8,156.5,454.7,156.4,454.7z"/>
					<path class="st8" d="M167.3,454.6c-0.2-0.1-0.3-0.2-0.4-0.3c-0.1-0.1-0.2-0.3-0.3-0.4c-0.1-0.2-0.1-0.3-0.1-0.5
						c0-0.4,0.1-0.7,0.4-0.9l2.6-3l0,0l0,0l0,0l0,0l0.1-0.1l0.2-0.2c0.2-0.2,0.4-0.4,0.5-0.6c0.1-0.1,0.1-0.2,0.1-0.3
						c0-0.2-0.1-0.3-0.2-0.4c-0.1-0.1-0.2-0.1-0.4-0.1s-0.3,0-0.4,0.1c-0.1,0.1-0.2,0.2-0.3,0.3c-0.1,0.4-0.2,0.6-0.4,0.8
						c-0.2,0.2-0.5,0.3-0.8,0.3c-0.4,0-0.7-0.1-0.9-0.4c-0.1-0.1-0.2-0.2-0.2-0.4c-0.1-0.2-0.1-0.3-0.1-0.5c0-0.1,0-0.2,0-0.3
						c0-0.3,0.1-0.5,0.3-0.8s0.4-0.5,0.6-0.8c0.3-0.2,0.6-0.4,1-0.6c0.4-0.1,0.8-0.2,1.2-0.2c0.5,0,0.9,0.1,1.3,0.2
						c0.4,0.1,0.7,0.3,1,0.5c0.6,0.5,0.9,1.2,0.9,2.1c0,0.3,0,0.6-0.1,0.8c-0.1,0.3-0.1,0.5-0.3,0.7c-0.2,0.5-0.6,1-1.2,1.6l-0.9,1
						h1.3c0.2,0,0.3,0,0.5,0.1s0.3,0.1,0.4,0.3c0.1,0.1,0.2,0.3,0.3,0.4c0.1,0.2,0.1,0.3,0.1,0.5s0,0.3-0.1,0.5s-0.2,0.3-0.3,0.4
						s-0.3,0.2-0.4,0.3s-0.3,0.1-0.5,0.1h-4C167.7,454.8,167.5,454.7,167.3,454.6z"/>
					<path class="st8" d="M176.2,454.6c-0.4-0.2-0.8-0.4-1.2-0.8c-0.4-0.3-0.6-0.8-0.8-1.2c-0.2-0.5-0.3-1-0.3-1.6v-1.9
						c0-0.6,0.1-1.1,0.3-1.6s0.5-0.9,0.8-1.2c0.3-0.3,0.7-0.6,1.2-0.8c0.4-0.2,0.9-0.3,1.4-0.3s0.9,0.1,1.4,0.3
						c0.4,0.2,0.8,0.4,1.2,0.8c0.3,0.3,0.6,0.8,0.8,1.2c0.2,0.5,0.3,1,0.3,1.6h-2.6c0-0.5-0.1-0.8-0.4-1c-0.2-0.1-0.4-0.2-0.7-0.2
						s-0.5,0.1-0.7,0.2c-0.3,0.2-0.4,0.6-0.4,1v2c0,0.5,0.1,0.8,0.4,1c0.2,0.1,0.4,0.2,0.7,0.2s0.5-0.1,0.7-0.2
						c0.3-0.2,0.4-0.5,0.4-1v-1.9h2.6v1.9c0,0.6-0.1,1.1-0.3,1.6s-0.5,0.9-0.8,1.2c-0.3,0.3-0.7,0.6-1.2,0.8
						c-0.4,0.2-0.9,0.3-1.4,0.3C177.1,454.8,176.6,454.7,176.2,454.6z"/>
					<path class="st8" d="M184.5,454.6c-0.4-0.2-0.8-0.4-1.2-0.8c-0.4-0.3-0.6-0.8-0.8-1.2c-0.2-0.5-0.3-1-0.3-1.6v-1.9
						c0-0.6,0.1-1.1,0.3-1.6s0.5-0.9,0.8-1.2c0.3-0.3,0.7-0.6,1.2-0.8c0.4-0.2,0.9-0.3,1.4-0.3s0.9,0.1,1.4,0.3
						c0.4,0.2,0.8,0.4,1.2,0.8c0.3,0.3,0.6,0.8,0.8,1.2c0.2,0.5,0.3,1,0.3,1.6H187c0-0.5-0.1-0.8-0.4-1c-0.2-0.1-0.4-0.2-0.7-0.2
						s-0.5,0.1-0.7,0.2c-0.3,0.2-0.4,0.6-0.4,1v2c0,0.5,0.1,0.8,0.4,1c0.2,0.1,0.4,0.2,0.7,0.2s0.5-0.1,0.7-0.2
						c0.3-0.2,0.4-0.5,0.4-1v-1.9h2.6v1.9c0,0.6-0.1,1.1-0.3,1.6s-0.5,0.9-0.8,1.2c-0.3,0.3-0.7,0.6-1.2,0.8
						c-0.4,0.2-0.9,0.3-1.4,0.3C185.4,454.8,184.9,454.7,184.5,454.6z"/>
				</g>
				<g>
					<polygon class="st8" points="244.1,476.8 194.7,460.8 210.7,510.3 215.1,493.6 232.8,511.3 245.2,499 227.4,481.2 					"/>
					<polygon class="st9" points="245.3,499 227.5,481.2 244.2,476.8 194.5,460.7 194.5,460.7 239.1,505.3 					"/>
				</g>
			</g>
		</g>
		<g>
			<g>
				<g>
					<g>
						<circle class="st8" cx="107.2" cy="556.4" r="53.5"/>
						<g>
							<circle class="st10" cx="107.2" cy="556.4" r="69"/>
						</g>
					</g>
					<g>
						<g>
							<rect x="102.6" y="572" class="st11" width="10.7" height="12"/>
							<path class="st12" d="M102.6,573.4c0,0,4.5,2.9,10.7,2.2V572h-10.7V573.4z"/>
							<ellipse class="st12" cx="87.1" cy="553.4" rx="5.2" ry="6"/>
							<ellipse class="st12" cx="128.8" cy="553.4" rx="5.2" ry="6"/>
							<path class="st11" d="M128.8,542c0-8.8-6.4-15.2-20.8-15.2s-20.8,6.4-20.8,15.2s-1.5,32,20.8,32S128.8,550.8,128.8,542z"/>
							<g>
								<g>
									<ellipse class="st13" cx="97.8" cy="551.9" rx="2.3" ry="2.5"/>
									<circle class="st8" cx="96.8" cy="550.9" r="0.7"/>
								</g>
								<path class="st14" d="M94.2,545.8c1.1,0.5,2.8-1.8,6.7,0.2c0.7,0.4,1.1-3.2-3.1-3.2C94.2,542.9,93.6,545.5,94.2,545.8z"/>
								<g>
									<ellipse class="st13" cx="118.4" cy="551.9" rx="2.3" ry="2.5"/>
									<circle class="st8" cx="117.4" cy="550.9" r="0.7"/>
								</g>
								<path class="st14" d="M121.7,545.8c-1.1,0.5-2.8-1.8-6.7,0.2c-0.7,0.4-1.1-3.2,3.1-3.2C121.7,542.9,122.4,545.5,121.7,545.8
									z"/>
							</g>
							<path class="st12" d="M108,560.6c-2.2,0-3.6-1.7-3.6-0.9s0.6,2.3,3.6,2.3c2.9,0,3.6-1.5,3.6-2.3S110.2,560.6,108,560.6z"/>
							<path class="st12" d="M108,568c-0.8,0-1.2-0.6-1.2-0.3s0.2,0.8,1.2,0.8s1.2-0.5,1.2-0.8C109.2,567.5,108.7,568,108,568z"/>
							<path class="st15" d="M108,566c-3.5,0-5.7-1.4-5.7-1.1c0,0.4,1,1.8,5.7,1.8c4.6,0,5.7-1.4,5.7-1.8
								C113.6,564.5,111.5,566,108,566z"/>
						</g>
						<path class="st16" d="M108,576.8v13.5H81.9C81.9,584.9,95.6,576.8,108,576.8z"/>
						<path class="st16" d="M108,576.8v13.5h26C134,584.9,120.3,576.8,108,576.8z"/>
						<path class="st17" d="M108,576.8c-2.6,0-5.3,0.4-7.9,1c0,0,2.9,3.7,7.9,3.7c4.7,0,7.8-3.2,8.2-3.7
							C113.5,577.2,110.7,576.8,108,576.8z"/>
						<path class="st11" d="M102.6,577.3c0,0,1.6,1.9,5.4,1.9s5.4-1.9,5.4-1.9S107.8,575.3,102.6,577.3z"/>
						<path class="st14" d="M108,569.4v5c-11.2,0-14.9-6-16-7.6c-0.8-1.2,5.3,4.3,10.6,4.3C105,571,104.9,569.4,108,569.4z"/>
						<path class="st14" d="M108,569.4v5c11.2,0,14.9-6,16-7.6c0.8-1.2-5.3,4.3-10.6,4.3C111,571,111.1,569.4,108,569.4z"/>
						<path class="st14" d="M108.1,536.2v-17.6c-18.4,0-21.8,6.9-22.7,19.7c-0.9,12.9,1.1,17.3,2.4,17.3s0.6-14.8,2.4-17.9
							C93.4,531.9,99.1,536.2,108.1,536.2z"/>
						<path class="st14" d="M108.1,536.2v-17.6c18.4,0,21.8,6.9,22.7,19.7c0.9,12.9-1.1,17.3-2.4,17.3c-1.3,0-0.6-14.8-2.4-17.9
							C122.8,531.9,117.1,536.2,108.1,536.2z"/>
						<path class="st18" d="M96.5,578.8c-8.1,2.7-14.6,7.7-14.6,11.5h14.6V578.8L96.5,578.8L96.5,578.8z"/>
						<path class="st19" d="M97.3,590.4V578c0,0-2.1,0.8-2.8,1.2l-2.1,11.2H97.3L97.3,590.4z"/>
						<path class="st18" d="M119.4,578.8c8.1,2.7,14.6,7.7,14.6,11.5h-14.6V578.8L119.4,578.8L119.4,578.8z"/>
						<path class="st19" d="M118.6,590.4V578c0,0,2.1,0.8,2.8,1.2l2.1,11.2H118.6L118.6,590.4z"/>
					</g>
				</g>
			</g>
			<g>
				<g>
					<g>
						<defs>
							<rect id="SVGID_1_" x="23.3" y="532.2" width="65.4" height="76.5"/>
						</defs>
						<clipPath id="SVGID_2_">
							<use xlink:href="#SVGID_1_"  style="overflow:visible;"/>
						</clipPath>
						<path class="st20" d="M85.2,583.3c-2.1,5.6-5.2,10.4-9.2,14.4c-4.6,4.5-10.7,8.1-18.1,10.7c-0.2,0.1-0.5,0.2-0.7,0.2
							c-0.3,0.1-0.7,0.1-1,0.1H56c-0.4,0-0.7,0-1.1-0.1c-0.3-0.1-0.5-0.1-0.7-0.2c-7.4-2.6-13.4-6.2-18.1-10.7
							c-4.1-4-7.2-8.8-9.2-14.4c-3.7-10.1-3.5-21.3-3.4-30.3v-0.1c0-0.7,0.1-1.5,0.1-2.4c0.1-4.2,3.4-7.7,7.6-7.9
							c8.8-0.5,15.6-3.4,21.4-9h0.1c1-0.9,2.2-1.3,3.4-1.3s2.3,0.4,3.3,1.3l0,0c5.8,5.7,12.6,8.5,21.4,9c4.2,0.2,7.6,3.7,7.6,7.9
							c0,0.9,0,1.6,0.1,2.4v0.1C88.7,561.9,88.9,573.1,85.2,583.3L85.2,583.3z"/>
					</g>
					<g>
						<defs>
							<rect id="SVGID_3_" x="23.3" y="532.2" width="65.4" height="76.5"/>
						</defs>
						<clipPath id="SVGID_4_">
							<use xlink:href="#SVGID_3_"  style="overflow:visible;"/>
						</clipPath>
						<path class="st21" d="M85.2,583.3c-2.1,5.6-5.2,10.4-9.2,14.4c-4.6,4.5-10.7,8.1-18.1,10.7c-0.2,0.1-0.5,0.2-0.7,0.2
							c-0.3,0.1-0.7,0.1-1,0.1v-76.5c1.2,0,2.3,0.4,3.3,1.3l0,0c5.8,5.7,12.6,8.5,21.4,9c4.2,0.2,7.6,3.7,7.6,7.9
							c0,0.9,0,1.6,0.1,2.4v0.1C88.7,561.9,88.9,573.1,85.2,583.3L85.2,583.3z"/>
					</g>
				</g>
				<path class="st8" d="M75.1,570.4c0,10.5-8.5,19-19,19.1H56c-10.5,0-19.1-8.6-19.1-19.1s8.6-19.1,19.1-19.1h0.1
					C66.6,551.4,75.1,559.9,75.1,570.4L75.1,570.4z"/>
				<path class="st22" d="M75.1,570.4c0,10.5-8.5,19-19,19.1v-38.1C66.6,551.4,75.1,559.9,75.1,570.4L75.1,570.4z"/>
				<path class="st23" d="M64.7,567.7l-8.6,8.6l-1.9,1.9c-0.4,0.4-1,0.7-1.6,0.7s-1.1-0.2-1.6-0.7l-4-4c-0.9-0.9-0.9-2.3,0-3.2
					s2.3-0.9,3.2,0l2.4,2.4l8.9-8.9c0.9-0.9,2.3-0.9,3.2,0C65.6,565.4,65.6,566.8,64.7,567.7L64.7,567.7z"/>
				<path class="st24" d="M64.7,567.7l-8.6,8.6v-6.4l5.4-5.4c0.9-0.9,2.3-0.9,3.2,0C65.6,565.4,65.6,566.8,64.7,567.7L64.7,567.7z"
					/>
			</g>
		</g>
		<g>
			<path class="st25" d="M188.3,382.2v17.2h-3.5V385h-4.6l-0.3,6.1c-0.1,2-0.4,3.7-0.8,4.8c-0.4,1.2-1,2-1.8,2.6
				c-0.8,0.5-1.8,0.8-3.2,0.8h-0.9v-2.8l0.6-0.1c0.9-0.1,1.5-0.6,1.9-1.5s0.6-2.5,0.7-4.9l0.3-7.9h11.6V382.2z"/>
			<path class="st25" d="M211.6,391.1c0,1.7-0.3,3.2-0.9,4.4c-0.6,1.3-1.5,2.3-2.6,2.9c-1.1,0.7-2.4,1-3.8,1c-1.3,0-2.5-0.3-3.5-0.9
				s-1.9-1.4-2.5-2.5s-1-2.3-1.2-3.8h-2v6.8h-3.5v-17.2h3.5v7.6h1.9c0.1-1.5,0.4-2.9,1-4.1s1.5-2.1,2.6-2.8c1.1-0.6,2.3-1,3.7-1
				s2.7,0.3,3.8,1s2,1.7,2.6,3s0.9,2.8,0.9,4.5V391.1z M208,390.4c0-1.8-0.3-3.2-1-4.1c-0.6-0.9-1.6-1.4-2.8-1.4s-2.1,0.5-2.7,1.4
				c-0.6,0.9-1,2.3-1,4.1v0.8c0,1.8,0.3,3.1,1,4.1c0.6,1,1.6,1.5,2.8,1.5s2.1-0.5,2.7-1.4c0.6-0.9,1-2.3,1-4.1V390.4z"/>
			<path class="st25" d="M229.5,403.6h-3.3v-4.2h-10.4v4.2h-3.3l-0.2-7.1h1.3c0.7-0.6,1.2-1.4,1.6-2.6c0.4-1.1,0.6-2.5,0.8-4.2
				l0.5-7.6h11.3v14.3h2L229.5,403.6z M217.7,396.5h6.5V385h-4.4l-0.3,4.5C219.4,392.6,218.7,394.9,217.7,396.5z"/>
			<path class="st25" d="M241.9,382.2h3.5v17.2h-3.5V388l-6.9,11.4h-3.5v-17.2h3.5v11.4L241.9,382.2z"/>
		</g>
	</g>
	<g>
		<g>
			<g id="_x34__3_">
				<g>
					<g>
						<g>
							<g>
								<rect x="579.7" y="422.9" class="st8" width="221.4" height="137.3"/>
								<path class="st1" d="M798.5,416.1h-218c-3.6,0-6.6,3-6.6,6.6v144.9c0,3.6,3,6.6,6.6,6.6h218c3.6,0,6.6-3,6.6-6.6V422.7
									C805.1,419,802.1,416.1,798.5,416.1z M797.3,556.4H582.2V425.9h215.1L797.3,556.4L797.3,556.4z"/>
								<path class="st2" d="M536.8,567.5v7.6c0,2.6,2.1,4.6,4.6,4.6h294.3c2.6,0,4.6-2.1,4.6-4.6v-7.6H536.8z"/>
								<rect x="537.2" y="567.5" class="st3" width="302.9" height="8.8"/>
								<path class="st4" d="M664.7,567.5c0.7,2.2,2.8,3.7,5.2,3.7h38.4c2.4,0,4.4-1.6,5.2-3.7H664.7z"/>
							</g>
						</g>
					</g>
					<g>
						<g>
							<g>
								<rect x="589.4" y="432.2" class="st26" width="99.3" height="36.1"/>
								<rect x="589.4" y="432.2" class="st27" width="49.8" height="36.1"/>
							</g>
							<g>
								<g>
									<rect x="695" y="432.2" class="st4" width="94.2" height="4.7"/>
									<rect x="695" y="440.2" class="st4" width="94.2" height="4.7"/>
									<rect x="589.2" y="478.5" class="st4" width="94.2" height="4.7"/>
									<rect x="589.2" y="486.4" class="st4" width="94.2" height="4.7"/>
									<rect x="695" y="478.5" class="st4" width="94.2" height="4.7"/>
									<rect x="695" y="486.4" class="st4" width="94.2" height="4.7"/>
									<rect x="695" y="448.1" class="st4" width="94.2" height="4.7"/>
									<rect x="695" y="456" class="st4" width="94.2" height="4.7"/>
									<rect x="695" y="463.7" class="st4" width="94.2" height="4.7"/>
								</g>
								<rect x="589.3" y="501.1" class="st4" width="199.9" height="4.7"/>
								<rect x="589.3" y="509" class="st4" width="199.9" height="4.7"/>
								<rect x="589.3" y="516.9" class="st4" width="199.9" height="4.7"/>
								<rect x="589.3" y="524.6" class="st4" width="199.9" height="4.7"/>
								<rect x="589.3" y="532.3" class="st4" width="199.9" height="4.7"/>
								<rect x="589.3" y="540.2" class="st4" width="199.9" height="4.7"/>
								<rect x="589.3" y="547.8" class="st4" width="199.9" height="4.7"/>
							</g>
							<polygon class="st28" points="797.6,556.4 582.1,556.4 582.1,425.9 744.9,425.9 797.6,425.9 							"/>
						</g>
						<g>
							<g>
								<path class="st8" d="M612.6,454.9c-0.2-0.1-0.3-0.2-0.4-0.3c-0.1-0.1-0.2-0.3-0.3-0.4c-0.1-0.2-0.1-0.3-0.1-0.5v-1h-2.1
									h-0.1h-0.1h-0.1c-0.3,0-0.6-0.2-0.8-0.4c-0.2-0.2-0.3-0.5-0.3-0.8c0-0.2,0-0.4,0.1-0.6l1.7-4.6c0.1-0.2,0.3-0.4,0.5-0.6
									s0.5-0.2,0.7-0.2c0.4,0,0.7,0.1,0.9,0.4c0.1,0.1,0.2,0.2,0.3,0.4c0.1,0.1,0.1,0.3,0.1,0.5s0,0.3-0.1,0.5l-1.3,2.9h0.5
									c0-0.2,0.1-0.3,0.1-0.5c0.1-0.1,0.2-0.3,0.3-0.4c0.3-0.2,0.5-0.3,0.9-0.3c0.2,0,0.3,0,0.5,0.1s0.3,0.1,0.4,0.3
									c0.1,0.1,0.2,0.2,0.3,0.4c0.1,0.1,0.1,0.3,0.1,0.5c0.3,0,0.6,0.2,0.8,0.4c0.1,0.1,0.2,0.3,0.2,0.4c0.1,0.1,0.1,0.3,0.1,0.5
									s0,0.3-0.1,0.5c-0.1,0.1-0.1,0.3-0.2,0.4c-0.2,0.3-0.5,0.4-0.8,0.4v1c0,0.2,0,0.3-0.1,0.5s-0.2,0.3-0.3,0.4
									s-0.3,0.2-0.4,0.3c-0.2,0.1-0.3,0.1-0.5,0.1C613,454.9,612.8,454.9,612.6,454.9z"/>
								<path class="st8" d="M618.6,454.8c-0.4-0.2-0.8-0.4-1.2-0.8c-0.4-0.3-0.6-0.8-0.8-1.2c-0.2-0.5-0.3-1-0.3-1.6v-1.9
									c0-0.6,0.1-1.1,0.3-1.6s0.5-0.9,0.8-1.2c0.3-0.3,0.7-0.6,1.2-0.8c0.4-0.2,0.9-0.3,1.4-0.3s0.9,0.1,1.4,0.3
									c0.4,0.2,0.8,0.4,1.2,0.8c0.3,0.3,0.6,0.8,0.8,1.2c0.2,0.5,0.3,1,0.3,1.6h-2.6c0-0.5-0.1-0.8-0.4-1
									c-0.2-0.1-0.4-0.2-0.7-0.2s-0.5,0.1-0.7,0.2c-0.3,0.2-0.4,0.6-0.4,1v2c0,0.5,0.1,0.8,0.4,1c0.2,0.1,0.4,0.2,0.7,0.2
									s0.5-0.1,0.7-0.2c0.3-0.2,0.4-0.5,0.4-1v-1.9h2.6v1.9c0,0.6-0.1,1.1-0.3,1.6s-0.5,0.9-0.8,1.2c-0.3,0.3-0.7,0.6-1.2,0.8
									c-0.4,0.2-0.9,0.3-1.4,0.3C619.5,455,619,454.9,618.6,454.8z"/>
								<path class="st8" d="M626.9,454.8c-0.4-0.2-0.8-0.4-1.2-0.8c-0.4-0.3-0.6-0.8-0.8-1.2c-0.2-0.5-0.3-1-0.3-1.6v-1.9
									c0-0.6,0.1-1.1,0.3-1.6s0.5-0.9,0.8-1.2c0.3-0.3,0.7-0.6,1.2-0.8c0.4-0.2,0.9-0.3,1.4-0.3s0.9,0.1,1.4,0.3
									c0.4,0.2,0.8,0.4,1.2,0.8c0.3,0.3,0.6,0.8,0.8,1.2c0.2,0.5,0.3,1,0.3,1.6h-2.6c0-0.5-0.1-0.8-0.4-1
									c-0.2-0.1-0.4-0.2-0.7-0.2s-0.5,0.1-0.7,0.2c-0.3,0.2-0.4,0.6-0.4,1v2c0,0.5,0.1,0.8,0.4,1c0.2,0.1,0.4,0.2,0.7,0.2
									s0.5-0.1,0.7-0.2c0.3-0.2,0.4-0.5,0.4-1v-1.9h2.6v1.9c0,0.6-0.1,1.1-0.3,1.6s-0.5,0.9-0.8,1.2c-0.3,0.3-0.7,0.6-1.2,0.8
									c-0.4,0.2-0.9,0.3-1.4,0.3C627.8,455,627.3,454.9,626.9,454.8z"/>
								<path class="st8" d="M637,454.9c-0.2-0.1-0.3-0.2-0.4-0.3c-0.1-0.1-0.2-0.2-0.3-0.4c-0.1-0.1-0.1-0.3-0.1-0.5s0-0.3,0.1-0.5
									s0.2-0.3,0.3-0.4l1.3-1.3l-1.4-1.4c-0.1-0.1-0.2-0.2-0.3-0.4c-0.1-0.1-0.1-0.3-0.1-0.5s0-0.3,0.1-0.5s0.2-0.3,0.3-0.4
									s0.3-0.2,0.4-0.3c0.2-0.1,0.3-0.1,0.5-0.1s0.3,0,0.5,0.1s0.3,0.2,0.4,0.3l1.4,1.4l1.4-1.4c0.1-0.1,0.3-0.2,0.4-0.3
									c0.2-0.1,0.3-0.1,0.5-0.1s0.3,0,0.5,0.1s0.3,0.2,0.4,0.3c0.1,0.1,0.2,0.3,0.3,0.4c0.1,0.2,0.1,0.3,0.1,0.5
									c0,0.3-0.1,0.6-0.3,0.8l-1.4,1.5l1.2,1.2c0.3,0.3,0.4,0.6,0.4,0.9c0,0.2,0,0.3-0.1,0.5s-0.2,0.3-0.3,0.4s-0.3,0.2-0.4,0.3
									c-0.2,0.1-0.3,0.1-0.5,0.1c-0.4,0-0.7-0.1-0.9-0.4l-1.2-1.2l-1.2,1.2c-0.2,0.2-0.5,0.4-0.9,0.4
									C637.3,455,637.2,454.9,637,454.9z"/>
								<path class="st8" d="M648,454.8c-0.2-0.1-0.3-0.2-0.4-0.3c-0.1-0.1-0.2-0.3-0.3-0.4c-0.1-0.2-0.1-0.3-0.1-0.5
									c0-0.4,0.1-0.7,0.4-0.9l2.6-3l0,0l0,0l0,0l0,0l0.1-0.1l0.2-0.2c0.2-0.2,0.4-0.4,0.5-0.6c0.1-0.1,0.1-0.2,0.1-0.3
									c0-0.2-0.1-0.3-0.2-0.4c-0.1-0.1-0.2-0.1-0.4-0.1s-0.3,0-0.4,0.1c-0.1,0.1-0.2,0.2-0.3,0.3c-0.1,0.4-0.2,0.6-0.4,0.8
									c-0.2,0.2-0.5,0.3-0.8,0.3c-0.4,0-0.7-0.1-0.9-0.4c-0.1-0.1-0.2-0.2-0.2-0.4c-0.1-0.2-0.1-0.3-0.1-0.5c0-0.1,0-0.2,0-0.3
									c0-0.3,0.1-0.5,0.3-0.8s0.4-0.5,0.6-0.8c0.3-0.2,0.6-0.4,1-0.6c0.4-0.1,0.8-0.2,1.2-0.2c0.5,0,0.9,0.1,1.3,0.2
									c0.4,0.1,0.7,0.3,1,0.5c0.6,0.5,0.9,1.2,0.9,2.1c0,0.3,0,0.6-0.1,0.8c-0.1,0.3-0.1,0.5-0.3,0.7c-0.2,0.5-0.6,1-1.2,1.6
									l-0.9,1h1.3c0.2,0,0.3,0,0.5,0.1s0.3,0.1,0.4,0.3c0.1,0.1,0.2,0.3,0.3,0.4c0.1,0.2,0.1,0.3,0.1,0.5s0,0.3-0.1,0.5
									s-0.2,0.3-0.3,0.4s-0.3,0.2-0.4,0.3c-0.2,0.1-0.3,0.1-0.5,0.1h-4C648.3,454.9,648.1,454.9,648,454.8z"/>
								<path class="st8" d="M656.8,454.8c-0.4-0.2-0.8-0.4-1.2-0.8c-0.4-0.3-0.6-0.8-0.8-1.2c-0.2-0.5-0.3-1-0.3-1.6v-1.9
									c0-0.6,0.1-1.1,0.3-1.6s0.5-0.9,0.8-1.2c0.3-0.3,0.7-0.6,1.2-0.8c0.4-0.2,0.9-0.3,1.4-0.3s0.9,0.1,1.4,0.3
									c0.4,0.2,0.8,0.4,1.2,0.8c0.3,0.3,0.6,0.8,0.8,1.2c0.2,0.5,0.3,1,0.3,1.6h-2.6c0-0.5-0.1-0.8-0.4-1
									c-0.2-0.1-0.4-0.2-0.7-0.2s-0.5,0.1-0.7,0.2c-0.3,0.2-0.4,0.6-0.4,1v2c0,0.5,0.1,0.8,0.4,1c0.2,0.1,0.4,0.2,0.7,0.2
									s0.5-0.1,0.7-0.2c0.3-0.2,0.4-0.5,0.4-1v-1.9h2.6v1.9c0,0.6-0.1,1.1-0.3,1.6s-0.5,0.9-0.8,1.2c-0.3,0.3-0.7,0.6-1.2,0.8
									c-0.4,0.2-0.9,0.3-1.4,0.3C657.7,455,657.2,454.9,656.8,454.8z"/>
								<path class="st8" d="M665.1,454.8c-0.4-0.2-0.8-0.4-1.2-0.8c-0.4-0.3-0.6-0.8-0.8-1.2c-0.2-0.5-0.3-1-0.3-1.6v-1.9
									c0-0.6,0.1-1.1,0.3-1.6s0.5-0.9,0.8-1.2c0.3-0.3,0.7-0.6,1.2-0.8c0.4-0.2,0.9-0.3,1.4-0.3s0.9,0.1,1.4,0.3
									c0.4,0.2,0.8,0.4,1.2,0.8c0.3,0.3,0.6,0.8,0.8,1.2c0.2,0.5,0.3,1,0.3,1.6h-2.6c0-0.5-0.1-0.8-0.4-1
									c-0.2-0.1-0.4-0.2-0.7-0.2s-0.5,0.1-0.7,0.2c-0.3,0.2-0.4,0.6-0.4,1v2c0,0.5,0.1,0.8,0.4,1c0.2,0.1,0.4,0.2,0.7,0.2
									s0.5-0.1,0.7-0.2c0.3-0.2,0.4-0.5,0.4-1v-1.9h2.6v1.9c0,0.6-0.1,1.1-0.3,1.6s-0.5,0.9-0.8,1.2c-0.3,0.3-0.7,0.6-1.2,0.8
									c-0.4,0.2-0.9,0.3-1.4,0.3C666,455,665.5,454.9,665.1,454.8z"/>
							</g>
							<polygon class="st8" points="727.5,479.8 678,463.8 694.1,513.3 698.5,496.6 716.2,514.3 728.5,502 710.8,484.2 							"/>
							<polygon class="st9" points="728.7,502 710.9,484.2 727.6,479.8 677.9,463.7 677.9,463.7 722.4,508.3 							"/>
						</g>
					</g>
				</g>
			</g>
			<g>
				<g>
					<g>
						<path class="st29" d="M865.7,556.1c0,0.8,0,1.7,0,2.5"/>
						<path class="st30" d="M865.3,563.6c-3.8,34.6-33,61.5-68.6,61.5c-38.1,0-69-30.9-69-69s30.9-69,69-69
							c36.4,0,66.3,28.2,68.8,64"/>
						<path class="st29" d="M865.6,553.6c0,0.8,0,1.7,0,2.5"/>
					</g>
				</g>
				<path class="st8" d="M850.2,556.1c0,29.6-24,53.5-53.5,53.5c-29.6,0-53.5-24-53.5-53.5s24-53.5,53.5-53.5
					C826.2,502.6,850.2,526.5,850.2,556.1"/>
				<g>
					<path class="st31" d="M827,554.9c-0.7,0-1.3-0.6-1.3-1.3v-3c0-16.3-13.2-29.5-29.5-29.5s-29.5,13.2-29.5,29.5v3
						c0,0.7-0.6,1.3-1.3,1.3s-1.3-0.6-1.3-1.3v-3c0-17.7,14.4-32,32-32c17.7,0,32,14.4,32,32v3C828.2,554.3,827.7,554.9,827,554.9z"
						/>
					<path class="st32" d="M825.6,569.2h-3.2c-0.7,0-1.3-0.6-1.3-1.3s0.6-1.3,1.3-1.3h3.2c0.8,0,1.5-0.7,1.5-1.5v-6.7
						c0-0.7,0.6-1.3,1.3-1.3s1.3,0.6,1.3,1.3v6.7C829.6,567.4,827.8,569.2,825.6,569.2z"/>
					<path class="st33" d="M787.4,570h17.4v14.9h-17.4V570z"/>
					<path class="st34" d="M822.2,564.5c0.2-1,0.4-2,0.4-3V540c0-7-5.6-12.6-12.6-12.6h-27.5c-7,0-12.6,5.6-12.6,12.6v21.5
						c0,7,5.6,12.6,12.6,12.6H810c3.2,0,6.1-1.2,8.3-3.1"/>
					<path class="st33" d="M779.6,566.3v7.4c-5.6-1.3-9.8-6.3-9.8-12.3V554C775.5,555.3,779.6,560.3,779.6,566.3z"/>
					<path class="st33" d="M822.6,554v7.4c0,1-0.1,2.1-0.4,3l-3.9,6.4c-1.5,1.4-3.4,2.3-5.5,2.8v-7.4
						C812.8,560.3,817,555.3,822.6,554z"/>
					<path class="st8" d="M792.6,546.4c0,4.5-3.6,8.1-8.1,8.1s-8.1-3.6-8.1-8.1s3.6-8.1,8.1-8.1C789,538.3,792.6,541.9,792.6,546.4z
						"/>
					<path class="st8" d="M816,546.4c0,4.5-3.6,8.1-8.1,8.1s-8.1-3.6-8.1-8.1s3.6-8.1,8.1-8.1C812.4,538.3,816,541.9,816,546.4z"/>
					<path class="st35" d="M784.5,549.4c-1.7,0-3-1.4-3-3c0-1.7,1.4-3,3-3c1.7,0,3,1.4,3,3C787.5,548.1,786.2,549.4,784.5,549.4z"/>
					<path class="st35" d="M807.9,549.4c-1.7,0-3-1.4-3-3c0-1.7,1.4-3,3-3c1.7,0,3,1.4,3,3C811,548.1,809.6,549.4,807.9,549.4z"/>
					<path class="st35" d="M776.5,568c0,2-1.6,3.5-3.5,3.5h-1.2c-2,0-3.5-1.6-3.5-3.5c0-2,1.6-3.5,3.5-3.5h1.2
						C774.9,564.4,776.5,566,776.5,568z"/>
					<g>
						<path class="st26" d="M791.4,560.8h3.5V574h-3.5V560.8z"/>
						<path class="st26" d="M797.5,560.8h3.5V574h-3.5V560.8z"/>
						<path class="st26" d="M803.5,561v13h3.6v-8.3C807.1,563.4,805.6,561.6,803.5,561z"/>
						<path class="st26" d="M788.9,561c-2.1,0.6-3.6,2.4-3.6,4.7v8.3h3.6V561z"/>
					</g>
					<path class="st36" d="M769.8,544.4v12.4c0,1.9-1.3,3.5-3,4c-0.4,0.1-0.7,0.2-1.1,0.2H764c-2.3,0-4.2-1.9-4.2-4.2v-12.4
						c0-2.3,1.9-4.2,4.2-4.2h1.6c0.4,0,0.8,0.1,1.1,0.2C768.6,540.8,769.8,542.5,769.8,544.4z"/>
					<path class="st26" d="M769.8,544.4v12.4c0,1.9-1.3,3.5-3,4c-1.8-0.5-3-2.1-3-4v-12.4c0-1.9,1.3-3.5,3-4
						C768.6,540.8,769.8,542.5,769.8,544.4z"/>
					<path class="st36" d="M832.5,544.4v12.4c0,1.9-1.3,3.5-3,4c-0.4,0.1-0.7,0.2-1.1,0.2h-1.6c-2.3,0-4.2-1.9-4.2-4.2v-12.4
						c0-2.3,1.9-4.2,4.2-4.2h1.6c0.4,0,0.8,0.1,1.1,0.2C831.3,540.8,832.5,542.5,832.5,544.4z"/>
					<path class="st26" d="M832.5,544.4v12.4c0,1.9-1.3,3.5-3,4c-1.8-0.5-3-2.1-3-4v-12.4c0-1.9,1.3-3.5,3-4
						C831.3,540.8,832.5,542.5,832.5,544.4z"/>
					<path class="st35" d="M820.2,564.4h1.2c2,0,3.5,1.6,3.5,3.5c0,2-1.6,3.5-3.5,3.5h-1.2c-2,0-3.5-1.6-3.5-3.5
						S818.2,564.4,820.2,564.4z"/>
					<path class="st31" d="M763.5,565.2v-6.7c0-0.7,0.6-1.3,1.3-1.3s1.3,0.6,1.3,1.3v6.7c0,0.8,0.7,1.5,1.5,1.5h3.2
						c0.7,0,1.3,0.6,1.3,1.3s-0.6,1.3-1.3,1.3h-3.2C765.3,569.2,763.5,567.4,763.5,565.2z"/>
					<path class="st33" d="M821.4,588.9v0.3h-50.7v-0.3c0-4.5,3.6-8.1,8.1-8.1h34.5C817.8,580.8,821.4,584.5,821.4,588.9z"/>
					<path class="st34" d="M821.4,588.9v0.3h-41.3v-0.3c0-4.5,3.6-8.1,8.1-8.1h25.1C817.8,580.8,821.4,584.5,821.4,588.9z"/>
				</g>
				<path class="st26" d="M872.2,573.1c0-14.5-11.8-26.3-26.3-26.3s-26.3,11.8-26.3,26.3s11.8,26.3,26.3,26.3
					S872.2,587.6,872.2,573.1"/>
				<rect x="830.1" y="568.4" class="st8" width="31.4" height="10.5"/>
			</g>
			<g>
				<path class="st25" d="M669.9,384.8h-8.1v3.5h2.9c2.1,0,3.8,0.5,5.1,1.5c1.2,1,1.9,2.4,1.9,4.2c0,1.8-0.6,3.2-1.9,4.2
					c-1.2,1.1-2.9,1.6-4.9,1.6H658v-18.1h11.8v3.1H669.9z M661.8,391.4v5.6h3c1,0,1.7-0.3,2.3-0.8s0.9-1.2,0.9-2.1
					c0-0.8-0.3-1.5-0.8-1.9c-0.5-0.5-1.3-0.7-2.2-0.7h-3.2V391.4z"/>
				<path class="st25" d="M688.9,391.3c0,1.8-0.3,3.3-0.9,4.7c-0.6,1.3-1.5,2.4-2.7,3.1s-2.5,1.1-4,1.1s-2.8-0.4-4-1.1
					s-2.1-1.8-2.7-3.1c-0.6-1.3-1-2.9-1-4.6v-0.9c0-1.8,0.3-3.4,1-4.7c0.6-1.4,1.5-2.4,2.7-3.1s2.5-1.1,4-1.1s2.8,0.4,4,1.1
					s2.1,1.8,2.7,3.1c0.6,1.4,1,2.9,1,4.7L688.9,391.3L688.9,391.3z M685.1,390.5c0-1.9-0.3-3.3-1-4.3s-1.6-1.5-2.9-1.5
					c-1.3,0-2.2,0.5-2.9,1.5s-1,2.4-1,4.3v0.9c0,1.8,0.3,3.3,1,4.3s1.7,1.5,2.9,1.5c1.3,0,2.2-0.5,2.9-1.5s1-2.4,1-4.3V390.5z"/>
				<path class="st25" d="M704.5,384.8H699v15.1h-3.7v-15.1h-5.5v-3h14.7V384.8z"/>
				<path class="st25" d="M710.4,388.3h2.9c2.1,0,3.8,0.5,5.1,1.5c1.2,1,1.9,2.4,1.9,4.2c0,1.8-0.6,3.2-1.9,4.2
					c-1.2,1.1-2.9,1.6-4.9,1.6h-6.8v-18.1h3.8L710.4,388.3L710.4,388.3z M710.4,391.4v5.6h3c1,0,1.7-0.3,2.3-0.8s0.9-1.2,0.9-2.1
					c0-0.8-0.3-1.5-0.8-1.9c-0.5-0.5-1.3-0.7-2.2-0.7h-3.2V391.4z M725.5,399.9h-3.7v-18.1h3.7V399.9z"/>
			</g>
		</g>
		<polygon class="st26" points="812,418.7 812,422 579.9,564.3 573.9,564.3 567.6,564.3 567.7,559.5 801.4,416.2 812,416.2 		"/>
	</g>
	<g>
		<g>
			<path class="st37" d="M341.5,195.4c-6.6,0-12,5.4-12,12v15.7c0,6.6,5.4,12,12,12h110.1v-39.7H341.5z"/>
			<polygon class="st37" points="341.2,238.1 341.2,272.6 428.4,374.9 427.2,471.2 451.6,471.2 451.6,238.1 			"/>
			<path class="st38" d="M573.7,223.1v-15.7c0-6.6-5.4-12-12-12H451.6v39.7h110.1C568.3,235.1,573.7,229.7,573.7,223.1z"/>
			<polygon class="st38" points="475.1,375.3 561.9,272.6 561.9,238.1 451.6,238.1 451.6,471.2 474.5,471.2 			"/>
		</g>
		<path class="st38" d="M825.6,82.3C743.4,91,667.3,115,601.5,167.6c3.5,4.1,6.5,7.6,9.7,11.5c-14.3,2.7-28.1,5.3-42.7,8
			c5-13.8,9.8-27,14.6-40.6c3,3.5,6,6.9,9,10.4c65.9-61.6,145.5-91,233.7-102.1"/>
		<path class="st38" d="M309.1,157c2.8-3.4,5.6-6.7,8.7-10.3c5,13.5,9.9,26.6,15,40.3c-14.4-2.5-28.2-5-42.5-7.5
			c3.1-3.8,6-7.2,9.1-11.1c-1.4-1.2-2.6-2.2-3.9-3.3c-24.7-20.3-52.3-35.7-82-47.3c-35.7-14-72.3-25-110.5-29.7
			c-8.1-1-16.2-1.4-24.4-2.1c-1.1-0.1-2.3-0.2-3.8-0.3c-0.2-9.2-0.5-18.3-0.7-27.7c1.4,0.1,2.7,0.2,3.9,0.3
			c55.4,5.5,107.7,21.3,157.2,46.7c23.2,11.9,44.2,26.8,63.8,43.7c3,2.6,6.1,5.3,9.1,7.9C308.3,156.8,308.5,156.8,309.1,157z"/>
		<g>
			<path id="яндекс_8_" class="st26" d="M484.6,41.2l-4.5,2.6c-4.4,2.5-6.2,8-2.5,14.4c2.2,3.9,5.7,5.7,9.7,5.3l0.2,14.2
				c0,0.5,0.4,0.6,0.7,0.4l2.8-1.6c0.2-0.1,0.3-0.3,0.3-0.5l-0.7-13.7l2-1.1l6.1,10.6c0.1,0.1,0.3,0.2,0.4,0.1l2.4-1.4
				c0.2-0.1,0.2-0.3,0.1-0.5l-16.5-28.7C485.1,41.1,484.9,41.1,484.6,41.2z M491.2,58.7l-1.6,0.9c-2.6,1.5-6.2,1-8.9-3.7
				c-2.8-4.9-1.6-8.2,0.8-9.6l2-1.1L491.2,58.7z"/>
			<g>
				<path class="st39" d="M342.4,69.8c-0.5,0.2-1,0.5-1.5,0.8c0.5,1,1,1.9,1.5,3c-1.9,1-3.8,1.9-5.7,3c-0.5-1-1-1.9-1.5-2.9
					c-0.7,0.4-1.3,0.7-2.1,1.1c1.8,3.4,3.5,6.8,5.2,10.1c-1.9,1-3.7,1.9-5.7,2.9c-1.7-3.4-3.5-6.7-5.2-10.2c-0.7,0.4-1.3,0.7-2,1.1
					c1.7,3.4,3.5,6.7,5.2,10.1c-2.1,1.1-4.1,2.1-6.1,3.2c-5.1-9.9-10.2-19.8-15.3-29.7c9.8-5,19.5-10.1,29.3-15.1
					c3.4,6.5,6.7,13,10.1,19.5C346.5,67.6,344.5,68.7,342.4,69.8z M333.1,56.5c-0.1,0-0.1,0-0.2-0.1l0,0c-0.2,0-0.5,0-0.6,0.1
					c-4.1,2.1-8.2,4.2-12.3,6.3c-0.2,0.1-0.2,0.3-0.4,0.4c0.4,0.9,0.9,1.7,1.3,2.6c2.1-1,4.1-2,6.2-3.1c2.4-1.2,4.9-2.5,7.4-3.8
					C334,58.1,333.5,57.3,333.1,56.5z M322.4,69c0.4,0.8,0.9,1.7,1.3,2.5c0.2,0,0.4,0.1,0.5,0.1c2.3-1.2,4.5-2.3,6.8-3.5
					c2.1-1.1,4.3-2.2,6.5-3.4c-0.7-1-1.2-1.8-1.7-2.6c-0.1,0-0.1-0.1-0.2-0.1c-0.2,0-0.3,0-0.5,0c-4.2,2.1-8.4,4.3-12.5,6.5
					C322.6,68.6,322.5,68.8,322.4,69z"/>
				<path class="st40" d="M342.4,69.8c2-1.1,4.1-2.1,6.1-3.2c2.2,2.3,4.5,4.5,6.8,6.8c-2.1,1.1-4.1,2.1-6.2,3.2
					C346.9,74.3,344.7,72.1,342.4,69.8z"/>
				<path class="st41" d="M323.7,71.5c-0.4-0.8-0.9-1.7-1.3-2.5c4.4-2.3,8.9-4.6,13.3-6.9c0.1,0,0.1,0.1,0.2,0.1
					c0.4,0.8,0.8,1.6,1.3,2.5C332.6,66.9,328.2,69.2,323.7,71.5z"/>
				<path class="st41" d="M320.9,65.8c-0.4-0.9-0.9-1.7-1.3-2.6c4.4-2.3,8.8-4.5,13.3-6.8l0,0l0.1,0.1c0.4,0.7,0.7,1.4,1.1,2.1
					c0,0.1,0,0.2,0.1,0.3C329.8,61.3,325.3,63.6,320.9,65.8z M320.9,65.4c4.3-2.2,8.6-4.4,12.9-6.7c-0.4-0.7-0.7-1.3-1-2
					c-4.3,2.2-8.6,4.4-12.9,6.7C320.2,64.1,320.6,64.7,320.9,65.4z"/>
				<path class="st42" d="M323.7,71.5c4.4-2.3,8.9-4.6,13.4-6.9c-0.4-0.8-0.9-1.6-1.3-2.5c0.5,0.8,1,1.6,1.7,2.6
					c-2.3,1.2-4.4,2.3-6.5,3.4c-2.3,1.2-4.5,2.3-6.8,3.5C324.1,71.7,323.9,71.6,323.7,71.5z"/>
				<path class="st42" d="M332.9,56.4c-4.4,2.3-8.8,4.5-13.3,6.8c0.1-0.1,0.2-0.4,0.4-0.4c4.1-2.1,8.2-4.2,12.3-6.3
					C332.4,56.4,332.6,56.4,332.9,56.4z"/>
				<path class="st42" d="M320.9,65.8c4.4-2.3,8.8-4.6,13.2-6.9c0-0.1,0-0.2-0.1-0.3c-0.4-0.7-0.7-1.4-1.1-2.1c0,0,0,0,0.1-0.1
					c0.5,0.8,0.9,1.6,1.5,2.5c-2.5,1.3-5,2.6-7.4,3.8C325.1,63.8,323,64.8,320.9,65.8z"/>
				<path class="st42" d="M335.7,62.1c-4.4,2.3-8.9,4.6-13.3,6.9c0.1-0.1,0.2-0.3,0.3-0.4c4.2-2.2,8.4-4.3,12.5-6.5
					C335.4,62,335.6,62.1,335.7,62.1z"/>
				<path class="st40" d="M333.1,56.5C333.1,56.5,333,56.6,333.1,56.5c-0.1,0-0.2,0-0.2-0.1C333,56.5,333,56.5,333.1,56.5z"/>
				<path class="st43" d="M320.9,65.4c-0.4-0.7-0.7-1.3-1-2c4.3-2.2,8.6-4.4,12.9-6.7c0.3,0.7,0.7,1.3,1,2
					C329.5,61,325.3,63.2,320.9,65.4z"/>
				<path class="st40" d="M334.1,58.7c0,0.1,0,0.2,0.1,0.3C334.2,58.9,334.1,58.8,334.1,58.7z"/>
			</g>
			<g>
				<path class="st44" d="M473.2,156c0-0.6,0.3-1.1,0.5-1.6c0.7-1.6,1.7-3.1,3-4.3c1.6-1.5,3.6-2.5,5.7-3.1c1.3-0.4,2.7-0.3,4-0.2
					c0.9,0.1,1.9,0.4,2.7,0.7c4.1,1.6,6.7,4.6,7.7,9c0.1,0.4,0.1,0.8,0.2,1.3c1.2-1.1,2.5-1.5,3.9-0.6c0.3-0.1,0.4-0.3,0.6-0.5
					c0.9-1,2.6-1,3.8,0.1c0.3,0.3,0.6,0.7,0.8,1.1c1.1,2.5,2.7,4.8,4.1,7.1c0.6,1.1,1.3,2.2,1.6,3.4c0,0.1,0.1,0.2,0.1,0.3
					c-0.1,0.7,0.3,1,0.7,1.4c0.4,0.4,0.9,0.9,1.3,1.3c0.6,0.6,0.6,0.9,0,1.5c-0.1,0.1-0.2,0.2-0.3,0.3c-0.3,0.1-0.5,0.4-0.7,0.6
					c-2.1,2.1-4.3,4.1-6.4,6.2c-0.9,0.9-1.2,0.8-1.9-0.1c-0.4-0.4-0.7-0.8-1.1-1.2c-0.4,0.4-1.1,0.2-1.5,0.6c-0.1,0.1-0.3,0-0.3-0.1
					c-0.1-0.1-0.2-0.1-0.3-0.1c-0.7-0.1-1.3-0.3-2-0.5c-0.6-0.2-1.2-0.3-1.9-0.3c-2,0-4,0-6.1-0.1c-1.7,0-2.8-1.2-2.8-2.9
					c0-0.2,0-0.4,0-0.6c0.4-1.4,1.5-2.1,2.8-2.6c0.3-0.1,0.6-0.1,0.8-0.3c0.5,0.1,0.9,0,1.3-0.1c-0.8-0.8-1.5-1.6-2.3-2.5
					c-0.1,0.1-0.3,0.1-0.5,0.2c-2.5,1.4-5.2,1.8-8,1.3c-3.5-0.6-6.2-2.5-8.1-5.5c-1.5-2.3-2-4.9-1.7-7.6
					C473.1,157,473.3,156.6,473.2,156z M487.3,167.9c0.5,0.1,0.9-0.1,1.3-0.3c-1-1-1.9-2-2.8-2.9c-0.2-0.2-0.5-0.3-0.8-0.3
					c-0.7,0-1.4-0.2-2-0.4c-2.5-1.2-3.9-3.6-3.4-6.6c0-0.2,0.1-0.3,0-0.4c0.4-1.1,1-2.1,1.9-2.9c2.3-2,5.6-2,7.9,0.1
					c1.8,1.7,2.3,3.8,1.7,6.2c0.4,0.4,0.8,0.9,1.3,1.3c0.5-0.9,1.3-1.3,2-1.8c0.6-0.1,0.6-0.1,0.6-0.7c0.1-2.1-0.4-4.1-1.5-5.9
					c-1.7-2.5-4-4-7.1-4.4c-2.6-0.3-5,0.4-7.1,2c-0.6,0.5-1.3,1-1.6,1.8c-0.3,0.5-0.7,0.9-1,1.4c-0.9,2.1-1.4,4.2-0.8,6.5
					c0.8,2.9,2.4,5.1,5.1,6.5c0.9,0.5,2,0.7,3,0.9C485.2,168.2,486.2,168.2,487.3,167.9z M491.5,175c0.2-0.1,0.4-0.2,0.6-0.2
					c0.8-0.1,2.1,0.2,2.4,1.1c0.2,0.8,0.7,0.9,1.4,0.9c0.4,0,0.8,0,1.2,0c0.7,0.1,1.4,0,2,0.2c0.9,0.3,1.8,0.5,2.7,0.7
					c0.6,0.1,1,0,1.5-0.3c0.6-0.4,0.6-0.4,1.1,0.1c0.5,0.4,0.8,1,1.3,1.3c0.3-0.1,0.4-0.3,0.5-0.4c1.2-1.2,2.5-2.4,3.7-3.6
					c0.7-0.7,1.4-1.4,2.1-2.1c0.5-0.5,0.5-0.7,0-1.2c-0.2-0.2-0.5-0.5-0.7-0.7c-0.5-0.5-1.1-0.9-0.8-1.7l-0.1-0.1
					c-0.1-1-0.6-1.8-1.1-2.7c-1.2-2.2-2.6-4.3-3.8-6.6c-0.4-0.7-0.7-1.4-1.2-1.9c-0.8-0.9-1.5-0.8-2.1,0c-0.1,0.2-0.2,0.3-0.4,0.5
					c-0.6,1-0.6,1-1.5,0.2s-2.1-0.5-2.6,0.6c-0.2,0.5-0.1,1,0.1,1.4s0.2,0.6-0.1,0.9c-0.3,0.3-0.6,0.2-0.9,0
					c-0.2-0.1-0.3-0.2-0.5-0.3c-0.7-0.4-1.6-0.2-2.1,0.4c-0.5,0.6-0.6,1.2-0.2,2c0.1,0.2,0.2,0.4,0.4,0.6c0.3,0.3,0.1,0.5,0,0.8
					c-0.2,0.3-0.5,0.3-0.8,0.2c-0.2-0.1-0.4-0.3-0.5-0.5c-1.8-1.9-3.6-3.7-5.5-5.6c-0.1-0.1-0.3-0.3-0.4-0.4c-0.7-0.6-1.5-0.5-2.1,0
					c-0.7,0.6-0.7,1.4-0.3,2.1c0.6,1,1.8,1.2,2.8,0.7c0.2-0.1,0.3-0.3,0.6-0.3c0.3,0.2,0.4,0.5,0,0.8c-0.2,0.2-0.4,0.3-0.6,0.4
					c-0.6,0.2-0.6,0.7-0.2,1.1c0.1,0.1,0.2,0.2,0.3,0.3c0.8,0.8,1.6,1.6,2.4,2.4c2.2,2.2,4.4,4.4,6.5,6.7c0.1,0.2,0.3,0.3,0.4,0.5
					c0.2,0.3,0.2,0.6,0,0.8s-0.5,0.2-0.8,0.1c-0.2-0.1-0.3-0.3-0.4-0.4c-0.5-0.5-1.1-0.7-1.8-0.7c-0.6,0-1.3,0.2-1.9,0.3
					c-0.6,0.2-1.2,0.4-1.7,0.8c-0.5,0.4-0.8,1-0.7,1.6c0.1,0.6,0.6,0.9,1.2,1s1.2,0.1,1.8,0.1c0.2,0,0.5-0.1,0.5-0.4
					c0-0.3-0.1-0.5-0.4-0.6c-0.4-0.2-0.8-0.1-1.3-0.1C491.5,175.6,491.5,175.6,491.5,175z"/>
				<path class="st45" d="M473.2,156c0.1,0.5-0.1,1-0.2,1.5c-0.2,2.7,0.3,5.3,1.7,7.6c1.9,3,4.6,4.9,8.1,5.5c2.8,0.5,5.5,0.1,8-1.3
					c0.2-0.1,0.3-0.2,0.5-0.2c0.8,0.8,1.5,1.6,2.3,2.5c-0.3,0.2-0.8,0.2-1.3,0.1c-0.5-0.5-1-1.1-1.6-1.6c-1,0.6-1.9,1-2.9,1.3
					c-6.8,2.1-14-2.4-15.3-9.4c-0.3-1.9-0.2-3.8,0.3-5.7C472.9,156.2,472.9,156,473.2,156z"/>
				<path class="st45" d="M488.7,174.7c0,0.2,0,0.4,0,0.6c0,1.7,1.1,2.9,2.8,2.9c2,0,4,0.1,6.1,0.1c0.6,0,1.3,0.1,1.9,0.3
					s1.3,0.5,2,0.5c0.1,0,0.3,0,0.3,0.1c0.1,0.1,0.3,0.2,0.3,0.1c0.4-0.4,1-0.2,1.5-0.6c0.4,0.4,0.8,0.8,1.1,1.2
					c0.7,0.8,1,0.9,1.9,0.1c2.1-2.1,4.3-4.2,6.4-6.2c0.2-0.2,0.4-0.4,0.7-0.6c0.1,0.4-0.2,0.6-0.5,0.9c-2.3,2.2-4.5,4.4-6.8,6.6
					c-0.3,0.3-0.5,0.5-0.8,0.8c-0.4,0.4-0.7,0.4-1.1,0c-0.3-0.2-0.5-0.5-0.7-0.7s-0.4-0.5-0.7-0.7c-0.9,0.4-1.8,0.4-2.8,0.2
					c-0.5-0.1-1.1-0.3-1.6-0.5s-1.1-0.3-1.6-0.3c-2,0-4.1-0.1-6.1-0.1c-0.7,0-1.3-0.2-1.8-0.6C487.9,177.7,487.7,176.1,488.7,174.7z
					"/>
				<path class="st45" d="M494.4,159.8c0.2-4.2-2.7-8.4-7.2-9.6c-3.2-0.8-6.2-0.1-8.7,2c-0.2,0.2-0.4,0.5-0.7,0.5
					c0.3-0.8,1-1.3,1.6-1.8c2.1-1.6,4.4-2.4,7.1-2c3,0.4,5.4,1.8,7.1,4.4c1.2,1.8,1.7,3.8,1.5,5.9C495,159.7,495,159.7,494.4,159.8z
					"/>
				<path class="st45" d="M487.3,167.9c-0.7-0.7-1.3-1.4-2-2c-0.3-0.3-0.5-0.4-0.9-0.4c-3.9-0.2-6.8-4.4-4.9-8.5l0.1-0.1
					c0.2,0.1,0.1,0.3,0,0.4c-0.5,3,0.9,5.5,3.4,6.6c0.6,0.3,1.3,0.5,2,0.4c0.3,0,0.6,0.1,0.8,0.3c0.9,1,1.8,1.9,2.8,2.9
					C488.1,167.8,487.7,168,487.3,167.9z"/>
			</g>
			<g>
				<path class="st46" d="M393.5,71.5c-0.3,2.2-0.6,4.3-0.8,6.5c-0.2,0-0.4,0-0.5-0.1c-0.2,0-0.3,0-0.5-0.1c0.2-1.8,0.5-3.5,0.7-5.2
					c-0.5,0.9-1,1.8-1.5,2.7c-0.4,0.7-0.8,1.4-1.2,2.1c-0.1,0.1-0.1,0.1-0.2,0.1c-0.6-0.1-0.6-0.1-0.7-0.6c-0.4-1.5-0.8-2.9-1.1-4.4
					c-0.1-0.2-0.1-0.4-0.1-0.6c-0.2,1.7-0.5,3.5-0.7,5.3c-0.3,0-0.7-0.1-1-0.1c0-0.1,0-0.2,0-0.2c0.3-2,0.5-4,0.8-6.1
					c0-0.2,0.1-0.2,0.3-0.2c0.4,0.1,0.8,0.1,1.1,0.2c0.1,0,0.2,0.1,0.2,0.2c0.4,1.7,0.8,3.4,1.3,5.1l0,0c0.1-0.3,0.3-0.5,0.4-0.8
					c0.7-1.3,1.4-2.5,2.1-3.8c0.1-0.1,0.2-0.2,0.3-0.2C392.7,71.4,393.1,71.4,393.5,71.5z"/>
				<path class="st47" d="M412.9,59.7c0.5,0.7,0.7,1.4,0.7,2.2c0,1.6-1,2.9-2.4,3.4c-2.3,0.9-4.9-0.8-5-3.2c0.3-0.1,0.6-0.2,0.9-0.3
					l0.1-0.1c0.1,0,0.2,0,0.3,0.1c0,0,0,0.1,0,0.2v0.1c0,0.1,0.1,0.2,0,0.3c-0.1,0.4,0,0.7,0,1.1c0,0.2,0.2,0.2,0.3,0.1
					c0.1-0.1,0.3-0.3,0.3-0.4c0.1-0.2,0.2-0.2,0.3-0.3c0,0.2-0.1,0.3-0.1,0.5c0.2-0.1,0.3-0.3,0.3-0.6c-0.1,0-0.1,0.1-0.2,0.1
					c0-0.1,0-0.1,0-0.2c-0.1-0.2,0-0.3,0.2-0.5s0.3-0.3,0.4-0.5c-0.1-0.1-0.3-0.1-0.3-0.2c-0.1-0.2-0.2-0.5-0.1-0.8l0,0
					c0,0.1,0.1,0.1,0.1,0.2c0,0.2,0.1,0.4,0.1,0.7c0.2-0.1,0.4-0.3,0.6-0.4c-0.1-0.1-0.4-0.2-0.3-0.4c0.1,0.1,0.2,0.2,0.3,0.2
					c0.4,0.1,0.5,0.3,0.5,0.7c0,0.1,0,0.2,0,0.3c0.1-0.1,0.1-0.1,0.1-0.1c0.1-0.1,0.2-0.3,0.3-0.4c0,0,0.2-0.1,0.2,0
					c0.1,0.1,0.2,0.3,0.2,0.4c0.1,0.1,0.2,0.1,0.4,0.2c0-0.1,0-0.2,0-0.3s0-0.2,0.1-0.3c0.2-0.1,0.3-0.2,0.4-0.4
					c0-0.1-0.1-0.3-0.1-0.4c0-0.1,0-0.1,0-0.2c0,0,0,0,0.1,0c0.1,0.1,0.2,0.2,0.3,0.3c0-0.1,0-0.2,0-0.3c0.3-0.1,0.3-0.2,0.1-0.4
					c0,0-0.1-0.1-0.1-0.2c0.2,0,0.3,0,0.5,0c0,0,0,0.1,0.1,0.1s0.1-0.1,0.2-0.1c0-0.1-0.1-0.1-0.1-0.2
					C412.7,59.8,412.8,59.7,412.9,59.7z M412.8,63.3C412.9,63.3,412.9,63.3,412.8,63.3C412.9,63.3,412.9,63.3,412.8,63.3
					c-0.1-0.3-0.3-0.5-0.6-0.5C412.3,63.1,412.6,63.2,412.8,63.3z M412.1,63.1c-0.1,0-0.2,0-0.2,0c-0.2,0.1-0.3,0.2-0.5,0.3
					s-0.2,0.2-0.2,0.4c0,0.3,0,0.3,0.3,0.2s0.4,0,0.6,0.2c0,0.1,0.1,0.1,0.2,0.1l0.1-0.1c0.1-0.2,0.2-0.4,0.1-0.7
					c-0.1-0.1-0.1-0.2-0.1-0.4C412.3,63.4,412.3,63.4,412.1,63.1C412.1,63.3,412.1,63.2,412.1,63.1z M411.6,62.3
					c-0.1,0.1-0.2,0.1-0.3,0.1c0,0-0.1,0-0.1,0.1c0,0,0,0.1,0.1,0.1s0.2,0,0.2,0C411.7,62.6,411.7,62.5,411.6,62.3z M411.1,62.8
					c0.1-0.2-0.1-0.4-0.3-0.5C410.9,62.5,411,62.6,411.1,62.8z"/>
				<path class="st48" d="M424.7,82.1c0.3-2.1,0.6-4.3,0.8-6.4c0,0,0,0,0.1,0c0.9,0.1,1.8,0.2,2.8,0.4c0.8,0.2,1.6,0.6,2,1.4
					c0.4,0.7,0.4,1.4,0.3,2.1c-0.3,1.7-1.6,2.9-3.4,2.8C426.4,82.4,425.5,82.3,424.7,82.1z M425.9,81.4c0.4,0,0.7,0.1,1.1,0.1
					c1,0.1,1.8-0.3,2.2-1.1c0.3-0.6,0.4-1.3,0.3-2c-0.1-0.5-0.4-0.9-0.9-1.2c-0.6-0.3-1.3-0.3-2-0.4
					C426.3,78.3,426.1,79.8,425.9,81.4z"/>
				<path class="st49" d="M421.1,76.4c-0.5-0.4-1.1-0.7-1.7-0.7c-1.3-0.2-2.5,0.7-2.7,2c-0.1,0.5-0.1,1,0.1,1.6
					c0.3,0.8,0.9,1.2,1.7,1.3c0.3,0,0.7,0,1-0.1c0.1,0,0.1-0.1,0.1-0.1c0.1-0.5,0.1-0.9,0.2-1.4c-0.5-0.1-0.9-0.1-1.4-0.2
					c0-0.3,0.1-0.6,0.1-0.9c0.8,0.1,1.6,0.2,2.4,0.3c-0.1,0.5-0.1,0.9-0.2,1.4s-0.1,1-0.2,1.6c0,0.1-0.1,0.2-0.1,0.2
					c-1.3,0.4-2.5,0.4-3.7-0.3c-0.9-0.5-1.4-1.4-1.4-2.5c0-1,0.2-2,1-2.7c0.9-0.9,1.9-1.2,3.1-1c0.5,0.1,1,0.2,1.5,0.5
					c0.1,0.1,0.2,0.1,0.1,0.2C421.1,75.8,421.1,76.1,421.1,76.4z"/>
				<path class="st50" d="M425.6,63c0.5,0.5,1,1,1.5,1.5c-0.5,0.3-0.9,0.5-1.3,0.8c-3.3,1.8-6.8,3.1-10.5,3.7c-2.5,0.4-5,0.4-7.5,0
					c-0.2,0-0.4-0.1-0.6-0.1s-0.4-0.1-0.5-0.1c6.6,1,12.4-0.9,17.9-4.5c-0.2-0.2-0.3-0.3-0.5-0.5l0.1-0.1c0.3-0.1,0.6-0.3,0.9-0.4
					C425.4,63.1,425.5,63,425.6,63z"/>
				<path class="st51" d="M413.1,52.4c0.3-2.3,0.6-4.5,0.9-6.8c1,0.4,2,0.7,3.1,1.1c-0.1,0.2-0.2,0.4-0.3,0.6
					c-0.8,1.8-1.5,3.5-2.3,5.3c0,0.1-0.1,0.2-0.2,0.1C413.9,52.6,413.5,52.5,413.1,52.4z"/>
				<path class="st52" d="M406.6,79.8c-0.5-0.1-0.9-0.1-1.3-0.2c-0.1,0-0.2-0.1-0.2-0.2c-0.4-0.7-0.9-1.4-1.3-2.1c0,0,0-0.1-0.1-0.1
					c-0.1,0.8-0.2,1.5-0.3,2.2c-0.4,0-0.7-0.1-1.1-0.1c0.3-2.3,0.6-4.6,0.9-6.9c0.3,0,0.7,0.1,1,0.1c-0.2,1.4-0.4,2.9-0.6,4.3l0,0
					c0.2-0.2,0.4-0.4,0.6-0.6c0.4-0.4,0.8-0.8,1.2-1.1c0.1-0.1,0.2-0.1,0.3-0.1c0.4,0,0.7,0.1,1.1,0.1c-0.8,0.7-1.5,1.3-2.2,2
					C405.4,78,406,78.9,406.6,79.8z"/>
				<path class="st53" d="M421.4,55.8c0.6-0.4,1.2-0.8,1.8-1.2c1.2-0.8,2.4-1.6,3.6-2.4c0.1-0.1,0.2-0.1,0.2,0
					c0.7,0.5,1.4,1.1,2.1,1.6c0,0,0,0,0.1,0.1c-0.7,0.3-1.4,0.6-2.1,0.8c-1.5,0.6-3.1,1.2-4.6,1.8c-0.2,0.1-0.3,0.1-0.4-0.1
					C421.9,56.3,421.7,56,421.4,55.8z"/>
				<path class="st54" d="M410.8,79.2c0,0.2-0.1,0.4-0.1,0.6s-0.1,0.3-0.3,0.3c-0.8,0.2-1.5,0.2-2.2-0.1c-0.5-0.2-0.9-0.6-1.1-1.1
					c-0.3-0.9-0.2-1.8,0.3-2.6c0.6-0.9,1.8-1.2,2.8-0.7c0.7,0.4,1,1,1,1.8c0,0.3,0,0.6-0.1,1c-1.1-0.1-2.1-0.3-3.2-0.4
					c-0.1,0.5,0.1,1.1,0.6,1.3c0.6,0.3,1.2,0.3,1.8,0.1C410.6,79.3,410.7,79.3,410.8,79.2z M410.4,77.5c0.1-0.6-0.2-1.2-0.7-1.3
					c-0.7-0.2-1.3,0.3-1.4,1C409,77.3,409.7,77.4,410.4,77.5z"/>
				<path class="st55" d="M394.7,74.8c0-0.3,0.1-0.6,0.1-0.8c0-0.1,0.1-0.1,0.1-0.1c0.8-0.3,1.6-0.3,2.4,0c0.6,0.2,0.8,0.7,0.8,1.3
					c0,0.2,0,0.4,0,0.6c-0.1,0.9-0.2,1.7-0.3,2.6c0,0.1,0,0.1,0,0.2c-0.3,0-0.7-0.1-1-0.1c0-0.2,0.1-0.4,0.1-0.7
					c-0.2,0.1-0.3,0.3-0.4,0.4c-0.6,0.4-1.5,0.4-2-0.1c-0.4-0.4-0.5-0.8-0.4-1.4c0.1-0.5,0.4-1,1-1.1c0.4-0.1,0.9-0.1,1.4-0.1
					c0.2,0,0.5,0,0.7,0c0.2-0.5-0.1-1-0.7-1.1c-0.5-0.1-1,0-1.5,0.3C394.8,74.7,394.8,74.8,394.7,74.8z M397,76.3
					c-0.1,0-0.2,0-0.3,0c-0.4,0-0.8,0-1.2,0.1c-0.3,0-0.4,0.3-0.5,0.6c0,0.3,0.1,0.5,0.3,0.7c0.4,0.2,0.9,0.1,1.2-0.2
					C396.9,77.1,396.9,76.7,397,76.3z"/>
				<path class="st46" d="M412.9,75.9c0-0.3,0.1-0.6,0.1-0.9c0-0.1,0.1-0.1,0.1-0.1c0.3-0.1,0.6-0.1,1-0.1c-0.1,0.5-0.1,0.9-0.2,1.4
					c0.4,0,0.7,0.1,1.1,0.1c0,0.3-0.1,0.6-0.1,0.8c-0.4,0-0.7-0.1-1.1-0.1c0,0.2,0,0.3-0.1,0.5c-0.1,0.6-0.2,1.2-0.2,1.8
					c0,0.1,0,0.1,0,0.2c0,0.6,0.4,0.9,0.9,0.7h0.1c0,0.3-0.1,0.5-0.1,0.7l-0.1,0.1c-0.5,0.1-1,0-1.4-0.2s-0.5-0.6-0.5-1.1
					c0.1-0.9,0.2-1.7,0.3-2.5c0-0.1,0-0.1,0-0.2c-0.3,0-0.5-0.1-0.8-0.1c0-0.3,0.1-0.6,0.1-0.9C412.4,75.9,412.7,75.9,412.9,75.9z"
					/>
				<path class="st56" d="M423.1,82c-0.4,0-0.7-0.1-1.1-0.1c0.3-2.2,0.6-4.3,0.8-6.5c0.4,0,0.7,0.1,1.1,0.1
					C423.7,77.6,423.4,79.8,423.1,82z"/>
				<path class="st57" d="M423.1,50.4c-0.3,0.3-0.6,0.5-0.8,0.8c-0.5,0.5-1.1,1-1.6,1.5c-0.6,0.6-1.2,1.1-1.9,1.7
					c0,0-0.1,0.1-0.2,0.1c-0.4-0.2-0.8-0.4-1.2-0.7c0.4-0.6,0.9-1.2,1.3-1.7h0.1c0.8-0.3,1.7-0.7,2.5-1c0.6-0.2,1.1-0.5,1.7-0.7
					C423,50.2,423.1,50.2,423.1,50.4z"/>
				<path class="st58" d="M396,55.8c0.8-0.4,1.6-0.8,2.4-1c0.7-0.2,1.5-0.4,2.2-0.7c0.1,0,0.1,0,0.2,0c-2,0.9-3.9,2.1-5.4,3.8
					c0.3,0.3,0.5,0.6,0.8,1c-0.1,0.1-0.2,0.3-0.2,0.4c-0.2,0.4-0.3,0.9-0.5,1.3c-0.4-0.4-0.8-0.8-1.2-1.2l0.1-0.1
					c0.2-0.4,0.3-0.9,0.6-1.3c0.4-0.6,0.8-1.3,1.1-1.9C396,55.9,396,55.9,396,55.8z"/>
				<path class="st46" d="M400,79c-0.4,0-0.7-0.1-1.1-0.1c0.2-1.5,0.4-3.1,0.6-4.6c0.3,0,0.7,0.1,1,0.1c0,0.3-0.1,0.6-0.1,0.8
					c0.2-0.2,0.3-0.4,0.5-0.6c0.3-0.3,0.7-0.3,1.1-0.1c0.1,0,0.2,0.1,0.1,0.2c0,0.3-0.1,0.6-0.1,0.8c-0.2-0.1-0.4-0.2-0.6-0.2
					c-0.5,0-1,0.4-1.1,1c-0.1,0.3-0.1,0.6-0.2,0.9C400.2,77.8,400.1,78.4,400,79z"/>
				<path class="st59" d="M423.1,50.4c0-0.2-0.1-0.2-0.2-0.1c-0.6,0.2-1.1,0.5-1.7,0.7c-0.8,0.3-1.6,0.7-2.5,1h-0.1
					c0.4-0.5,0.8-1.1,1.1-1.6c0.4-0.6,0.8-1.2,1.3-1.7l0.1-0.1c0.8,0.5,1.6,0.9,2.5,1.4C423.4,50.1,423.3,50.2,423.1,50.4z"/>
				<path class="st47" d="M420.4,60.4c-0.4-0.3-0.7-0.5-1.1-0.8c-0.6-0.4-1.3-0.8-2-1.2c0,0-0.1,0-0.1-0.1c0.1,0,0.1-0.1,0.2-0.1
					c0.3-0.1,0.7-0.3,1.1-0.4l0.1-0.1c1.2,0.6,2.2,1.3,3.3,2.1l-0.1,0.1C421.3,60,420.8,60.2,420.4,60.4z"/>
				<path class="st60" d="M407.1,61.7c0,0,0,0.1-0.1,0.1c-0.3,0.1-0.6,0.2-0.9,0.3c-0.2-1.6,0.8-3.2,2.4-3.8
					c0.8-0.3,1.5-0.3,2.3-0.1h0.1l-0.1,0.1c-0.5,0.2-1,0.4-1.5,0.6c-0.1,0-0.1,0.1-0.1,0.2h-0.1c-0.1,0-0.2,0-0.3,0
					c-0.2,0.1-0.4,0.1-0.6,0.2v0.1l0,0l-0.1,0.1c-0.1,0.2-0.2,0.4-0.4,0.3c0,0-0.1,0.1-0.1,0.2c0.1,0,0.1,0.1,0.2,0
					c0.1,0,0.1-0.1,0.2-0.1c0.3-0.1,0.3-0.1,0.4,0.2c0-0.1,0-0.1,0.1-0.1l0,0c0,0.1,0,0.2,0.1,0.2c0,0,0.1-0.1,0.2-0.2
					c0,0.1,0,0.2,0,0.2c0.1,0,0.1,0,0.2,0.1c0,0,0,0,0,0.1c-0.1,0-0.2,0.1-0.2,0.1c-0.2-0.1-0.5,0.1-0.7-0.3c0,0,0,0-0.1,0
					c-0.3-0.1-0.6-0.1-0.8,0.2c-0.1,0.1-0.2,0.3-0.3,0.4C406.6,61.3,406.7,61.6,407.1,61.7z"/>
				<path class="st61" d="M418.6,57.6C418.5,57.7,418.5,57.7,418.6,57.6c-0.4,0.2-0.8,0.4-1.2,0.5c-0.1,0-0.1,0.1-0.2,0.1
					c-0.4-0.2-0.8-0.4-1.2-0.6c-0.8-0.3-1.6-0.7-2.3-1l0.1-0.1c0.2-0.1,0.5-0.2,0.7-0.3c0.1-0.1,0.2-0.1,0.4-0.2
					C416.2,56.5,417.4,57,418.6,57.6z"/>
				<path class="st62" d="M420.4,60.4c0.4-0.2,0.9-0.4,1.3-0.5c0.1,0,0.1-0.1,0.1-0.1c0.7,0.6,1.4,1.1,2.1,1.7
					c-0.2,0.1-0.5,0.2-0.7,0.3s-0.5,0.2-0.7,0.3c-0.4-0.4-0.8-0.7-1.3-1.1C420.9,60.8,420.7,60.6,420.4,60.4z"/>
				<path class="st63" d="M396,55.8c0,0.1,0,0.2,0,0.2c-0.4,0.6-0.8,1.3-1.1,1.9c-0.2,0.4-0.4,0.9-0.6,1.3c0,0.1-0.1,0.1-0.1,0.1
					c-0.4-0.5-0.9-1-1.4-1.5c0.3-0.2,0.5-0.4,0.7-0.5c0.7-0.5,1.5-1,2.2-1.4C395.9,55.9,396,55.8,396,55.8z"/>
				<path class="st64" d="M414.9,56.1c-0.1,0.1-0.2,0.2-0.4,0.2c-0.2,0.1-0.5,0.2-0.7,0.3l-0.1,0.1c-1.4-0.5-2.9-0.8-4.4-1
					c0-0.1,0.1-0.1,0.1-0.1c0.1-0.1,0.2-0.1,0.3-0.1c0.1-0.1,0.3-0.2,0.4-0.2c1.6,0.1,3.1,0.4,4.6,0.9C414.8,56,414.9,56,414.9,56.1
					z"/>
				<path class="st65" d="M422.5,62.1c0.2-0.1,0.5-0.2,0.7-0.3s0.5-0.2,0.7-0.3c0.6,0.5,1.1,1,1.7,1.6c-0.1,0.1-0.2,0.2-0.4,0.2
					c-0.3,0.1-0.6,0.3-0.9,0.4l-0.1,0.1C423.6,63.1,423,62.6,422.5,62.1z"/>
				<path class="st66" d="M410.2,55.1c-0.1,0.1-0.3,0.2-0.4,0.2c-0.1,0.1-0.2,0.1-0.3,0.1c-0.1,0-0.1,0.1-0.1,0.1
					c-0.2,0-0.5,0-0.7,0c-1.9-0.1-3.8,0.1-5.6,0.5c-0.5,0.1-0.9,0.3-1.4,0.4c-0.1,0-0.1,0-0.2,0c0,0,0,0,0-0.1
					c0.8-0.3,1.6-0.5,2.4-0.8c1.5-0.4,3.1-0.7,4.7-0.7C409,55,409.6,55.1,410.2,55.1z"/>
				<path class="st67" d="M395.4,60.5c0.2-0.4,0.3-0.9,0.5-1.3c0.1-0.1,0.2-0.3,0.2-0.4c0.4,0.5,0.8,0.9,1.2,1.4
					c-0.2,0.5-0.3,1-0.5,1.5C396.4,61.3,395.9,60.9,395.4,60.5z"/>
				<path class="st61" d="M409.1,59.2c0-0.1,0.1-0.1,0.1-0.2c0.5-0.2,1-0.4,1.5-0.6l0.1-0.1c0.8,0.2,1.5,0.7,1.9,1.4
					c-0.1,0.1-0.2,0.1-0.3,0.2c-0.3-0.1-0.6-0.2-0.9-0.3s-0.7-0.2-1-0.3c0,0,0,0-0.1,0c-0.2,0-0.4,0.1-0.6,0.1s-0.3,0-0.5,0
					C409.4,59.3,409.3,59.3,409.1,59.2z"/>
				<path class="st68" d="M396.9,61.7c0.2-0.5,0.3-1,0.5-1.5c0.5,0.5,0.9,0.9,1.4,1.4c-0.1,0.3-0.2,0.6-0.2,0.9
					c0,0.1-0.1,0.2-0.1,0.3C397.9,62.4,397.4,62,396.9,61.7z"/>
				<path class="st69" d="M398.4,62.8c0-0.1,0.1-0.2,0.1-0.3c0.1-0.3,0.2-0.6,0.2-0.9c0.6,0.5,1.2,1,1.8,1.5c0,0.1-0.1,0.1-0.1,0.2
					c0,0.2-0.1,0.4-0.1,0.6C399.8,63.5,399.1,63.1,398.4,62.8z"/>
				<path class="st70" d="M400.4,63.9c0-0.2,0.1-0.4,0.1-0.6c0-0.1,0-0.1,0.1-0.2c0.6,0.4,1.3,0.8,1.9,1.2c0,0.1,0,0.1,0,0.2
					s0,0.1-0.1,0.2C401.8,64.5,401.1,64.2,400.4,63.9z"/>
				<path class="st71" d="M402.4,64.7c0-0.1,0.1-0.1,0.1-0.2s0-0.1,0-0.2c0.5,0.2,1,0.5,1.5,0.7c0.6,0.3,1.3,0.5,1.9,0.7
					c0.1,0,0.2,0.1,0.3,0.1c0,0,0,0,0,0.1c-0.1,0-0.2,0-0.2-0.1c-1.1-0.2-2.3-0.6-3.4-1C402.5,64.8,402.5,64.8,402.4,64.7z"/>
				<path class="st72" d="M409.1,59.2c0.1,0.1,0.3,0.1,0.4,0.1c0.2,0,0.3,0,0.5,0s0.4-0.1,0.6-0.1c0,0,0,0,0.1,0
					c0.3,0.1,0.7,0.2,1,0.3s0.6,0.2,0.9,0.3c0,0.1,0.1,0.1,0.1,0.2c-0.1,0-0.1,0.1-0.2,0.1l-0.1-0.1c-0.2,0-0.3,0-0.5,0
					c0,0.1,0.1,0.1,0.1,0.2c0.2,0.2,0.2,0.3-0.1,0.4c0,0.1,0,0.2,0,0.3c-0.1-0.1-0.2-0.2-0.3-0.3c0,0,0,0-0.1,0c0,0.1,0,0.1,0,0.2
					c0,0.1,0.2,0.3,0.1,0.4c-0.1,0.2-0.2,0.3-0.4,0.4c-0.2,0.1-0.2,0.1-0.1,0.3c0,0.1,0,0.2,0,0.3c-0.1-0.1-0.2-0.2-0.4-0.2
					c-0.1-0.1-0.1-0.3-0.2-0.4c0,0-0.1,0-0.2,0c-0.1,0.1-0.2,0.3-0.3,0.4c0,0,0,0-0.1,0.1c0-0.1,0-0.2,0-0.3c0-0.3-0.1-0.6-0.5-0.7
					c-0.1,0-0.2-0.1-0.3-0.2c-0.1,0.2,0.1,0.3,0.3,0.4c-0.2,0.1-0.4,0.2-0.6,0.4c0-0.2-0.1-0.5-0.1-0.7c0-0.1-0.1-0.1-0.1-0.2l0,0
					l0,0c-0.1,0.3,0,0.5,0.1,0.8c0,0.1,0.2,0.1,0.3,0.2c-0.1,0.2-0.3,0.4-0.4,0.5s-0.2,0.3-0.2,0.5c0,0.1,0,0.1,0,0.2l0,0
					c-0.1,0.1-0.2,0.2-0.3,0.3c-0.1,0.2-0.2,0.3-0.3,0.4c-0.1,0.1-0.3,0-0.3-0.1c-0.1-0.4-0.2-0.7,0-1.1c0-0.1,0-0.2,0-0.3v-0.1
					c0-0.1,0-0.2,0-0.2c-0.1-0.1-0.2-0.1-0.3-0.1c-0.4,0-0.6-0.3-0.4-0.7c0.1-0.2,0.2-0.3,0.3-0.4c0.2-0.3,0.5-0.3,0.8-0.2h0.1
					c0.1,0.3,0.4,0.2,0.7,0.3c0.1,0,0.2-0.1,0.2-0.1s0,0,0-0.1c-0.1,0-0.1,0-0.2-0.1c0-0.1,0-0.1,0-0.2c-0.1,0.1-0.1,0.1-0.2,0.2
					c0-0.1,0-0.2-0.1-0.2c0,0,0-0.1-0.1-0.1l0,0c0,0,0,0.1,0.1,0.1c0,0,0,0.1-0.1,0.1c-0.1-0.3-0.1-0.3-0.4-0.2
					c-0.1,0-0.1,0.1-0.2,0.1s-0.1,0-0.2,0c0-0.1,0.1-0.2,0.1-0.2c0.3,0,0.3-0.2,0.4-0.3l0.1-0.1v0.1h0.1c0.2,0,0.4,0,0.6,0
					c-0.1-0.1-0.1-0.1-0.2-0.2l0,0C408.7,59.4,408.9,59.3,409.1,59.2L409.1,59.2z M408.8,59.6L408.8,59.6L408.8,59.6L408.8,59.6
					L408.8,59.6z"/>
				<path class="st72" d="M412.1,63.1c0,0.1,0,0.1-0.1,0.2c0.2,0.2,0.2,0.2,0.3-0.1c0,0.2,0.1,0.3,0.1,0.4c0.2,0.3,0,0.5-0.1,0.7
					l-0.1,0.1c-0.1,0-0.2,0-0.2-0.1c-0.1-0.2-0.3-0.3-0.6-0.2c-0.3,0.1-0.3,0.1-0.3-0.2c0-0.2,0-0.3,0.2-0.4
					c0.2-0.1,0.3-0.2,0.5-0.3C412,63.1,412,63.1,412.1,63.1z"/>
				<path class="st72" d="M412.8,63.3c-0.3-0.1-0.5-0.2-0.6-0.5C412.5,62.8,412.8,63,412.8,63.3L412.8,63.3z"/>
				<path class="st72" d="M411.6,62.3c0.1,0.1,0,0.3-0.1,0.4h-0.2l-0.1-0.1l0.1-0.1C411.5,62.4,411.6,62.4,411.6,62.3z"/>
				<path class="st72" d="M408.5,62.9c0.1,0,0.1-0.1,0.2-0.1c0,0.3-0.2,0.5-0.3,0.6C408.5,63.2,408.5,63,408.5,62.9L408.5,62.9z"/>
				<path class="st72" d="M411.1,62.8c-0.1-0.2-0.2-0.3-0.3-0.5C411,62.4,411.1,62.6,411.1,62.8z"/>
				<path class="st72" d="M412.8,63.3C412.9,63.3,412.9,63.3,412.8,63.3C412.9,63.3,412.9,63.3,412.8,63.3L412.8,63.3z"/>
				<path class="st61" d="M408.1,59.6L408.1,59.6L408.1,59.6v-0.2c0.2-0.1,0.4-0.2,0.6-0.2c0.1,0,0.2,0,0.3,0
					c-0.2,0.1-0.3,0.1-0.5,0.2c0,0,0,0-0.1,0h0.1c0,0,0.1,0.1,0.2,0.2C408.6,59.7,408.4,59.7,408.1,59.6
					C408.2,59.7,408.2,59.7,408.1,59.6z"/>
				<path class="st72" d="M408.2,59.5L408.2,59.5L408.2,59.5z"/>
				<path class="st60" d="M408.4,60.1c0,0,0-0.1-0.1-0.1l0,0C408.4,60,408.4,60,408.4,60.1L408.4,60.1z"/>
				<path class="st60" d="M408.6,59.5C408.6,59.5,408.5,59.5,408.6,59.5C408.5,59.5,408.6,59.5,408.6,59.5L408.6,59.5z"/>
				<path class="st60" d="M408.1,59.6C408.2,59.7,408.2,59.7,408.1,59.6C408.2,59.7,408.2,59.7,408.1,59.6z"/>
				<path class="st60" d="M408.8,59.6L408.8,59.6L408.8,59.6L408.8,59.6L408.8,59.6z"/>
				<path class="st47" d="M408.7,60.7L408.7,60.7L408.7,60.7L408.7,60.7z"/>
			</g>
			<g>
				<path class="st73" d="M252.5,63.9c-0.1,3.9-3.2,6.9-7.1,6.9c-3.9-0.1-6.9-3.2-6.9-7.1c0.1-3.9,3.2-6.9,7.1-6.9
					C249.5,56.8,252.5,60,252.5,63.9"/>
				<path class="st74" d="M269.7,80.1c-0.1,4.7-3.9,8.4-8.6,8.4c-4.7-0.1-8.4-3.9-8.4-8.6c0.1-4.7,3.9-8.4,8.6-8.4
					C266,71.5,269.8,75.4,269.7,80.1"/>
				<path class="st75" d="M266.9,64.1c0,3-2.5,5.4-5.5,5.4S256,67,256,64s2.5-5.4,5.5-5.4C264.6,58.6,267,61.1,266.9,64.1"/>
				<path class="st76" d="M249.2,79.8c0,2.2-1.8,3.9-4,3.9s-3.9-1.8-3.9-4s1.8-3.9,4-3.9S249.3,77.6,249.2,79.8"/>
			</g>
			<g>
				<g>
					<g>
						<defs>
							<path id="SVGID_5_" d="M487.8,105.3c-1-0.4-2.2-0.9-3.2-1.1l-6.3,14.2l5.8,2.6l3.6-8.1c1.7,1.2,2.8,3,3.2,5.1l3.7,1.7
								l2.2-4.9C495.5,110.6,492.4,107.3,487.8,105.3L487.8,105.3L487.8,105.3z"/>
						</defs>
						<clipPath id="SVGID_6_">
							<use xlink:href="#SVGID_5_"  style="overflow:visible;"/>
						</clipPath>
						
							<rect id="XMLID_96_" x="471.7" y="97.2" transform="matrix(0.2077 -0.9782 0.9782 0.2077 275.328 568.4852)" class="st77" width="33.8" height="34.2"/>
					</g>
				</g>
				<g>
					<g>
						<defs>
							<path id="SVGID_7_" d="M484.8,118.2c1.8-4.1,2-8.1,0.8-11.6l-6,3.2c0.3,1.8,0,3.7-0.8,5.8c-1.8,3.9-5.9,6.1-10,5.6l-2.2,5.1
								l3.9,1.8C476.5,127.7,482.2,124.1,484.8,118.2L484.8,118.2L484.8,118.2z"/>
						</defs>
						<clipPath id="SVGID_8_">
							<use xlink:href="#SVGID_7_"  style="overflow:visible;"/>
						</clipPath>
						
							<rect id="XMLID_93_" x="462.1" y="95.2" transform="matrix(0.2077 -0.9782 0.9782 0.2077 264.039 560.3361)" class="st78" width="31.7" height="44"/>
					</g>
				</g>
				<g>
					<g>
						<defs>
							<path id="SVGID_9_" d="M473.6,103.3c-1-0.1-2.1-0.3-3.1-0.8c-1-0.4-1.9-1-2.7-1.8l-3.9-1.8l-2.2,5.1c1.5,2,3.6,3.5,6.1,4.7
								c2.4,1.1,5,1.6,7.5,1.4L473.6,103.3L473.6,103.3L473.6,103.3z"/>
						</defs>
						<clipPath id="SVGID_10_">
							<use xlink:href="#SVGID_9_"  style="overflow:visible;"/>
						</clipPath>
						
							<rect id="XMLID_90_" x="452.7" y="92.5" transform="matrix(0.2077 -0.9782 0.9782 0.2077 268.7364 542.4314)" class="st79" width="33.1" height="25.6"/>
					</g>
				</g>
				<g>
					<g>
						<defs>
							<path id="SVGID_11_" d="M482.7,96.3c1-2.2,2.7-3.8,4.8-4.8l-2.4-6.2c-3.6,1.5-6.6,4.3-8.4,8.3c-2.6,5.9-1.5,12.5,2.3,17.1
								l6.1-3.3C482.1,104.7,481,100.2,482.7,96.3L482.7,96.3L482.7,96.3z"/>
						</defs>
						<clipPath id="SVGID_12_">
							<use xlink:href="#SVGID_11_"  style="overflow:visible;"/>
						</clipPath>
						
							<rect id="XMLID_87_" x="466.2" y="76" transform="matrix(0.2077 -0.9782 0.9782 0.2077 286.0652 549.2404)" class="st80" width="31.7" height="44.1"/>
					</g>
				</g>
			</g>
			<path id="vk_x5F_alt_14_" class="st81" d="M552.2,86.2h2c0,0,0.6-0.1,0.9-0.4c0.3-0.3,0.3-0.9,0.3-0.9s0-2.6,1.2-3
				s2.7,2.6,4.3,3.7c1.2,0.9,2.2,0.7,2.2,0.7h4.4c0,0,2.3-0.1,1.2-1.9c-0.1-0.1-0.6-1.3-3.2-3.8c-2.7-2.6-2.3-2.2,1-6.5
				c2.1-2.7,2.9-4.3,2.6-5c-0.2-0.7-1.7-0.5-1.7-0.5h-4.9c0,0-0.4-0.1-0.6,0.1c-0.3,0.2-0.4,0.5-0.4,0.5s-0.8,2.1-1.9,3.8
				c-2.2,3.7-3.1,3.9-3.5,3.6c-0.8-0.6-0.6-2.2-0.6-3.3c0.1-3.6,0.6-5.1-1-5.5c-0.5-0.1-0.9-0.2-2.3-0.3c-1.8,0-3.2,0-4.1,0.4
				c-0.6,0.3-1,0.9-0.7,0.9s1.1,0.2,1.4,0.8c0.5,0.7,0.5,2.2,0.5,2.2s0.2,4.3-0.7,4.8c-0.7,0.4-1.6-0.4-3.5-3.8
				c-1-1.7-1.7-3.7-1.7-3.7s-0.1-0.4-0.4-0.6c-0.3-0.2-0.8-0.3-0.8-0.3h-4.7c0,0-0.7,0-1,0.3c-0.2,0.3,0,0.8,0,0.8s3.5,8.6,7.6,13
				C547.9,86.4,552.2,86.2,552.2,86.2L552.2,86.2L552.2,86.2z"/>
			<path id="facebook_14_" class="st82" d="M434.3,134.3l0.2-14.3l4.8,0.1l0.8-5.6l-5.5-0.1l0.1-3.6c0-1.6,0.5-2.7,2.8-2.7h3l0.1-5
				c-0.5-0.1-2.3-0.3-4.3-0.3c-4.3-0.1-7.2,2.5-7.3,7.3l-0.1,4.1l-4.8-0.1l-0.1,5.6l4.8,0.1l-0.2,14.3L434.3,134.3z"/>
			<path id="twitter_14_" class="st83" d="M620.3,99.4c-1.1,0.4-2.2,0.7-3.4,0.9c1.2-0.7,2.2-1.8,2.6-3.2c-1.1,0.7-2.4,1.1-3.7,1.4
				c-1-1.1-2.6-1.9-4.2-1.9c-3.2,0-5.9,2.5-5.9,5.8c0,0.5,0,0.9,0.1,1.3c-4.8-0.3-9.1-2.7-11.9-6.3c-0.5,0.9-0.8,1.9-0.8,2.9
				c0,2,1,3.8,2.5,4.9c-1,0-1.9-0.3-2.6-0.8c0,0,0,0,0,0.1c0,2.8,1.9,5.2,4.6,5.8c-0.5,0.1-1,0.2-1.5,0.2c-0.4,0-0.7,0-1.1-0.1
				c0.7,2.3,2.8,4,5.4,4.1c-2,1.5-4.5,2.4-7.3,2.4c-0.5,0-0.9,0-1.4-0.1c2.6,1.7,5.6,2.7,8.9,2.8c10.7,0.2,16.7-8.7,16.8-16.4
				c0-0.3,0-0.5,0-0.8C618.5,101.6,619.5,100.6,620.3,99.4z"/>
			<path id="youtube_x5F_alt_8_" class="st26" d="M661.8,53.8c-0.4-1.7-1.8-3-3.4-3.2c-4-0.5-8.1-0.6-12.1-0.6
				c-4-0.1-8.1-0.1-12.1,0.3c-1.7,0.2-3.1,1.4-3.5,3.1c-0.6,2.4-0.6,5.1-0.7,7.6c0,2.5-0.1,5.2,0.5,7.6c0.4,1.7,1.8,3,3.4,3.2
				c4,0.5,8.1,0.6,12.1,0.6c4,0.1,8.1,0.1,12.1-0.3c1.7-0.2,3.1-1.4,3.5-3.1c0.6-2.4,0.6-5.1,0.7-7.6
				C662.3,58.9,662.3,56.2,661.8,53.8z M642.6,65.5l0.1-9l8.5,4.6L642.6,65.5z"/>
			<g id="instagram_8_">
				
					<linearGradient id="SVGID_13_" gradientUnits="userSpaceOnUse" x1="510.2302" y1="872.0984" x2="491.0495" y2="905.3203" gradientTransform="matrix(0.9176 0.3975 0.3975 -0.9176 -443.2383 639.8687)">
					<stop  offset="0" style="stop-color:#52509E"/>
					<stop  offset="0.3892" style="stop-color:#BD3F60"/>
					<stop  offset="0.8634" style="stop-color:#E6283C"/>
					<stop  offset="1" style="stop-color:#F5B159"/>
				</linearGradient>
				<path class="st84" d="M374.8,10.9c4.1,1.8,4.5,2,6.1,2.8c1.5,0.7,2.2,1.3,2.6,1.8c0.6,0.6,1,1.1,1.3,1.9s0.4,1.4,0.4,2.2
					c0,0.6-0.1,1.5-0.7,3.1s-0.8,2.1-2.6,6.2c-1.8,4.1-2,4.5-2.8,6.1c-0.7,1.5-1.3,2.2-1.8,2.6c-0.6,0.6-1.1,1-1.9,1.3
					s-1.4,0.4-2.2,0.4c-0.6,0-1.5-0.1-3.1-0.7c-1.6-0.6-2.1-0.8-6.2-2.6s-4.5-2-6.1-2.8c-1.5-0.7-2.2-1.3-2.6-1.8
					c-0.6-0.6-1-1.1-1.3-1.9s-0.4-1.4-0.4-2.2c0-0.6,0.1-1.5,0.7-3.1s0.8-2.1,2.6-6.2c1.8-4.1,2-4.5,2.8-6.1
					c0.7-1.5,1.3-2.2,1.8-2.6c0.6-0.6,1.1-1,1.9-1.3s1.4-0.4,2.2-0.4c0.6,0,1.5,0.1,3.1,0.7C370.2,8.9,370.7,9.1,374.8,10.9
					 M376,8.1c-4.1-1.8-4.7-2-6.3-2.6c-1.7-0.6-2.9-0.9-4-0.9c-1.2,0-2.2,0.1-3.5,0.6s-2.1,1.1-2.9,1.9s-1.5,1.8-2.3,3.4
					s-1,2.1-2.8,6.2s-2,4.7-2.6,6.3c-0.6,1.7-0.9,2.9-0.9,4c0,1.2,0.1,2.2,0.6,3.5c0.5,1.2,1.1,2.1,1.9,2.9c0.8,0.8,1.8,1.5,3.4,2.3
					s2.1,1,6.2,2.8s4.7,2,6.3,2.6c1.7,0.6,2.9,0.9,4,0.9c1.2,0,2.2-0.1,3.5-0.6c1.2-0.5,2.1-1.1,2.9-1.9c0.8-0.8,1.5-1.8,2.3-3.4
					c0.8-1.6,1-2.1,2.8-6.2s2-4.7,2.6-6.3c0.6-1.7,0.9-2.9,0.9-4c0-1.2-0.1-2.2-0.6-3.5c-0.5-1.2-1.1-2.1-1.9-2.9
					c-0.8-0.8-1.8-1.5-3.4-2.3C380.6,10.2,380.1,9.9,376,8.1L376,8.1z"/>
				
					<linearGradient id="SVGID_14_" gradientUnits="userSpaceOnUse" x1="504.8924" y1="881.3233" x2="496.3602" y2="896.1014" gradientTransform="matrix(0.9176 0.3975 0.3975 -0.9176 -443.2383 639.8687)">
					<stop  offset="0" style="stop-color:#52509E"/>
					<stop  offset="0.3892" style="stop-color:#BD3F60"/>
					<stop  offset="0.8634" style="stop-color:#E6283C"/>
					<stop  offset="1" style="stop-color:#F5B159"/>
				</linearGradient>
				<path class="st85" d="M372.8,15.6c-4.3-1.9-9.3,0.1-11.2,4.4c-1.9,4.3,0.1,9.3,4.4,11.2s9.3-0.1,11.2-4.4S377.1,17.4,372.8,15.6
					z M367.2,28.5c-2.8-1.2-4.1-4.5-2.9-7.3s4.5-4.1,7.3-2.9s4.1,4.5,2.9,7.3S370,29.7,367.2,28.5z"/>
				
					<linearGradient id="SVGID_15_" gradientUnits="userSpaceOnUse" x1="510.4401" y1="895.8131" x2="508.4463" y2="899.2665" gradientTransform="matrix(0.9176 0.3975 0.3975 -0.9176 -443.2383 639.8687)">
					<stop  offset="0" style="stop-color:#52509E"/>
					<stop  offset="0.3892" style="stop-color:#BD3F60"/>
					<stop  offset="0.8634" style="stop-color:#E6283C"/>
					<stop  offset="1" style="stop-color:#F5B159"/>
				</linearGradient>
				<circle class="st86" cx="381" cy="18.8" r="2"/>
			</g>
			<g>
				
					<linearGradient id="SVGID_16_" gradientUnits="userSpaceOnUse" x1="-234.8295" y1="209.606" x2="-207.012" y2="209.606" gradientTransform="matrix(1.4627 -0.4038 -0.4038 -1.4627 760.9797 342.8829)">
					<stop  offset="0" style="stop-color:#0067D0"/>
					<stop  offset="1" style="stop-color:#008FDD"/>
				</linearGradient>
				<circle class="st87" cx="353.2" cy="125.5" r="21.1"/>
				
					<linearGradient id="SVGID_17_" gradientUnits="userSpaceOnUse" x1="-1300.4194" y1="847.0571" x2="-1300.0219" y2="847.0571" gradientTransform="matrix(102.3882 -28.2677 28.2677 102.3882 109534.0156 -123365.0703)">
					<stop  offset="0" style="stop-color:#0067D0"/>
					<stop  offset="1" style="stop-color:#008FDD"/>
				</linearGradient>
				<path class="st88" d="M347.6,105.2c-11.2,3.1-17.8,14.7-14.7,26c0.2,0.7,0.4,1.4,0.7,2l0,0c1-1.1,2-2.3,2.8-3.8
					c3.4-6,5-8.8,9.4-10c2.6-0.7,4.6-0.5,6.9,0.4l0,0c1.8,0.7,3.8,1.8,6.4,3.3c7,3.9,14.1,2.2,15.2,1.9h0.1l0,0l0,0l0,0l0,0l0,0l0,0
					l0,0c0-1.7-0.3-3.4-0.8-5.1C370.4,108.7,358.8,102.1,347.6,105.2"/>
				
					<linearGradient id="SVGID_18_" gradientUnits="userSpaceOnUse" x1="-233.0655" y1="199.8995" x2="-224.3752" y2="216.9554" gradientTransform="matrix(1.4627 -0.4038 -0.4038 -1.4627 760.9797 342.8829)">
					<stop  offset="0" style="stop-color:#0D67CB"/>
					<stop  offset="8.200000e-03" style="stop-color:#1067CA"/>
					<stop  offset="0.4005" style="stop-color:#8F679A"/>
					<stop  offset="0.6686" style="stop-color:#DF677B"/>
					<stop  offset="0.7906" style="stop-color:#FF676F"/>
					<stop  offset="0.862" style="stop-color:#FF676A"/>
				</linearGradient>
				<path class="st89" d="M352.6,119.9c-3,1.5-4.5,4.2-7.3,9.2c-2.7,4.7-6.8,7.3-9.5,8.4c-0.9-1.3-1.7-2.8-2.3-4.3
					c1-1,2-2.3,2.8-3.8c3.4-6,5-8.8,9.4-10C348.3,118.7,350.3,118.9,352.6,119.9z"/>
				
					<linearGradient id="SVGID_19_" gradientUnits="userSpaceOnUse" x1="-225.3463" y1="196.2262" x2="-217.4048" y2="211.8122" gradientTransform="matrix(1.4627 -0.4038 -0.4038 -1.4627 760.9797 342.8829)">
					<stop  offset="0" style="stop-color:#166ECD"/>
					<stop  offset="0.2068" style="stop-color:#4F75BA"/>
					<stop  offset="0.2376" style="stop-color:#5B78B7"/>
					<stop  offset="0.4205" style="stop-color:#9F87A6"/>
					<stop  offset="0.5529" style="stop-color:#CA909B"/>
					<stop  offset="0.6204" style="stop-color:#DA9497"/>
					<stop  offset="0.6733" style="stop-color:#E0A099"/>
					<stop  offset="0.9042" style="stop-color:#FFCCA1"/>
					<stop  offset="0.9508" style="stop-color:#FFD3A1"/>
				</linearGradient>
				<path class="st90" d="M374.3,125c0.2,9.4-6,18.2-15.5,20.9c-8.9,2.5-18-1.2-23-8.3c2.7-1.3,6.8-3.8,9.5-8.4
					c2.8-5,4.4-7.7,7.3-9.2c1.8,0.7,3.8,1.8,6.4,3.3C366.1,127.1,373.4,125.2,374.3,125z"/>
				<path class="st91" d="M368,122.7c-6-3.4-8.8-5-13.2-3.7c-0.8,0.2-1.5,0.5-2.1,0.8c1.8,0.7,3.8,1.8,6.4,3.3
					c7.1,4,14.4,2.1,15.3,1.9l0,0C372.3,124.6,370.1,124,368,122.7z"/>
			</g>
			<g>
				<g>
					<g>
						<path class="st92" d="M400.6,170.1c-1.5,1.8-2.7,3.2-3.9,4.7c-7.1-8.1-3.6-19,1.7-24c7-6.7,18-7,25.3-0.6
							c7.4,6.5,8.5,17.7,2.4,25.5c-5.9,7.5-16.2,9.4-24.4,4.1c1.4-1.4,2.7-2.7,4.3-4.4c0.8,1.8,1.4,3.2,2.5,5.7
							c2.6-7.1,4.8-13.2,7.3-20.3c-7,2.2-13.2,4.2-20.4,6.5C397.7,168.5,399,169.2,400.6,170.1z"/>
						<path class="st92" d="M401.8,179.6c-1.9,1.8-3.3,3.2-5.1,4.9c-1.7-1.9-3-3.4-4.6-5.2c1.3-1.4,2.7-2.8,4.5-4.6
							C398.2,176.2,399.7,177.6,401.8,179.6z"/>
					</g>
				</g>
			</g>
			<g>
				<path class="st93" d="M540.6,137.5c-0.5,3.2-0.9,6.3-1.4,9.5c-0.2,1.3-0.4,2.5-0.5,3.8c0,0.2,0,0.3-0.2,0.3
					c-2.2,0.6-4.4,1.2-6.7,1.7c0,0,0,0,0-0.1c0.2-1.2,0.3-2.3,0.5-3.5c0.5-3.6,0.9-7.2,1.4-10.8v-0.1c0.1,0,0.1,0,0.1-0.1
					c0,0,0.1-0.1,0-0.2l0,0c0.2,0,0.3-0.2,0.4-0.3c0,0,0,0,0.1-0.1c0,0,0,0,0.1,0c0,0,0,0,0.1-0.1c0,0,0,0,0.1,0c0,0,0,0,0.1-0.1
					c0,0,0,0,0.1,0c0,0,0,0,0.1-0.1c0,0,0,0,0.1,0c0.3-0.2,0.7-0.4,1-0.5C537.5,136.2,539.1,136.7,540.6,137.5z"/>
				<path class="st94" d="M533.8,138.3c0,0.1-0.1,0.1-0.1,0.1c0-0.1,0-0.2,0-0.3c0.5-4,0.8-7.9,1.4-11.9c0.5-3,1.2-6,2.2-8.9
					c0.4-1,0.8-1.9,1.5-2.8c0.9-1.2,1.8-1.4,3.2-0.8c1.2,0.6,2.2,1.3,3.2,2.2c2.8,2.6,5.3,5.5,7.6,8.5c0,0.1-0.1,0.1-0.1,0.2
					c-0.8,1-1.6,2-2.5,3c-0.7,0.8-1.3,1.6-2,2.3c-1-1.2-2-2.4-3-3.6c-0.8-0.9-1.5-1.8-2.3-2.8c-0.6,3.7-1.2,7.3-1.7,10.9
					c-0.3,0.1-0.7,0.1-1.1,0.2c-1.3,0.2-2.6,0.4-3.8,1c-1,0.5-1.9,1.3-2.4,2.3l0,0C533.8,138.1,533.7,138.2,533.8,138.3z"/>
				<path class="st95" d="M533.9,138.1c0.5-1.1,1.3-1.8,2.4-2.3c1.2-0.6,2.5-0.8,3.8-1c0.4,0,0.7-0.1,1.1-0.2c0.1,0,0.1,0,0.2,0
					c0.9-0.1,1.7-0.1,2.6-0.1c0.4,0,0.7-0.2,1-0.5c0.7-0.8,1.4-1.7,2.1-2.5c0.4-0.5,0.8-0.9,1.1-1.4c0.7-0.7,1.4-1.6,2-2.3
					c0.8-1,1.7-2,2.5-3c0.1-0.1,0.1-0.1,0.1-0.2c0.2-0.2,0.4-0.4,0.6-0.7c1.5-1.8,3.1-3.7,4.6-5.5c0.2-0.2,0.3-0.3,0.6-0.1
					c1.2,0.7,2.3,1.4,3.5,2.1c0.1,0,0.1,0.1,0.2,0.1c0,0.1-0.1,0.2-0.1,0.2c-1.5,1.8-3,3.5-4.6,5.3c-1.7,2-3.4,4-5.2,5.9
					c-2.1,2.4-4.2,4.8-6.3,7.2c-0.2,0.2-0.4,0.3-0.7,0.1c-1.6-0.7-3.2-1.5-4.9-2.2c-1.2-0.5-2.4-1-3.8-0.8c-0.8,0.1-1.4,0.4-2,1
					c0,0,0,0-0.1,0c0,0,0,0-0.1,0.1c0,0,0,0-0.1,0c0,0,0,0-0.1,0.1c0,0,0,0-0.1,0c0,0,0,0-0.1,0.1c0,0,0,0-0.1,0c0,0,0,0-0.1,0.1
					C534.1,137.9,534.1,138.1,533.9,138.1z"/>
				<path class="st94" d="M534.8,137.3c0.5-0.6,1.2-0.9,2-1c1.4-0.2,2.6,0.3,3.8,0.8c1.6,0.7,3.2,1.4,4.9,2.2
					c0.3,0.1,0.5,0.1,0.7-0.1c2.1-2.4,4.2-4.8,6.3-7.2c1.7-2,3.4-4,5.2-5.9c1.5-1.8,3-3.5,4.6-5.3c0.1-0.1,0.2-0.1,0.1-0.2
					c0.2,0.2,0.1,0.4-0.1,0.6c-2.1,2.4-4.1,4.7-6.2,7.1c-0.2,0.2-0.2,0.4,0,0.7c3.5,4.8,7.1,9.7,10.6,14.5c0.1,0.1,0.1,0.2,0.2,0.3
					c-0.1,0-0.2,0.1-0.3,0.1c-1.9,0.5-3.9,1-5.8,1.5c-0.2,0.1-0.4,0-0.5-0.2c-2.4-3-4.8-6-7.2-9.1c-0.5-0.7-1.1-1.3-1.6-2
					c-0.2-0.2-0.3-0.3-0.5,0c-1.5,1.8-3.1,3.6-4.7,5.4c-0.2,0.3-0.4,0.3-0.7,0.2c-1.5-0.7-3-1.3-4.5-2c-0.1-0.1-0.2-0.1-0.4-0.1
					c-1.5-0.8-3.1-1.3-4.8-0.6C535.5,137,535.1,137.2,534.8,137.3z"/>
				<path class="st95" d="M533.8,138.3c-0.1-0.1,0-0.1,0-0.2C533.9,138.2,533.9,138.2,533.8,138.3z"/>
				<path class="st94" d="M534.5,137.5C534.6,137.5,534.6,137.5,534.5,137.5C534.6,137.5,534.6,137.5,534.5,137.5z"/>
				<path class="st94" d="M534.3,137.8C534.3,137.7,534.3,137.7,534.3,137.8C534.3,137.7,534.3,137.7,534.3,137.8z"/>
				<path class="st94" d="M534.4,137.6C534.4,137.6,534.5,137.6,534.4,137.6C534.5,137.6,534.4,137.6,534.4,137.6z"/>
				<path class="st94" d="M534.7,137.4L534.7,137.4L534.7,137.4z"/>
			</g>
			<g>
				<g>
					<path class="st25" d="M576.7,16.5c0.3,0.5,0.6,1.1,1,1.6c-0.5,0.5-1,1-1.5,1.6l2,0.8c0.3-0.3,0.5-0.6,0.8-0.8
						c0.7,0.8,1.6,1.5,2.4,2.2l7.7,3.3c1.1,0.2,2.2,0.3,3.3,0.2c0,0.4,0,0.8-0.1,1.1l1.9,0.8c0.1-0.7,0.1-1.4,0.1-2.1
						c0.6-0.1,1.2-0.2,1.8-0.4c0.5,1.2,0.8,2.5,1,3.8l2.8,1.2c-0.3-6.6-4.3-12.8-10.8-15.5c-6.5-2.8-13.7-1.4-18.7,2.9l2.8,1.2
						C574.3,17.6,575.5,16.9,576.7,16.5z M595.3,23c-0.3,0.1-0.7,0.1-1,0.2c-0.1-0.7-0.2-1.5-0.3-2.1
						C594.4,21.7,594.9,22.3,595.3,23z M592.3,23.4c-1,0-2,0-2.9-0.2c0.5-1.9,0.9-3.7,1-5.3C591.4,19.2,592.1,21.1,592.3,23.4z
						 M588,16.6c0.1,0,0.1,0,0.2,0.1c0.1,0,0.1,0.1,0.2,0.1c0.1,0.9-0.1,3-0.9,5.9c-0.5-0.2-1.1-0.3-1.6-0.6c-0.5-0.2-1-0.5-1.5-0.8
						C585.9,18.8,587.2,17.2,588,16.6z M585.7,16c-1.1,1.1-2.1,2.6-3.1,4.3c-0.8-0.6-1.5-1.2-2.1-2C582.2,17,584,16.1,585.7,16z
						 M581,15.5c-0.6,0.3-1.2,0.8-1.8,1.2c-0.2-0.3-0.4-0.6-0.5-0.8C579.4,15.7,580.2,15.6,581,15.5z"/>
					<path class="st25" d="M587.6,44.8c-0.3-0.5-0.6-1.1-1-1.6c0.5-0.5,1-1,1.5-1.6l-1.9-0.8c-0.3,0.3-0.5,0.6-0.8,0.8
						c-0.7-0.8-1.6-1.6-2.5-2.2l-7.6-3.3c-1.1-0.2-2.2-0.3-3.3-0.2c0-0.4,0-0.8,0.1-1.1l-2-0.8c-0.1,0.7-0.1,1.4-0.1,2.1
						c-0.6,0.1-1.2,0.2-1.8,0.4c-0.5-1.2-0.8-2.5-1-3.8l-2.8-1.2c0.3,6.6,4.3,12.8,10.8,15.5c6.5,2.8,13.7,1.4,18.7-2.9l-2.8-1.2
						C590,43.7,588.8,44.3,587.6,44.8z M569.1,38.3c0.3-0.1,0.7-0.1,1-0.2c0.1,0.7,0.2,1.5,0.3,2.1
						C569.9,39.6,569.5,38.9,569.1,38.3z M572.1,37.9c1,0,1.9,0,2.9,0.2c-0.5,1.9-0.9,3.7-0.9,5.2C572.9,42,572.3,40.1,572.1,37.9z
						 M576.4,44.7c-0.1,0-0.1,0-0.2-0.1s-0.1-0.1-0.2-0.1c-0.1-0.9,0.1-3,0.9-5.9c0.5,0.2,1.1,0.3,1.6,0.6c0.5,0.2,1,0.5,1.5,0.8
						C578.5,42.5,577.1,44.1,576.4,44.7z M578.6,45.3c1.1-1.1,2.1-2.6,3.2-4.3c0.8,0.6,1.5,1.3,2.2,2
						C582.1,44.4,580.3,45.2,578.6,45.3z M583.3,45.8c0.6-0.4,1.2-0.8,1.8-1.2c0.2,0.3,0.4,0.6,0.5,0.9
						C584.9,45.6,584.1,45.7,583.3,45.8z"/>
					<path class="st25" d="M569.3,29l1.6-2c0.4-0.5,0.8-1.1,1.3-1.8l0,0c-0.2,0.9-0.3,1.5-0.5,2.2l-0.4,2.6l1.9,0.8l4.8-5.7l-2-0.9
						l-1.7,2.3c-0.5,0.7-0.9,1.4-1.3,2.1l0,0c0.2-0.8,0.3-1.6,0.5-2.4l0.5-2.9l-1.6-0.7l-1.8,2.4c-0.4,0.6-0.9,1.2-1.4,1.9l0,0
						c0.2-0.8,0.4-1.6,0.5-2.3l0.6-2.9l-2.1-0.9l-0.9,7.3L569.3,29L569.3,29z"/>
					<path class="st25" d="M584.8,31c-0.5,0.7-0.9,1.4-1.3,2.1l0,0c0.2-0.8,0.3-1.6,0.5-2.4l0.5-2.9l-1.6-0.7l-1.8,2.4
						c-0.4,0.6-0.9,1.2-1.4,1.9l0,0c0.2-0.8,0.4-1.6,0.5-2.3l0.6-2.9l-2.1-0.9l-0.9,7.3l1.9,0.8l1.6-2c0.4-0.5,0.8-1.1,1.3-1.8l0,0
						c-0.2,0.9-0.3,1.5-0.5,2.2l-0.4,2.6l1.9,0.8l4.8-5.7l-2-0.9L584.8,31z"/>
					<path class="st25" d="M595.2,35.4c-0.5,0.7-0.9,1.4-1.3,2.1l0,0c0.2-0.8,0.3-1.6,0.5-2.4l0.5-2.9l-1.6-0.7l-1.8,2.4
						c-0.4,0.6-0.9,1.2-1.4,1.9l0,0c0.2-0.8,0.4-1.6,0.5-2.3l0.6-2.9l-2.1-0.9l-0.9,7.3l1.9,0.8l1.6-2c0.4-0.5,0.8-1.1,1.3-1.8l0,0
						c-0.2,0.9-0.3,1.5-0.5,2.2l-0.4,2.6l1.9,0.8l4.8-5.7l-2-0.9L595.2,35.4z"/>
				</g>
			</g>
		</g>
		<g>
			<polygon class="st96" points="360.4,550.8 360.4,562 349.3,550.8 360.4,539.7 			"/>
			<polyline class="st97" points="440.2,502.1 440.2,550.8 357.2,550.8 			"/>
		</g>
		<g>
			<polygon class="st96" points="537,550.8 537,562 548.1,550.8 537,539.7 			"/>
			<polyline class="st97" points="460.6,502.1 460.6,550.8 540.2,550.8 			"/>
		</g>
		<g>
			<g>
				<g>
					<g>
						<path class="st98" d="M437.8,259.3c2.3,0,3.8,1.3,4.4,3c0.7,1.8,0.5,3.9-1.3,5.2c2.1,0.9,2.8,2.8,2.8,4.5
							c0,2.7-1.8,5.5-5.3,5.5h-8.3v-18.3H437.8z M432.9,266.6h4.9c2.9,0,2.9-4.8,0.1-4.8h-5V266.6z M432.9,275h5.6
							c1.8,0,2.7-1.5,2.7-2.9c0-1.4-0.9-2.9-2.7-2.9h-5.6V275z"/>
						<path class="st98" d="M448.9,262c1.6-1.7,3.9-2.7,6.4-2.7c2.5,0,4.8,1,6.4,2.7c1.6,1.7,2.6,3.9,2.6,6.4s-1,4.8-2.6,6.4
							c-1.7,1.7-3.9,2.7-6.4,2.7c-2.5,0-4.8-1-6.4-2.7c-1.6-1.7-2.6-3.9-2.6-6.4S447.3,263.7,448.9,262z M460,263.8
							c-1.2-1.2-2.8-1.9-4.6-1.9c-1.8,0-3.4,0.7-4.6,1.9c-1.2,1.2-1.9,2.8-1.9,4.6s0.7,3.4,1.9,4.6c1.2,1.2,2.8,1.9,4.6,1.9
							c1.8,0,3.4-0.7,4.6-1.9c1.2-1.2,1.9-2.8,1.9-4.6S461.1,265,460,263.8z"/>
						<path class="st98" d="M472.4,277.6v-15.8h-5.5v-2.5h13.7v2.5H475v15.8H472.4z"/>
						<g>
							<path class="st99" d="M432.9,302h-2.6v-18.3h10.9v2.6h-8.3v5.5h7.3v2.5h-7.3V302z"/>
							<path class="st99" d="M454.5,297.4h-7.4l-1.8,4.6h-2.8l7.3-18.3h1.9l7.3,18.3h-2.8L454.5,297.4z M448.1,294.9h5.5l-2.7-7.2
								L448.1,294.9z"/>
							<path class="st99" d="M480.2,302h-2.8l-1.9-1.7c-4,2.6-9.3,2.1-12.1-1c-1.6-1.7-2.7-3.9-2.7-6.4s1-4.8,2.7-6.4
								c1.6-1.7,3.9-2.7,6.4-2.7c2.5,0,4.8,1,6.4,2.7c1.6,1.7,2.7,3.9,2.7,6.4c0,2.1-0.7,4-1.9,5.6l3.1,3V302z M469,294.1h3.1l3,2.8
								c0.8-1.1,1.2-2.5,1.2-4c0-1.8-0.8-3.4-1.9-4.6c-1.2-1.2-2.8-1.9-4.6-1.9c-1.8,0-3.4,0.7-4.6,1.9c-1.1,1.2-1.9,2.8-1.9,4.6
								s0.8,3.5,1.9,4.6c2.2,2.2,5.5,2.6,8.2,1l-4.5-4V294.1z M469,294.5v-0.4V294.5z"/>
							<path class="st99" d="M487,302v-15.8h-5.5v-2.5h13.7v2.5h-5.5V302H487z"/>
							<path class="st99" d="M500,286.4c1.6-1.7,3.9-2.7,6.4-2.7c2.5,0,4.8,1,6.4,2.7c1.6,1.7,2.6,3.9,2.6,6.4c0,2.5-1,4.8-2.6,6.4
								c-1.7,1.7-3.9,2.7-6.4,2.7c-2.5,0-4.8-1-6.4-2.7c-1.6-1.7-2.6-3.9-2.6-6.4C497.4,290.4,498.4,288.1,500,286.4z M511,288.3
								c-1.2-1.2-2.8-1.9-4.6-1.9c-1.8,0-3.4,0.7-4.6,1.9c-1.2,1.2-1.9,2.8-1.9,4.6s0.7,3.4,1.9,4.6c1.2,1.2,2.8,1.9,4.6,1.9
								c1.8,0,3.4-0.7,4.6-1.9c1.2-1.2,1.9-2.8,1.9-4.6S512.2,289.4,511,288.3z"/>
							<path class="st99" d="M522.1,292.8h3.1c2.2,0,3.3-1.6,3.3-3.2c0-1.6-1.1-3.2-3.3-3.2h-4.1V302h-2.6v-18.3h6.7
								c4,0,6,2.9,6,5.8c0,2.6-1.6,5-4.7,5.6l5.8,6.9h-3.4l-6.7-8V292.8z"/>
						</g>
					</g>
				</g>
			</g>
			<g>
				<g>
					<path class="st100" d="M408.7,286.5c-4.8,5.8-10,12.1-13.4,15.6c-0.1,0-0.1-0.1-0.2-0.2c-1.7-1.5-3.8-3.5-6-5.8l-3.6,3.6
						c4.5,4.7,8.7,8.2,9.6,8.9c0.1,0.1,0.2,0.1,0.2,0.1s11.7-12.8,17.1-18.6L408.7,286.5z"/>
					<path class="st98" d="M395.1,262.1l-14.9,5.9c0,0,1.3,9.9,4.6,16.5c2.9,5.8,9.6,12.4,10.3,12.8c0.7-0.4,7.7-7.4,10.6-13.2
						c3.3-6.6,4.3-16.1,4.3-16.1L395.1,262.1z"/>
					<path class="st98" d="M419,261.9l-23.9-10.1l-23.9,10.1c0,0-1.7,13.9,5.8,26.8c1.5,2.5,3.3,5,5.3,7.3l3.6-3.6
						c-1.7-2-3.3-4.2-4.5-6.3c-4.2-7.3-5.1-15.5-5.2-20.1c2.1-1.2,17.2-7.3,19-8c1.7,0.7,16.9,6.8,19,8c-0.1,3.7-0.7,9.7-3.1,15.7
						l3.9,3.9C420.5,273.7,419,261.9,419,261.9z"/>
					<path class="st101" d="M412.4,290.2l-3.7-3.7c-4.8,5.8-10,12.1-13.4,15.6c-0.1,0,0,6.7,0,6.7S406.9,296,412.4,290.2z"/>
					<path class="st102" d="M411,281.8l3.9,3.9c5.6-11.9,4.2-23.8,4.2-23.8l-23.9-10.1v6.3c1.7,0.7,16.9,6.8,19,8
						C414,269.8,413.4,275.8,411,281.8z"/>
					<path class="st102" d="M410,268c0,0-1,9.5-4.3,16.1c-2.9,5.8-9.9,12.8-10.6,13.2v-35.2L410,268z"/>
				</g>
			</g>
		</g>
	</g>
	<path class="st103" d="M561.7,195.4H451.6H341.5c-6.6,0-12,5.4-12,12v17.3c0,6.5,5.3,11.9,11.8,12v36l87.1,102.2l-1.1,96.4h24.3
		h22.9l0.6-96l86.8-102.6v-36c6.5-0.1,11.8-5.5,11.8-12v-17.3C573.7,200.8,568.3,195.4,561.7,195.4z"/>
</g>
</svg>
