<?xml version="1.0" encoding="utf-8"?>
<!-- Generator: Adobe Illustrator 23.0.0, SVG Export Plug-In . SVG Version: 6.00 Build 0)  -->
<svg version="1.1" id="Слой_1" xmlns="http://www.w3.org/2000/svg" xmlns:xlink="http://www.w3.org/1999/xlink" x="0px" y="0px"
	 viewBox="0 0 98 87.7" style="enable-background:new 0 0 98 87.7;" xml:space="preserve">
<style type="text/css">
	.st0{fill:#FBCB18;}
	.st1{fill:#ECF0F1;}
	.st2{fill:#BDC3C7;}
	.st3{fill:#E84C4F;}
	.st4{fill:#2B3E51;}
	.st5{fill:#57B36E;}
	.st6{fill:#F4CC20;}
	.st7{fill:#00BD9C;}
	.st8{fill:#E94B35;}
	.st9{fill:#365558;}
	.st10{fill:#5C95E9;}
	.st11{fill:#9BAAAB;}
	.st12{fill:#687F82;}
	.st13{fill:#5693DB;}
	.st14{fill:#E6EAEA;}
	.st15{fill:#CDD4D5;}
	.st16{fill:#FFFFFF;}
</style>
<title>research</title>
<desc>Created with Sketch.</desc>
<g>
	<g>
		<ellipse class="st0" cx="47.2" cy="41.7" rx="41.7" ry="41.3"/>
		<path class="st1" d="M61.4,21.3v-9C61,12.1,60.5,12,60.1,12H28.3c-0.7,0-1.3,0.6-1.3,1.3v54.4c0,0.7,0.6,1.3,1.3,1.3h41.2
			c0.7,0,1.3-0.6,1.3-1.3v-45c0-0.4-0.1-0.9-0.3-1.3h-9.1V21.3z"/>
		<path class="st2" d="M70.5,21.3c-0.2-0.4-0.4-0.7-0.6-0.9l-7.6-7.5c-0.2-0.2-0.6-0.4-0.9-0.6v9H70.5z"/>
		<rect x="34.1" y="26.6" class="st3" width="6.2" height="13.8"/>
		<rect x="41.9" y="29.5" class="st0" width="6.2" height="10.9"/>
		<rect x="49.7" y="32.2" class="st4" width="6.2" height="8.2"/>
		<rect x="57.5" y="22.1" class="st5" width="6.2" height="18.3"/>
		<rect x="34.1" y="42.5" class="st2" width="29.6" height="1.9"/>
		<path class="st0" d="M48,50.4c-1.5-1.3-3.4-2-5.5-2h-0.1V57L48,50.4z"/>
		<path class="st5" d="M42.4,48.3c-4.6,0-8.3,3.7-8.3,8.3c0,2.6,1.2,5,3.1,6.5l5.1-6.1v-8.7H42.4z"/>
		<path class="st3" d="M48,50.4L42.4,57v7.9h0.1c4.6,0,8.4-3.7,8.4-8.3C50.9,54.1,49.8,51.9,48,50.4L48,50.4z"/>
		<path class="st4" d="M37.3,63.1c1.4,1.1,3.2,1.8,5.1,1.8V57L37.3,63.1z"/>
		<path class="st6" d="M56.9,51.8c0,0.7-0.6,1.3-1.3,1.3s-1.3-0.6-1.3-1.3s0.6-1.3,1.3-1.3C56.3,50.5,56.9,51.1,56.9,51.8L56.9,51.8
			z"/>
		<path class="st7" d="M56.9,55c0,0.7-0.6,1.3-1.3,1.3s-1.3-0.6-1.3-1.3s0.6-1.3,1.3-1.3C56.3,53.7,56.9,54.3,56.9,55L56.9,55z"/>
		<path class="st4" d="M56.9,58.2c0,0.7-0.6,1.3-1.3,1.3s-1.3-0.6-1.3-1.3s0.6-1.3,1.3-1.3C56.3,56.9,56.9,57.5,56.9,58.2L56.9,58.2
			z"/>
		<path class="st8" d="M56.9,61.4c0,0.7-0.6,1.3-1.3,1.3s-1.3-0.6-1.3-1.3s0.6-1.3,1.3-1.3C56.3,60.1,56.9,60.7,56.9,61.4L56.9,61.4
			z"/>
		<path class="st2" d="M66,52h-7.3c-0.2,0-0.4-0.2-0.4-0.4s0.2-0.4,0.4-0.4H66c0.2,0,0.4,0.2,0.4,0.4S66.2,52,66,52L66,52z"/>
		<path class="st2" d="M64.7,55.2h-6c-0.2,0-0.4-0.2-0.4-0.4s0.2-0.4,0.4-0.4h6c0.2,0,0.4,0.2,0.4,0.4S64.9,55.2,64.7,55.2
			L64.7,55.2z"/>
		<path class="st2" d="M64.7,58.4h-6c-0.2,0-0.4-0.2-0.4-0.4s0.2-0.4,0.4-0.4h6c0.2,0,0.4,0.2,0.4,0.4
			C65.1,58.3,64.9,58.4,64.7,58.4L64.7,58.4z"/>
		<path class="st2" d="M65.5,61.7h-7.1c-0.2,0-0.4-0.2-0.4-0.4s0.2-0.4,0.4-0.4h7.1c0.2,0,0.4,0.2,0.4,0.4S65.7,61.7,65.5,61.7
			L65.5,61.7z"/>
		<rect x="29.6" y="14.1" class="st2" width="11.2" height="2.7"/>
		<path class="st2" d="M55.6,14.4H42.4c-0.2,0-0.4-0.2-0.4-0.4s0.2-0.4,0.4-0.4h13.2c0.2,0,0.4,0.2,0.4,0.4
			C56,14.2,55.8,14.4,55.6,14.4L55.6,14.4z"/>
		<path class="st2" d="M52.8,15.8H42.4c-0.2,0-0.4-0.2-0.4-0.4s0.2-0.4,0.4-0.4h10.4c0.2,0,0.4,0.2,0.4,0.4
			C53.2,15.6,53,15.8,52.8,15.8L52.8,15.8z"/>
		<path class="st2" d="M56.9,17.1H42.4c-0.2,0-0.4-0.2-0.4-0.4c0-0.2,0.2-0.4,0.4-0.4h14.5c0.2,0,0.4,0.2,0.4,0.4
			C57.3,16.9,57.1,17.1,56.9,17.1L56.9,17.1z"/>
		<rect x="29.6" y="19" class="st4" width="27.9" height="1.9"/>
	</g>
	<g>
		<path class="st9" d="M85.6,81.3c-0.2,0-0.4-0.1-0.5-0.2l-6.5-6.4c-0.3-0.3-0.3-0.7,0-1s0.7-0.3,1,0l6.5,6.4c0.3,0.3,0.3,0.7,0,1
			C86,81.3,85.8,81.3,85.6,81.3z"/>
		<path class="st10" d="M80.3,48c-3.7-3.7-8.6-5.7-13.8-5.7s-10.1,2-13.8,5.7c-7.6,7.5-7.6,19.8,0,27.3C56.4,79,61.3,81,66.5,81
			s10.1-2,13.8-5.7C84,71.7,86,66.9,86,61.7S84,51.7,80.3,48z"/>
		<path class="st11" d="M92.2,82.9l-5.4-5.4c-0.3-0.3-0.7-0.3-1,0l-3.3,3.2c-0.3,0.3-0.3,0.7,0,1l5.4,5.4c0.1,0.1,0.3,0.2,0.5,0.2
			s0.4-0.1,0.5-0.2l3.3-3.2C92.5,83.7,92.5,83.2,92.2,82.9z"/>
		<path class="st12" d="M84.1,79.2l-1.6,1.6c-0.3,0.3-0.3,0.7,0,1l5.4,5.4c0.1,0.1,0.3,0.2,0.5,0.2s0.4-0.1,0.5-0.2l1.6-1.6
			L84.1,79.2z"/>
		<path class="st13" d="M52.6,48.1c-7.6,7.5-7.5,19.8,0,27.3C56.4,79,61.3,81,66.5,81s10.1-2,13.8-5.6L52.6,48.1z"/>
		<path class="st14" d="M76.4,51.9c-5.5-5.4-14.3-5.4-19.8,0c-2.6,2.6-4.1,6.1-4.1,9.8s1.5,7.2,4.1,9.8c2.7,2.7,6.3,4.1,9.9,4.1
			s7.2-1.4,9.9-4.1C81.9,66.1,81.9,57.3,76.4,51.9z"/>
		<path class="st15" d="M56.6,51.9c-2.6,2.6-4.1,6.1-4.1,9.8s1.5,7.2,4.1,9.8c2.7,2.7,6.3,4.1,9.9,4.1c3.6,0,7.1-1.3,9.9-4
			L56.6,51.9z"/>
		<g>
			<path class="st16" d="M82.4,62.4c-0.4,0-0.7-0.3-0.7-0.7c0-2-0.4-4-1.2-5.8c-0.2-0.4,0-0.8,0.4-0.9c0.4-0.2,0.8,0,0.9,0.4
				c0.8,2,1.3,4.1,1.3,6.4C83.1,62.1,82.8,62.4,82.4,62.4z"/>
			<path class="st16" d="M79.5,53.3c-0.2,0-0.4-0.1-0.6-0.3c-0.5-0.7-1.1-1.3-1.7-1.9c-2.9-2.8-6.7-4.4-10.7-4.4
				c-0.4,0-0.7-0.3-0.7-0.7s0.3-0.7,0.7-0.7c4.4,0,8.6,1.7,11.8,4.8c0.7,0.7,1.3,1.4,1.8,2.1c0.2,0.3,0.2,0.8-0.2,1
				C79.8,53.2,79.6,53.3,79.5,53.3z"/>
		</g>
		<path class="st11" d="M61,56h-3.5c-0.4,0-0.7,0.3-0.7,0.7v9.5c0,0.4,0.3,0.7,0.7,0.7H61c0.4,0,0.7-0.3,0.7-0.7v-9.5
			C61.8,56.4,61.4,56,61,56z"/>
		<path class="st3" d="M67.9,57.2h-3.5c-0.4,0-0.7,0.3-0.7,0.7v8.4c0,0.4,0.3,0.7,0.7,0.7h3.5c0.4,0,0.7-0.3,0.7-0.7v-8.4
			C68.7,57.5,68.3,57.2,67.9,57.2z"/>
		<path class="st0" d="M74.8,53.8h-3.5c-0.4,0-0.7,0.3-0.7,0.7v11.8c0,0.4,0.3,0.7,0.7,0.7h3.5c0.4,0,0.7-0.3,0.7-0.7V54.5
			C75.6,54.1,75.2,53.8,74.8,53.8z"/>
		<path class="st9" d="M76.4,67H56c-0.4,0-0.7-0.3-0.7-0.7s0.3-0.7,0.7-0.7h20.3c0.4,0,0.7,0.3,0.7,0.7S76.8,67,76.4,67z"/>
	</g>
</g>
</svg>
