<?xml version="1.0" encoding="utf-8"?>
<!-- Generator: Adobe Illustrator 23.0.0, SVG Export Plug-In . SVG Version: 6.00 Build 0)  -->
<svg version="1.1" id="Слой_1" xmlns="http://www.w3.org/2000/svg" xmlns:xlink="http://www.w3.org/1999/xlink" x="0px" y="0px"
	 viewBox="0 0 90.5 86.7" style="enable-background:new 0 0 90.5 86.7;" xml:space="preserve">
<style type="text/css">
	.st0{fill:#5C95E9;}
	.st1{fill:#F0F0F0;}
	.st2{fill:#E84C4F;}
	.st3{fill:#9FC5E6;}
	.st4{fill:#5897D1;}
	.st5{fill:#BC353C;}
	.st6{fill:#FFFFFF;}
	.st7{clip-path:url(#SVGID_2_);}
	.st8{fill:#ECF0F1;}
	.st9{fill:#D1D4D2;}
	.st10{clip-path:url(#SVGID_4_);}
</style>
<title>reason-3</title>
<circle class="st0" cx="43.3" cy="43.4" r="43.3"/>
<circle class="st1" cx="43.3" cy="43.4" r="36.9"/>
<path class="st2" d="M43.3,71.4c-15.5,0-28-12.6-28-28.1c0-15.5,12.6-28,28.1-28c15.5,0,28,12.6,28,28.1
	C71.3,58.9,58.7,71.4,43.3,71.4z"/>
<path class="st1" d="M43.3,62.6C32.6,62.6,24,54,24,43.4c0-10.6,8.6-19.2,19.2-19.2c10.6,0,19.2,8.6,19.2,19.2l0,0
	C62.5,54,53.9,62.6,43.3,62.6z"/>
<path class="st2" d="M43.3,53.8c-5.7,0-10.4-4.7-10.4-10.4c0-5.7,4.7-10.4,10.4-10.4c5.7,0,10.4,4.7,10.4,10.4
	C53.6,49.1,49,53.8,43.3,53.8z"/>
<path class="st3" d="M78.9,11.2l-34,34c-0.9,0.9-2.4,0.9-3.4,0c0,0,0,0,0,0l0,0c-0.9-0.9-0.9-2.4,0-3.4c0,0,0,0,0,0l34-34L78.9,11.2
	z"/>
<path class="st4" d="M78.9,11.2l-34,34c-0.9,0.9-2.4,0.9-3.4,0c0,0,0,0,0,0l0,0L77.2,9.5L78.9,11.2z"/>
<polygon class="st2" points="59.3,13.1 72.4,0 75.5,7.8 62.4,20.9 "/>
<polygon class="st5" points="62.3,10.1 64.3,8.2 67.3,16 65.3,18 "/>
<polygon class="st5" points="67.1,5.3 69.1,3.4 72.1,11.2 70.1,13.2 "/>
<polygon class="st2" points="78.9,11.2 65.8,24.3 73.6,27.4 86.7,14.3 "/>
<polygon class="st5" points="75.5,14.6 73.5,16.6 81.4,19.6 83.3,17.7 "/>
<polygon class="st5" points="70.7,19.4 68.7,21.4 76.6,24.4 78.5,22.5 "/>
<circle class="st6" cx="67" cy="63.1" r="23.5"/>
<path class="st0" d="M53.5,71.5l-1,0.5c-0.7,0.3-1.5,0-1.8-0.7l-1.4-3c-0.3-0.7-0.1-1.5,0.6-1.8c0,0,0,0,0.1,0l1-0.5L53.5,71.5z"/>
<g>
	<defs>
		
			<rect id="SVGID_1_" x="49.3" y="47.7" transform="matrix(0.9058 -0.4237 0.4237 0.9058 -20.8825 34.6297)" width="36.3" height="33.2"/>
	</defs>
	<clipPath id="SVGID_2_">
		<use xlink:href="#SVGID_1_"  style="overflow:visible;"/>
	</clipPath>
	<g class="st7">
		<path class="st2" d="M63.3,69.7l-7.5,3c-0.8,0.3-1.8-0.1-2.1-0.9l-2.8-6.1c-0.3-0.7-0.1-1.5,0.6-1.9l7.3-4L63.3,69.7L63.3,69.7z"
			/>
		<path class="st8" d="M78.7,71.2l-13.3-0.3c-1,0-1.8-0.6-2.2-1.4l-4.3-9.3c-0.4-0.8-0.3-1.8,0.3-2.6l8.1-10.8
			c0.8-1.1,2.4-1.4,3.5-0.5c0.3,0.2,0.6,0.6,0.8,1L81,67.6c0.6,1.3,0,2.8-1.2,3.4C79.5,71.1,79.1,71.2,78.7,71.2"/>
	</g>
</g>
<path class="st2" d="M75.6,54.5L75,54.8l2.6,5.5l0.6-0.3c1.2-0.6,1.7-2,1.2-3.2l-0.5-1.1C78.2,54.5,76.8,54,75.6,54.5
	C75.6,54.5,75.6,54.5,75.6,54.5"/>
<path class="st9" d="M82.5,59.3c-0.3,0.1-0.7,0-0.8-0.3c0-0.1-0.1-0.2,0-0.4c0.2-1.2,0.1-2.3-0.4-3.4c-0.5-1.1-1.4-1.9-2.4-2.5
	c-0.3-0.2-0.4-0.5-0.2-0.8c0.2-0.3,0.5-0.4,0.8-0.2c0,0,0,0,0,0c1.2,0.7,2.2,1.7,2.9,3c0.6,1.3,0.8,2.8,0.5,4.2
	C82.8,59,82.7,59.2,82.5,59.3"/>
<path class="st5" d="M56.6,72.4l0.9,2l1.6-0.8c0.3-0.1,0.7,0,0.8,0.3c0.1,0.3,0,0.7-0.3,0.8L58,75.5l0.5,1.1l1.6-0.8
	c0.3-0.1,0.7,0,0.8,0.3c0.1,0.3,0,0.7-0.3,0.8L59,77.7l0.5,1.1l1.6-0.8c0.3-0.1,0.7,0.1,0.8,0.4c0.1,0.3,0,0.6-0.3,0.7L60,79.9
	l0.5,1.1l1.6-0.8c0.3-0.2,0.7-0.1,0.8,0.2c0.2,0.3,0.1,0.7-0.2,0.8c0,0-0.1,0-0.1,0L61.1,82l0.2,0.3c0.5,1,1.8,1.5,2.9,0.9
	c1-0.5,1.4-1.7,1-2.7l-4.6-9.8L56.6,72.4z"/>
<path class="st2" d="M63,80.4c-0.1-0.3-0.5-0.4-0.8-0.3l-1.6,0.8l0.5,1.1l1.7-0.8C63,81.1,63.2,80.7,63,80.4"/>
<path class="st2" d="M62,78.2c-0.1-0.3-0.5-0.4-0.8-0.3c0,0,0,0,0,0l-1.6,0.8l0.5,1.1l1.6-0.8C62,78.9,62.1,78.5,62,78.2"/>
<path class="st2" d="M61,76.1c-0.1-0.3-0.5-0.4-0.8-0.3l-1.6,0.8l0.5,1.1l1.7-0.8C61,76.7,61.1,76.4,61,76.1
	C61,76.1,61,76.1,61,76.1"/>
<g>
	<defs>
		
			<rect id="SVGID_3_" x="49.3" y="47.7" transform="matrix(0.9058 -0.4237 0.4237 0.9058 -20.8825 34.6297)" width="36.3" height="33.2"/>
	</defs>
	<clipPath id="SVGID_4_">
		<use xlink:href="#SVGID_3_"  style="overflow:visible;"/>
	</clipPath>
	<g class="st10">
		<path class="st2" d="M59.9,73.9c-0.1-0.3-0.5-0.4-0.8-0.3c0,0,0,0,0,0l-1.6,0.8l0.5,1.1l1.6-0.8C59.9,74.5,60.1,74.2,59.9,73.9
			C59.9,73.9,59.9,73.9,59.9,73.9"/>
		<path class="st0" d="M67.1,46.8l-0.8,1l11,23.4h1.3c1.4,0,2.6-1.1,2.6-2.5c0-0.4-0.1-0.8-0.2-1.1l-9.6-20.4
			c-0.6-1.3-2.1-1.8-3.3-1.2C67.8,46.1,67.4,46.4,67.1,46.8"/>
	</g>
</g>
<path class="st6" d="M64,55.6c-0.3-0.2-0.6-0.2-0.9,0.1l-1.9,2.3c-0.5,0.7-0.6,1.7-0.3,2.5l0.6,1.2c0.1,0.3,0.5,0.4,0.8,0.3
	c0.3-0.1,0.4-0.5,0.3-0.8L62.1,60c-0.2-0.4-0.1-0.9,0.1-1.2l1.9-2.3C64.3,56.2,64.3,55.8,64,55.6"/>
<path class="st6" d="M62.6,62.6c-0.3,0.1-0.4,0.5-0.3,0.8c0,0,0,0,0,0l0.5,1.1c0.1,0.3,0.5,0.4,0.8,0.3c0,0,0,0,0,0
	c0.3-0.2,0.4-0.5,0.3-0.8l-0.5-1.1C63.3,62.6,62.9,62.5,62.6,62.6C62.6,62.6,62.6,62.6,62.6,62.6"/>
</svg>
