<?xml version="1.0" encoding="utf-8"?>
<!-- Generator: Adobe Illustrator 23.0.0, SVG Export Plug-In . SVG Version: 6.00 Build 0)  -->
<svg version="1.1" id="Слой_1" xmlns="http://www.w3.org/2000/svg" xmlns:xlink="http://www.w3.org/1999/xlink" x="0px" y="0px"
	 viewBox="0 0 99.1 87" style="enable-background:new 0 0 99.1 87;" xml:space="preserve">
<style type="text/css">
	.st0{fill:#C8CACC;}
	.st1{fill:#E2E2E2;}
	.st2{fill:#666666;}
	.st3{fill:#57B36E;}
	.st4{fill:#EFEFEF;}
	.st5{fill:#E84C4F;}
	.st6{fill:#FBCB18;}
	.st7{fill:#FFFFFF;}
	.st8{clip-path:url(#SVGID_2_);fill:#EDE9E8;}
	.st9{clip-path:url(#SVGID_4_);fill:#DFD7D5;}
	.st10{fill:#5C95E9;}
	.st11{fill:#5897D1;}
	.st12{fill:#53433F;}
	.st13{clip-path:url(#SVGID_6_);fill:#3E322E;}
	.st14{clip-path:url(#SVGID_8_);fill:#D2C5C2;}
	.st15{clip-path:url(#SVGID_10_);fill:#C4B3AF;}
	.st16{fill:#EDE9E8;}
	.st17{fill:#DFD7D5;}
</style>
<title>research</title>
<desc>Created with Sketch.</desc>
<g>
	<g>
		<g>
			<path class="st0" d="M39,69.3l-2.4,9.6l-8.2,6.9v1.5h38.1v-1.5l-8.2-6.9l-2.4-9.6l-8.4-0.1L39,69.3z"/>
			<rect x="28.4" y="85.8" class="st1" width="38.1" height="1.5"/>
			<path class="st2" d="M4.9,2.9h85C92.7,2.9,95,5.2,95,8v52.3H-0.2V8C-0.2,5.2,2.1,2.9,4.9,2.9L4.9,2.9z"/>
			<path class="st3" d="M3.3,56.9h88.2V8c0-0.9-0.7-1.6-1.6-1.6h-85C4,6.3,3.3,7.1,3.3,8V56.9L3.3,56.9z"/>
			<path class="st1" d="M95,60.3v5.6c0,2.8-2.5,5.1-5.6,5.1h-84c-3.1,0-5.6-2.3-5.6-5.1v-5.6C-0.2,60.3,95,60.3,95,60.3z"/>
		</g>
		<g>
			<g>
				<rect x="16.1" y="14.6" class="st4" width="82.9" height="35.6"/>
				<rect x="16.1" y="0.3" class="st2" width="82.9" height="14.2"/>
				<path class="st5" d="M26.8,7.5c0,1.7-1.4,3-3.2,3c-1.8,0-3.2-1.4-3.2-3c0-1.7,1.4-3.1,3.2-3.1S26.8,5.8,26.8,7.5L26.8,7.5z"/>
				<path class="st6" d="M36.5,7.5c0,1.7-1.4,3-3.2,3s-3.2-1.4-3.2-3c0-1.7,1.4-3.1,3.2-3.1C35,4.4,36.5,5.8,36.5,7.5L36.5,7.5z"/>
				<path class="st3" d="M46.1,7.5c0,1.7-1.4,3-3.2,3s-3.2-1.4-3.2-3c0-1.7,1.4-3.1,3.2-3.1C44.7,4.4,46.1,5.8,46.1,7.5L46.1,7.5z"
					/>
			</g>
			<g>
				<path class="st7" d="M76.3,9l0.8-3.5h1.1l-1.4,5.1h-0.9l-1.1-3.5l-1.1,3.5h-0.9l-1.4-5.1h1.1L73.4,9l1-3.5h0.9L76.3,9z"/>
				<path class="st7" d="M83.5,9l0.8-3.5h1.1L84,10.6h-0.9L82,7.1l-1.1,3.5H80l-1.4-5.1h1.1L80.6,9l1-3.5h0.9L83.5,9z"/>
				<path class="st7" d="M90.7,9l0.8-3.5h1.1l-1.4,5.1h-0.9l-1.1-3.5l-1.1,3.5h-0.9l-1.4-5.1h1.1L87.7,9l1-3.5h0.9L90.7,9z"/>
			</g>
		</g>
	</g>
	<g>
		<g>
			<g>
				<defs>
					<rect id="SVGID_1_" x="39.5" y="17.5" width="36" height="27.5"/>
				</defs>
				<clipPath id="SVGID_2_">
					<use xlink:href="#SVGID_1_"  style="overflow:visible;"/>
				</clipPath>
				<path class="st8" d="M75.4,32.7c-0.3-0.4-8.1-11-17.8-11S40,32.3,39.7,32.7s-0.3,0.9,0,1.2c0.3,0.4,8.1,11,17.8,11
					S75,34.4,75.4,34C75.6,33.6,75.6,33.1,75.4,32.7L75.4,32.7z"/>
			</g>
			<g>
				<defs>
					<rect id="SVGID_3_" x="39.5" y="17.5" width="36" height="27.5"/>
				</defs>
				<clipPath id="SVGID_4_">
					<use xlink:href="#SVGID_3_"  style="overflow:visible;"/>
				</clipPath>
				<path class="st9" d="M75.4,32.7c0.3,0.4,0.3,0.9,0,1.2c-0.3,0.4-8.1,11-17.8,11V21.7C67.3,21.7,75,32.3,75.4,32.7L75.4,32.7z"/>
			</g>
		</g>
		<path class="st10" d="M57.5,26c-4.1,0-7.4,3.3-7.4,7.4s3.3,7.4,7.4,7.4s7.4-3.3,7.4-7.4S61.6,26,57.5,26L57.5,26z"/>
		<path class="st11" d="M64.9,33.4c0,4.1-3.3,7.4-7.4,7.4V26C61.6,26,64.9,29.3,64.9,33.4L64.9,33.4z"/>
		<path class="st12" d="M57.5,30.2c-1.8,0-3.2,1.4-3.2,3.2c0,1.8,1.4,3.2,3.2,3.2s3.2-1.4,3.2-3.2S59.3,30.2,57.5,30.2L57.5,30.2z"
			/>
		<g>
			<g>
				<defs>
					<rect id="SVGID_5_" x="39.5" y="17.5" width="36" height="27.5"/>
				</defs>
				<clipPath id="SVGID_6_">
					<use xlink:href="#SVGID_5_"  style="overflow:visible;"/>
				</clipPath>
				<path class="st13" d="M60.7,33.4c0,1.8-1.4,3.2-3.2,3.2v-6.3C59.3,30.2,60.7,31.6,60.7,33.4L60.7,33.4z"/>
			</g>
			<g>
				<defs>
					<rect id="SVGID_7_" x="39.5" y="17.5" width="36" height="27.5"/>
				</defs>
				<clipPath id="SVGID_8_">
					<use xlink:href="#SVGID_7_"  style="overflow:visible;"/>
				</clipPath>
				<path class="st14" d="M75.3,27.7c-0.4,0.4-1.1,0.4-1.5,0c-3.7-3.7-9.5-8-16.2-8S45,24,41.3,27.7c-0.4,0.4-1.1,0.4-1.5,0
					s-0.4-1.1,0-1.5c3.9-4,10.3-8.7,17.7-8.7s13.8,4.7,17.7,8.7C75.7,26.6,75.7,27.3,75.3,27.7L75.3,27.7z"/>
			</g>
			<g>
				<defs>
					<rect id="SVGID_9_" x="39.5" y="17.5" width="36" height="27.5"/>
				</defs>
				<clipPath id="SVGID_10_">
					<use xlink:href="#SVGID_9_"  style="overflow:visible;"/>
				</clipPath>
				<path class="st15" d="M73.8,27.7c-3.7-3.7-9.5-8-16.2-8v-2.1c7.5,0,13.8,4.7,17.7,8.7c0.4,0.4,0.4,1.1,0,1.5
					C74.8,28.1,74.2,28.1,73.8,27.7L73.8,27.7z"/>
			</g>
		</g>
		<path class="st16" d="M57.5,30.2c-0.6,0-1.1,0.5-1.1,1.1s0.5,1.1,1.1,1.1s1.1-0.5,1.1-1.1S58.1,30.2,57.5,30.2L57.5,30.2z"/>
		<path class="st17" d="M58.6,31.2c0,0.6-0.5,1.1-1.1,1.1v-2.1C58.1,30.2,58.6,30.7,58.6,31.2L58.6,31.2z"/>
	</g>
</g>
</svg>
