<?xml version="1.0" encoding="utf-8"?>
<!-- Generator: Adobe Illustrator 23.0.0, SVG Export Plug-In . SVG Version: 6.00 Build 0)  -->
<svg version="1.1" id="Слой_1" xmlns="http://www.w3.org/2000/svg" xmlns:xlink="http://www.w3.org/1999/xlink" x="0px" y="0px"
	 viewBox="0 0 99.1 87" style="enable-background:new 0 0 99.1 87;" xml:space="preserve">
<style type="text/css">
	.st0{fill:#FBCB18;}
	.st1{fill:#E5B417;}
	.st2{fill:#57B36E;}
	.st3{fill:#666666;}
	.st4{fill:url(#SVGID_1_);}
	.st5{fill:#E84C4F;}
	.st6{fill:url(#SVGID_2_);}
	.st7{fill:url(#SVGID_3_);}
	.st8{fill:url(#SVGID_4_);}
	.st9{fill:url(#SVGID_5_);}
	.st10{fill:url(#SVGID_6_);}
	.st11{fill:url(#SVGID_7_);}
</style>
<title>research</title>
<desc>Created with Sketch.</desc>
<g>
	<path class="st0" d="M83.6,79.8H17.2c-3.5,0-6.4-2.9-6.4-6.4V18.2c0-3.5,2.9-6.4,6.4-6.4h66.4c3.5,0,6.4,2.9,6.4,6.4v55.3
		C90,77,87.1,79.8,83.6,79.8z"/>
	<path class="st1" d="M82.1,78.3H18.7c-3.4,0-6.1-2.7-6.1-6.1V19.4c0-3.4,2.7-6.1,6.1-6.1h63.4c3.4,0,6.1,2.7,6.1,6.1v52.8
		C88.2,75.6,85.5,78.3,82.1,78.3z"/>
	<path class="st2" d="M85.7,29.7L69.7,2c-1.1-1.8-3.4-2.5-5.3-1.4L14.1,29.7H85.7z"/>
	<path class="st3" d="M10.8,51.9H90v-21c0-2.6-2.1-4.8-4.8-4.8H15.6c-2.6,0-4.8,2.1-4.8,4.8V51.9z"/>
	
		<linearGradient id="SVGID_1_" gradientUnits="userSpaceOnUse" x1="49.1901" y1="42.2248" x2="49.1901" y2="8.0773" gradientTransform="matrix(1.0039 0 0 -1.0039 1.013 89.7255)">
		<stop  offset="0" style="stop-color:#FF4B54"/>
		<stop  offset="1" style="stop-color:#DB3D43"/>
	</linearGradient>
	<path class="st4" d="M10.8,44v29.4c0,3.5,2.9,6.4,6.4,6.4h66.4c3.5,0,6.4-2.9,6.4-6.4V44c0-2.2-1.8-4-4-4H14.8
		C12.6,40.1,10.8,41.8,10.8,44z"/>
	<path class="st5" d="M78,28.8v51h5.5c3.5,0,6.4-2.9,6.4-6.4V40.8L78,28.8z"/>
	<path class="st0" d="M72.6,87l-55.6-6.5c-3.6-0.4-6.3-3.4-6.3-7V17.7c0,1.2,0.9,2.2,2.1,2.3l61.4,7.1c3.6,0.4,6.3,3.4,6.3,7V80
		C80.5,84.2,76.8,87.5,72.6,87z"/>
	
		<linearGradient id="SVGID_2_" gradientUnits="userSpaceOnUse" x1="13.4524" y1="65.8951" x2="13.4524" y2="6.7606" gradientTransform="matrix(1.0039 0 0 -1.0039 1.013 89.7255)">
		<stop  offset="0" style="stop-color:#FFF358"/>
		<stop  offset="1" style="stop-color:#FFE600"/>
	</linearGradient>
	<path class="st6" d="M15.8,26.4c0,0-0.1,0-0.1,0l-2.5-0.3c-0.7-0.1-1.2-0.7-1.1-1.4c0.1-0.7,0.7-1.2,1.4-1.1l2.5,0.3
		c0.7,0.1,1.2,0.7,1.1,1.4C17,25.9,16.4,26.4,15.8,26.4z"/>
	
		<linearGradient id="SVGID_3_" gradientUnits="userSpaceOnUse" x1="47.4456" y1="65.8932" x2="47.4456" y2="6.8828" gradientTransform="matrix(1.0039 0 0 -1.0039 1.013 89.7255)">
		<stop  offset="0" style="stop-color:#FFF358"/>
		<stop  offset="1" style="stop-color:#FFE600"/>
	</linearGradient>
	<path class="st7" d="M68.1,82.8c-0.1,0-0.1,0-0.2,0l-4.9-0.6c-0.7-0.1-1.2-0.7-1.1-1.4c0.1-0.7,0.7-1.2,1.4-1.1l4.9,0.6
		c0.7,0.1,1.2,0.7,1.1,1.4C69.2,82.3,68.7,82.8,68.1,82.8z M72.9,82.2c-0.5,0-0.9-0.3-1.2-0.7c-0.3-0.6,0-1.4,0.6-1.7
		c1.3-0.6,2.3-1.6,2.7-2.8c0.2-0.7,1-1,1.6-0.8c0.7,0.2,1,1,0.8,1.6c-0.6,1.8-2.1,3.3-4,4.3C73.3,82.1,73.1,82.2,72.9,82.2z
		 M58.2,81.6c-0.1,0-0.1,0-0.2,0l-4.9-0.6c-0.7-0.1-1.2-0.7-1.1-1.4c0.1-0.7,0.7-1.2,1.4-1.1l4.9,0.6c0.7,0.1,1.2,0.7,1.1,1.4
		C59.4,81.1,58.8,81.6,58.2,81.6z M48.3,80.3c-0.1,0-0.1,0-0.2,0l-4.9-0.6c-0.7-0.1-1.2-0.7-1.1-1.4c0.1-0.7,0.7-1.2,1.4-1.1
		l4.9,0.6c0.7,0.1,1.2,0.7,1.1,1.4C49.5,79.8,48.9,80.3,48.3,80.3z M38.4,79c-0.1,0-0.1,0-0.2,0l-4.9-0.6c-0.7-0.1-1.2-0.7-1.1-1.4
		c0.1-0.7,0.7-1.2,1.4-1.1l4.9,0.6c0.7,0.1,1.2,0.7,1.1,1.4C39.6,78.6,39,79,38.4,79z M28.5,77.8c-0.1,0-0.1,0-0.2,0l-4.9-0.6
		c-0.7-0.1-1.2-0.7-1.1-1.4c0.1-0.7,0.7-1.2,1.4-1.1l4.9,0.6c0.7,0.1,1.2,0.7,1.1,1.4C29.7,77.3,29.1,77.8,28.5,77.8z M76.5,73.7
		c-0.7,0-1.3-0.6-1.3-1.3v-5c0-0.7,0.6-1.3,1.3-1.3s1.3,0.6,1.3,1.3v5C77.8,73.1,77.3,73.7,76.5,73.7z M76.5,63.7
		c-0.7,0-1.3-0.6-1.3-1.3v-5c0-0.7,0.6-1.3,1.3-1.3s1.3,0.6,1.3,1.3v5C77.8,63.2,77.3,63.7,76.5,63.7z M76.5,53.8
		c-0.7,0-1.3-0.6-1.3-1.3v-5c0-0.7,0.6-1.3,1.3-1.3s1.3,0.6,1.3,1.3v5C77.8,53.2,77.3,53.8,76.5,53.8z M76.5,43.8
		c-0.7,0-1.3-0.6-1.3-1.3v-5c0-0.7,0.6-1.3,1.3-1.3s1.3,0.6,1.3,1.3v5C77.8,43.2,77.3,43.8,76.5,43.8z M74.8,34.4
		c-0.3,0-0.6-0.1-0.9-0.4c-0.9-0.9-2.3-1.5-3.7-1.6l0,0c-0.7-0.1-1.2-0.7-1.1-1.4c0.1-0.7,0.7-1.2,1.4-1.1l0,0c2,0.2,3.8,1,5.2,2.3
		c0.5,0.5,0.5,1.3,0,1.8C75.4,34.2,75.1,34.4,74.8,34.4z M65.3,31.9c0,0-0.1,0-0.1,0l-5-0.5c-0.7-0.1-1.2-0.7-1.1-1.4
		c0.1-0.7,0.7-1.2,1.4-1.1l5,0.5c0.7,0.1,1.2,0.7,1.1,1.4C66.5,31.4,66,31.9,65.3,31.9z M55.4,30.8c0,0-0.1,0-0.1,0l-5-0.5
		c-0.7-0.1-1.2-0.7-1.1-1.4c0.1-0.7,0.7-1.2,1.4-1.1l5,0.5c0.7,0.1,1.2,0.7,1.1,1.4C56.6,30.3,56.1,30.8,55.4,30.8z M45.5,29.7
		c0,0-0.1,0-0.1,0l-5-0.5c-0.7-0.1-1.2-0.7-1.1-1.4c0.1-0.7,0.7-1.2,1.4-1.1l5,0.5c0.7,0.1,1.2,0.7,1.1,1.4
		C46.7,29.2,46.2,29.7,45.5,29.7z M35.6,28.6c0,0-0.1,0-0.1,0l-5-0.5c-0.7-0.1-1.2-0.7-1.1-1.4c0.1-0.7,0.7-1.2,1.4-1.1l5,0.5
		c0.7,0.1,1.2,0.7,1.1,1.4C36.8,28.1,36.2,28.6,35.6,28.6z M25.7,27.5c0,0-0.1,0-0.1,0l-5-0.5c-0.7-0.1-1.2-0.7-1.1-1.4
		c0.1-0.7,0.7-1.2,1.4-1.1l5,0.5c0.7,0.1,1.2,0.7,1.1,1.4C26.9,27,26.3,27.5,25.7,27.5z"/>
	
		<linearGradient id="SVGID_4_" gradientUnits="userSpaceOnUse" x1="16.2622" y1="65.8966" x2="16.2622" y2="6.7638" gradientTransform="matrix(1.0039 0 0 -1.0039 1.013 89.7255)">
		<stop  offset="0" style="stop-color:#FFF358"/>
		<stop  offset="1" style="stop-color:#FFE600"/>
	</linearGradient>
	<path class="st8" d="M18.6,76.5c-0.1,0-0.1,0-0.2,0l-2.5-0.3c-0.7-0.1-1.2-0.7-1.1-1.4c0.1-0.7,0.7-1.2,1.4-1.1l2.5,0.3
		c0.7,0.1,1.2,0.7,1.1,1.4C19.8,76.1,19.2,76.5,18.6,76.5z"/>
	<path class="st3" d="M65.6,9.6l-8.2,4.5c-1.1,0.6-2.4,0.2-3-0.9l0,0c-0.6-1.1-0.2-2.4,0.9-3l8.2-4.5c1.1-0.6,2.4-0.2,3,0.9l0,0
		C67.1,7.7,66.7,9,65.6,9.6z"/>
	
		<linearGradient id="SVGID_5_" gradientUnits="userSpaceOnUse" x1="74.838" y1="23.2479" x2="57.3293" y2="40.7566" gradientTransform="matrix(1.0039 0 0 -1.0039 1.013 89.7255)">
		<stop  offset="0" style="stop-color:#DB3D43;stop-opacity:0"/>
		<stop  offset="1" style="stop-color:#DB3D43"/>
	</linearGradient>
	<path class="st9" d="M80.5,61.9l-8.1-8.1c-1.1-1.2-2.8-2-4.6-2c-3.5,0-6.3,2.8-6.3,6.3c0,1.8,0.8,3.5,2,4.6l17,17V61.9z"/>
	
		<linearGradient id="SVGID_6_" gradientUnits="userSpaceOnUse" x1="66.4984" y1="35.5095" x2="66.4984" y2="26.4748" gradientTransform="matrix(1.0039 0 0 -1.0039 1.013 89.7255)">
		<stop  offset="0" style="stop-color:#FF4B54"/>
		<stop  offset="1" style="stop-color:#DB3D43"/>
	</linearGradient>
	<circle class="st10" cx="67.8" cy="58" r="6.3"/>
	
		<linearGradient id="SVGID_7_" gradientUnits="userSpaceOnUse" x1="66.4984" y1="28.8808" x2="66.4984" y2="35.1153" gradientTransform="matrix(1.0039 0 0 -1.0039 1.013 89.7255)">
		<stop  offset="0" style="stop-color:#FF4B54"/>
		<stop  offset="1" style="stop-color:#DB3D43"/>
	</linearGradient>
	<circle class="st11" cx="67.8" cy="58" r="4.3"/>
	<circle class="st3" cx="66.1" cy="56.4" r="0.9"/>
	<circle class="st3" cx="69.4" cy="56.4" r="0.9"/>
	<circle class="st3" cx="66.1" cy="59.7" r="0.9"/>
	<circle class="st3" cx="69.4" cy="59.7" r="0.9"/>
</g>
</svg>
