<?xml version="1.0" encoding="utf-8"?>
<!-- Generator: Adobe Illustrator 23.0.0, SVG Export Plug-In . SVG Version: 6.00 Build 0)  -->
<svg version="1.1" id="Слой_1" xmlns="http://www.w3.org/2000/svg" xmlns:xlink="http://www.w3.org/1999/xlink" x="0px" y="0px"
	 viewBox="0 0 98 87" style="enable-background:new 0 0 98 87;" xml:space="preserve">
<style type="text/css">
	.st0{fill:#C8CACC;}
	.st1{fill:#E2E2E2;}
	.st2{fill:#666666;}
	.st3{fill:#FAFCFC;}
	.st4{fill:#AEB8D1;}
	.st5{fill:#556080;}
	.st6{fill:#BDC3C7;}
	.st7{fill:#FBCB18;}
	.st8{fill:#57B36E;}
</style>
<title>research</title>
<desc>Created with Sketch.</desc>
<g>
	<g>
		<g>
			<g>
				<path class="st0" d="M40.4,68.8l-2.5,9.9l-8.5,7.1v1.5h39.2v-1.5l-8.5-7.1l-2.5-9.9L49,68.6L40.4,68.8z M40.4,68.8"/>
				<rect x="29.4" y="85.8" class="st1" width="39.2" height="1.5"/>
				<path class="st2" d="M5.2,0.3h87.6c2.9,0,5.2,2.4,5.2,5.2v53.9H0V5.5C0,2.7,2.4,0.3,5.2,0.3L5.2,0.3z M5.2,0.3"/>
				<path class="st3" d="M3.6,55.9h90.9V5.5c0-0.9-0.8-1.7-1.7-1.7H5.2c-0.9,0-1.7,0.8-1.7,1.7L3.6,55.9L3.6,55.9z M3.6,55.9"/>
				<path class="st1" d="M98,59.5v5.7c0,2.9-2.6,5.2-5.8,5.2H5.8c-3.2,0-5.8-2.4-5.8-5.2v-5.7H98z M98,59.5"/>
			</g>
		</g>
	</g>
	<g>
		<path class="st4" d="M39.7,32.2l-4.1,4.1c-0.3,0.3-0.3,0.8,0,1.2c0.2,0.2,0.4,0.2,0.6,0.2c0.2,0,0.4-0.1,0.6-0.2l4.1-4.1
			c0.3-0.3,0.3-0.8,0-1.2C40.5,31.9,40,31.9,39.7,32.2L39.7,32.2z M39.7,32.2"/>
		<path class="st4" d="M47.4,32.2c-0.3-0.3-0.8-0.3-1.2,0c-0.3,0.3-0.3,0.8,0,1.2l4.9,4.9c0.2,0.2,0.4,0.2,0.6,0.2
			c0.2,0,0.4-0.1,0.6-0.2c0.3-0.3,0.3-0.8,0-1.2L47.4,32.2z M47.4,32.2"/>
		<path class="st4" d="M66.3,29.8c-0.3-0.3-0.8-0.3-1.2,0L56.9,38c-0.3,0.3-0.3,0.8,0,1.2c0.2,0.2,0.4,0.2,0.6,0.2
			c0.2,0,0.4-0.1,0.6-0.2l8.2-8.2C66.6,30.6,66.6,30.1,66.3,29.8L66.3,29.8z M66.3,29.8"/>
		<path class="st5" d="M27.1,54.1c-0.5,0-0.8-0.4-0.8-0.8V5.7c0-0.5,0.4-0.8,0.8-0.8c0.5,0,0.8,0.4,0.8,0.8v47.6
			C27.9,53.8,27.6,54.1,27.1,54.1L27.1,54.1z M27.1,54.1"/>
		<path class="st5" d="M73.1,52.5H25.5c-0.5,0-0.8-0.4-0.8-0.8c0-0.5,0.4-0.8,0.8-0.8h47.6c0.5,0,0.8,0.4,0.8,0.8
			C73.9,52.1,73.5,52.5,73.1,52.5L73.1,52.5z M73.1,52.5"/>
		<path class="st6" d="M32,28.7h-1.6c-0.5,0-0.8-0.4-0.8-0.8c0-0.5,0.4-0.8,0.8-0.8H32c0.5,0,0.8,0.4,0.8,0.8
			C32.9,28.3,32.5,28.7,32,28.7L32,28.7z M32,28.7"/>
		<path class="st6" d="M32,25.4h-1.6c-0.5,0-0.8-0.4-0.8-0.8c0-0.5,0.4-0.8,0.8-0.8H32c0.5,0,0.8,0.4,0.8,0.8
			C32.9,25.1,32.5,25.4,32,25.4L32,25.4z M32,25.4"/>
		<path class="st6" d="M32,22.1h-1.6c-0.5,0-0.8-0.4-0.8-0.8c0-0.5,0.4-0.8,0.8-0.8H32c0.5,0,0.8,0.4,0.8,0.8
			C32.9,21.8,32.5,22.1,32,22.1L32,22.1z M32,22.1"/>
		<path class="st6" d="M32,18.9h-1.6c-0.5,0-0.8-0.4-0.8-0.8c0-0.5,0.4-0.8,0.8-0.8H32c0.5,0,0.8,0.4,0.8,0.8
			C32.9,18.5,32.5,18.9,32,18.9L32,18.9z M32,18.9"/>
		<path class="st6" d="M32,15.6h-1.6c-0.5,0-0.8-0.4-0.8-0.8c0-0.5,0.4-0.8,0.8-0.8H32c0.5,0,0.8,0.4,0.8,0.8
			C32.9,15.2,32.5,15.6,32,15.6L32,15.6z M32,15.6"/>
		<path class="st6" d="M32,12.3h-1.6c-0.5,0-0.8-0.4-0.8-0.8c0-0.5,0.4-0.8,0.8-0.8H32c0.5,0,0.8,0.4,0.8,0.8
			C32.9,11.9,32.5,12.3,32,12.3L32,12.3z M32,12.3"/>
		<path class="st6" d="M32,9h-1.6c-0.5,0-0.8-0.4-0.8-0.8c0-0.5,0.4-0.8,0.8-0.8H32c0.5,0,0.8,0.4,0.8,0.8C32.9,8.6,32.5,9,32,9
			L32,9z M32,9"/>
		<path class="st7" d="M37.8,40.2c0,2.3-1.8,4.1-4.1,4.1c-2.3,0-4.1-1.8-4.1-4.1c0-2.3,1.8-4.1,4.1-4.1C36,36.1,37.8,37.9,37.8,40.2
			L37.8,40.2z M37.8,40.2"/>
		<path class="st8" d="M47.6,30.4c0,2.3-1.8,4.1-4.1,4.1c-2.3,0-4.1-1.8-4.1-4.1c0-2.3,1.8-4.1,4.1-4.1
			C45.8,26.2,47.6,28.1,47.6,30.4L47.6,30.4z M47.6,30.4"/>
		<path class="st8" d="M73.1,27.9c0,2.3-1.8,4.1-4.1,4.1c-2.3,0-4.1-1.8-4.1-4.1c0-2.3,1.8-4.1,4.1-4.1
			C71.2,23.8,73.1,25.6,73.1,27.9L73.1,27.9z M73.1,27.9"/>
		<path class="st7" d="M58.3,41c0,2.3-1.8,4.1-4.1,4.1c-2.3,0-4.1-1.8-4.1-4.1c0-2.3,1.8-4.1,4.1-4.1C56.5,36.9,58.3,38.8,58.3,41
			L58.3,41z M58.3,41"/>
	</g>
</g>
</svg>
