<?xml version="1.0" encoding="utf-8"?>
<!-- Generator: Adobe Illustrator 23.0.0, SVG Export Plug-In . SVG Version: 6.00 Build 0)  -->
<svg version="1.1" id="Слой_1" xmlns="http://www.w3.org/2000/svg" xmlns:xlink="http://www.w3.org/1999/xlink" x="0px" y="0px"
	 viewBox="0 0 99.1 87.6" style="enable-background:new 0 0 99.1 87.6;" xml:space="preserve">
<style type="text/css">
	.st0{fill:#EFEFEF;}
	.st1{fill:#666666;}
	.st2{fill:#FFFFFF;}
	.st3{fill:#E84C4F;}
	.st4{fill:#5C95E9;}
	.st5{fill:#57B36E;}
	.st6{fill:#C8CACC;}
	.st7{fill:#ECF0F1;}
	.st8{fill:#FBCB18;}
</style>
<title>research</title>
<desc>Created with Sketch.</desc>
<g>
	<g>
		<path class="st0" d="M11.4,0.3h71.1c2,0,3.7,1.7,3.7,3.7v71c0,2-1.7,3.7-3.7,3.7H11.4c-2,0-3.7-1.7-3.7-3.7V4
			C7.8,2,9.4,0.3,11.4,0.3L11.4,0.3z"/>
		<path class="st1" d="M15.1,15h63.7c1.3,0,2.5,1.1,2.5,2.5v53.9c0,1.3-1.1,2.5-2.5,2.5H15.1c-1.3,0-2.5-1.1-2.5-2.5V17.5
			C12.7,16.1,13.8,15,15.1,15L15.1,15z"/>
		<path class="st2" d="M24.9,26h35.5c0.7,0,1.2,0.6,1.2,1.2v1.2c0,0.7-0.6,1.2-1.2,1.2H24.9c-0.7,0-1.2-0.6-1.2-1.2v-1.2
			C23.7,26.6,24.2,26,24.9,26L24.9,26z"/>
		<path class="st3" d="M39.6,34.6H24.9c-0.7,0-1.2,0.6-1.2,1.2V37c0,0.7,0.6,1.2,1.2,1.2h14.7c0.7,0,1.2-0.6,1.2-1.2v-1.2
			C40.8,35.2,40.3,34.6,39.6,34.6L39.6,34.6z M35.9,51.8h-11c-0.7,0-1.2,0.6-1.2,1.2v1.2c0,0.7,0.6,1.2,1.2,1.2h11
			c0.7,0,1.2-0.6,1.2-1.2V53C37.2,52.3,36.6,51.8,35.9,51.8L35.9,51.8z M69,51.8h-7.4c-0.7,0-1.2,0.6-1.2,1.2v1.2
			c0,0.7,0.6,1.2,1.2,1.2H69c0.7,0,1.2-0.6,1.2-1.2V53C70.3,52.3,69.7,51.8,69,51.8L69,51.8z"/>
		<path class="st4" d="M69,34.6H47c-0.7,0-1.2,0.6-1.2,1.2V37c0,0.7,0.6,1.2,1.2,1.2h22c0.7,0,1.2-0.6,1.2-1.2v-1.2
			C70.3,35.2,69.7,34.6,69,34.6L69,34.6z M69,60.3H24.9c-0.7,0-1.2,0.6-1.2,1.2v1.2c0,0.7,0.6,1.2,1.2,1.2H69c0.7,0,1.2-0.6,1.2-1.2
			v-1.2C70.3,60.9,69.7,60.3,69,60.3L69,60.3z"/>
		<path class="st5" d="M54.3,43.2H24.9c-0.7,0-1.2,0.6-1.2,1.2v1.2c0,0.7,0.6,1.2,1.2,1.2h29.4c0.7,0,1.2-0.6,1.2-1.2v-1.2
			C55.5,43.7,55,43.2,54.3,43.2L54.3,43.2z M54.3,51.8h-11c-0.7,0-1.2,0.6-1.2,1.2v1.2c0,0.7,0.6,1.2,1.2,1.2h11
			c0.7,0,1.2-0.6,1.2-1.2V53C55.5,52.3,55,51.8,54.3,51.8L54.3,51.8z"/>
		<path class="st6" d="M15.1,5.2c-1.3,0-2.5,1.1-2.5,2.5c0,1.3,1.1,2.5,2.5,2.5c1.3,0,2.5-1.1,2.5-2.5S16.5,5.2,15.1,5.2L15.1,5.2z
			 M22.5,5.2c-1.3,0-2.5,1.1-2.5,2.5c0,1.3,1.1,2.5,2.5,2.5c1.3,0,2.5-1.1,2.5-2.5C24.9,6.3,23.8,5.2,22.5,5.2L22.5,5.2z M29.8,5.2
			c-1.3,0-2.5,1.1-2.5,2.5c0,1.3,1.1,2.5,2.5,2.5c1.3,0,2.5-1.1,2.5-2.5S31.2,5.2,29.8,5.2L29.8,5.2z"/>
	</g>
	<g>
		<rect x="38.1" y="37.3" class="st7" width="52.9" height="40.4"/>
		<path class="st1" d="M92,78.6H37.1V36.3H92V78.6z M39,76.7h51V38.2H39V76.7z"/>
		<rect x="41.9" y="41.1" class="st1" width="45.2" height="32.7"/>
		<path class="st7" d="M88.1,74.8H41V40.2h47.1V74.8z M42.9,72.9h43.3V42.1H42.9V72.9z"/>
		<path class="st8" d="M55.9,49.4c0,2.4-2,4.4-4.4,4.4s-4.4-2-4.4-4.4s2-4.4,4.4-4.4C54,45,55.9,46.9,55.9,49.4L55.9,49.4z"/>
		<path class="st5" d="M86.2,64.3l-1-1.1L73.7,52.7l-10.1,11l5.3,5.3l3.9,3.9h13.5v-8.6H86.2z"/>
		<path class="st5" d="M42.9,72.9h29.8L68.8,69L58.3,58.5L42.9,71.9V72.9z"/>
		<path class="st5" d="M94.8,75.8c0,6.4-5.2,11.5-11.5,11.5c-6.4,0-11.5-5.2-11.5-11.5c0-6.4,5.2-11.5,11.5-11.5
			C89.7,64.2,94.8,69.4,94.8,75.8L94.8,75.8z"/>
		<path class="st2" d="M89.1,74.8h-4.8V70c0-0.5-0.4-1-1-1c-0.5,0-1,0.4-1,1v4.8h-4.8c-0.5,0-1,0.4-1,1c0,0.5,0.4,1,1,1h4.8v4.8
			c0,0.5,0.4,1,1,1c0.5,0,1-0.4,1-1v-4.8h4.8c0.5,0,1-0.4,1-1C90,75.2,89.6,74.8,89.1,74.8L89.1,74.8z"/>
	</g>
</g>
</svg>
