<?xml version="1.0" encoding="utf-8"?>
<!-- Generator: Adobe Illustrator 23.0.0, SVG Export Plug-In . SVG Version: 6.00 Build 0)  -->
<svg version="1.1" id="Слой_1" xmlns="http://www.w3.org/2000/svg" xmlns:xlink="http://www.w3.org/1999/xlink" x="0px" y="0px"
	 viewBox="0 0 76.9 64.1" style="enable-background:new 0 0 76.9 64.1;" xml:space="preserve">
<style type="text/css">
	.st0{fill:#FF5760;}
	.st1{fill:#E9E9F1;}
	.st2{fill:#AFC2DB;}
	.st3{fill:#5C95E9;}
	.st4{fill:#CDCDD3;}
	.st5{fill:#E84C4F;}
	.st6{fill:#FFFFFF;}
	.st7{fill:#E1EBF0;}
	.st8{fill:#B2D0D6;}
</style>
<title>shield</title>
<desc>Created with Sketch.</desc>
<g>
	<path class="st0" d="M19.9,15.5l3-5.7l3,5.7l6.7,0.9l-4.8,4.4l1.1,6.2l-6-2.9l-6,2.9l1.1-6.2l-4.8-4.4L19.9,15.5z M13.2,16.4"/>
	<path class="st1" d="M31.5,43.1c-0.9,0-1.7-0.4-2.3-0.9c-0.6-0.6-0.9-1.4-0.9-2.3c0-1.8,1.4-3.2,3.2-3.2h8.6V26.5
		c0-1,0.4-2,1.1-2.7c0.7-0.7,1.6-1.1,2.7-1.1c2.1,0,3.8,1.7,3.8,3.8v4.8l5.4,5.4h5.4v25.8H31.5c-0.9,0-1.7-0.4-2.3-0.9
		c-0.6-0.6-0.9-1.4-0.9-2.3c0-1.8,1.4-3.2,3.2-3.2c-0.9,0-1.7-0.4-2.3-0.9c-0.6-0.6-0.9-1.4-0.9-2.3c0-1.8,1.4-3.2,3.2-3.2
		c-0.9,0-1.7-0.4-2.3-0.9c-0.6-0.6-0.9-1.4-0.9-2.3C28.3,44.6,29.7,43.1,31.5,43.1L31.5,43.1z M31.5,43.1"/>
	<path class="st0" d="M41.1,6.5l3.3-6.4l3.3,6.4l7.4,1l-5.4,5l1.3,7l-6.6-3.3l-6.6,3.3l1.3-7l-5.4-5L41.1,6.5z M33.7,7.5"/>
	<path class="st0" d="M62.9,15.5l3-5.7l3,5.7l6.7,0.9l-4.8,4.4l1.1,6.2l-6-2.9l-6,2.9l1.1-6.2l-4.8-4.4L62.9,15.5z M56.2,16.4"/>
	<rect x="58.4" y="36.7" class="st2" width="8.6" height="25.8"/>
	<rect x="67" y="36.7" class="st3" width="8.6" height="25.8"/>
	<rect x="30.4" y="42.1" class="st4" width="6.5" height="2.2"/>
	<rect x="30.4" y="48.5" class="st4" width="6.5" height="2.2"/>
	<rect x="30.4" y="55" class="st4" width="6.5" height="2.2"/>
	<rect x="61.6" y="57.1" class="st3" width="2.2" height="2.2"/>
	<rect x="61.6" y="52.8" class="st3" width="2.2" height="2.2"/>
	<rect x="61.6" y="48.5" class="st3" width="2.2" height="2.2"/>
	<rect x="56.2" y="36.7" class="st4" width="2.2" height="25.8"/>
	<path class="st5" d="M33.7,7.5l5.4,5l-1.3,7l6.6-3.3l0.1,0v-16l-0.1-0.1l-3.3,6.4L33.7,7.5z M41.1,6.5"/>
	<path class="st5" d="M65.9,24.1V9.8l-3,5.7l-6.7,0.9l4.8,4.4L59.9,27L65.9,24.1z M59.9,27"/>
	<path class="st5" d="M22.9,24.1V9.8l-3,5.7l-6.7,0.9l4.8,4.4L16.9,27L22.9,24.1z M16.9,27"/>
</g>
<g>
	<g>
		<path class="st6" d="M26.6,51.2c0,7-5.7,12.8-12.7,12.8l0,0C6.7,64,1,58.3,1,51.2s5.7-12.8,12.8-12.8l0,0
			C20.9,38.4,26.6,44.2,26.6,51.2L26.6,51.2z"/>
		<path class="st7" d="M26.6,51.2c0,7-5.7,12.8-12.7,12.8V38.4C20.9,38.4,26.6,44.2,26.6,51.2L26.6,51.2z"/>
		<path class="st8" d="M19.5,48.9h-0.3v-1.6c0-2.9-2.3-5.3-5.2-5.4c-0.1,0-0.2,0-0.3,0c-2.9,0.1-5.2,2.5-5.2,5.4v1.6H8.2
			c-0.5,0-0.9,0.5-0.9,1.2v7.8c0,0.7,0.4,1.2,0.9,1.2h11.3c0.5,0,0.9-0.5,0.9-1.2v-7.8C20.4,49.5,20,48.9,19.5,48.9L19.5,48.9z
			 M14.9,54v2.4c0,0.3-0.2,0.5-0.5,0.5h-1.1c-0.3,0-0.5-0.2-0.5-0.5V54c-0.3-0.3-0.4-0.6-0.4-1c0-0.8,0.6-1.4,1.3-1.4
			c0.1,0,0.2,0,0.3,0c0.7,0,1.3,0.7,1.3,1.4C15.3,53.4,15.1,53.8,14.9,54L14.9,54z M16.9,48.9h-6.2v-1.6c0-1.7,1.4-3.1,3.1-3.1
			s3.1,1.4,3.1,3.1V48.9z"/>
	</g>
</g>
</svg>
