<?xml version="1.0" encoding="utf-8"?>
<!-- Generator: Adobe Illustrator 23.0.0, SVG Export Plug-In . SVG Version: 6.00 Build 0)  -->
<svg version="1.1" id="Слой_1" xmlns="http://www.w3.org/2000/svg" xmlns:xlink="http://www.w3.org/1999/xlink" x="0px" y="0px"
	 viewBox="0 0 76.9 64.1" style="enable-background:new 0 0 76.9 64.1;" xml:space="preserve">
<style type="text/css">
	.st0{fill:#4C4C4C;}
	.st1{fill:#383838;}
	.st2{fill:#808080;}
	.st3{fill:#616161;}
	.st4{fill:#CCCCCC;}
	.st5{fill:#AEAEAE;}
	.st6{fill:#FFD04D;}
	.st7{fill:#FBCB18;}
	.st8{fill:#FFFFFF;}
	.st9{fill:#E1EBF0;}
	.st10{fill:#B2D0D6;}
</style>
<title>shield</title>
<desc>Created with Sketch.</desc>
<g>
	<g>
		<path class="st0" d="M74.8,0H47.9H4C2.9,0,1.9,0.9,1.9,2.1v38.4l36.8,5.3l38.1-5.3V2.1C76.9,0.9,76,0,74.8,0z"/>
		<path class="st1" d="M74.8,0H47.9L19.1,47.5h13.6h13.3h28.7c1.2,0,2.1-0.9,2.1-2.1v-5V2.1C76.9,0.9,76,0,74.8,0z"/>
		<polygon class="st2" points="46.1,46.5 47.7,59.5 31.2,59.5 32.7,46.5 		"/>
		<polygon class="st3" points="47.1,55.1 46.1,46.5 32.7,46.5 31.7,55.1 		"/>
		<path class="st4" d="M23.4,40.5H1.9v5c0,1.2,0.9,2.1,2.1,2.1h15.1h13.6h13.3h28.7c1.2,0,2.1-0.9,2.1-2.1v-5H23.4z"/>
		<path class="st5" d="M23.4,40.5l-4.3,7.1h55.7c1.2,0,2.1-0.9,2.1-2.1v-5L23.4,40.5L23.4,40.5z"/>
		<path class="st4" d="M53.5,60.3H25.3c-0.6,0-1.1-0.5-1.1-1.1c0-0.6,0.5-1.1,1.1-1.1h28.2c0.6,0,1.1,0.5,1.1,1.1
			C54.6,59.8,54.1,60.3,53.5,60.3z"/>
		<path class="st6" d="M54.9,12.5v16.3c0,2-1.6,3.6-3.6,3.6H27.5c-2,0-3.6-1.6-3.6-3.6V12.5c0-2,1.6-3.6,3.6-3.6h23.9
			C53.3,9,54.9,10.6,54.9,12.5z"/>
		<path class="st7" d="M51.4,9h-8.9L28.3,32.4h23c2,0,3.6-1.6,3.6-3.6V12.5C54.9,10.6,53.3,9,51.4,9z"/>
		<polygon class="st0" points="45.1,20.7 37.2,25.2 37.2,16.1 		"/>
	</g>
	<g>
		<path class="st8" d="M25.6,51.2c0,7-5.7,12.8-12.7,12.8h0C5.7,64,0,58.3,0,51.2c0-7.1,5.7-12.8,12.8-12.8h0
			C19.9,38.4,25.6,44.2,25.6,51.2L25.6,51.2z M25.6,51.2"/>
		<path class="st9" d="M25.6,51.2c0,7-5.7,12.8-12.7,12.8V38.4C19.9,38.4,25.6,44.2,25.6,51.2L25.6,51.2z M25.6,51.2"/>
		<path class="st10" d="M18.5,48.9h-0.3v-1.6c0-2.9-2.3-5.3-5.2-5.4c-0.1,0-0.2,0-0.3,0c-2.9,0.1-5.2,2.5-5.2,5.4v1.6H7.2
			c-0.5,0-0.9,0.5-0.9,1.2v7.8c0,0.7,0.4,1.2,0.9,1.2h11.3c0.5,0,0.9-0.5,0.9-1.2v-7.8C19.4,49.5,19,48.9,18.5,48.9L18.5,48.9z
			 M13.9,54v2.4c0,0.3-0.2,0.5-0.5,0.5h-1.1c-0.3,0-0.5-0.2-0.5-0.5V54c-0.3-0.3-0.4-0.6-0.4-1c0-0.8,0.6-1.4,1.3-1.4
			c0.1,0,0.2,0,0.3,0c0.7,0,1.3,0.7,1.3,1.4C14.3,53.4,14.1,53.8,13.9,54L13.9,54z M15.9,48.9H9.7v-1.6c0-1.7,1.4-3.1,3.1-3.1
			c1.7,0,3.1,1.4,3.1,3.1V48.9z M15.9,48.9"/>
	</g>
</g>
</svg>
