<?xml version="1.0" encoding="utf-8"?>
<!-- Generator: Adobe Illustrator 23.0.1, SVG Export Plug-In . SVG Version: 6.00 Build 0)  -->
<svg version="1.1" id="Слой_1" xmlns="http://www.w3.org/2000/svg" xmlns:xlink="http://www.w3.org/1999/xlink" x="0px" y="0px"
	 viewBox="0 0 71 71" style="enable-background:new 0 0 71 71;" xml:space="preserve">
<style type="text/css">
	.st0{fill:#4EB593;}
</style>
<g>
	<polygon class="st0" points="42.4,36.7 40.1,36.7 40.1,40.1 36.8,40 36.8,42.3 40.1,42.3 40.1,45.7 42.4,45.7 42.4,42.3 45.7,42.3 
		45.7,40 42.4,40.1 	"/>
	<path class="st0" d="M41.1,16c0,0,0,0.1-0.1,0.1c0,0,0,0,0.1,0C41.1,16.1,41.1,16.1,41.1,16L41.1,16z"/>
	<path class="st0" d="M40.2,8.5c-0.6,2.3-1.4,4.5-2.4,6.7c-0.4-0.1-0.9-0.2-1.3-0.2c-1.9-0.2-3.7-0.2-5.4,0.2
		c-0.4-1.2-2.6-3.7-3.5-4.7c-1.4-1.4-3.1-2.3-4.9-2.6V2.6l-3.1-0.1v5.3c-1.7,0.3-5.3,3-6.8,4.5l0,0c0,0,0,0,0,0
		c-0.1,0.1-0.1,0.1-0.2,0.2c0,0,0,0,0,0l0,0c-1.5,1.6-4.4,5.3-4.7,7H2.6v3.3h5.3c0.3,1.8,1.2,3.5,2.6,4.9c0.9,0.9,3.4,3.1,4.7,3.5
		c-0.3,1.7-0.3,3.5-0.2,5.4c0.1,0.4,0.1,0.8,0.2,1.3c-2.1,1.1-4.4,1.8-6.7,2.4l0.8,3.1c2.3-0.6,4.6-1.4,6.8-2.4l-0.9-3.2
		c4.1-1.9,9.7-6.5,12.9-9.7c0,0,0,0,0,0c3.3-3.3,7.9-8.8,9.7-13l3.1,0.9c1-2.1,1.8-4.4,2.3-6.7L40.2,8.5z M26.7,26.2L26.7,26.2
		c-2.2,2.1-6.8,6.3-9.2,7.7c0-0.8,0.1-1.6,0.2-2.4l0.4-2l-1.9-0.8c-0.9-0.3-3.1-2.3-3.8-3c-1-1-1.6-2.2-1.9-3.6l-0.2-1.2l0.2-1.2
		c0-1.2,2.8-4.5,3.7-5.5c0,0,0,0,0,0c1-1,4.3-3.7,5.7-4l1.2-0.2l1.2,0.2c1.4,0.2,2.6,0.9,3.6,1.9c0.7,0.7,2.6,2.9,3,3.8l0.8,1.9
		l2-0.4c0.8-0.2,1.6-0.2,2.4-0.2C32.8,19.7,29,24,26.7,26.2z"/>
	<path class="st0" d="M61.7,39.1c2.2-1,4.4-1.9,6.7-2.4l-0.8-3.1c-2.3,0.6-4.6,1.4-6.8,2.4c-1-3-4.8-7.9-7.1-10.4l4.9-4.9l-2.3-2.3
		l-4.9,4.9c-2.5-2.3-7.4-6-10.4-7c-1.9,4.4-6.9,10.6-10.4,14.1c-3.6,3.5-10.2,8.8-14.6,10.8c1,3,4.8,7.9,7.1,10.4l-4.9,4.9l2.3,2.3
		l4.9-4.9c2.5,2.3,7.4,6,10.4,7.1c-1,2.2-1.8,4.5-2.4,6.8l3.1,0.8c0.6-2.3,1.4-4.5,2.4-6.7c0.4,0.1,0.9,0.2,1.3,0.2
		c5.2,0.6,12.1-3,15.3-6.2c0,0,0,0,0,0c3.3-3.3,6.8-10.1,6.2-15.3C61.9,40,61.8,39.6,61.7,39.1z M54.1,53.6
		c-2.8,2.7-9.1,6.3-13.5,5.9c-0.4-0.1-0.8-0.1-1.1-0.2L38,59l-1.4-0.5c-2.7-0.9-7.4-4.6-9.6-6.5L26,51l-1-1.1
		c-1.5-1.6-4.9-5.7-5.7-7.6c4.1-2.1,9.8-6.9,13-10.1c0,0,0,0,0,0c3.1-3.1,8-9,10.1-13c2,0.9,5.9,4.3,7.6,5.7l1.1,1l1,1.1
		c2,2.2,5.7,6.9,6.5,9.6L59,38l0.3,1.5c0.1,0.4,0.1,0.8,0.2,1.1C60,44.9,56.8,50.7,54.1,53.6z"/>
</g>
</svg>
