<?xml version="1.0" encoding="utf-8"?>
<!-- Generator: Adobe Illustrator 23.0.1, SVG Export Plug-In . SVG Version: 6.00 Build 0)  -->
<svg version="1.1" id="Слой_1" xmlns="http://www.w3.org/2000/svg" xmlns:xlink="http://www.w3.org/1999/xlink" x="0px" y="0px"
	 viewBox="0 0 26 24.2" style="enable-background:new 0 0 26 24.2;" xml:space="preserve">
<style type="text/css">
	.st0{fill:#1A4A7F;}
	.st1{fill-rule:evenodd;clip-rule:evenodd;fill:url(#SVGID_1_);}
</style>
<title>ico-yandex-dir</title>
<g>
	<path class="st0" d="M0,13C0,5.8,5.8,0,13,0s13,5.8,13,13s-5.8,13-13,13S0,20.2,0,13z"/>
	
		<linearGradient id="SVGID_1_" gradientUnits="userSpaceOnUse" x1="30.2425" y1="24.0388" x2="-14.2614" y2="-16.7993" gradientTransform="matrix(1 0 0 -1 0 23.8898)">
		<stop  offset="0" style="stop-color:#FFB800"/>
		<stop  offset="1" style="stop-color:#FFF11D"/>
	</linearGradient>
	<path class="st1" d="M10.9,25.8c-2.6-0.4-5-1.6-6.9-3.5l11.7-10.8L9,13.2c-1.8,0.5-3.7-0.7-4.2-2.5c0,0,0,0,0-0.1
		C4.4,8.8,5.5,6.9,7.4,6.4L21.3,3c5.5,4.6,6.2,12.8,1.6,18.3c-1.3,1.5-2.9,2.8-4.8,3.6c0-0.5,0-0.9,0.2-1.4l2.2-6.6
		C20.6,16.9,10.9,25.8,10.9,25.8z"/>
</g>
</svg>
