<?xml version="1.0" encoding="utf-8"?>
<!-- Generator: Adobe Illustrator 23.0.1, SVG Export Plug-In . SVG Version: 6.00 Build 0)  -->
<svg version="1.1" id="Слой_1" xmlns="http://www.w3.org/2000/svg" xmlns:xlink="http://www.w3.org/1999/xlink" x="0px" y="0px"
	 viewBox="0 0 71 71" style="enable-background:new 0 0 71 71;" xml:space="preserve">
<style type="text/css">
	.st0{fill:#4EB593;}
</style>
<g>
	<g>
		<path class="st0" d="M55.9,41.8l14.3-7.1c0.5-0.3,0.8-0.8,0.8-1.4c0-0.6-0.4-1-1-1.2l-23.2-7.2c-0.7-0.2-1.5,0.2-1.7,0.9
			c-0.2,0.7,0.2,1.5,0.9,1.7l19.9,6.2L53,40.1c-0.4,0.2-0.7,0.6-0.8,1s0.1,0.9,0.4,1.2l15,15L57.4,67.6l-15-15
			c-0.3-0.3-0.8-0.5-1.2-0.4s-0.8,0.4-1,0.8l-6.4,12.9L19.3,19.3l16.1,5c0.7,0.2,1.5-0.2,1.7-0.9c0.2-0.7-0.2-1.5-0.9-1.7l-18.6-5.8
			c-0.5-0.2-1,0-1.4,0.3c-0.4,0.4-0.5,0.9-0.3,1.4L32.1,70c0.2,0.5,0.7,0.9,1.2,1h0.1c0.5,0,1-0.3,1.2-0.8l7.1-14.3l14.6,14.6
			c0.5,0.5,1.4,0.5,2,0l12.1-12.1c0.5-0.5,0.5-1.4,0-2L55.9,41.8z"/>
		<path class="st0" d="M7,5C6.5,4.5,5.6,4.5,5,5C4.5,5.6,4.5,6.5,5,7l3.5,3.5c0.3,0.3,0.6,0.4,1,0.4s0.7-0.1,1-0.4
			c0.5-0.5,0.5-1.4,0-2L7,5z"/>
		<path class="st0" d="M24.8,10.9c0.4,0,0.7-0.1,1-0.4L29.3,7c0.5-0.5,0.5-1.4,0-2c-0.5-0.5-1.4-0.5-2,0l-3.5,3.5
			c-0.5,0.5-0.5,1.4,0,2C24.1,10.8,24.4,10.9,24.8,10.9z"/>
		<path class="st0" d="M8.6,23.8L5,27.3c-0.5,0.5-0.5,1.4,0,2c0.3,0.3,0.6,0.4,1,0.4s0.7-0.1,1-0.4l3.5-3.5c0.5-0.5,0.5-1.4,0-2
			C10,23.2,9.1,23.2,8.6,23.8z"/>
		<path class="st0" d="M17.2,7.8c0.8,0,1.4-0.6,1.4-1.4v-5C18.6,0.6,18,0,17.2,0s-1.4,0.6-1.4,1.4v5C15.8,7.2,16.4,7.8,17.2,7.8z"/>
		<path class="st0" d="M7.8,17.2c0-0.8-0.6-1.4-1.4-1.4h-5c-0.8,0-1.4,0.6-1.4,1.4s0.6,1.4,1.4,1.4h5C7.2,18.6,7.8,17.9,7.8,17.2z"
			/>
	</g>
	<path class="st0" d="M39.8,25.1c0.2,0.5,0.8,0.9,1.4,0.9c0.6,0,1.1-0.5,1.3-1c0.2-0.6-0.1-1.2-0.6-1.5s-1.1-0.3-1.6,0
		C39.8,23.8,39.5,24.5,39.8,25.1z"/>
</g>
</svg>
