<?xml version="1.0" encoding="utf-8"?>
<!-- Generator: Adobe Illustrator 23.0.1, SVG Export Plug-In . SVG Version: 6.00 Build 0)  -->
<svg version="1.1" id="Слой_1" xmlns="http://www.w3.org/2000/svg" xmlns:xlink="http://www.w3.org/1999/xlink" x="0px" y="0px"
	 viewBox="0 0 16 16" style="enable-background:new 0 0 16 16;" xml:space="preserve">
<style type="text/css">
	.st0{fill:#999999;}
	.st1{fill-rule:evenodd;clip-rule:evenodd;fill:#FFFFFF;}
</style>
<g>
	<circle class="st0" cx="8" cy="8" r="8"/>
</g>
<path class="st1" d="M5.9,4.3c-0.4-0.4-1.1-0.4-1.5,0s-0.4,1.1,0,1.5l2.3,2.3l-2.3,2.3c-0.4,0.4-0.4,1.1,0,1.5
	c0.4,0.4,1.1,0.4,1.5,0l2.3-2.3l2.3,2.3c0.4,0.4,1.1,0.4,1.5,0c0.4-0.4,0.4-1.1,0-1.5L9.7,8.2L12,5.9c0.4-0.4,0.4-1.1,0-1.5
	c-0.4-0.4-1.1-0.4-1.5,0L8.2,6.6L5.9,4.3z"/>
</svg>
