<?xml version="1.0" encoding="utf-8"?>
<!-- Generator: Adobe Illustrator 23.0.1, SVG Export Plug-In . SVG Version: 6.00 Build 0)  -->
<svg version="1.1" id="Слой_1" xmlns="http://www.w3.org/2000/svg" xmlns:xlink="http://www.w3.org/1999/xlink" x="0px" y="0px"
	 viewBox="0 0 96.7 77" style="enable-background:new 0 0 96.7 77;" xml:space="preserve">
<style type="text/css">
	.st0{fill:#FFFFFF;}
	.st1{fill:#475B62;}
	.st2{fill:#3B4B52;}
	.st3{opacity:0.8;fill:#566C7A;enable-background:new    ;}
	.st4{fill:#566C7A;}
	.st5{opacity:0.8;fill:#FBCB19;enable-background:new    ;}
	.st6{fill:#FBCB19;}
	.st7{fill:#58B46F;}
	.st8{fill:#7DC083;}
	.st9{fill:#6CBA7A;}
</style>
<title>project-ico-1</title>
<polygon class="st0" points="90.5,1 48.4,1 6.1,1 1.3,1 1.3,5.9 1.3,10.8 1.3,15.6 1.3,15.8 1.3,71.1 1.3,76 6.1,76 48.4,76 
	90.5,76 95.4,76 95.4,71.1 95.4,15.8 95.4,15.6 95.4,10.8 95.4,5.9 95.4,1 "/>
<path class="st1" d="M16.2,10.8h4.9v5h-4.9V10.8z"/>
<path class="st1" d="M35.9,10.8h4.9v5h-4.9V10.8z"/>
<path class="st2" d="M55.7,8.3h4.9v9.9h-4.9V8.3z"/>
<path class="st2" d="M75.5,8.3h4.9v9.9h-4.9V8.3z"/>
<path class="st3" d="M6.1,5.9h84.4v4.9H6.1V5.9z"/>
<path class="st4" d="M48.4,5.9h42.1v4.9H48.4V5.9z"/>
<path class="st5" d="M6.1,15.8v55.3h84.4V15.8H6.1z"/>
<path class="st6" d="M48.4,15.8h42.1v55.3H48.4V15.8z"/>
<path class="st4" d="M55.7,50.3h24.7v4.9H55.7V50.3z"/>
<path class="st4" d="M55.7,40.4h24.7v5H55.7V40.4z"/>
<path class="st4" d="M55.7,30.6h24.7v4.9H55.7V30.6z"/>
<path class="st7" d="M51.1,55.2H38.7l-9.9-11l8.4-16.8L51.1,55.2z"/>
<path class="st8" d="M27.3,32.5L15.9,55.2h22.9L27.3,32.5z"/>
<path class="st9" d="M38.7,55.2H31V39.8L38.7,55.2z"/>
</svg>
