<?xml version="1.0" encoding="utf-8"?>
<!-- Generator: Adobe Illustrator 23.0.1, SVG Export Plug-In . SVG Version: 6.00 Build 0)  -->
<svg version="1.1" id="Слой_1" xmlns="http://www.w3.org/2000/svg" xmlns:xlink="http://www.w3.org/1999/xlink" x="0px" y="0px"
	 viewBox="0 0 208.2 208.2" style="enable-background:new 0 0 208.2 208.2;" xml:space="preserve">
<style type="text/css">
	.st0{fill:#FBCB18;}
</style>
<g>
	<g>
		
			<ellipse transform="matrix(0.9996 -2.971839e-02 2.971839e-02 0.9996 -2.9424 3.1381)" class="st0" cx="104.1" cy="100.6" rx="9.8" ry="9.8"/>
		<path class="st0" d="M125.4,74.9h-2.7v-2.7V54.5c0-10.2-8.3-18.6-18.6-18.6c-10.2,0-18.6,8.3-18.6,18.6v17.7v2.7h-2.7h-15v62h72.6
			v-62H125.4z M107,111.6l-2,0.5v2.1v7.6c0,0.5-0.4,0.9-0.9,0.9c-0.5,0-0.9-0.4-0.9-0.9v-7.6v-2.1l-2-0.5c-5.1-1.3-8.6-5.9-8.6-11.1
			c0-6.3,5.2-11.5,11.5-11.5c6.3,0,11.5,5.2,11.5,11.5C115.6,105.8,112.1,110.3,107,111.6z M121,72.2v2.7h-2.7H89.9h-2.7v-2.7V54.5
			c0-9.3,7.6-16.9,16.9-16.9c9.3,0,16.9,7.6,16.9,16.9V72.2z"/>
	</g>
	<path class="st0" d="M104.1,0.5c-51.3,0-93,41.7-93,93c0,23.4,8.8,45.8,24.7,63c15.8,17.1,37.3,27.6,60.4,29.6l5.7,0.5l-4.1,4.1
		l-15.6,15.6c-0.3,0.3-0.3,0.9,0,1.2c0.2,0.2,0.5,0.3,0.6,0.3c0.1,0,0.4,0,0.6-0.3l21.3-21.3c0.1-0.1,0.1-0.2,0.2-0.3
		c0.1-0.2,0.1-0.4,0-0.7c0-0.1-0.1-0.2-0.2-0.3l-21.3-21.3c-0.2-0.2-0.4-0.3-0.6-0.3s-0.4,0-0.6,0.3c-0.3,0.3-0.3,0.9,0,1.2
		L97,179.7l5.3,5.3l-7.5-0.8c-46.7-4.7-82-43.8-82-90.8c0-50.3,40.9-91.3,91.3-91.3c50.3,0,91.3,40.9,91.3,91.3
		c0,24.2-9.4,47-26.4,64.2c-0.3,0.3-0.3,0.9,0,1.2c0.2,0.2,0.5,0.2,0.6,0.2c0.1,0,0.4,0,0.6-0.3c17.4-17.5,26.9-40.8,26.9-65.4
		C197.1,42.2,155.4,0.5,104.1,0.5z"/>
</g>
</svg>
