<?xml version="1.0" encoding="utf-8"?>
<!-- Generator: Adobe Illustrator 23.0.1, SVG Export Plug-In . SVG Version: 6.00 Build 0)  -->
<svg version="1.1" id="Слой_1" xmlns="http://www.w3.org/2000/svg" xmlns:xlink="http://www.w3.org/1999/xlink" x="0px" y="0px"
	 viewBox="0 0 208.2 208.2" style="enable-background:new 0 0 208.2 208.2;" xml:space="preserve">
<style type="text/css">
	.st0{fill:#FBCB18;}
</style>
<g>
	<path class="st0" d="M27.2,98.7c0.2,0,0.4,0,0.6-0.2l48.5-42l32.3,28c0.4,0.3,0.9,0.3,1.2,0l48.3-44.2l15,15
		c0.2,0.2,0.6,0.3,0.9,0.2c0.3-0.1,0.6-0.4,0.6-0.7l7.2-37c0.1-0.3,0-0.6-0.3-0.8c-0.2-0.2-0.5-0.3-0.8-0.3l-37.3,7
		c-0.3,0.1-0.6,0.3-0.7,0.6c-0.1,0.3,0,0.7,0.2,0.9l13.7,13.7l-47.7,43.6L76.9,54.5c-0.2-0.2-0.4-0.2-0.6-0.2
		c-0.2,0-0.4,0.1-0.6,0.2L26.6,97c-0.2,0.2-0.3,0.5-0.3,0.6c0,0.2,0,0.4,0.2,0.7C26.7,98.6,27,98.7,27.2,98.7z"/>
	<path class="st0" d="M203.2,189.7h-19.2v-85.2c0-0.5-0.4-0.9-0.9-0.9s-0.9,0.4-0.9,0.9v85.2h-24.4V80.4c0-0.5-0.4-0.9-0.9-0.9
		s-0.9,0.4-0.9,0.9v109.3h-24.4v-63.3c0-0.5-0.4-0.9-0.9-0.9c-0.5,0-0.9,0.4-0.9,0.9v63.3H105V144c0-0.5-0.4-0.9-0.9-0.9
		c-0.5,0-0.9,0.4-0.9,0.9v45.8H78.7v-85.2c0-0.5-0.4-0.9-0.9-0.9c-0.5,0-0.9,0.4-0.9,0.9v85.2H52.4v-28.2c0-0.5-0.4-0.9-0.9-0.9
		c-0.5,0-0.9,0.4-0.9,0.9v28.2H26.1v-47.9c0-0.5-0.4-0.9-0.9-0.9c-0.5,0-0.9,0.4-0.9,0.9v47.9H5c-0.5,0-0.9,0.4-0.9,0.9
		s0.4,0.9,0.9,0.9h198.1c0.5,0,0.9-0.4,0.9-0.9S203.7,189.7,203.2,189.7z"/>
</g>
</svg>
