<?xml version="1.0" encoding="utf-8"?>
<!-- Generator: Adobe Illustrator 23.0.1, SVG Export Plug-In . SVG Version: 6.00 Build 0)  -->
<svg version="1.1" id="Слой_1" xmlns="http://www.w3.org/2000/svg" xmlns:xlink="http://www.w3.org/1999/xlink" x="0px" y="0px"
	 viewBox="0 0 282 44" style="enable-background:new 0 0 282 44;" xml:space="preserve">
<style type="text/css">
	.st0{fill:#FFFFFF;}
	.st1{fill:#FF3333;}
</style>
<path class="st0" d="M260,1c11.6,0,21,9.4,21,21c0,11.6-9.4,21-21,21H22C10.4,43,1,33.6,1,22C1,10.4,10.4,1,22,1H260 M260,0H22
	C9.9,0,0,9.9,0,22v0c0,12.1,9.9,22,22,22h238c12.1,0,22-9.9,22-22v0C282,9.9,272.1,0,260,0L260,0z"/>
<g>
	<g>
		<g>
			<circle class="st0" cx="263.5" cy="26.3" r="0.9"/>
			<path class="st0" d="M263.5,13c-5,0-9,4-9,9c0,5,4,9,9,9c5,0,9-4,9-9C272.5,17,268.5,13,263.5,13z M263.5,29.6
				c-4.2,0-7.6-3.4-7.6-7.6c0-4.2,3.4-7.6,7.6-7.6c4.2,0,7.6,3.4,7.6,7.6C271.1,26.2,267.7,29.6,263.5,29.6z"/>
			<path class="st0" d="M263.5,17.5c-1.6,0-2.8,1.3-2.8,2.8c0,0.4,0.3,0.7,0.7,0.7s0.7-0.3,0.7-0.7c0-0.8,0.6-1.4,1.4-1.4
				s1.4,0.6,1.4,1.4s-0.6,1.4-1.4,1.4c-0.4,0-0.7,0.3-0.7,0.7v1.8c0,0.4,0.3,0.7,0.7,0.7s0.7-0.3,0.7-0.7v-1.1
				c1.2-0.3,2.1-1.4,2.1-2.7C266.3,18.8,265.1,17.5,263.5,17.5z"/>
		</g>
	</g>
</g>
<g>
	<path class="st0" d="M50.7,19.1c0-0.6-0.2-1-0.6-1.4c-0.4-0.3-1-0.5-1.8-0.5c-0.6,0-1.2,0.2-1.6,0.5c-0.4,0.3-0.6,0.8-0.6,1.3h-1.4
		c0-0.6,0.2-1.1,0.5-1.5c0.3-0.5,0.7-0.8,1.3-1.1c0.6-0.3,1.2-0.4,1.9-0.4c1.2,0,2.1,0.3,2.8,0.8s1,1.3,1,2.2c0,0.5-0.2,0.9-0.5,1.4
		s-0.7,0.7-1.3,1c1.3,0.4,1.9,1.3,1.9,2.5c0,1-0.4,1.7-1.1,2.3c-0.7,0.6-1.7,0.8-2.9,0.8c-0.7,0-1.4-0.1-1.9-0.4s-1-0.6-1.4-1.1
		s-0.5-1-0.5-1.7H46c0,0.6,0.2,1,0.7,1.4c0.4,0.4,1,0.6,1.7,0.6c0.8,0,1.4-0.2,1.8-0.5c0.5-0.4,0.7-0.8,0.7-1.4
		c0-1.3-0.8-1.9-2.3-1.9h-1.3v-1.2h1.3c0.7,0,1.3-0.2,1.6-0.5C50.5,20.1,50.7,19.7,50.7,19.1z"/>
	<path class="st0" d="M58.9,26.9c-0.1-0.2-0.1-0.4-0.2-0.8c-0.6,0.7-1.4,1-2.3,1c-0.8,0-1.4-0.2-1.9-0.7c-0.5-0.4-0.8-1-0.8-1.7
		c0-0.8,0.3-1.5,0.9-1.9c0.6-0.5,1.5-0.7,2.7-0.7h1.3v-0.6c0-0.5-0.1-0.9-0.4-1.1c-0.3-0.3-0.7-0.4-1.3-0.4c-0.5,0-0.9,0.1-1.2,0.4
		c-0.3,0.2-0.5,0.5-0.5,0.9h-1.4c0-0.4,0.1-0.8,0.4-1.2c0.3-0.4,0.7-0.7,1.1-0.9s1-0.3,1.6-0.3c0.9,0,1.6,0.2,2.2,0.7
		s0.8,1.1,0.8,1.9v3.7c0,0.7,0.1,1.3,0.3,1.7v0.1H58.9z M56.6,25.9c0.4,0,0.8-0.1,1.2-0.3c0.4-0.2,0.7-0.5,0.8-0.9v-1.6h-1.1
		c-1.7,0-2.5,0.5-2.5,1.5c0,0.4,0.1,0.8,0.4,1S56.2,25.9,56.6,25.9z"/>
	<path class="st0" d="M68.9,23c0,1.2-0.3,2.2-0.8,2.9s-1.3,1.1-2.3,1.1c-1,0-1.7-0.3-2.3-0.9V30h-1.4V19h1.2l0.1,0.9
		c0.6-0.7,1.3-1,2.3-1c1,0,1.7,0.4,2.3,1.1c0.6,0.7,0.8,1.7,0.8,3V23z M67.5,22.9c0-0.9-0.2-1.6-0.6-2.1C66.6,20.2,66,20,65.4,20
		c-0.8,0-1.4,0.4-1.9,1.1v3.8c0.4,0.7,1,1.1,1.9,1.1c0.7,0,1.2-0.3,1.6-0.8S67.5,23.9,67.5,22.9z"/>
	<path class="st0" d="M73.9,27.1c-1.1,0-2-0.4-2.6-1.1s-1-1.7-1-2.8v-0.3c0-0.8,0.2-1.5,0.5-2.1c0.3-0.6,0.7-1.1,1.3-1.5
		c0.5-0.4,1.1-0.5,1.8-0.5c1,0,1.8,0.3,2.4,1c0.6,0.7,0.9,1.7,0.9,2.9v0.6h-5.4c0,0.8,0.2,1.4,0.7,1.9c0.4,0.5,1,0.7,1.7,0.7
		c0.5,0,0.9-0.1,1.2-0.3c0.3-0.2,0.6-0.5,0.9-0.8l0.8,0.6C76.3,26.6,75.3,27.1,73.9,27.1z M73.8,19.9c-0.6,0-1,0.2-1.4,0.6
		c-0.4,0.4-0.6,1-0.7,1.7h4v-0.1c0-0.7-0.2-1.2-0.6-1.6C74.8,20.1,74.3,19.9,73.8,19.9z"/>
	<path class="st0" d="M83.8,20.1h-3.7v6.8h-1.4v-8h5V20.1z"/>
	<path class="st0" d="M90.1,19h1.4v8h-1.4v-5.8l-3.7,5.8h-1.4v-8h1.4v5.8L90.1,19z"/>
	<path class="st0" d="M96.9,26c0.5,0,0.9-0.1,1.3-0.4c0.4-0.3,0.6-0.7,0.6-1.1h1.3c0,0.5-0.2,0.9-0.5,1.3c-0.3,0.4-0.7,0.7-1.2,1
		c-0.5,0.2-1,0.4-1.5,0.4c-1.1,0-1.9-0.4-2.6-1.1s-1-1.7-1-3v-0.2c0-0.8,0.1-1.5,0.4-2.1s0.7-1.1,1.2-1.4c0.5-0.3,1.2-0.5,1.9-0.5
		c0.9,0,1.6,0.3,2.2,0.8c0.6,0.5,0.9,1.2,0.9,2.1h-1.3c0-0.5-0.2-0.9-0.6-1.3s-0.8-0.5-1.3-0.5c-0.7,0-1.2,0.2-1.6,0.7
		c-0.4,0.5-0.6,1.2-0.6,2.2v0.3c0,0.9,0.2,1.6,0.6,2.1C95.6,25.7,96.2,26,96.9,26z"/>
	<path class="st0" d="M107.5,20.1h-2.7v6.9h-1.4v-6.9h-2.6V19h6.7V20.1z"/>
	<path class="st0" d="M115.6,23c0,1.2-0.3,2.2-0.8,2.9c-0.6,0.7-1.3,1.1-2.3,1.1c-1,0-1.7-0.3-2.3-0.9V30h-1.4V19h1.2l0.1,0.9
		c0.6-0.7,1.3-1,2.3-1c1,0,1.7,0.4,2.3,1.1c0.6,0.7,0.8,1.7,0.8,3V23z M114.2,22.9c0-0.9-0.2-1.6-0.6-2.1S112.7,20,112,20
		c-0.8,0-1.4,0.4-1.9,1.1v3.8c0.4,0.7,1,1.1,1.9,1.1c0.7,0,1.2-0.3,1.6-0.8S114.2,23.9,114.2,22.9z"/>
	<path class="st0" d="M122.5,19h1.4v8h-1.4v-5.8l-3.7,5.8h-1.4v-8h1.4v5.8L122.5,19z"/>
	<path class="st0" d="M132.7,23c0,1.2-0.3,2.2-0.8,2.9c-0.6,0.7-1.3,1.1-2.3,1.1c-1,0-1.7-0.3-2.3-0.9V30H126V19h1.2l0.1,0.9
		c0.6-0.7,1.3-1,2.3-1c1,0,1.7,0.4,2.3,1.1c0.6,0.7,0.8,1.7,0.8,3V23z M131.4,22.9c0-0.9-0.2-1.6-0.6-2.1s-0.9-0.8-1.6-0.8
		c-0.8,0-1.4,0.4-1.9,1.1v3.8c0.4,0.7,1,1.1,1.9,1.1c0.7,0,1.2-0.3,1.6-0.8S131.4,23.9,131.4,22.9z"/>
	<path class="st0" d="M134.1,22.9c0-0.8,0.2-1.5,0.5-2.1c0.3-0.6,0.7-1.1,1.3-1.4c0.5-0.3,1.2-0.5,1.9-0.5c1.1,0,2,0.4,2.6,1.1
		c0.7,0.8,1,1.7,1,3V23c0,0.8-0.1,1.5-0.4,2.1c-0.3,0.6-0.7,1.1-1.3,1.4c-0.6,0.3-1.2,0.5-1.9,0.5c-1.1,0-2-0.4-2.6-1.1
		C134.4,25.2,134.1,24.2,134.1,22.9L134.1,22.9z M135.5,23c0,0.9,0.2,1.6,0.6,2.1c0.4,0.5,1,0.8,1.6,0.8c0.7,0,1.2-0.3,1.7-0.8
		c0.4-0.5,0.6-1.3,0.6-2.3c0-0.9-0.2-1.6-0.6-2.1c-0.4-0.5-1-0.8-1.7-0.8c-0.7,0-1.2,0.3-1.6,0.8C135.7,21.3,135.5,22,135.5,23z"/>
	<path class="st0" d="M143.2,26.9v-8h3.1c1.1,0,1.9,0.2,2.4,0.6c0.6,0.4,0.9,0.9,0.9,1.6c0,0.4-0.1,0.7-0.3,1
		c-0.2,0.3-0.5,0.5-1,0.7c0.5,0.1,0.9,0.3,1.2,0.7c0.3,0.3,0.4,0.7,0.4,1.2c0,0.7-0.3,1.3-0.8,1.7c-0.5,0.4-1.3,0.6-2.3,0.6H143.2z
		 M144.6,22.3h1.8c1.3,0,1.9-0.4,1.9-1.1c0-0.7-0.6-1.1-1.8-1.2h-1.9V22.3z M144.6,23.4v2.4h2.3c0.6,0,1-0.1,1.3-0.3
		c0.3-0.2,0.4-0.5,0.4-0.9c0-0.8-0.6-1.2-1.8-1.2H144.6z"/>
	<path class="st0" d="M156.6,26.9c-0.1-0.2-0.1-0.4-0.2-0.8c-0.6,0.7-1.4,1-2.3,1c-0.8,0-1.4-0.2-1.9-0.7c-0.5-0.4-0.8-1-0.8-1.7
		c0-0.8,0.3-1.5,0.9-1.9c0.6-0.5,1.5-0.7,2.7-0.7h1.3v-0.6c0-0.5-0.1-0.9-0.4-1.1c-0.3-0.3-0.7-0.4-1.3-0.4c-0.5,0-0.9,0.1-1.2,0.4
		c-0.3,0.2-0.5,0.5-0.5,0.9h-1.4c0-0.4,0.1-0.8,0.4-1.2c0.3-0.4,0.7-0.7,1.1-0.9c0.5-0.2,1-0.3,1.6-0.3c0.9,0,1.6,0.2,2.2,0.7
		c0.5,0.5,0.8,1.1,0.8,1.9v3.7c0,0.7,0.1,1.3,0.3,1.7v0.1H156.6z M154.4,25.9c0.4,0,0.8-0.1,1.2-0.3c0.4-0.2,0.7-0.5,0.8-0.9v-1.6
		h-1.1c-1.7,0-2.5,0.5-2.5,1.5c0,0.4,0.1,0.8,0.4,1C153.6,25.8,153.9,25.9,154.4,25.9z"/>
	<path class="st0" d="M166.4,26.9h-1.4v-3.4h-3.7v3.4H160v-8h1.4v3.5h3.7V19h1.4V26.9z"/>
	<path class="st0" d="M168.3,22.9c0-0.8,0.2-1.5,0.5-2.1c0.3-0.6,0.7-1.1,1.3-1.4c0.5-0.3,1.2-0.5,1.9-0.5c1.1,0,2,0.4,2.6,1.1
		c0.7,0.8,1,1.7,1,3V23c0,0.8-0.1,1.5-0.4,2.1c-0.3,0.6-0.7,1.1-1.3,1.4c-0.6,0.3-1.2,0.5-1.9,0.5c-1.1,0-2-0.4-2.6-1.1
		C168.6,25.2,168.3,24.2,168.3,22.9L168.3,22.9z M169.6,23c0,0.9,0.2,1.6,0.6,2.1c0.4,0.5,1,0.8,1.6,0.8c0.7,0,1.2-0.3,1.7-0.8
		s0.6-1.3,0.6-2.3c0-0.9-0.2-1.6-0.6-2.1c-0.4-0.5-1-0.8-1.7-0.8c-0.7,0-1.2,0.3-1.6,0.8C169.8,21.3,169.6,22,169.6,23z"/>
	<path class="st0" d="M181,26.7v-8h3.1c1.1,0,1.9,0.2,2.4,0.6c0.6,0.4,0.9,0.9,0.9,1.6c0,0.4-0.1,0.7-0.3,1c-0.2,0.3-0.5,0.5-1,0.7
		c0.5,0.1,0.9,0.3,1.2,0.7s0.4,0.7,0.4,1.2c0,0.7-0.3,1.3-0.8,1.7c-0.5,0.4-1.3,0.6-2.3,0.6H181z M182.3,22.1h1.8
		c1.3,0,1.9-0.4,1.9-1.1s-0.6-1.1-1.8-1.2h-1.9V22.1z M182.3,23.2v2.4h2.3c0.6,0,1-0.1,1.3-0.3c0.3-0.2,0.4-0.5,0.4-0.9
		c0-0.8-0.6-1.2-1.8-1.2H182.3z"/>
	<path class="st0" d="M199,26.7v-4.2h-2.5l-2.2,4.2h-1.5l2.5-4.6c-1.4-0.5-2.1-1.5-2.1-2.9c0-1,0.3-1.8,1-2.4
		c0.7-0.6,1.6-0.9,2.8-0.9h3.4v10.7H199z M194.7,19.2c0,0.7,0.2,1.2,0.6,1.6c0.4,0.4,1,0.6,1.7,0.6h2.1v-4.2h-2
		c-0.8,0-1.4,0.2-1.8,0.5S194.7,18.6,194.7,19.2z"/>
	<path class="st0" d="M209.3,26.7H208v-3.4h-3.7v3.4h-1.4v-8h1.4v3.5h3.7v-3.5h1.4V26.7z"/>
	<path class="st0" d="M211.5,25.6l0.5-0.6c0.5-0.7,0.8-1.7,0.9-3.1l0.1-3.2h5.1v6.9h1v3.5h-1.4v-2.3h-5.6v2.3h-1.4l0-3.5H211.5z
		 M213.1,25.6h3.7V20h-2.5l-0.1,1.9C214.1,23.5,213.8,24.7,213.1,25.6z"/>
	<path class="st0" d="M224,26.9c-1.1,0-2-0.4-2.6-1.1c-0.7-0.7-1-1.7-1-2.8v-0.3c0-0.8,0.2-1.5,0.5-2.1c0.3-0.6,0.7-1.1,1.3-1.5
		c0.5-0.4,1.1-0.5,1.8-0.5c1,0,1.8,0.3,2.4,1s0.9,1.7,0.9,2.9v0.6h-5.4c0,0.8,0.2,1.4,0.7,1.9c0.4,0.5,1,0.7,1.7,0.7
		c0.5,0,0.9-0.1,1.2-0.3c0.3-0.2,0.6-0.5,0.9-0.8l0.8,0.6C226.3,26.4,225.3,26.9,224,26.9z M223.8,19.7c-0.6,0-1,0.2-1.4,0.6
		c-0.4,0.4-0.6,1-0.7,1.7h4v-0.1c0-0.7-0.2-1.2-0.6-1.6C224.8,19.9,224.4,19.7,223.8,19.7z"/>
	<path class="st0" d="M231.1,23.3h-1v3.4h-1.4v-8h1.4v3.4h0.9l2.7-3.4h1.7l-3.2,3.8l3.4,4.1h-1.7L231.1,23.3z"/>
	<path class="st0" d="M239.9,25.8c0.5,0,0.9-0.1,1.3-0.4c0.4-0.3,0.6-0.7,0.6-1.1h1.3c0,0.5-0.2,0.9-0.5,1.3c-0.3,0.4-0.7,0.7-1.2,1
		c-0.5,0.2-1,0.4-1.5,0.4c-1.1,0-1.9-0.4-2.6-1.1c-0.6-0.7-1-1.7-1-3v-0.2c0-0.8,0.1-1.5,0.4-2.1s0.7-1.1,1.2-1.4
		c0.5-0.3,1.2-0.5,1.9-0.5c0.9,0,1.6,0.3,2.2,0.8c0.6,0.5,0.9,1.2,0.9,2.1h-1.3c0-0.5-0.2-0.9-0.6-1.3c-0.4-0.3-0.8-0.5-1.3-0.5
		c-0.7,0-1.2,0.2-1.6,0.7c-0.4,0.5-0.6,1.2-0.6,2.2v0.3c0,0.9,0.2,1.6,0.6,2.1C238.6,25.5,239.2,25.8,239.9,25.8z"/>
</g>
<g id="Search-App">
	<g id="Color_x2F_icon_x5F_color">
		<g id="search" transform="translate(56.000000, 56.000000)">
			<g id="Group-2">
				<g id="Oval-9">
					<g>
						<circle id="path-1_1_" class="st0" cx="-34" cy="-34" r="14"/>
					</g>
				</g>
				<g id="android" transform="translate(0.769227, 0.769227)">
					<path id="Combined-Shape" class="st1" d="M-33.2-32.9h-1.4l-2.8,6.2h-2l3-6.6c-1.4-0.7-2.4-2-2.4-4.5c0-3.4,2.2-5.1,4.7-5.1
						h2.6v16.2h-1.7V-32.9z M-33.2-34.3v-7.1h-0.9c-1.4,0-2.8,0.9-2.8,3.6c0,2.6,1.2,3.4,2.8,3.4H-33.2z"/>
				</g>
			</g>
		</g>
	</g>
</g>
</svg>
