<?xml version="1.0" encoding="utf-8"?>
<!-- Generator: Adobe Illustrator 23.0.1, SVG Export Plug-In . SVG Version: 6.00 Build 0)  -->
<svg version="1.1" id="Слой_1" xmlns="http://www.w3.org/2000/svg" xmlns:xlink="http://www.w3.org/1999/xlink" x="0px" y="0px"
	 viewBox="0 0 66.5 64.1" style="enable-background:new 0 0 66.5 64.1;" xml:space="preserve">
<style type="text/css">
	.st0{fill:#FBCB18;}
	.st1{fill:#DCB115;}
	.st2{fill:#434A54;}
</style>
<g>
	<g>
		<g>
			<path class="st0" d="M47.7,39.8c-0.8,0-2,0-3.2,0c0,2,0,4.1,0,6.1c-4.1,0-7.8,0-11.6,0c0-2,0-3.8,0-6.1c-1.6,0-2.8,0-4.1,0
				c0,6.9,0,13.7,0,20.6c-3.8,0-7.5,0-11.6,0c0-6.9,0-13.7,0-20.6c-1.6,0-2.8,0-4.1,0c0,6.9,0,13.7,0,20.6c-4.2,0-8.3,0-12.4,0
				c0-20.2,0-40.3,0-60.4c20,0,39.8,0,59.7,0c0,13.3,0,26.4,0,39.8C55.8,39.8,51.8,39.8,47.7,39.8z"/>
			<path class="st1" d="M48,39.8c4.1,0,8.3,0,12.4,0c1.7,5.4,3.4,11,5.4,16.5c-4.2,0-8.3,0-12.7,0C51.1,50.8,49.4,45.1,48,39.8z"/>
		</g>
	</g>
	<rect x="16.3" y="10.2" class="st2" width="27" height="5.3"/>
	<rect x="16.3" y="22.2" class="st2" width="27" height="5.3"/>
</g>
</svg>
