<svg width="44" height="51" viewBox="0 0 44 51" fill="none" xmlns="http://www.w3.org/2000/svg">
<path d="M33.8491 31.198C29.6391 36.288 25.0791 41.808 22.0991 44.878C22.0091 44.878 22.0091 44.798 21.9191 44.708C20.4291 43.388 18.5891 41.638 16.6591 39.618L13.5391 42.758C16.1827 45.5287 18.9947 48.1336 21.9591 50.558C22.0058 50.6093 22.07 50.6413 22.1391 50.648C22.1391 50.648 32.3991 39.418 37.1391 34.338L33.8491 31.198Z" fill="#4EB594"/>
<path d="M21.9596 9.75806L8.84961 14.8781C8.84961 14.8781 9.98961 23.5681 12.8496 29.3581C15.2246 33.5592 18.2639 37.3482 21.8496 40.5781C22.4596 40.2281 28.5996 34.0881 31.1496 29.0081C34.0396 23.2181 34.9196 14.8781 34.9196 14.8781L21.9596 9.75806Z" fill="#3D88C8"/>
<path d="M42.919 9.61806L21.959 0.758057L0.998987 9.61806C0.337424 17.7842 2.10482 25.9636 6.07899 33.1281C7.44502 35.3892 9.00061 37.5302 10.729 39.5281L13.849 36.3681C12.3714 34.6487 11.0495 32.8014 9.89899 30.8481C6.16899 24.5281 5.37899 17.3381 5.28899 13.2981C7.13899 12.2981 20.379 6.89806 21.959 6.29806C23.449 6.90806 36.779 12.2981 38.629 13.2981C38.517 18.0131 37.597 22.6741 35.909 27.0781L39.329 30.4981C42.2881 23.9585 43.524 16.7704 42.919 9.61806Z" fill="#3D88C8"/>
<path d="M37.1386 34.438L33.8486 31.198C29.6386 36.288 25.0786 41.808 22.0986 44.878C22.0086 44.878 22.0986 50.758 22.0986 50.758C22.0986 50.758 32.3086 39.528 37.1386 34.438Z" fill="#029E81"/>
<path d="M35.909 27.0781L39.329 30.4981C42.2881 23.9585 43.524 16.7704 42.919 9.61806L21.959 0.758057V6.28806C23.449 6.89806 36.779 12.2881 38.629 13.2881C38.5181 18.0065 37.5981 22.6709 35.909 27.0781Z" fill="#057BAA"/>
<path d="M35.029 14.8781C35.029 14.8781 34.149 23.2181 31.259 29.0081C28.709 34.0881 22.569 40.2281 21.959 40.5781V9.75806L35.029 14.8781Z" fill="#057BAA"/>
</svg>
