<?xml version="1.0" encoding="utf-8"?>
<!-- Generator: Adobe Illustrator 23.0.1, SVG Export Plug-In . SVG Version: 6.00 Build 0)  -->
<svg version="1.1" id="Слой_1" xmlns="http://www.w3.org/2000/svg" xmlns:xlink="http://www.w3.org/1999/xlink" x="0px" y="0px"
	 viewBox="0 0 32 32" style="enable-background:new 0 0 32 32;" xml:space="preserve">
<style type="text/css">
	.st0{fill:#FBBC04;}
	.st1{fill:#4385F5;}
	.st2{fill:#34A853;}
</style>
<g>
	<path class="st0" d="M2.7,29.8l-0.1-0.1c-2.4-1.5-3.3-4.6-1.9-7L11.4,4c1.5-2.4,4.6-3.3,7-1.9l0.1,0.1c2.4,1.5,3.3,4.6,1.9,7
		L9.7,28C8.3,30.4,5.1,31.3,2.7,29.8z"/>
	<path class="st1" d="M29.4,29.8L29.3,30c-2.4,1.5-5.7,0.6-7-1.9L11.4,9.2c-1.5-2.4-0.6-5.6,1.8-7L13.4,2c2.4-1.5,5.7-0.6,7,1.9
		l10.8,18.8C32.8,25.2,31.9,28.4,29.4,29.8z"/>
	<path class="st2" d="M2.7,29.8l-0.1-0.1c-2.4-1.5-3.3-4.6-1.9-7l0.1-0.1c1.5-2.4,4.6-3.3,7-1.9l0.1,0.1c2.4,1.5,3.3,4.6,1.9,7
		L9.7,28C8.3,30.4,5.1,31.3,2.7,29.8z"/>
</g>
</svg>
