<?xml version="1.0" encoding="utf-8"?>
<!-- Generator: Adobe Illustrator 23.0.1, SVG Export Plug-In . SVG Version: 6.00 Build 0)  -->
<svg version="1.1" id="Слой_1" xmlns="http://www.w3.org/2000/svg" xmlns:xlink="http://www.w3.org/1999/xlink" x="0px" y="0px"
	 viewBox="0 0 139.6 160.3" style="enable-background:new 0 0 139.6 160.3;" xml:space="preserve">
<style type="text/css">
	.st0{fill:#FFFFFF;}
	.st1{clip-path:url(#SVGID_2_);fill:#57B36E;}
	.st2{clip-path:url(#SVGID_4_);fill:#57B36E;}
	.st3{fill:#E1EBF0;}
	.st4{fill:#848484;}
	.st5{fill:#CBCBCB;}
	.st6{fill:#E5E5E5;}
	.st7{fill:#444444;}
	.st8{fill:#7B7B7B;}
	.st9{fill:#686868;}
	.st10{fill:#E84C4F;}
	.st11{fill:#F5F5F5;}
	.st12{fill:#465A61;}
	.st13{fill:#3B4A51;}
	.st14{opacity:0.8;fill:#556B79;enable-background:new    ;}
	.st15{fill:#556B79;}
	.st16{opacity:0.8;fill:#FBCB18;enable-background:new    ;}
	.st17{fill:#FBCB18;}
	.st18{fill:#57B36E;}
	.st19{fill:#76CE84;}
	.st20{fill:#67C17A;}
	.st21{fill:#DCB115;}
	.st22{fill:#434A54;}
	.st23{fill:#FBBD04;}
	.st24{fill:#438EDC;}
	.st25{fill:#34A952;}
</style>
<g>
	<g>
		<g>
			<g>
				<path class="st0" d="M69.7,155.3c-0.7,0-1.8,0-2.9-0.3c-1-0.1-1.8-0.5-2.4-0.8c-13.9-4.9-25.5-11.9-34.6-20.7
					c-7.9-7.4-14-16.9-18.2-28.2C4.2,85.7,4.8,64,5.2,48.1V48c0-1.3,0-2.8,0.2-4.7C5.4,33.2,13.6,24.6,24,24
					c14.7-0.8,26.2-5.6,36.2-15.2l0.2-0.2C63.1,6.3,66.5,5,69.9,5c3.3,0,6.6,1.3,9.3,3.7l0.1,0.1l0.1,0.1
					c9.7,9.5,21.2,14.3,36.1,15.1c10.2,0.6,18.5,9.1,18.8,19.4l0,0.1c0,1.5,0,2.5,0.2,3.8l0.1,0.4l0,3.2c0,16.1,0.1,36.2-6.8,54.6
					c-4.2,11.3-10.3,20.8-18.2,28.3c-9,8.8-20.7,15.8-34.6,20.7c-0.5,0.2-0.9,0.3-1.2,0.4l-0.1,0l-0.3,0.1c-1.4,0.5-2.7,0.5-3.4,0.5
					H69.7z"/>
				<path class="st0" d="M69.9,10c2.2,0,4.2,0.9,6,2.5C86.7,23,99.2,28.1,115.3,29c7.8,0.4,13.9,6.9,14.1,14.5c0,1.6,0,2.9,0.2,4.5
					c0,16.5,0.4,37.1-6.5,55.6c-3.8,10.3-9.4,19.2-17,26.4c-8.5,8.3-19.7,15-33.1,19.7c-0.4,0.2-0.9,0.2-1.3,0.4
					c-0.7,0.2-1.3,0.2-1.8,0.2h-0.2c-0.7,0-1.3,0-2-0.2c-0.4,0-0.9-0.2-1.3-0.4C52.9,145,41.7,138.3,33.2,130
					c-7.6-7.2-13.2-16.1-17-26.4c-6.9-18.5-6.5-39.1-6-55.4V48c0-1.3,0-2.7,0.2-4.5c-0.2-7.6,6-14.1,13.9-14.5
					c16.1-0.9,28.6-6.3,39.3-16.5C65.4,10.9,67.7,10,69.9,10 M69.9,0c-4.6,0-9.2,1.8-12.8,4.9l-0.2,0.1l-0.2,0.2
					c-9.1,8.8-19.3,13-33,13.8c-13,0.7-23.2,11.4-23.3,24c-0.2,2.1-0.2,3.7-0.2,5v0.1c-0.4,16.2-1,38.5,6.7,59.1
					c4.4,12,11,22.1,19.4,30.1c9.5,9.3,21.7,16.6,36.1,21.7c0.8,0.4,1.9,0.8,3.3,1c1.7,0.4,3.1,0.4,3.9,0.4h0.2c0.8,0,2.7,0,5-0.7
					l0.3-0.1c0.4-0.1,0.9-0.3,1.5-0.5c14.5-5.1,26.8-12.5,36.3-21.8c8.5-8,15-18.1,19.4-30.1c7.2-19.2,7.1-39.8,7.1-56.3l0-2.8v-0.7
					l-0.1-0.7c-0.1-0.8-0.1-1.6-0.1-3.1v-0.1l0-0.1C139,30.4,128.6,19.7,115.8,19c-13.9-0.8-24-5-32.9-13.7l-0.2-0.2l-0.2-0.2
					C78.8,1.7,74.5,0,69.9,0L69.9,0z"/>
			</g>
			<g>
				<g>
					<g>
						<g>
							<defs>
								<rect id="SVGID_1_" x="9.8" y="10" width="120" height="140.3"/>
							</defs>
							<clipPath id="SVGID_2_">
								<use xlink:href="#SVGID_1_"  style="overflow:visible;"/>
							</clipPath>
							<path class="st1" d="M123.1,103.6c-3.8,10.3-9.4,19.2-17,26.4c-8.5,8.3-19.7,15-33.1,19.7c-0.4,0.2-0.9,0.2-1.3,0.4
								c-0.7,0.2-1.3,0.2-1.8,0.2h-0.2c-0.7,0-1.3,0-2-0.2c-0.4,0-0.9-0.2-1.3-0.4C52.9,145,41.8,138.3,33.3,130
								c-7.6-7.2-13.2-16.1-17-26.4c-6.9-18.5-6.5-39.1-6-55.4V48c0-1.3,0-2.7,0.2-4.5c-0.2-7.6,6-14.1,13.9-14.5
								c16.1-0.9,28.6-6.3,39.3-16.5l0,0c1.8-1.6,4-2.5,6.3-2.5c2.2,0,4.2,0.9,6,2.5l0,0C86.7,23,99.2,28.1,115.3,29
								c7.8,0.4,13.9,6.9,14.1,14.5c0,1.6,0,2.9,0.2,4.5l0,0C129.6,64.5,130,85.1,123.1,103.6L123.1,103.6z"/>
						</g>
					</g>
					<g>
						<g>
							<defs>
								<rect id="SVGID_3_" x="9.8" y="10" width="120" height="140.3"/>
							</defs>
							<clipPath id="SVGID_4_">
								<use xlink:href="#SVGID_3_"  style="overflow:visible;"/>
							</clipPath>
							<path class="st2" d="M123.1,103.6c-3.8,10.3-9.4,19.2-17,26.4c-8.5,8.3-19.7,15-33.1,19.7c-0.4,0.2-0.9,0.2-1.3,0.4
								c-0.7,0.2-1.3,0.2-1.8,0.2V10c2.2,0,4.2,0.9,6,2.5l0,0C86.7,23,99.2,28.1,115.3,29c7.8,0.4,13.9,6.9,14.1,14.5
								c0,1.6,0,2.9,0.2,4.5l0,0C129.6,64.5,130,85.1,123.1,103.6L123.1,103.6z"/>
						</g>
					</g>
				</g>
				<path class="st0" d="M104.8,80.2c0,19.2-15.6,34.9-34.9,34.9h-0.2c-19.2,0-34.9-15.6-34.9-34.9s15.6-34.9,34.9-34.9h0.2
					C89.1,45.3,104.8,60.9,104.8,80.2L104.8,80.2z"/>
				<path class="st3" d="M104.8,80.2c0,19.2-15.6,34.9-34.9,34.9V45.1C89.1,45.3,104.8,60.9,104.8,80.2L104.8,80.2z"/>
			</g>
		</g>
		<g>
			<g>
				<path class="st4" d="M91.4,79.1c-0.4,0-0.9-0.4-0.9-0.9v-2.2c0-11.4-9.4-20.8-20.8-20.8s-20.8,9.4-20.8,20.8v2.2
					c0,0.4-0.4,0.9-0.9,0.9c-0.4,0-0.9-0.4-0.9-0.9v-2.2c0-12.5,10.1-22.6,22.6-22.6s22.6,10.1,22.6,22.6v2.2
					C92.3,78.8,91.8,79.1,91.4,79.1z"/>
				<path class="st4" d="M90.5,89.1h-2.2c-0.4,0-0.9-0.4-0.9-0.9c0-0.4,0.4-0.9,0.9-0.9h2.2c0.7,0,1.1-0.4,1.1-1.1v-4.7
					c0-0.4,0.4-0.9,0.9-0.9s0.9,0.4,0.9,0.9v4.7C93.1,88,92,89.1,90.5,89.1z"/>
				<path class="st5" d="M63.4,89.8h12.3v10.5H63.4V89.8z"/>
				<path class="st6" d="M88,85.8c0.2-0.7,0.2-1.3,0.2-2.2V68.3c0-4.9-4-8.9-8.9-8.9H60.1c-4.9,0-8.9,4-8.9,8.9v15.2
					c0,4.9,4,8.9,8.9,8.9h19.4c2.2,0,4.2-0.9,5.8-2.2"/>
				<path class="st5" d="M58.1,87.1v5.4c-4-0.9-6.9-4.5-6.9-8.7v-5.1C55.2,79.5,58.1,82.8,58.1,87.1z"/>
				<path class="st5" d="M88.2,78.6v5.1c0,0.7,0,1.6-0.2,2.2l-2.7,4.5c-1.1,0.9-2.5,1.6-3.8,2v-5.1C81.3,82.8,84.2,79.5,88.2,78.6z"
					/>
				<path class="st0" d="M67.2,73c0,3.1-2.5,5.8-5.8,5.8c-3.1,0-5.8-2.5-5.8-5.8c0-3.1,2.5-5.8,5.8-5.8C64.5,67.4,67.2,69.9,67.2,73
					z"/>
				<path class="st0" d="M83.8,73c0,3.1-2.5,5.8-5.8,5.8c-3.4,0-5.8-2.5-5.8-5.8c0-3.1,2.5-5.8,5.8-5.8C81.3,67.2,83.8,69.9,83.8,73
					z"/>
				<path class="st7" d="M61.4,75.3c-1.1,0-2.2-0.9-2.2-2.2c0-1.3,0.9-2.2,2.2-2.2c1.1,0,2.2,0.9,2.2,2.2
					C63.7,74.4,62.5,75.3,61.4,75.3z"/>
				<path class="st7" d="M78,75.3c-1.1,0-2.2-0.9-2.2-2.2c0-1.3,0.9-2.2,2.2-2.2c1.3,0,2.2,0.9,2.2,2.2C80.2,74.4,79.1,75.3,78,75.3
					z"/>
				<path class="st7" d="M55.8,88.4c0,1.3-1.1,2.5-2.5,2.5h-0.9c-1.3,0-2.5-1.1-2.5-2.5s1.1-2.5,2.5-2.5h0.9
					C54.7,85.8,55.8,86.9,55.8,88.4z"/>
				<g>
					<path class="st8" d="M66.3,83.3h2.5v9.4h-2.5V83.3z"/>
					<path class="st8" d="M70.6,83.3H73v9.4h-2.5V83.3z"/>
					<path class="st8" d="M74.8,83.5v9.2h2.5v-5.8C77.3,85.1,76.4,83.7,74.8,83.5z"/>
					<path class="st8" d="M64.5,83.5c-1.3,0.4-2.5,1.8-2.5,3.4v5.8h2.5V83.5z"/>
				</g>
				<path class="st9" d="M51.1,71.7v8.7c0,1.3-0.9,2.5-2.2,2.9c-0.2,0-0.4,0-0.9,0h-1.1c-1.6,0-2.9-1.3-2.9-2.9v-8.7
					c0-1.6,1.3-2.9,2.9-2.9H48c0.2,0,0.4,0,0.9,0C50.2,69.2,51.1,70.3,51.1,71.7z"/>
				<path class="st8" d="M51.1,71.7v8.7c0,1.3-0.9,2.5-2.2,2.9c-1.3-0.4-2.2-1.6-2.2-2.9v-8.7c0-1.3,0.9-2.5,2.2-2.9
					C50.2,69.2,51.1,70.3,51.1,71.7z"/>
				<path class="st9" d="M95.4,71.7v8.7c0,1.3-0.9,2.5-2.2,2.9c-0.2,0-0.4,0-0.9,0h-1.1c-1.6,0-2.9-1.3-2.9-2.9v-8.7
					c0-1.6,1.3-2.9,2.9-2.9h1.1c0.2,0,0.4,0,0.9,0C94.5,69.2,95.4,70.3,95.4,71.7z"/>
				<path class="st8" d="M95.4,71.7v8.7c0,1.3-0.9,2.5-2.2,2.9c-1.3-0.4-2.2-1.6-2.2-2.9v-8.7c0-1.3,0.9-2.5,2.2-2.9
					C94.5,69.2,95.4,70.3,95.4,71.7z"/>
				<path class="st7" d="M86.7,85.8h0.9c1.3,0,2.5,1.1,2.5,2.5s-1.1,2.5-2.5,2.5h-0.9c-1.3,0-2.5-1.1-2.5-2.5S85.3,85.8,86.7,85.8z"
					/>
				<path class="st4" d="M46.7,86.4v-4.7c0-0.4,0.4-0.9,0.9-0.9c0.4,0,0.9,0.4,0.9,0.9v4.7c0,0.7,0.4,1.1,1.1,1.1h2.2
					c0.4,0,0.9,0.4,0.9,0.9c0,0.4-0.4,0.9-0.9,0.9h-2.2C48,89.3,46.7,88,46.7,86.4z"/>
				<path class="st5" d="M87.6,103.2L87.6,103.2l-35.8,0.2v-0.2c0-3.1,2.5-5.8,5.8-5.8H82C84.9,97.4,87.6,100.1,87.6,103.2z"/>
				<path class="st6" d="M87.6,103.2L87.6,103.2l-29.1,0.2v-0.2c0-3.1,2.5-5.8,5.8-5.8H82C84.9,97.4,87.6,100.1,87.6,103.2z"/>
			</g>
		</g>
		<path class="st10" d="M69.5,47.1c-17.9,0-32.4,14.5-32.4,32.4s14.5,32.4,32.4,32.4s32.4-14.5,32.4-32.4S87.3,47.1,69.5,47.1
			L69.5,47.1z M69.5,108.1c-15.6,0-28.6-12.7-28.6-28.6c0-6.9,2.7-13.6,7.2-18.8l40.2,40.2C82.9,105.4,76.4,108.1,69.5,108.1
			L69.5,108.1z M90.9,98.3L50.7,58c5.1-4.5,11.6-7.2,18.8-7.2c15.6,0,28.6,12.7,28.6,28.6C98.1,86.4,95.4,93.1,90.9,98.3L90.9,98.3z
			"/>
	</g>
</g>
</svg>
