<svg width="26" height="26" viewBox="0 0 26 26" fill="none" xmlns="http://www.w3.org/2000/svg">
<circle opacity="0.5" cx="13" cy="13" r="13" fill="#303E60"/>
<path fill-rule="evenodd" clip-rule="evenodd" d="M17.7886 9.81802C18.1791 9.4275 18.1791 8.79434 17.7886 8.40381C17.3981 8.01329 16.7649 8.01329 16.3744 8.40381L13.1924 11.5858L10.0104 8.40381C9.61988 8.01329 8.98671 8.01329 8.59619 8.40381C8.20566 8.79434 8.20566 9.4275 8.59619 9.81802L11.7782 13L8.59619 16.182C8.20566 16.5725 8.20566 17.2057 8.59619 17.5962C8.98671 17.9867 9.61988 17.9867 10.0104 17.5962L13.1924 14.4142L16.3744 17.5962C16.7649 17.9867 17.3981 17.9867 17.7886 17.5962C18.1791 17.2057 18.1791 16.5725 17.7886 16.182L14.6066 13L17.7886 9.81802Z" fill="white"/>
</svg>
