<?xml version="1.0" encoding="utf-8"?>
<!-- Generator: Adobe Illustrator 23.0.1, SVG Export Plug-In . SVG Version: 6.00 Build 0)  -->
<svg version="1.1" id="Слой_1" xmlns="http://www.w3.org/2000/svg" xmlns:xlink="http://www.w3.org/1999/xlink" x="0px" y="0px"
	 viewBox="0 0 629 431" style="enable-background:new 0 0 629 431;" xml:space="preserve">
<style type="text/css">
	.st0{fill:#4285F4;}
	.st1{fill:#FBBC04;}
	.st2{fill:#CCCCCC;}
</style>
<g>
	<g>
		<g>
			<g>
				<path class="st0" d="M75.6,92.8H31.7V48.9h43.9L75.6,92.8z M34.7,89.8h37.9V51.9H34.7V89.8z"/>
			</g>
			<path class="st0" d="M25,42.3v40.9h40.9V42.3H25L25,42.3z"/>
		</g>
	</g>
	<ellipse transform="matrix(1 -1.704470e-03 1.704470e-03 1 -0.6317 0.9704)" class="st1" cx="569" cy="371.1" rx="60" ry="59.9"/>
	<g>
		<path class="st2" d="M426.8,106.7l94.1-94.1l94.1,94.1l-94.1,94.1L426.8,106.7 M414.1,106.7l106.8,106.7l106.8-106.7L520.9,0
			L414.1,106.7L414.1,106.7z"/>
		<path class="st2" d="M452.3,106.7l68.6-68.5l68.6,68.5l-68.6,68.5L452.3,106.7 M443.1,106.7l77.8,77.7l77.8-77.7L520.9,29
			L443.1,106.7L443.1,106.7z"/>
	</g>
</g>
</svg>
