<?xml version="1.0" encoding="utf-8"?>
<!-- Generator: Adobe Illustrator 23.0.1, SVG Export Plug-In . SVG Version: 6.00 Build 0)  -->
<svg version="1.1" id="Слой_1" xmlns="http://www.w3.org/2000/svg" xmlns:xlink="http://www.w3.org/1999/xlink" x="0px" y="0px"
	 viewBox="0 0 523 410" style="enable-background:new 0 0 523 410;" xml:space="preserve">
<style type="text/css">
	.st0{fill:#34A853;}
	.st1{opacity:0.76;}
	.st2{clip-path:url(#SVGID_2_);}
	.st3{fill:#CCCCCC;}
</style>
<g>
	<ellipse class="st0" cx="66.4" cy="39" rx="39" ry="39"/>
	<g class="st1">
		<g>
			<defs>
				<circle id="SVGID_1_" cx="478.5" cy="365.5" r="44.5"/>
			</defs>
			<clipPath id="SVGID_2_">
				<use xlink:href="#SVGID_1_"  style="overflow:visible;"/>
			</clipPath>
			<g class="st2">
				<g>
					<rect x="427.9" y="329" class="st0" width="101.2" height="3.6"/>
					<g>
						<rect x="427.9" y="312.6" class="st0" width="101.2" height="3.6"/>
						<rect x="427.9" y="320.8" class="st0" width="101.2" height="3.6"/>
						<rect x="427.9" y="337.2" class="st0" width="101.2" height="3.6"/>
						<rect x="427.9" y="345.4" class="st0" width="101.2" height="3.6"/>
						<rect x="427.9" y="353.6" class="st0" width="101.2" height="3.6"/>
						<rect x="427.9" y="361.7" class="st0" width="101.2" height="3.6"/>
						<rect x="427.9" y="369.9" class="st0" width="101.2" height="3.6"/>
						<rect x="427.9" y="378.1" class="st0" width="101.2" height="3.6"/>
						<rect x="427.9" y="386.3" class="st0" width="101.2" height="3.6"/>
						<rect x="427.9" y="394.5" class="st0" width="101.2" height="3.6"/>
						<rect x="427.9" y="402.7" class="st0" width="101.2" height="3.6"/>
						<rect x="427.9" y="410.9" class="st0" width="101.2" height="3.6"/>
					</g>
				</g>
			</g>
		</g>
	</g>
	<g>
		<g>
			<path class="st3" d="M9.4,182.4c0,2.6-2.1,4.7-4.7,4.7S0,185,0,182.4c0-2.6,2.1-4.7,4.7-4.7S9.4,179.8,9.4,182.4z"/>
			<path class="st3" d="M33.7,182.4c0,2.6-2.1,4.7-4.7,4.7s-4.7-2.1-4.7-4.7c0-2.6,2.1-4.7,4.7-4.7S33.7,179.8,33.7,182.4z"/>
			<path class="st3" d="M57.9,182.4c0,2.6-2.1,4.7-4.7,4.7c-2.6,0-4.7-2.1-4.7-4.7c0-2.6,2.1-4.7,4.7-4.7
				C55.8,177.7,57.9,179.8,57.9,182.4z"/>
			<path class="st3" d="M82.2,182.4c0,2.6-2.1,4.7-4.7,4.7s-4.7-2.1-4.7-4.7c0-2.6,2.1-4.7,4.7-4.7S82.2,179.8,82.2,182.4z"/>
			<path class="st3" d="M106.4,182.4c0,2.6-2.1,4.7-4.7,4.7S97,185,97,182.4c0-2.6,2.1-4.7,4.7-4.7S106.4,179.8,106.4,182.4z"/>
			<path class="st3" d="M130.7,182.4c0,2.6-2.1,4.7-4.7,4.7c-2.6,0-4.7-2.1-4.7-4.7c0-2.6,2.1-4.7,4.7-4.7
				C128.6,177.7,130.7,179.8,130.7,182.4z"/>
		</g>
		<g>
			<path class="st3" d="M9.4,206.7c0,2.6-2.1,4.7-4.7,4.7S0,209.3,0,206.7c0-2.6,2.1-4.7,4.7-4.7C7.3,201.9,9.4,204.1,9.4,206.7z"/>
			<path class="st3" d="M33.7,206.7c0,2.6-2.1,4.7-4.7,4.7s-4.7-2.1-4.7-4.7c0-2.6,2.1-4.7,4.7-4.7
				C31.6,201.9,33.7,204.1,33.7,206.7z"/>
			<path class="st3" d="M57.9,206.7c0,2.6-2.1,4.7-4.7,4.7c-2.6,0-4.7-2.1-4.7-4.7c0-2.6,2.1-4.7,4.7-4.7
				C55.8,201.9,57.9,204.1,57.9,206.7z"/>
			<path class="st3" d="M82.2,206.7c0,2.6-2.1,4.7-4.7,4.7s-4.7-2.1-4.7-4.7c0-2.6,2.1-4.7,4.7-4.7
				C80.1,201.9,82.2,204.1,82.2,206.7z"/>
			<path class="st3" d="M106.4,206.7c0,2.6-2.1,4.7-4.7,4.7s-4.7-2.1-4.7-4.7c0-2.6,2.1-4.7,4.7-4.7
				C104.3,201.9,106.4,204.1,106.4,206.7z"/>
			<path class="st3" d="M130.7,206.7c0,2.6-2.1,4.7-4.7,4.7c-2.6,0-4.7-2.1-4.7-4.7c0-2.6,2.1-4.7,4.7-4.7
				C128.6,201.9,130.7,204.1,130.7,206.7z"/>
		</g>
		<g>
			<path class="st3" d="M9.4,230.9c0,2.6-2.1,4.7-4.7,4.7S0,233.5,0,230.9c0-2.6,2.1-4.7,4.7-4.7S9.4,228.3,9.4,230.9z"/>
			<path class="st3" d="M33.7,230.9c0,2.6-2.1,4.7-4.7,4.7s-4.7-2.1-4.7-4.7c0-2.6,2.1-4.7,4.7-4.7S33.7,228.3,33.7,230.9z"/>
			<path class="st3" d="M57.9,230.9c0,2.6-2.1,4.7-4.7,4.7c-2.6,0-4.7-2.1-4.7-4.7c0-2.6,2.1-4.7,4.7-4.7
				C55.8,226.2,57.9,228.3,57.9,230.9z"/>
			<path class="st3" d="M82.2,230.9c0,2.6-2.1,4.7-4.7,4.7s-4.7-2.1-4.7-4.7c0-2.6,2.1-4.7,4.7-4.7S82.2,228.3,82.2,230.9z"/>
			<path class="st3" d="M106.4,230.9c0,2.6-2.1,4.7-4.7,4.7s-4.7-2.1-4.7-4.7c0-2.6,2.1-4.7,4.7-4.7S106.4,228.3,106.4,230.9z"/>
			<path class="st3" d="M130.7,230.9c0,2.6-2.1,4.7-4.7,4.7c-2.6,0-4.7-2.1-4.7-4.7c0-2.6,2.1-4.7,4.7-4.7
				C128.6,226.2,130.7,228.3,130.7,230.9z"/>
		</g>
		<g>
			<path class="st3" d="M9.4,255.2c0,2.6-2.1,4.7-4.7,4.7S0,257.8,0,255.2c0-2.6,2.1-4.7,4.7-4.7C7.3,250.4,9.4,252.6,9.4,255.2z"/>
			<path class="st3" d="M33.7,255.2c0,2.6-2.1,4.7-4.7,4.7s-4.7-2.1-4.7-4.7c0-2.6,2.1-4.7,4.7-4.7
				C31.6,250.4,33.7,252.6,33.7,255.2z"/>
			<path class="st3" d="M57.9,255.2c0,2.6-2.1,4.7-4.7,4.7c-2.6,0-4.7-2.1-4.7-4.7c0-2.6,2.1-4.7,4.7-4.7
				C55.8,250.4,57.9,252.6,57.9,255.2z"/>
			<path class="st3" d="M82.2,255.2c0,2.6-2.1,4.7-4.7,4.7s-4.7-2.1-4.7-4.7c0-2.6,2.1-4.7,4.7-4.7
				C80.1,250.4,82.2,252.6,82.2,255.2z"/>
			<path class="st3" d="M106.4,255.2c0,2.6-2.1,4.7-4.7,4.7s-4.7-2.1-4.7-4.7c0-2.6,2.1-4.7,4.7-4.7
				C104.3,250.4,106.4,252.6,106.4,255.2z"/>
			<path class="st3" d="M130.7,255.2c0,2.6-2.1,4.7-4.7,4.7c-2.6,0-4.7-2.1-4.7-4.7c0-2.6,2.1-4.7,4.7-4.7
				C128.6,250.4,130.7,252.6,130.7,255.2z"/>
		</g>
		<g>
			<path class="st3" d="M9.4,279.4c0,2.6-2.1,4.7-4.7,4.7S0,282,0,279.4s2.1-4.7,4.7-4.7C7.3,274.7,9.4,276.8,9.4,279.4z"/>
			<path class="st3" d="M33.7,279.4c0,2.6-2.1,4.7-4.7,4.7s-4.7-2.1-4.7-4.7s2.1-4.7,4.7-4.7C31.6,274.7,33.7,276.8,33.7,279.4z"/>
			<path class="st3" d="M57.9,279.4c0,2.6-2.1,4.7-4.7,4.7c-2.6,0-4.7-2.1-4.7-4.7s2.1-4.7,4.7-4.7
				C55.8,274.7,57.9,276.8,57.9,279.4z"/>
			<path class="st3" d="M82.2,279.4c0,2.6-2.1,4.7-4.7,4.7s-4.7-2.1-4.7-4.7s2.1-4.7,4.7-4.7C80.1,274.7,82.2,276.8,82.2,279.4z"/>
			<path class="st3" d="M106.4,279.4c0,2.6-2.1,4.7-4.7,4.7S97,282,97,279.4s2.1-4.7,4.7-4.7C104.3,274.7,106.4,276.8,106.4,279.4z"
				/>
			<path class="st3" d="M130.7,279.4c0,2.6-2.1,4.7-4.7,4.7c-2.6,0-4.7-2.1-4.7-4.7s2.1-4.7,4.7-4.7
				C128.6,274.7,130.7,276.8,130.7,279.4z"/>
		</g>
		<g>
			<path class="st3" d="M9.4,303.7c0,2.6-2.1,4.7-4.7,4.7S0,306.3,0,303.7s2.1-4.7,4.7-4.7S9.4,301.1,9.4,303.7z"/>
			<path class="st3" d="M33.7,303.7c0,2.6-2.1,4.7-4.7,4.7s-4.7-2.1-4.7-4.7s2.1-4.7,4.7-4.7S33.7,301.1,33.7,303.7z"/>
			<path class="st3" d="M57.9,303.7c0,2.6-2.1,4.7-4.7,4.7c-2.6,0-4.7-2.1-4.7-4.7s2.1-4.7,4.7-4.7C55.8,299,57.9,301.1,57.9,303.7z
				"/>
			<path class="st3" d="M82.2,303.7c0,2.6-2.1,4.7-4.7,4.7s-4.7-2.1-4.7-4.7s2.1-4.7,4.7-4.7S82.2,301.1,82.2,303.7z"/>
			<path class="st3" d="M106.4,303.7c0,2.6-2.1,4.7-4.7,4.7s-4.7-2.1-4.7-4.7s2.1-4.7,4.7-4.7S106.4,301.1,106.4,303.7z"/>
			<path class="st3" d="M130.7,303.7c0,2.6-2.1,4.7-4.7,4.7c-2.6,0-4.7-2.1-4.7-4.7s2.1-4.7,4.7-4.7
				C128.6,299,130.7,301.1,130.7,303.7z"/>
		</g>
	</g>
</g>
</svg>
