<svg id="Слой_1" data-name="Слой 1" xmlns="http://www.w3.org/2000/svg" viewBox="0 0 125.87 77.44"><defs><style>.cls-1{fill:#455a64;}</style></defs><title>w-ico-02</title><path class="cls-1" d="M68,13.86A20,20,0,0,0,39.7,42.21,20,20,0,0,0,68,13.86ZM50.3,29.53a3.83,3.83,0,1,0-7.15,1.9l.11.19L38,37.12l-.19-.36a18.45,18.45,0,0,1,3.15-21.68,18.32,18.32,0,0,1,31,9.91l0,.15-6.59,6.44-.19-.11a3.82,3.82,0,0,0-5.06,1.22l-.13.18-9.7-3v-.3Zm15.12,5.28a2.11,2.11,0,1,1-2.11-2.11A2.11,2.11,0,0,1,65.42,34.81Zm-5.94,0a3.83,3.83,0,1,0,7.66,0,3.75,3.75,0,0,0-.45-1.8l-.1-.2,5.6-5.48V28A18.31,18.31,0,0,1,40.92,41a16.93,16.93,0,0,1-1.87-2.18l-.15-.2,5.6-5.8.2.11a3.77,3.77,0,0,0,1.77.44,3.84,3.84,0,0,0,3.19-1.71l.12-.18,9.71,3v.3Z"/><path class="cls-1" d="M58.09,15.08l.57-1.62A15.37,15.37,0,0,0,44,16.25l1.12,1.3A13.7,13.7,0,0,1,58.09,15.08Z"/><path class="cls-1" d="M62.11,15.09l-.89,1.46a12.1,12.1,0,0,1,1.3,1l1.12-1.31A13.86,13.86,0,0,0,62.11,15.09Z"/><path class="cls-1" d="M49.06,40.79l-.64,1.6a15.53,15.53,0,0,0,8.35.72l-.36-1.69A13.64,13.64,0,0,1,49.06,40.79Z"/><path class="cls-1" d="M82.89,47.07,81.2,48.76,76.65,43.9l.14-.2a28,28,0,0,0,3.52-24.08l0-.18,3.6-3.52.19.11a3.83,3.83,0,0,0,5.23-5.11l-.1-.2L97,3.12v4h1.72V.22H91.76V1.94H95.7L88,9.47l-.2-.12a3.83,3.83,0,0,0-5.28,5.17l.11.2-3,2.94-.17-.4A27.76,27.76,0,1,0,31.09,43.89l.14.2L29,46.45l-.2-.1A3.78,3.78,0,0,0,27,45.91a3.82,3.82,0,1,0,3.33,1.93l-.11-.19,2.09-2.17.21.26c.56.67,1.15,1.32,1.75,1.93A27.83,27.83,0,0,0,69.47,51l.21-.15,4.56,4.87-1.73,1.73L92.34,77.22l10.38-10.38ZM27,51.85a2.11,2.11,0,1,1,2.11-2.11A2.12,2.12,0,0,1,27,51.85Zm26.9,2.21A26,26,0,0,1,35.46,9.63,26,26,0,0,1,72.28,46.45,25.86,25.86,0,0,1,53.87,54.06Zm17.21-4.24.24-.2a28.87,28.87,0,0,0,2.18-1.95c.66-.67,1.3-1.38,1.89-2.1l.22-.27L80,50,75.45,54.5Z"/><rect class="cls-1" x="35.7" y="57.56" width="1.72" height="1.93"/><rect class="cls-1" x="35.7" y="71.71" width="1.72" height="1.93"/><rect class="cls-1" x="54.77" y="62.43" width="1.72" height="1.93"/><rect class="cls-1" x="87.97" y="41.6" width="1.72" height="1.93"/><rect class="cls-1" x="90.6" y="21.5" width="1.72" height="1.93"/><rect class="cls-1" x="98.28" y="32.14" width="1.72" height="1.93"/></svg>