<svg width="44" height="50" viewBox="0 0 44 50" fill="none" xmlns="http://www.w3.org/2000/svg">
<path d="M41.0621 33.4375C39.6559 37.1875 37.7809 40.3125 34.9684 42.8125C31.9996 45.7812 27.9371 48.125 23.0934 49.8437C22.9371 50 22.7809 50 22.6246 50C22.3121 50 22.1559 50 21.9996 50H21.8434C21.5309 50 21.3746 50 21.0621 49.8437C20.9059 49.8437 20.7496 49.6875 20.5934 49.6875C15.7496 47.9687 11.8434 45.625 8.7184 42.6562C6.06212 40.1562 4.03087 36.875 2.62462 33.2812C0.12462 26.7187 0.280871 19.375 0.437121 13.5937C0.437121 13.125 0.437121 12.6562 0.593371 12.0312C0.749621 9.21875 2.93712 6.875 5.74962 6.71875C11.5309 6.40625 16.0621 4.53125 19.8121 0.78125C20.4371 0.3125 21.2184 0 21.9996 0C22.7809 0 23.5621 0.3125 24.1871 0.78125C27.9371 4.53125 32.4684 6.40625 38.2496 6.71875C41.0621 6.875 43.0934 9.21875 43.2496 11.875C43.2496 12.5 43.2496 12.9688 43.4059 13.4375C43.2496 19.375 43.4059 26.7187 41.0621 33.4375Z" fill="#57B36E"/>
<path d="M34.499 25C34.499 31.875 28.874 37.5 21.999 37.5H21.8428C14.9678 37.5 9.34277 31.875 9.34277 25C9.34277 18.125 14.9678 12.5 21.8428 12.5H21.999C28.874 12.5 34.499 18.125 34.499 25Z" fill="white"/>
<path d="M34.5 25C34.5 31.875 28.875 37.5 22 37.5V12.5C28.875 12.5 34.5 18.125 34.5 25Z" fill="#E1EBF0"/>
<path d="M29.6553 24.5312C29.499 24.5312 29.3428 24.375 29.3428 24.2188V23.4375C29.3428 19.375 26.0615 16.0938 21.999 16.0938C17.9365 16.0938 14.6553 19.375 14.6553 23.4375V24.2188C14.6553 24.375 14.499 24.5312 14.3428 24.5312C14.1865 24.5312 14.0303 24.375 14.0303 24.2188V23.4375C14.0303 19.0625 17.624 15.4688 21.999 15.4688C26.374 15.4688 29.9678 19.0625 29.9678 23.4375V24.2188C29.9678 24.5312 29.8115 24.5312 29.6553 24.5312Z" fill="#848484"/>
<path d="M29.3417 28.1172H28.5605C28.4042 28.1172 28.248 27.9609 28.248 27.8047C28.248 27.6484 28.4042 27.4922 28.5605 27.4922H29.3417C29.6542 27.4922 29.6542 27.3359 29.6542 27.1797V25.4609C29.6542 25.3047 29.8105 25.1484 29.9667 25.1484C30.123 25.1484 30.2792 25.3047 30.2792 25.4609V27.1797C30.2792 27.8047 29.9667 28.1172 29.3417 28.1172Z" fill="#848484"/>
<path d="M19.6533 28.4453H24.0283V32.1953H19.6533V28.4453Z" fill="#CBCBCB"/>
<path d="M28.5615 27.0312C28.7178 26.7187 28.7178 26.5625 28.7178 26.25V20.9375C28.7178 19.2187 27.3115 17.8125 25.5928 17.8125H18.7178C16.999 17.8125 15.5928 19.2187 15.5928 20.9375V26.4062C15.5928 28.125 16.999 29.5312 18.7178 29.5312H25.5928C26.374 29.5312 27.1553 29.2188 27.624 28.75" fill="#E5E5E5"/>
<path d="M17.7793 27.4922V29.3672C16.373 29.0547 15.2793 27.8047 15.2793 26.2422V24.3672C16.8418 24.6797 17.7793 25.9297 17.7793 27.4922Z" fill="#CBCBCB"/>
<path d="M28.5605 24.5391V26.4141C28.5605 26.7266 28.5605 27.0391 28.4043 27.1953L27.4668 28.7578C27.1543 29.0703 26.6855 29.3828 26.0605 29.5391V27.6641C26.0605 25.9453 27.1543 24.6953 28.5605 24.5391Z" fill="#CBCBCB"/>
<path d="M21.0605 22.4922C21.0605 23.5859 20.2792 24.5234 19.0292 24.5234C17.9355 24.5234 16.998 23.7422 16.998 22.4922C16.998 21.3984 17.7792 20.4609 19.0292 20.4609C20.123 20.4609 21.0605 21.3984 21.0605 22.4922Z" fill="white"/>
<path d="M26.998 22.4922C26.998 23.5859 26.2168 24.5234 24.9668 24.5234C23.7168 24.5234 22.9355 23.7422 22.9355 22.4922C22.9355 21.3984 23.7168 20.4609 24.9668 20.4609C26.2168 20.4609 26.998 21.3984 26.998 22.4922Z" fill="white"/>
<path d="M19.0293 23.2812C18.7168 23.2812 18.248 22.9688 18.248 22.5C18.248 22.0312 18.5605 21.7188 19.0293 21.7188C19.3418 21.7188 19.8105 22.0312 19.8105 22.5C19.8105 22.9688 19.3418 23.2812 19.0293 23.2812Z" fill="#444444"/>
<path d="M24.9668 23.2812C24.6543 23.2812 24.1855 22.9688 24.1855 22.5C24.1855 22.0312 24.498 21.7188 24.9668 21.7188C25.4355 21.7188 25.748 22.0312 25.748 22.5C25.748 22.9688 25.2793 23.2812 24.9668 23.2812Z" fill="#444444"/>
<path d="M16.998 27.9734C16.998 28.4422 16.6855 28.7547 16.2168 28.7547H15.9043C15.4355 28.7547 15.123 28.4422 15.123 27.9734C15.123 27.5047 15.4355 27.1922 15.9043 27.1922H16.2168C16.6855 27.0359 16.998 27.3484 16.998 27.9734Z" fill="#444444"/>
<path d="M20.7471 26.1016H21.5283V29.3828H20.7471V26.1016Z" fill="#7B7B7B"/>
<path d="M22.3096 26.1016H23.0908V29.3828H22.3096V26.1016Z" fill="#7B7B7B"/>
<path d="M23.7148 26.2617V29.543H24.496V27.5117C24.6523 26.7305 24.3398 26.2617 23.7148 26.2617Z" fill="#7B7B7B"/>
<path d="M20.1211 26.2617C19.6523 26.418 19.3398 26.8867 19.3398 27.5117V29.543H20.1211V26.2617Z" fill="#7B7B7B"/>
<path d="M15.4355 22.0313V25.1563C15.4355 25.625 15.123 25.9375 14.6543 26.25C14.498 26.25 14.498 26.25 14.3418 26.25H14.0293C13.4043 26.25 12.9355 25.7813 12.9355 25.1563V22.0313C12.9355 21.4063 13.4043 20.9375 14.0293 20.9375H14.1855C14.3418 20.9375 14.3418 20.9375 14.498 20.9375C14.9668 21.0938 15.4355 21.5625 15.4355 22.0313Z" fill="#686868"/>
<path d="M15.4355 22.0313V25.1563C15.4355 25.625 15.123 25.9375 14.6542 26.25C14.1855 26.0937 13.873 25.625 13.873 25.1563V22.0313C13.873 21.5625 14.1855 21.25 14.6542 20.9375C14.9667 21.0938 15.4355 21.5625 15.4355 22.0313Z" fill="#7B7B7B"/>
<path d="M31.0605 22.0313V25.1563C31.0605 25.625 30.748 25.9375 30.2793 26.25C30.123 26.25 30.123 26.25 29.9668 26.25H29.6543C29.0293 26.25 28.5605 25.7813 28.5605 25.1563V22.0313C28.5605 21.4063 29.0293 20.9375 29.6543 20.9375H29.9668C30.123 20.9375 30.123 20.9375 30.2793 20.9375C30.748 21.0938 31.0605 21.5625 31.0605 22.0313Z" fill="#686868"/>
<path d="M31.0605 22.0313V25.1563C31.0605 25.625 30.748 25.9375 30.2792 26.25C29.8105 26.0937 29.498 25.625 29.498 25.1563V22.0313C29.498 21.5625 29.8105 21.25 30.2792 20.9375C30.748 21.0938 31.0605 21.5625 31.0605 22.0313Z" fill="#7B7B7B"/>
<path d="M28.0918 27.0273H28.4043C28.873 27.0273 29.1855 27.3398 29.1855 27.8086C29.1855 28.2773 28.873 28.5898 28.4043 28.5898H28.0918C27.623 28.5898 27.3105 28.2773 27.3105 27.8086C27.3105 27.3398 27.4668 27.0273 28.0918 27.0273Z" fill="#444444"/>
<path d="M13.7168 27.1797V25.4609C13.7168 25.3047 13.873 25.1484 14.0293 25.1484C14.1855 25.1484 14.3418 25.3047 14.3418 25.4609V27.1797C14.3418 27.4922 14.498 27.4922 14.6543 27.4922H15.4355C15.5918 27.4922 15.748 27.6484 15.748 27.8047C15.748 27.9609 15.5918 28.1172 15.4355 28.1172H14.6543C14.1855 28.2734 13.7168 27.8047 13.7168 27.1797Z" fill="#848484"/>
<path d="M28.4053 33.2812H15.5928V33.125C15.5928 32.0313 16.374 31.0938 17.624 31.0938H26.374C27.3115 31.0938 28.4053 32.0312 28.4053 33.2812Z" fill="#CBCBCB"/>
<path d="M28.4033 33.2748L18.0908 33.4311V33.2748C18.0908 32.1811 18.8721 31.2436 20.1221 31.2436H26.3721C27.3096 31.0873 28.4033 32.0248 28.4033 33.2748Z" fill="#E5E5E5"/>
<path d="M21.8438 13.2812C15.4376 13.2812 10.2812 18.4376 10.2812 24.8438C10.2812 31.2501 15.4376 36.4062 21.8438 36.4062C28.2501 36.4062 33.4062 31.2501 33.4062 24.8438C33.4062 18.4376 28.2501 13.2812 21.8438 13.2812ZM21.8438 35C16.2188 35 11.6875 30.4688 11.6875 24.8438C11.6875 22.3438 12.625 20 14.1875 18.125L28.5625 32.5C26.6875 34.0625 24.3438 35 21.8438 35ZM29.5 31.4063L15.125 17.0312C17 15.4688 19.3438 14.5313 21.8438 14.5313C27.4688 14.5313 32 19.0625 32 24.6875C32.1562 27.1875 31.0625 29.6875 29.5 31.4063Z" fill="#E84C4F"/>
</svg>
