<svg width="22" height="25" viewBox="0 0 22 25" fill="none" xmlns="http://www.w3.org/2000/svg">
<path d="M20.8021 16.7188C20.0834 18.5938 19.1251 20.1562 17.6876 21.4062C16.1703 22.8906 14.0939 24.0625 11.6183 24.9219C11.5384 25 11.4586 25 11.3787 25C11.219 25 11.1392 25 11.0593 25H10.9794C10.8197 25 10.7398 25 10.5801 24.9219C10.5003 24.9219 10.4204 24.8438 10.3406 24.8438C7.86492 23.9844 5.86847 22.8125 4.27128 21.3281C2.91366 20.0781 1.8755 18.4375 1.15676 16.6406C-0.120981 13.3594 -0.0411217 9.6875 0.0387374 6.79685C0.0387374 6.5625 0.0387374 6.3281 0.118596 6.0156C0.198456 4.60938 1.31648 3.4375 2.75395 3.35938C5.70875 3.20312 8.02463 2.26562 9.94125 0.390625C10.2607 0.15625 10.66 0 11.0593 0C11.4586 0 11.8579 0.15625 12.1773 0.390625C14.0939 2.26562 16.4099 3.20312 19.3646 3.35938C20.8021 3.4375 21.8403 4.60938 21.9201 5.9375C21.9201 6.25 21.9201 6.4844 22 6.71875C21.9201 9.6875 22 13.3593 20.8021 16.7188Z" fill="#57B36E"/>
<path d="M17.4471 12.5C17.4471 15.9375 14.5722 18.75 11.0584 18.75H10.9786C7.46477 18.75 4.58984 15.9375 4.58984 12.5C4.58984 9.0625 7.46477 6.25 10.9786 6.25H11.0584C14.5722 6.25 17.4471 9.0625 17.4471 12.5Z" fill="white"/>
<path d="M17.4483 12.5C17.4483 15.9375 14.5734 18.75 11.0596 18.75V6.25C14.5734 6.25 17.4483 9.0625 17.4483 12.5Z" fill="#E1EBF0"/>
<path d="M14.9713 12.2656C14.8914 12.2656 14.8115 12.1875 14.8115 12.1094V11.7187C14.8115 9.68748 13.1345 8.04688 11.0581 8.04688C8.9818 8.04688 7.30479 9.68748 7.30479 11.7187V12.1094C7.30479 12.1875 7.2249 12.2656 7.14507 12.2656C7.06519 12.2656 6.98535 12.1875 6.98535 12.1094V11.7187C6.98535 9.53123 8.82209 7.73438 11.0581 7.73438C13.2942 7.73438 15.131 9.53123 15.131 11.7187V12.1094C15.131 12.2656 15.0511 12.2656 14.9713 12.2656Z" fill="#848484"/>
<path d="M14.8119 14.0586H14.4126C14.3328 14.0586 14.2529 13.9805 14.2529 13.9024C14.2529 13.8242 14.3328 13.7461 14.4126 13.7461H14.8119C14.9716 13.7461 14.9716 13.668 14.9716 13.5899V12.7305C14.9716 12.6524 15.0515 12.5742 15.1314 12.5742C15.2112 12.5742 15.2911 12.6524 15.2911 12.7305V13.5899C15.2911 13.9024 15.1314 14.0586 14.8119 14.0586Z" fill="#848484"/>
<path d="M9.86035 14.2227H12.0964V16.0977H9.86035V14.2227Z" fill="#CBCBCB"/>
<path d="M14.4134 13.5156C14.4933 13.3594 14.4933 13.2812 14.4933 13.125V10.4688C14.4933 9.60935 13.7746 8.90625 12.8961 8.90625H9.38234C8.50386 8.90625 7.78516 9.60935 7.78516 10.4688V13.2031C7.78516 14.0625 8.50386 14.7656 9.38234 14.7656H12.8961C13.2954 14.7656 13.6947 14.6094 13.9343 14.375" fill="#E5E5E5"/>
<path d="M8.90177 13.7461V14.6836C8.18301 14.5273 7.62402 13.9023 7.62402 13.1211V12.1836C8.42261 12.3398 8.90177 12.9648 8.90177 13.7461Z" fill="#CBCBCB"/>
<path d="M14.4125 12.2695V13.207C14.4125 13.3633 14.4125 13.5195 14.3327 13.5976L13.8535 14.3789C13.6938 14.5351 13.4542 14.6914 13.1348 14.7695V13.832C13.1348 12.9726 13.6938 12.3476 14.4125 12.2695Z" fill="#CBCBCB"/>
<path d="M10.5793 11.2461C10.5793 11.793 10.1799 12.2617 9.54107 12.2617C8.98208 12.2617 8.50293 11.8711 8.50293 11.2461C8.50293 10.6992 8.9022 10.2305 9.54107 10.2305C10.1001 10.2305 10.5793 10.6992 10.5793 11.2461Z" fill="white"/>
<path d="M13.6144 11.2461C13.6144 11.793 13.2152 12.2617 12.5763 12.2617C11.9374 12.2617 11.5381 11.8711 11.5381 11.2461C11.5381 10.6992 11.9374 10.2305 12.5763 10.2305C13.2152 10.2305 13.6144 10.6992 13.6144 11.2461Z" fill="white"/>
<path d="M9.5419 11.6406C9.38218 11.6406 9.14258 11.4844 9.14258 11.25C9.14258 11.0156 9.3023 10.8594 9.5419 10.8594C9.70162 10.8594 9.94117 11.0156 9.94117 11.25C9.94117 11.4844 9.70162 11.6406 9.5419 11.6406Z" fill="#444444"/>
<path d="M12.5761 11.6406C12.4164 11.6406 12.1768 11.4844 12.1768 11.25C12.1768 11.0156 12.3365 10.8594 12.5761 10.8594C12.8156 10.8594 12.9753 11.0156 12.9753 11.25C12.9753 11.4844 12.7358 11.6406 12.5761 11.6406Z" fill="#444444"/>
<path d="M8.50323 13.9847C8.50323 14.2191 8.34351 14.3754 8.10396 14.3754H7.94424C7.70464 14.3754 7.54492 14.2191 7.54492 13.9847C7.54492 13.7504 7.70464 13.5941 7.94424 13.5941H8.10396C8.34351 13.516 8.50323 13.6722 8.50323 13.9847Z" fill="#444444"/>
<path d="M10.4189 13.0508H10.8182V14.6914H10.4189V13.0508Z" fill="#7B7B7B"/>
<path d="M11.2178 13.0508H11.617V14.6914H11.2178V13.0508Z" fill="#7B7B7B"/>
<path d="M11.9365 13.1328V14.7735H12.3358V13.7578C12.4157 13.3672 12.256 13.1328 11.9365 13.1328Z" fill="#7B7B7B"/>
<path d="M10.0995 13.1328C9.85991 13.211 9.7002 13.4453 9.7002 13.7578V14.7735H10.0995V13.1328Z" fill="#7B7B7B"/>
<path d="M7.7045 11.0156V12.5781C7.7045 12.8125 7.54479 12.9688 7.30523 13.125C7.22535 13.125 7.22535 13.125 7.14552 13.125H6.9858C6.66636 13.125 6.42676 12.8906 6.42676 12.5781V11.0156C6.42676 10.7031 6.66636 10.4688 6.9858 10.4688H7.06563C7.14551 10.4688 7.14551 10.4688 7.22535 10.4688C7.46495 10.5469 7.7045 10.7812 7.7045 11.0156Z" fill="#686868"/>
<path d="M7.70386 11.0156V12.5781C7.70386 12.8125 7.54415 12.9688 7.30454 13.125C7.06499 13.0469 6.90527 12.8125 6.90527 12.5781V11.0156C6.90527 10.7812 7.06499 10.625 7.30454 10.4688C7.46426 10.5469 7.70386 10.7812 7.70386 11.0156Z" fill="#7B7B7B"/>
<path d="M15.6899 11.0156V12.5781C15.6899 12.8125 15.5301 12.9688 15.2906 13.125C15.2107 13.125 15.2107 13.125 15.1309 13.125H14.9711C14.6517 13.125 14.4121 12.8906 14.4121 12.5781V11.0156C14.4121 10.7031 14.6517 10.4688 14.9711 10.4688H15.1309C15.2107 10.4688 15.2107 10.4688 15.2906 10.4688C15.5301 10.5469 15.6899 10.7812 15.6899 11.0156Z" fill="#686868"/>
<path d="M15.6902 11.0156V12.5781C15.6902 12.8125 15.5305 12.9688 15.2909 13.125C15.0513 13.0469 14.8916 12.8125 14.8916 12.5781V11.0156C14.8916 10.7812 15.0513 10.625 15.2909 10.4688C15.5305 10.5469 15.6902 10.7812 15.6902 11.0156Z" fill="#7B7B7B"/>
<path d="M14.1737 13.5117H14.3335C14.573 13.5117 14.7327 13.668 14.7327 13.9024C14.7327 14.1367 14.573 14.293 14.3335 14.293H14.1737C13.9341 14.293 13.7744 14.1367 13.7744 13.9024C13.7744 13.668 13.8543 13.5117 14.1737 13.5117Z" fill="#444444"/>
<path d="M6.82617 13.5899V12.7305C6.82617 12.6524 6.90601 12.5742 6.98589 12.5742C7.06572 12.5742 7.14561 12.6524 7.14561 12.7305V13.5899C7.14561 13.7461 7.22544 13.7461 7.30533 13.7461H7.7046C7.78448 13.7461 7.86431 13.8242 7.86431 13.9024C7.86431 13.9805 7.78448 14.0586 7.7046 14.0586H7.30533C7.06572 14.1367 6.82617 13.9024 6.82617 13.5899Z" fill="#848484"/>
<path d="M14.3336 16.6406H7.78516V16.5625C7.78516 16.0156 8.18443 15.5469 8.8233 15.5469H13.2954C13.7746 15.5469 14.3336 16.0156 14.3336 16.6406Z" fill="#CBCBCB"/>
<path d="M14.3322 16.6374L9.06152 16.7156V16.6374C9.06152 16.0906 9.46085 15.6218 10.0997 15.6218H13.2941C13.7732 15.5437 14.3322 16.0124 14.3322 16.6374Z" fill="#E5E5E5"/>
<path d="M10.9789 6.64062C7.70471 6.64062 5.06934 9.21878 5.06934 12.4219C5.06934 15.625 7.70471 18.2031 10.9789 18.2031C14.2532 18.2031 16.8885 15.625 16.8885 12.4219C16.8885 9.21878 14.2532 6.64062 10.9789 6.64062ZM10.9789 17.5C8.10398 17.5 5.78809 15.2344 5.78809 12.4219C5.78809 11.1719 6.26725 10 7.06584 9.06252L14.4129 16.25C13.4546 17.0313 12.2567 17.5 10.9789 17.5ZM14.892 15.7032L7.54499 8.51562C8.5033 7.73438 9.70116 7.26567 10.9789 7.26567C13.8538 7.26567 16.1698 9.53127 16.1698 12.3438C16.2496 13.5938 15.6906 14.8438 14.892 15.7032Z" fill="#E84C4F"/>
</svg>
