<svg width="36" height="40" viewBox="0 0 36 40" fill="none" xmlns="http://www.w3.org/2000/svg">
<path d="M34.0398 26.75C32.8637 29.75 31.2956 32.25 28.9434 34.25C26.4604 36.625 23.0628 38.5 19.0118 39.875C18.8811 40 18.7504 40 18.6197 40C18.3584 40 18.2277 40 18.097 40H17.9664C17.705 40 17.5743 40 17.3129 39.875C17.1823 39.875 17.0516 39.75 16.9209 39.75C12.8699 38.375 9.60294 36.5 6.98937 34.125C4.76782 32.125 3.06899 29.5 1.89289 26.625C-0.197969 21.375 -0.0672901 15.5 0.0633884 10.875C0.0633884 10.5 0.0633884 10.125 0.194067 9.62496C0.324745 7.375 2.15424 5.5 4.50646 5.375C9.34159 5.125 13.1312 3.625 16.2675 0.625C16.7902 0.25 17.4437 0 18.097 0C18.7504 0 19.4038 0.25 19.9265 0.625C23.0628 3.625 26.8525 5.125 31.6876 5.375C34.0398 5.5 35.7386 7.375 35.8693 9.5C35.8693 10 35.8693 10.375 36 10.75C35.8693 15.5 36 21.375 34.0398 26.75Z" fill="#57B36E"/>
<path d="M28.5499 20C28.5499 25.5 23.8455 30 18.0957 30H17.965C12.2152 30 7.51074 25.5 7.51074 20C7.51074 14.5 12.2152 10 17.965 10H18.0957C23.8455 10 28.5499 14.5 28.5499 20Z" fill="white"/>
<path d="M28.5519 20C28.5519 25.5 23.8475 30 18.0977 30V10C23.8475 10 28.5519 14.5 28.5519 20Z" fill="#E1EBF0"/>
<path d="M24.4985 19.625C24.3678 19.625 24.2372 19.5 24.2372 19.375V18.75C24.2372 15.5 21.4929 12.875 18.0952 12.875C14.6976 12.875 11.9534 15.5 11.9534 18.75V19.375C11.9534 19.5 11.8227 19.625 11.692 19.625C11.5613 19.625 11.4307 19.5 11.4307 19.375V18.75C11.4307 15.25 14.4362 12.375 18.0952 12.375C21.7542 12.375 24.7599 15.25 24.7599 18.75V19.375C24.7599 19.625 24.6291 19.625 24.4985 19.625Z" fill="#848484"/>
<path d="M24.238 22.4922H23.5846C23.4539 22.4922 23.3232 22.3672 23.3232 22.2422C23.3232 22.1172 23.4539 21.9922 23.5846 21.9922H24.238C24.4993 21.9922 24.4993 21.8672 24.4993 21.7422V20.3672C24.4993 20.2422 24.63 20.1172 24.7607 20.1172C24.8914 20.1172 25.022 20.2422 25.022 20.3672V21.7422C25.022 22.2422 24.7607 22.4922 24.238 22.4922Z" fill="#848484"/>
<path d="M16.1348 22.7578H19.7938V25.7578H16.1348V22.7578Z" fill="#CBCBCB"/>
<path d="M23.5855 21.625C23.7163 21.375 23.7163 21.25 23.7163 21V16.75C23.7163 15.375 22.5401 14.25 21.1027 14.25H15.3528C13.9153 14.25 12.7393 15.375 12.7393 16.75V21.125C12.7393 22.5 13.9153 23.625 15.3528 23.625H21.1027C21.756 23.625 22.4095 23.375 22.8015 23" fill="#E5E5E5"/>
<path d="M14.5664 21.9922V23.4922C13.3903 23.2422 12.4756 22.2422 12.4756 20.9922V19.4922C13.7824 19.7422 14.5664 20.7422 14.5664 21.9922Z" fill="#CBCBCB"/>
<path d="M23.584 19.6328V21.1328C23.584 21.3828 23.584 21.6328 23.4534 21.7578L22.6693 23.0078C22.408 23.2578 22.0159 23.5078 21.4932 23.6328V22.1328C21.4932 20.7578 22.408 19.7578 23.584 19.6328Z" fill="#CBCBCB"/>
<path d="M17.3117 17.9922C17.3117 18.8672 16.6583 19.6172 15.6128 19.6172C14.6981 19.6172 13.9141 18.9922 13.9141 17.9922C13.9141 17.1172 14.5674 16.3672 15.6128 16.3672C16.5276 16.3672 17.3117 17.1172 17.3117 17.9922Z" fill="white"/>
<path d="M22.2785 17.9922C22.2785 18.8672 21.6251 19.6172 20.5797 19.6172C19.5343 19.6172 18.8809 18.9922 18.8809 17.9922C18.8809 17.1172 19.5343 16.3672 20.5797 16.3672C21.6251 16.3672 22.2785 17.1172 22.2785 17.9922Z" fill="white"/>
<path d="M15.6144 18.6249C15.353 18.6249 14.9609 18.375 14.9609 18C14.9609 17.6249 15.2223 17.375 15.6144 17.375C15.8757 17.375 16.2677 17.6249 16.2677 18C16.2677 18.375 15.8757 18.6249 15.6144 18.6249Z" fill="#444444"/>
<path d="M20.5792 18.6249C20.3179 18.6249 19.9258 18.375 19.9258 18C19.9258 17.6249 20.1871 17.375 20.5792 17.375C20.9712 17.375 21.2326 17.6249 21.2326 18C21.2326 18.375 20.8406 18.6249 20.5792 18.6249Z" fill="#444444"/>
<path d="M13.9148 22.3756C13.9148 22.7506 13.6535 23.0006 13.2615 23.0006H13.0001C12.608 23.0006 12.3467 22.7506 12.3467 22.3756C12.3467 22.0006 12.608 21.7506 13.0001 21.7506H13.2615C13.6535 21.6256 13.9148 21.8756 13.9148 22.3756Z" fill="#444444"/>
<path d="M17.0488 20.8828H17.7022V23.5078H17.0488V20.8828Z" fill="#7B7B7B"/>
<path d="M18.3564 20.8828H19.0098V23.5078H18.3564V20.8828Z" fill="#7B7B7B"/>
<path d="M19.5322 21.0117V23.6368H20.1856V22.0117C20.3163 21.3868 20.0549 21.0117 19.5322 21.0117Z" fill="#7B7B7B"/>
<path d="M16.5265 21.0117C16.1344 21.1368 15.873 21.5117 15.873 22.0117V23.6368H16.5265V21.0117Z" fill="#7B7B7B"/>
<path d="M12.6075 17.625V20.125C12.6075 20.5 12.3461 20.75 11.9541 21C11.8234 21 11.8234 21 11.6928 21H11.4314C10.9087 21 10.5166 20.625 10.5166 20.125V17.625C10.5166 17.125 10.9087 16.75 11.4314 16.75H11.562C11.6927 16.75 11.6927 16.75 11.8234 16.75C12.2155 16.875 12.6075 17.25 12.6075 17.625Z" fill="#686868"/>
<path d="M12.6066 17.625V20.125C12.6066 20.5 12.3452 20.75 11.9532 21C11.5612 20.875 11.2998 20.5 11.2998 20.125V17.625C11.2998 17.25 11.5612 17 11.9532 16.75C12.2145 16.875 12.6066 17.25 12.6066 17.625Z" fill="#7B7B7B"/>
<path d="M25.6739 17.625V20.125C25.6739 20.5 25.4125 20.75 25.0205 21C24.8898 21 24.8898 21 24.7592 21H24.4978C23.9751 21 23.583 20.625 23.583 20.125V17.625C23.583 17.125 23.9751 16.75 24.4978 16.75H24.7592C24.8898 16.75 24.8898 16.75 25.0205 16.75C25.4125 16.875 25.6739 17.25 25.6739 17.625Z" fill="#686868"/>
<path d="M25.6749 17.625V20.125C25.6749 20.5 25.4136 20.75 25.0215 21C24.6295 20.875 24.3682 20.5 24.3682 20.125V17.625C24.3682 17.25 24.6295 17 25.0215 16.75C25.4136 16.875 25.6749 17.25 25.6749 17.625Z" fill="#7B7B7B"/>
<path d="M23.1935 21.6172H23.4548C23.8468 21.6172 24.1082 21.8672 24.1082 22.2422C24.1082 22.6172 23.8468 22.8672 23.4548 22.8672H23.1935C22.8014 22.8672 22.54 22.6172 22.54 22.2422C22.54 21.8672 22.6708 21.6172 23.1935 21.6172Z" fill="#444444"/>
<path d="M11.1699 21.7422V20.3672C11.1699 20.2422 11.3006 20.1172 11.4313 20.1172C11.5619 20.1172 11.6926 20.2422 11.6926 20.3672V21.7422C11.6926 21.9922 11.8233 21.9922 11.954 21.9922H12.6073C12.7381 21.9922 12.8687 22.1172 12.8687 22.2422C12.8687 22.3672 12.7381 22.4922 12.6073 22.4922H11.954C11.5619 22.6172 11.1699 22.2422 11.1699 21.7422Z" fill="#848484"/>
<path d="M23.4549 26.6249H12.7393V26.5C12.7393 25.625 13.3926 24.875 14.438 24.875H21.756C22.5401 24.875 23.4549 25.6249 23.4549 26.6249Z" fill="#CBCBCB"/>
<path d="M23.4529 26.6191L14.8281 26.7441V26.6191C14.8281 25.7441 15.4816 24.9941 16.527 24.9941H21.7541C22.5382 24.8691 23.4529 25.6191 23.4529 26.6191Z" fill="#E5E5E5"/>
<path d="M17.9651 10.625C12.6074 10.625 8.29492 14.75 8.29492 19.875C8.29492 25 12.6074 29.125 17.9651 29.125C23.323 29.125 27.6353 25 27.6353 19.875C27.6353 14.75 23.323 10.625 17.9651 10.625ZM17.9651 28C13.2607 28 9.47107 24.375 9.47107 19.875C9.47107 17.875 10.2551 16 11.5619 14.5L23.5843 26C22.0162 27.25 20.056 28 17.9651 28ZM24.3684 25.1251L12.346 13.625C13.9141 12.375 15.8743 11.6251 17.9651 11.6251C22.6696 11.6251 26.4593 15.25 26.4593 19.75C26.5899 21.75 25.6752 23.75 24.3684 25.1251Z" fill="#E84C4F"/>
</svg>
