<svg width="50" height="50" viewBox="0 0 50 50" fill="none" xmlns="http://www.w3.org/2000/svg">
<path d="M37.3499 30.4375C32.9883 35.5252 28.2633 41.0515 25.1739 44.1217C25.083 44.1217 25.083 44.034 24.9922 43.9463C23.4474 42.6305 21.5393 40.8761 19.5402 38.8586L16.269 42.0164C20.358 46.1393 24.1744 49.2094 24.9922 49.8235C25.083 49.9112 25.1739 49.9112 25.1739 49.9112C25.1739 49.9112 35.8052 38.6831 40.7119 33.5954L37.3499 30.4375Z" fill="#4EB594"/>
<path d="M24.9921 9.0332L11.4531 14.1209C11.4531 14.1209 12.6344 22.8051 15.633 28.5946C18.2681 33.6823 24.3561 39.4718 24.9921 39.8227C25.6282 39.4718 31.9888 33.3315 34.6239 28.2437C37.6225 22.4543 38.5311 14.1209 38.5311 14.1209L24.9921 9.0332Z" fill="#3D88C8"/>
<path d="M46.7091 8.85965L24.9922 0L3.2753 8.85965C3.2753 8.85965 1.73058 21.0526 8.54551 32.3684C9.9085 34.5614 11.5441 36.7544 13.3614 38.7719L16.6326 35.614C15.0878 33.8596 13.634 31.9298 12.5436 30.0877C8.63638 23.7719 7.81859 16.5789 7.72772 12.5439C9.6359 11.4912 23.3566 6.14035 24.9922 5.52632C26.5369 6.14035 40.3485 11.4912 42.2567 12.5439C42.1659 15.7895 41.6207 21.0526 39.4399 26.3158L42.9836 29.7368C48.0721 19.2105 46.7091 8.85965 46.7091 8.85965Z" fill="#3D88C8"/>
<path d="M40.7127 33.6831L37.3507 30.4375C32.9891 35.5252 28.2641 41.0515 25.1747 44.1217C25.0838 44.1217 25.1747 49.9989 25.1747 49.9989C25.1747 49.9989 35.7151 38.7708 40.7127 33.6831Z" fill="#029E81"/>
<path d="M39.4398 26.3158L42.9836 29.7368C48.0721 19.2105 46.7091 8.85965 46.7091 8.85965L24.9922 0V5.52632C26.5369 6.14035 40.3485 11.4912 42.2567 12.5439C42.1658 15.7895 41.6206 21.0526 39.4398 26.3158Z" fill="#057BAA"/>
<path d="M38.5312 14.1209C38.5312 14.1209 37.6225 22.4543 34.624 28.2437C31.9889 33.3315 25.6282 39.4718 24.9922 39.8227V9.0332L38.5312 14.1209Z" fill="#057BAA"/>
</svg>
