<svg width="40" height="40" viewBox="0 0 40 40" fill="none" xmlns="http://www.w3.org/2000/svg">
<path d="M29.8798 24.3516C26.3906 28.4217 22.6106 32.8428 20.139 35.2989C20.0663 35.2989 20.0663 35.2288 19.9936 35.1586C18.7579 34.1059 17.2313 32.7024 15.6321 31.0884L13.0151 33.6147C16.2863 36.913 19.3394 39.3691 19.9936 39.8603C20.0663 39.9305 20.139 39.9305 20.139 39.9305C20.139 39.9305 28.6441 30.9481 32.5695 26.8779L29.8798 24.3516Z" fill="#4EB594"/>
<path d="M19.9938 7.22656L9.1626 11.2967C9.1626 11.2967 10.1076 18.2441 12.5065 22.8757C14.6145 26.9459 19.4849 31.5774 19.9938 31.8581C20.5026 31.5774 25.5911 26.6652 27.6992 22.595C30.0981 17.9634 30.825 11.2967 30.825 11.2967L19.9938 7.22656Z" fill="#3D88C8"/>
<path d="M37.3673 7.08772L19.9938 0L2.62024 7.08772C2.62024 7.08772 1.38446 16.8421 6.83641 25.8947C7.9268 27.6491 9.23527 29.4035 10.6891 31.0175L13.3061 28.4912C12.0703 27.0877 10.9072 25.5439 10.0349 24.0702C6.9091 19.0175 6.25487 13.2632 6.18218 10.0351C7.70872 9.19298 18.6853 4.91228 19.9938 4.42105C21.2296 4.91228 32.2788 9.19298 33.8054 10.0351C33.7327 12.6316 33.2965 16.8421 31.5519 21.0526L34.3869 23.7895C38.4577 15.3684 37.3673 7.08772 37.3673 7.08772Z" fill="#3D88C8"/>
<path d="M32.5702 26.9481L29.8805 24.3516C26.3913 28.4217 22.6113 32.8428 20.1397 35.2989C20.067 35.2989 20.1397 40.0007 20.1397 40.0007C20.1397 40.0007 28.5721 31.0182 32.5702 26.9481Z" fill="#029E81"/>
<path d="M31.5523 21.0526L34.3873 23.7895C38.4581 15.3684 37.3677 7.08772 37.3677 7.08772L19.9941 0V4.42105C21.2299 4.91228 32.2792 9.19298 33.8057 10.0351C33.733 12.6316 33.2969 16.8421 31.5523 21.0526Z" fill="#057BAA"/>
<path d="M30.8253 11.2967C30.8253 11.2967 30.0984 17.9634 27.6996 22.595C25.5915 26.6652 20.503 31.5774 19.9941 31.8581V7.22656L30.8253 11.2967Z" fill="#057BAA"/>
</svg>
