<svg width="40" height="38" viewBox="0 0 40 38" fill="none" xmlns="http://www.w3.org/2000/svg">
<path d="M3.37502 36.2476L3.25002 36.1226C0.250023 34.2476 -0.874977 30.3726 0.875023 27.3726L14.25 3.99758C16.125 0.997582 20 -0.127418 23 1.62258L23.125 1.74758C26.125 3.62258 27.25 7.49758 25.5 10.4976L12.125 33.9976C10.375 36.9976 6.37502 38.1226 3.37502 36.2476Z" fill="#FBBC04"/>
<path d="M36.7502 36.248L36.6252 36.498C33.6252 38.373 29.5002 37.248 27.8752 34.123L14.2502 10.498C12.3752 7.49803 13.5002 3.49803 16.5002 1.74803L16.7502 1.49803C19.7502 -0.376971 23.8752 0.748029 25.5002 3.87303L39.0002 27.373C41.0002 30.498 39.8752 34.498 36.7502 36.248Z" fill="#4385F5"/>
<path d="M3.37502 36.2476L3.25002 36.1226C0.250023 34.2476 -0.874977 30.3726 0.875023 27.3726L1.00002 27.2476C2.87502 24.2476 6.75002 23.1226 9.75002 24.8726L9.87502 24.9976C12.875 26.8726 14 30.7476 12.25 33.7476L12.125 33.9976C10.375 36.9976 6.37502 38.1226 3.37502 36.2476Z" fill="#34A853"/>
</svg>
