<svg width="24" height="25" viewBox="0 0 24 25" fill="none" xmlns="http://www.w3.org/2000/svg">
<path d="M2.02462 22.8431L1.94962 22.7681C0.149623 21.6431 -0.525377 19.3181 0.524623 17.5181L8.54962 3.49308C9.67462 1.69308 11.9996 1.01808 13.7996 2.06808L13.8746 2.14308C15.6746 3.26808 16.3496 5.59308 15.2996 7.39308L7.27462 21.4931C6.22462 23.2931 3.82462 23.9681 2.02462 22.8431Z" fill="#FBBC04"/>
<path d="M22.049 22.8465L21.974 22.9965C20.174 24.1215 17.699 23.4465 16.724 21.5715L8.54902 7.39647C7.42402 5.59647 8.09902 3.19647 9.89902 2.14647L10.049 1.99647C11.849 0.871474 14.324 1.54647 15.299 3.42147L23.399 17.5215C24.599 19.3965 23.924 21.7965 22.049 22.8465Z" fill="#4385F5"/>
<path d="M2.02462 22.8462L1.94962 22.7712C0.149623 21.6462 -0.525377 19.3212 0.524623 17.5212L0.599623 17.4462C1.72462 15.6462 4.04962 14.9712 5.84962 16.0212L5.92462 16.0962C7.72462 17.2212 8.39962 19.5462 7.34962 21.3462L7.27462 21.4962C6.22462 23.2962 3.82462 23.9712 2.02462 22.8462Z" fill="#34A853"/>
</svg>
