<svg width="50" height="50" viewBox="0 0 50 50" fill="none" xmlns="http://www.w3.org/2000/svg">
<g clip-path="url(#clip0_7602_38774)">
<path d="M4.21866 46.5565L4.06241 46.4003C0.312407 44.0565 -1.09384 39.2128 1.09366 35.4628L17.8124 6.24405C20.1562 2.49405 24.9999 1.0878 28.7499 3.2753L28.9062 3.43155C32.6562 5.7753 34.0624 10.619 31.8749 14.369L15.1562 43.744C12.9687 47.494 7.96866 48.9003 4.21866 46.5565Z" fill="#FBBC04"/>
<path d="M45.9373 46.56L45.7811 46.8725C42.0311 49.2163 36.8748 47.81 34.8436 43.9038L17.8123 14.3725C15.4686 10.6225 16.8748 5.62254 20.6248 3.43504L20.9373 3.12254C24.6873 0.778786 29.8436 2.18504 31.8748 6.09129L48.7498 35.4663C51.2498 39.3725 49.8436 44.3725 45.9373 46.56Z" fill="#4385F5"/>
<path d="M4.21866 46.5605L4.06241 46.4042C0.312407 44.0605 -1.09384 39.2167 1.09366 35.4667L1.24991 35.3105C3.59366 31.5605 8.43741 30.1542 12.1874 32.3417L12.3437 32.498C16.0937 34.8417 17.4999 39.6855 15.3124 43.4355L15.1562 43.748C12.9687 47.498 7.96866 48.9042 4.21866 46.5605Z" fill="#34A853"/>
</g>
<defs>
<clipPath id="clip0_7602_38774">
<rect width="50" height="50" fill="white"/>
</clipPath>
</defs>
</svg>
