<svg width="113" height="40" viewBox="0 0 113 40" fill="none" xmlns="http://www.w3.org/2000/svg">
<g clip-path="url(#clip0_7701_3217)">
<path d="M46.8848 5.33398C48.4991 5.33398 49.5519 6.24627 49.973 7.43925C50.4643 8.70241 50.3239 10.1761 49.0606 11.0884C50.5345 11.72 51.0258 13.0533 51.0258 14.2463C51.0258 16.141 49.7625 18.1059 47.3059 18.1059H41.4805V5.33398H46.8848ZM43.3755 10.4568H46.8146C48.85 10.4568 48.85 7.08837 46.8848 7.08837H43.3755V10.4568ZM43.3755 16.3515H47.3059C48.5693 16.3515 49.201 15.2989 49.201 14.3164C49.201 13.334 48.5693 12.2814 47.3059 12.2814H43.3755V16.3515Z" fill="#3D88C8"/>
<path d="M54.6754 7.22872C55.7984 6.03574 57.4127 5.33398 59.1674 5.33398C60.922 5.33398 62.5363 6.03574 63.6593 7.22872C64.7823 8.4217 65.4841 9.96556 65.4841 11.72C65.4841 13.4743 64.7823 15.0884 63.6593 16.2112C62.4661 17.4042 60.922 18.1059 59.1674 18.1059C57.4127 18.1059 55.7984 17.4042 54.6754 16.2112C53.5524 15.0182 52.8506 13.4743 52.8506 11.72C52.8506 9.96556 53.5524 8.4217 54.6754 7.22872ZM62.4661 8.49188C61.6239 7.64977 60.5009 7.15855 59.2375 7.15855C57.9742 7.15855 56.8512 7.64977 56.009 8.49188C55.1667 9.33399 54.6754 10.4568 54.6754 11.72C54.6754 12.9831 55.1667 14.1059 56.009 14.948C56.8512 15.7901 57.9742 16.2814 59.2375 16.2814C60.5009 16.2814 61.6239 15.7901 62.4661 14.948C63.3083 14.1059 63.7997 12.9831 63.7997 11.72C63.7295 10.4568 63.2382 9.33399 62.4661 8.49188Z" fill="#3D88C8"/>
<path d="M71.1688 18.1761V7.08837H67.3086V5.33398H76.9241V7.08837H72.9937V18.1761H71.1688Z" fill="#3D88C8"/>
<path d="M43.4459 35.2991H41.6211V22.457H49.2714V24.2816H43.4459V28.1412H48.5695V29.8956H43.4459V35.2991Z" fill="#111111"/>
<path d="M58.606 32.0711H53.4122L52.1488 35.2991H50.1836L55.3072 22.457H56.6407L61.7643 35.2991H59.7991L58.606 32.0711ZM54.114 30.3167H57.9743L56.0091 25.264L54.114 30.3167Z" fill="#111111"/>
<path d="M76.6443 35.2993H74.6791L73.3456 34.1063C70.5381 35.9309 66.8183 35.58 64.853 33.4045C63.7301 32.2116 62.958 30.6677 62.958 28.9133C62.958 27.1589 63.6599 25.5449 64.853 24.4221C65.976 23.2291 67.5903 22.5273 69.345 22.5273C71.0996 22.5273 72.7139 23.2291 73.8369 24.4221C74.9599 25.6151 75.7319 27.1589 75.7319 28.9133C75.7319 30.387 75.2406 31.7203 74.3984 32.8431L76.5742 34.9484V35.2993H76.6443ZM68.7835 29.7554H70.9592L73.0648 31.7203C73.6263 30.9484 73.9071 29.9659 73.9071 28.9133C73.9071 27.6502 73.3456 26.5273 72.5735 25.6852C71.7313 24.8431 70.6083 24.3519 69.345 24.3519C68.0816 24.3519 66.9586 24.8431 66.1164 25.6852C65.3443 26.5273 64.7829 27.6502 64.7829 28.9133C64.7829 30.1765 65.3443 31.3694 66.1164 32.1414C67.6605 33.6852 69.9766 33.9659 71.8717 32.8431L68.7133 30.0361V29.7554H68.7835ZM68.7835 30.0361V29.7554V30.0361Z" fill="#111111"/>
<path d="M81.4169 35.2991V24.2114H77.5566V22.457H87.1722V24.2114H83.3119V35.2991H81.4169Z" fill="#111111"/>
<path d="M90.5407 24.3518C91.6636 23.1588 93.2779 22.457 95.0326 22.457C96.7872 22.457 98.4015 23.1588 99.5245 24.3518C100.647 25.5448 101.349 27.0886 101.349 28.843C101.349 30.5974 100.647 32.2114 99.5245 33.3342C98.3313 34.5272 96.7872 35.229 95.0326 35.229C93.2779 35.229 91.6636 34.5272 90.5407 33.3342C89.4177 32.1412 88.7158 30.5974 88.7158 28.843C88.7158 27.1588 89.4177 25.5448 90.5407 24.3518ZM98.2612 25.6851C97.4189 24.843 96.2959 24.3518 95.0326 24.3518C93.7692 24.3518 92.6463 24.843 91.804 25.6851C90.9618 26.5272 90.4705 27.65 90.4705 28.9132C90.4705 30.1763 90.9618 31.2991 91.804 32.1412C92.6463 32.9833 93.7692 33.4746 95.0326 33.4746C96.2959 33.4746 97.4189 32.9833 98.2612 32.1412C99.1034 31.2991 99.5947 30.1763 99.5947 28.9132C99.5947 27.65 99.1034 26.457 98.2612 25.6851Z" fill="#111111"/>
<path d="M106.052 28.7728H108.228C109.772 28.7728 110.544 27.65 110.544 26.5272C110.544 25.4044 109.772 24.2816 108.228 24.2816H105.35V35.229H103.525V22.457H108.228C111.035 22.457 112.439 24.4921 112.439 26.5272C112.439 28.3518 111.316 30.036 109.14 30.457L113.211 35.2991H110.825L106.122 29.6851V28.7728H106.052Z" fill="#111111"/>
<path d="M26.46 24.4219C23.091 28.4921 19.4414 32.9131 17.055 35.3692C16.9848 35.3692 16.9848 35.2991 16.9146 35.2289C15.7215 34.1763 14.2476 32.7728 12.7035 31.1587L10.1768 33.685C13.3351 36.9833 16.283 39.4394 16.9146 39.9306C16.9848 40.0008 17.055 40.0008 17.055 40.0008C17.055 40.0008 25.2668 31.0184 29.0569 26.9482L26.46 24.4219Z" fill="#27C58B"/>
<path d="M16.9148 7.29883L6.45703 11.369C6.45703 11.369 7.36945 18.3164 9.6856 22.948C11.721 27.0181 16.4235 31.6497 16.9148 31.9304C17.4061 31.6497 22.3191 26.7374 24.3545 22.6673C26.6707 18.0357 27.3726 11.369 27.3726 11.369L16.9148 7.29883Z" fill="#3D88C8"/>
<path d="M33.6896 7.15803L16.915 0.0703125L0.140507 7.15803C0.140507 7.15803 -1.05266 16.9124 4.21131 25.965C5.26411 27.7194 6.52746 29.4738 7.93119 31.0879L10.4579 28.5615C9.26473 27.158 8.14175 25.6142 7.29951 24.1405C4.2815 19.0879 3.64982 13.3335 3.57964 10.1054C5.05355 9.26329 15.6517 4.98259 16.915 4.49137C18.1082 4.98259 28.7765 9.26329 30.2504 10.1054C30.1803 12.7019 29.7591 16.9124 28.0747 21.1229L30.8119 23.8598C34.7424 15.4387 33.6896 7.15803 33.6896 7.15803Z" fill="#3D88C8"/>
<path d="M29.0575 27.0184L26.4606 24.4219C23.0916 28.4921 19.4419 32.9131 17.0556 35.3692C16.9854 35.3692 17.0556 40.071 17.0556 40.071C17.0556 40.071 25.1972 31.0885 29.0575 27.0184Z" fill="#029E81"/>
<path d="M28.0747 21.1229L30.8119 23.8598C34.7424 15.4387 33.6896 7.15803 33.6896 7.15803L16.915 0.0703125V4.49137C18.1082 4.98259 28.7765 9.2633 30.2504 10.1054C30.1803 12.7019 29.7591 16.9124 28.0747 21.1229Z" fill="#057BAA"/>
<path d="M27.3728 11.369C27.3728 11.369 26.6709 18.0357 24.3548 22.6673C22.3194 26.7374 17.4063 31.6497 16.915 31.9304V7.29883L27.3728 11.369Z" fill="#057BAA"/>
</g>
<defs>
<clipPath id="clip0_7701_3217">
<rect width="113" height="40" fill="white"/>
</clipPath>
</defs>
</svg>
