<svg width="16" height="15" viewBox="0 0 16 15" fill="none" xmlns="http://www.w3.org/2000/svg">
<path d="M15.3695 5.67298C15.3695 5.21646 14.9782 4.69472 12.1738 4.2382C11.5869 2.47733 10.5434 0.912109 9.49994 0.912109C8.84776 0.912109 8.32602 1.2382 7.99994 1.49907C7.73907 1.2382 7.21733 0.912109 6.49994 0.912109C5.45646 0.912109 4.41298 2.47733 3.82602 4.2382C1.08689 4.69472 0.630371 5.21646 0.630371 5.67298C0.630371 6.39037 1.80428 6.84689 3.23907 7.10776C2.9782 7.43385 2.78254 7.95559 2.78254 8.60776C2.78254 9.65124 3.23907 10.4338 3.82602 10.4338C4.4782 12.6512 6.10863 14.086 7.93472 14.086C9.76081 14.086 11.326 12.6512 12.0434 10.4338C12.6304 10.3686 13.0869 9.65124 13.0869 8.60776C13.0869 7.95559 12.9565 7.43385 12.6304 7.10776C14.1956 6.84689 15.3695 6.39037 15.3695 5.67298ZM11.326 8.0208C11.326 8.08602 11.326 8.15124 11.326 8.21646C11.326 9.1295 10.7391 9.71646 9.82602 9.71646C9.23907 9.71646 8.45646 9.45559 7.99994 8.99907C7.54341 9.45559 6.76081 9.71646 6.17385 9.71646C5.26081 9.71646 4.67385 9.19472 4.67385 8.21646C4.67385 8.15124 4.67385 8.08602 4.67385 8.0208C4.67385 7.75994 4.60863 7.43385 4.8695 7.17298C5.13037 6.91211 5.58689 6.78167 6.49994 6.78167C7.21733 6.78167 7.67385 6.84689 7.99994 7.10776C8.26081 6.91211 8.71733 6.78167 9.49994 6.78167C10.413 6.78167 10.8695 6.91211 11.1304 7.17298C11.326 7.43385 11.326 7.75994 11.326 8.0208ZM11.5869 4.43385C11.5217 4.49907 10.8043 5.28167 7.99994 5.28167C5.19559 5.28167 4.4782 4.49907 4.41298 4.43385C4.28254 4.30341 4.28254 4.04254 4.4782 3.91211C4.60863 3.78167 4.8695 3.78167 4.99994 3.97733C4.99994 3.97733 5.65211 4.56428 7.99994 4.56428C10.413 4.56428 10.9999 3.97733 10.9999 3.97733C11.1304 3.84689 11.3912 3.84689 11.5217 3.97733C11.7173 4.04254 11.7173 4.30341 11.5869 4.43385Z" fill="#728A97"/>
</svg>
