<svg width="16" height="15" viewBox="0 0 16 15" fill="none" xmlns="http://www.w3.org/2000/svg">
<path d="M15.3697 6.65302H13.9349C13.5436 4.10954 11.5219 2.08781 8.97841 1.6965V0.261719H7.15232V1.6965C4.60884 2.08781 2.58711 4.10954 2.1958 6.65302H0.695801V8.47911H2.13058C2.52189 11.0226 4.54363 13.0443 7.08711 13.4356V14.8704H8.91319V13.4356C11.4567 13.0443 13.4784 11.0226 13.8697 8.47911H15.3045V6.65302H15.3697ZM12.0436 6.65302H10.6088C10.348 5.87041 9.6958 5.21824 8.91319 4.95737V3.52259C10.4784 3.91389 11.6523 5.08781 12.0436 6.65302ZM8.00015 8.47911C7.47841 8.47911 7.08711 8.08781 7.08711 7.56607C7.08711 7.04433 7.47841 6.65302 8.00015 6.65302C8.52189 6.65302 8.91319 7.04433 8.91319 7.56607C8.91319 8.08781 8.52189 8.47911 8.00015 8.47911ZM7.08711 3.52259V4.95737C6.3045 5.21824 5.65232 5.87041 5.39145 6.65302H3.95667C4.34797 5.08781 5.52189 3.91389 7.08711 3.52259ZM3.95667 8.47911H5.39145C5.65232 9.26172 6.3045 9.84867 7.08711 10.1748V11.6095C5.52189 11.2182 4.34797 10.0443 3.95667 8.47911ZM8.91319 11.6095V10.1748C9.6958 9.91389 10.2828 9.26172 10.6088 8.47911H12.0436C11.6523 10.0443 10.4784 11.2182 8.91319 11.6095Z" fill="#27C58B"/>
</svg>
