<svg width="16" height="15" viewBox="0 0 16 15" fill="none" xmlns="http://www.w3.org/2000/svg">
<path d="M2.91309 4.76172V13.9574C2.91309 14.4791 3.30439 14.8704 3.82613 14.8704H12.1087C12.6305 14.8704 13.0218 14.4791 13.0218 13.9574V4.76172H2.91309ZM5.71743 13.0443H4.80439V6.58781H5.71743V13.0443ZM7.54352 13.0443H6.63048V6.58781H7.54352V13.0443ZM9.36961 13.0443H8.45656V6.58781H9.36961V13.0443ZM11.1957 13.0443H10.2827V6.58781H11.1957V13.0443Z" fill="#6695E2"/>
<path d="M13.2826 1.95695H10.2826V0.848251C10.2826 0.456946 9.95652 0.130859 9.56522 0.130859H6.36957C5.97826 0.130859 5.71739 0.456946 5.71739 0.848251V1.95695H2.71739C2.32609 1.95695 2 2.28303 2 2.67434V3.84825H14V2.67434C14 2.28303 13.6739 1.95695 13.2826 1.95695ZM9.36957 1.95695H6.63043V1.0439H9.36957V1.95695Z" fill="#6695E2"/>
</svg>
