<svg width="16" height="15" viewBox="0 0 16 15" fill="none" xmlns="http://www.w3.org/2000/svg">
<path d="M11.6522 12.9795L12.3043 12.3273L11 11.0229C11.587 10.3708 12.0435 9.58815 12.3043 8.80554C12.8913 9.06641 13.4783 9.26206 14.1304 9.45771L14.3261 8.60989C13.6739 8.47945 13.087 8.21858 12.5 7.95771C12.5 7.82728 12.5652 7.69684 12.5652 7.63162C12.6304 7.10989 12.6304 6.65336 12.5 6.19684C12.8261 6.06641 13.1522 5.87075 13.413 5.60989C13.8043 5.21858 14 4.76206 14.0652 4.30554H15.5V3.45771H14.0652C14 3.00119 13.7391 2.54467 13.413 2.15336C13.087 1.76206 12.5652 1.56641 12.1087 1.50119V0.0664062H11.2609V1.50119C10.8043 1.56641 10.3478 1.82728 9.95652 2.15336C9.69565 2.41423 9.5 2.6751 9.36957 3.06641C8.91304 3.00119 8.45652 2.93597 7.93478 3.00119C7.80435 3.00119 7.67391 3.00119 7.6087 3.06641C7.34783 2.47945 7.15217 1.89249 6.95652 1.24032L6.04348 1.43597C6.17391 2.08815 6.43478 2.6751 6.69565 3.26206C5.91304 3.52293 5.13043 3.97945 4.47826 4.56641L3.17391 3.26206L2.52174 3.91423L3.82609 5.21858C3.23913 5.87075 2.78261 6.65336 2.52174 7.43597C1.93478 7.1751 1.34783 6.97945 0.695652 6.7838L0.5 7.63162C1.15217 7.76206 1.73913 8.02293 2.32609 8.2838C2.32609 8.41423 2.26087 8.54467 2.26087 8.60989C2.06522 9.97945 2.52174 11.2838 3.36957 12.1316C4.28261 13.0447 5.52174 13.436 6.8913 13.2403C7.02174 13.2403 7.15217 13.2403 7.21739 13.1751C7.47826 13.7621 7.67391 14.349 7.86957 15.0012L8.71739 14.8055C8.58696 14.1534 8.32609 13.5664 8.06522 12.9795C8.84783 12.7186 9.63043 12.2621 10.2826 11.6751L11.6522 12.9795ZM7.54348 3.00119C8.06522 4.10989 8.71739 5.02293 9.56522 5.93597C10.413 6.7838 11.3261 7.43597 12.5 7.95771L12.2391 8.80554C11 8.2838 9.8913 7.50119 8.91304 6.52293C8 5.60989 7.21739 4.43597 6.69565 3.26206L7.54348 3.00119ZM6.56522 10.6968V8.93597H4.80435V8.08815H6.56522V6.32728H7.41304V8.08815H9.17391V8.93597H7.41304V10.6968H6.56522Z" fill="#E26666"/>
</svg>
