<svg width="39" height="39" viewBox="0 0 39 39" fill="none" xmlns="http://www.w3.org/2000/svg">
<path d="M0.0390625 19.4935C0.0390625 8.90098 8.66511 0.234375 19.208 0.234375C29.751 0.234375 38.377 8.90098 38.377 19.4935C38.377 30.0861 29.751 38.7526 19.208 38.7526C8.66511 38.7526 0.0390625 30.0861 0.0390625 19.4935Z" fill="#1A4A7F"/>
<path fill-rule="evenodd" clip-rule="evenodd" d="M16.0936 38.5113C12.2599 37.9095 8.66571 36.104 5.91016 33.3354L23.1622 17.4467L13.3381 19.8541C10.5826 20.5763 7.82707 18.8911 7.22803 16.1225C7.22803 16.1225 7.22803 16.1225 7.22803 16.0022C6.62899 13.2337 8.30628 10.4652 11.0618 9.74303L31.6684 4.6875C39.8154 11.5486 40.8936 23.7059 34.0646 31.7707C32.1477 34.0576 29.7515 35.8633 26.996 37.067C26.996 36.3448 26.996 35.6225 27.2357 35.0206L30.4705 25.2707C30.3506 25.2707 16.0936 38.5113 16.0936 38.5113Z" fill="#FFD40E"/>
</svg>
