<svg width="49" height="49" viewBox="0 0 49 49" fill="none" xmlns="http://www.w3.org/2000/svg">
<g clip-path="url(#clip0_7708_3931)">
<path d="M0.0488281 24.3669C0.0488281 11.1262 10.8314 0.292969 24.01 0.292969C37.1887 0.292969 47.9713 11.1262 47.9713 24.3669C47.9713 37.6076 37.1887 48.4407 24.01 48.4407C10.8314 48.4407 0.0488281 37.6076 0.0488281 24.3669Z" fill="#1A4A7F"/>
<path fill-rule="evenodd" clip-rule="evenodd" d="M20.118 48.1391C15.3258 47.3869 10.8331 45.13 7.38867 41.6693L28.9537 21.8084L16.6737 24.8176C13.2292 25.7204 9.7848 23.6139 9.03601 20.1532C9.03601 20.1532 9.03601 20.1532 9.03601 20.0028C8.28721 16.5422 10.3838 13.0815 13.8283 12.1788L39.5865 5.85938C49.7702 14.4357 51.118 29.6324 42.5817 39.7134C40.1856 42.5721 37.1904 44.8291 33.746 46.3337C33.746 45.4309 33.746 44.5282 34.0456 43.7758L38.0891 31.5884C37.9393 31.5884 20.118 48.1391 20.118 48.1391Z" fill="#FFD40E"/>
</g>
<defs>
<clipPath id="clip0_7708_3931">
<rect width="49" height="49" fill="white"/>
</clipPath>
</defs>
</svg>
