<svg width="24" height="24" viewBox="0 0 24 24" fill="none" xmlns="http://www.w3.org/2000/svg">
<g clip-path="url(#clip0_7708_3945)">
<path d="M0.0234375 11.6961C0.0234375 5.34059 5.19907 0.140625 11.5248 0.140625C17.8506 0.140625 23.0262 5.34059 23.0262 11.6961C23.0262 18.0517 17.8506 23.2516 11.5248 23.2516C5.19907 23.2516 0.0234375 18.0517 0.0234375 11.6961Z" fill="#1A4A7F"/>
<path fill-rule="evenodd" clip-rule="evenodd" d="M9.65597 23.1068C7.35575 22.7457 5.19923 21.6624 3.5459 20.0012L13.8971 10.468L8.00267 11.9125C6.34937 12.3458 4.69604 11.3347 4.33662 9.6735C4.33662 9.6735 4.33662 9.6735 4.33662 9.60132C3.9772 7.94022 4.98357 6.27912 6.63689 5.84582L19.0009 2.8125C23.8891 6.92916 24.536 14.2235 20.4386 19.0624C19.2884 20.4346 17.8507 21.518 16.1974 22.2402C16.1974 21.8069 16.1974 21.3735 16.3412 21.0124L18.2821 15.1624C18.2102 15.1624 9.65597 23.1068 9.65597 23.1068Z" fill="#FFD40E"/>
</g>
<defs>
<clipPath id="clip0_7708_3945">
<rect width="24" height="24" fill="white"/>
</clipPath>
</defs>
</svg>
