<?xml version="1.0" encoding="utf-8"?><svg viewBox="0 0 31 28" xmlns="http://www.w3.org/2000/svg" xmlns:xlink="http://www.w3.org/1999/xlink"><style>:root>svg{display:none}:root>svg:target{display:block}</style><svg viewBox="0 0 13 13" id="arrow-right-top" xmlns="http://www.w3.org/2000/svg"><path d="M1 0v2h8.59L0 11.59 1.41 13 11 3.41V12h2V0H1Z"/></svg><svg viewBox="0 0 31 23" id="burger-icon" xmlns="http://www.w3.org/2000/svg"><path fill-rule="evenodd" clip-rule="evenodd" d="M31 11.5a1.5 1.5 0 0 0-1.5-1.5h-28a1.5 1.5 0 1 0 0 3h28a1.5 1.5 0 0 0 1.5-1.5Zm0-10A1.5 1.5 0 0 0 29.5 0h-28a1.5 1.5 0 0 0 0 3h28A1.5 1.5 0 0 0 31 1.5Zm0 20a1.5 1.5 0 0 0-1.5-1.5h-28a1.5 1.5 0 1 0 0 3h28a1.5 1.5 0 0 0 1.5-1.5Z"/></svg><svg viewBox="0 0 27 28" id="close-icon" xmlns="http://www.w3.org/2000/svg"><path d="M25.5 26 1.5 2m24 0-24 24" stroke="#000" stroke-width="3" stroke-linecap="round"/></svg><svg viewBox="0 0 24 24" id="facebook-icon" xmlns="http://www.w3.org/2000/svg"><path d="M12 0C5.4 0 0 5.4 0 12s5.4 12 12 12 12-5.4 12-12S18.6 0 12 0Zm3 12.4h-2v7h-2.9v-7H8.8V10h1.4V8.4c0-1.1.5-2.9 2.9-2.9h2.1v2.4h-1.6c-.2 0-.6.1-.6.6V10h2.2l-.2 2.4Z"/></svg><svg viewBox="0 0 12 2" id="minus-icon" xmlns="http://www.w3.org/2000/svg"><path stroke="#111" stroke-width="2" stroke-linecap="round" d="M11 1H1"/></svg><svg viewBox="0 0 16 16" id="plus-icon" xmlns="http://www.w3.org/2000/svg"><path stroke="#000" stroke-width="2" stroke-linecap="round" d="M8 3v10M13 8H3"/></svg><svg viewBox="0 0 12 8" id="triangle-down" xmlns="http://www.w3.org/2000/svg"><path d="m4.95 7.3-3.9-3.9C.573 2.925.467 2.38.73 1.77c.263-.612.732-.919 1.406-.92h7.725c.675 0 1.144.307 1.407.92.263.612.156 1.156-.32 1.63l-3.9 3.9c-.15.15-.312.262-.487.337a1.413 1.413 0 0 1-.563.113c-.2 0-.387-.038-.562-.113a1.557 1.557 0 0 1-.488-.337Z"/></svg><svg viewBox="0 0 11 8" id="ungle-down" xmlns="http://www.w3.org/2000/svg"><path d="M.271.794C.091.99 0 1.239 0 1.542s.09.552.271.748L4.81 7.206a.856.856 0 0 0 .321.227c.115.044.238.066.37.067a.956.956 0 0 0 .69-.294L10.73 2.29c.18-.196.271-.445.271-.748s-.09-.552-.271-.748a.899.899 0 0 0-.69-.294c-.28 0-.51.098-.691.294L5.5 4.962 1.652.794A.899.899 0 0 0 .962.5c-.28 0-.51.098-.69.294Z"/></svg><svg viewBox="0 0 24 24" id="vk-icon" xmlns="http://www.w3.org/2000/svg"><path d="M12 0C5.4 0 0 5.4 0 12s5.4 12 12 12 12-5.4 12-12S18.6 0 12 0Zm6.9 17.3h-2.1s-.5.1-1-.3c-.8-.5-1.5-1.9-2.1-1.8-.7.2-.7 1.5-.7 1.5s0 .3-.1.4c-.1.2-.4.2-.4.2h-.9s-2.1.1-3.9-1.8c-2-2.1-3.8-6.2-3.8-6.2s-.1-.3 0-.4c.1-.2.5-.2.5-.2h2.3s.2 0 .4.1c.1.1.2.3.2.3s.2.9.7 1.8c.9 1.6 1.4 2 1.7 1.8.5-.3.3-2.3.3-2.3s0-.7-.2-1.1c-.2-.2-.5-.3-.7-.3-.1-.1.1-.4.3-.5.4-.2 1.1-.2 2-.2.7 0 .8 0 1.1.1.8.2.5.9.5 2.6 0 .6-.1 1.3.3 1.6.2.1.6 0 1.6-1.8.6-.8 1-1.8 1-1.8s.1-.2.2-.3c.1-.1.3-.1.3-.1h2.4s.7-.1.8.2c.1.3-.3 1.1-1.2 2.4-1.6 2.1-1.8 1.9-.4 3.1 1.3 1.2 1.5 1.7 1.6 1.8.4 1.1-.7 1.2-.7 1.2Z"/></svg></svg>